G04 #@! TF.GenerationSoftware,KiCad,Pcbnew,(5.1.5)-3*
G04 #@! TF.CreationDate,2020-04-28T03:57:39+03:00*
G04 #@! TF.ProjectId,arduino-fanatec-pcb,61726475-696e-46f2-9d66-616e61746563,rev?*
G04 #@! TF.SameCoordinates,Original*
G04 #@! TF.FileFunction,Copper,L2,Bot*
G04 #@! TF.FilePolarity,Positive*
%FSLAX46Y46*%
G04 Gerber Fmt 4.6, Leading zero omitted, Abs format (unit mm)*
G04 Created by KiCad (PCBNEW (5.1.5)-3) date 2020-04-28 03:57:39*
%MOMM*%
%LPD*%
G04 APERTURE LIST*
%ADD10O,1.600000X1.600000*%
%ADD11R,1.600000X1.600000*%
%ADD12R,1.700000X1.700000*%
%ADD13O,1.700000X1.700000*%
%ADD14C,6.000000*%
%ADD15C,2.000000*%
%ADD16O,1.800000X1.800000*%
%ADD17R,1.800000X1.800000*%
%ADD18C,1.600000*%
%ADD19C,0.500000*%
%ADD20C,0.700000*%
%ADD21C,0.254000*%
G04 APERTURE END LIST*
D10*
X101600000Y-105410000D03*
X86360000Y-105410000D03*
X101600000Y-69850000D03*
X86360000Y-102870000D03*
X101600000Y-72390000D03*
X86360000Y-100330000D03*
X101600000Y-74930000D03*
X86360000Y-97790000D03*
X101600000Y-77470000D03*
X86360000Y-95250000D03*
X101600000Y-80010000D03*
X86360000Y-92710000D03*
X101600000Y-82550000D03*
X86360000Y-90170000D03*
X101600000Y-85090000D03*
X86360000Y-87630000D03*
X101600000Y-87630000D03*
X86360000Y-85090000D03*
X101600000Y-90170000D03*
X86360000Y-82550000D03*
X101600000Y-92710000D03*
X86360000Y-80010000D03*
X101600000Y-95250000D03*
X86360000Y-77470000D03*
X101600000Y-97790000D03*
X86360000Y-74930000D03*
X101600000Y-100330000D03*
X86360000Y-72390000D03*
X101600000Y-102870000D03*
D11*
X86360000Y-69850000D03*
D12*
X116840000Y-110490000D03*
D13*
X119380000Y-110490000D03*
X116840000Y-107950000D03*
X119380000Y-107950000D03*
X116840000Y-105410000D03*
X119380000Y-105410000D03*
X116840000Y-102870000D03*
X119380000Y-102870000D03*
X116840000Y-100330000D03*
X119380000Y-100330000D03*
X116840000Y-97790000D03*
X119380000Y-97790000D03*
X116840000Y-95250000D03*
X119380000Y-95250000D03*
X116840000Y-92710000D03*
X119380000Y-92710000D03*
X116840000Y-90170000D03*
X119380000Y-90170000D03*
X116840000Y-87630000D03*
X119380000Y-87630000D03*
X116840000Y-85090000D03*
X119380000Y-85090000D03*
X116840000Y-82550000D03*
X119380000Y-82550000D03*
X116840000Y-80010000D03*
X119380000Y-80010000D03*
X116840000Y-77470000D03*
X119380000Y-77470000D03*
X116840000Y-74930000D03*
X119380000Y-74930000D03*
X116840000Y-72390000D03*
X119380000Y-72390000D03*
X116840000Y-69850000D03*
X119380000Y-69850000D03*
X116840000Y-67310000D03*
X119380000Y-67310000D03*
D10*
X77470000Y-86360000D03*
X67310000Y-99060000D03*
X77470000Y-88900000D03*
X67310000Y-96520000D03*
X77470000Y-91440000D03*
X67310000Y-93980000D03*
X77470000Y-93980000D03*
X67310000Y-91440000D03*
X77470000Y-96520000D03*
X67310000Y-88900000D03*
X77470000Y-99060000D03*
D11*
X67310000Y-86360000D03*
D13*
X55118000Y-100330000D03*
X55118000Y-97790000D03*
X55118000Y-95250000D03*
X55118000Y-92710000D03*
X55118000Y-90170000D03*
X55118000Y-87630000D03*
X55118000Y-85090000D03*
D12*
X55118000Y-82550000D03*
D14*
X84455000Y-111125000D03*
D10*
X56515000Y-55880000D03*
X64135000Y-55880000D03*
X73025000Y-70485000D03*
X73025000Y-62865000D03*
X78740000Y-48895000D03*
X78740000Y-56515000D03*
X58420000Y-45720000D03*
X58420000Y-38100000D03*
X78740000Y-36830000D03*
X78740000Y-44450000D03*
D15*
X70635000Y-71755000D03*
X70635000Y-76255000D03*
X64135000Y-71755000D03*
X64135000Y-76255000D03*
X70635000Y-58420000D03*
X70635000Y-62920000D03*
X64135000Y-58420000D03*
X64135000Y-62920000D03*
X76350000Y-48840000D03*
X76350000Y-53340000D03*
X69850000Y-48840000D03*
X69850000Y-53340000D03*
X64920000Y-48840000D03*
X64920000Y-53340000D03*
X58420000Y-48840000D03*
X58420000Y-53340000D03*
X70635000Y-39370000D03*
X70635000Y-43870000D03*
X64135000Y-39370000D03*
X64135000Y-43870000D03*
D13*
X119380000Y-53340000D03*
X119380000Y-50800000D03*
X119380000Y-48260000D03*
D12*
X119380000Y-45720000D03*
D14*
X109620000Y-67310000D03*
X59290000Y-67310000D03*
D16*
X67310000Y-81915000D03*
D17*
X77470000Y-81915000D03*
D13*
X59690000Y-100330000D03*
X59690000Y-97790000D03*
X59690000Y-95250000D03*
X59690000Y-92710000D03*
X59690000Y-90170000D03*
X59690000Y-87630000D03*
X59690000Y-85090000D03*
D12*
X59690000Y-82550000D03*
D18*
X80010000Y-96520000D03*
X83058000Y-102768400D03*
X98425000Y-100330000D03*
X61750000Y-93980000D03*
X65250000Y-93980000D03*
X80010000Y-91440000D03*
X64476878Y-98286878D03*
X63500000Y-88900000D03*
X105410000Y-74930000D03*
X105410000Y-69839991D03*
X113031397Y-107951397D03*
X83185000Y-100330006D03*
X115570000Y-48260000D03*
X95330010Y-85090000D03*
X115570000Y-45720000D03*
X95250006Y-82550000D03*
X88900000Y-72390000D03*
X113030000Y-113030000D03*
X88900000Y-69850000D03*
X113030000Y-110490000D03*
X60325000Y-76200000D03*
X98425000Y-97790000D03*
X64164438Y-84425562D03*
D19*
X75619999Y-99948001D02*
X81081998Y-105410000D01*
X75619999Y-90551999D02*
X75619999Y-99948001D01*
X77470000Y-88900000D02*
X77271998Y-88900000D01*
X77271998Y-88900000D02*
X75619999Y-90551999D01*
X81081998Y-105410000D02*
X86360000Y-105410000D01*
X83159600Y-102870000D02*
X83058000Y-102768400D01*
X86360000Y-102870000D02*
X83159600Y-102870000D01*
X80010000Y-96520000D02*
X77470000Y-96520000D01*
X116715998Y-67310000D02*
X116840000Y-67310000D01*
X115039999Y-69687509D02*
X115039999Y-68985999D01*
X101600000Y-80010000D02*
X104717508Y-80010000D01*
X115039999Y-68985999D02*
X116715998Y-67310000D01*
X104717508Y-80010000D02*
X115039999Y-69687509D01*
X116715998Y-69850000D02*
X116840000Y-69850000D01*
X101600000Y-82550000D02*
X104015998Y-82550000D01*
X104015998Y-82550000D02*
X116715998Y-69850000D01*
X116460499Y-72390000D02*
X116840000Y-72390000D01*
X101600000Y-85090000D02*
X103760499Y-85090000D01*
X103760499Y-85090000D02*
X116460499Y-72390000D01*
X116014489Y-74930000D02*
X116840000Y-74930000D01*
X101600000Y-87630000D02*
X103314489Y-87630000D01*
X103314489Y-87630000D02*
X116014489Y-74930000D01*
X115637919Y-77470000D02*
X116840000Y-77470000D01*
X101600000Y-90170000D02*
X102937919Y-90170000D01*
X102937919Y-90170000D02*
X115637919Y-77470000D01*
X115637919Y-80010000D02*
X116840000Y-80010000D01*
X101600000Y-92710000D02*
X102937919Y-92710000D01*
X102937919Y-92710000D02*
X115637919Y-80010000D01*
X115637919Y-82550000D02*
X116840000Y-82550000D01*
X101600000Y-95250000D02*
X102937919Y-95250000D01*
X102937919Y-95250000D02*
X115637919Y-82550000D01*
X101600000Y-100330000D02*
X98425000Y-100330000D01*
D20*
X119380000Y-67310000D02*
X119380000Y-110490000D01*
X119380000Y-53340000D02*
X119380000Y-67310000D01*
X59119999Y-38799999D02*
X58420000Y-38100000D01*
X61640001Y-41320001D02*
X59119999Y-38799999D01*
X75610001Y-41320001D02*
X61640001Y-41320001D01*
X78740000Y-44450000D02*
X75610001Y-41320001D01*
X79439999Y-55815001D02*
X78740000Y-56515000D01*
X80390001Y-54864999D02*
X79439999Y-55815001D01*
D19*
X80390001Y-48102999D02*
X80390001Y-54864999D01*
X78740000Y-46452998D02*
X80390001Y-48102999D01*
D20*
X78740000Y-44450000D02*
X78740000Y-46452998D01*
X64135000Y-71755000D02*
X70635000Y-71755000D01*
X72585001Y-73705001D02*
X72585001Y-77191001D01*
X70635000Y-71755000D02*
X72585001Y-73705001D01*
X57720001Y-38799999D02*
X58420000Y-38100000D01*
X56469999Y-40050001D02*
X57720001Y-38799999D01*
X56469999Y-54276001D02*
X56469999Y-40050001D01*
X56515000Y-54321002D02*
X56469999Y-54276001D01*
X56515000Y-55880000D02*
X56515000Y-54321002D01*
X101600000Y-72390000D02*
X110386002Y-72390000D01*
X113570001Y-67785999D02*
X115846001Y-65509999D01*
X118782080Y-65509999D02*
X119380000Y-66107919D01*
X110386002Y-72390000D02*
X113570001Y-69206001D01*
X119380000Y-66107919D02*
X119380000Y-67310000D01*
X113570001Y-69206001D02*
X113570001Y-67785999D01*
X115846001Y-65509999D02*
X118782080Y-65509999D01*
X72585001Y-77191001D02*
X71571001Y-78205001D01*
X61780010Y-89720010D02*
X60539999Y-88479999D01*
X60539999Y-88479999D02*
X59690000Y-87630000D01*
X61750000Y-93278491D02*
X61780010Y-93248481D01*
X61722000Y-92710000D02*
X59690000Y-92710000D01*
X61780010Y-92768010D02*
X61722000Y-92710000D01*
X61780010Y-92768010D02*
X61780010Y-89720010D01*
X61780010Y-93248481D02*
X61780010Y-92768010D01*
X55118000Y-87630000D02*
X59690000Y-87630000D01*
X55118000Y-92710000D02*
X59690000Y-92710000D01*
X61750000Y-93980000D02*
X61750000Y-93278491D01*
X52017989Y-90812070D02*
X53915919Y-92710000D01*
X52017989Y-80401518D02*
X52017989Y-90812070D01*
X53915919Y-92710000D02*
X55118000Y-92710000D01*
X54214507Y-78205001D02*
X52017989Y-80401518D01*
X71571001Y-78205001D02*
X54214507Y-78205001D01*
X70635000Y-70320998D02*
X70635000Y-71755000D01*
X78740000Y-56515000D02*
X78740000Y-62215998D01*
X78740000Y-62215998D02*
X70635000Y-70320998D01*
X65250000Y-93980000D02*
X67310000Y-93980000D01*
X83309988Y-81171517D02*
X83309988Y-88140012D01*
X83850011Y-69118481D02*
X83850011Y-80631494D01*
X83309988Y-88140012D02*
X80010000Y-91440000D01*
X101600000Y-72390000D02*
X97309999Y-68099999D01*
X83850011Y-80631494D02*
X83309988Y-81171517D01*
X97309999Y-68099999D02*
X84868493Y-68099999D01*
X84868493Y-68099999D02*
X83850011Y-69118481D01*
X78740000Y-92710000D02*
X77470000Y-93980000D01*
X80010000Y-91440000D02*
X78740000Y-92710000D01*
D19*
X66178630Y-88900000D02*
X67310000Y-88900000D01*
X66164002Y-88900000D02*
X66178630Y-88900000D01*
X59814002Y-82550000D02*
X66164002Y-88900000D01*
X59690000Y-82550000D02*
X59814002Y-82550000D01*
X55118000Y-82550000D02*
X59690000Y-82550000D01*
X60892081Y-100330000D02*
X59690000Y-100330000D01*
X64908630Y-100330000D02*
X60892081Y-100330000D01*
X66178630Y-99060000D02*
X64908630Y-100330000D01*
X67310000Y-99060000D02*
X66178630Y-99060000D01*
X55118000Y-100330000D02*
X59690000Y-100330000D01*
X67310000Y-91440000D02*
X63500000Y-91440000D01*
X63500000Y-91440000D02*
X63500000Y-96520000D01*
X62230000Y-97790000D02*
X59690000Y-97790000D01*
X63500000Y-96520000D02*
X62230000Y-97790000D01*
X55118000Y-97790000D02*
X59690000Y-97790000D01*
X53915919Y-95250000D02*
X55118000Y-95250000D01*
X53317999Y-95847920D02*
X53915919Y-95250000D01*
X53317999Y-101194001D02*
X53317999Y-95847920D01*
X54253999Y-102130001D02*
X53317999Y-101194001D01*
X66830001Y-102130001D02*
X54253999Y-102130001D01*
X69060001Y-99900001D02*
X66830001Y-102130001D01*
X69060001Y-86610001D02*
X69060001Y-99900001D01*
X68810000Y-86360000D02*
X69060001Y-86610001D01*
X67310000Y-86360000D02*
X68810000Y-86360000D01*
X55118000Y-95250000D02*
X59690000Y-95250000D01*
X67310000Y-96520000D02*
X66243756Y-96520000D01*
X66243756Y-96520000D02*
X64476878Y-98286878D01*
X60539999Y-85939999D02*
X59690000Y-85090000D01*
X60664001Y-85939999D02*
X60539999Y-85939999D01*
X61490001Y-86765999D02*
X60664001Y-85939999D01*
X61490001Y-86890001D02*
X61490001Y-86765999D01*
X63500000Y-88900000D02*
X61490001Y-86890001D01*
X55118000Y-85090000D02*
X59690000Y-85090000D01*
D20*
X101600000Y-77470000D02*
X102870000Y-77470000D01*
X102870000Y-77470000D02*
X105410000Y-74930000D01*
X82550000Y-68579999D02*
X84455000Y-66675000D01*
X84455000Y-66675000D02*
X102235000Y-66675000D01*
X82009977Y-80633035D02*
X82550000Y-80093012D01*
X77470000Y-91440000D02*
X82009977Y-86900023D01*
X81915000Y-81915000D02*
X82009977Y-81820023D01*
X82009977Y-81820023D02*
X82009977Y-80633035D01*
X82550000Y-80093012D02*
X82550000Y-70485000D01*
X82550000Y-70485000D02*
X82550000Y-68579999D01*
X81915000Y-81915000D02*
X82009977Y-82009977D01*
X77470000Y-81915000D02*
X81915000Y-81915000D01*
X82009977Y-86900023D02*
X82009977Y-82009977D01*
X82009977Y-82009977D02*
X82009977Y-81820023D01*
X73025000Y-70485000D02*
X82550001Y-70485000D01*
X102302919Y-66675000D02*
X102235000Y-66675000D01*
X118177919Y-50800000D02*
X102302919Y-66675000D01*
X119380000Y-50800000D02*
X118177919Y-50800000D01*
X102245009Y-66675000D02*
X104610001Y-69039992D01*
X104610001Y-69039992D02*
X105410000Y-69839991D01*
X102235000Y-66675000D02*
X102245009Y-66675000D01*
D19*
X116840000Y-105410000D02*
X115572794Y-105410000D01*
X115572794Y-105410000D02*
X113031397Y-107951397D01*
X86360000Y-100330000D02*
X83185006Y-100330000D01*
X83185006Y-100330000D02*
X83185000Y-100330006D01*
X84609999Y-81760001D02*
X86360000Y-80010000D01*
X84609999Y-88678494D02*
X84609999Y-81760001D01*
X83185000Y-100330006D02*
X83185000Y-90103493D01*
X83185000Y-90103493D02*
X84609999Y-88678494D01*
X83184994Y-100330000D02*
X83185000Y-100330006D01*
X77470000Y-99060000D02*
X78740000Y-100330000D01*
X78740000Y-100330000D02*
X83184994Y-100330000D01*
X115570000Y-48260000D02*
X119380000Y-48260000D01*
X95250000Y-93980000D02*
X87159999Y-85889999D01*
X97636599Y-108585000D02*
X95250000Y-106198401D01*
X102896404Y-108585000D02*
X97636599Y-108585000D01*
X115570000Y-90170000D02*
X104775000Y-100965000D01*
X104775000Y-106706404D02*
X102896404Y-108585000D01*
X104775000Y-100965000D02*
X104775000Y-106706404D01*
X116840000Y-90170000D02*
X115570000Y-90170000D01*
X87159999Y-85889999D02*
X86360000Y-85090000D01*
X95250000Y-106198401D02*
X95250000Y-93980000D01*
X86360000Y-85090000D02*
X95330010Y-85090000D01*
X115570000Y-45720000D02*
X119380000Y-45720000D01*
X86360000Y-82550000D02*
X95250006Y-82550000D01*
X96520000Y-82550000D02*
X95250006Y-82550000D01*
X97320003Y-83350003D02*
X96520000Y-82550000D01*
X96600026Y-105794023D02*
X96600026Y-85817986D01*
X97320003Y-85098009D02*
X97320003Y-83350003D01*
X115637919Y-87630000D02*
X103350001Y-99917918D01*
X116840000Y-87630000D02*
X115637919Y-87630000D01*
X97966004Y-107160001D02*
X96600026Y-105794023D01*
X103350001Y-99917918D02*
X103350001Y-106250001D01*
X96600026Y-85817986D02*
X97320003Y-85098009D01*
X103350001Y-106250001D02*
X102440001Y-107160001D01*
X102440001Y-107160001D02*
X97966004Y-107160001D01*
X86360000Y-72390000D02*
X88900000Y-72390000D01*
X116840000Y-110490000D02*
X115570000Y-110490000D01*
X115570000Y-110490000D02*
X113030000Y-113030000D01*
X86360000Y-69850000D02*
X88900000Y-69850000D01*
X116840000Y-107950000D02*
X115570000Y-107950000D01*
X115570000Y-107950000D02*
X113030000Y-110490000D01*
X115637919Y-85090000D02*
X116840000Y-85090000D01*
X101600000Y-97790000D02*
X102937919Y-97790000D01*
X64080000Y-76200000D02*
X64135000Y-76255000D01*
X60325000Y-76200000D02*
X64080000Y-76200000D01*
X64135000Y-76255000D02*
X70635000Y-76255000D01*
X64135000Y-64334213D02*
X64135000Y-62920000D01*
X64135000Y-68119002D02*
X64135000Y-64334213D01*
X60325000Y-71929002D02*
X64135000Y-68119002D01*
X60325000Y-76200000D02*
X60325000Y-71929002D01*
X64135000Y-62920000D02*
X70635000Y-62920000D01*
X72970000Y-62920000D02*
X73025000Y-62865000D01*
X70635000Y-62920000D02*
X72970000Y-62920000D01*
X58420000Y-57205000D02*
X58420000Y-53340000D01*
X64135000Y-62920000D02*
X58420000Y-57205000D01*
X58420000Y-53340000D02*
X64920000Y-53340000D01*
X70635000Y-43870000D02*
X64135000Y-43870000D01*
X76350000Y-53340000D02*
X69850000Y-53340000D01*
X102937919Y-97790000D02*
X115637919Y-85090000D01*
X69850000Y-53340000D02*
X64920000Y-53340000D01*
X67310000Y-53340000D02*
X67310000Y-43815000D01*
X64920000Y-53340000D02*
X67310000Y-53340000D01*
X101600000Y-97790000D02*
X98425000Y-97790000D01*
X70635000Y-58420000D02*
X64135000Y-58420000D01*
X64135000Y-58420000D02*
X64135000Y-55880000D01*
X58420000Y-45720000D02*
X58420000Y-48840000D01*
X64920000Y-48840000D02*
X58420000Y-48840000D01*
X69850000Y-48840000D02*
X76350000Y-48840000D01*
X78685000Y-48840000D02*
X78740000Y-48895000D01*
X76350000Y-48840000D02*
X78685000Y-48840000D01*
X73175000Y-36830000D02*
X78740000Y-36830000D01*
X70635000Y-39370000D02*
X73175000Y-36830000D01*
X64135000Y-39370000D02*
X70635000Y-39370000D01*
X88719939Y-100149939D02*
X87159999Y-98589999D01*
X87159999Y-98589999D02*
X86360000Y-97790000D01*
X88719939Y-109039939D02*
X88719939Y-100149939D01*
X111150066Y-107357853D02*
X111150066Y-109480892D01*
X111150066Y-109480892D02*
X105670892Y-114960066D01*
X115637919Y-102870000D02*
X111150066Y-107357853D01*
X105670892Y-114960066D02*
X94640066Y-114960066D01*
X116840000Y-102870000D02*
X115637919Y-102870000D01*
X94640066Y-114960066D02*
X88719939Y-109039939D01*
X115637919Y-100330000D02*
X116840000Y-100330000D01*
X109850056Y-106117863D02*
X115637919Y-100330000D01*
X105132411Y-113660056D02*
X109850056Y-108942411D01*
X95273589Y-113660056D02*
X105132411Y-113660056D01*
X90555944Y-108942411D02*
X95273589Y-113660056D01*
X90555944Y-108942406D02*
X90555944Y-108942411D01*
X90019949Y-108406411D02*
X90555944Y-108942406D01*
X90019949Y-98909949D02*
X90019949Y-108406411D01*
X109850056Y-108942411D02*
X109850056Y-106117863D01*
X86360000Y-95250000D02*
X90019949Y-98909949D01*
X108550045Y-104877874D02*
X115637919Y-97790000D01*
X115637919Y-97790000D02*
X116840000Y-97790000D01*
X91319960Y-97669960D02*
X91319960Y-107867934D01*
X91319960Y-107867934D02*
X95812071Y-112360045D01*
X95812071Y-112360045D02*
X104593929Y-112360045D01*
X104593929Y-112360045D02*
X108550045Y-108403929D01*
X108550045Y-108403929D02*
X108550045Y-104877874D01*
X86360000Y-92710000D02*
X91319960Y-97669960D01*
X104055447Y-111060034D02*
X107250034Y-107865447D01*
X107250034Y-103637885D02*
X115637919Y-95250000D01*
X96350553Y-111060034D02*
X104055447Y-111060034D01*
X92619967Y-107329448D02*
X96350553Y-111060034D01*
X115637919Y-95250000D02*
X116840000Y-95250000D01*
X92619967Y-96429967D02*
X92619967Y-107329448D01*
X107250034Y-107865447D02*
X107250034Y-103637885D01*
X86360000Y-90170000D02*
X92619967Y-96429967D01*
X93919978Y-95189978D02*
X93919978Y-106790966D01*
X103516965Y-109760023D02*
X105950023Y-107326965D01*
X96889035Y-109760023D02*
X103516965Y-109760023D01*
X93919978Y-106790966D02*
X96889035Y-109760023D01*
X115637919Y-92710000D02*
X116840000Y-92710000D01*
X105950023Y-102397896D02*
X115637919Y-92710000D01*
X105950023Y-107326965D02*
X105950023Y-102397896D01*
X86360000Y-87630000D02*
X93919978Y-95189978D01*
X64135000Y-81915000D02*
X67310000Y-81915000D01*
X64135000Y-81915000D02*
X64164438Y-81944438D01*
X64164438Y-81944438D02*
X64164438Y-84425562D01*
X64135000Y-84396124D02*
X64164438Y-84425562D01*
X55118000Y-90170000D02*
X59690000Y-90170000D01*
X54102000Y-90170000D02*
X55118000Y-90170000D01*
X53317999Y-89385999D02*
X54102000Y-90170000D01*
X62230000Y-81915000D02*
X60325000Y-80010000D01*
X64135000Y-81915000D02*
X62230000Y-81915000D01*
X60325000Y-80010000D02*
X54247998Y-80010000D01*
X54247998Y-80010000D02*
X53317999Y-80939999D01*
X53317999Y-80939999D02*
X53317999Y-89385999D01*
D21*
G36*
X70951243Y-37672071D02*
G01*
X70805095Y-37643000D01*
X70464905Y-37643000D01*
X70131253Y-37709368D01*
X69816959Y-37839553D01*
X69534102Y-38028552D01*
X69293552Y-38269102D01*
X69210766Y-38393000D01*
X65559234Y-38393000D01*
X65476448Y-38269102D01*
X65235898Y-38028552D01*
X64953041Y-37839553D01*
X64638747Y-37709368D01*
X64305095Y-37643000D01*
X63964905Y-37643000D01*
X63631253Y-37709368D01*
X63316959Y-37839553D01*
X63034102Y-38028552D01*
X62793552Y-38269102D01*
X62604553Y-38551959D01*
X62474368Y-38866253D01*
X62408000Y-39199905D01*
X62408000Y-39540095D01*
X62474368Y-39873747D01*
X62604553Y-40188041D01*
X62793552Y-40470898D01*
X63034102Y-40711448D01*
X63316959Y-40900447D01*
X63631253Y-41030632D01*
X63964905Y-41097000D01*
X64305095Y-41097000D01*
X64638747Y-41030632D01*
X64953041Y-40900447D01*
X65235898Y-40711448D01*
X65476448Y-40470898D01*
X65559234Y-40347000D01*
X69210766Y-40347000D01*
X69293552Y-40470898D01*
X69534102Y-40711448D01*
X69816959Y-40900447D01*
X70131253Y-41030632D01*
X70464905Y-41097000D01*
X70805095Y-41097000D01*
X71138747Y-41030632D01*
X71453041Y-40900447D01*
X71735898Y-40711448D01*
X71976448Y-40470898D01*
X72165447Y-40188041D01*
X72295632Y-39873747D01*
X72362000Y-39540095D01*
X72362000Y-39199905D01*
X72332929Y-39053757D01*
X73579687Y-37807000D01*
X77557495Y-37807000D01*
X77766594Y-38016099D01*
X78016694Y-38183210D01*
X78294590Y-38298319D01*
X78589604Y-38357000D01*
X78890396Y-38357000D01*
X79185410Y-38298319D01*
X79463306Y-38183210D01*
X79713406Y-38016099D01*
X79926099Y-37803406D01*
X80093210Y-37553306D01*
X80208319Y-37275410D01*
X80267000Y-36980396D01*
X80267000Y-36679604D01*
X80208319Y-36384590D01*
X80140143Y-36220000D01*
X121260001Y-36220000D01*
X121260000Y-114910000D01*
X107102644Y-114910000D01*
X111503000Y-110509645D01*
X111503000Y-110640396D01*
X111561681Y-110935410D01*
X111676790Y-111213306D01*
X111843901Y-111463406D01*
X112056594Y-111676099D01*
X112182161Y-111760000D01*
X112056594Y-111843901D01*
X111843901Y-112056594D01*
X111676790Y-112306694D01*
X111561681Y-112584590D01*
X111503000Y-112879604D01*
X111503000Y-113180396D01*
X111561681Y-113475410D01*
X111676790Y-113753306D01*
X111843901Y-114003406D01*
X112056594Y-114216099D01*
X112306694Y-114383210D01*
X112584590Y-114498319D01*
X112879604Y-114557000D01*
X113180396Y-114557000D01*
X113475410Y-114498319D01*
X113753306Y-114383210D01*
X114003406Y-114216099D01*
X114216099Y-114003406D01*
X114383210Y-113753306D01*
X114498319Y-113475410D01*
X114557000Y-113180396D01*
X114557000Y-112884686D01*
X115534790Y-111906897D01*
X115584147Y-111947403D01*
X115710443Y-112014910D01*
X115847483Y-112056480D01*
X115990000Y-112070517D01*
X117690000Y-112070517D01*
X117832517Y-112056480D01*
X117969557Y-112014910D01*
X118095853Y-111947403D01*
X118206554Y-111856554D01*
X118297403Y-111745853D01*
X118364910Y-111619557D01*
X118377994Y-111576425D01*
X118498645Y-111685178D01*
X118748748Y-111834157D01*
X119023109Y-111931481D01*
X119253000Y-111810814D01*
X119253000Y-110617000D01*
X119507000Y-110617000D01*
X119507000Y-111810814D01*
X119736891Y-111931481D01*
X120011252Y-111834157D01*
X120261355Y-111685178D01*
X120477588Y-111490269D01*
X120651641Y-111256920D01*
X120776825Y-110994099D01*
X120821476Y-110846890D01*
X120700155Y-110617000D01*
X119507000Y-110617000D01*
X119253000Y-110617000D01*
X119233000Y-110617000D01*
X119233000Y-110363000D01*
X119253000Y-110363000D01*
X119253000Y-108077000D01*
X119507000Y-108077000D01*
X119507000Y-110363000D01*
X120700155Y-110363000D01*
X120821476Y-110133110D01*
X120776825Y-109985901D01*
X120651641Y-109723080D01*
X120477588Y-109489731D01*
X120261355Y-109294822D01*
X120135745Y-109220000D01*
X120261355Y-109145178D01*
X120477588Y-108950269D01*
X120651641Y-108716920D01*
X120776825Y-108454099D01*
X120821476Y-108306890D01*
X120700155Y-108077000D01*
X119507000Y-108077000D01*
X119253000Y-108077000D01*
X119233000Y-108077000D01*
X119233000Y-107823000D01*
X119253000Y-107823000D01*
X119253000Y-105537000D01*
X119507000Y-105537000D01*
X119507000Y-107823000D01*
X120700155Y-107823000D01*
X120821476Y-107593110D01*
X120776825Y-107445901D01*
X120651641Y-107183080D01*
X120477588Y-106949731D01*
X120261355Y-106754822D01*
X120135745Y-106680000D01*
X120261355Y-106605178D01*
X120477588Y-106410269D01*
X120651641Y-106176920D01*
X120776825Y-105914099D01*
X120821476Y-105766890D01*
X120700155Y-105537000D01*
X119507000Y-105537000D01*
X119253000Y-105537000D01*
X119233000Y-105537000D01*
X119233000Y-105283000D01*
X119253000Y-105283000D01*
X119253000Y-102997000D01*
X119507000Y-102997000D01*
X119507000Y-105283000D01*
X120700155Y-105283000D01*
X120821476Y-105053110D01*
X120776825Y-104905901D01*
X120651641Y-104643080D01*
X120477588Y-104409731D01*
X120261355Y-104214822D01*
X120135745Y-104140000D01*
X120261355Y-104065178D01*
X120477588Y-103870269D01*
X120651641Y-103636920D01*
X120776825Y-103374099D01*
X120821476Y-103226890D01*
X120700155Y-102997000D01*
X119507000Y-102997000D01*
X119253000Y-102997000D01*
X119233000Y-102997000D01*
X119233000Y-102743000D01*
X119253000Y-102743000D01*
X119253000Y-100457000D01*
X119507000Y-100457000D01*
X119507000Y-102743000D01*
X120700155Y-102743000D01*
X120821476Y-102513110D01*
X120776825Y-102365901D01*
X120651641Y-102103080D01*
X120477588Y-101869731D01*
X120261355Y-101674822D01*
X120135745Y-101600000D01*
X120261355Y-101525178D01*
X120477588Y-101330269D01*
X120651641Y-101096920D01*
X120776825Y-100834099D01*
X120821476Y-100686890D01*
X120700155Y-100457000D01*
X119507000Y-100457000D01*
X119253000Y-100457000D01*
X119233000Y-100457000D01*
X119233000Y-100203000D01*
X119253000Y-100203000D01*
X119253000Y-97917000D01*
X119507000Y-97917000D01*
X119507000Y-100203000D01*
X120700155Y-100203000D01*
X120821476Y-99973110D01*
X120776825Y-99825901D01*
X120651641Y-99563080D01*
X120477588Y-99329731D01*
X120261355Y-99134822D01*
X120135745Y-99060000D01*
X120261355Y-98985178D01*
X120477588Y-98790269D01*
X120651641Y-98556920D01*
X120776825Y-98294099D01*
X120821476Y-98146890D01*
X120700155Y-97917000D01*
X119507000Y-97917000D01*
X119253000Y-97917000D01*
X119233000Y-97917000D01*
X119233000Y-97663000D01*
X119253000Y-97663000D01*
X119253000Y-95377000D01*
X119507000Y-95377000D01*
X119507000Y-97663000D01*
X120700155Y-97663000D01*
X120821476Y-97433110D01*
X120776825Y-97285901D01*
X120651641Y-97023080D01*
X120477588Y-96789731D01*
X120261355Y-96594822D01*
X120135745Y-96520000D01*
X120261355Y-96445178D01*
X120477588Y-96250269D01*
X120651641Y-96016920D01*
X120776825Y-95754099D01*
X120821476Y-95606890D01*
X120700155Y-95377000D01*
X119507000Y-95377000D01*
X119253000Y-95377000D01*
X119233000Y-95377000D01*
X119233000Y-95123000D01*
X119253000Y-95123000D01*
X119253000Y-92837000D01*
X119507000Y-92837000D01*
X119507000Y-95123000D01*
X120700155Y-95123000D01*
X120821476Y-94893110D01*
X120776825Y-94745901D01*
X120651641Y-94483080D01*
X120477588Y-94249731D01*
X120261355Y-94054822D01*
X120135745Y-93980000D01*
X120261355Y-93905178D01*
X120477588Y-93710269D01*
X120651641Y-93476920D01*
X120776825Y-93214099D01*
X120821476Y-93066890D01*
X120700155Y-92837000D01*
X119507000Y-92837000D01*
X119253000Y-92837000D01*
X119233000Y-92837000D01*
X119233000Y-92583000D01*
X119253000Y-92583000D01*
X119253000Y-90297000D01*
X119507000Y-90297000D01*
X119507000Y-92583000D01*
X120700155Y-92583000D01*
X120821476Y-92353110D01*
X120776825Y-92205901D01*
X120651641Y-91943080D01*
X120477588Y-91709731D01*
X120261355Y-91514822D01*
X120135745Y-91440000D01*
X120261355Y-91365178D01*
X120477588Y-91170269D01*
X120651641Y-90936920D01*
X120776825Y-90674099D01*
X120821476Y-90526890D01*
X120700155Y-90297000D01*
X119507000Y-90297000D01*
X119253000Y-90297000D01*
X119233000Y-90297000D01*
X119233000Y-90043000D01*
X119253000Y-90043000D01*
X119253000Y-87757000D01*
X119507000Y-87757000D01*
X119507000Y-90043000D01*
X120700155Y-90043000D01*
X120821476Y-89813110D01*
X120776825Y-89665901D01*
X120651641Y-89403080D01*
X120477588Y-89169731D01*
X120261355Y-88974822D01*
X120135745Y-88900000D01*
X120261355Y-88825178D01*
X120477588Y-88630269D01*
X120651641Y-88396920D01*
X120776825Y-88134099D01*
X120821476Y-87986890D01*
X120700155Y-87757000D01*
X119507000Y-87757000D01*
X119253000Y-87757000D01*
X119233000Y-87757000D01*
X119233000Y-87503000D01*
X119253000Y-87503000D01*
X119253000Y-85217000D01*
X119507000Y-85217000D01*
X119507000Y-87503000D01*
X120700155Y-87503000D01*
X120821476Y-87273110D01*
X120776825Y-87125901D01*
X120651641Y-86863080D01*
X120477588Y-86629731D01*
X120261355Y-86434822D01*
X120135745Y-86360000D01*
X120261355Y-86285178D01*
X120477588Y-86090269D01*
X120651641Y-85856920D01*
X120776825Y-85594099D01*
X120821476Y-85446890D01*
X120700155Y-85217000D01*
X119507000Y-85217000D01*
X119253000Y-85217000D01*
X119233000Y-85217000D01*
X119233000Y-84963000D01*
X119253000Y-84963000D01*
X119253000Y-82677000D01*
X119507000Y-82677000D01*
X119507000Y-84963000D01*
X120700155Y-84963000D01*
X120821476Y-84733110D01*
X120776825Y-84585901D01*
X120651641Y-84323080D01*
X120477588Y-84089731D01*
X120261355Y-83894822D01*
X120135745Y-83820000D01*
X120261355Y-83745178D01*
X120477588Y-83550269D01*
X120651641Y-83316920D01*
X120776825Y-83054099D01*
X120821476Y-82906890D01*
X120700155Y-82677000D01*
X119507000Y-82677000D01*
X119253000Y-82677000D01*
X119233000Y-82677000D01*
X119233000Y-82423000D01*
X119253000Y-82423000D01*
X119253000Y-80137000D01*
X119507000Y-80137000D01*
X119507000Y-82423000D01*
X120700155Y-82423000D01*
X120821476Y-82193110D01*
X120776825Y-82045901D01*
X120651641Y-81783080D01*
X120477588Y-81549731D01*
X120261355Y-81354822D01*
X120135745Y-81280000D01*
X120261355Y-81205178D01*
X120477588Y-81010269D01*
X120651641Y-80776920D01*
X120776825Y-80514099D01*
X120821476Y-80366890D01*
X120700155Y-80137000D01*
X119507000Y-80137000D01*
X119253000Y-80137000D01*
X119233000Y-80137000D01*
X119233000Y-79883000D01*
X119253000Y-79883000D01*
X119253000Y-77597000D01*
X119507000Y-77597000D01*
X119507000Y-79883000D01*
X120700155Y-79883000D01*
X120821476Y-79653110D01*
X120776825Y-79505901D01*
X120651641Y-79243080D01*
X120477588Y-79009731D01*
X120261355Y-78814822D01*
X120135745Y-78740000D01*
X120261355Y-78665178D01*
X120477588Y-78470269D01*
X120651641Y-78236920D01*
X120776825Y-77974099D01*
X120821476Y-77826890D01*
X120700155Y-77597000D01*
X119507000Y-77597000D01*
X119253000Y-77597000D01*
X119233000Y-77597000D01*
X119233000Y-77343000D01*
X119253000Y-77343000D01*
X119253000Y-75057000D01*
X119507000Y-75057000D01*
X119507000Y-77343000D01*
X120700155Y-77343000D01*
X120821476Y-77113110D01*
X120776825Y-76965901D01*
X120651641Y-76703080D01*
X120477588Y-76469731D01*
X120261355Y-76274822D01*
X120135745Y-76200000D01*
X120261355Y-76125178D01*
X120477588Y-75930269D01*
X120651641Y-75696920D01*
X120776825Y-75434099D01*
X120821476Y-75286890D01*
X120700155Y-75057000D01*
X119507000Y-75057000D01*
X119253000Y-75057000D01*
X119233000Y-75057000D01*
X119233000Y-74803000D01*
X119253000Y-74803000D01*
X119253000Y-72517000D01*
X119507000Y-72517000D01*
X119507000Y-74803000D01*
X120700155Y-74803000D01*
X120821476Y-74573110D01*
X120776825Y-74425901D01*
X120651641Y-74163080D01*
X120477588Y-73929731D01*
X120261355Y-73734822D01*
X120135745Y-73660000D01*
X120261355Y-73585178D01*
X120477588Y-73390269D01*
X120651641Y-73156920D01*
X120776825Y-72894099D01*
X120821476Y-72746890D01*
X120700155Y-72517000D01*
X119507000Y-72517000D01*
X119253000Y-72517000D01*
X119233000Y-72517000D01*
X119233000Y-72263000D01*
X119253000Y-72263000D01*
X119253000Y-69977000D01*
X119507000Y-69977000D01*
X119507000Y-72263000D01*
X120700155Y-72263000D01*
X120821476Y-72033110D01*
X120776825Y-71885901D01*
X120651641Y-71623080D01*
X120477588Y-71389731D01*
X120261355Y-71194822D01*
X120135745Y-71120000D01*
X120261355Y-71045178D01*
X120477588Y-70850269D01*
X120651641Y-70616920D01*
X120776825Y-70354099D01*
X120821476Y-70206890D01*
X120700155Y-69977000D01*
X119507000Y-69977000D01*
X119253000Y-69977000D01*
X119233000Y-69977000D01*
X119233000Y-69723000D01*
X119253000Y-69723000D01*
X119253000Y-67437000D01*
X119507000Y-67437000D01*
X119507000Y-69723000D01*
X120700155Y-69723000D01*
X120821476Y-69493110D01*
X120776825Y-69345901D01*
X120651641Y-69083080D01*
X120477588Y-68849731D01*
X120261355Y-68654822D01*
X120135745Y-68580000D01*
X120261355Y-68505178D01*
X120477588Y-68310269D01*
X120651641Y-68076920D01*
X120776825Y-67814099D01*
X120821476Y-67666890D01*
X120700155Y-67437000D01*
X119507000Y-67437000D01*
X119253000Y-67437000D01*
X119233000Y-67437000D01*
X119233000Y-67183000D01*
X119253000Y-67183000D01*
X119253000Y-65989186D01*
X119507000Y-65989186D01*
X119507000Y-67183000D01*
X120700155Y-67183000D01*
X120821476Y-66953110D01*
X120776825Y-66805901D01*
X120651641Y-66543080D01*
X120477588Y-66309731D01*
X120261355Y-66114822D01*
X120011252Y-65965843D01*
X119736891Y-65868519D01*
X119507000Y-65989186D01*
X119253000Y-65989186D01*
X119023109Y-65868519D01*
X118748748Y-65965843D01*
X118498645Y-66114822D01*
X118282412Y-66309731D01*
X118169464Y-66461158D01*
X118064936Y-66304721D01*
X117845279Y-66085064D01*
X117586989Y-65912481D01*
X117299994Y-65793604D01*
X116995321Y-65733000D01*
X116684679Y-65733000D01*
X116380006Y-65793604D01*
X116093011Y-65912481D01*
X115834721Y-66085064D01*
X115615064Y-66304721D01*
X115442481Y-66563011D01*
X115323604Y-66850006D01*
X115263000Y-67154679D01*
X115263000Y-67381312D01*
X114383092Y-68261220D01*
X114345814Y-68291813D01*
X114315221Y-68329091D01*
X114315220Y-68329092D01*
X114223724Y-68440581D01*
X114133002Y-68610309D01*
X114077136Y-68794474D01*
X114058272Y-68985999D01*
X114062999Y-69033992D01*
X114062999Y-69282823D01*
X104312822Y-79033000D01*
X102782505Y-79033000D01*
X102573406Y-78823901D01*
X102447839Y-78740000D01*
X102573406Y-78656099D01*
X102682505Y-78547000D01*
X102817093Y-78547000D01*
X102870000Y-78552211D01*
X102922907Y-78547000D01*
X102922909Y-78547000D01*
X103081129Y-78531417D01*
X103284144Y-78469833D01*
X103471244Y-78369826D01*
X103635239Y-78235239D01*
X103668973Y-78194134D01*
X105406108Y-76457000D01*
X105560396Y-76457000D01*
X105855410Y-76398319D01*
X106133306Y-76283210D01*
X106383406Y-76116099D01*
X106596099Y-75903406D01*
X106763210Y-75653306D01*
X106878319Y-75375410D01*
X106937000Y-75080396D01*
X106937000Y-74779604D01*
X106878319Y-74484590D01*
X106763210Y-74206694D01*
X106596099Y-73956594D01*
X106383406Y-73743901D01*
X106133306Y-73576790D01*
X105855410Y-73461681D01*
X105560396Y-73403000D01*
X105259604Y-73403000D01*
X104964590Y-73461681D01*
X104686694Y-73576790D01*
X104436594Y-73743901D01*
X104223901Y-73956594D01*
X104056790Y-74206694D01*
X103941681Y-74484590D01*
X103883000Y-74779604D01*
X103883000Y-74933892D01*
X102549179Y-76267713D01*
X102447839Y-76200000D01*
X102573406Y-76116099D01*
X102786099Y-75903406D01*
X102953210Y-75653306D01*
X103068319Y-75375410D01*
X103127000Y-75080396D01*
X103127000Y-74779604D01*
X103068319Y-74484590D01*
X102953210Y-74206694D01*
X102786099Y-73956594D01*
X102573406Y-73743901D01*
X102358525Y-73600323D01*
X102455131Y-73542385D01*
X102663519Y-73353414D01*
X102831037Y-73127420D01*
X102951246Y-72873087D01*
X102991904Y-72739039D01*
X102869915Y-72517000D01*
X101727000Y-72517000D01*
X101727000Y-72537000D01*
X101473000Y-72537000D01*
X101473000Y-72517000D01*
X100330085Y-72517000D01*
X100208096Y-72739039D01*
X100248754Y-72873087D01*
X100368963Y-73127420D01*
X100536481Y-73353414D01*
X100744869Y-73542385D01*
X100841475Y-73600323D01*
X100626594Y-73743901D01*
X100413901Y-73956594D01*
X100246790Y-74206694D01*
X100131681Y-74484590D01*
X100073000Y-74779604D01*
X100073000Y-75080396D01*
X100131681Y-75375410D01*
X100246790Y-75653306D01*
X100413901Y-75903406D01*
X100626594Y-76116099D01*
X100752161Y-76200000D01*
X100626594Y-76283901D01*
X100413901Y-76496594D01*
X100246790Y-76746694D01*
X100131681Y-77024590D01*
X100073000Y-77319604D01*
X100073000Y-77620396D01*
X100131681Y-77915410D01*
X100246790Y-78193306D01*
X100413901Y-78443406D01*
X100626594Y-78656099D01*
X100752161Y-78740000D01*
X100626594Y-78823901D01*
X100413901Y-79036594D01*
X100246790Y-79286694D01*
X100131681Y-79564590D01*
X100073000Y-79859604D01*
X100073000Y-80160396D01*
X100131681Y-80455410D01*
X100246790Y-80733306D01*
X100413901Y-80983406D01*
X100626594Y-81196099D01*
X100752161Y-81280000D01*
X100626594Y-81363901D01*
X100413901Y-81576594D01*
X100246790Y-81826694D01*
X100131681Y-82104590D01*
X100073000Y-82399604D01*
X100073000Y-82700396D01*
X100131681Y-82995410D01*
X100246790Y-83273306D01*
X100413901Y-83523406D01*
X100626594Y-83736099D01*
X100752161Y-83820000D01*
X100626594Y-83903901D01*
X100413901Y-84116594D01*
X100246790Y-84366694D01*
X100131681Y-84644590D01*
X100073000Y-84939604D01*
X100073000Y-85240396D01*
X100131681Y-85535410D01*
X100246790Y-85813306D01*
X100413901Y-86063406D01*
X100626594Y-86276099D01*
X100752161Y-86360000D01*
X100626594Y-86443901D01*
X100413901Y-86656594D01*
X100246790Y-86906694D01*
X100131681Y-87184590D01*
X100073000Y-87479604D01*
X100073000Y-87780396D01*
X100131681Y-88075410D01*
X100246790Y-88353306D01*
X100413901Y-88603406D01*
X100626594Y-88816099D01*
X100752161Y-88900000D01*
X100626594Y-88983901D01*
X100413901Y-89196594D01*
X100246790Y-89446694D01*
X100131681Y-89724590D01*
X100073000Y-90019604D01*
X100073000Y-90320396D01*
X100131681Y-90615410D01*
X100246790Y-90893306D01*
X100413901Y-91143406D01*
X100626594Y-91356099D01*
X100752161Y-91440000D01*
X100626594Y-91523901D01*
X100413901Y-91736594D01*
X100246790Y-91986694D01*
X100131681Y-92264590D01*
X100073000Y-92559604D01*
X100073000Y-92860396D01*
X100131681Y-93155410D01*
X100246790Y-93433306D01*
X100413901Y-93683406D01*
X100626594Y-93896099D01*
X100752161Y-93980000D01*
X100626594Y-94063901D01*
X100413901Y-94276594D01*
X100246790Y-94526694D01*
X100131681Y-94804590D01*
X100073000Y-95099604D01*
X100073000Y-95400396D01*
X100131681Y-95695410D01*
X100246790Y-95973306D01*
X100413901Y-96223406D01*
X100626594Y-96436099D01*
X100752161Y-96520000D01*
X100626594Y-96603901D01*
X100417495Y-96813000D01*
X99607505Y-96813000D01*
X99398406Y-96603901D01*
X99148306Y-96436790D01*
X98870410Y-96321681D01*
X98575396Y-96263000D01*
X98274604Y-96263000D01*
X97979590Y-96321681D01*
X97701694Y-96436790D01*
X97577026Y-96520090D01*
X97577026Y-86222672D01*
X97976910Y-85822789D01*
X98014189Y-85792195D01*
X98136279Y-85643427D01*
X98227000Y-85473700D01*
X98282866Y-85289534D01*
X98297003Y-85146002D01*
X98297003Y-85146000D01*
X98301730Y-85098010D01*
X98297003Y-85050019D01*
X98297003Y-83397993D01*
X98301730Y-83350002D01*
X98294176Y-83273306D01*
X98282866Y-83158478D01*
X98227000Y-82974312D01*
X98136279Y-82804585D01*
X98014189Y-82655817D01*
X97976910Y-82625223D01*
X97244784Y-81893098D01*
X97214186Y-81855814D01*
X97065418Y-81733724D01*
X96895691Y-81643003D01*
X96711525Y-81587137D01*
X96567993Y-81573000D01*
X96520000Y-81568273D01*
X96472007Y-81573000D01*
X96432511Y-81573000D01*
X96223412Y-81363901D01*
X95973312Y-81196790D01*
X95695416Y-81081681D01*
X95400402Y-81023000D01*
X95099610Y-81023000D01*
X94804596Y-81081681D01*
X94526700Y-81196790D01*
X94276600Y-81363901D01*
X94067501Y-81573000D01*
X87542505Y-81573000D01*
X87333406Y-81363901D01*
X87207839Y-81280000D01*
X87333406Y-81196099D01*
X87546099Y-80983406D01*
X87713210Y-80733306D01*
X87828319Y-80455410D01*
X87887000Y-80160396D01*
X87887000Y-79859604D01*
X87828319Y-79564590D01*
X87713210Y-79286694D01*
X87546099Y-79036594D01*
X87333406Y-78823901D01*
X87207839Y-78740000D01*
X87333406Y-78656099D01*
X87546099Y-78443406D01*
X87713210Y-78193306D01*
X87828319Y-77915410D01*
X87887000Y-77620396D01*
X87887000Y-77319604D01*
X87828319Y-77024590D01*
X87713210Y-76746694D01*
X87546099Y-76496594D01*
X87333406Y-76283901D01*
X87207839Y-76200000D01*
X87333406Y-76116099D01*
X87546099Y-75903406D01*
X87713210Y-75653306D01*
X87828319Y-75375410D01*
X87887000Y-75080396D01*
X87887000Y-74779604D01*
X87828319Y-74484590D01*
X87713210Y-74206694D01*
X87546099Y-73956594D01*
X87333406Y-73743901D01*
X87207839Y-73660000D01*
X87333406Y-73576099D01*
X87542505Y-73367000D01*
X87717495Y-73367000D01*
X87926594Y-73576099D01*
X88176694Y-73743210D01*
X88454590Y-73858319D01*
X88749604Y-73917000D01*
X89050396Y-73917000D01*
X89345410Y-73858319D01*
X89623306Y-73743210D01*
X89873406Y-73576099D01*
X90086099Y-73363406D01*
X90253210Y-73113306D01*
X90368319Y-72835410D01*
X90427000Y-72540396D01*
X90427000Y-72239604D01*
X90368319Y-71944590D01*
X90253210Y-71666694D01*
X90086099Y-71416594D01*
X89873406Y-71203901D01*
X89747839Y-71120000D01*
X89873406Y-71036099D01*
X90086099Y-70823406D01*
X90253210Y-70573306D01*
X90368319Y-70295410D01*
X90427000Y-70000396D01*
X90427000Y-69699604D01*
X100073000Y-69699604D01*
X100073000Y-70000396D01*
X100131681Y-70295410D01*
X100246790Y-70573306D01*
X100413901Y-70823406D01*
X100626594Y-71036099D01*
X100841475Y-71179677D01*
X100744869Y-71237615D01*
X100536481Y-71426586D01*
X100368963Y-71652580D01*
X100248754Y-71906913D01*
X100208096Y-72040961D01*
X100330085Y-72263000D01*
X101473000Y-72263000D01*
X101473000Y-72243000D01*
X101727000Y-72243000D01*
X101727000Y-72263000D01*
X102869915Y-72263000D01*
X102991904Y-72040961D01*
X102951246Y-71906913D01*
X102831037Y-71652580D01*
X102663519Y-71426586D01*
X102455131Y-71237615D01*
X102358525Y-71179677D01*
X102573406Y-71036099D01*
X102786099Y-70823406D01*
X102953210Y-70573306D01*
X103068319Y-70295410D01*
X103127000Y-70000396D01*
X103127000Y-69699604D01*
X103068319Y-69404590D01*
X102953210Y-69126694D01*
X102786099Y-68876594D01*
X102573406Y-68663901D01*
X102323306Y-68496790D01*
X102045410Y-68381681D01*
X101750396Y-68323000D01*
X101449604Y-68323000D01*
X101154590Y-68381681D01*
X100876694Y-68496790D01*
X100626594Y-68663901D01*
X100413901Y-68876594D01*
X100246790Y-69126694D01*
X100131681Y-69404590D01*
X100073000Y-69699604D01*
X90427000Y-69699604D01*
X90368319Y-69404590D01*
X90253210Y-69126694D01*
X90086099Y-68876594D01*
X89873406Y-68663901D01*
X89623306Y-68496790D01*
X89345410Y-68381681D01*
X89050396Y-68323000D01*
X88749604Y-68323000D01*
X88454590Y-68381681D01*
X88176694Y-68496790D01*
X87926594Y-68663901D01*
X87829735Y-68760760D01*
X87767403Y-68644147D01*
X87676554Y-68533446D01*
X87565853Y-68442597D01*
X87439557Y-68375090D01*
X87302517Y-68333520D01*
X87160000Y-68319483D01*
X85560000Y-68319483D01*
X85417483Y-68333520D01*
X85280443Y-68375090D01*
X85154147Y-68442597D01*
X85043446Y-68533446D01*
X84952597Y-68644147D01*
X84885090Y-68770443D01*
X84843520Y-68907483D01*
X84829483Y-69050000D01*
X84829483Y-70650000D01*
X84843520Y-70792517D01*
X84885090Y-70929557D01*
X84952597Y-71055853D01*
X85043446Y-71166554D01*
X85154147Y-71257403D01*
X85270760Y-71319735D01*
X85173901Y-71416594D01*
X85006790Y-71666694D01*
X84891681Y-71944590D01*
X84833000Y-72239604D01*
X84833000Y-72540396D01*
X84891681Y-72835410D01*
X85006790Y-73113306D01*
X85173901Y-73363406D01*
X85386594Y-73576099D01*
X85512161Y-73660000D01*
X85386594Y-73743901D01*
X85173901Y-73956594D01*
X85006790Y-74206694D01*
X84891681Y-74484590D01*
X84833000Y-74779604D01*
X84833000Y-75080396D01*
X84891681Y-75375410D01*
X85006790Y-75653306D01*
X85173901Y-75903406D01*
X85386594Y-76116099D01*
X85512161Y-76200000D01*
X85386594Y-76283901D01*
X85173901Y-76496594D01*
X85006790Y-76746694D01*
X84891681Y-77024590D01*
X84833000Y-77319604D01*
X84833000Y-77620396D01*
X84891681Y-77915410D01*
X85006790Y-78193306D01*
X85173901Y-78443406D01*
X85386594Y-78656099D01*
X85512161Y-78740000D01*
X85386594Y-78823901D01*
X85173901Y-79036594D01*
X85006790Y-79286694D01*
X84891681Y-79564590D01*
X84833000Y-79859604D01*
X84833000Y-80155313D01*
X83953092Y-81035222D01*
X83915814Y-81065815D01*
X83885221Y-81103093D01*
X83885220Y-81103094D01*
X83793724Y-81214583D01*
X83703002Y-81384311D01*
X83647136Y-81568476D01*
X83628272Y-81760001D01*
X83633000Y-81808004D01*
X83632999Y-88273807D01*
X82528093Y-89378714D01*
X82490815Y-89409307D01*
X82460222Y-89446585D01*
X82460221Y-89446586D01*
X82368725Y-89558075D01*
X82278003Y-89727803D01*
X82222137Y-89911968D01*
X82203273Y-90103493D01*
X82208001Y-90151496D01*
X82208000Y-99147501D01*
X82002501Y-99353000D01*
X79144687Y-99353000D01*
X78997000Y-99205313D01*
X78997000Y-98909604D01*
X78938319Y-98614590D01*
X78823210Y-98336694D01*
X78656099Y-98086594D01*
X78443406Y-97873901D01*
X78317839Y-97790000D01*
X78443406Y-97706099D01*
X78652505Y-97497000D01*
X78827495Y-97497000D01*
X79036594Y-97706099D01*
X79286694Y-97873210D01*
X79564590Y-97988319D01*
X79859604Y-98047000D01*
X80160396Y-98047000D01*
X80455410Y-97988319D01*
X80733306Y-97873210D01*
X80983406Y-97706099D01*
X81196099Y-97493406D01*
X81363210Y-97243306D01*
X81478319Y-96965410D01*
X81537000Y-96670396D01*
X81537000Y-96369604D01*
X81478319Y-96074590D01*
X81363210Y-95796694D01*
X81196099Y-95546594D01*
X80983406Y-95333901D01*
X80733306Y-95166790D01*
X80455410Y-95051681D01*
X80160396Y-94993000D01*
X79859604Y-94993000D01*
X79564590Y-95051681D01*
X79286694Y-95166790D01*
X79036594Y-95333901D01*
X78827495Y-95543000D01*
X78652505Y-95543000D01*
X78443406Y-95333901D01*
X78228525Y-95190323D01*
X78325131Y-95132385D01*
X78533519Y-94943414D01*
X78701037Y-94717420D01*
X78821246Y-94463087D01*
X78861904Y-94329039D01*
X78739915Y-94107000D01*
X77597000Y-94107000D01*
X77597000Y-94127000D01*
X77343000Y-94127000D01*
X77343000Y-94107000D01*
X77323000Y-94107000D01*
X77323000Y-93853000D01*
X77343000Y-93853000D01*
X77343000Y-93833000D01*
X77597000Y-93833000D01*
X77597000Y-93853000D01*
X78739915Y-93853000D01*
X78861904Y-93630961D01*
X78821246Y-93496913D01*
X78701037Y-93242580D01*
X78533519Y-93016586D01*
X78325131Y-92827615D01*
X78228525Y-92769677D01*
X78443406Y-92626099D01*
X78656099Y-92413406D01*
X78823210Y-92163306D01*
X78938319Y-91885410D01*
X78997000Y-91590396D01*
X78997000Y-91436107D01*
X82734117Y-87698991D01*
X82775216Y-87665262D01*
X82909803Y-87501267D01*
X83009810Y-87314167D01*
X83071394Y-87111152D01*
X83086977Y-86952932D01*
X83086977Y-86952931D01*
X83092188Y-86900024D01*
X83086977Y-86847117D01*
X83086977Y-82062884D01*
X83092188Y-82009977D01*
X83086977Y-81957068D01*
X83086977Y-81872930D01*
X83092188Y-81820023D01*
X83086977Y-81767114D01*
X83086977Y-81079142D01*
X83274134Y-80891985D01*
X83315239Y-80858251D01*
X83449826Y-80694256D01*
X83549833Y-80507156D01*
X83611417Y-80304141D01*
X83627000Y-80145921D01*
X83627000Y-80145919D01*
X83632211Y-80093012D01*
X83627000Y-80040105D01*
X83627000Y-70537919D01*
X83632212Y-70485000D01*
X83627000Y-70432081D01*
X83627000Y-69026106D01*
X84901108Y-67752000D01*
X101798902Y-67752000D01*
X103883000Y-69836099D01*
X103883000Y-69990387D01*
X103941681Y-70285401D01*
X104056790Y-70563297D01*
X104223901Y-70813397D01*
X104436594Y-71026090D01*
X104686694Y-71193201D01*
X104964590Y-71308310D01*
X105259604Y-71366991D01*
X105560396Y-71366991D01*
X105855410Y-71308310D01*
X106133306Y-71193201D01*
X106383406Y-71026090D01*
X106596099Y-70813397D01*
X106763210Y-70563297D01*
X106878319Y-70285401D01*
X106937000Y-69990387D01*
X106937000Y-69897774D01*
X107244176Y-70204950D01*
X107854604Y-70612824D01*
X108532874Y-70893773D01*
X109252923Y-71037000D01*
X109987077Y-71037000D01*
X110707126Y-70893773D01*
X111385396Y-70612824D01*
X111995824Y-70204950D01*
X112514950Y-69685824D01*
X112922824Y-69075396D01*
X113203773Y-68397126D01*
X113347000Y-67677077D01*
X113347000Y-66942923D01*
X113203773Y-66222874D01*
X112922824Y-65544604D01*
X112514950Y-64934176D01*
X111995824Y-64415050D01*
X111385396Y-64007176D01*
X110707126Y-63726227D01*
X109987077Y-63583000D01*
X109252923Y-63583000D01*
X108532874Y-63726227D01*
X107854604Y-64007176D01*
X107244176Y-64415050D01*
X106725050Y-64934176D01*
X106317176Y-65544604D01*
X106036227Y-66222874D01*
X105893000Y-66942923D01*
X105893000Y-67677077D01*
X106036227Y-68397126D01*
X106060949Y-68456809D01*
X105855410Y-68371672D01*
X105560396Y-68312991D01*
X105406108Y-68312991D01*
X103797071Y-66703955D01*
X116804136Y-53696890D01*
X117938524Y-53696890D01*
X117983175Y-53844099D01*
X118108359Y-54106920D01*
X118282412Y-54340269D01*
X118498645Y-54535178D01*
X118748748Y-54684157D01*
X119023109Y-54781481D01*
X119253000Y-54660814D01*
X119253000Y-53467000D01*
X119507000Y-53467000D01*
X119507000Y-54660814D01*
X119736891Y-54781481D01*
X120011252Y-54684157D01*
X120261355Y-54535178D01*
X120477588Y-54340269D01*
X120651641Y-54106920D01*
X120776825Y-53844099D01*
X120821476Y-53696890D01*
X120700155Y-53467000D01*
X119507000Y-53467000D01*
X119253000Y-53467000D01*
X118059845Y-53467000D01*
X117938524Y-53696890D01*
X116804136Y-53696890D01*
X118435488Y-52065539D01*
X118527986Y-52127344D01*
X118498645Y-52144822D01*
X118282412Y-52339731D01*
X118108359Y-52573080D01*
X117983175Y-52835901D01*
X117938524Y-52983110D01*
X118059845Y-53213000D01*
X119253000Y-53213000D01*
X119253000Y-53193000D01*
X119507000Y-53193000D01*
X119507000Y-53213000D01*
X120700155Y-53213000D01*
X120821476Y-52983110D01*
X120776825Y-52835901D01*
X120651641Y-52573080D01*
X120477588Y-52339731D01*
X120261355Y-52144822D01*
X120232014Y-52127344D01*
X120385279Y-52024936D01*
X120604936Y-51805279D01*
X120777519Y-51546989D01*
X120896396Y-51259994D01*
X120957000Y-50955321D01*
X120957000Y-50644679D01*
X120896396Y-50340006D01*
X120777519Y-50053011D01*
X120604936Y-49794721D01*
X120385279Y-49575064D01*
X120317836Y-49530000D01*
X120385279Y-49484936D01*
X120604936Y-49265279D01*
X120777519Y-49006989D01*
X120896396Y-48719994D01*
X120957000Y-48415321D01*
X120957000Y-48104679D01*
X120896396Y-47800006D01*
X120777519Y-47513011D01*
X120604936Y-47254721D01*
X120565319Y-47215104D01*
X120635853Y-47177403D01*
X120746554Y-47086554D01*
X120837403Y-46975853D01*
X120904910Y-46849557D01*
X120946480Y-46712517D01*
X120960517Y-46570000D01*
X120960517Y-44870000D01*
X120946480Y-44727483D01*
X120904910Y-44590443D01*
X120837403Y-44464147D01*
X120746554Y-44353446D01*
X120635853Y-44262597D01*
X120509557Y-44195090D01*
X120372517Y-44153520D01*
X120230000Y-44139483D01*
X118530000Y-44139483D01*
X118387483Y-44153520D01*
X118250443Y-44195090D01*
X118124147Y-44262597D01*
X118013446Y-44353446D01*
X117922597Y-44464147D01*
X117855090Y-44590443D01*
X117813520Y-44727483D01*
X117811992Y-44743000D01*
X116752505Y-44743000D01*
X116543406Y-44533901D01*
X116293306Y-44366790D01*
X116015410Y-44251681D01*
X115720396Y-44193000D01*
X115419604Y-44193000D01*
X115124590Y-44251681D01*
X114846694Y-44366790D01*
X114596594Y-44533901D01*
X114383901Y-44746594D01*
X114216790Y-44996694D01*
X114101681Y-45274590D01*
X114043000Y-45569604D01*
X114043000Y-45870396D01*
X114101681Y-46165410D01*
X114216790Y-46443306D01*
X114383901Y-46693406D01*
X114596594Y-46906099D01*
X114722161Y-46990000D01*
X114596594Y-47073901D01*
X114383901Y-47286594D01*
X114216790Y-47536694D01*
X114101681Y-47814590D01*
X114043000Y-48109604D01*
X114043000Y-48410396D01*
X114101681Y-48705410D01*
X114216790Y-48983306D01*
X114383901Y-49233406D01*
X114596594Y-49446099D01*
X114846694Y-49613210D01*
X115124590Y-49728319D01*
X115419604Y-49787000D01*
X115720396Y-49787000D01*
X116015410Y-49728319D01*
X116293306Y-49613210D01*
X116543406Y-49446099D01*
X116752505Y-49237000D01*
X118136169Y-49237000D01*
X118155064Y-49265279D01*
X118374721Y-49484936D01*
X118442164Y-49530000D01*
X118374721Y-49575064D01*
X118227147Y-49722638D01*
X118177918Y-49717789D01*
X118125011Y-49723000D01*
X118125010Y-49723000D01*
X117966790Y-49738583D01*
X117763775Y-49800167D01*
X117576675Y-49900174D01*
X117412680Y-50034761D01*
X117378951Y-50075860D01*
X101856812Y-65598000D01*
X84507907Y-65598000D01*
X84455000Y-65592789D01*
X84402093Y-65598000D01*
X84402091Y-65598000D01*
X84243871Y-65613583D01*
X84040856Y-65675167D01*
X83853756Y-65775174D01*
X83689761Y-65909761D01*
X83656033Y-65950859D01*
X81825861Y-67781031D01*
X81784762Y-67814760D01*
X81751034Y-67855858D01*
X81650175Y-67978755D01*
X81550168Y-68165855D01*
X81488584Y-68368870D01*
X81467789Y-68579999D01*
X81473001Y-68632915D01*
X81473001Y-69408000D01*
X74107505Y-69408000D01*
X73998406Y-69298901D01*
X73748306Y-69131790D01*
X73470410Y-69016681D01*
X73175396Y-68958000D01*
X72874604Y-68958000D01*
X72579590Y-69016681D01*
X72301694Y-69131790D01*
X72051594Y-69298901D01*
X71838901Y-69511594D01*
X71671790Y-69761694D01*
X71556681Y-70039590D01*
X71498000Y-70334604D01*
X71498000Y-70363347D01*
X71495044Y-70355186D01*
X71205429Y-70214296D01*
X70893892Y-70132616D01*
X70572405Y-70113282D01*
X70253325Y-70157039D01*
X69948912Y-70262205D01*
X69774956Y-70355186D01*
X69679192Y-70619587D01*
X70635000Y-71575395D01*
X70649143Y-71561253D01*
X70828748Y-71740858D01*
X70814605Y-71755000D01*
X71770413Y-72710808D01*
X72034814Y-72615044D01*
X72175704Y-72325429D01*
X72257384Y-72013892D01*
X72269253Y-71816534D01*
X72301694Y-71838210D01*
X72579590Y-71953319D01*
X72874604Y-72012000D01*
X73175396Y-72012000D01*
X73470410Y-71953319D01*
X73748306Y-71838210D01*
X73998406Y-71671099D01*
X74107505Y-71562000D01*
X81473001Y-71562000D01*
X81473000Y-79646905D01*
X81285838Y-79834067D01*
X81244739Y-79867796D01*
X81110152Y-80031791D01*
X81010145Y-80218891D01*
X80948560Y-80421906D01*
X80934535Y-80564308D01*
X80927766Y-80633035D01*
X80932977Y-80685942D01*
X80932977Y-80838000D01*
X79076020Y-80838000D01*
X79044910Y-80735443D01*
X78977403Y-80609147D01*
X78886554Y-80498446D01*
X78775853Y-80407597D01*
X78649557Y-80340090D01*
X78512517Y-80298520D01*
X78370000Y-80284483D01*
X76570000Y-80284483D01*
X76427483Y-80298520D01*
X76290443Y-80340090D01*
X76164147Y-80407597D01*
X76053446Y-80498446D01*
X75962597Y-80609147D01*
X75895090Y-80735443D01*
X75853520Y-80872483D01*
X75839483Y-81015000D01*
X75839483Y-82815000D01*
X75853520Y-82957517D01*
X75895090Y-83094557D01*
X75962597Y-83220853D01*
X76053446Y-83331554D01*
X76164147Y-83422403D01*
X76290443Y-83489910D01*
X76427483Y-83531480D01*
X76570000Y-83545517D01*
X78370000Y-83545517D01*
X78512517Y-83531480D01*
X78649557Y-83489910D01*
X78775853Y-83422403D01*
X78886554Y-83331554D01*
X78977403Y-83220853D01*
X79044910Y-83094557D01*
X79076020Y-82992000D01*
X80932978Y-82992000D01*
X80932977Y-86453915D01*
X78936557Y-88450336D01*
X78823210Y-88176694D01*
X78656099Y-87926594D01*
X78443406Y-87713901D01*
X78317839Y-87630000D01*
X78443406Y-87546099D01*
X78656099Y-87333406D01*
X78823210Y-87083306D01*
X78938319Y-86805410D01*
X78997000Y-86510396D01*
X78997000Y-86209604D01*
X78938319Y-85914590D01*
X78823210Y-85636694D01*
X78656099Y-85386594D01*
X78443406Y-85173901D01*
X78193306Y-85006790D01*
X77915410Y-84891681D01*
X77620396Y-84833000D01*
X77319604Y-84833000D01*
X77024590Y-84891681D01*
X76746694Y-85006790D01*
X76496594Y-85173901D01*
X76283901Y-85386594D01*
X76116790Y-85636694D01*
X76001681Y-85914590D01*
X75943000Y-86209604D01*
X75943000Y-86510396D01*
X76001681Y-86805410D01*
X76116790Y-87083306D01*
X76283901Y-87333406D01*
X76496594Y-87546099D01*
X76622161Y-87630000D01*
X76496594Y-87713901D01*
X76283901Y-87926594D01*
X76116790Y-88176694D01*
X76001681Y-88454590D01*
X75943000Y-88749604D01*
X75943000Y-88847311D01*
X74963097Y-89827215D01*
X74925813Y-89857813D01*
X74803723Y-90006581D01*
X74760851Y-90086790D01*
X74713002Y-90176309D01*
X74657136Y-90360474D01*
X74638272Y-90551999D01*
X74642999Y-90599992D01*
X74643000Y-99899998D01*
X74638272Y-99948001D01*
X74657136Y-100139526D01*
X74713002Y-100323691D01*
X74803724Y-100493419D01*
X74832366Y-100528319D01*
X74925814Y-100642187D01*
X74963092Y-100672780D01*
X80357219Y-106066907D01*
X80387812Y-106104186D01*
X80536580Y-106226276D01*
X80586585Y-106253004D01*
X80706307Y-106316997D01*
X80890472Y-106372863D01*
X81081997Y-106391727D01*
X81129990Y-106387000D01*
X85177495Y-106387000D01*
X85386594Y-106596099D01*
X85636694Y-106763210D01*
X85914590Y-106878319D01*
X86209604Y-106937000D01*
X86510396Y-106937000D01*
X86805410Y-106878319D01*
X87083306Y-106763210D01*
X87333406Y-106596099D01*
X87546099Y-106383406D01*
X87713210Y-106133306D01*
X87742939Y-106061533D01*
X87742939Y-108991946D01*
X87738212Y-109039939D01*
X87757076Y-109231464D01*
X87798127Y-109366792D01*
X87812942Y-109415629D01*
X87903663Y-109585357D01*
X88025753Y-109734125D01*
X88063037Y-109764723D01*
X93208313Y-114910000D01*
X51460000Y-114910000D01*
X51460000Y-110757923D01*
X80728000Y-110757923D01*
X80728000Y-111492077D01*
X80871227Y-112212126D01*
X81152176Y-112890396D01*
X81560050Y-113500824D01*
X82079176Y-114019950D01*
X82689604Y-114427824D01*
X83367874Y-114708773D01*
X84087923Y-114852000D01*
X84822077Y-114852000D01*
X85542126Y-114708773D01*
X86220396Y-114427824D01*
X86830824Y-114019950D01*
X87349950Y-113500824D01*
X87757824Y-112890396D01*
X88038773Y-112212126D01*
X88182000Y-111492077D01*
X88182000Y-110757923D01*
X88038773Y-110037874D01*
X87757824Y-109359604D01*
X87349950Y-108749176D01*
X86830824Y-108230050D01*
X86220396Y-107822176D01*
X85542126Y-107541227D01*
X84822077Y-107398000D01*
X84087923Y-107398000D01*
X83367874Y-107541227D01*
X82689604Y-107822176D01*
X82079176Y-108230050D01*
X81560050Y-108749176D01*
X81152176Y-109359604D01*
X80871227Y-110037874D01*
X80728000Y-110757923D01*
X51460000Y-110757923D01*
X51460000Y-80939999D01*
X52336272Y-80939999D01*
X52340999Y-80987992D01*
X52341000Y-89337996D01*
X52336272Y-89385999D01*
X52355136Y-89577524D01*
X52411002Y-89761689D01*
X52465081Y-89862863D01*
X52501724Y-89931417D01*
X52623814Y-90080185D01*
X52661092Y-90110778D01*
X53377220Y-90826907D01*
X53407814Y-90864186D01*
X53556582Y-90986276D01*
X53726309Y-91076997D01*
X53753417Y-91085220D01*
X53853092Y-91115456D01*
X53893064Y-91175279D01*
X54112721Y-91394936D01*
X54265986Y-91497344D01*
X54236645Y-91514822D01*
X54020412Y-91709731D01*
X53846359Y-91943080D01*
X53721175Y-92205901D01*
X53676524Y-92353110D01*
X53797845Y-92583000D01*
X54991000Y-92583000D01*
X54991000Y-92563000D01*
X55245000Y-92563000D01*
X55245000Y-92583000D01*
X56438155Y-92583000D01*
X56559476Y-92353110D01*
X56514825Y-92205901D01*
X56389641Y-91943080D01*
X56215588Y-91709731D01*
X55999355Y-91514822D01*
X55970014Y-91497344D01*
X56123279Y-91394936D01*
X56342936Y-91175279D01*
X56361831Y-91147000D01*
X58446169Y-91147000D01*
X58465064Y-91175279D01*
X58684721Y-91394936D01*
X58837986Y-91497344D01*
X58808645Y-91514822D01*
X58592412Y-91709731D01*
X58418359Y-91943080D01*
X58293175Y-92205901D01*
X58248524Y-92353110D01*
X58369845Y-92583000D01*
X59563000Y-92583000D01*
X59563000Y-92563000D01*
X59817000Y-92563000D01*
X59817000Y-92583000D01*
X61010155Y-92583000D01*
X61131476Y-92353110D01*
X61086825Y-92205901D01*
X60961641Y-91943080D01*
X60787588Y-91709731D01*
X60571355Y-91514822D01*
X60542014Y-91497344D01*
X60695279Y-91394936D01*
X60914936Y-91175279D01*
X61087519Y-90916989D01*
X61206396Y-90629994D01*
X61267000Y-90325321D01*
X61267000Y-90014679D01*
X61206396Y-89710006D01*
X61087519Y-89423011D01*
X60914936Y-89164721D01*
X60695279Y-88945064D01*
X60542014Y-88842656D01*
X60571355Y-88825178D01*
X60787588Y-88630269D01*
X60961641Y-88396920D01*
X61086825Y-88134099D01*
X61131476Y-87986890D01*
X61049088Y-87830775D01*
X61973000Y-88754687D01*
X61973000Y-89050396D01*
X62031681Y-89345410D01*
X62146790Y-89623306D01*
X62313901Y-89873406D01*
X62526594Y-90086099D01*
X62776694Y-90253210D01*
X63054590Y-90368319D01*
X63349604Y-90427000D01*
X63650396Y-90427000D01*
X63945410Y-90368319D01*
X64223306Y-90253210D01*
X64473406Y-90086099D01*
X64686099Y-89873406D01*
X64853210Y-89623306D01*
X64968319Y-89345410D01*
X65011357Y-89129042D01*
X65439223Y-89556908D01*
X65469816Y-89594186D01*
X65618584Y-89716276D01*
X65788311Y-89806997D01*
X65972477Y-89862863D01*
X66116009Y-89877000D01*
X66116011Y-89877000D01*
X66128750Y-89878255D01*
X66336594Y-90086099D01*
X66462161Y-90170000D01*
X66336594Y-90253901D01*
X66127495Y-90463000D01*
X63547993Y-90463000D01*
X63500000Y-90458273D01*
X63452007Y-90463000D01*
X63308475Y-90477137D01*
X63124309Y-90533003D01*
X62954582Y-90623724D01*
X62805814Y-90745814D01*
X62683724Y-90894582D01*
X62593003Y-91064309D01*
X62537137Y-91248475D01*
X62518273Y-91440000D01*
X62523000Y-91487993D01*
X62523001Y-96115312D01*
X61825314Y-96813000D01*
X60933831Y-96813000D01*
X60914936Y-96784721D01*
X60695279Y-96565064D01*
X60627836Y-96520000D01*
X60695279Y-96474936D01*
X60914936Y-96255279D01*
X61087519Y-95996989D01*
X61206396Y-95709994D01*
X61267000Y-95405321D01*
X61267000Y-95094679D01*
X61206396Y-94790006D01*
X61087519Y-94503011D01*
X60914936Y-94244721D01*
X60695279Y-94025064D01*
X60542014Y-93922656D01*
X60571355Y-93905178D01*
X60787588Y-93710269D01*
X60961641Y-93476920D01*
X61086825Y-93214099D01*
X61131476Y-93066890D01*
X61010155Y-92837000D01*
X59817000Y-92837000D01*
X59817000Y-92857000D01*
X59563000Y-92857000D01*
X59563000Y-92837000D01*
X58369845Y-92837000D01*
X58248524Y-93066890D01*
X58293175Y-93214099D01*
X58418359Y-93476920D01*
X58592412Y-93710269D01*
X58808645Y-93905178D01*
X58837986Y-93922656D01*
X58684721Y-94025064D01*
X58465064Y-94244721D01*
X58446169Y-94273000D01*
X56361831Y-94273000D01*
X56342936Y-94244721D01*
X56123279Y-94025064D01*
X55970014Y-93922656D01*
X55999355Y-93905178D01*
X56215588Y-93710269D01*
X56389641Y-93476920D01*
X56514825Y-93214099D01*
X56559476Y-93066890D01*
X56438155Y-92837000D01*
X55245000Y-92837000D01*
X55245000Y-92857000D01*
X54991000Y-92857000D01*
X54991000Y-92837000D01*
X53797845Y-92837000D01*
X53676524Y-93066890D01*
X53721175Y-93214099D01*
X53846359Y-93476920D01*
X54020412Y-93710269D01*
X54236645Y-93905178D01*
X54265986Y-93922656D01*
X54112721Y-94025064D01*
X53893064Y-94244721D01*
X53874608Y-94272342D01*
X53724393Y-94287137D01*
X53632311Y-94315070D01*
X53540228Y-94343003D01*
X53370501Y-94433724D01*
X53221733Y-94555814D01*
X53191131Y-94593103D01*
X52661093Y-95123140D01*
X52623814Y-95153734D01*
X52593221Y-95191012D01*
X52593220Y-95191013D01*
X52501724Y-95302502D01*
X52411002Y-95472230D01*
X52355136Y-95656395D01*
X52336272Y-95847920D01*
X52341000Y-95895923D01*
X52340999Y-101146008D01*
X52336272Y-101194001D01*
X52355136Y-101385526D01*
X52368178Y-101428519D01*
X52411002Y-101569691D01*
X52501723Y-101739419D01*
X52623813Y-101888187D01*
X52661097Y-101918785D01*
X53529219Y-102786908D01*
X53559813Y-102824187D01*
X53708581Y-102946277D01*
X53803477Y-102997000D01*
X53878308Y-103036998D01*
X54062473Y-103092864D01*
X54253999Y-103111728D01*
X54301992Y-103107001D01*
X66782008Y-103107001D01*
X66830001Y-103111728D01*
X67021526Y-103092864D01*
X67024107Y-103092081D01*
X67205692Y-103036998D01*
X67375419Y-102946277D01*
X67524187Y-102824187D01*
X67554785Y-102786903D01*
X69716908Y-100624781D01*
X69754187Y-100594187D01*
X69876277Y-100445419D01*
X69966998Y-100275692D01*
X70022864Y-100091526D01*
X70037001Y-99947994D01*
X70037001Y-99947992D01*
X70041728Y-99900002D01*
X70037001Y-99852011D01*
X70037001Y-86657994D01*
X70041728Y-86610001D01*
X70022864Y-86418475D01*
X69991684Y-86315689D01*
X69966998Y-86234310D01*
X69876277Y-86064583D01*
X69754187Y-85915815D01*
X69716903Y-85885217D01*
X69534784Y-85703098D01*
X69504186Y-85665814D01*
X69355418Y-85543724D01*
X69185691Y-85453003D01*
X69001525Y-85397137D01*
X68857993Y-85383000D01*
X68814727Y-85378739D01*
X68784910Y-85280443D01*
X68717403Y-85154147D01*
X68626554Y-85043446D01*
X68515853Y-84952597D01*
X68389557Y-84885090D01*
X68252517Y-84843520D01*
X68110000Y-84829483D01*
X66510000Y-84829483D01*
X66367483Y-84843520D01*
X66230443Y-84885090D01*
X66104147Y-84952597D01*
X65993446Y-85043446D01*
X65902597Y-85154147D01*
X65835090Y-85280443D01*
X65793520Y-85417483D01*
X65779483Y-85560000D01*
X65779483Y-87133794D01*
X64551229Y-85905541D01*
X64609848Y-85893881D01*
X64887744Y-85778772D01*
X65137844Y-85611661D01*
X65350537Y-85398968D01*
X65517648Y-85148868D01*
X65632757Y-84870972D01*
X65691438Y-84575958D01*
X65691438Y-84275166D01*
X65632757Y-83980152D01*
X65517648Y-83702256D01*
X65350537Y-83452156D01*
X65141438Y-83243057D01*
X65141438Y-82892000D01*
X66006035Y-82892000D01*
X66046227Y-82952152D01*
X66272848Y-83178773D01*
X66539327Y-83356828D01*
X66835422Y-83479475D01*
X67149755Y-83542000D01*
X67470245Y-83542000D01*
X67784578Y-83479475D01*
X68080673Y-83356828D01*
X68347152Y-83178773D01*
X68573773Y-82952152D01*
X68751828Y-82685673D01*
X68874475Y-82389578D01*
X68937000Y-82075245D01*
X68937000Y-81754755D01*
X68874475Y-81440422D01*
X68751828Y-81144327D01*
X68573773Y-80877848D01*
X68347152Y-80651227D01*
X68080673Y-80473172D01*
X67784578Y-80350525D01*
X67470245Y-80288000D01*
X67149755Y-80288000D01*
X66835422Y-80350525D01*
X66539327Y-80473172D01*
X66272848Y-80651227D01*
X66046227Y-80877848D01*
X66006035Y-80938000D01*
X64182993Y-80938000D01*
X64135000Y-80933273D01*
X64087007Y-80938000D01*
X62634687Y-80938000D01*
X61049784Y-79353098D01*
X61019186Y-79315814D01*
X60870418Y-79193724D01*
X60700691Y-79103003D01*
X60516525Y-79047137D01*
X60372993Y-79033000D01*
X60325000Y-79028273D01*
X60277007Y-79033000D01*
X54295988Y-79033000D01*
X54247997Y-79028273D01*
X54200007Y-79033000D01*
X54200005Y-79033000D01*
X54056473Y-79047137D01*
X53872307Y-79103003D01*
X53702580Y-79193724D01*
X53553812Y-79315814D01*
X53523218Y-79353093D01*
X52661097Y-80215215D01*
X52623813Y-80245813D01*
X52501723Y-80394581D01*
X52437840Y-80514099D01*
X52411002Y-80564309D01*
X52355136Y-80748474D01*
X52336272Y-80939999D01*
X51460000Y-80939999D01*
X51460000Y-66942923D01*
X55563000Y-66942923D01*
X55563000Y-67677077D01*
X55706227Y-68397126D01*
X55987176Y-69075396D01*
X56395050Y-69685824D01*
X56914176Y-70204950D01*
X57524604Y-70612824D01*
X58202874Y-70893773D01*
X58922923Y-71037000D01*
X59657077Y-71037000D01*
X59879573Y-70992743D01*
X59668093Y-71204223D01*
X59630815Y-71234816D01*
X59600222Y-71272094D01*
X59600221Y-71272095D01*
X59508725Y-71383584D01*
X59418003Y-71553312D01*
X59362137Y-71737477D01*
X59343273Y-71929002D01*
X59348001Y-71977005D01*
X59348000Y-75017495D01*
X59138901Y-75226594D01*
X58971790Y-75476694D01*
X58856681Y-75754590D01*
X58798000Y-76049604D01*
X58798000Y-76350396D01*
X58856681Y-76645410D01*
X58971790Y-76923306D01*
X59138901Y-77173406D01*
X59351594Y-77386099D01*
X59601694Y-77553210D01*
X59879590Y-77668319D01*
X60174604Y-77727000D01*
X60475396Y-77727000D01*
X60770410Y-77668319D01*
X61048306Y-77553210D01*
X61298406Y-77386099D01*
X61507505Y-77177000D01*
X62674016Y-77177000D01*
X62793552Y-77355898D01*
X63034102Y-77596448D01*
X63316959Y-77785447D01*
X63631253Y-77915632D01*
X63964905Y-77982000D01*
X64305095Y-77982000D01*
X64638747Y-77915632D01*
X64953041Y-77785447D01*
X65235898Y-77596448D01*
X65476448Y-77355898D01*
X65559234Y-77232000D01*
X69210766Y-77232000D01*
X69293552Y-77355898D01*
X69534102Y-77596448D01*
X69816959Y-77785447D01*
X70131253Y-77915632D01*
X70464905Y-77982000D01*
X70805095Y-77982000D01*
X71138747Y-77915632D01*
X71453041Y-77785447D01*
X71735898Y-77596448D01*
X71976448Y-77355898D01*
X72165447Y-77073041D01*
X72295632Y-76758747D01*
X72362000Y-76425095D01*
X72362000Y-76084905D01*
X72295632Y-75751253D01*
X72165447Y-75436959D01*
X71976448Y-75154102D01*
X71735898Y-74913552D01*
X71453041Y-74724553D01*
X71138747Y-74594368D01*
X70805095Y-74528000D01*
X70464905Y-74528000D01*
X70131253Y-74594368D01*
X69816959Y-74724553D01*
X69534102Y-74913552D01*
X69293552Y-75154102D01*
X69210766Y-75278000D01*
X65559234Y-75278000D01*
X65476448Y-75154102D01*
X65235898Y-74913552D01*
X64953041Y-74724553D01*
X64638747Y-74594368D01*
X64305095Y-74528000D01*
X63964905Y-74528000D01*
X63631253Y-74594368D01*
X63316959Y-74724553D01*
X63034102Y-74913552D01*
X62793552Y-75154102D01*
X62747516Y-75223000D01*
X61507505Y-75223000D01*
X61302000Y-75017495D01*
X61302000Y-72890413D01*
X63179192Y-72890413D01*
X63274956Y-73154814D01*
X63564571Y-73295704D01*
X63876108Y-73377384D01*
X64197595Y-73396718D01*
X64516675Y-73352961D01*
X64821088Y-73247795D01*
X64995044Y-73154814D01*
X65090808Y-72890413D01*
X69679192Y-72890413D01*
X69774956Y-73154814D01*
X70064571Y-73295704D01*
X70376108Y-73377384D01*
X70697595Y-73396718D01*
X71016675Y-73352961D01*
X71321088Y-73247795D01*
X71495044Y-73154814D01*
X71590808Y-72890413D01*
X70635000Y-71934605D01*
X69679192Y-72890413D01*
X65090808Y-72890413D01*
X64135000Y-71934605D01*
X63179192Y-72890413D01*
X61302000Y-72890413D01*
X61302000Y-72333688D01*
X62729932Y-70905756D01*
X62594296Y-71184571D01*
X62512616Y-71496108D01*
X62493282Y-71817595D01*
X62537039Y-72136675D01*
X62642205Y-72441088D01*
X62735186Y-72615044D01*
X62999587Y-72710808D01*
X63955395Y-71755000D01*
X64314605Y-71755000D01*
X65270413Y-72710808D01*
X65534814Y-72615044D01*
X65675704Y-72325429D01*
X65757384Y-72013892D01*
X65769189Y-71817595D01*
X68993282Y-71817595D01*
X69037039Y-72136675D01*
X69142205Y-72441088D01*
X69235186Y-72615044D01*
X69499587Y-72710808D01*
X70455395Y-71755000D01*
X69499587Y-70799192D01*
X69235186Y-70894956D01*
X69094296Y-71184571D01*
X69012616Y-71496108D01*
X68993282Y-71817595D01*
X65769189Y-71817595D01*
X65776718Y-71692405D01*
X65732961Y-71373325D01*
X65627795Y-71068912D01*
X65534814Y-70894956D01*
X65270413Y-70799192D01*
X64314605Y-71755000D01*
X63955395Y-71755000D01*
X63941253Y-71740858D01*
X64120858Y-71561253D01*
X64135000Y-71575395D01*
X65090808Y-70619587D01*
X64995044Y-70355186D01*
X64705429Y-70214296D01*
X64393892Y-70132616D01*
X64072405Y-70113282D01*
X63753325Y-70157039D01*
X63448912Y-70262205D01*
X63286870Y-70348818D01*
X64791902Y-68843786D01*
X64829186Y-68813188D01*
X64951276Y-68664420D01*
X65041997Y-68494693D01*
X65090888Y-68333520D01*
X65097863Y-68310528D01*
X65116727Y-68119002D01*
X65112000Y-68071009D01*
X65112000Y-64344234D01*
X65235898Y-64261448D01*
X65476448Y-64020898D01*
X65559234Y-63897000D01*
X69210766Y-63897000D01*
X69293552Y-64020898D01*
X69534102Y-64261448D01*
X69816959Y-64450447D01*
X70131253Y-64580632D01*
X70464905Y-64647000D01*
X70805095Y-64647000D01*
X71138747Y-64580632D01*
X71453041Y-64450447D01*
X71735898Y-64261448D01*
X71976448Y-64020898D01*
X71994450Y-63993955D01*
X72051594Y-64051099D01*
X72301694Y-64218210D01*
X72579590Y-64333319D01*
X72874604Y-64392000D01*
X73175396Y-64392000D01*
X73470410Y-64333319D01*
X73748306Y-64218210D01*
X73998406Y-64051099D01*
X74211099Y-63838406D01*
X74378210Y-63588306D01*
X74493319Y-63310410D01*
X74552000Y-63015396D01*
X74552000Y-62714604D01*
X74493319Y-62419590D01*
X74378210Y-62141694D01*
X74211099Y-61891594D01*
X73998406Y-61678901D01*
X73748306Y-61511790D01*
X73470410Y-61396681D01*
X73175396Y-61338000D01*
X72874604Y-61338000D01*
X72579590Y-61396681D01*
X72301694Y-61511790D01*
X72051594Y-61678901D01*
X71943921Y-61786575D01*
X71735898Y-61578552D01*
X71453041Y-61389553D01*
X71138747Y-61259368D01*
X70805095Y-61193000D01*
X70464905Y-61193000D01*
X70131253Y-61259368D01*
X69816959Y-61389553D01*
X69534102Y-61578552D01*
X69293552Y-61819102D01*
X69210766Y-61943000D01*
X65559234Y-61943000D01*
X65476448Y-61819102D01*
X65235898Y-61578552D01*
X64953041Y-61389553D01*
X64638747Y-61259368D01*
X64305095Y-61193000D01*
X63964905Y-61193000D01*
X63818757Y-61222071D01*
X59397000Y-56800314D01*
X59397000Y-54764234D01*
X59520898Y-54681448D01*
X59761448Y-54440898D01*
X59844234Y-54317000D01*
X63495766Y-54317000D01*
X63578552Y-54440898D01*
X63590415Y-54452761D01*
X63411694Y-54526790D01*
X63161594Y-54693901D01*
X62948901Y-54906594D01*
X62781790Y-55156694D01*
X62666681Y-55434590D01*
X62608000Y-55729604D01*
X62608000Y-56030396D01*
X62666681Y-56325410D01*
X62781790Y-56603306D01*
X62948901Y-56853406D01*
X63117993Y-57022498D01*
X63034102Y-57078552D01*
X62793552Y-57319102D01*
X62604553Y-57601959D01*
X62474368Y-57916253D01*
X62408000Y-58249905D01*
X62408000Y-58590095D01*
X62474368Y-58923747D01*
X62604553Y-59238041D01*
X62793552Y-59520898D01*
X63034102Y-59761448D01*
X63316959Y-59950447D01*
X63631253Y-60080632D01*
X63964905Y-60147000D01*
X64305095Y-60147000D01*
X64638747Y-60080632D01*
X64953041Y-59950447D01*
X65235898Y-59761448D01*
X65476448Y-59520898D01*
X65559234Y-59397000D01*
X69210766Y-59397000D01*
X69293552Y-59520898D01*
X69534102Y-59761448D01*
X69816959Y-59950447D01*
X70131253Y-60080632D01*
X70464905Y-60147000D01*
X70805095Y-60147000D01*
X71138747Y-60080632D01*
X71453041Y-59950447D01*
X71735898Y-59761448D01*
X71976448Y-59520898D01*
X72165447Y-59238041D01*
X72295632Y-58923747D01*
X72362000Y-58590095D01*
X72362000Y-58249905D01*
X72295632Y-57916253D01*
X72165447Y-57601959D01*
X71976448Y-57319102D01*
X71735898Y-57078552D01*
X71453041Y-56889553D01*
X71391448Y-56864040D01*
X77348091Y-56864040D01*
X77442930Y-57128881D01*
X77587615Y-57370131D01*
X77776586Y-57578519D01*
X78002580Y-57746037D01*
X78256913Y-57866246D01*
X78390961Y-57906904D01*
X78613000Y-57784915D01*
X78613000Y-56642000D01*
X78867000Y-56642000D01*
X78867000Y-57784915D01*
X79089039Y-57906904D01*
X79223087Y-57866246D01*
X79477420Y-57746037D01*
X79703414Y-57578519D01*
X79892385Y-57370131D01*
X80037070Y-57128881D01*
X80131909Y-56864040D01*
X80010624Y-56642000D01*
X78867000Y-56642000D01*
X78613000Y-56642000D01*
X77469376Y-56642000D01*
X77348091Y-56864040D01*
X71391448Y-56864040D01*
X71138747Y-56759368D01*
X70805095Y-56693000D01*
X70464905Y-56693000D01*
X70131253Y-56759368D01*
X69816959Y-56889553D01*
X69534102Y-57078552D01*
X69293552Y-57319102D01*
X69210766Y-57443000D01*
X65559234Y-57443000D01*
X65476448Y-57319102D01*
X65235898Y-57078552D01*
X65152007Y-57022498D01*
X65321099Y-56853406D01*
X65488210Y-56603306D01*
X65603319Y-56325410D01*
X65635035Y-56165960D01*
X77348091Y-56165960D01*
X77469376Y-56388000D01*
X78613000Y-56388000D01*
X78613000Y-55245085D01*
X78867000Y-55245085D01*
X78867000Y-56388000D01*
X80010624Y-56388000D01*
X80131909Y-56165960D01*
X80037070Y-55901119D01*
X79892385Y-55659869D01*
X79703414Y-55451481D01*
X79477420Y-55283963D01*
X79223087Y-55163754D01*
X79089039Y-55123096D01*
X78867000Y-55245085D01*
X78613000Y-55245085D01*
X78390961Y-55123096D01*
X78256913Y-55163754D01*
X78002580Y-55283963D01*
X77776586Y-55451481D01*
X77587615Y-55659869D01*
X77442930Y-55901119D01*
X77348091Y-56165960D01*
X65635035Y-56165960D01*
X65662000Y-56030396D01*
X65662000Y-55729604D01*
X65603319Y-55434590D01*
X65488210Y-55156694D01*
X65388604Y-55007622D01*
X65423747Y-55000632D01*
X65738041Y-54870447D01*
X66020898Y-54681448D01*
X66261448Y-54440898D01*
X66344234Y-54317000D01*
X67262007Y-54317000D01*
X67310000Y-54321727D01*
X67357993Y-54317000D01*
X68425766Y-54317000D01*
X68508552Y-54440898D01*
X68749102Y-54681448D01*
X69031959Y-54870447D01*
X69346253Y-55000632D01*
X69679905Y-55067000D01*
X70020095Y-55067000D01*
X70353747Y-55000632D01*
X70668041Y-54870447D01*
X70950898Y-54681448D01*
X71191448Y-54440898D01*
X71274234Y-54317000D01*
X74925766Y-54317000D01*
X75008552Y-54440898D01*
X75249102Y-54681448D01*
X75531959Y-54870447D01*
X75846253Y-55000632D01*
X76179905Y-55067000D01*
X76520095Y-55067000D01*
X76853747Y-55000632D01*
X77168041Y-54870447D01*
X77450898Y-54681448D01*
X77691448Y-54440898D01*
X77880447Y-54158041D01*
X78010632Y-53843747D01*
X78077000Y-53510095D01*
X78077000Y-53169905D01*
X78010632Y-52836253D01*
X77880447Y-52521959D01*
X77691448Y-52239102D01*
X77450898Y-51998552D01*
X77168041Y-51809553D01*
X76853747Y-51679368D01*
X76520095Y-51613000D01*
X76179905Y-51613000D01*
X75846253Y-51679368D01*
X75531959Y-51809553D01*
X75249102Y-51998552D01*
X75008552Y-52239102D01*
X74925766Y-52363000D01*
X71274234Y-52363000D01*
X71191448Y-52239102D01*
X70950898Y-51998552D01*
X70668041Y-51809553D01*
X70353747Y-51679368D01*
X70020095Y-51613000D01*
X69679905Y-51613000D01*
X69346253Y-51679368D01*
X69031959Y-51809553D01*
X68749102Y-51998552D01*
X68508552Y-52239102D01*
X68425766Y-52363000D01*
X68287000Y-52363000D01*
X68287000Y-49579451D01*
X68319553Y-49658041D01*
X68508552Y-49940898D01*
X68749102Y-50181448D01*
X69031959Y-50370447D01*
X69346253Y-50500632D01*
X69679905Y-50567000D01*
X70020095Y-50567000D01*
X70353747Y-50500632D01*
X70668041Y-50370447D01*
X70950898Y-50181448D01*
X71191448Y-49940898D01*
X71274234Y-49817000D01*
X74925766Y-49817000D01*
X75008552Y-49940898D01*
X75249102Y-50181448D01*
X75531959Y-50370447D01*
X75846253Y-50500632D01*
X76179905Y-50567000D01*
X76520095Y-50567000D01*
X76853747Y-50500632D01*
X77168041Y-50370447D01*
X77450898Y-50181448D01*
X77658921Y-49973426D01*
X77766594Y-50081099D01*
X78016694Y-50248210D01*
X78294590Y-50363319D01*
X78589604Y-50422000D01*
X78890396Y-50422000D01*
X79185410Y-50363319D01*
X79463306Y-50248210D01*
X79713406Y-50081099D01*
X79926099Y-49868406D01*
X80093210Y-49618306D01*
X80208319Y-49340410D01*
X80267000Y-49045396D01*
X80267000Y-48744604D01*
X80208319Y-48449590D01*
X80093210Y-48171694D01*
X79926099Y-47921594D01*
X79713406Y-47708901D01*
X79463306Y-47541790D01*
X79185410Y-47426681D01*
X78890396Y-47368000D01*
X78589604Y-47368000D01*
X78294590Y-47426681D01*
X78016694Y-47541790D01*
X77766594Y-47708901D01*
X77709450Y-47766045D01*
X77691448Y-47739102D01*
X77450898Y-47498552D01*
X77168041Y-47309553D01*
X76853747Y-47179368D01*
X76520095Y-47113000D01*
X76179905Y-47113000D01*
X75846253Y-47179368D01*
X75531959Y-47309553D01*
X75249102Y-47498552D01*
X75008552Y-47739102D01*
X74925766Y-47863000D01*
X71274234Y-47863000D01*
X71191448Y-47739102D01*
X70950898Y-47498552D01*
X70668041Y-47309553D01*
X70353747Y-47179368D01*
X70020095Y-47113000D01*
X69679905Y-47113000D01*
X69346253Y-47179368D01*
X69031959Y-47309553D01*
X68749102Y-47498552D01*
X68508552Y-47739102D01*
X68319553Y-48021959D01*
X68287000Y-48100549D01*
X68287000Y-44847000D01*
X69210766Y-44847000D01*
X69293552Y-44970898D01*
X69534102Y-45211448D01*
X69816959Y-45400447D01*
X70131253Y-45530632D01*
X70464905Y-45597000D01*
X70805095Y-45597000D01*
X71138747Y-45530632D01*
X71453041Y-45400447D01*
X71735898Y-45211448D01*
X71976448Y-44970898D01*
X72091279Y-44799040D01*
X77348091Y-44799040D01*
X77442930Y-45063881D01*
X77587615Y-45305131D01*
X77776586Y-45513519D01*
X78002580Y-45681037D01*
X78256913Y-45801246D01*
X78390961Y-45841904D01*
X78613000Y-45719915D01*
X78613000Y-44577000D01*
X78867000Y-44577000D01*
X78867000Y-45719915D01*
X79089039Y-45841904D01*
X79223087Y-45801246D01*
X79477420Y-45681037D01*
X79703414Y-45513519D01*
X79892385Y-45305131D01*
X80037070Y-45063881D01*
X80131909Y-44799040D01*
X80010624Y-44577000D01*
X78867000Y-44577000D01*
X78613000Y-44577000D01*
X77469376Y-44577000D01*
X77348091Y-44799040D01*
X72091279Y-44799040D01*
X72165447Y-44688041D01*
X72295632Y-44373747D01*
X72349893Y-44100960D01*
X77348091Y-44100960D01*
X77469376Y-44323000D01*
X78613000Y-44323000D01*
X78613000Y-43180085D01*
X78867000Y-43180085D01*
X78867000Y-44323000D01*
X80010624Y-44323000D01*
X80131909Y-44100960D01*
X80037070Y-43836119D01*
X79892385Y-43594869D01*
X79703414Y-43386481D01*
X79477420Y-43218963D01*
X79223087Y-43098754D01*
X79089039Y-43058096D01*
X78867000Y-43180085D01*
X78613000Y-43180085D01*
X78390961Y-43058096D01*
X78256913Y-43098754D01*
X78002580Y-43218963D01*
X77776586Y-43386481D01*
X77587615Y-43594869D01*
X77442930Y-43836119D01*
X77348091Y-44100960D01*
X72349893Y-44100960D01*
X72362000Y-44040095D01*
X72362000Y-43699905D01*
X72295632Y-43366253D01*
X72165447Y-43051959D01*
X71976448Y-42769102D01*
X71735898Y-42528552D01*
X71453041Y-42339553D01*
X71138747Y-42209368D01*
X70805095Y-42143000D01*
X70464905Y-42143000D01*
X70131253Y-42209368D01*
X69816959Y-42339553D01*
X69534102Y-42528552D01*
X69293552Y-42769102D01*
X69210766Y-42893000D01*
X67636233Y-42893000D01*
X67501525Y-42852137D01*
X67310000Y-42833273D01*
X67118476Y-42852137D01*
X66983768Y-42893000D01*
X65559234Y-42893000D01*
X65476448Y-42769102D01*
X65235898Y-42528552D01*
X64953041Y-42339553D01*
X64638747Y-42209368D01*
X64305095Y-42143000D01*
X63964905Y-42143000D01*
X63631253Y-42209368D01*
X63316959Y-42339553D01*
X63034102Y-42528552D01*
X62793552Y-42769102D01*
X62604553Y-43051959D01*
X62474368Y-43366253D01*
X62408000Y-43699905D01*
X62408000Y-44040095D01*
X62474368Y-44373747D01*
X62604553Y-44688041D01*
X62793552Y-44970898D01*
X63034102Y-45211448D01*
X63316959Y-45400447D01*
X63631253Y-45530632D01*
X63964905Y-45597000D01*
X64305095Y-45597000D01*
X64638747Y-45530632D01*
X64953041Y-45400447D01*
X65235898Y-45211448D01*
X65476448Y-44970898D01*
X65559234Y-44847000D01*
X66333001Y-44847000D01*
X66333001Y-47846188D01*
X66261448Y-47739102D01*
X66020898Y-47498552D01*
X65738041Y-47309553D01*
X65423747Y-47179368D01*
X65090095Y-47113000D01*
X64749905Y-47113000D01*
X64416253Y-47179368D01*
X64101959Y-47309553D01*
X63819102Y-47498552D01*
X63578552Y-47739102D01*
X63495766Y-47863000D01*
X59844234Y-47863000D01*
X59761448Y-47739102D01*
X59520898Y-47498552D01*
X59397000Y-47415766D01*
X59397000Y-46902505D01*
X59606099Y-46693406D01*
X59773210Y-46443306D01*
X59888319Y-46165410D01*
X59947000Y-45870396D01*
X59947000Y-45569604D01*
X59888319Y-45274590D01*
X59773210Y-44996694D01*
X59606099Y-44746594D01*
X59393406Y-44533901D01*
X59143306Y-44366790D01*
X58865410Y-44251681D01*
X58570396Y-44193000D01*
X58269604Y-44193000D01*
X57974590Y-44251681D01*
X57696694Y-44366790D01*
X57446594Y-44533901D01*
X57233901Y-44746594D01*
X57066790Y-44996694D01*
X56951681Y-45274590D01*
X56893000Y-45569604D01*
X56893000Y-45870396D01*
X56951681Y-46165410D01*
X57066790Y-46443306D01*
X57233901Y-46693406D01*
X57443000Y-46902505D01*
X57443001Y-47415766D01*
X57319102Y-47498552D01*
X57078552Y-47739102D01*
X56889553Y-48021959D01*
X56759368Y-48336253D01*
X56693000Y-48669905D01*
X56693000Y-49010095D01*
X56759368Y-49343747D01*
X56889553Y-49658041D01*
X57078552Y-49940898D01*
X57319102Y-50181448D01*
X57601959Y-50370447D01*
X57916253Y-50500632D01*
X58249905Y-50567000D01*
X58590095Y-50567000D01*
X58923747Y-50500632D01*
X59238041Y-50370447D01*
X59520898Y-50181448D01*
X59761448Y-49940898D01*
X59844234Y-49817000D01*
X63495766Y-49817000D01*
X63578552Y-49940898D01*
X63819102Y-50181448D01*
X64101959Y-50370447D01*
X64416253Y-50500632D01*
X64749905Y-50567000D01*
X65090095Y-50567000D01*
X65423747Y-50500632D01*
X65738041Y-50370447D01*
X66020898Y-50181448D01*
X66261448Y-49940898D01*
X66333000Y-49833812D01*
X66333000Y-52346187D01*
X66261448Y-52239102D01*
X66020898Y-51998552D01*
X65738041Y-51809553D01*
X65423747Y-51679368D01*
X65090095Y-51613000D01*
X64749905Y-51613000D01*
X64416253Y-51679368D01*
X64101959Y-51809553D01*
X63819102Y-51998552D01*
X63578552Y-52239102D01*
X63495766Y-52363000D01*
X59844234Y-52363000D01*
X59761448Y-52239102D01*
X59520898Y-51998552D01*
X59238041Y-51809553D01*
X58923747Y-51679368D01*
X58590095Y-51613000D01*
X58249905Y-51613000D01*
X57916253Y-51679368D01*
X57601959Y-51809553D01*
X57319102Y-51998552D01*
X57078552Y-52239102D01*
X56889553Y-52521959D01*
X56759368Y-52836253D01*
X56693000Y-53169905D01*
X56693000Y-53510095D01*
X56759368Y-53843747D01*
X56889553Y-54158041D01*
X57078552Y-54440898D01*
X57319102Y-54681448D01*
X57443001Y-54764234D01*
X57443001Y-54793695D01*
X57370131Y-54727615D01*
X57128881Y-54582930D01*
X56864040Y-54488091D01*
X56642000Y-54609376D01*
X56642000Y-55753000D01*
X56662000Y-55753000D01*
X56662000Y-56007000D01*
X56642000Y-56007000D01*
X56642000Y-57150624D01*
X56864040Y-57271909D01*
X57128881Y-57177070D01*
X57370131Y-57032385D01*
X57443000Y-56966306D01*
X57443000Y-57157007D01*
X57438273Y-57205000D01*
X57443000Y-57252992D01*
X57457137Y-57396524D01*
X57513003Y-57580690D01*
X57603724Y-57750418D01*
X57725814Y-57899186D01*
X57763098Y-57929784D01*
X62437071Y-62603757D01*
X62408000Y-62749905D01*
X62408000Y-63090095D01*
X62474368Y-63423747D01*
X62604553Y-63738041D01*
X62793552Y-64020898D01*
X63034102Y-64261448D01*
X63158000Y-64344234D01*
X63158000Y-64382205D01*
X63158001Y-64382215D01*
X63158000Y-67714316D01*
X62972743Y-67899573D01*
X63017000Y-67677077D01*
X63017000Y-66942923D01*
X62873773Y-66222874D01*
X62592824Y-65544604D01*
X62184950Y-64934176D01*
X61665824Y-64415050D01*
X61055396Y-64007176D01*
X60377126Y-63726227D01*
X59657077Y-63583000D01*
X58922923Y-63583000D01*
X58202874Y-63726227D01*
X57524604Y-64007176D01*
X56914176Y-64415050D01*
X56395050Y-64934176D01*
X55987176Y-65544604D01*
X55706227Y-66222874D01*
X55563000Y-66942923D01*
X51460000Y-66942923D01*
X51460000Y-56229039D01*
X55123096Y-56229039D01*
X55163754Y-56363087D01*
X55283963Y-56617420D01*
X55451481Y-56843414D01*
X55659869Y-57032385D01*
X55901119Y-57177070D01*
X56165960Y-57271909D01*
X56388000Y-57150624D01*
X56388000Y-56007000D01*
X55245085Y-56007000D01*
X55123096Y-56229039D01*
X51460000Y-56229039D01*
X51460000Y-55530961D01*
X55123096Y-55530961D01*
X55245085Y-55753000D01*
X56388000Y-55753000D01*
X56388000Y-54609376D01*
X56165960Y-54488091D01*
X55901119Y-54582930D01*
X55659869Y-54727615D01*
X55451481Y-54916586D01*
X55283963Y-55142580D01*
X55163754Y-55396913D01*
X55123096Y-55530961D01*
X51460000Y-55530961D01*
X51460000Y-38449040D01*
X57028091Y-38449040D01*
X57122930Y-38713881D01*
X57267615Y-38955131D01*
X57456586Y-39163519D01*
X57682580Y-39331037D01*
X57936913Y-39451246D01*
X58070961Y-39491904D01*
X58293000Y-39369915D01*
X58293000Y-38227000D01*
X58547000Y-38227000D01*
X58547000Y-39369915D01*
X58769039Y-39491904D01*
X58903087Y-39451246D01*
X59157420Y-39331037D01*
X59383414Y-39163519D01*
X59572385Y-38955131D01*
X59717070Y-38713881D01*
X59811909Y-38449040D01*
X59690624Y-38227000D01*
X58547000Y-38227000D01*
X58293000Y-38227000D01*
X57149376Y-38227000D01*
X57028091Y-38449040D01*
X51460000Y-38449040D01*
X51460000Y-37750960D01*
X57028091Y-37750960D01*
X57149376Y-37973000D01*
X58293000Y-37973000D01*
X58293000Y-36830085D01*
X58547000Y-36830085D01*
X58547000Y-37973000D01*
X59690624Y-37973000D01*
X59811909Y-37750960D01*
X59717070Y-37486119D01*
X59572385Y-37244869D01*
X59383414Y-37036481D01*
X59157420Y-36868963D01*
X58903087Y-36748754D01*
X58769039Y-36708096D01*
X58547000Y-36830085D01*
X58293000Y-36830085D01*
X58070961Y-36708096D01*
X57936913Y-36748754D01*
X57682580Y-36868963D01*
X57456586Y-37036481D01*
X57267615Y-37244869D01*
X57122930Y-37486119D01*
X57028091Y-37750960D01*
X51460000Y-37750960D01*
X51460000Y-36220000D01*
X72403313Y-36220000D01*
X70951243Y-37672071D01*
G37*
X70951243Y-37672071D02*
X70805095Y-37643000D01*
X70464905Y-37643000D01*
X70131253Y-37709368D01*
X69816959Y-37839553D01*
X69534102Y-38028552D01*
X69293552Y-38269102D01*
X69210766Y-38393000D01*
X65559234Y-38393000D01*
X65476448Y-38269102D01*
X65235898Y-38028552D01*
X64953041Y-37839553D01*
X64638747Y-37709368D01*
X64305095Y-37643000D01*
X63964905Y-37643000D01*
X63631253Y-37709368D01*
X63316959Y-37839553D01*
X63034102Y-38028552D01*
X62793552Y-38269102D01*
X62604553Y-38551959D01*
X62474368Y-38866253D01*
X62408000Y-39199905D01*
X62408000Y-39540095D01*
X62474368Y-39873747D01*
X62604553Y-40188041D01*
X62793552Y-40470898D01*
X63034102Y-40711448D01*
X63316959Y-40900447D01*
X63631253Y-41030632D01*
X63964905Y-41097000D01*
X64305095Y-41097000D01*
X64638747Y-41030632D01*
X64953041Y-40900447D01*
X65235898Y-40711448D01*
X65476448Y-40470898D01*
X65559234Y-40347000D01*
X69210766Y-40347000D01*
X69293552Y-40470898D01*
X69534102Y-40711448D01*
X69816959Y-40900447D01*
X70131253Y-41030632D01*
X70464905Y-41097000D01*
X70805095Y-41097000D01*
X71138747Y-41030632D01*
X71453041Y-40900447D01*
X71735898Y-40711448D01*
X71976448Y-40470898D01*
X72165447Y-40188041D01*
X72295632Y-39873747D01*
X72362000Y-39540095D01*
X72362000Y-39199905D01*
X72332929Y-39053757D01*
X73579687Y-37807000D01*
X77557495Y-37807000D01*
X77766594Y-38016099D01*
X78016694Y-38183210D01*
X78294590Y-38298319D01*
X78589604Y-38357000D01*
X78890396Y-38357000D01*
X79185410Y-38298319D01*
X79463306Y-38183210D01*
X79713406Y-38016099D01*
X79926099Y-37803406D01*
X80093210Y-37553306D01*
X80208319Y-37275410D01*
X80267000Y-36980396D01*
X80267000Y-36679604D01*
X80208319Y-36384590D01*
X80140143Y-36220000D01*
X121260001Y-36220000D01*
X121260000Y-114910000D01*
X107102644Y-114910000D01*
X111503000Y-110509645D01*
X111503000Y-110640396D01*
X111561681Y-110935410D01*
X111676790Y-111213306D01*
X111843901Y-111463406D01*
X112056594Y-111676099D01*
X112182161Y-111760000D01*
X112056594Y-111843901D01*
X111843901Y-112056594D01*
X111676790Y-112306694D01*
X111561681Y-112584590D01*
X111503000Y-112879604D01*
X111503000Y-113180396D01*
X111561681Y-113475410D01*
X111676790Y-113753306D01*
X111843901Y-114003406D01*
X112056594Y-114216099D01*
X112306694Y-114383210D01*
X112584590Y-114498319D01*
X112879604Y-114557000D01*
X113180396Y-114557000D01*
X113475410Y-114498319D01*
X113753306Y-114383210D01*
X114003406Y-114216099D01*
X114216099Y-114003406D01*
X114383210Y-113753306D01*
X114498319Y-113475410D01*
X114557000Y-113180396D01*
X114557000Y-112884686D01*
X115534790Y-111906897D01*
X115584147Y-111947403D01*
X115710443Y-112014910D01*
X115847483Y-112056480D01*
X115990000Y-112070517D01*
X117690000Y-112070517D01*
X117832517Y-112056480D01*
X117969557Y-112014910D01*
X118095853Y-111947403D01*
X118206554Y-111856554D01*
X118297403Y-111745853D01*
X118364910Y-111619557D01*
X118377994Y-111576425D01*
X118498645Y-111685178D01*
X118748748Y-111834157D01*
X119023109Y-111931481D01*
X119253000Y-111810814D01*
X119253000Y-110617000D01*
X119507000Y-110617000D01*
X119507000Y-111810814D01*
X119736891Y-111931481D01*
X120011252Y-111834157D01*
X120261355Y-111685178D01*
X120477588Y-111490269D01*
X120651641Y-111256920D01*
X120776825Y-110994099D01*
X120821476Y-110846890D01*
X120700155Y-110617000D01*
X119507000Y-110617000D01*
X119253000Y-110617000D01*
X119233000Y-110617000D01*
X119233000Y-110363000D01*
X119253000Y-110363000D01*
X119253000Y-108077000D01*
X119507000Y-108077000D01*
X119507000Y-110363000D01*
X120700155Y-110363000D01*
X120821476Y-110133110D01*
X120776825Y-109985901D01*
X120651641Y-109723080D01*
X120477588Y-109489731D01*
X120261355Y-109294822D01*
X120135745Y-109220000D01*
X120261355Y-109145178D01*
X120477588Y-108950269D01*
X120651641Y-108716920D01*
X120776825Y-108454099D01*
X120821476Y-108306890D01*
X120700155Y-108077000D01*
X119507000Y-108077000D01*
X119253000Y-108077000D01*
X119233000Y-108077000D01*
X119233000Y-107823000D01*
X119253000Y-107823000D01*
X119253000Y-105537000D01*
X119507000Y-105537000D01*
X119507000Y-107823000D01*
X120700155Y-107823000D01*
X120821476Y-107593110D01*
X120776825Y-107445901D01*
X120651641Y-107183080D01*
X120477588Y-106949731D01*
X120261355Y-106754822D01*
X120135745Y-106680000D01*
X120261355Y-106605178D01*
X120477588Y-106410269D01*
X120651641Y-106176920D01*
X120776825Y-105914099D01*
X120821476Y-105766890D01*
X120700155Y-105537000D01*
X119507000Y-105537000D01*
X119253000Y-105537000D01*
X119233000Y-105537000D01*
X119233000Y-105283000D01*
X119253000Y-105283000D01*
X119253000Y-102997000D01*
X119507000Y-102997000D01*
X119507000Y-105283000D01*
X120700155Y-105283000D01*
X120821476Y-105053110D01*
X120776825Y-104905901D01*
X120651641Y-104643080D01*
X120477588Y-104409731D01*
X120261355Y-104214822D01*
X120135745Y-104140000D01*
X120261355Y-104065178D01*
X120477588Y-103870269D01*
X120651641Y-103636920D01*
X120776825Y-103374099D01*
X120821476Y-103226890D01*
X120700155Y-102997000D01*
X119507000Y-102997000D01*
X119253000Y-102997000D01*
X119233000Y-102997000D01*
X119233000Y-102743000D01*
X119253000Y-102743000D01*
X119253000Y-100457000D01*
X119507000Y-100457000D01*
X119507000Y-102743000D01*
X120700155Y-102743000D01*
X120821476Y-102513110D01*
X120776825Y-102365901D01*
X120651641Y-102103080D01*
X120477588Y-101869731D01*
X120261355Y-101674822D01*
X120135745Y-101600000D01*
X120261355Y-101525178D01*
X120477588Y-101330269D01*
X120651641Y-101096920D01*
X120776825Y-100834099D01*
X120821476Y-100686890D01*
X120700155Y-100457000D01*
X119507000Y-100457000D01*
X119253000Y-100457000D01*
X119233000Y-100457000D01*
X119233000Y-100203000D01*
X119253000Y-100203000D01*
X119253000Y-97917000D01*
X119507000Y-97917000D01*
X119507000Y-100203000D01*
X120700155Y-100203000D01*
X120821476Y-99973110D01*
X120776825Y-99825901D01*
X120651641Y-99563080D01*
X120477588Y-99329731D01*
X120261355Y-99134822D01*
X120135745Y-99060000D01*
X120261355Y-98985178D01*
X120477588Y-98790269D01*
X120651641Y-98556920D01*
X120776825Y-98294099D01*
X120821476Y-98146890D01*
X120700155Y-97917000D01*
X119507000Y-97917000D01*
X119253000Y-97917000D01*
X119233000Y-97917000D01*
X119233000Y-97663000D01*
X119253000Y-97663000D01*
X119253000Y-95377000D01*
X119507000Y-95377000D01*
X119507000Y-97663000D01*
X120700155Y-97663000D01*
X120821476Y-97433110D01*
X120776825Y-97285901D01*
X120651641Y-97023080D01*
X120477588Y-96789731D01*
X120261355Y-96594822D01*
X120135745Y-96520000D01*
X120261355Y-96445178D01*
X120477588Y-96250269D01*
X120651641Y-96016920D01*
X120776825Y-95754099D01*
X120821476Y-95606890D01*
X120700155Y-95377000D01*
X119507000Y-95377000D01*
X119253000Y-95377000D01*
X119233000Y-95377000D01*
X119233000Y-95123000D01*
X119253000Y-95123000D01*
X119253000Y-92837000D01*
X119507000Y-92837000D01*
X119507000Y-95123000D01*
X120700155Y-95123000D01*
X120821476Y-94893110D01*
X120776825Y-94745901D01*
X120651641Y-94483080D01*
X120477588Y-94249731D01*
X120261355Y-94054822D01*
X120135745Y-93980000D01*
X120261355Y-93905178D01*
X120477588Y-93710269D01*
X120651641Y-93476920D01*
X120776825Y-93214099D01*
X120821476Y-93066890D01*
X120700155Y-92837000D01*
X119507000Y-92837000D01*
X119253000Y-92837000D01*
X119233000Y-92837000D01*
X119233000Y-92583000D01*
X119253000Y-92583000D01*
X119253000Y-90297000D01*
X119507000Y-90297000D01*
X119507000Y-92583000D01*
X120700155Y-92583000D01*
X120821476Y-92353110D01*
X120776825Y-92205901D01*
X120651641Y-91943080D01*
X120477588Y-91709731D01*
X120261355Y-91514822D01*
X120135745Y-91440000D01*
X120261355Y-91365178D01*
X120477588Y-91170269D01*
X120651641Y-90936920D01*
X120776825Y-90674099D01*
X120821476Y-90526890D01*
X120700155Y-90297000D01*
X119507000Y-90297000D01*
X119253000Y-90297000D01*
X119233000Y-90297000D01*
X119233000Y-90043000D01*
X119253000Y-90043000D01*
X119253000Y-87757000D01*
X119507000Y-87757000D01*
X119507000Y-90043000D01*
X120700155Y-90043000D01*
X120821476Y-89813110D01*
X120776825Y-89665901D01*
X120651641Y-89403080D01*
X120477588Y-89169731D01*
X120261355Y-88974822D01*
X120135745Y-88900000D01*
X120261355Y-88825178D01*
X120477588Y-88630269D01*
X120651641Y-88396920D01*
X120776825Y-88134099D01*
X120821476Y-87986890D01*
X120700155Y-87757000D01*
X119507000Y-87757000D01*
X119253000Y-87757000D01*
X119233000Y-87757000D01*
X119233000Y-87503000D01*
X119253000Y-87503000D01*
X119253000Y-85217000D01*
X119507000Y-85217000D01*
X119507000Y-87503000D01*
X120700155Y-87503000D01*
X120821476Y-87273110D01*
X120776825Y-87125901D01*
X120651641Y-86863080D01*
X120477588Y-86629731D01*
X120261355Y-86434822D01*
X120135745Y-86360000D01*
X120261355Y-86285178D01*
X120477588Y-86090269D01*
X120651641Y-85856920D01*
X120776825Y-85594099D01*
X120821476Y-85446890D01*
X120700155Y-85217000D01*
X119507000Y-85217000D01*
X119253000Y-85217000D01*
X119233000Y-85217000D01*
X119233000Y-84963000D01*
X119253000Y-84963000D01*
X119253000Y-82677000D01*
X119507000Y-82677000D01*
X119507000Y-84963000D01*
X120700155Y-84963000D01*
X120821476Y-84733110D01*
X120776825Y-84585901D01*
X120651641Y-84323080D01*
X120477588Y-84089731D01*
X120261355Y-83894822D01*
X120135745Y-83820000D01*
X120261355Y-83745178D01*
X120477588Y-83550269D01*
X120651641Y-83316920D01*
X120776825Y-83054099D01*
X120821476Y-82906890D01*
X120700155Y-82677000D01*
X119507000Y-82677000D01*
X119253000Y-82677000D01*
X119233000Y-82677000D01*
X119233000Y-82423000D01*
X119253000Y-82423000D01*
X119253000Y-80137000D01*
X119507000Y-80137000D01*
X119507000Y-82423000D01*
X120700155Y-82423000D01*
X120821476Y-82193110D01*
X120776825Y-82045901D01*
X120651641Y-81783080D01*
X120477588Y-81549731D01*
X120261355Y-81354822D01*
X120135745Y-81280000D01*
X120261355Y-81205178D01*
X120477588Y-81010269D01*
X120651641Y-80776920D01*
X120776825Y-80514099D01*
X120821476Y-80366890D01*
X120700155Y-80137000D01*
X119507000Y-80137000D01*
X119253000Y-80137000D01*
X119233000Y-80137000D01*
X119233000Y-79883000D01*
X119253000Y-79883000D01*
X119253000Y-77597000D01*
X119507000Y-77597000D01*
X119507000Y-79883000D01*
X120700155Y-79883000D01*
X120821476Y-79653110D01*
X120776825Y-79505901D01*
X120651641Y-79243080D01*
X120477588Y-79009731D01*
X120261355Y-78814822D01*
X120135745Y-78740000D01*
X120261355Y-78665178D01*
X120477588Y-78470269D01*
X120651641Y-78236920D01*
X120776825Y-77974099D01*
X120821476Y-77826890D01*
X120700155Y-77597000D01*
X119507000Y-77597000D01*
X119253000Y-77597000D01*
X119233000Y-77597000D01*
X119233000Y-77343000D01*
X119253000Y-77343000D01*
X119253000Y-75057000D01*
X119507000Y-75057000D01*
X119507000Y-77343000D01*
X120700155Y-77343000D01*
X120821476Y-77113110D01*
X120776825Y-76965901D01*
X120651641Y-76703080D01*
X120477588Y-76469731D01*
X120261355Y-76274822D01*
X120135745Y-76200000D01*
X120261355Y-76125178D01*
X120477588Y-75930269D01*
X120651641Y-75696920D01*
X120776825Y-75434099D01*
X120821476Y-75286890D01*
X120700155Y-75057000D01*
X119507000Y-75057000D01*
X119253000Y-75057000D01*
X119233000Y-75057000D01*
X119233000Y-74803000D01*
X119253000Y-74803000D01*
X119253000Y-72517000D01*
X119507000Y-72517000D01*
X119507000Y-74803000D01*
X120700155Y-74803000D01*
X120821476Y-74573110D01*
X120776825Y-74425901D01*
X120651641Y-74163080D01*
X120477588Y-73929731D01*
X120261355Y-73734822D01*
X120135745Y-73660000D01*
X120261355Y-73585178D01*
X120477588Y-73390269D01*
X120651641Y-73156920D01*
X120776825Y-72894099D01*
X120821476Y-72746890D01*
X120700155Y-72517000D01*
X119507000Y-72517000D01*
X119253000Y-72517000D01*
X119233000Y-72517000D01*
X119233000Y-72263000D01*
X119253000Y-72263000D01*
X119253000Y-69977000D01*
X119507000Y-69977000D01*
X119507000Y-72263000D01*
X120700155Y-72263000D01*
X120821476Y-72033110D01*
X120776825Y-71885901D01*
X120651641Y-71623080D01*
X120477588Y-71389731D01*
X120261355Y-71194822D01*
X120135745Y-71120000D01*
X120261355Y-71045178D01*
X120477588Y-70850269D01*
X120651641Y-70616920D01*
X120776825Y-70354099D01*
X120821476Y-70206890D01*
X120700155Y-69977000D01*
X119507000Y-69977000D01*
X119253000Y-69977000D01*
X119233000Y-69977000D01*
X119233000Y-69723000D01*
X119253000Y-69723000D01*
X119253000Y-67437000D01*
X119507000Y-67437000D01*
X119507000Y-69723000D01*
X120700155Y-69723000D01*
X120821476Y-69493110D01*
X120776825Y-69345901D01*
X120651641Y-69083080D01*
X120477588Y-68849731D01*
X120261355Y-68654822D01*
X120135745Y-68580000D01*
X120261355Y-68505178D01*
X120477588Y-68310269D01*
X120651641Y-68076920D01*
X120776825Y-67814099D01*
X120821476Y-67666890D01*
X120700155Y-67437000D01*
X119507000Y-67437000D01*
X119253000Y-67437000D01*
X119233000Y-67437000D01*
X119233000Y-67183000D01*
X119253000Y-67183000D01*
X119253000Y-65989186D01*
X119507000Y-65989186D01*
X119507000Y-67183000D01*
X120700155Y-67183000D01*
X120821476Y-66953110D01*
X120776825Y-66805901D01*
X120651641Y-66543080D01*
X120477588Y-66309731D01*
X120261355Y-66114822D01*
X120011252Y-65965843D01*
X119736891Y-65868519D01*
X119507000Y-65989186D01*
X119253000Y-65989186D01*
X119023109Y-65868519D01*
X118748748Y-65965843D01*
X118498645Y-66114822D01*
X118282412Y-66309731D01*
X118169464Y-66461158D01*
X118064936Y-66304721D01*
X117845279Y-66085064D01*
X117586989Y-65912481D01*
X117299994Y-65793604D01*
X116995321Y-65733000D01*
X116684679Y-65733000D01*
X116380006Y-65793604D01*
X116093011Y-65912481D01*
X115834721Y-66085064D01*
X115615064Y-66304721D01*
X115442481Y-66563011D01*
X115323604Y-66850006D01*
X115263000Y-67154679D01*
X115263000Y-67381312D01*
X114383092Y-68261220D01*
X114345814Y-68291813D01*
X114315221Y-68329091D01*
X114315220Y-68329092D01*
X114223724Y-68440581D01*
X114133002Y-68610309D01*
X114077136Y-68794474D01*
X114058272Y-68985999D01*
X114062999Y-69033992D01*
X114062999Y-69282823D01*
X104312822Y-79033000D01*
X102782505Y-79033000D01*
X102573406Y-78823901D01*
X102447839Y-78740000D01*
X102573406Y-78656099D01*
X102682505Y-78547000D01*
X102817093Y-78547000D01*
X102870000Y-78552211D01*
X102922907Y-78547000D01*
X102922909Y-78547000D01*
X103081129Y-78531417D01*
X103284144Y-78469833D01*
X103471244Y-78369826D01*
X103635239Y-78235239D01*
X103668973Y-78194134D01*
X105406108Y-76457000D01*
X105560396Y-76457000D01*
X105855410Y-76398319D01*
X106133306Y-76283210D01*
X106383406Y-76116099D01*
X106596099Y-75903406D01*
X106763210Y-75653306D01*
X106878319Y-75375410D01*
X106937000Y-75080396D01*
X106937000Y-74779604D01*
X106878319Y-74484590D01*
X106763210Y-74206694D01*
X106596099Y-73956594D01*
X106383406Y-73743901D01*
X106133306Y-73576790D01*
X105855410Y-73461681D01*
X105560396Y-73403000D01*
X105259604Y-73403000D01*
X104964590Y-73461681D01*
X104686694Y-73576790D01*
X104436594Y-73743901D01*
X104223901Y-73956594D01*
X104056790Y-74206694D01*
X103941681Y-74484590D01*
X103883000Y-74779604D01*
X103883000Y-74933892D01*
X102549179Y-76267713D01*
X102447839Y-76200000D01*
X102573406Y-76116099D01*
X102786099Y-75903406D01*
X102953210Y-75653306D01*
X103068319Y-75375410D01*
X103127000Y-75080396D01*
X103127000Y-74779604D01*
X103068319Y-74484590D01*
X102953210Y-74206694D01*
X102786099Y-73956594D01*
X102573406Y-73743901D01*
X102358525Y-73600323D01*
X102455131Y-73542385D01*
X102663519Y-73353414D01*
X102831037Y-73127420D01*
X102951246Y-72873087D01*
X102991904Y-72739039D01*
X102869915Y-72517000D01*
X101727000Y-72517000D01*
X101727000Y-72537000D01*
X101473000Y-72537000D01*
X101473000Y-72517000D01*
X100330085Y-72517000D01*
X100208096Y-72739039D01*
X100248754Y-72873087D01*
X100368963Y-73127420D01*
X100536481Y-73353414D01*
X100744869Y-73542385D01*
X100841475Y-73600323D01*
X100626594Y-73743901D01*
X100413901Y-73956594D01*
X100246790Y-74206694D01*
X100131681Y-74484590D01*
X100073000Y-74779604D01*
X100073000Y-75080396D01*
X100131681Y-75375410D01*
X100246790Y-75653306D01*
X100413901Y-75903406D01*
X100626594Y-76116099D01*
X100752161Y-76200000D01*
X100626594Y-76283901D01*
X100413901Y-76496594D01*
X100246790Y-76746694D01*
X100131681Y-77024590D01*
X100073000Y-77319604D01*
X100073000Y-77620396D01*
X100131681Y-77915410D01*
X100246790Y-78193306D01*
X100413901Y-78443406D01*
X100626594Y-78656099D01*
X100752161Y-78740000D01*
X100626594Y-78823901D01*
X100413901Y-79036594D01*
X100246790Y-79286694D01*
X100131681Y-79564590D01*
X100073000Y-79859604D01*
X100073000Y-80160396D01*
X100131681Y-80455410D01*
X100246790Y-80733306D01*
X100413901Y-80983406D01*
X100626594Y-81196099D01*
X100752161Y-81280000D01*
X100626594Y-81363901D01*
X100413901Y-81576594D01*
X100246790Y-81826694D01*
X100131681Y-82104590D01*
X100073000Y-82399604D01*
X100073000Y-82700396D01*
X100131681Y-82995410D01*
X100246790Y-83273306D01*
X100413901Y-83523406D01*
X100626594Y-83736099D01*
X100752161Y-83820000D01*
X100626594Y-83903901D01*
X100413901Y-84116594D01*
X100246790Y-84366694D01*
X100131681Y-84644590D01*
X100073000Y-84939604D01*
X100073000Y-85240396D01*
X100131681Y-85535410D01*
X100246790Y-85813306D01*
X100413901Y-86063406D01*
X100626594Y-86276099D01*
X100752161Y-86360000D01*
X100626594Y-86443901D01*
X100413901Y-86656594D01*
X100246790Y-86906694D01*
X100131681Y-87184590D01*
X100073000Y-87479604D01*
X100073000Y-87780396D01*
X100131681Y-88075410D01*
X100246790Y-88353306D01*
X100413901Y-88603406D01*
X100626594Y-88816099D01*
X100752161Y-88900000D01*
X100626594Y-88983901D01*
X100413901Y-89196594D01*
X100246790Y-89446694D01*
X100131681Y-89724590D01*
X100073000Y-90019604D01*
X100073000Y-90320396D01*
X100131681Y-90615410D01*
X100246790Y-90893306D01*
X100413901Y-91143406D01*
X100626594Y-91356099D01*
X100752161Y-91440000D01*
X100626594Y-91523901D01*
X100413901Y-91736594D01*
X100246790Y-91986694D01*
X100131681Y-92264590D01*
X100073000Y-92559604D01*
X100073000Y-92860396D01*
X100131681Y-93155410D01*
X100246790Y-93433306D01*
X100413901Y-93683406D01*
X100626594Y-93896099D01*
X100752161Y-93980000D01*
X100626594Y-94063901D01*
X100413901Y-94276594D01*
X100246790Y-94526694D01*
X100131681Y-94804590D01*
X100073000Y-95099604D01*
X100073000Y-95400396D01*
X100131681Y-95695410D01*
X100246790Y-95973306D01*
X100413901Y-96223406D01*
X100626594Y-96436099D01*
X100752161Y-96520000D01*
X100626594Y-96603901D01*
X100417495Y-96813000D01*
X99607505Y-96813000D01*
X99398406Y-96603901D01*
X99148306Y-96436790D01*
X98870410Y-96321681D01*
X98575396Y-96263000D01*
X98274604Y-96263000D01*
X97979590Y-96321681D01*
X97701694Y-96436790D01*
X97577026Y-96520090D01*
X97577026Y-86222672D01*
X97976910Y-85822789D01*
X98014189Y-85792195D01*
X98136279Y-85643427D01*
X98227000Y-85473700D01*
X98282866Y-85289534D01*
X98297003Y-85146002D01*
X98297003Y-85146000D01*
X98301730Y-85098010D01*
X98297003Y-85050019D01*
X98297003Y-83397993D01*
X98301730Y-83350002D01*
X98294176Y-83273306D01*
X98282866Y-83158478D01*
X98227000Y-82974312D01*
X98136279Y-82804585D01*
X98014189Y-82655817D01*
X97976910Y-82625223D01*
X97244784Y-81893098D01*
X97214186Y-81855814D01*
X97065418Y-81733724D01*
X96895691Y-81643003D01*
X96711525Y-81587137D01*
X96567993Y-81573000D01*
X96520000Y-81568273D01*
X96472007Y-81573000D01*
X96432511Y-81573000D01*
X96223412Y-81363901D01*
X95973312Y-81196790D01*
X95695416Y-81081681D01*
X95400402Y-81023000D01*
X95099610Y-81023000D01*
X94804596Y-81081681D01*
X94526700Y-81196790D01*
X94276600Y-81363901D01*
X94067501Y-81573000D01*
X87542505Y-81573000D01*
X87333406Y-81363901D01*
X87207839Y-81280000D01*
X87333406Y-81196099D01*
X87546099Y-80983406D01*
X87713210Y-80733306D01*
X87828319Y-80455410D01*
X87887000Y-80160396D01*
X87887000Y-79859604D01*
X87828319Y-79564590D01*
X87713210Y-79286694D01*
X87546099Y-79036594D01*
X87333406Y-78823901D01*
X87207839Y-78740000D01*
X87333406Y-78656099D01*
X87546099Y-78443406D01*
X87713210Y-78193306D01*
X87828319Y-77915410D01*
X87887000Y-77620396D01*
X87887000Y-77319604D01*
X87828319Y-77024590D01*
X87713210Y-76746694D01*
X87546099Y-76496594D01*
X87333406Y-76283901D01*
X87207839Y-76200000D01*
X87333406Y-76116099D01*
X87546099Y-75903406D01*
X87713210Y-75653306D01*
X87828319Y-75375410D01*
X87887000Y-75080396D01*
X87887000Y-74779604D01*
X87828319Y-74484590D01*
X87713210Y-74206694D01*
X87546099Y-73956594D01*
X87333406Y-73743901D01*
X87207839Y-73660000D01*
X87333406Y-73576099D01*
X87542505Y-73367000D01*
X87717495Y-73367000D01*
X87926594Y-73576099D01*
X88176694Y-73743210D01*
X88454590Y-73858319D01*
X88749604Y-73917000D01*
X89050396Y-73917000D01*
X89345410Y-73858319D01*
X89623306Y-73743210D01*
X89873406Y-73576099D01*
X90086099Y-73363406D01*
X90253210Y-73113306D01*
X90368319Y-72835410D01*
X90427000Y-72540396D01*
X90427000Y-72239604D01*
X90368319Y-71944590D01*
X90253210Y-71666694D01*
X90086099Y-71416594D01*
X89873406Y-71203901D01*
X89747839Y-71120000D01*
X89873406Y-71036099D01*
X90086099Y-70823406D01*
X90253210Y-70573306D01*
X90368319Y-70295410D01*
X90427000Y-70000396D01*
X90427000Y-69699604D01*
X100073000Y-69699604D01*
X100073000Y-70000396D01*
X100131681Y-70295410D01*
X100246790Y-70573306D01*
X100413901Y-70823406D01*
X100626594Y-71036099D01*
X100841475Y-71179677D01*
X100744869Y-71237615D01*
X100536481Y-71426586D01*
X100368963Y-71652580D01*
X100248754Y-71906913D01*
X100208096Y-72040961D01*
X100330085Y-72263000D01*
X101473000Y-72263000D01*
X101473000Y-72243000D01*
X101727000Y-72243000D01*
X101727000Y-72263000D01*
X102869915Y-72263000D01*
X102991904Y-72040961D01*
X102951246Y-71906913D01*
X102831037Y-71652580D01*
X102663519Y-71426586D01*
X102455131Y-71237615D01*
X102358525Y-71179677D01*
X102573406Y-71036099D01*
X102786099Y-70823406D01*
X102953210Y-70573306D01*
X103068319Y-70295410D01*
X103127000Y-70000396D01*
X103127000Y-69699604D01*
X103068319Y-69404590D01*
X102953210Y-69126694D01*
X102786099Y-68876594D01*
X102573406Y-68663901D01*
X102323306Y-68496790D01*
X102045410Y-68381681D01*
X101750396Y-68323000D01*
X101449604Y-68323000D01*
X101154590Y-68381681D01*
X100876694Y-68496790D01*
X100626594Y-68663901D01*
X100413901Y-68876594D01*
X100246790Y-69126694D01*
X100131681Y-69404590D01*
X100073000Y-69699604D01*
X90427000Y-69699604D01*
X90368319Y-69404590D01*
X90253210Y-69126694D01*
X90086099Y-68876594D01*
X89873406Y-68663901D01*
X89623306Y-68496790D01*
X89345410Y-68381681D01*
X89050396Y-68323000D01*
X88749604Y-68323000D01*
X88454590Y-68381681D01*
X88176694Y-68496790D01*
X87926594Y-68663901D01*
X87829735Y-68760760D01*
X87767403Y-68644147D01*
X87676554Y-68533446D01*
X87565853Y-68442597D01*
X87439557Y-68375090D01*
X87302517Y-68333520D01*
X87160000Y-68319483D01*
X85560000Y-68319483D01*
X85417483Y-68333520D01*
X85280443Y-68375090D01*
X85154147Y-68442597D01*
X85043446Y-68533446D01*
X84952597Y-68644147D01*
X84885090Y-68770443D01*
X84843520Y-68907483D01*
X84829483Y-69050000D01*
X84829483Y-70650000D01*
X84843520Y-70792517D01*
X84885090Y-70929557D01*
X84952597Y-71055853D01*
X85043446Y-71166554D01*
X85154147Y-71257403D01*
X85270760Y-71319735D01*
X85173901Y-71416594D01*
X85006790Y-71666694D01*
X84891681Y-71944590D01*
X84833000Y-72239604D01*
X84833000Y-72540396D01*
X84891681Y-72835410D01*
X85006790Y-73113306D01*
X85173901Y-73363406D01*
X85386594Y-73576099D01*
X85512161Y-73660000D01*
X85386594Y-73743901D01*
X85173901Y-73956594D01*
X85006790Y-74206694D01*
X84891681Y-74484590D01*
X84833000Y-74779604D01*
X84833000Y-75080396D01*
X84891681Y-75375410D01*
X85006790Y-75653306D01*
X85173901Y-75903406D01*
X85386594Y-76116099D01*
X85512161Y-76200000D01*
X85386594Y-76283901D01*
X85173901Y-76496594D01*
X85006790Y-76746694D01*
X84891681Y-77024590D01*
X84833000Y-77319604D01*
X84833000Y-77620396D01*
X84891681Y-77915410D01*
X85006790Y-78193306D01*
X85173901Y-78443406D01*
X85386594Y-78656099D01*
X85512161Y-78740000D01*
X85386594Y-78823901D01*
X85173901Y-79036594D01*
X85006790Y-79286694D01*
X84891681Y-79564590D01*
X84833000Y-79859604D01*
X84833000Y-80155313D01*
X83953092Y-81035222D01*
X83915814Y-81065815D01*
X83885221Y-81103093D01*
X83885220Y-81103094D01*
X83793724Y-81214583D01*
X83703002Y-81384311D01*
X83647136Y-81568476D01*
X83628272Y-81760001D01*
X83633000Y-81808004D01*
X83632999Y-88273807D01*
X82528093Y-89378714D01*
X82490815Y-89409307D01*
X82460222Y-89446585D01*
X82460221Y-89446586D01*
X82368725Y-89558075D01*
X82278003Y-89727803D01*
X82222137Y-89911968D01*
X82203273Y-90103493D01*
X82208001Y-90151496D01*
X82208000Y-99147501D01*
X82002501Y-99353000D01*
X79144687Y-99353000D01*
X78997000Y-99205313D01*
X78997000Y-98909604D01*
X78938319Y-98614590D01*
X78823210Y-98336694D01*
X78656099Y-98086594D01*
X78443406Y-97873901D01*
X78317839Y-97790000D01*
X78443406Y-97706099D01*
X78652505Y-97497000D01*
X78827495Y-97497000D01*
X79036594Y-97706099D01*
X79286694Y-97873210D01*
X79564590Y-97988319D01*
X79859604Y-98047000D01*
X80160396Y-98047000D01*
X80455410Y-97988319D01*
X80733306Y-97873210D01*
X80983406Y-97706099D01*
X81196099Y-97493406D01*
X81363210Y-97243306D01*
X81478319Y-96965410D01*
X81537000Y-96670396D01*
X81537000Y-96369604D01*
X81478319Y-96074590D01*
X81363210Y-95796694D01*
X81196099Y-95546594D01*
X80983406Y-95333901D01*
X80733306Y-95166790D01*
X80455410Y-95051681D01*
X80160396Y-94993000D01*
X79859604Y-94993000D01*
X79564590Y-95051681D01*
X79286694Y-95166790D01*
X79036594Y-95333901D01*
X78827495Y-95543000D01*
X78652505Y-95543000D01*
X78443406Y-95333901D01*
X78228525Y-95190323D01*
X78325131Y-95132385D01*
X78533519Y-94943414D01*
X78701037Y-94717420D01*
X78821246Y-94463087D01*
X78861904Y-94329039D01*
X78739915Y-94107000D01*
X77597000Y-94107000D01*
X77597000Y-94127000D01*
X77343000Y-94127000D01*
X77343000Y-94107000D01*
X77323000Y-94107000D01*
X77323000Y-93853000D01*
X77343000Y-93853000D01*
X77343000Y-93833000D01*
X77597000Y-93833000D01*
X77597000Y-93853000D01*
X78739915Y-93853000D01*
X78861904Y-93630961D01*
X78821246Y-93496913D01*
X78701037Y-93242580D01*
X78533519Y-93016586D01*
X78325131Y-92827615D01*
X78228525Y-92769677D01*
X78443406Y-92626099D01*
X78656099Y-92413406D01*
X78823210Y-92163306D01*
X78938319Y-91885410D01*
X78997000Y-91590396D01*
X78997000Y-91436107D01*
X82734117Y-87698991D01*
X82775216Y-87665262D01*
X82909803Y-87501267D01*
X83009810Y-87314167D01*
X83071394Y-87111152D01*
X83086977Y-86952932D01*
X83086977Y-86952931D01*
X83092188Y-86900024D01*
X83086977Y-86847117D01*
X83086977Y-82062884D01*
X83092188Y-82009977D01*
X83086977Y-81957068D01*
X83086977Y-81872930D01*
X83092188Y-81820023D01*
X83086977Y-81767114D01*
X83086977Y-81079142D01*
X83274134Y-80891985D01*
X83315239Y-80858251D01*
X83449826Y-80694256D01*
X83549833Y-80507156D01*
X83611417Y-80304141D01*
X83627000Y-80145921D01*
X83627000Y-80145919D01*
X83632211Y-80093012D01*
X83627000Y-80040105D01*
X83627000Y-70537919D01*
X83632212Y-70485000D01*
X83627000Y-70432081D01*
X83627000Y-69026106D01*
X84901108Y-67752000D01*
X101798902Y-67752000D01*
X103883000Y-69836099D01*
X103883000Y-69990387D01*
X103941681Y-70285401D01*
X104056790Y-70563297D01*
X104223901Y-70813397D01*
X104436594Y-71026090D01*
X104686694Y-71193201D01*
X104964590Y-71308310D01*
X105259604Y-71366991D01*
X105560396Y-71366991D01*
X105855410Y-71308310D01*
X106133306Y-71193201D01*
X106383406Y-71026090D01*
X106596099Y-70813397D01*
X106763210Y-70563297D01*
X106878319Y-70285401D01*
X106937000Y-69990387D01*
X106937000Y-69897774D01*
X107244176Y-70204950D01*
X107854604Y-70612824D01*
X108532874Y-70893773D01*
X109252923Y-71037000D01*
X109987077Y-71037000D01*
X110707126Y-70893773D01*
X111385396Y-70612824D01*
X111995824Y-70204950D01*
X112514950Y-69685824D01*
X112922824Y-69075396D01*
X113203773Y-68397126D01*
X113347000Y-67677077D01*
X113347000Y-66942923D01*
X113203773Y-66222874D01*
X112922824Y-65544604D01*
X112514950Y-64934176D01*
X111995824Y-64415050D01*
X111385396Y-64007176D01*
X110707126Y-63726227D01*
X109987077Y-63583000D01*
X109252923Y-63583000D01*
X108532874Y-63726227D01*
X107854604Y-64007176D01*
X107244176Y-64415050D01*
X106725050Y-64934176D01*
X106317176Y-65544604D01*
X106036227Y-66222874D01*
X105893000Y-66942923D01*
X105893000Y-67677077D01*
X106036227Y-68397126D01*
X106060949Y-68456809D01*
X105855410Y-68371672D01*
X105560396Y-68312991D01*
X105406108Y-68312991D01*
X103797071Y-66703955D01*
X116804136Y-53696890D01*
X117938524Y-53696890D01*
X117983175Y-53844099D01*
X118108359Y-54106920D01*
X118282412Y-54340269D01*
X118498645Y-54535178D01*
X118748748Y-54684157D01*
X119023109Y-54781481D01*
X119253000Y-54660814D01*
X119253000Y-53467000D01*
X119507000Y-53467000D01*
X119507000Y-54660814D01*
X119736891Y-54781481D01*
X120011252Y-54684157D01*
X120261355Y-54535178D01*
X120477588Y-54340269D01*
X120651641Y-54106920D01*
X120776825Y-53844099D01*
X120821476Y-53696890D01*
X120700155Y-53467000D01*
X119507000Y-53467000D01*
X119253000Y-53467000D01*
X118059845Y-53467000D01*
X117938524Y-53696890D01*
X116804136Y-53696890D01*
X118435488Y-52065539D01*
X118527986Y-52127344D01*
X118498645Y-52144822D01*
X118282412Y-52339731D01*
X118108359Y-52573080D01*
X117983175Y-52835901D01*
X117938524Y-52983110D01*
X118059845Y-53213000D01*
X119253000Y-53213000D01*
X119253000Y-53193000D01*
X119507000Y-53193000D01*
X119507000Y-53213000D01*
X120700155Y-53213000D01*
X120821476Y-52983110D01*
X120776825Y-52835901D01*
X120651641Y-52573080D01*
X120477588Y-52339731D01*
X120261355Y-52144822D01*
X120232014Y-52127344D01*
X120385279Y-52024936D01*
X120604936Y-51805279D01*
X120777519Y-51546989D01*
X120896396Y-51259994D01*
X120957000Y-50955321D01*
X120957000Y-50644679D01*
X120896396Y-50340006D01*
X120777519Y-50053011D01*
X120604936Y-49794721D01*
X120385279Y-49575064D01*
X120317836Y-49530000D01*
X120385279Y-49484936D01*
X120604936Y-49265279D01*
X120777519Y-49006989D01*
X120896396Y-48719994D01*
X120957000Y-48415321D01*
X120957000Y-48104679D01*
X120896396Y-47800006D01*
X120777519Y-47513011D01*
X120604936Y-47254721D01*
X120565319Y-47215104D01*
X120635853Y-47177403D01*
X120746554Y-47086554D01*
X120837403Y-46975853D01*
X120904910Y-46849557D01*
X120946480Y-46712517D01*
X120960517Y-46570000D01*
X120960517Y-44870000D01*
X120946480Y-44727483D01*
X120904910Y-44590443D01*
X120837403Y-44464147D01*
X120746554Y-44353446D01*
X120635853Y-44262597D01*
X120509557Y-44195090D01*
X120372517Y-44153520D01*
X120230000Y-44139483D01*
X118530000Y-44139483D01*
X118387483Y-44153520D01*
X118250443Y-44195090D01*
X118124147Y-44262597D01*
X118013446Y-44353446D01*
X117922597Y-44464147D01*
X117855090Y-44590443D01*
X117813520Y-44727483D01*
X117811992Y-44743000D01*
X116752505Y-44743000D01*
X116543406Y-44533901D01*
X116293306Y-44366790D01*
X116015410Y-44251681D01*
X115720396Y-44193000D01*
X115419604Y-44193000D01*
X115124590Y-44251681D01*
X114846694Y-44366790D01*
X114596594Y-44533901D01*
X114383901Y-44746594D01*
X114216790Y-44996694D01*
X114101681Y-45274590D01*
X114043000Y-45569604D01*
X114043000Y-45870396D01*
X114101681Y-46165410D01*
X114216790Y-46443306D01*
X114383901Y-46693406D01*
X114596594Y-46906099D01*
X114722161Y-46990000D01*
X114596594Y-47073901D01*
X114383901Y-47286594D01*
X114216790Y-47536694D01*
X114101681Y-47814590D01*
X114043000Y-48109604D01*
X114043000Y-48410396D01*
X114101681Y-48705410D01*
X114216790Y-48983306D01*
X114383901Y-49233406D01*
X114596594Y-49446099D01*
X114846694Y-49613210D01*
X115124590Y-49728319D01*
X115419604Y-49787000D01*
X115720396Y-49787000D01*
X116015410Y-49728319D01*
X116293306Y-49613210D01*
X116543406Y-49446099D01*
X116752505Y-49237000D01*
X118136169Y-49237000D01*
X118155064Y-49265279D01*
X118374721Y-49484936D01*
X118442164Y-49530000D01*
X118374721Y-49575064D01*
X118227147Y-49722638D01*
X118177918Y-49717789D01*
X118125011Y-49723000D01*
X118125010Y-49723000D01*
X117966790Y-49738583D01*
X117763775Y-49800167D01*
X117576675Y-49900174D01*
X117412680Y-50034761D01*
X117378951Y-50075860D01*
X101856812Y-65598000D01*
X84507907Y-65598000D01*
X84455000Y-65592789D01*
X84402093Y-65598000D01*
X84402091Y-65598000D01*
X84243871Y-65613583D01*
X84040856Y-65675167D01*
X83853756Y-65775174D01*
X83689761Y-65909761D01*
X83656033Y-65950859D01*
X81825861Y-67781031D01*
X81784762Y-67814760D01*
X81751034Y-67855858D01*
X81650175Y-67978755D01*
X81550168Y-68165855D01*
X81488584Y-68368870D01*
X81467789Y-68579999D01*
X81473001Y-68632915D01*
X81473001Y-69408000D01*
X74107505Y-69408000D01*
X73998406Y-69298901D01*
X73748306Y-69131790D01*
X73470410Y-69016681D01*
X73175396Y-68958000D01*
X72874604Y-68958000D01*
X72579590Y-69016681D01*
X72301694Y-69131790D01*
X72051594Y-69298901D01*
X71838901Y-69511594D01*
X71671790Y-69761694D01*
X71556681Y-70039590D01*
X71498000Y-70334604D01*
X71498000Y-70363347D01*
X71495044Y-70355186D01*
X71205429Y-70214296D01*
X70893892Y-70132616D01*
X70572405Y-70113282D01*
X70253325Y-70157039D01*
X69948912Y-70262205D01*
X69774956Y-70355186D01*
X69679192Y-70619587D01*
X70635000Y-71575395D01*
X70649143Y-71561253D01*
X70828748Y-71740858D01*
X70814605Y-71755000D01*
X71770413Y-72710808D01*
X72034814Y-72615044D01*
X72175704Y-72325429D01*
X72257384Y-72013892D01*
X72269253Y-71816534D01*
X72301694Y-71838210D01*
X72579590Y-71953319D01*
X72874604Y-72012000D01*
X73175396Y-72012000D01*
X73470410Y-71953319D01*
X73748306Y-71838210D01*
X73998406Y-71671099D01*
X74107505Y-71562000D01*
X81473001Y-71562000D01*
X81473000Y-79646905D01*
X81285838Y-79834067D01*
X81244739Y-79867796D01*
X81110152Y-80031791D01*
X81010145Y-80218891D01*
X80948560Y-80421906D01*
X80934535Y-80564308D01*
X80927766Y-80633035D01*
X80932977Y-80685942D01*
X80932977Y-80838000D01*
X79076020Y-80838000D01*
X79044910Y-80735443D01*
X78977403Y-80609147D01*
X78886554Y-80498446D01*
X78775853Y-80407597D01*
X78649557Y-80340090D01*
X78512517Y-80298520D01*
X78370000Y-80284483D01*
X76570000Y-80284483D01*
X76427483Y-80298520D01*
X76290443Y-80340090D01*
X76164147Y-80407597D01*
X76053446Y-80498446D01*
X75962597Y-80609147D01*
X75895090Y-80735443D01*
X75853520Y-80872483D01*
X75839483Y-81015000D01*
X75839483Y-82815000D01*
X75853520Y-82957517D01*
X75895090Y-83094557D01*
X75962597Y-83220853D01*
X76053446Y-83331554D01*
X76164147Y-83422403D01*
X76290443Y-83489910D01*
X76427483Y-83531480D01*
X76570000Y-83545517D01*
X78370000Y-83545517D01*
X78512517Y-83531480D01*
X78649557Y-83489910D01*
X78775853Y-83422403D01*
X78886554Y-83331554D01*
X78977403Y-83220853D01*
X79044910Y-83094557D01*
X79076020Y-82992000D01*
X80932978Y-82992000D01*
X80932977Y-86453915D01*
X78936557Y-88450336D01*
X78823210Y-88176694D01*
X78656099Y-87926594D01*
X78443406Y-87713901D01*
X78317839Y-87630000D01*
X78443406Y-87546099D01*
X78656099Y-87333406D01*
X78823210Y-87083306D01*
X78938319Y-86805410D01*
X78997000Y-86510396D01*
X78997000Y-86209604D01*
X78938319Y-85914590D01*
X78823210Y-85636694D01*
X78656099Y-85386594D01*
X78443406Y-85173901D01*
X78193306Y-85006790D01*
X77915410Y-84891681D01*
X77620396Y-84833000D01*
X77319604Y-84833000D01*
X77024590Y-84891681D01*
X76746694Y-85006790D01*
X76496594Y-85173901D01*
X76283901Y-85386594D01*
X76116790Y-85636694D01*
X76001681Y-85914590D01*
X75943000Y-86209604D01*
X75943000Y-86510396D01*
X76001681Y-86805410D01*
X76116790Y-87083306D01*
X76283901Y-87333406D01*
X76496594Y-87546099D01*
X76622161Y-87630000D01*
X76496594Y-87713901D01*
X76283901Y-87926594D01*
X76116790Y-88176694D01*
X76001681Y-88454590D01*
X75943000Y-88749604D01*
X75943000Y-88847311D01*
X74963097Y-89827215D01*
X74925813Y-89857813D01*
X74803723Y-90006581D01*
X74760851Y-90086790D01*
X74713002Y-90176309D01*
X74657136Y-90360474D01*
X74638272Y-90551999D01*
X74642999Y-90599992D01*
X74643000Y-99899998D01*
X74638272Y-99948001D01*
X74657136Y-100139526D01*
X74713002Y-100323691D01*
X74803724Y-100493419D01*
X74832366Y-100528319D01*
X74925814Y-100642187D01*
X74963092Y-100672780D01*
X80357219Y-106066907D01*
X80387812Y-106104186D01*
X80536580Y-106226276D01*
X80586585Y-106253004D01*
X80706307Y-106316997D01*
X80890472Y-106372863D01*
X81081997Y-106391727D01*
X81129990Y-106387000D01*
X85177495Y-106387000D01*
X85386594Y-106596099D01*
X85636694Y-106763210D01*
X85914590Y-106878319D01*
X86209604Y-106937000D01*
X86510396Y-106937000D01*
X86805410Y-106878319D01*
X87083306Y-106763210D01*
X87333406Y-106596099D01*
X87546099Y-106383406D01*
X87713210Y-106133306D01*
X87742939Y-106061533D01*
X87742939Y-108991946D01*
X87738212Y-109039939D01*
X87757076Y-109231464D01*
X87798127Y-109366792D01*
X87812942Y-109415629D01*
X87903663Y-109585357D01*
X88025753Y-109734125D01*
X88063037Y-109764723D01*
X93208313Y-114910000D01*
X51460000Y-114910000D01*
X51460000Y-110757923D01*
X80728000Y-110757923D01*
X80728000Y-111492077D01*
X80871227Y-112212126D01*
X81152176Y-112890396D01*
X81560050Y-113500824D01*
X82079176Y-114019950D01*
X82689604Y-114427824D01*
X83367874Y-114708773D01*
X84087923Y-114852000D01*
X84822077Y-114852000D01*
X85542126Y-114708773D01*
X86220396Y-114427824D01*
X86830824Y-114019950D01*
X87349950Y-113500824D01*
X87757824Y-112890396D01*
X88038773Y-112212126D01*
X88182000Y-111492077D01*
X88182000Y-110757923D01*
X88038773Y-110037874D01*
X87757824Y-109359604D01*
X87349950Y-108749176D01*
X86830824Y-108230050D01*
X86220396Y-107822176D01*
X85542126Y-107541227D01*
X84822077Y-107398000D01*
X84087923Y-107398000D01*
X83367874Y-107541227D01*
X82689604Y-107822176D01*
X82079176Y-108230050D01*
X81560050Y-108749176D01*
X81152176Y-109359604D01*
X80871227Y-110037874D01*
X80728000Y-110757923D01*
X51460000Y-110757923D01*
X51460000Y-80939999D01*
X52336272Y-80939999D01*
X52340999Y-80987992D01*
X52341000Y-89337996D01*
X52336272Y-89385999D01*
X52355136Y-89577524D01*
X52411002Y-89761689D01*
X52465081Y-89862863D01*
X52501724Y-89931417D01*
X52623814Y-90080185D01*
X52661092Y-90110778D01*
X53377220Y-90826907D01*
X53407814Y-90864186D01*
X53556582Y-90986276D01*
X53726309Y-91076997D01*
X53753417Y-91085220D01*
X53853092Y-91115456D01*
X53893064Y-91175279D01*
X54112721Y-91394936D01*
X54265986Y-91497344D01*
X54236645Y-91514822D01*
X54020412Y-91709731D01*
X53846359Y-91943080D01*
X53721175Y-92205901D01*
X53676524Y-92353110D01*
X53797845Y-92583000D01*
X54991000Y-92583000D01*
X54991000Y-92563000D01*
X55245000Y-92563000D01*
X55245000Y-92583000D01*
X56438155Y-92583000D01*
X56559476Y-92353110D01*
X56514825Y-92205901D01*
X56389641Y-91943080D01*
X56215588Y-91709731D01*
X55999355Y-91514822D01*
X55970014Y-91497344D01*
X56123279Y-91394936D01*
X56342936Y-91175279D01*
X56361831Y-91147000D01*
X58446169Y-91147000D01*
X58465064Y-91175279D01*
X58684721Y-91394936D01*
X58837986Y-91497344D01*
X58808645Y-91514822D01*
X58592412Y-91709731D01*
X58418359Y-91943080D01*
X58293175Y-92205901D01*
X58248524Y-92353110D01*
X58369845Y-92583000D01*
X59563000Y-92583000D01*
X59563000Y-92563000D01*
X59817000Y-92563000D01*
X59817000Y-92583000D01*
X61010155Y-92583000D01*
X61131476Y-92353110D01*
X61086825Y-92205901D01*
X60961641Y-91943080D01*
X60787588Y-91709731D01*
X60571355Y-91514822D01*
X60542014Y-91497344D01*
X60695279Y-91394936D01*
X60914936Y-91175279D01*
X61087519Y-90916989D01*
X61206396Y-90629994D01*
X61267000Y-90325321D01*
X61267000Y-90014679D01*
X61206396Y-89710006D01*
X61087519Y-89423011D01*
X60914936Y-89164721D01*
X60695279Y-88945064D01*
X60542014Y-88842656D01*
X60571355Y-88825178D01*
X60787588Y-88630269D01*
X60961641Y-88396920D01*
X61086825Y-88134099D01*
X61131476Y-87986890D01*
X61049088Y-87830775D01*
X61973000Y-88754687D01*
X61973000Y-89050396D01*
X62031681Y-89345410D01*
X62146790Y-89623306D01*
X62313901Y-89873406D01*
X62526594Y-90086099D01*
X62776694Y-90253210D01*
X63054590Y-90368319D01*
X63349604Y-90427000D01*
X63650396Y-90427000D01*
X63945410Y-90368319D01*
X64223306Y-90253210D01*
X64473406Y-90086099D01*
X64686099Y-89873406D01*
X64853210Y-89623306D01*
X64968319Y-89345410D01*
X65011357Y-89129042D01*
X65439223Y-89556908D01*
X65469816Y-89594186D01*
X65618584Y-89716276D01*
X65788311Y-89806997D01*
X65972477Y-89862863D01*
X66116009Y-89877000D01*
X66116011Y-89877000D01*
X66128750Y-89878255D01*
X66336594Y-90086099D01*
X66462161Y-90170000D01*
X66336594Y-90253901D01*
X66127495Y-90463000D01*
X63547993Y-90463000D01*
X63500000Y-90458273D01*
X63452007Y-90463000D01*
X63308475Y-90477137D01*
X63124309Y-90533003D01*
X62954582Y-90623724D01*
X62805814Y-90745814D01*
X62683724Y-90894582D01*
X62593003Y-91064309D01*
X62537137Y-91248475D01*
X62518273Y-91440000D01*
X62523000Y-91487993D01*
X62523001Y-96115312D01*
X61825314Y-96813000D01*
X60933831Y-96813000D01*
X60914936Y-96784721D01*
X60695279Y-96565064D01*
X60627836Y-96520000D01*
X60695279Y-96474936D01*
X60914936Y-96255279D01*
X61087519Y-95996989D01*
X61206396Y-95709994D01*
X61267000Y-95405321D01*
X61267000Y-95094679D01*
X61206396Y-94790006D01*
X61087519Y-94503011D01*
X60914936Y-94244721D01*
X60695279Y-94025064D01*
X60542014Y-93922656D01*
X60571355Y-93905178D01*
X60787588Y-93710269D01*
X60961641Y-93476920D01*
X61086825Y-93214099D01*
X61131476Y-93066890D01*
X61010155Y-92837000D01*
X59817000Y-92837000D01*
X59817000Y-92857000D01*
X59563000Y-92857000D01*
X59563000Y-92837000D01*
X58369845Y-92837000D01*
X58248524Y-93066890D01*
X58293175Y-93214099D01*
X58418359Y-93476920D01*
X58592412Y-93710269D01*
X58808645Y-93905178D01*
X58837986Y-93922656D01*
X58684721Y-94025064D01*
X58465064Y-94244721D01*
X58446169Y-94273000D01*
X56361831Y-94273000D01*
X56342936Y-94244721D01*
X56123279Y-94025064D01*
X55970014Y-93922656D01*
X55999355Y-93905178D01*
X56215588Y-93710269D01*
X56389641Y-93476920D01*
X56514825Y-93214099D01*
X56559476Y-93066890D01*
X56438155Y-92837000D01*
X55245000Y-92837000D01*
X55245000Y-92857000D01*
X54991000Y-92857000D01*
X54991000Y-92837000D01*
X53797845Y-92837000D01*
X53676524Y-93066890D01*
X53721175Y-93214099D01*
X53846359Y-93476920D01*
X54020412Y-93710269D01*
X54236645Y-93905178D01*
X54265986Y-93922656D01*
X54112721Y-94025064D01*
X53893064Y-94244721D01*
X53874608Y-94272342D01*
X53724393Y-94287137D01*
X53632311Y-94315070D01*
X53540228Y-94343003D01*
X53370501Y-94433724D01*
X53221733Y-94555814D01*
X53191131Y-94593103D01*
X52661093Y-95123140D01*
X52623814Y-95153734D01*
X52593221Y-95191012D01*
X52593220Y-95191013D01*
X52501724Y-95302502D01*
X52411002Y-95472230D01*
X52355136Y-95656395D01*
X52336272Y-95847920D01*
X52341000Y-95895923D01*
X52340999Y-101146008D01*
X52336272Y-101194001D01*
X52355136Y-101385526D01*
X52368178Y-101428519D01*
X52411002Y-101569691D01*
X52501723Y-101739419D01*
X52623813Y-101888187D01*
X52661097Y-101918785D01*
X53529219Y-102786908D01*
X53559813Y-102824187D01*
X53708581Y-102946277D01*
X53803477Y-102997000D01*
X53878308Y-103036998D01*
X54062473Y-103092864D01*
X54253999Y-103111728D01*
X54301992Y-103107001D01*
X66782008Y-103107001D01*
X66830001Y-103111728D01*
X67021526Y-103092864D01*
X67024107Y-103092081D01*
X67205692Y-103036998D01*
X67375419Y-102946277D01*
X67524187Y-102824187D01*
X67554785Y-102786903D01*
X69716908Y-100624781D01*
X69754187Y-100594187D01*
X69876277Y-100445419D01*
X69966998Y-100275692D01*
X70022864Y-100091526D01*
X70037001Y-99947994D01*
X70037001Y-99947992D01*
X70041728Y-99900002D01*
X70037001Y-99852011D01*
X70037001Y-86657994D01*
X70041728Y-86610001D01*
X70022864Y-86418475D01*
X69991684Y-86315689D01*
X69966998Y-86234310D01*
X69876277Y-86064583D01*
X69754187Y-85915815D01*
X69716903Y-85885217D01*
X69534784Y-85703098D01*
X69504186Y-85665814D01*
X69355418Y-85543724D01*
X69185691Y-85453003D01*
X69001525Y-85397137D01*
X68857993Y-85383000D01*
X68814727Y-85378739D01*
X68784910Y-85280443D01*
X68717403Y-85154147D01*
X68626554Y-85043446D01*
X68515853Y-84952597D01*
X68389557Y-84885090D01*
X68252517Y-84843520D01*
X68110000Y-84829483D01*
X66510000Y-84829483D01*
X66367483Y-84843520D01*
X66230443Y-84885090D01*
X66104147Y-84952597D01*
X65993446Y-85043446D01*
X65902597Y-85154147D01*
X65835090Y-85280443D01*
X65793520Y-85417483D01*
X65779483Y-85560000D01*
X65779483Y-87133794D01*
X64551229Y-85905541D01*
X64609848Y-85893881D01*
X64887744Y-85778772D01*
X65137844Y-85611661D01*
X65350537Y-85398968D01*
X65517648Y-85148868D01*
X65632757Y-84870972D01*
X65691438Y-84575958D01*
X65691438Y-84275166D01*
X65632757Y-83980152D01*
X65517648Y-83702256D01*
X65350537Y-83452156D01*
X65141438Y-83243057D01*
X65141438Y-82892000D01*
X66006035Y-82892000D01*
X66046227Y-82952152D01*
X66272848Y-83178773D01*
X66539327Y-83356828D01*
X66835422Y-83479475D01*
X67149755Y-83542000D01*
X67470245Y-83542000D01*
X67784578Y-83479475D01*
X68080673Y-83356828D01*
X68347152Y-83178773D01*
X68573773Y-82952152D01*
X68751828Y-82685673D01*
X68874475Y-82389578D01*
X68937000Y-82075245D01*
X68937000Y-81754755D01*
X68874475Y-81440422D01*
X68751828Y-81144327D01*
X68573773Y-80877848D01*
X68347152Y-80651227D01*
X68080673Y-80473172D01*
X67784578Y-80350525D01*
X67470245Y-80288000D01*
X67149755Y-80288000D01*
X66835422Y-80350525D01*
X66539327Y-80473172D01*
X66272848Y-80651227D01*
X66046227Y-80877848D01*
X66006035Y-80938000D01*
X64182993Y-80938000D01*
X64135000Y-80933273D01*
X64087007Y-80938000D01*
X62634687Y-80938000D01*
X61049784Y-79353098D01*
X61019186Y-79315814D01*
X60870418Y-79193724D01*
X60700691Y-79103003D01*
X60516525Y-79047137D01*
X60372993Y-79033000D01*
X60325000Y-79028273D01*
X60277007Y-79033000D01*
X54295988Y-79033000D01*
X54247997Y-79028273D01*
X54200007Y-79033000D01*
X54200005Y-79033000D01*
X54056473Y-79047137D01*
X53872307Y-79103003D01*
X53702580Y-79193724D01*
X53553812Y-79315814D01*
X53523218Y-79353093D01*
X52661097Y-80215215D01*
X52623813Y-80245813D01*
X52501723Y-80394581D01*
X52437840Y-80514099D01*
X52411002Y-80564309D01*
X52355136Y-80748474D01*
X52336272Y-80939999D01*
X51460000Y-80939999D01*
X51460000Y-66942923D01*
X55563000Y-66942923D01*
X55563000Y-67677077D01*
X55706227Y-68397126D01*
X55987176Y-69075396D01*
X56395050Y-69685824D01*
X56914176Y-70204950D01*
X57524604Y-70612824D01*
X58202874Y-70893773D01*
X58922923Y-71037000D01*
X59657077Y-71037000D01*
X59879573Y-70992743D01*
X59668093Y-71204223D01*
X59630815Y-71234816D01*
X59600222Y-71272094D01*
X59600221Y-71272095D01*
X59508725Y-71383584D01*
X59418003Y-71553312D01*
X59362137Y-71737477D01*
X59343273Y-71929002D01*
X59348001Y-71977005D01*
X59348000Y-75017495D01*
X59138901Y-75226594D01*
X58971790Y-75476694D01*
X58856681Y-75754590D01*
X58798000Y-76049604D01*
X58798000Y-76350396D01*
X58856681Y-76645410D01*
X58971790Y-76923306D01*
X59138901Y-77173406D01*
X59351594Y-77386099D01*
X59601694Y-77553210D01*
X59879590Y-77668319D01*
X60174604Y-77727000D01*
X60475396Y-77727000D01*
X60770410Y-77668319D01*
X61048306Y-77553210D01*
X61298406Y-77386099D01*
X61507505Y-77177000D01*
X62674016Y-77177000D01*
X62793552Y-77355898D01*
X63034102Y-77596448D01*
X63316959Y-77785447D01*
X63631253Y-77915632D01*
X63964905Y-77982000D01*
X64305095Y-77982000D01*
X64638747Y-77915632D01*
X64953041Y-77785447D01*
X65235898Y-77596448D01*
X65476448Y-77355898D01*
X65559234Y-77232000D01*
X69210766Y-77232000D01*
X69293552Y-77355898D01*
X69534102Y-77596448D01*
X69816959Y-77785447D01*
X70131253Y-77915632D01*
X70464905Y-77982000D01*
X70805095Y-77982000D01*
X71138747Y-77915632D01*
X71453041Y-77785447D01*
X71735898Y-77596448D01*
X71976448Y-77355898D01*
X72165447Y-77073041D01*
X72295632Y-76758747D01*
X72362000Y-76425095D01*
X72362000Y-76084905D01*
X72295632Y-75751253D01*
X72165447Y-75436959D01*
X71976448Y-75154102D01*
X71735898Y-74913552D01*
X71453041Y-74724553D01*
X71138747Y-74594368D01*
X70805095Y-74528000D01*
X70464905Y-74528000D01*
X70131253Y-74594368D01*
X69816959Y-74724553D01*
X69534102Y-74913552D01*
X69293552Y-75154102D01*
X69210766Y-75278000D01*
X65559234Y-75278000D01*
X65476448Y-75154102D01*
X65235898Y-74913552D01*
X64953041Y-74724553D01*
X64638747Y-74594368D01*
X64305095Y-74528000D01*
X63964905Y-74528000D01*
X63631253Y-74594368D01*
X63316959Y-74724553D01*
X63034102Y-74913552D01*
X62793552Y-75154102D01*
X62747516Y-75223000D01*
X61507505Y-75223000D01*
X61302000Y-75017495D01*
X61302000Y-72890413D01*
X63179192Y-72890413D01*
X63274956Y-73154814D01*
X63564571Y-73295704D01*
X63876108Y-73377384D01*
X64197595Y-73396718D01*
X64516675Y-73352961D01*
X64821088Y-73247795D01*
X64995044Y-73154814D01*
X65090808Y-72890413D01*
X69679192Y-72890413D01*
X69774956Y-73154814D01*
X70064571Y-73295704D01*
X70376108Y-73377384D01*
X70697595Y-73396718D01*
X71016675Y-73352961D01*
X71321088Y-73247795D01*
X71495044Y-73154814D01*
X71590808Y-72890413D01*
X70635000Y-71934605D01*
X69679192Y-72890413D01*
X65090808Y-72890413D01*
X64135000Y-71934605D01*
X63179192Y-72890413D01*
X61302000Y-72890413D01*
X61302000Y-72333688D01*
X62729932Y-70905756D01*
X62594296Y-71184571D01*
X62512616Y-71496108D01*
X62493282Y-71817595D01*
X62537039Y-72136675D01*
X62642205Y-72441088D01*
X62735186Y-72615044D01*
X62999587Y-72710808D01*
X63955395Y-71755000D01*
X64314605Y-71755000D01*
X65270413Y-72710808D01*
X65534814Y-72615044D01*
X65675704Y-72325429D01*
X65757384Y-72013892D01*
X65769189Y-71817595D01*
X68993282Y-71817595D01*
X69037039Y-72136675D01*
X69142205Y-72441088D01*
X69235186Y-72615044D01*
X69499587Y-72710808D01*
X70455395Y-71755000D01*
X69499587Y-70799192D01*
X69235186Y-70894956D01*
X69094296Y-71184571D01*
X69012616Y-71496108D01*
X68993282Y-71817595D01*
X65769189Y-71817595D01*
X65776718Y-71692405D01*
X65732961Y-71373325D01*
X65627795Y-71068912D01*
X65534814Y-70894956D01*
X65270413Y-70799192D01*
X64314605Y-71755000D01*
X63955395Y-71755000D01*
X63941253Y-71740858D01*
X64120858Y-71561253D01*
X64135000Y-71575395D01*
X65090808Y-70619587D01*
X64995044Y-70355186D01*
X64705429Y-70214296D01*
X64393892Y-70132616D01*
X64072405Y-70113282D01*
X63753325Y-70157039D01*
X63448912Y-70262205D01*
X63286870Y-70348818D01*
X64791902Y-68843786D01*
X64829186Y-68813188D01*
X64951276Y-68664420D01*
X65041997Y-68494693D01*
X65090888Y-68333520D01*
X65097863Y-68310528D01*
X65116727Y-68119002D01*
X65112000Y-68071009D01*
X65112000Y-64344234D01*
X65235898Y-64261448D01*
X65476448Y-64020898D01*
X65559234Y-63897000D01*
X69210766Y-63897000D01*
X69293552Y-64020898D01*
X69534102Y-64261448D01*
X69816959Y-64450447D01*
X70131253Y-64580632D01*
X70464905Y-64647000D01*
X70805095Y-64647000D01*
X71138747Y-64580632D01*
X71453041Y-64450447D01*
X71735898Y-64261448D01*
X71976448Y-64020898D01*
X71994450Y-63993955D01*
X72051594Y-64051099D01*
X72301694Y-64218210D01*
X72579590Y-64333319D01*
X72874604Y-64392000D01*
X73175396Y-64392000D01*
X73470410Y-64333319D01*
X73748306Y-64218210D01*
X73998406Y-64051099D01*
X74211099Y-63838406D01*
X74378210Y-63588306D01*
X74493319Y-63310410D01*
X74552000Y-63015396D01*
X74552000Y-62714604D01*
X74493319Y-62419590D01*
X74378210Y-62141694D01*
X74211099Y-61891594D01*
X73998406Y-61678901D01*
X73748306Y-61511790D01*
X73470410Y-61396681D01*
X73175396Y-61338000D01*
X72874604Y-61338000D01*
X72579590Y-61396681D01*
X72301694Y-61511790D01*
X72051594Y-61678901D01*
X71943921Y-61786575D01*
X71735898Y-61578552D01*
X71453041Y-61389553D01*
X71138747Y-61259368D01*
X70805095Y-61193000D01*
X70464905Y-61193000D01*
X70131253Y-61259368D01*
X69816959Y-61389553D01*
X69534102Y-61578552D01*
X69293552Y-61819102D01*
X69210766Y-61943000D01*
X65559234Y-61943000D01*
X65476448Y-61819102D01*
X65235898Y-61578552D01*
X64953041Y-61389553D01*
X64638747Y-61259368D01*
X64305095Y-61193000D01*
X63964905Y-61193000D01*
X63818757Y-61222071D01*
X59397000Y-56800314D01*
X59397000Y-54764234D01*
X59520898Y-54681448D01*
X59761448Y-54440898D01*
X59844234Y-54317000D01*
X63495766Y-54317000D01*
X63578552Y-54440898D01*
X63590415Y-54452761D01*
X63411694Y-54526790D01*
X63161594Y-54693901D01*
X62948901Y-54906594D01*
X62781790Y-55156694D01*
X62666681Y-55434590D01*
X62608000Y-55729604D01*
X62608000Y-56030396D01*
X62666681Y-56325410D01*
X62781790Y-56603306D01*
X62948901Y-56853406D01*
X63117993Y-57022498D01*
X63034102Y-57078552D01*
X62793552Y-57319102D01*
X62604553Y-57601959D01*
X62474368Y-57916253D01*
X62408000Y-58249905D01*
X62408000Y-58590095D01*
X62474368Y-58923747D01*
X62604553Y-59238041D01*
X62793552Y-59520898D01*
X63034102Y-59761448D01*
X63316959Y-59950447D01*
X63631253Y-60080632D01*
X63964905Y-60147000D01*
X64305095Y-60147000D01*
X64638747Y-60080632D01*
X64953041Y-59950447D01*
X65235898Y-59761448D01*
X65476448Y-59520898D01*
X65559234Y-59397000D01*
X69210766Y-59397000D01*
X69293552Y-59520898D01*
X69534102Y-59761448D01*
X69816959Y-59950447D01*
X70131253Y-60080632D01*
X70464905Y-60147000D01*
X70805095Y-60147000D01*
X71138747Y-60080632D01*
X71453041Y-59950447D01*
X71735898Y-59761448D01*
X71976448Y-59520898D01*
X72165447Y-59238041D01*
X72295632Y-58923747D01*
X72362000Y-58590095D01*
X72362000Y-58249905D01*
X72295632Y-57916253D01*
X72165447Y-57601959D01*
X71976448Y-57319102D01*
X71735898Y-57078552D01*
X71453041Y-56889553D01*
X71391448Y-56864040D01*
X77348091Y-56864040D01*
X77442930Y-57128881D01*
X77587615Y-57370131D01*
X77776586Y-57578519D01*
X78002580Y-57746037D01*
X78256913Y-57866246D01*
X78390961Y-57906904D01*
X78613000Y-57784915D01*
X78613000Y-56642000D01*
X78867000Y-56642000D01*
X78867000Y-57784915D01*
X79089039Y-57906904D01*
X79223087Y-57866246D01*
X79477420Y-57746037D01*
X79703414Y-57578519D01*
X79892385Y-57370131D01*
X80037070Y-57128881D01*
X80131909Y-56864040D01*
X80010624Y-56642000D01*
X78867000Y-56642000D01*
X78613000Y-56642000D01*
X77469376Y-56642000D01*
X77348091Y-56864040D01*
X71391448Y-56864040D01*
X71138747Y-56759368D01*
X70805095Y-56693000D01*
X70464905Y-56693000D01*
X70131253Y-56759368D01*
X69816959Y-56889553D01*
X69534102Y-57078552D01*
X69293552Y-57319102D01*
X69210766Y-57443000D01*
X65559234Y-57443000D01*
X65476448Y-57319102D01*
X65235898Y-57078552D01*
X65152007Y-57022498D01*
X65321099Y-56853406D01*
X65488210Y-56603306D01*
X65603319Y-56325410D01*
X65635035Y-56165960D01*
X77348091Y-56165960D01*
X77469376Y-56388000D01*
X78613000Y-56388000D01*
X78613000Y-55245085D01*
X78867000Y-55245085D01*
X78867000Y-56388000D01*
X80010624Y-56388000D01*
X80131909Y-56165960D01*
X80037070Y-55901119D01*
X79892385Y-55659869D01*
X79703414Y-55451481D01*
X79477420Y-55283963D01*
X79223087Y-55163754D01*
X79089039Y-55123096D01*
X78867000Y-55245085D01*
X78613000Y-55245085D01*
X78390961Y-55123096D01*
X78256913Y-55163754D01*
X78002580Y-55283963D01*
X77776586Y-55451481D01*
X77587615Y-55659869D01*
X77442930Y-55901119D01*
X77348091Y-56165960D01*
X65635035Y-56165960D01*
X65662000Y-56030396D01*
X65662000Y-55729604D01*
X65603319Y-55434590D01*
X65488210Y-55156694D01*
X65388604Y-55007622D01*
X65423747Y-55000632D01*
X65738041Y-54870447D01*
X66020898Y-54681448D01*
X66261448Y-54440898D01*
X66344234Y-54317000D01*
X67262007Y-54317000D01*
X67310000Y-54321727D01*
X67357993Y-54317000D01*
X68425766Y-54317000D01*
X68508552Y-54440898D01*
X68749102Y-54681448D01*
X69031959Y-54870447D01*
X69346253Y-55000632D01*
X69679905Y-55067000D01*
X70020095Y-55067000D01*
X70353747Y-55000632D01*
X70668041Y-54870447D01*
X70950898Y-54681448D01*
X71191448Y-54440898D01*
X71274234Y-54317000D01*
X74925766Y-54317000D01*
X75008552Y-54440898D01*
X75249102Y-54681448D01*
X75531959Y-54870447D01*
X75846253Y-55000632D01*
X76179905Y-55067000D01*
X76520095Y-55067000D01*
X76853747Y-55000632D01*
X77168041Y-54870447D01*
X77450898Y-54681448D01*
X77691448Y-54440898D01*
X77880447Y-54158041D01*
X78010632Y-53843747D01*
X78077000Y-53510095D01*
X78077000Y-53169905D01*
X78010632Y-52836253D01*
X77880447Y-52521959D01*
X77691448Y-52239102D01*
X77450898Y-51998552D01*
X77168041Y-51809553D01*
X76853747Y-51679368D01*
X76520095Y-51613000D01*
X76179905Y-51613000D01*
X75846253Y-51679368D01*
X75531959Y-51809553D01*
X75249102Y-51998552D01*
X75008552Y-52239102D01*
X74925766Y-52363000D01*
X71274234Y-52363000D01*
X71191448Y-52239102D01*
X70950898Y-51998552D01*
X70668041Y-51809553D01*
X70353747Y-51679368D01*
X70020095Y-51613000D01*
X69679905Y-51613000D01*
X69346253Y-51679368D01*
X69031959Y-51809553D01*
X68749102Y-51998552D01*
X68508552Y-52239102D01*
X68425766Y-52363000D01*
X68287000Y-52363000D01*
X68287000Y-49579451D01*
X68319553Y-49658041D01*
X68508552Y-49940898D01*
X68749102Y-50181448D01*
X69031959Y-50370447D01*
X69346253Y-50500632D01*
X69679905Y-50567000D01*
X70020095Y-50567000D01*
X70353747Y-50500632D01*
X70668041Y-50370447D01*
X70950898Y-50181448D01*
X71191448Y-49940898D01*
X71274234Y-49817000D01*
X74925766Y-49817000D01*
X75008552Y-49940898D01*
X75249102Y-50181448D01*
X75531959Y-50370447D01*
X75846253Y-50500632D01*
X76179905Y-50567000D01*
X76520095Y-50567000D01*
X76853747Y-50500632D01*
X77168041Y-50370447D01*
X77450898Y-50181448D01*
X77658921Y-49973426D01*
X77766594Y-50081099D01*
X78016694Y-50248210D01*
X78294590Y-50363319D01*
X78589604Y-50422000D01*
X78890396Y-50422000D01*
X79185410Y-50363319D01*
X79463306Y-50248210D01*
X79713406Y-50081099D01*
X79926099Y-49868406D01*
X80093210Y-49618306D01*
X80208319Y-49340410D01*
X80267000Y-49045396D01*
X80267000Y-48744604D01*
X80208319Y-48449590D01*
X80093210Y-48171694D01*
X79926099Y-47921594D01*
X79713406Y-47708901D01*
X79463306Y-47541790D01*
X79185410Y-47426681D01*
X78890396Y-47368000D01*
X78589604Y-47368000D01*
X78294590Y-47426681D01*
X78016694Y-47541790D01*
X77766594Y-47708901D01*
X77709450Y-47766045D01*
X77691448Y-47739102D01*
X77450898Y-47498552D01*
X77168041Y-47309553D01*
X76853747Y-47179368D01*
X76520095Y-47113000D01*
X76179905Y-47113000D01*
X75846253Y-47179368D01*
X75531959Y-47309553D01*
X75249102Y-47498552D01*
X75008552Y-47739102D01*
X74925766Y-47863000D01*
X71274234Y-47863000D01*
X71191448Y-47739102D01*
X70950898Y-47498552D01*
X70668041Y-47309553D01*
X70353747Y-47179368D01*
X70020095Y-47113000D01*
X69679905Y-47113000D01*
X69346253Y-47179368D01*
X69031959Y-47309553D01*
X68749102Y-47498552D01*
X68508552Y-47739102D01*
X68319553Y-48021959D01*
X68287000Y-48100549D01*
X68287000Y-44847000D01*
X69210766Y-44847000D01*
X69293552Y-44970898D01*
X69534102Y-45211448D01*
X69816959Y-45400447D01*
X70131253Y-45530632D01*
X70464905Y-45597000D01*
X70805095Y-45597000D01*
X71138747Y-45530632D01*
X71453041Y-45400447D01*
X71735898Y-45211448D01*
X71976448Y-44970898D01*
X72091279Y-44799040D01*
X77348091Y-44799040D01*
X77442930Y-45063881D01*
X77587615Y-45305131D01*
X77776586Y-45513519D01*
X78002580Y-45681037D01*
X78256913Y-45801246D01*
X78390961Y-45841904D01*
X78613000Y-45719915D01*
X78613000Y-44577000D01*
X78867000Y-44577000D01*
X78867000Y-45719915D01*
X79089039Y-45841904D01*
X79223087Y-45801246D01*
X79477420Y-45681037D01*
X79703414Y-45513519D01*
X79892385Y-45305131D01*
X80037070Y-45063881D01*
X80131909Y-44799040D01*
X80010624Y-44577000D01*
X78867000Y-44577000D01*
X78613000Y-44577000D01*
X77469376Y-44577000D01*
X77348091Y-44799040D01*
X72091279Y-44799040D01*
X72165447Y-44688041D01*
X72295632Y-44373747D01*
X72349893Y-44100960D01*
X77348091Y-44100960D01*
X77469376Y-44323000D01*
X78613000Y-44323000D01*
X78613000Y-43180085D01*
X78867000Y-43180085D01*
X78867000Y-44323000D01*
X80010624Y-44323000D01*
X80131909Y-44100960D01*
X80037070Y-43836119D01*
X79892385Y-43594869D01*
X79703414Y-43386481D01*
X79477420Y-43218963D01*
X79223087Y-43098754D01*
X79089039Y-43058096D01*
X78867000Y-43180085D01*
X78613000Y-43180085D01*
X78390961Y-43058096D01*
X78256913Y-43098754D01*
X78002580Y-43218963D01*
X77776586Y-43386481D01*
X77587615Y-43594869D01*
X77442930Y-43836119D01*
X77348091Y-44100960D01*
X72349893Y-44100960D01*
X72362000Y-44040095D01*
X72362000Y-43699905D01*
X72295632Y-43366253D01*
X72165447Y-43051959D01*
X71976448Y-42769102D01*
X71735898Y-42528552D01*
X71453041Y-42339553D01*
X71138747Y-42209368D01*
X70805095Y-42143000D01*
X70464905Y-42143000D01*
X70131253Y-42209368D01*
X69816959Y-42339553D01*
X69534102Y-42528552D01*
X69293552Y-42769102D01*
X69210766Y-42893000D01*
X67636233Y-42893000D01*
X67501525Y-42852137D01*
X67310000Y-42833273D01*
X67118476Y-42852137D01*
X66983768Y-42893000D01*
X65559234Y-42893000D01*
X65476448Y-42769102D01*
X65235898Y-42528552D01*
X64953041Y-42339553D01*
X64638747Y-42209368D01*
X64305095Y-42143000D01*
X63964905Y-42143000D01*
X63631253Y-42209368D01*
X63316959Y-42339553D01*
X63034102Y-42528552D01*
X62793552Y-42769102D01*
X62604553Y-43051959D01*
X62474368Y-43366253D01*
X62408000Y-43699905D01*
X62408000Y-44040095D01*
X62474368Y-44373747D01*
X62604553Y-44688041D01*
X62793552Y-44970898D01*
X63034102Y-45211448D01*
X63316959Y-45400447D01*
X63631253Y-45530632D01*
X63964905Y-45597000D01*
X64305095Y-45597000D01*
X64638747Y-45530632D01*
X64953041Y-45400447D01*
X65235898Y-45211448D01*
X65476448Y-44970898D01*
X65559234Y-44847000D01*
X66333001Y-44847000D01*
X66333001Y-47846188D01*
X66261448Y-47739102D01*
X66020898Y-47498552D01*
X65738041Y-47309553D01*
X65423747Y-47179368D01*
X65090095Y-47113000D01*
X64749905Y-47113000D01*
X64416253Y-47179368D01*
X64101959Y-47309553D01*
X63819102Y-47498552D01*
X63578552Y-47739102D01*
X63495766Y-47863000D01*
X59844234Y-47863000D01*
X59761448Y-47739102D01*
X59520898Y-47498552D01*
X59397000Y-47415766D01*
X59397000Y-46902505D01*
X59606099Y-46693406D01*
X59773210Y-46443306D01*
X59888319Y-46165410D01*
X59947000Y-45870396D01*
X59947000Y-45569604D01*
X59888319Y-45274590D01*
X59773210Y-44996694D01*
X59606099Y-44746594D01*
X59393406Y-44533901D01*
X59143306Y-44366790D01*
X58865410Y-44251681D01*
X58570396Y-44193000D01*
X58269604Y-44193000D01*
X57974590Y-44251681D01*
X57696694Y-44366790D01*
X57446594Y-44533901D01*
X57233901Y-44746594D01*
X57066790Y-44996694D01*
X56951681Y-45274590D01*
X56893000Y-45569604D01*
X56893000Y-45870396D01*
X56951681Y-46165410D01*
X57066790Y-46443306D01*
X57233901Y-46693406D01*
X57443000Y-46902505D01*
X57443001Y-47415766D01*
X57319102Y-47498552D01*
X57078552Y-47739102D01*
X56889553Y-48021959D01*
X56759368Y-48336253D01*
X56693000Y-48669905D01*
X56693000Y-49010095D01*
X56759368Y-49343747D01*
X56889553Y-49658041D01*
X57078552Y-49940898D01*
X57319102Y-50181448D01*
X57601959Y-50370447D01*
X57916253Y-50500632D01*
X58249905Y-50567000D01*
X58590095Y-50567000D01*
X58923747Y-50500632D01*
X59238041Y-50370447D01*
X59520898Y-50181448D01*
X59761448Y-49940898D01*
X59844234Y-49817000D01*
X63495766Y-49817000D01*
X63578552Y-49940898D01*
X63819102Y-50181448D01*
X64101959Y-50370447D01*
X64416253Y-50500632D01*
X64749905Y-50567000D01*
X65090095Y-50567000D01*
X65423747Y-50500632D01*
X65738041Y-50370447D01*
X66020898Y-50181448D01*
X66261448Y-49940898D01*
X66333000Y-49833812D01*
X66333000Y-52346187D01*
X66261448Y-52239102D01*
X66020898Y-51998552D01*
X65738041Y-51809553D01*
X65423747Y-51679368D01*
X65090095Y-51613000D01*
X64749905Y-51613000D01*
X64416253Y-51679368D01*
X64101959Y-51809553D01*
X63819102Y-51998552D01*
X63578552Y-52239102D01*
X63495766Y-52363000D01*
X59844234Y-52363000D01*
X59761448Y-52239102D01*
X59520898Y-51998552D01*
X59238041Y-51809553D01*
X58923747Y-51679368D01*
X58590095Y-51613000D01*
X58249905Y-51613000D01*
X57916253Y-51679368D01*
X57601959Y-51809553D01*
X57319102Y-51998552D01*
X57078552Y-52239102D01*
X56889553Y-52521959D01*
X56759368Y-52836253D01*
X56693000Y-53169905D01*
X56693000Y-53510095D01*
X56759368Y-53843747D01*
X56889553Y-54158041D01*
X57078552Y-54440898D01*
X57319102Y-54681448D01*
X57443001Y-54764234D01*
X57443001Y-54793695D01*
X57370131Y-54727615D01*
X57128881Y-54582930D01*
X56864040Y-54488091D01*
X56642000Y-54609376D01*
X56642000Y-55753000D01*
X56662000Y-55753000D01*
X56662000Y-56007000D01*
X56642000Y-56007000D01*
X56642000Y-57150624D01*
X56864040Y-57271909D01*
X57128881Y-57177070D01*
X57370131Y-57032385D01*
X57443000Y-56966306D01*
X57443000Y-57157007D01*
X57438273Y-57205000D01*
X57443000Y-57252992D01*
X57457137Y-57396524D01*
X57513003Y-57580690D01*
X57603724Y-57750418D01*
X57725814Y-57899186D01*
X57763098Y-57929784D01*
X62437071Y-62603757D01*
X62408000Y-62749905D01*
X62408000Y-63090095D01*
X62474368Y-63423747D01*
X62604553Y-63738041D01*
X62793552Y-64020898D01*
X63034102Y-64261448D01*
X63158000Y-64344234D01*
X63158000Y-64382205D01*
X63158001Y-64382215D01*
X63158000Y-67714316D01*
X62972743Y-67899573D01*
X63017000Y-67677077D01*
X63017000Y-66942923D01*
X62873773Y-66222874D01*
X62592824Y-65544604D01*
X62184950Y-64934176D01*
X61665824Y-64415050D01*
X61055396Y-64007176D01*
X60377126Y-63726227D01*
X59657077Y-63583000D01*
X58922923Y-63583000D01*
X58202874Y-63726227D01*
X57524604Y-64007176D01*
X56914176Y-64415050D01*
X56395050Y-64934176D01*
X55987176Y-65544604D01*
X55706227Y-66222874D01*
X55563000Y-66942923D01*
X51460000Y-66942923D01*
X51460000Y-56229039D01*
X55123096Y-56229039D01*
X55163754Y-56363087D01*
X55283963Y-56617420D01*
X55451481Y-56843414D01*
X55659869Y-57032385D01*
X55901119Y-57177070D01*
X56165960Y-57271909D01*
X56388000Y-57150624D01*
X56388000Y-56007000D01*
X55245085Y-56007000D01*
X55123096Y-56229039D01*
X51460000Y-56229039D01*
X51460000Y-55530961D01*
X55123096Y-55530961D01*
X55245085Y-55753000D01*
X56388000Y-55753000D01*
X56388000Y-54609376D01*
X56165960Y-54488091D01*
X55901119Y-54582930D01*
X55659869Y-54727615D01*
X55451481Y-54916586D01*
X55283963Y-55142580D01*
X55163754Y-55396913D01*
X55123096Y-55530961D01*
X51460000Y-55530961D01*
X51460000Y-38449040D01*
X57028091Y-38449040D01*
X57122930Y-38713881D01*
X57267615Y-38955131D01*
X57456586Y-39163519D01*
X57682580Y-39331037D01*
X57936913Y-39451246D01*
X58070961Y-39491904D01*
X58293000Y-39369915D01*
X58293000Y-38227000D01*
X58547000Y-38227000D01*
X58547000Y-39369915D01*
X58769039Y-39491904D01*
X58903087Y-39451246D01*
X59157420Y-39331037D01*
X59383414Y-39163519D01*
X59572385Y-38955131D01*
X59717070Y-38713881D01*
X59811909Y-38449040D01*
X59690624Y-38227000D01*
X58547000Y-38227000D01*
X58293000Y-38227000D01*
X57149376Y-38227000D01*
X57028091Y-38449040D01*
X51460000Y-38449040D01*
X51460000Y-37750960D01*
X57028091Y-37750960D01*
X57149376Y-37973000D01*
X58293000Y-37973000D01*
X58293000Y-36830085D01*
X58547000Y-36830085D01*
X58547000Y-37973000D01*
X59690624Y-37973000D01*
X59811909Y-37750960D01*
X59717070Y-37486119D01*
X59572385Y-37244869D01*
X59383414Y-37036481D01*
X59157420Y-36868963D01*
X58903087Y-36748754D01*
X58769039Y-36708096D01*
X58547000Y-36830085D01*
X58293000Y-36830085D01*
X58070961Y-36708096D01*
X57936913Y-36748754D01*
X57682580Y-36868963D01*
X57456586Y-37036481D01*
X57267615Y-37244869D01*
X57122930Y-37486119D01*
X57028091Y-37750960D01*
X51460000Y-37750960D01*
X51460000Y-36220000D01*
X72403313Y-36220000D01*
X70951243Y-37672071D01*
G36*
X66336594Y-92626099D02*
G01*
X66551475Y-92769677D01*
X66454869Y-92827615D01*
X66246481Y-93016586D01*
X66078963Y-93242580D01*
X65958754Y-93496913D01*
X65918096Y-93630961D01*
X66040085Y-93853000D01*
X67183000Y-93853000D01*
X67183000Y-93833000D01*
X67437000Y-93833000D01*
X67437000Y-93853000D01*
X67457000Y-93853000D01*
X67457000Y-94107000D01*
X67437000Y-94107000D01*
X67437000Y-94127000D01*
X67183000Y-94127000D01*
X67183000Y-94107000D01*
X66040085Y-94107000D01*
X65918096Y-94329039D01*
X65958754Y-94463087D01*
X66078963Y-94717420D01*
X66246481Y-94943414D01*
X66454869Y-95132385D01*
X66551475Y-95190323D01*
X66336594Y-95333901D01*
X66123901Y-95546594D01*
X66121409Y-95550323D01*
X66052230Y-95557137D01*
X66024111Y-95565667D01*
X65868065Y-95613003D01*
X65698338Y-95703724D01*
X65549570Y-95825814D01*
X65518976Y-95863093D01*
X64622192Y-96759878D01*
X64448195Y-96759878D01*
X64462863Y-96711525D01*
X64477000Y-96567993D01*
X64477000Y-96567991D01*
X64481727Y-96520001D01*
X64477000Y-96472010D01*
X64477000Y-92417000D01*
X66127495Y-92417000D01*
X66336594Y-92626099D01*
G37*
X66336594Y-92626099D02*
X66551475Y-92769677D01*
X66454869Y-92827615D01*
X66246481Y-93016586D01*
X66078963Y-93242580D01*
X65958754Y-93496913D01*
X65918096Y-93630961D01*
X66040085Y-93853000D01*
X67183000Y-93853000D01*
X67183000Y-93833000D01*
X67437000Y-93833000D01*
X67437000Y-93853000D01*
X67457000Y-93853000D01*
X67457000Y-94107000D01*
X67437000Y-94107000D01*
X67437000Y-94127000D01*
X67183000Y-94127000D01*
X67183000Y-94107000D01*
X66040085Y-94107000D01*
X65918096Y-94329039D01*
X65958754Y-94463087D01*
X66078963Y-94717420D01*
X66246481Y-94943414D01*
X66454869Y-95132385D01*
X66551475Y-95190323D01*
X66336594Y-95333901D01*
X66123901Y-95546594D01*
X66121409Y-95550323D01*
X66052230Y-95557137D01*
X66024111Y-95565667D01*
X65868065Y-95613003D01*
X65698338Y-95703724D01*
X65549570Y-95825814D01*
X65518976Y-95863093D01*
X64622192Y-96759878D01*
X64448195Y-96759878D01*
X64462863Y-96711525D01*
X64477000Y-96567993D01*
X64477000Y-96567991D01*
X64481727Y-96520001D01*
X64477000Y-96472010D01*
X64477000Y-92417000D01*
X66127495Y-92417000D01*
X66336594Y-92626099D01*
G36*
X58465064Y-86095279D02*
G01*
X58684721Y-86314936D01*
X58837986Y-86417344D01*
X58808645Y-86434822D01*
X58592412Y-86629731D01*
X58418359Y-86863080D01*
X58293175Y-87125901D01*
X58248524Y-87273110D01*
X58369845Y-87503000D01*
X59563000Y-87503000D01*
X59563000Y-87483000D01*
X59817000Y-87483000D01*
X59817000Y-87503000D01*
X59837000Y-87503000D01*
X59837000Y-87757000D01*
X59817000Y-87757000D01*
X59817000Y-87777000D01*
X59563000Y-87777000D01*
X59563000Y-87757000D01*
X58369845Y-87757000D01*
X58248524Y-87986890D01*
X58293175Y-88134099D01*
X58418359Y-88396920D01*
X58592412Y-88630269D01*
X58808645Y-88825178D01*
X58837986Y-88842656D01*
X58684721Y-88945064D01*
X58465064Y-89164721D01*
X58446169Y-89193000D01*
X56361831Y-89193000D01*
X56342936Y-89164721D01*
X56123279Y-88945064D01*
X55970014Y-88842656D01*
X55999355Y-88825178D01*
X56215588Y-88630269D01*
X56389641Y-88396920D01*
X56514825Y-88134099D01*
X56559476Y-87986890D01*
X56438155Y-87757000D01*
X55245000Y-87757000D01*
X55245000Y-87777000D01*
X54991000Y-87777000D01*
X54991000Y-87757000D01*
X54971000Y-87757000D01*
X54971000Y-87503000D01*
X54991000Y-87503000D01*
X54991000Y-87483000D01*
X55245000Y-87483000D01*
X55245000Y-87503000D01*
X56438155Y-87503000D01*
X56559476Y-87273110D01*
X56514825Y-87125901D01*
X56389641Y-86863080D01*
X56215588Y-86629731D01*
X55999355Y-86434822D01*
X55970014Y-86417344D01*
X56123279Y-86314936D01*
X56342936Y-86095279D01*
X56361831Y-86067000D01*
X58446169Y-86067000D01*
X58465064Y-86095279D01*
G37*
X58465064Y-86095279D02*
X58684721Y-86314936D01*
X58837986Y-86417344D01*
X58808645Y-86434822D01*
X58592412Y-86629731D01*
X58418359Y-86863080D01*
X58293175Y-87125901D01*
X58248524Y-87273110D01*
X58369845Y-87503000D01*
X59563000Y-87503000D01*
X59563000Y-87483000D01*
X59817000Y-87483000D01*
X59817000Y-87503000D01*
X59837000Y-87503000D01*
X59837000Y-87757000D01*
X59817000Y-87757000D01*
X59817000Y-87777000D01*
X59563000Y-87777000D01*
X59563000Y-87757000D01*
X58369845Y-87757000D01*
X58248524Y-87986890D01*
X58293175Y-88134099D01*
X58418359Y-88396920D01*
X58592412Y-88630269D01*
X58808645Y-88825178D01*
X58837986Y-88842656D01*
X58684721Y-88945064D01*
X58465064Y-89164721D01*
X58446169Y-89193000D01*
X56361831Y-89193000D01*
X56342936Y-89164721D01*
X56123279Y-88945064D01*
X55970014Y-88842656D01*
X55999355Y-88825178D01*
X56215588Y-88630269D01*
X56389641Y-88396920D01*
X56514825Y-88134099D01*
X56559476Y-87986890D01*
X56438155Y-87757000D01*
X55245000Y-87757000D01*
X55245000Y-87777000D01*
X54991000Y-87777000D01*
X54991000Y-87757000D01*
X54971000Y-87757000D01*
X54971000Y-87503000D01*
X54991000Y-87503000D01*
X54991000Y-87483000D01*
X55245000Y-87483000D01*
X55245000Y-87503000D01*
X56438155Y-87503000D01*
X56559476Y-87273110D01*
X56514825Y-87125901D01*
X56389641Y-86863080D01*
X56215588Y-86629731D01*
X55999355Y-86434822D01*
X55970014Y-86417344D01*
X56123279Y-86314936D01*
X56342936Y-86095279D01*
X56361831Y-86067000D01*
X58446169Y-86067000D01*
X58465064Y-86095279D01*
M02*
