G04 #@! TF.GenerationSoftware,KiCad,Pcbnew,(5.1.5)-3*
G04 #@! TF.CreationDate,2022-12-19T02:05:45+02:00*
G04 #@! TF.ProjectId,arduino-fanatec-pcb,61726475-696e-46f2-9d66-616e61746563,rev?*
G04 #@! TF.SameCoordinates,Original*
G04 #@! TF.FileFunction,Copper,L2,Bot*
G04 #@! TF.FilePolarity,Positive*
%FSLAX46Y46*%
G04 Gerber Fmt 4.6, Leading zero omitted, Abs format (unit mm)*
G04 Created by KiCad (PCBNEW (5.1.5)-3) date 2022-12-19 02:05:45*
%MOMM*%
%LPD*%
G04 APERTURE LIST*
%ADD10O,1.600000X1.600000*%
%ADD11R,1.600000X1.600000*%
%ADD12R,1.700000X1.700000*%
%ADD13O,1.700000X1.700000*%
%ADD14C,6.000000*%
%ADD15C,2.000000*%
%ADD16O,1.800000X1.800000*%
%ADD17R,1.800000X1.800000*%
%ADD18C,1.600000*%
%ADD19C,0.500000*%
%ADD20C,0.700000*%
%ADD21C,0.254000*%
G04 APERTURE END LIST*
D10*
X101600000Y-105410000D03*
X86360000Y-105410000D03*
X101600000Y-69850000D03*
X86360000Y-102870000D03*
X101600000Y-72390000D03*
X86360000Y-100330000D03*
X101600000Y-74930000D03*
X86360000Y-97790000D03*
X101600000Y-77470000D03*
X86360000Y-95250000D03*
X101600000Y-80010000D03*
X86360000Y-92710000D03*
X101600000Y-82550000D03*
X86360000Y-90170000D03*
X101600000Y-85090000D03*
X86360000Y-87630000D03*
X101600000Y-87630000D03*
X86360000Y-85090000D03*
X101600000Y-90170000D03*
X86360000Y-82550000D03*
X101600000Y-92710000D03*
X86360000Y-80010000D03*
X101600000Y-95250000D03*
X86360000Y-77470000D03*
X101600000Y-97790000D03*
X86360000Y-74930000D03*
X101600000Y-100330000D03*
X86360000Y-72390000D03*
X101600000Y-102870000D03*
D11*
X86360000Y-69850000D03*
D12*
X116840000Y-110490000D03*
D13*
X119380000Y-110490000D03*
X116840000Y-107950000D03*
X119380000Y-107950000D03*
X116840000Y-105410000D03*
X119380000Y-105410000D03*
X116840000Y-102870000D03*
X119380000Y-102870000D03*
X116840000Y-100330000D03*
X119380000Y-100330000D03*
X116840000Y-97790000D03*
X119380000Y-97790000D03*
X116840000Y-95250000D03*
X119380000Y-95250000D03*
X116840000Y-92710000D03*
X119380000Y-92710000D03*
X116840000Y-90170000D03*
X119380000Y-90170000D03*
X116840000Y-87630000D03*
X119380000Y-87630000D03*
X116840000Y-85090000D03*
X119380000Y-85090000D03*
X116840000Y-82550000D03*
X119380000Y-82550000D03*
X116840000Y-80010000D03*
X119380000Y-80010000D03*
X116840000Y-77470000D03*
X119380000Y-77470000D03*
X116840000Y-74930000D03*
X119380000Y-74930000D03*
X116840000Y-72390000D03*
X119380000Y-72390000D03*
X116840000Y-69850000D03*
X119380000Y-69850000D03*
X116840000Y-67310000D03*
X119380000Y-67310000D03*
D11*
X67310000Y-86360000D03*
D10*
X77470000Y-99060000D03*
X67310000Y-88900000D03*
X77470000Y-96520000D03*
X67310000Y-91440000D03*
X77470000Y-93980000D03*
X67310000Y-93980000D03*
X77470000Y-91440000D03*
X67310000Y-96520000D03*
X77470000Y-88900000D03*
X67310000Y-99060000D03*
X77470000Y-86360000D03*
D13*
X55118000Y-100330000D03*
X55118000Y-97790000D03*
X55118000Y-95250000D03*
X55118000Y-92710000D03*
X55118000Y-90170000D03*
X55118000Y-87630000D03*
X55118000Y-85090000D03*
D12*
X55118000Y-82550000D03*
D14*
X84455000Y-111125000D03*
D10*
X56515000Y-55880000D03*
X64135000Y-55880000D03*
X73025000Y-70485000D03*
X73025000Y-62865000D03*
X78740000Y-48895000D03*
X78740000Y-56515000D03*
X58420000Y-45720000D03*
X58420000Y-38100000D03*
X78740000Y-36830000D03*
X78740000Y-44450000D03*
D15*
X70635000Y-71755000D03*
X70635000Y-76255000D03*
X64135000Y-71755000D03*
X64135000Y-76255000D03*
X70635000Y-58420000D03*
X70635000Y-62920000D03*
X64135000Y-58420000D03*
X64135000Y-62920000D03*
X76350000Y-48840000D03*
X76350000Y-53340000D03*
X69850000Y-48840000D03*
X69850000Y-53340000D03*
X64920000Y-48840000D03*
X64920000Y-53340000D03*
X58420000Y-48840000D03*
X58420000Y-53340000D03*
X70635000Y-39370000D03*
X70635000Y-43870000D03*
X64135000Y-39370000D03*
X64135000Y-43870000D03*
D13*
X119380000Y-53340000D03*
X119380000Y-50800000D03*
X119380000Y-48260000D03*
D12*
X119380000Y-45720000D03*
D14*
X109620000Y-67310000D03*
X59290000Y-67310000D03*
D16*
X67310000Y-81915000D03*
D17*
X77470000Y-81915000D03*
D13*
X59690000Y-100330000D03*
X59690000Y-97790000D03*
X59690000Y-95250000D03*
X59690000Y-92710000D03*
X59690000Y-90170000D03*
X59690000Y-87630000D03*
X59690000Y-85090000D03*
D12*
X59690000Y-82550000D03*
D18*
X80010000Y-96520000D03*
X83058000Y-102768400D03*
X98425000Y-100330000D03*
X61750000Y-93980000D03*
X65250000Y-93980000D03*
X80010000Y-91440000D03*
X64476878Y-98286878D03*
X63500000Y-88900000D03*
X105410000Y-74930000D03*
X105410000Y-69839991D03*
X113031397Y-107951397D03*
X83185000Y-100330006D03*
X115570000Y-48260000D03*
X95330010Y-85090000D03*
X115570000Y-45720000D03*
X95250006Y-82550000D03*
X88900000Y-72390000D03*
X113030000Y-113030000D03*
X88900000Y-69850000D03*
X113030000Y-110490000D03*
X60325000Y-76200000D03*
X98425000Y-97790000D03*
X64164438Y-84425562D03*
D19*
X75619999Y-99948001D02*
X81081998Y-105410000D01*
X75619999Y-90551999D02*
X75619999Y-99948001D01*
X77470000Y-88900000D02*
X77271998Y-88900000D01*
X77271998Y-88900000D02*
X75619999Y-90551999D01*
X81081998Y-105410000D02*
X86360000Y-105410000D01*
X83159600Y-102870000D02*
X83058000Y-102768400D01*
X86360000Y-102870000D02*
X83159600Y-102870000D01*
X80010000Y-96520000D02*
X77470000Y-96520000D01*
X116715998Y-67310000D02*
X116840000Y-67310000D01*
X115039999Y-69687509D02*
X115039999Y-68985999D01*
X101600000Y-80010000D02*
X104717508Y-80010000D01*
X115039999Y-68985999D02*
X116715998Y-67310000D01*
X104717508Y-80010000D02*
X115039999Y-69687509D01*
X116715998Y-69850000D02*
X116840000Y-69850000D01*
X101600000Y-82550000D02*
X104015998Y-82550000D01*
X104015998Y-82550000D02*
X116715998Y-69850000D01*
X116460499Y-72390000D02*
X116840000Y-72390000D01*
X101600000Y-85090000D02*
X103760499Y-85090000D01*
X103760499Y-85090000D02*
X116460499Y-72390000D01*
X116014489Y-74930000D02*
X116840000Y-74930000D01*
X101600000Y-87630000D02*
X103314489Y-87630000D01*
X103314489Y-87630000D02*
X116014489Y-74930000D01*
X115637919Y-77470000D02*
X116840000Y-77470000D01*
X101600000Y-90170000D02*
X102937919Y-90170000D01*
X102937919Y-90170000D02*
X115637919Y-77470000D01*
X115637919Y-80010000D02*
X116840000Y-80010000D01*
X101600000Y-92710000D02*
X102937919Y-92710000D01*
X102937919Y-92710000D02*
X115637919Y-80010000D01*
X115637919Y-82550000D02*
X116840000Y-82550000D01*
X101600000Y-95250000D02*
X102937919Y-95250000D01*
X102937919Y-95250000D02*
X115637919Y-82550000D01*
X101600000Y-100330000D02*
X98425000Y-100330000D01*
D20*
X119380000Y-67310000D02*
X119380000Y-110490000D01*
X119380000Y-53340000D02*
X119380000Y-67310000D01*
X59119999Y-38799999D02*
X58420000Y-38100000D01*
X61640001Y-41320001D02*
X59119999Y-38799999D01*
X75610001Y-41320001D02*
X61640001Y-41320001D01*
X78740000Y-44450000D02*
X75610001Y-41320001D01*
X79439999Y-55815001D02*
X78740000Y-56515000D01*
X80390001Y-54864999D02*
X79439999Y-55815001D01*
D19*
X80390001Y-48102999D02*
X80390001Y-54864999D01*
X78740000Y-46452998D02*
X80390001Y-48102999D01*
D20*
X78740000Y-44450000D02*
X78740000Y-46452998D01*
X64135000Y-71755000D02*
X70635000Y-71755000D01*
X72585001Y-73705001D02*
X72585001Y-77191001D01*
X70635000Y-71755000D02*
X72585001Y-73705001D01*
X57720001Y-38799999D02*
X58420000Y-38100000D01*
X56469999Y-40050001D02*
X57720001Y-38799999D01*
X56469999Y-54276001D02*
X56469999Y-40050001D01*
X56515000Y-54321002D02*
X56469999Y-54276001D01*
X56515000Y-55880000D02*
X56515000Y-54321002D01*
X101600000Y-72390000D02*
X110386002Y-72390000D01*
X113570001Y-67785999D02*
X115846001Y-65509999D01*
X118782080Y-65509999D02*
X119380000Y-66107919D01*
X110386002Y-72390000D02*
X113570001Y-69206001D01*
X119380000Y-66107919D02*
X119380000Y-67310000D01*
X113570001Y-69206001D02*
X113570001Y-67785999D01*
X115846001Y-65509999D02*
X118782080Y-65509999D01*
X72585001Y-77191001D02*
X71571001Y-78205001D01*
X61780010Y-89720010D02*
X60539999Y-88479999D01*
X60539999Y-88479999D02*
X59690000Y-87630000D01*
X61750000Y-93278491D02*
X61780010Y-93248481D01*
X61722000Y-92710000D02*
X59690000Y-92710000D01*
X61780010Y-92768010D02*
X61722000Y-92710000D01*
X61780010Y-92768010D02*
X61780010Y-89720010D01*
X61780010Y-93248481D02*
X61780010Y-92768010D01*
X55118000Y-87630000D02*
X59690000Y-87630000D01*
X55118000Y-92710000D02*
X59690000Y-92710000D01*
X61750000Y-93980000D02*
X61750000Y-93278491D01*
X52017989Y-90812070D02*
X53915919Y-92710000D01*
X52017989Y-80401518D02*
X52017989Y-90812070D01*
X53915919Y-92710000D02*
X55118000Y-92710000D01*
X54214507Y-78205001D02*
X52017989Y-80401518D01*
X71571001Y-78205001D02*
X54214507Y-78205001D01*
X70635000Y-70320998D02*
X70635000Y-71755000D01*
X78740000Y-56515000D02*
X78740000Y-62215998D01*
X78740000Y-62215998D02*
X70635000Y-70320998D01*
X65250000Y-93980000D02*
X67310000Y-93980000D01*
X83309988Y-81171517D02*
X83309988Y-88140012D01*
X83850011Y-69118481D02*
X83850011Y-80631494D01*
X83309988Y-88140012D02*
X80010000Y-91440000D01*
X101600000Y-72390000D02*
X97309999Y-68099999D01*
X83850011Y-80631494D02*
X83309988Y-81171517D01*
X97309999Y-68099999D02*
X84868493Y-68099999D01*
X84868493Y-68099999D02*
X83850011Y-69118481D01*
X78740000Y-92710000D02*
X77470000Y-93980000D01*
X80010000Y-91440000D02*
X78740000Y-92710000D01*
D19*
X66178630Y-88900000D02*
X67310000Y-88900000D01*
X66164002Y-88900000D02*
X66178630Y-88900000D01*
X59814002Y-82550000D02*
X66164002Y-88900000D01*
X59690000Y-82550000D02*
X59814002Y-82550000D01*
X55118000Y-82550000D02*
X59690000Y-82550000D01*
X60892081Y-100330000D02*
X59690000Y-100330000D01*
X64908630Y-100330000D02*
X60892081Y-100330000D01*
X66178630Y-99060000D02*
X64908630Y-100330000D01*
X67310000Y-99060000D02*
X66178630Y-99060000D01*
X55118000Y-100330000D02*
X59690000Y-100330000D01*
X67310000Y-91440000D02*
X63500000Y-91440000D01*
X63500000Y-91440000D02*
X63500000Y-96520000D01*
X62230000Y-97790000D02*
X59690000Y-97790000D01*
X63500000Y-96520000D02*
X62230000Y-97790000D01*
X55118000Y-97790000D02*
X59690000Y-97790000D01*
X53915919Y-95250000D02*
X55118000Y-95250000D01*
X53317999Y-95847920D02*
X53915919Y-95250000D01*
X53317999Y-101194001D02*
X53317999Y-95847920D01*
X54253999Y-102130001D02*
X53317999Y-101194001D01*
X66830001Y-102130001D02*
X54253999Y-102130001D01*
X69060001Y-99900001D02*
X66830001Y-102130001D01*
X69060001Y-86610001D02*
X69060001Y-99900001D01*
X68810000Y-86360000D02*
X69060001Y-86610001D01*
X67310000Y-86360000D02*
X68810000Y-86360000D01*
X55118000Y-95250000D02*
X59690000Y-95250000D01*
X67310000Y-96520000D02*
X66243756Y-96520000D01*
X66243756Y-96520000D02*
X64476878Y-98286878D01*
X60539999Y-85939999D02*
X59690000Y-85090000D01*
X60664001Y-85939999D02*
X60539999Y-85939999D01*
X61490001Y-86765999D02*
X60664001Y-85939999D01*
X61490001Y-86890001D02*
X61490001Y-86765999D01*
X63500000Y-88900000D02*
X61490001Y-86890001D01*
X55118000Y-85090000D02*
X59690000Y-85090000D01*
D20*
X101600000Y-77470000D02*
X102870000Y-77470000D01*
X102870000Y-77470000D02*
X105410000Y-74930000D01*
X82550000Y-68579999D02*
X84455000Y-66675000D01*
X84455000Y-66675000D02*
X102235000Y-66675000D01*
X82009977Y-80633035D02*
X82550000Y-80093012D01*
X77470000Y-91440000D02*
X82009977Y-86900023D01*
X81915000Y-81915000D02*
X82009977Y-81820023D01*
X82009977Y-81820023D02*
X82009977Y-80633035D01*
X82550000Y-80093012D02*
X82550000Y-70485000D01*
X82550000Y-70485000D02*
X82550000Y-68579999D01*
X81915000Y-81915000D02*
X82009977Y-82009977D01*
X77470000Y-81915000D02*
X81915000Y-81915000D01*
X82009977Y-86900023D02*
X82009977Y-82009977D01*
X82009977Y-82009977D02*
X82009977Y-81820023D01*
X73025000Y-70485000D02*
X82550001Y-70485000D01*
X102302919Y-66675000D02*
X102235000Y-66675000D01*
X118177919Y-50800000D02*
X102302919Y-66675000D01*
X119380000Y-50800000D02*
X118177919Y-50800000D01*
X102245009Y-66675000D02*
X104610001Y-69039992D01*
X104610001Y-69039992D02*
X105410000Y-69839991D01*
X102235000Y-66675000D02*
X102245009Y-66675000D01*
D19*
X116840000Y-105410000D02*
X115572794Y-105410000D01*
X115572794Y-105410000D02*
X113031397Y-107951397D01*
X86360000Y-100330000D02*
X83185006Y-100330000D01*
X83185006Y-100330000D02*
X83185000Y-100330006D01*
X84609999Y-81760001D02*
X86360000Y-80010000D01*
X84609999Y-88678494D02*
X84609999Y-81760001D01*
X83185000Y-100330006D02*
X83185000Y-90103493D01*
X83185000Y-90103493D02*
X84609999Y-88678494D01*
X83184994Y-100330000D02*
X83185000Y-100330006D01*
X77470000Y-99060000D02*
X78740000Y-100330000D01*
X78740000Y-100330000D02*
X83184994Y-100330000D01*
X115570000Y-48260000D02*
X119380000Y-48260000D01*
X95250000Y-93980000D02*
X87159999Y-85889999D01*
X97636599Y-108585000D02*
X95250000Y-106198401D01*
X102896404Y-108585000D02*
X97636599Y-108585000D01*
X115570000Y-90170000D02*
X104775000Y-100965000D01*
X104775000Y-106706404D02*
X102896404Y-108585000D01*
X104775000Y-100965000D02*
X104775000Y-106706404D01*
X116840000Y-90170000D02*
X115570000Y-90170000D01*
X87159999Y-85889999D02*
X86360000Y-85090000D01*
X95250000Y-106198401D02*
X95250000Y-93980000D01*
X86360000Y-85090000D02*
X95330010Y-85090000D01*
X115570000Y-45720000D02*
X119380000Y-45720000D01*
X86360000Y-82550000D02*
X95250006Y-82550000D01*
X96520000Y-82550000D02*
X95250006Y-82550000D01*
X97320003Y-83350003D02*
X96520000Y-82550000D01*
X96600026Y-105794023D02*
X96600026Y-85817986D01*
X97320003Y-85098009D02*
X97320003Y-83350003D01*
X115637919Y-87630000D02*
X103350001Y-99917918D01*
X116840000Y-87630000D02*
X115637919Y-87630000D01*
X97966004Y-107160001D02*
X96600026Y-105794023D01*
X103350001Y-99917918D02*
X103350001Y-106250001D01*
X96600026Y-85817986D02*
X97320003Y-85098009D01*
X103350001Y-106250001D02*
X102440001Y-107160001D01*
X102440001Y-107160001D02*
X97966004Y-107160001D01*
X86360000Y-72390000D02*
X88900000Y-72390000D01*
X116840000Y-110490000D02*
X115570000Y-110490000D01*
X115570000Y-110490000D02*
X113030000Y-113030000D01*
X86360000Y-69850000D02*
X88900000Y-69850000D01*
X116840000Y-107950000D02*
X115570000Y-107950000D01*
X115570000Y-107950000D02*
X113030000Y-110490000D01*
X115637919Y-85090000D02*
X116840000Y-85090000D01*
X101600000Y-97790000D02*
X102937919Y-97790000D01*
X64080000Y-76200000D02*
X64135000Y-76255000D01*
X60325000Y-76200000D02*
X64080000Y-76200000D01*
X64135000Y-76255000D02*
X70635000Y-76255000D01*
X64135000Y-64334213D02*
X64135000Y-62920000D01*
X64135000Y-68119002D02*
X64135000Y-64334213D01*
X60325000Y-71929002D02*
X64135000Y-68119002D01*
X60325000Y-76200000D02*
X60325000Y-71929002D01*
X64135000Y-62920000D02*
X70635000Y-62920000D01*
X72970000Y-62920000D02*
X73025000Y-62865000D01*
X70635000Y-62920000D02*
X72970000Y-62920000D01*
X58420000Y-57205000D02*
X58420000Y-53340000D01*
X64135000Y-62920000D02*
X58420000Y-57205000D01*
X58420000Y-53340000D02*
X64920000Y-53340000D01*
X70635000Y-43870000D02*
X64135000Y-43870000D01*
X76350000Y-53340000D02*
X69850000Y-53340000D01*
X102937919Y-97790000D02*
X115637919Y-85090000D01*
X69850000Y-53340000D02*
X64920000Y-53340000D01*
X67310000Y-53340000D02*
X67310000Y-43815000D01*
X64920000Y-53340000D02*
X67310000Y-53340000D01*
X101600000Y-97790000D02*
X98425000Y-97790000D01*
X70635000Y-58420000D02*
X64135000Y-58420000D01*
X64135000Y-58420000D02*
X64135000Y-55880000D01*
X58420000Y-45720000D02*
X58420000Y-48840000D01*
X64920000Y-48840000D02*
X58420000Y-48840000D01*
X69850000Y-48840000D02*
X76350000Y-48840000D01*
X78685000Y-48840000D02*
X78740000Y-48895000D01*
X76350000Y-48840000D02*
X78685000Y-48840000D01*
X73175000Y-36830000D02*
X78740000Y-36830000D01*
X70635000Y-39370000D02*
X73175000Y-36830000D01*
X64135000Y-39370000D02*
X70635000Y-39370000D01*
X88719939Y-100149939D02*
X87159999Y-98589999D01*
X87159999Y-98589999D02*
X86360000Y-97790000D01*
X88719939Y-109039939D02*
X88719939Y-100149939D01*
X111150066Y-107357853D02*
X111150066Y-109480892D01*
X111150066Y-109480892D02*
X105670892Y-114960066D01*
X115637919Y-102870000D02*
X111150066Y-107357853D01*
X105670892Y-114960066D02*
X94640066Y-114960066D01*
X116840000Y-102870000D02*
X115637919Y-102870000D01*
X94640066Y-114960066D02*
X88719939Y-109039939D01*
X115637919Y-100330000D02*
X116840000Y-100330000D01*
X109850056Y-106117863D02*
X115637919Y-100330000D01*
X105132411Y-113660056D02*
X109850056Y-108942411D01*
X95273589Y-113660056D02*
X105132411Y-113660056D01*
X90555944Y-108942411D02*
X95273589Y-113660056D01*
X90555944Y-108942406D02*
X90555944Y-108942411D01*
X90019949Y-108406411D02*
X90555944Y-108942406D01*
X90019949Y-98909949D02*
X90019949Y-108406411D01*
X109850056Y-108942411D02*
X109850056Y-106117863D01*
X86360000Y-95250000D02*
X90019949Y-98909949D01*
X108550045Y-104877874D02*
X115637919Y-97790000D01*
X115637919Y-97790000D02*
X116840000Y-97790000D01*
X91319960Y-97669960D02*
X91319960Y-107867934D01*
X91319960Y-107867934D02*
X95812071Y-112360045D01*
X95812071Y-112360045D02*
X104593929Y-112360045D01*
X104593929Y-112360045D02*
X108550045Y-108403929D01*
X108550045Y-108403929D02*
X108550045Y-104877874D01*
X86360000Y-92710000D02*
X91319960Y-97669960D01*
X104055447Y-111060034D02*
X107250034Y-107865447D01*
X107250034Y-103637885D02*
X115637919Y-95250000D01*
X96350553Y-111060034D02*
X104055447Y-111060034D01*
X92619967Y-107329448D02*
X96350553Y-111060034D01*
X115637919Y-95250000D02*
X116840000Y-95250000D01*
X92619967Y-96429967D02*
X92619967Y-107329448D01*
X107250034Y-107865447D02*
X107250034Y-103637885D01*
X86360000Y-90170000D02*
X92619967Y-96429967D01*
X93919978Y-95189978D02*
X93919978Y-106790966D01*
X103516965Y-109760023D02*
X105950023Y-107326965D01*
X96889035Y-109760023D02*
X103516965Y-109760023D01*
X93919978Y-106790966D02*
X96889035Y-109760023D01*
X115637919Y-92710000D02*
X116840000Y-92710000D01*
X105950023Y-102397896D02*
X115637919Y-92710000D01*
X105950023Y-107326965D02*
X105950023Y-102397896D01*
X86360000Y-87630000D02*
X93919978Y-95189978D01*
X64135000Y-81915000D02*
X67310000Y-81915000D01*
X64135000Y-81915000D02*
X64164438Y-81944438D01*
X64164438Y-81944438D02*
X64164438Y-84425562D01*
X64135000Y-84396124D02*
X64164438Y-84425562D01*
X55118000Y-90170000D02*
X59690000Y-90170000D01*
X54102000Y-90170000D02*
X55118000Y-90170000D01*
X53317999Y-89385999D02*
X54102000Y-90170000D01*
X62230000Y-81915000D02*
X60325000Y-80010000D01*
X64135000Y-81915000D02*
X62230000Y-81915000D01*
X60325000Y-80010000D02*
X54247998Y-80010000D01*
X54247998Y-80010000D02*
X53317999Y-80939999D01*
X53317999Y-80939999D02*
X53317999Y-89385999D01*
D21*
G36*
X72518470Y-36234951D02*
G01*
X70981525Y-37771897D01*
X70796033Y-37735000D01*
X70473967Y-37735000D01*
X70158088Y-37797832D01*
X69860537Y-37921082D01*
X69592748Y-38100013D01*
X69365013Y-38327748D01*
X69259941Y-38485000D01*
X65510059Y-38485000D01*
X65404987Y-38327748D01*
X65177252Y-38100013D01*
X64909463Y-37921082D01*
X64611912Y-37797832D01*
X64296033Y-37735000D01*
X63973967Y-37735000D01*
X63658088Y-37797832D01*
X63360537Y-37921082D01*
X63092748Y-38100013D01*
X62865013Y-38327748D01*
X62686082Y-38595537D01*
X62562832Y-38893088D01*
X62500000Y-39208967D01*
X62500000Y-39531033D01*
X62562832Y-39846912D01*
X62686082Y-40144463D01*
X62865013Y-40412252D01*
X63092748Y-40639987D01*
X63360537Y-40818918D01*
X63658088Y-40942168D01*
X63973967Y-41005000D01*
X64296033Y-41005000D01*
X64611912Y-40942168D01*
X64909463Y-40818918D01*
X65177252Y-40639987D01*
X65404987Y-40412252D01*
X65510059Y-40255000D01*
X69259941Y-40255000D01*
X69365013Y-40412252D01*
X69592748Y-40639987D01*
X69860537Y-40818918D01*
X70158088Y-40942168D01*
X70473967Y-41005000D01*
X70796033Y-41005000D01*
X71111912Y-40942168D01*
X71409463Y-40818918D01*
X71677252Y-40639987D01*
X71904987Y-40412252D01*
X72083918Y-40144463D01*
X72207168Y-39846912D01*
X72270000Y-39531033D01*
X72270000Y-39208967D01*
X72233103Y-39023475D01*
X73541579Y-37715000D01*
X77605479Y-37715000D01*
X77625363Y-37744759D01*
X77825241Y-37944637D01*
X78060273Y-38101680D01*
X78321426Y-38209853D01*
X78598665Y-38265000D01*
X78881335Y-38265000D01*
X79158574Y-38209853D01*
X79419727Y-38101680D01*
X79654759Y-37944637D01*
X79854637Y-37744759D01*
X80011680Y-37509727D01*
X80119853Y-37248574D01*
X80175000Y-36971335D01*
X80175000Y-36688665D01*
X80119853Y-36411426D01*
X80040562Y-36220000D01*
X121260001Y-36220000D01*
X121260000Y-114910000D01*
X106972536Y-114910000D01*
X111610179Y-110272358D01*
X111595000Y-110348665D01*
X111595000Y-110631335D01*
X111650147Y-110908574D01*
X111758320Y-111169727D01*
X111915363Y-111404759D01*
X112115241Y-111604637D01*
X112347759Y-111760000D01*
X112115241Y-111915363D01*
X111915363Y-112115241D01*
X111758320Y-112350273D01*
X111650147Y-112611426D01*
X111595000Y-112888665D01*
X111595000Y-113171335D01*
X111650147Y-113448574D01*
X111758320Y-113709727D01*
X111915363Y-113944759D01*
X112115241Y-114144637D01*
X112350273Y-114301680D01*
X112611426Y-114409853D01*
X112888665Y-114465000D01*
X113171335Y-114465000D01*
X113448574Y-114409853D01*
X113709727Y-114301680D01*
X113944759Y-114144637D01*
X114144637Y-113944759D01*
X114301680Y-113709727D01*
X114409853Y-113448574D01*
X114465000Y-113171335D01*
X114465000Y-112888665D01*
X114458017Y-112853561D01*
X115530512Y-111781067D01*
X115538815Y-111791185D01*
X115635506Y-111870537D01*
X115745820Y-111929502D01*
X115865518Y-111965812D01*
X115990000Y-111978072D01*
X117690000Y-111978072D01*
X117814482Y-111965812D01*
X117934180Y-111929502D01*
X118044494Y-111870537D01*
X118141185Y-111791185D01*
X118220537Y-111694494D01*
X118279502Y-111584180D01*
X118302498Y-111508374D01*
X118498645Y-111685178D01*
X118748748Y-111834157D01*
X119023109Y-111931481D01*
X119253000Y-111810814D01*
X119253000Y-110617000D01*
X119507000Y-110617000D01*
X119507000Y-111810814D01*
X119736891Y-111931481D01*
X120011252Y-111834157D01*
X120261355Y-111685178D01*
X120477588Y-111490269D01*
X120651641Y-111256920D01*
X120776825Y-110994099D01*
X120821476Y-110846890D01*
X120700155Y-110617000D01*
X119507000Y-110617000D01*
X119253000Y-110617000D01*
X119233000Y-110617000D01*
X119233000Y-110363000D01*
X119253000Y-110363000D01*
X119253000Y-108077000D01*
X119507000Y-108077000D01*
X119507000Y-110363000D01*
X120700155Y-110363000D01*
X120821476Y-110133110D01*
X120776825Y-109985901D01*
X120651641Y-109723080D01*
X120477588Y-109489731D01*
X120261355Y-109294822D01*
X120135745Y-109220000D01*
X120261355Y-109145178D01*
X120477588Y-108950269D01*
X120651641Y-108716920D01*
X120776825Y-108454099D01*
X120821476Y-108306890D01*
X120700155Y-108077000D01*
X119507000Y-108077000D01*
X119253000Y-108077000D01*
X119233000Y-108077000D01*
X119233000Y-107823000D01*
X119253000Y-107823000D01*
X119253000Y-105537000D01*
X119507000Y-105537000D01*
X119507000Y-107823000D01*
X120700155Y-107823000D01*
X120821476Y-107593110D01*
X120776825Y-107445901D01*
X120651641Y-107183080D01*
X120477588Y-106949731D01*
X120261355Y-106754822D01*
X120135745Y-106680000D01*
X120261355Y-106605178D01*
X120477588Y-106410269D01*
X120651641Y-106176920D01*
X120776825Y-105914099D01*
X120821476Y-105766890D01*
X120700155Y-105537000D01*
X119507000Y-105537000D01*
X119253000Y-105537000D01*
X119233000Y-105537000D01*
X119233000Y-105283000D01*
X119253000Y-105283000D01*
X119253000Y-102997000D01*
X119507000Y-102997000D01*
X119507000Y-105283000D01*
X120700155Y-105283000D01*
X120821476Y-105053110D01*
X120776825Y-104905901D01*
X120651641Y-104643080D01*
X120477588Y-104409731D01*
X120261355Y-104214822D01*
X120135745Y-104140000D01*
X120261355Y-104065178D01*
X120477588Y-103870269D01*
X120651641Y-103636920D01*
X120776825Y-103374099D01*
X120821476Y-103226890D01*
X120700155Y-102997000D01*
X119507000Y-102997000D01*
X119253000Y-102997000D01*
X119233000Y-102997000D01*
X119233000Y-102743000D01*
X119253000Y-102743000D01*
X119253000Y-100457000D01*
X119507000Y-100457000D01*
X119507000Y-102743000D01*
X120700155Y-102743000D01*
X120821476Y-102513110D01*
X120776825Y-102365901D01*
X120651641Y-102103080D01*
X120477588Y-101869731D01*
X120261355Y-101674822D01*
X120135745Y-101600000D01*
X120261355Y-101525178D01*
X120477588Y-101330269D01*
X120651641Y-101096920D01*
X120776825Y-100834099D01*
X120821476Y-100686890D01*
X120700155Y-100457000D01*
X119507000Y-100457000D01*
X119253000Y-100457000D01*
X119233000Y-100457000D01*
X119233000Y-100203000D01*
X119253000Y-100203000D01*
X119253000Y-97917000D01*
X119507000Y-97917000D01*
X119507000Y-100203000D01*
X120700155Y-100203000D01*
X120821476Y-99973110D01*
X120776825Y-99825901D01*
X120651641Y-99563080D01*
X120477588Y-99329731D01*
X120261355Y-99134822D01*
X120135745Y-99060000D01*
X120261355Y-98985178D01*
X120477588Y-98790269D01*
X120651641Y-98556920D01*
X120776825Y-98294099D01*
X120821476Y-98146890D01*
X120700155Y-97917000D01*
X119507000Y-97917000D01*
X119253000Y-97917000D01*
X119233000Y-97917000D01*
X119233000Y-97663000D01*
X119253000Y-97663000D01*
X119253000Y-95377000D01*
X119507000Y-95377000D01*
X119507000Y-97663000D01*
X120700155Y-97663000D01*
X120821476Y-97433110D01*
X120776825Y-97285901D01*
X120651641Y-97023080D01*
X120477588Y-96789731D01*
X120261355Y-96594822D01*
X120135745Y-96520000D01*
X120261355Y-96445178D01*
X120477588Y-96250269D01*
X120651641Y-96016920D01*
X120776825Y-95754099D01*
X120821476Y-95606890D01*
X120700155Y-95377000D01*
X119507000Y-95377000D01*
X119253000Y-95377000D01*
X119233000Y-95377000D01*
X119233000Y-95123000D01*
X119253000Y-95123000D01*
X119253000Y-92837000D01*
X119507000Y-92837000D01*
X119507000Y-95123000D01*
X120700155Y-95123000D01*
X120821476Y-94893110D01*
X120776825Y-94745901D01*
X120651641Y-94483080D01*
X120477588Y-94249731D01*
X120261355Y-94054822D01*
X120135745Y-93980000D01*
X120261355Y-93905178D01*
X120477588Y-93710269D01*
X120651641Y-93476920D01*
X120776825Y-93214099D01*
X120821476Y-93066890D01*
X120700155Y-92837000D01*
X119507000Y-92837000D01*
X119253000Y-92837000D01*
X119233000Y-92837000D01*
X119233000Y-92583000D01*
X119253000Y-92583000D01*
X119253000Y-90297000D01*
X119507000Y-90297000D01*
X119507000Y-92583000D01*
X120700155Y-92583000D01*
X120821476Y-92353110D01*
X120776825Y-92205901D01*
X120651641Y-91943080D01*
X120477588Y-91709731D01*
X120261355Y-91514822D01*
X120135745Y-91440000D01*
X120261355Y-91365178D01*
X120477588Y-91170269D01*
X120651641Y-90936920D01*
X120776825Y-90674099D01*
X120821476Y-90526890D01*
X120700155Y-90297000D01*
X119507000Y-90297000D01*
X119253000Y-90297000D01*
X119233000Y-90297000D01*
X119233000Y-90043000D01*
X119253000Y-90043000D01*
X119253000Y-87757000D01*
X119507000Y-87757000D01*
X119507000Y-90043000D01*
X120700155Y-90043000D01*
X120821476Y-89813110D01*
X120776825Y-89665901D01*
X120651641Y-89403080D01*
X120477588Y-89169731D01*
X120261355Y-88974822D01*
X120135745Y-88900000D01*
X120261355Y-88825178D01*
X120477588Y-88630269D01*
X120651641Y-88396920D01*
X120776825Y-88134099D01*
X120821476Y-87986890D01*
X120700155Y-87757000D01*
X119507000Y-87757000D01*
X119253000Y-87757000D01*
X119233000Y-87757000D01*
X119233000Y-87503000D01*
X119253000Y-87503000D01*
X119253000Y-85217000D01*
X119507000Y-85217000D01*
X119507000Y-87503000D01*
X120700155Y-87503000D01*
X120821476Y-87273110D01*
X120776825Y-87125901D01*
X120651641Y-86863080D01*
X120477588Y-86629731D01*
X120261355Y-86434822D01*
X120135745Y-86360000D01*
X120261355Y-86285178D01*
X120477588Y-86090269D01*
X120651641Y-85856920D01*
X120776825Y-85594099D01*
X120821476Y-85446890D01*
X120700155Y-85217000D01*
X119507000Y-85217000D01*
X119253000Y-85217000D01*
X119233000Y-85217000D01*
X119233000Y-84963000D01*
X119253000Y-84963000D01*
X119253000Y-82677000D01*
X119507000Y-82677000D01*
X119507000Y-84963000D01*
X120700155Y-84963000D01*
X120821476Y-84733110D01*
X120776825Y-84585901D01*
X120651641Y-84323080D01*
X120477588Y-84089731D01*
X120261355Y-83894822D01*
X120135745Y-83820000D01*
X120261355Y-83745178D01*
X120477588Y-83550269D01*
X120651641Y-83316920D01*
X120776825Y-83054099D01*
X120821476Y-82906890D01*
X120700155Y-82677000D01*
X119507000Y-82677000D01*
X119253000Y-82677000D01*
X119233000Y-82677000D01*
X119233000Y-82423000D01*
X119253000Y-82423000D01*
X119253000Y-80137000D01*
X119507000Y-80137000D01*
X119507000Y-82423000D01*
X120700155Y-82423000D01*
X120821476Y-82193110D01*
X120776825Y-82045901D01*
X120651641Y-81783080D01*
X120477588Y-81549731D01*
X120261355Y-81354822D01*
X120135745Y-81280000D01*
X120261355Y-81205178D01*
X120477588Y-81010269D01*
X120651641Y-80776920D01*
X120776825Y-80514099D01*
X120821476Y-80366890D01*
X120700155Y-80137000D01*
X119507000Y-80137000D01*
X119253000Y-80137000D01*
X119233000Y-80137000D01*
X119233000Y-79883000D01*
X119253000Y-79883000D01*
X119253000Y-77597000D01*
X119507000Y-77597000D01*
X119507000Y-79883000D01*
X120700155Y-79883000D01*
X120821476Y-79653110D01*
X120776825Y-79505901D01*
X120651641Y-79243080D01*
X120477588Y-79009731D01*
X120261355Y-78814822D01*
X120135745Y-78740000D01*
X120261355Y-78665178D01*
X120477588Y-78470269D01*
X120651641Y-78236920D01*
X120776825Y-77974099D01*
X120821476Y-77826890D01*
X120700155Y-77597000D01*
X119507000Y-77597000D01*
X119253000Y-77597000D01*
X119233000Y-77597000D01*
X119233000Y-77343000D01*
X119253000Y-77343000D01*
X119253000Y-75057000D01*
X119507000Y-75057000D01*
X119507000Y-77343000D01*
X120700155Y-77343000D01*
X120821476Y-77113110D01*
X120776825Y-76965901D01*
X120651641Y-76703080D01*
X120477588Y-76469731D01*
X120261355Y-76274822D01*
X120135745Y-76200000D01*
X120261355Y-76125178D01*
X120477588Y-75930269D01*
X120651641Y-75696920D01*
X120776825Y-75434099D01*
X120821476Y-75286890D01*
X120700155Y-75057000D01*
X119507000Y-75057000D01*
X119253000Y-75057000D01*
X119233000Y-75057000D01*
X119233000Y-74803000D01*
X119253000Y-74803000D01*
X119253000Y-72517000D01*
X119507000Y-72517000D01*
X119507000Y-74803000D01*
X120700155Y-74803000D01*
X120821476Y-74573110D01*
X120776825Y-74425901D01*
X120651641Y-74163080D01*
X120477588Y-73929731D01*
X120261355Y-73734822D01*
X120135745Y-73660000D01*
X120261355Y-73585178D01*
X120477588Y-73390269D01*
X120651641Y-73156920D01*
X120776825Y-72894099D01*
X120821476Y-72746890D01*
X120700155Y-72517000D01*
X119507000Y-72517000D01*
X119253000Y-72517000D01*
X119233000Y-72517000D01*
X119233000Y-72263000D01*
X119253000Y-72263000D01*
X119253000Y-69977000D01*
X119507000Y-69977000D01*
X119507000Y-72263000D01*
X120700155Y-72263000D01*
X120821476Y-72033110D01*
X120776825Y-71885901D01*
X120651641Y-71623080D01*
X120477588Y-71389731D01*
X120261355Y-71194822D01*
X120135745Y-71120000D01*
X120261355Y-71045178D01*
X120477588Y-70850269D01*
X120651641Y-70616920D01*
X120776825Y-70354099D01*
X120821476Y-70206890D01*
X120700155Y-69977000D01*
X119507000Y-69977000D01*
X119253000Y-69977000D01*
X119233000Y-69977000D01*
X119233000Y-69723000D01*
X119253000Y-69723000D01*
X119253000Y-67437000D01*
X119507000Y-67437000D01*
X119507000Y-69723000D01*
X120700155Y-69723000D01*
X120821476Y-69493110D01*
X120776825Y-69345901D01*
X120651641Y-69083080D01*
X120477588Y-68849731D01*
X120261355Y-68654822D01*
X120135745Y-68580000D01*
X120261355Y-68505178D01*
X120477588Y-68310269D01*
X120651641Y-68076920D01*
X120776825Y-67814099D01*
X120821476Y-67666890D01*
X120700155Y-67437000D01*
X119507000Y-67437000D01*
X119253000Y-67437000D01*
X119233000Y-67437000D01*
X119233000Y-67183000D01*
X119253000Y-67183000D01*
X119253000Y-65989186D01*
X119507000Y-65989186D01*
X119507000Y-67183000D01*
X120700155Y-67183000D01*
X120821476Y-66953110D01*
X120776825Y-66805901D01*
X120651641Y-66543080D01*
X120477588Y-66309731D01*
X120261355Y-66114822D01*
X120011252Y-65965843D01*
X119736891Y-65868519D01*
X119507000Y-65989186D01*
X119253000Y-65989186D01*
X119023109Y-65868519D01*
X118748748Y-65965843D01*
X118498645Y-66114822D01*
X118282412Y-66309731D01*
X118111100Y-66539406D01*
X117993475Y-66363368D01*
X117786632Y-66156525D01*
X117543411Y-65994010D01*
X117273158Y-65882068D01*
X116986260Y-65825000D01*
X116693740Y-65825000D01*
X116406842Y-65882068D01*
X116136589Y-65994010D01*
X115893368Y-66156525D01*
X115686525Y-66363368D01*
X115524010Y-66606589D01*
X115412068Y-66876842D01*
X115355000Y-67163740D01*
X115355000Y-67419419D01*
X114444950Y-68329470D01*
X114411183Y-68357182D01*
X114383470Y-68390950D01*
X114383467Y-68390953D01*
X114357932Y-68422068D01*
X114300589Y-68491940D01*
X114218411Y-68645686D01*
X114167804Y-68812509D01*
X114154999Y-68942522D01*
X114154999Y-68942530D01*
X114150718Y-68985999D01*
X114154999Y-69029468D01*
X114154999Y-69320930D01*
X104350930Y-79125000D01*
X102734521Y-79125000D01*
X102714637Y-79095241D01*
X102514759Y-78895363D01*
X102282241Y-78740000D01*
X102514759Y-78584637D01*
X102644396Y-78455000D01*
X102821620Y-78455000D01*
X102870000Y-78459765D01*
X102918380Y-78455000D01*
X103063094Y-78440747D01*
X103248767Y-78384424D01*
X103419884Y-78292960D01*
X103569870Y-78169870D01*
X103600716Y-78132284D01*
X105368000Y-76365000D01*
X105551335Y-76365000D01*
X105828574Y-76309853D01*
X106089727Y-76201680D01*
X106324759Y-76044637D01*
X106524637Y-75844759D01*
X106681680Y-75609727D01*
X106789853Y-75348574D01*
X106845000Y-75071335D01*
X106845000Y-74788665D01*
X106789853Y-74511426D01*
X106681680Y-74250273D01*
X106524637Y-74015241D01*
X106324759Y-73815363D01*
X106089727Y-73658320D01*
X105828574Y-73550147D01*
X105551335Y-73495000D01*
X105268665Y-73495000D01*
X104991426Y-73550147D01*
X104730273Y-73658320D01*
X104495241Y-73815363D01*
X104295363Y-74015241D01*
X104138320Y-74250273D01*
X104030147Y-74511426D01*
X103975000Y-74788665D01*
X103975000Y-74972000D01*
X102553198Y-76393802D01*
X102514759Y-76355363D01*
X102282241Y-76200000D01*
X102514759Y-76044637D01*
X102714637Y-75844759D01*
X102871680Y-75609727D01*
X102979853Y-75348574D01*
X103035000Y-75071335D01*
X103035000Y-74788665D01*
X102979853Y-74511426D01*
X102871680Y-74250273D01*
X102714637Y-74015241D01*
X102514759Y-73815363D01*
X102279727Y-73658320D01*
X102269135Y-73653933D01*
X102455131Y-73542385D01*
X102663519Y-73353414D01*
X102831037Y-73127420D01*
X102951246Y-72873087D01*
X102991904Y-72739039D01*
X102869915Y-72517000D01*
X101727000Y-72517000D01*
X101727000Y-72537000D01*
X101473000Y-72537000D01*
X101473000Y-72517000D01*
X100330085Y-72517000D01*
X100208096Y-72739039D01*
X100248754Y-72873087D01*
X100368963Y-73127420D01*
X100536481Y-73353414D01*
X100744869Y-73542385D01*
X100930865Y-73653933D01*
X100920273Y-73658320D01*
X100685241Y-73815363D01*
X100485363Y-74015241D01*
X100328320Y-74250273D01*
X100220147Y-74511426D01*
X100165000Y-74788665D01*
X100165000Y-75071335D01*
X100220147Y-75348574D01*
X100328320Y-75609727D01*
X100485363Y-75844759D01*
X100685241Y-76044637D01*
X100917759Y-76200000D01*
X100685241Y-76355363D01*
X100485363Y-76555241D01*
X100328320Y-76790273D01*
X100220147Y-77051426D01*
X100165000Y-77328665D01*
X100165000Y-77611335D01*
X100220147Y-77888574D01*
X100328320Y-78149727D01*
X100485363Y-78384759D01*
X100685241Y-78584637D01*
X100917759Y-78740000D01*
X100685241Y-78895363D01*
X100485363Y-79095241D01*
X100328320Y-79330273D01*
X100220147Y-79591426D01*
X100165000Y-79868665D01*
X100165000Y-80151335D01*
X100220147Y-80428574D01*
X100328320Y-80689727D01*
X100485363Y-80924759D01*
X100685241Y-81124637D01*
X100917759Y-81280000D01*
X100685241Y-81435363D01*
X100485363Y-81635241D01*
X100328320Y-81870273D01*
X100220147Y-82131426D01*
X100165000Y-82408665D01*
X100165000Y-82691335D01*
X100220147Y-82968574D01*
X100328320Y-83229727D01*
X100485363Y-83464759D01*
X100685241Y-83664637D01*
X100917759Y-83820000D01*
X100685241Y-83975363D01*
X100485363Y-84175241D01*
X100328320Y-84410273D01*
X100220147Y-84671426D01*
X100165000Y-84948665D01*
X100165000Y-85231335D01*
X100220147Y-85508574D01*
X100328320Y-85769727D01*
X100485363Y-86004759D01*
X100685241Y-86204637D01*
X100917759Y-86360000D01*
X100685241Y-86515363D01*
X100485363Y-86715241D01*
X100328320Y-86950273D01*
X100220147Y-87211426D01*
X100165000Y-87488665D01*
X100165000Y-87771335D01*
X100220147Y-88048574D01*
X100328320Y-88309727D01*
X100485363Y-88544759D01*
X100685241Y-88744637D01*
X100917759Y-88900000D01*
X100685241Y-89055363D01*
X100485363Y-89255241D01*
X100328320Y-89490273D01*
X100220147Y-89751426D01*
X100165000Y-90028665D01*
X100165000Y-90311335D01*
X100220147Y-90588574D01*
X100328320Y-90849727D01*
X100485363Y-91084759D01*
X100685241Y-91284637D01*
X100917759Y-91440000D01*
X100685241Y-91595363D01*
X100485363Y-91795241D01*
X100328320Y-92030273D01*
X100220147Y-92291426D01*
X100165000Y-92568665D01*
X100165000Y-92851335D01*
X100220147Y-93128574D01*
X100328320Y-93389727D01*
X100485363Y-93624759D01*
X100685241Y-93824637D01*
X100917759Y-93980000D01*
X100685241Y-94135363D01*
X100485363Y-94335241D01*
X100328320Y-94570273D01*
X100220147Y-94831426D01*
X100165000Y-95108665D01*
X100165000Y-95391335D01*
X100220147Y-95668574D01*
X100328320Y-95929727D01*
X100485363Y-96164759D01*
X100685241Y-96364637D01*
X100917759Y-96520000D01*
X100685241Y-96675363D01*
X100485363Y-96875241D01*
X100465479Y-96905000D01*
X99559521Y-96905000D01*
X99539637Y-96875241D01*
X99339759Y-96675363D01*
X99104727Y-96518320D01*
X98843574Y-96410147D01*
X98566335Y-96355000D01*
X98283665Y-96355000D01*
X98006426Y-96410147D01*
X97745273Y-96518320D01*
X97510241Y-96675363D01*
X97485026Y-96700578D01*
X97485026Y-86184564D01*
X97915053Y-85754538D01*
X97948820Y-85726826D01*
X97983108Y-85685047D01*
X98059413Y-85592069D01*
X98059414Y-85592068D01*
X98141592Y-85438322D01*
X98192198Y-85271499D01*
X98205003Y-85141486D01*
X98205003Y-85141476D01*
X98209284Y-85098010D01*
X98205003Y-85054544D01*
X98205003Y-83393468D01*
X98209284Y-83350002D01*
X98205003Y-83306536D01*
X98205003Y-83306526D01*
X98192198Y-83176513D01*
X98141592Y-83009690D01*
X98059414Y-82855944D01*
X98025812Y-82815000D01*
X97976535Y-82754956D01*
X97976533Y-82754954D01*
X97948820Y-82721186D01*
X97915052Y-82693473D01*
X97176532Y-81954954D01*
X97148817Y-81921183D01*
X97014059Y-81810589D01*
X96860313Y-81728411D01*
X96693490Y-81677805D01*
X96563477Y-81665000D01*
X96563469Y-81665000D01*
X96520000Y-81660719D01*
X96476531Y-81665000D01*
X96384527Y-81665000D01*
X96364643Y-81635241D01*
X96164765Y-81435363D01*
X95929733Y-81278320D01*
X95668580Y-81170147D01*
X95391341Y-81115000D01*
X95108671Y-81115000D01*
X94831432Y-81170147D01*
X94570279Y-81278320D01*
X94335247Y-81435363D01*
X94135369Y-81635241D01*
X94115485Y-81665000D01*
X87494521Y-81665000D01*
X87474637Y-81635241D01*
X87274759Y-81435363D01*
X87042241Y-81280000D01*
X87274759Y-81124637D01*
X87474637Y-80924759D01*
X87631680Y-80689727D01*
X87739853Y-80428574D01*
X87795000Y-80151335D01*
X87795000Y-79868665D01*
X87739853Y-79591426D01*
X87631680Y-79330273D01*
X87474637Y-79095241D01*
X87274759Y-78895363D01*
X87042241Y-78740000D01*
X87274759Y-78584637D01*
X87474637Y-78384759D01*
X87631680Y-78149727D01*
X87739853Y-77888574D01*
X87795000Y-77611335D01*
X87795000Y-77328665D01*
X87739853Y-77051426D01*
X87631680Y-76790273D01*
X87474637Y-76555241D01*
X87274759Y-76355363D01*
X87042241Y-76200000D01*
X87274759Y-76044637D01*
X87474637Y-75844759D01*
X87631680Y-75609727D01*
X87739853Y-75348574D01*
X87795000Y-75071335D01*
X87795000Y-74788665D01*
X87739853Y-74511426D01*
X87631680Y-74250273D01*
X87474637Y-74015241D01*
X87274759Y-73815363D01*
X87042241Y-73660000D01*
X87274759Y-73504637D01*
X87474637Y-73304759D01*
X87494521Y-73275000D01*
X87765479Y-73275000D01*
X87785363Y-73304759D01*
X87985241Y-73504637D01*
X88220273Y-73661680D01*
X88481426Y-73769853D01*
X88758665Y-73825000D01*
X89041335Y-73825000D01*
X89318574Y-73769853D01*
X89579727Y-73661680D01*
X89814759Y-73504637D01*
X90014637Y-73304759D01*
X90171680Y-73069727D01*
X90279853Y-72808574D01*
X90335000Y-72531335D01*
X90335000Y-72248665D01*
X90279853Y-71971426D01*
X90171680Y-71710273D01*
X90014637Y-71475241D01*
X89814759Y-71275363D01*
X89582241Y-71120000D01*
X89814759Y-70964637D01*
X90014637Y-70764759D01*
X90171680Y-70529727D01*
X90279853Y-70268574D01*
X90335000Y-69991335D01*
X90335000Y-69708665D01*
X100165000Y-69708665D01*
X100165000Y-69991335D01*
X100220147Y-70268574D01*
X100328320Y-70529727D01*
X100485363Y-70764759D01*
X100685241Y-70964637D01*
X100920273Y-71121680D01*
X100930865Y-71126067D01*
X100744869Y-71237615D01*
X100536481Y-71426586D01*
X100368963Y-71652580D01*
X100248754Y-71906913D01*
X100208096Y-72040961D01*
X100330085Y-72263000D01*
X101473000Y-72263000D01*
X101473000Y-72243000D01*
X101727000Y-72243000D01*
X101727000Y-72263000D01*
X102869915Y-72263000D01*
X102991904Y-72040961D01*
X102951246Y-71906913D01*
X102831037Y-71652580D01*
X102663519Y-71426586D01*
X102455131Y-71237615D01*
X102269135Y-71126067D01*
X102279727Y-71121680D01*
X102514759Y-70964637D01*
X102714637Y-70764759D01*
X102871680Y-70529727D01*
X102979853Y-70268574D01*
X103035000Y-69991335D01*
X103035000Y-69708665D01*
X102979853Y-69431426D01*
X102871680Y-69170273D01*
X102714637Y-68935241D01*
X102514759Y-68735363D01*
X102279727Y-68578320D01*
X102018574Y-68470147D01*
X101741335Y-68415000D01*
X101458665Y-68415000D01*
X101181426Y-68470147D01*
X100920273Y-68578320D01*
X100685241Y-68735363D01*
X100485363Y-68935241D01*
X100328320Y-69170273D01*
X100220147Y-69431426D01*
X100165000Y-69708665D01*
X90335000Y-69708665D01*
X90279853Y-69431426D01*
X90171680Y-69170273D01*
X90014637Y-68935241D01*
X89814759Y-68735363D01*
X89579727Y-68578320D01*
X89318574Y-68470147D01*
X89041335Y-68415000D01*
X88758665Y-68415000D01*
X88481426Y-68470147D01*
X88220273Y-68578320D01*
X87985241Y-68735363D01*
X87786643Y-68933961D01*
X87785812Y-68925518D01*
X87749502Y-68805820D01*
X87690537Y-68695506D01*
X87611185Y-68598815D01*
X87514494Y-68519463D01*
X87404180Y-68460498D01*
X87284482Y-68424188D01*
X87160000Y-68411928D01*
X85560000Y-68411928D01*
X85435518Y-68424188D01*
X85315820Y-68460498D01*
X85205506Y-68519463D01*
X85108815Y-68598815D01*
X85029463Y-68695506D01*
X84970498Y-68805820D01*
X84934188Y-68925518D01*
X84921928Y-69050000D01*
X84921928Y-70650000D01*
X84934188Y-70774482D01*
X84970498Y-70894180D01*
X85029463Y-71004494D01*
X85108815Y-71101185D01*
X85205506Y-71180537D01*
X85315820Y-71239502D01*
X85435518Y-71275812D01*
X85443961Y-71276643D01*
X85245363Y-71475241D01*
X85088320Y-71710273D01*
X84980147Y-71971426D01*
X84925000Y-72248665D01*
X84925000Y-72531335D01*
X84980147Y-72808574D01*
X85088320Y-73069727D01*
X85245363Y-73304759D01*
X85445241Y-73504637D01*
X85677759Y-73660000D01*
X85445241Y-73815363D01*
X85245363Y-74015241D01*
X85088320Y-74250273D01*
X84980147Y-74511426D01*
X84925000Y-74788665D01*
X84925000Y-75071335D01*
X84980147Y-75348574D01*
X85088320Y-75609727D01*
X85245363Y-75844759D01*
X85445241Y-76044637D01*
X85677759Y-76200000D01*
X85445241Y-76355363D01*
X85245363Y-76555241D01*
X85088320Y-76790273D01*
X84980147Y-77051426D01*
X84925000Y-77328665D01*
X84925000Y-77611335D01*
X84980147Y-77888574D01*
X85088320Y-78149727D01*
X85245363Y-78384759D01*
X85445241Y-78584637D01*
X85677759Y-78740000D01*
X85445241Y-78895363D01*
X85245363Y-79095241D01*
X85088320Y-79330273D01*
X84980147Y-79591426D01*
X84925000Y-79868665D01*
X84925000Y-80151335D01*
X84931983Y-80186439D01*
X84014950Y-81103472D01*
X83981183Y-81131184D01*
X83953470Y-81164952D01*
X83953467Y-81164955D01*
X83870589Y-81265942D01*
X83788411Y-81419688D01*
X83737804Y-81586511D01*
X83720718Y-81760001D01*
X83725000Y-81803480D01*
X83724999Y-88311915D01*
X82589951Y-89446964D01*
X82556184Y-89474676D01*
X82528471Y-89508444D01*
X82528468Y-89508447D01*
X82445590Y-89609434D01*
X82363412Y-89763180D01*
X82312805Y-89930003D01*
X82295719Y-90103493D01*
X82300001Y-90146972D01*
X82300000Y-99195485D01*
X82270241Y-99215369D01*
X82070363Y-99415247D01*
X82050483Y-99445000D01*
X79106579Y-99445000D01*
X78898017Y-99236439D01*
X78905000Y-99201335D01*
X78905000Y-98918665D01*
X78849853Y-98641426D01*
X78741680Y-98380273D01*
X78584637Y-98145241D01*
X78384759Y-97945363D01*
X78152241Y-97790000D01*
X78384759Y-97634637D01*
X78584637Y-97434759D01*
X78604521Y-97405000D01*
X78875479Y-97405000D01*
X78895363Y-97434759D01*
X79095241Y-97634637D01*
X79330273Y-97791680D01*
X79591426Y-97899853D01*
X79868665Y-97955000D01*
X80151335Y-97955000D01*
X80428574Y-97899853D01*
X80689727Y-97791680D01*
X80924759Y-97634637D01*
X81124637Y-97434759D01*
X81281680Y-97199727D01*
X81389853Y-96938574D01*
X81445000Y-96661335D01*
X81445000Y-96378665D01*
X81389853Y-96101426D01*
X81281680Y-95840273D01*
X81124637Y-95605241D01*
X80924759Y-95405363D01*
X80689727Y-95248320D01*
X80428574Y-95140147D01*
X80151335Y-95085000D01*
X79868665Y-95085000D01*
X79591426Y-95140147D01*
X79330273Y-95248320D01*
X79095241Y-95405363D01*
X78895363Y-95605241D01*
X78875479Y-95635000D01*
X78604521Y-95635000D01*
X78584637Y-95605241D01*
X78384759Y-95405363D01*
X78149727Y-95248320D01*
X78139135Y-95243933D01*
X78325131Y-95132385D01*
X78533519Y-94943414D01*
X78701037Y-94717420D01*
X78821246Y-94463087D01*
X78861904Y-94329039D01*
X78739915Y-94107000D01*
X77597000Y-94107000D01*
X77597000Y-94127000D01*
X77343000Y-94127000D01*
X77343000Y-94107000D01*
X77323000Y-94107000D01*
X77323000Y-93853000D01*
X77343000Y-93853000D01*
X77343000Y-93833000D01*
X77597000Y-93833000D01*
X77597000Y-93853000D01*
X78739915Y-93853000D01*
X78861904Y-93630961D01*
X78821246Y-93496913D01*
X78701037Y-93242580D01*
X78533519Y-93016586D01*
X78325131Y-92827615D01*
X78139135Y-92716067D01*
X78149727Y-92711680D01*
X78384759Y-92554637D01*
X78584637Y-92354759D01*
X78741680Y-92119727D01*
X78849853Y-91858574D01*
X78905000Y-91581335D01*
X78905000Y-91398000D01*
X82672261Y-87630739D01*
X82709847Y-87599893D01*
X82832937Y-87449907D01*
X82924401Y-87278790D01*
X82980724Y-87093117D01*
X82994977Y-86948403D01*
X82994977Y-86948402D01*
X82999742Y-86900024D01*
X82994977Y-86851644D01*
X82994977Y-82058356D01*
X82999742Y-82009977D01*
X82994977Y-81961597D01*
X82994977Y-81868402D01*
X82999742Y-81820023D01*
X82994977Y-81771643D01*
X82994977Y-81041035D01*
X83212284Y-80823728D01*
X83249870Y-80792882D01*
X83372960Y-80642896D01*
X83464424Y-80471779D01*
X83520747Y-80286106D01*
X83535000Y-80141392D01*
X83535000Y-80141391D01*
X83539765Y-80093012D01*
X83535000Y-80044632D01*
X83535000Y-70533390D01*
X83539766Y-70485000D01*
X83535000Y-70436610D01*
X83535000Y-68987999D01*
X84863000Y-67660000D01*
X101837009Y-67660000D01*
X103947710Y-69770702D01*
X103947716Y-69770707D01*
X103975000Y-69797991D01*
X103975000Y-69981326D01*
X104030147Y-70258565D01*
X104138320Y-70519718D01*
X104295363Y-70754750D01*
X104495241Y-70954628D01*
X104730273Y-71111671D01*
X104991426Y-71219844D01*
X105268665Y-71274991D01*
X105551335Y-71274991D01*
X105828574Y-71219844D01*
X106089727Y-71111671D01*
X106324759Y-70954628D01*
X106524637Y-70754750D01*
X106681680Y-70519718D01*
X106789853Y-70258565D01*
X106845000Y-69981326D01*
X106845000Y-69698656D01*
X106839291Y-69669957D01*
X107302823Y-70133489D01*
X107898182Y-70531295D01*
X108559710Y-70805309D01*
X109261984Y-70945000D01*
X109978016Y-70945000D01*
X110680290Y-70805309D01*
X111341818Y-70531295D01*
X111937177Y-70133489D01*
X112443489Y-69627177D01*
X112841295Y-69031818D01*
X113115309Y-68370290D01*
X113255000Y-67668016D01*
X113255000Y-66951984D01*
X113115309Y-66249710D01*
X112841295Y-65588182D01*
X112443489Y-64992823D01*
X111937177Y-64486511D01*
X111341818Y-64088705D01*
X110680290Y-63814691D01*
X109978016Y-63675000D01*
X109261984Y-63675000D01*
X108559710Y-63814691D01*
X107898182Y-64088705D01*
X107302823Y-64486511D01*
X106796511Y-64992823D01*
X106398705Y-65588182D01*
X106124691Y-66249710D01*
X105985000Y-66951984D01*
X105985000Y-67668016D01*
X106124691Y-68370290D01*
X106251483Y-68676393D01*
X106089727Y-68568311D01*
X105828574Y-68460138D01*
X105551335Y-68404991D01*
X105368000Y-68404991D01*
X105340716Y-68377707D01*
X105340711Y-68377701D01*
X103666964Y-66703955D01*
X116674029Y-53696890D01*
X117938524Y-53696890D01*
X117983175Y-53844099D01*
X118108359Y-54106920D01*
X118282412Y-54340269D01*
X118498645Y-54535178D01*
X118748748Y-54684157D01*
X119023109Y-54781481D01*
X119253000Y-54660814D01*
X119253000Y-53467000D01*
X119507000Y-53467000D01*
X119507000Y-54660814D01*
X119736891Y-54781481D01*
X120011252Y-54684157D01*
X120261355Y-54535178D01*
X120477588Y-54340269D01*
X120651641Y-54106920D01*
X120776825Y-53844099D01*
X120821476Y-53696890D01*
X120700155Y-53467000D01*
X119507000Y-53467000D01*
X119253000Y-53467000D01*
X118059845Y-53467000D01*
X117938524Y-53696890D01*
X116674029Y-53696890D01*
X118425406Y-51945513D01*
X118433368Y-51953475D01*
X118615534Y-52075195D01*
X118498645Y-52144822D01*
X118282412Y-52339731D01*
X118108359Y-52573080D01*
X117983175Y-52835901D01*
X117938524Y-52983110D01*
X118059845Y-53213000D01*
X119253000Y-53213000D01*
X119253000Y-53193000D01*
X119507000Y-53193000D01*
X119507000Y-53213000D01*
X120700155Y-53213000D01*
X120821476Y-52983110D01*
X120776825Y-52835901D01*
X120651641Y-52573080D01*
X120477588Y-52339731D01*
X120261355Y-52144822D01*
X120144466Y-52075195D01*
X120326632Y-51953475D01*
X120533475Y-51746632D01*
X120695990Y-51503411D01*
X120807932Y-51233158D01*
X120865000Y-50946260D01*
X120865000Y-50653740D01*
X120807932Y-50366842D01*
X120695990Y-50096589D01*
X120533475Y-49853368D01*
X120326632Y-49646525D01*
X120152240Y-49530000D01*
X120326632Y-49413475D01*
X120533475Y-49206632D01*
X120695990Y-48963411D01*
X120807932Y-48693158D01*
X120865000Y-48406260D01*
X120865000Y-48113740D01*
X120807932Y-47826842D01*
X120695990Y-47556589D01*
X120533475Y-47313368D01*
X120401620Y-47181513D01*
X120474180Y-47159502D01*
X120584494Y-47100537D01*
X120681185Y-47021185D01*
X120760537Y-46924494D01*
X120819502Y-46814180D01*
X120855812Y-46694482D01*
X120868072Y-46570000D01*
X120868072Y-44870000D01*
X120855812Y-44745518D01*
X120819502Y-44625820D01*
X120760537Y-44515506D01*
X120681185Y-44418815D01*
X120584494Y-44339463D01*
X120474180Y-44280498D01*
X120354482Y-44244188D01*
X120230000Y-44231928D01*
X118530000Y-44231928D01*
X118405518Y-44244188D01*
X118285820Y-44280498D01*
X118175506Y-44339463D01*
X118078815Y-44418815D01*
X117999463Y-44515506D01*
X117940498Y-44625820D01*
X117904188Y-44745518D01*
X117895375Y-44835000D01*
X116704521Y-44835000D01*
X116684637Y-44805241D01*
X116484759Y-44605363D01*
X116249727Y-44448320D01*
X115988574Y-44340147D01*
X115711335Y-44285000D01*
X115428665Y-44285000D01*
X115151426Y-44340147D01*
X114890273Y-44448320D01*
X114655241Y-44605363D01*
X114455363Y-44805241D01*
X114298320Y-45040273D01*
X114190147Y-45301426D01*
X114135000Y-45578665D01*
X114135000Y-45861335D01*
X114190147Y-46138574D01*
X114298320Y-46399727D01*
X114455363Y-46634759D01*
X114655241Y-46834637D01*
X114887759Y-46990000D01*
X114655241Y-47145363D01*
X114455363Y-47345241D01*
X114298320Y-47580273D01*
X114190147Y-47841426D01*
X114135000Y-48118665D01*
X114135000Y-48401335D01*
X114190147Y-48678574D01*
X114298320Y-48939727D01*
X114455363Y-49174759D01*
X114655241Y-49374637D01*
X114890273Y-49531680D01*
X115151426Y-49639853D01*
X115428665Y-49695000D01*
X115711335Y-49695000D01*
X115988574Y-49639853D01*
X116249727Y-49531680D01*
X116484759Y-49374637D01*
X116684637Y-49174759D01*
X116704521Y-49145000D01*
X118185344Y-49145000D01*
X118226525Y-49206632D01*
X118433368Y-49413475D01*
X118607760Y-49530000D01*
X118433368Y-49646525D01*
X118264893Y-49815000D01*
X118226298Y-49815000D01*
X118177918Y-49810235D01*
X117984824Y-49829253D01*
X117941610Y-49842362D01*
X117799152Y-49885576D01*
X117628035Y-49977040D01*
X117478049Y-50100130D01*
X117447203Y-50137716D01*
X101894919Y-65690000D01*
X84503380Y-65690000D01*
X84455000Y-65685235D01*
X84406620Y-65690000D01*
X84261906Y-65704253D01*
X84076233Y-65760576D01*
X83905116Y-65852040D01*
X83755130Y-65975130D01*
X83724289Y-66012710D01*
X81887717Y-67849283D01*
X81850131Y-67880129D01*
X81727041Y-68030115D01*
X81682308Y-68113804D01*
X81635576Y-68201233D01*
X81579253Y-68386905D01*
X81560235Y-68579999D01*
X81565001Y-68628389D01*
X81565001Y-69500000D01*
X74069396Y-69500000D01*
X73939759Y-69370363D01*
X73704727Y-69213320D01*
X73443574Y-69105147D01*
X73166335Y-69050000D01*
X72883665Y-69050000D01*
X72606426Y-69105147D01*
X72345273Y-69213320D01*
X72110241Y-69370363D01*
X71910363Y-69570241D01*
X71753320Y-69805273D01*
X71645147Y-70066426D01*
X71590000Y-70343665D01*
X71590000Y-70617356D01*
X71495044Y-70355186D01*
X71205429Y-70214296D01*
X70893892Y-70132616D01*
X70572405Y-70113282D01*
X70253325Y-70157039D01*
X69948912Y-70262205D01*
X69774956Y-70355186D01*
X69679192Y-70619587D01*
X70635000Y-71575395D01*
X70649143Y-71561253D01*
X70828748Y-71740858D01*
X70814605Y-71755000D01*
X71770413Y-72710808D01*
X72034814Y-72615044D01*
X72175704Y-72325429D01*
X72257384Y-72013892D01*
X72275650Y-71710160D01*
X72345273Y-71756680D01*
X72606426Y-71864853D01*
X72883665Y-71920000D01*
X73166335Y-71920000D01*
X73443574Y-71864853D01*
X73704727Y-71756680D01*
X73939759Y-71599637D01*
X74069396Y-71470000D01*
X81565001Y-71470000D01*
X81565000Y-79685012D01*
X81347688Y-79902324D01*
X81310108Y-79933165D01*
X81187018Y-80083151D01*
X81138129Y-80174616D01*
X81095553Y-80254269D01*
X81039230Y-80439942D01*
X81020212Y-80633035D01*
X81024978Y-80681424D01*
X81024978Y-80930000D01*
X78999701Y-80930000D01*
X78995812Y-80890518D01*
X78959502Y-80770820D01*
X78900537Y-80660506D01*
X78821185Y-80563815D01*
X78724494Y-80484463D01*
X78614180Y-80425498D01*
X78494482Y-80389188D01*
X78370000Y-80376928D01*
X76570000Y-80376928D01*
X76445518Y-80389188D01*
X76325820Y-80425498D01*
X76215506Y-80484463D01*
X76118815Y-80563815D01*
X76039463Y-80660506D01*
X75980498Y-80770820D01*
X75944188Y-80890518D01*
X75931928Y-81015000D01*
X75931928Y-82815000D01*
X75944188Y-82939482D01*
X75980498Y-83059180D01*
X76039463Y-83169494D01*
X76118815Y-83266185D01*
X76215506Y-83345537D01*
X76325820Y-83404502D01*
X76445518Y-83440812D01*
X76570000Y-83453072D01*
X78370000Y-83453072D01*
X78494482Y-83440812D01*
X78614180Y-83404502D01*
X78724494Y-83345537D01*
X78821185Y-83266185D01*
X78900537Y-83169494D01*
X78959502Y-83059180D01*
X78995812Y-82939482D01*
X78999701Y-82900000D01*
X81024978Y-82900000D01*
X81024977Y-86492023D01*
X78880666Y-88636334D01*
X78849853Y-88481426D01*
X78741680Y-88220273D01*
X78584637Y-87985241D01*
X78384759Y-87785363D01*
X78152241Y-87630000D01*
X78384759Y-87474637D01*
X78584637Y-87274759D01*
X78741680Y-87039727D01*
X78849853Y-86778574D01*
X78905000Y-86501335D01*
X78905000Y-86218665D01*
X78849853Y-85941426D01*
X78741680Y-85680273D01*
X78584637Y-85445241D01*
X78384759Y-85245363D01*
X78149727Y-85088320D01*
X77888574Y-84980147D01*
X77611335Y-84925000D01*
X77328665Y-84925000D01*
X77051426Y-84980147D01*
X76790273Y-85088320D01*
X76555241Y-85245363D01*
X76355363Y-85445241D01*
X76198320Y-85680273D01*
X76090147Y-85941426D01*
X76035000Y-86218665D01*
X76035000Y-86501335D01*
X76090147Y-86778574D01*
X76198320Y-87039727D01*
X76355363Y-87274759D01*
X76555241Y-87474637D01*
X76787759Y-87630000D01*
X76555241Y-87785363D01*
X76355363Y-87985241D01*
X76198320Y-88220273D01*
X76090147Y-88481426D01*
X76035000Y-88758665D01*
X76035000Y-88885419D01*
X75024955Y-89895465D01*
X74991182Y-89923182D01*
X74880588Y-90057941D01*
X74798410Y-90211687D01*
X74747804Y-90378510D01*
X74734999Y-90508523D01*
X74734999Y-90508530D01*
X74730718Y-90551999D01*
X74734999Y-90595468D01*
X74735000Y-99904522D01*
X74730718Y-99948001D01*
X74747804Y-100121491D01*
X74798411Y-100288314D01*
X74880589Y-100442060D01*
X74963467Y-100543047D01*
X74963470Y-100543050D01*
X74991183Y-100576818D01*
X75024951Y-100604531D01*
X80425466Y-106005047D01*
X80453181Y-106038817D01*
X80486949Y-106066530D01*
X80486951Y-106066532D01*
X80499112Y-106076512D01*
X80587939Y-106149411D01*
X80741685Y-106231589D01*
X80908508Y-106282195D01*
X81038521Y-106295000D01*
X81038531Y-106295000D01*
X81081997Y-106299281D01*
X81125464Y-106295000D01*
X85225479Y-106295000D01*
X85245363Y-106324759D01*
X85445241Y-106524637D01*
X85680273Y-106681680D01*
X85941426Y-106789853D01*
X86218665Y-106845000D01*
X86501335Y-106845000D01*
X86778574Y-106789853D01*
X87039727Y-106681680D01*
X87274759Y-106524637D01*
X87474637Y-106324759D01*
X87631680Y-106089727D01*
X87739853Y-105828574D01*
X87795000Y-105551335D01*
X87795000Y-105268665D01*
X87739853Y-104991426D01*
X87631680Y-104730273D01*
X87474637Y-104495241D01*
X87274759Y-104295363D01*
X87042241Y-104140000D01*
X87274759Y-103984637D01*
X87474637Y-103784759D01*
X87631680Y-103549727D01*
X87739853Y-103288574D01*
X87795000Y-103011335D01*
X87795000Y-102728665D01*
X87739853Y-102451426D01*
X87631680Y-102190273D01*
X87474637Y-101955241D01*
X87274759Y-101755363D01*
X87042241Y-101600000D01*
X87274759Y-101444637D01*
X87474637Y-101244759D01*
X87631680Y-101009727D01*
X87739853Y-100748574D01*
X87794130Y-100475709D01*
X87834940Y-100516519D01*
X87834939Y-108996470D01*
X87830658Y-109039939D01*
X87834939Y-109083408D01*
X87834939Y-109083415D01*
X87841088Y-109145843D01*
X87847744Y-109213429D01*
X87852164Y-109228000D01*
X87898350Y-109380251D01*
X87980528Y-109533997D01*
X88091122Y-109668756D01*
X88124895Y-109696473D01*
X93338421Y-114910000D01*
X51460000Y-114910000D01*
X51460000Y-110766984D01*
X80820000Y-110766984D01*
X80820000Y-111483016D01*
X80959691Y-112185290D01*
X81233705Y-112846818D01*
X81631511Y-113442177D01*
X82137823Y-113948489D01*
X82733182Y-114346295D01*
X83394710Y-114620309D01*
X84096984Y-114760000D01*
X84813016Y-114760000D01*
X85515290Y-114620309D01*
X86176818Y-114346295D01*
X86772177Y-113948489D01*
X87278489Y-113442177D01*
X87676295Y-112846818D01*
X87950309Y-112185290D01*
X88090000Y-111483016D01*
X88090000Y-110766984D01*
X87950309Y-110064710D01*
X87676295Y-109403182D01*
X87278489Y-108807823D01*
X86772177Y-108301511D01*
X86176818Y-107903705D01*
X85515290Y-107629691D01*
X84813016Y-107490000D01*
X84096984Y-107490000D01*
X83394710Y-107629691D01*
X82733182Y-107903705D01*
X82137823Y-108301511D01*
X81631511Y-108807823D01*
X81233705Y-109403182D01*
X80959691Y-110064710D01*
X80820000Y-110766984D01*
X51460000Y-110766984D01*
X51460000Y-80939999D01*
X52428718Y-80939999D01*
X52432999Y-80983468D01*
X52433000Y-89342520D01*
X52428718Y-89385999D01*
X52445804Y-89559489D01*
X52496411Y-89726312D01*
X52578589Y-89880058D01*
X52661467Y-89981045D01*
X52661470Y-89981048D01*
X52689183Y-90014816D01*
X52722950Y-90042528D01*
X53445468Y-90765047D01*
X53473183Y-90798817D01*
X53506951Y-90826530D01*
X53506953Y-90826532D01*
X53526901Y-90842903D01*
X53607941Y-90909411D01*
X53761687Y-90991589D01*
X53911299Y-91036974D01*
X53964525Y-91116632D01*
X54171368Y-91323475D01*
X54353534Y-91445195D01*
X54236645Y-91514822D01*
X54020412Y-91709731D01*
X53846359Y-91943080D01*
X53721175Y-92205901D01*
X53676524Y-92353110D01*
X53797845Y-92583000D01*
X54991000Y-92583000D01*
X54991000Y-92563000D01*
X55245000Y-92563000D01*
X55245000Y-92583000D01*
X56438155Y-92583000D01*
X56559476Y-92353110D01*
X56514825Y-92205901D01*
X56389641Y-91943080D01*
X56215588Y-91709731D01*
X55999355Y-91514822D01*
X55882466Y-91445195D01*
X56064632Y-91323475D01*
X56271475Y-91116632D01*
X56312656Y-91055000D01*
X58495344Y-91055000D01*
X58536525Y-91116632D01*
X58743368Y-91323475D01*
X58925534Y-91445195D01*
X58808645Y-91514822D01*
X58592412Y-91709731D01*
X58418359Y-91943080D01*
X58293175Y-92205901D01*
X58248524Y-92353110D01*
X58369845Y-92583000D01*
X59563000Y-92583000D01*
X59563000Y-92563000D01*
X59817000Y-92563000D01*
X59817000Y-92583000D01*
X61010155Y-92583000D01*
X61131476Y-92353110D01*
X61086825Y-92205901D01*
X60961641Y-91943080D01*
X60787588Y-91709731D01*
X60571355Y-91514822D01*
X60454466Y-91445195D01*
X60636632Y-91323475D01*
X60843475Y-91116632D01*
X61005990Y-90873411D01*
X61117932Y-90603158D01*
X61175000Y-90316260D01*
X61175000Y-90023740D01*
X61117932Y-89736842D01*
X61005990Y-89466589D01*
X60843475Y-89223368D01*
X60636632Y-89016525D01*
X60454466Y-88894805D01*
X60571355Y-88825178D01*
X60787588Y-88630269D01*
X60961641Y-88396920D01*
X61086825Y-88134099D01*
X61131476Y-87986890D01*
X61010156Y-87757002D01*
X61105424Y-87757002D01*
X62071983Y-88723561D01*
X62065000Y-88758665D01*
X62065000Y-89041335D01*
X62120147Y-89318574D01*
X62228320Y-89579727D01*
X62385363Y-89814759D01*
X62585241Y-90014637D01*
X62820273Y-90171680D01*
X63081426Y-90279853D01*
X63358665Y-90335000D01*
X63641335Y-90335000D01*
X63918574Y-90279853D01*
X64179727Y-90171680D01*
X64414759Y-90014637D01*
X64614637Y-89814759D01*
X64771680Y-89579727D01*
X64879853Y-89318574D01*
X64935000Y-89041335D01*
X64935000Y-88922577D01*
X65507470Y-89495047D01*
X65535185Y-89528817D01*
X65568953Y-89556530D01*
X65568955Y-89556532D01*
X65597218Y-89579727D01*
X65669943Y-89639411D01*
X65823689Y-89721589D01*
X65990512Y-89772195D01*
X66120525Y-89785000D01*
X66120535Y-89785000D01*
X66164001Y-89789281D01*
X66177454Y-89787956D01*
X66195363Y-89814759D01*
X66395241Y-90014637D01*
X66627759Y-90170000D01*
X66395241Y-90325363D01*
X66195363Y-90525241D01*
X66175479Y-90555000D01*
X63543476Y-90555000D01*
X63500000Y-90550718D01*
X63456523Y-90555000D01*
X63326510Y-90567805D01*
X63159687Y-90618411D01*
X63005941Y-90700589D01*
X62871183Y-90811183D01*
X62760589Y-90945941D01*
X62678411Y-91099687D01*
X62627805Y-91266510D01*
X62610718Y-91440000D01*
X62615000Y-91483477D01*
X62615001Y-96153420D01*
X61863422Y-96905000D01*
X60884656Y-96905000D01*
X60843475Y-96843368D01*
X60636632Y-96636525D01*
X60462240Y-96520000D01*
X60636632Y-96403475D01*
X60843475Y-96196632D01*
X61005990Y-95953411D01*
X61117932Y-95683158D01*
X61175000Y-95396260D01*
X61175000Y-95103740D01*
X61117932Y-94816842D01*
X61005990Y-94546589D01*
X60843475Y-94303368D01*
X60636632Y-94096525D01*
X60454466Y-93974805D01*
X60571355Y-93905178D01*
X60787588Y-93710269D01*
X60961641Y-93476920D01*
X61086825Y-93214099D01*
X61131476Y-93066890D01*
X61010155Y-92837000D01*
X59817000Y-92837000D01*
X59817000Y-92857000D01*
X59563000Y-92857000D01*
X59563000Y-92837000D01*
X58369845Y-92837000D01*
X58248524Y-93066890D01*
X58293175Y-93214099D01*
X58418359Y-93476920D01*
X58592412Y-93710269D01*
X58808645Y-93905178D01*
X58925534Y-93974805D01*
X58743368Y-94096525D01*
X58536525Y-94303368D01*
X58495344Y-94365000D01*
X56312656Y-94365000D01*
X56271475Y-94303368D01*
X56064632Y-94096525D01*
X55882466Y-93974805D01*
X55999355Y-93905178D01*
X56215588Y-93710269D01*
X56389641Y-93476920D01*
X56514825Y-93214099D01*
X56559476Y-93066890D01*
X56438155Y-92837000D01*
X55245000Y-92837000D01*
X55245000Y-92857000D01*
X54991000Y-92857000D01*
X54991000Y-92837000D01*
X53797845Y-92837000D01*
X53676524Y-93066890D01*
X53721175Y-93214099D01*
X53846359Y-93476920D01*
X54020412Y-93710269D01*
X54236645Y-93905178D01*
X54353534Y-93974805D01*
X54171368Y-94096525D01*
X53964525Y-94303368D01*
X53925569Y-94361669D01*
X53915919Y-94360719D01*
X53872450Y-94365000D01*
X53872442Y-94365000D01*
X53742429Y-94377805D01*
X53575605Y-94428411D01*
X53421860Y-94510589D01*
X53320872Y-94593468D01*
X53320870Y-94593470D01*
X53287102Y-94621183D01*
X53259389Y-94654951D01*
X52722950Y-95191391D01*
X52689183Y-95219103D01*
X52661470Y-95252871D01*
X52661467Y-95252874D01*
X52578589Y-95353861D01*
X52496411Y-95507607D01*
X52445804Y-95674430D01*
X52428718Y-95847920D01*
X52433000Y-95891399D01*
X52432999Y-101150532D01*
X52428718Y-101194001D01*
X52432999Y-101237470D01*
X52432999Y-101237477D01*
X52444211Y-101351315D01*
X52445804Y-101367491D01*
X52452811Y-101390590D01*
X52496410Y-101534313D01*
X52578588Y-101688059D01*
X52689182Y-101822818D01*
X52722955Y-101850535D01*
X53597469Y-102725050D01*
X53625182Y-102758818D01*
X53658950Y-102786531D01*
X53658952Y-102786533D01*
X53759939Y-102869411D01*
X53759940Y-102869412D01*
X53913686Y-102951590D01*
X54080509Y-103002196D01*
X54210522Y-103015001D01*
X54210530Y-103015001D01*
X54253999Y-103019282D01*
X54297468Y-103015001D01*
X66786532Y-103015001D01*
X66830001Y-103019282D01*
X66873470Y-103015001D01*
X66873478Y-103015001D01*
X67003491Y-103002196D01*
X67170314Y-102951590D01*
X67324060Y-102869412D01*
X67458818Y-102758818D01*
X67486535Y-102725045D01*
X69655050Y-100556531D01*
X69688818Y-100528818D01*
X69735994Y-100471335D01*
X69799411Y-100394061D01*
X69799412Y-100394060D01*
X69881590Y-100240314D01*
X69932196Y-100073491D01*
X69945001Y-99943478D01*
X69945001Y-99943468D01*
X69949282Y-99900002D01*
X69945001Y-99856536D01*
X69945001Y-86653470D01*
X69949282Y-86610001D01*
X69945001Y-86566532D01*
X69945001Y-86566524D01*
X69932196Y-86436511D01*
X69881590Y-86269688D01*
X69799412Y-86115942D01*
X69688818Y-85981184D01*
X69655046Y-85953468D01*
X69466534Y-85764956D01*
X69438817Y-85731183D01*
X69304059Y-85620589D01*
X69150313Y-85538411D01*
X68983490Y-85487805D01*
X68853477Y-85475000D01*
X68853469Y-85475000D01*
X68810000Y-85470719D01*
X68766531Y-85475000D01*
X68739701Y-85475000D01*
X68735812Y-85435518D01*
X68699502Y-85315820D01*
X68640537Y-85205506D01*
X68561185Y-85108815D01*
X68464494Y-85029463D01*
X68354180Y-84970498D01*
X68234482Y-84934188D01*
X68110000Y-84921928D01*
X66510000Y-84921928D01*
X66385518Y-84934188D01*
X66265820Y-84970498D01*
X66155506Y-85029463D01*
X66058815Y-85108815D01*
X65979463Y-85205506D01*
X65920498Y-85315820D01*
X65884188Y-85435518D01*
X65871928Y-85560000D01*
X65871928Y-87160000D01*
X65884188Y-87284482D01*
X65920498Y-87404180D01*
X65921344Y-87405764D01*
X64364467Y-85848887D01*
X64583012Y-85805415D01*
X64844165Y-85697242D01*
X65079197Y-85540199D01*
X65279075Y-85340321D01*
X65436118Y-85105289D01*
X65544291Y-84844136D01*
X65599438Y-84566897D01*
X65599438Y-84284227D01*
X65544291Y-84006988D01*
X65436118Y-83745835D01*
X65279075Y-83510803D01*
X65079197Y-83310925D01*
X65049438Y-83291041D01*
X65049438Y-82800000D01*
X66055210Y-82800000D01*
X66117688Y-82893505D01*
X66331495Y-83107312D01*
X66582905Y-83275299D01*
X66862257Y-83391011D01*
X67158816Y-83450000D01*
X67461184Y-83450000D01*
X67757743Y-83391011D01*
X68037095Y-83275299D01*
X68288505Y-83107312D01*
X68502312Y-82893505D01*
X68670299Y-82642095D01*
X68786011Y-82362743D01*
X68845000Y-82066184D01*
X68845000Y-81763816D01*
X68786011Y-81467257D01*
X68670299Y-81187905D01*
X68502312Y-80936495D01*
X68288505Y-80722688D01*
X68037095Y-80554701D01*
X67757743Y-80438989D01*
X67461184Y-80380000D01*
X67158816Y-80380000D01*
X66862257Y-80438989D01*
X66582905Y-80554701D01*
X66331495Y-80722688D01*
X66117688Y-80936495D01*
X66055210Y-81030000D01*
X64178469Y-81030000D01*
X64135000Y-81025719D01*
X64091531Y-81030000D01*
X62596579Y-81030000D01*
X60981532Y-79414954D01*
X60953817Y-79381183D01*
X60819059Y-79270589D01*
X60665313Y-79188411D01*
X60498490Y-79137805D01*
X60368477Y-79125000D01*
X60368469Y-79125000D01*
X60325000Y-79120719D01*
X60281531Y-79125000D01*
X54291463Y-79125000D01*
X54247997Y-79120719D01*
X54204531Y-79125000D01*
X54204521Y-79125000D01*
X54074508Y-79137805D01*
X53907685Y-79188411D01*
X53753939Y-79270589D01*
X53753937Y-79270590D01*
X53753938Y-79270590D01*
X53652951Y-79353468D01*
X53652949Y-79353470D01*
X53619181Y-79381183D01*
X53591468Y-79414951D01*
X52722955Y-80283465D01*
X52689182Y-80311182D01*
X52578588Y-80445941D01*
X52496410Y-80599687D01*
X52469096Y-80689727D01*
X52445804Y-80766509D01*
X52444779Y-80776920D01*
X52432999Y-80896523D01*
X52432999Y-80896530D01*
X52428718Y-80939999D01*
X51460000Y-80939999D01*
X51460000Y-66951984D01*
X55655000Y-66951984D01*
X55655000Y-67668016D01*
X55794691Y-68370290D01*
X56068705Y-69031818D01*
X56466511Y-69627177D01*
X56972823Y-70133489D01*
X57568182Y-70531295D01*
X58229710Y-70805309D01*
X58931984Y-70945000D01*
X59648016Y-70945000D01*
X60159081Y-70843343D01*
X59729951Y-71272472D01*
X59696184Y-71300185D01*
X59668471Y-71333953D01*
X59668468Y-71333956D01*
X59585590Y-71434943D01*
X59503412Y-71588689D01*
X59452805Y-71755512D01*
X59435719Y-71929002D01*
X59440001Y-71972481D01*
X59440000Y-75065479D01*
X59410241Y-75085363D01*
X59210363Y-75285241D01*
X59053320Y-75520273D01*
X58945147Y-75781426D01*
X58890000Y-76058665D01*
X58890000Y-76341335D01*
X58945147Y-76618574D01*
X59053320Y-76879727D01*
X59210363Y-77114759D01*
X59410241Y-77314637D01*
X59645273Y-77471680D01*
X59906426Y-77579853D01*
X60183665Y-77635000D01*
X60466335Y-77635000D01*
X60743574Y-77579853D01*
X61004727Y-77471680D01*
X61239759Y-77314637D01*
X61439637Y-77114759D01*
X61459521Y-77085000D01*
X62723191Y-77085000D01*
X62865013Y-77297252D01*
X63092748Y-77524987D01*
X63360537Y-77703918D01*
X63658088Y-77827168D01*
X63973967Y-77890000D01*
X64296033Y-77890000D01*
X64611912Y-77827168D01*
X64909463Y-77703918D01*
X65177252Y-77524987D01*
X65404987Y-77297252D01*
X65510059Y-77140000D01*
X69259941Y-77140000D01*
X69365013Y-77297252D01*
X69592748Y-77524987D01*
X69860537Y-77703918D01*
X70158088Y-77827168D01*
X70473967Y-77890000D01*
X70796033Y-77890000D01*
X71111912Y-77827168D01*
X71409463Y-77703918D01*
X71677252Y-77524987D01*
X71904987Y-77297252D01*
X72083918Y-77029463D01*
X72207168Y-76731912D01*
X72270000Y-76416033D01*
X72270000Y-76093967D01*
X72207168Y-75778088D01*
X72083918Y-75480537D01*
X71904987Y-75212748D01*
X71677252Y-74985013D01*
X71409463Y-74806082D01*
X71111912Y-74682832D01*
X70796033Y-74620000D01*
X70473967Y-74620000D01*
X70158088Y-74682832D01*
X69860537Y-74806082D01*
X69592748Y-74985013D01*
X69365013Y-75212748D01*
X69259941Y-75370000D01*
X65510059Y-75370000D01*
X65404987Y-75212748D01*
X65177252Y-74985013D01*
X64909463Y-74806082D01*
X64611912Y-74682832D01*
X64296033Y-74620000D01*
X63973967Y-74620000D01*
X63658088Y-74682832D01*
X63360537Y-74806082D01*
X63092748Y-74985013D01*
X62865013Y-75212748D01*
X62796690Y-75315000D01*
X61459521Y-75315000D01*
X61439637Y-75285241D01*
X61239759Y-75085363D01*
X61210000Y-75065479D01*
X61210000Y-72890413D01*
X63179192Y-72890413D01*
X63274956Y-73154814D01*
X63564571Y-73295704D01*
X63876108Y-73377384D01*
X64197595Y-73396718D01*
X64516675Y-73352961D01*
X64821088Y-73247795D01*
X64995044Y-73154814D01*
X65090808Y-72890413D01*
X69679192Y-72890413D01*
X69774956Y-73154814D01*
X70064571Y-73295704D01*
X70376108Y-73377384D01*
X70697595Y-73396718D01*
X71016675Y-73352961D01*
X71321088Y-73247795D01*
X71495044Y-73154814D01*
X71590808Y-72890413D01*
X70635000Y-71934605D01*
X69679192Y-72890413D01*
X65090808Y-72890413D01*
X64135000Y-71934605D01*
X63179192Y-72890413D01*
X61210000Y-72890413D01*
X61210000Y-72295580D01*
X61687985Y-71817595D01*
X62493282Y-71817595D01*
X62537039Y-72136675D01*
X62642205Y-72441088D01*
X62735186Y-72615044D01*
X62999587Y-72710808D01*
X63955395Y-71755000D01*
X64314605Y-71755000D01*
X65270413Y-72710808D01*
X65534814Y-72615044D01*
X65675704Y-72325429D01*
X65757384Y-72013892D01*
X65769189Y-71817595D01*
X68993282Y-71817595D01*
X69037039Y-72136675D01*
X69142205Y-72441088D01*
X69235186Y-72615044D01*
X69499587Y-72710808D01*
X70455395Y-71755000D01*
X69499587Y-70799192D01*
X69235186Y-70894956D01*
X69094296Y-71184571D01*
X69012616Y-71496108D01*
X68993282Y-71817595D01*
X65769189Y-71817595D01*
X65776718Y-71692405D01*
X65732961Y-71373325D01*
X65627795Y-71068912D01*
X65534814Y-70894956D01*
X65270413Y-70799192D01*
X64314605Y-71755000D01*
X63955395Y-71755000D01*
X62999587Y-70799192D01*
X62735186Y-70894956D01*
X62594296Y-71184571D01*
X62512616Y-71496108D01*
X62493282Y-71817595D01*
X61687985Y-71817595D01*
X62885993Y-70619587D01*
X63179192Y-70619587D01*
X64135000Y-71575395D01*
X65090808Y-70619587D01*
X64995044Y-70355186D01*
X64705429Y-70214296D01*
X64393892Y-70132616D01*
X64072405Y-70113282D01*
X63753325Y-70157039D01*
X63448912Y-70262205D01*
X63274956Y-70355186D01*
X63179192Y-70619587D01*
X62885993Y-70619587D01*
X64730050Y-68775531D01*
X64763817Y-68747819D01*
X64805914Y-68696525D01*
X64874411Y-68613061D01*
X64956589Y-68459316D01*
X65007195Y-68292492D01*
X65016183Y-68201232D01*
X65020000Y-68162479D01*
X65020000Y-68162471D01*
X65024281Y-68119002D01*
X65020000Y-68075533D01*
X65020000Y-64295059D01*
X65177252Y-64189987D01*
X65404987Y-63962252D01*
X65510059Y-63805000D01*
X69259941Y-63805000D01*
X69365013Y-63962252D01*
X69592748Y-64189987D01*
X69860537Y-64368918D01*
X70158088Y-64492168D01*
X70473967Y-64555000D01*
X70796033Y-64555000D01*
X71111912Y-64492168D01*
X71409463Y-64368918D01*
X71677252Y-64189987D01*
X71904987Y-63962252D01*
X71980237Y-63849633D01*
X72110241Y-63979637D01*
X72345273Y-64136680D01*
X72606426Y-64244853D01*
X72883665Y-64300000D01*
X73166335Y-64300000D01*
X73443574Y-64244853D01*
X73704727Y-64136680D01*
X73939759Y-63979637D01*
X74139637Y-63779759D01*
X74296680Y-63544727D01*
X74404853Y-63283574D01*
X74460000Y-63006335D01*
X74460000Y-62723665D01*
X74404853Y-62446426D01*
X74296680Y-62185273D01*
X74139637Y-61950241D01*
X73939759Y-61750363D01*
X73704727Y-61593320D01*
X73443574Y-61485147D01*
X73166335Y-61430000D01*
X72883665Y-61430000D01*
X72606426Y-61485147D01*
X72345273Y-61593320D01*
X72110241Y-61750363D01*
X71936177Y-61924427D01*
X71904987Y-61877748D01*
X71677252Y-61650013D01*
X71409463Y-61471082D01*
X71111912Y-61347832D01*
X70796033Y-61285000D01*
X70473967Y-61285000D01*
X70158088Y-61347832D01*
X69860537Y-61471082D01*
X69592748Y-61650013D01*
X69365013Y-61877748D01*
X69259941Y-62035000D01*
X65510059Y-62035000D01*
X65404987Y-61877748D01*
X65177252Y-61650013D01*
X64909463Y-61471082D01*
X64611912Y-61347832D01*
X64296033Y-61285000D01*
X63973967Y-61285000D01*
X63788475Y-61321896D01*
X59305000Y-56838422D01*
X59305000Y-54715059D01*
X59462252Y-54609987D01*
X59689987Y-54382252D01*
X59795059Y-54225000D01*
X63544941Y-54225000D01*
X63650013Y-54382252D01*
X63759366Y-54491605D01*
X63716426Y-54500147D01*
X63455273Y-54608320D01*
X63220241Y-54765363D01*
X63020363Y-54965241D01*
X62863320Y-55200273D01*
X62755147Y-55461426D01*
X62700000Y-55738665D01*
X62700000Y-56021335D01*
X62755147Y-56298574D01*
X62863320Y-56559727D01*
X63020363Y-56794759D01*
X63220241Y-56994637D01*
X63250001Y-57014522D01*
X63250001Y-57044940D01*
X63092748Y-57150013D01*
X62865013Y-57377748D01*
X62686082Y-57645537D01*
X62562832Y-57943088D01*
X62500000Y-58258967D01*
X62500000Y-58581033D01*
X62562832Y-58896912D01*
X62686082Y-59194463D01*
X62865013Y-59462252D01*
X63092748Y-59689987D01*
X63360537Y-59868918D01*
X63658088Y-59992168D01*
X63973967Y-60055000D01*
X64296033Y-60055000D01*
X64611912Y-59992168D01*
X64909463Y-59868918D01*
X65177252Y-59689987D01*
X65404987Y-59462252D01*
X65510059Y-59305000D01*
X69259941Y-59305000D01*
X69365013Y-59462252D01*
X69592748Y-59689987D01*
X69860537Y-59868918D01*
X70158088Y-59992168D01*
X70473967Y-60055000D01*
X70796033Y-60055000D01*
X71111912Y-59992168D01*
X71409463Y-59868918D01*
X71677252Y-59689987D01*
X71904987Y-59462252D01*
X72083918Y-59194463D01*
X72207168Y-58896912D01*
X72270000Y-58581033D01*
X72270000Y-58258967D01*
X72207168Y-57943088D01*
X72083918Y-57645537D01*
X71904987Y-57377748D01*
X71677252Y-57150013D01*
X71409463Y-56971082D01*
X71151042Y-56864040D01*
X77348091Y-56864040D01*
X77442930Y-57128881D01*
X77587615Y-57370131D01*
X77776586Y-57578519D01*
X78002580Y-57746037D01*
X78256913Y-57866246D01*
X78390961Y-57906904D01*
X78613000Y-57784915D01*
X78613000Y-56642000D01*
X78867000Y-56642000D01*
X78867000Y-57784915D01*
X79089039Y-57906904D01*
X79223087Y-57866246D01*
X79477420Y-57746037D01*
X79703414Y-57578519D01*
X79892385Y-57370131D01*
X80037070Y-57128881D01*
X80131909Y-56864040D01*
X80010624Y-56642000D01*
X78867000Y-56642000D01*
X78613000Y-56642000D01*
X77469376Y-56642000D01*
X77348091Y-56864040D01*
X71151042Y-56864040D01*
X71111912Y-56847832D01*
X70796033Y-56785000D01*
X70473967Y-56785000D01*
X70158088Y-56847832D01*
X69860537Y-56971082D01*
X69592748Y-57150013D01*
X69365013Y-57377748D01*
X69259941Y-57535000D01*
X65510059Y-57535000D01*
X65404987Y-57377748D01*
X65177252Y-57150013D01*
X65020000Y-57044941D01*
X65020000Y-57014521D01*
X65049759Y-56994637D01*
X65249637Y-56794759D01*
X65406680Y-56559727D01*
X65514853Y-56298574D01*
X65541231Y-56165960D01*
X77348091Y-56165960D01*
X77469376Y-56388000D01*
X78613000Y-56388000D01*
X78613000Y-55245085D01*
X78867000Y-55245085D01*
X78867000Y-56388000D01*
X80010624Y-56388000D01*
X80131909Y-56165960D01*
X80037070Y-55901119D01*
X79892385Y-55659869D01*
X79703414Y-55451481D01*
X79477420Y-55283963D01*
X79223087Y-55163754D01*
X79089039Y-55123096D01*
X78867000Y-55245085D01*
X78613000Y-55245085D01*
X78390961Y-55123096D01*
X78256913Y-55163754D01*
X78002580Y-55283963D01*
X77776586Y-55451481D01*
X77587615Y-55659869D01*
X77442930Y-55901119D01*
X77348091Y-56165960D01*
X65541231Y-56165960D01*
X65570000Y-56021335D01*
X65570000Y-55738665D01*
X65514853Y-55461426D01*
X65406680Y-55200273D01*
X65249637Y-54965241D01*
X65229804Y-54945408D01*
X65396912Y-54912168D01*
X65694463Y-54788918D01*
X65962252Y-54609987D01*
X66189987Y-54382252D01*
X66295059Y-54225000D01*
X67266523Y-54225000D01*
X67310000Y-54229282D01*
X67353476Y-54225000D01*
X68474941Y-54225000D01*
X68580013Y-54382252D01*
X68807748Y-54609987D01*
X69075537Y-54788918D01*
X69373088Y-54912168D01*
X69688967Y-54975000D01*
X70011033Y-54975000D01*
X70326912Y-54912168D01*
X70624463Y-54788918D01*
X70892252Y-54609987D01*
X71119987Y-54382252D01*
X71225059Y-54225000D01*
X74974941Y-54225000D01*
X75080013Y-54382252D01*
X75307748Y-54609987D01*
X75575537Y-54788918D01*
X75873088Y-54912168D01*
X76188967Y-54975000D01*
X76511033Y-54975000D01*
X76826912Y-54912168D01*
X77124463Y-54788918D01*
X77392252Y-54609987D01*
X77619987Y-54382252D01*
X77798918Y-54114463D01*
X77922168Y-53816912D01*
X77985000Y-53501033D01*
X77985000Y-53178967D01*
X77922168Y-52863088D01*
X77798918Y-52565537D01*
X77619987Y-52297748D01*
X77392252Y-52070013D01*
X77124463Y-51891082D01*
X76826912Y-51767832D01*
X76511033Y-51705000D01*
X76188967Y-51705000D01*
X75873088Y-51767832D01*
X75575537Y-51891082D01*
X75307748Y-52070013D01*
X75080013Y-52297748D01*
X74974941Y-52455000D01*
X71225059Y-52455000D01*
X71119987Y-52297748D01*
X70892252Y-52070013D01*
X70624463Y-51891082D01*
X70326912Y-51767832D01*
X70011033Y-51705000D01*
X69688967Y-51705000D01*
X69373088Y-51767832D01*
X69075537Y-51891082D01*
X68807748Y-52070013D01*
X68580013Y-52297748D01*
X68474941Y-52455000D01*
X68195000Y-52455000D01*
X68195000Y-48678967D01*
X68215000Y-48678967D01*
X68215000Y-49001033D01*
X68277832Y-49316912D01*
X68401082Y-49614463D01*
X68580013Y-49882252D01*
X68807748Y-50109987D01*
X69075537Y-50288918D01*
X69373088Y-50412168D01*
X69688967Y-50475000D01*
X70011033Y-50475000D01*
X70326912Y-50412168D01*
X70624463Y-50288918D01*
X70892252Y-50109987D01*
X71119987Y-49882252D01*
X71225059Y-49725000D01*
X74974941Y-49725000D01*
X75080013Y-49882252D01*
X75307748Y-50109987D01*
X75575537Y-50288918D01*
X75873088Y-50412168D01*
X76188967Y-50475000D01*
X76511033Y-50475000D01*
X76826912Y-50412168D01*
X77124463Y-50288918D01*
X77392252Y-50109987D01*
X77619987Y-49882252D01*
X77651177Y-49835573D01*
X77825241Y-50009637D01*
X78060273Y-50166680D01*
X78321426Y-50274853D01*
X78598665Y-50330000D01*
X78881335Y-50330000D01*
X79158574Y-50274853D01*
X79419727Y-50166680D01*
X79654759Y-50009637D01*
X79854637Y-49809759D01*
X80011680Y-49574727D01*
X80119853Y-49313574D01*
X80175000Y-49036335D01*
X80175000Y-48753665D01*
X80119853Y-48476426D01*
X80011680Y-48215273D01*
X79854637Y-47980241D01*
X79654759Y-47780363D01*
X79419727Y-47623320D01*
X79158574Y-47515147D01*
X78881335Y-47460000D01*
X78598665Y-47460000D01*
X78321426Y-47515147D01*
X78060273Y-47623320D01*
X77825241Y-47780363D01*
X77695237Y-47910367D01*
X77619987Y-47797748D01*
X77392252Y-47570013D01*
X77124463Y-47391082D01*
X76826912Y-47267832D01*
X76511033Y-47205000D01*
X76188967Y-47205000D01*
X75873088Y-47267832D01*
X75575537Y-47391082D01*
X75307748Y-47570013D01*
X75080013Y-47797748D01*
X74974941Y-47955000D01*
X71225059Y-47955000D01*
X71119987Y-47797748D01*
X70892252Y-47570013D01*
X70624463Y-47391082D01*
X70326912Y-47267832D01*
X70011033Y-47205000D01*
X69688967Y-47205000D01*
X69373088Y-47267832D01*
X69075537Y-47391082D01*
X68807748Y-47570013D01*
X68580013Y-47797748D01*
X68401082Y-48065537D01*
X68277832Y-48363088D01*
X68215000Y-48678967D01*
X68195000Y-48678967D01*
X68195000Y-44755000D01*
X69259941Y-44755000D01*
X69365013Y-44912252D01*
X69592748Y-45139987D01*
X69860537Y-45318918D01*
X70158088Y-45442168D01*
X70473967Y-45505000D01*
X70796033Y-45505000D01*
X71111912Y-45442168D01*
X71409463Y-45318918D01*
X71677252Y-45139987D01*
X71904987Y-44912252D01*
X71980632Y-44799040D01*
X77348091Y-44799040D01*
X77442930Y-45063881D01*
X77587615Y-45305131D01*
X77776586Y-45513519D01*
X78002580Y-45681037D01*
X78256913Y-45801246D01*
X78390961Y-45841904D01*
X78613000Y-45719915D01*
X78613000Y-44577000D01*
X78867000Y-44577000D01*
X78867000Y-45719915D01*
X79089039Y-45841904D01*
X79223087Y-45801246D01*
X79477420Y-45681037D01*
X79703414Y-45513519D01*
X79892385Y-45305131D01*
X80037070Y-45063881D01*
X80131909Y-44799040D01*
X80010624Y-44577000D01*
X78867000Y-44577000D01*
X78613000Y-44577000D01*
X77469376Y-44577000D01*
X77348091Y-44799040D01*
X71980632Y-44799040D01*
X72083918Y-44644463D01*
X72207168Y-44346912D01*
X72256090Y-44100960D01*
X77348091Y-44100960D01*
X77469376Y-44323000D01*
X78613000Y-44323000D01*
X78613000Y-43180085D01*
X78867000Y-43180085D01*
X78867000Y-44323000D01*
X80010624Y-44323000D01*
X80131909Y-44100960D01*
X80037070Y-43836119D01*
X79892385Y-43594869D01*
X79703414Y-43386481D01*
X79477420Y-43218963D01*
X79223087Y-43098754D01*
X79089039Y-43058096D01*
X78867000Y-43180085D01*
X78613000Y-43180085D01*
X78390961Y-43058096D01*
X78256913Y-43098754D01*
X78002580Y-43218963D01*
X77776586Y-43386481D01*
X77587615Y-43594869D01*
X77442930Y-43836119D01*
X77348091Y-44100960D01*
X72256090Y-44100960D01*
X72270000Y-44031033D01*
X72270000Y-43708967D01*
X72207168Y-43393088D01*
X72083918Y-43095537D01*
X71904987Y-42827748D01*
X71677252Y-42600013D01*
X71409463Y-42421082D01*
X71111912Y-42297832D01*
X70796033Y-42235000D01*
X70473967Y-42235000D01*
X70158088Y-42297832D01*
X69860537Y-42421082D01*
X69592748Y-42600013D01*
X69365013Y-42827748D01*
X69259941Y-42985000D01*
X67622586Y-42985000D01*
X67483490Y-42942805D01*
X67310000Y-42925718D01*
X67136511Y-42942805D01*
X66997415Y-42985000D01*
X65510059Y-42985000D01*
X65404987Y-42827748D01*
X65177252Y-42600013D01*
X64909463Y-42421082D01*
X64611912Y-42297832D01*
X64296033Y-42235000D01*
X63973967Y-42235000D01*
X63658088Y-42297832D01*
X63360537Y-42421082D01*
X63092748Y-42600013D01*
X62865013Y-42827748D01*
X62686082Y-43095537D01*
X62562832Y-43393088D01*
X62500000Y-43708967D01*
X62500000Y-44031033D01*
X62562832Y-44346912D01*
X62686082Y-44644463D01*
X62865013Y-44912252D01*
X63092748Y-45139987D01*
X63360537Y-45318918D01*
X63658088Y-45442168D01*
X63973967Y-45505000D01*
X64296033Y-45505000D01*
X64611912Y-45442168D01*
X64909463Y-45318918D01*
X65177252Y-45139987D01*
X65404987Y-44912252D01*
X65510059Y-44755000D01*
X66425001Y-44755000D01*
X66425001Y-48200932D01*
X66368918Y-48065537D01*
X66189987Y-47797748D01*
X65962252Y-47570013D01*
X65694463Y-47391082D01*
X65396912Y-47267832D01*
X65081033Y-47205000D01*
X64758967Y-47205000D01*
X64443088Y-47267832D01*
X64145537Y-47391082D01*
X63877748Y-47570013D01*
X63650013Y-47797748D01*
X63544941Y-47955000D01*
X59795059Y-47955000D01*
X59689987Y-47797748D01*
X59462252Y-47570013D01*
X59305000Y-47464941D01*
X59305000Y-46854521D01*
X59334759Y-46834637D01*
X59534637Y-46634759D01*
X59691680Y-46399727D01*
X59799853Y-46138574D01*
X59855000Y-45861335D01*
X59855000Y-45578665D01*
X59799853Y-45301426D01*
X59691680Y-45040273D01*
X59534637Y-44805241D01*
X59334759Y-44605363D01*
X59099727Y-44448320D01*
X58838574Y-44340147D01*
X58561335Y-44285000D01*
X58278665Y-44285000D01*
X58001426Y-44340147D01*
X57740273Y-44448320D01*
X57505241Y-44605363D01*
X57305363Y-44805241D01*
X57148320Y-45040273D01*
X57040147Y-45301426D01*
X56985000Y-45578665D01*
X56985000Y-45861335D01*
X57040147Y-46138574D01*
X57148320Y-46399727D01*
X57305363Y-46634759D01*
X57505241Y-46834637D01*
X57535000Y-46854522D01*
X57535001Y-47464940D01*
X57377748Y-47570013D01*
X57150013Y-47797748D01*
X56971082Y-48065537D01*
X56847832Y-48363088D01*
X56785000Y-48678967D01*
X56785000Y-49001033D01*
X56847832Y-49316912D01*
X56971082Y-49614463D01*
X57150013Y-49882252D01*
X57377748Y-50109987D01*
X57645537Y-50288918D01*
X57943088Y-50412168D01*
X58258967Y-50475000D01*
X58581033Y-50475000D01*
X58896912Y-50412168D01*
X59194463Y-50288918D01*
X59462252Y-50109987D01*
X59689987Y-49882252D01*
X59795059Y-49725000D01*
X63544941Y-49725000D01*
X63650013Y-49882252D01*
X63877748Y-50109987D01*
X64145537Y-50288918D01*
X64443088Y-50412168D01*
X64758967Y-50475000D01*
X65081033Y-50475000D01*
X65396912Y-50412168D01*
X65694463Y-50288918D01*
X65962252Y-50109987D01*
X66189987Y-49882252D01*
X66368918Y-49614463D01*
X66425000Y-49479068D01*
X66425000Y-52455000D01*
X66295059Y-52455000D01*
X66189987Y-52297748D01*
X65962252Y-52070013D01*
X65694463Y-51891082D01*
X65396912Y-51767832D01*
X65081033Y-51705000D01*
X64758967Y-51705000D01*
X64443088Y-51767832D01*
X64145537Y-51891082D01*
X63877748Y-52070013D01*
X63650013Y-52297748D01*
X63544941Y-52455000D01*
X59795059Y-52455000D01*
X59689987Y-52297748D01*
X59462252Y-52070013D01*
X59194463Y-51891082D01*
X58896912Y-51767832D01*
X58581033Y-51705000D01*
X58258967Y-51705000D01*
X57943088Y-51767832D01*
X57645537Y-51891082D01*
X57377748Y-52070013D01*
X57150013Y-52297748D01*
X56971082Y-52565537D01*
X56847832Y-52863088D01*
X56785000Y-53178967D01*
X56785000Y-53501033D01*
X56847832Y-53816912D01*
X56971082Y-54114463D01*
X57150013Y-54382252D01*
X57377748Y-54609987D01*
X57535001Y-54715060D01*
X57535001Y-54877123D01*
X57370131Y-54727615D01*
X57128881Y-54582930D01*
X56864040Y-54488091D01*
X56642000Y-54609376D01*
X56642000Y-55753000D01*
X56662000Y-55753000D01*
X56662000Y-56007000D01*
X56642000Y-56007000D01*
X56642000Y-57150624D01*
X56864040Y-57271909D01*
X57128881Y-57177070D01*
X57370131Y-57032385D01*
X57535000Y-56882878D01*
X57535000Y-57161531D01*
X57530719Y-57205000D01*
X57535000Y-57248469D01*
X57535000Y-57248476D01*
X57547805Y-57378489D01*
X57598411Y-57545312D01*
X57680589Y-57699058D01*
X57791183Y-57833817D01*
X57824956Y-57861534D01*
X62536896Y-62573475D01*
X62500000Y-62758967D01*
X62500000Y-63081033D01*
X62562832Y-63396912D01*
X62686082Y-63694463D01*
X62865013Y-63962252D01*
X63092748Y-64189987D01*
X63250000Y-64295060D01*
X63250000Y-64377689D01*
X63250001Y-64377699D01*
X63250000Y-67752423D01*
X62823343Y-68179080D01*
X62925000Y-67668016D01*
X62925000Y-66951984D01*
X62785309Y-66249710D01*
X62511295Y-65588182D01*
X62113489Y-64992823D01*
X61607177Y-64486511D01*
X61011818Y-64088705D01*
X60350290Y-63814691D01*
X59648016Y-63675000D01*
X58931984Y-63675000D01*
X58229710Y-63814691D01*
X57568182Y-64088705D01*
X56972823Y-64486511D01*
X56466511Y-64992823D01*
X56068705Y-65588182D01*
X55794691Y-66249710D01*
X55655000Y-66951984D01*
X51460000Y-66951984D01*
X51460000Y-56229039D01*
X55123096Y-56229039D01*
X55163754Y-56363087D01*
X55283963Y-56617420D01*
X55451481Y-56843414D01*
X55659869Y-57032385D01*
X55901119Y-57177070D01*
X56165960Y-57271909D01*
X56388000Y-57150624D01*
X56388000Y-56007000D01*
X55245085Y-56007000D01*
X55123096Y-56229039D01*
X51460000Y-56229039D01*
X51460000Y-55530961D01*
X55123096Y-55530961D01*
X55245085Y-55753000D01*
X56388000Y-55753000D01*
X56388000Y-54609376D01*
X56165960Y-54488091D01*
X55901119Y-54582930D01*
X55659869Y-54727615D01*
X55451481Y-54916586D01*
X55283963Y-55142580D01*
X55163754Y-55396913D01*
X55123096Y-55530961D01*
X51460000Y-55530961D01*
X51460000Y-38449040D01*
X57028091Y-38449040D01*
X57122930Y-38713881D01*
X57267615Y-38955131D01*
X57456586Y-39163519D01*
X57682580Y-39331037D01*
X57936913Y-39451246D01*
X58070961Y-39491904D01*
X58293000Y-39369915D01*
X58293000Y-38227000D01*
X58547000Y-38227000D01*
X58547000Y-39369915D01*
X58769039Y-39491904D01*
X58903087Y-39451246D01*
X59157420Y-39331037D01*
X59383414Y-39163519D01*
X59572385Y-38955131D01*
X59717070Y-38713881D01*
X59811909Y-38449040D01*
X59690624Y-38227000D01*
X58547000Y-38227000D01*
X58293000Y-38227000D01*
X57149376Y-38227000D01*
X57028091Y-38449040D01*
X51460000Y-38449040D01*
X51460000Y-37750960D01*
X57028091Y-37750960D01*
X57149376Y-37973000D01*
X58293000Y-37973000D01*
X58293000Y-36830085D01*
X58547000Y-36830085D01*
X58547000Y-37973000D01*
X59690624Y-37973000D01*
X59811909Y-37750960D01*
X59717070Y-37486119D01*
X59572385Y-37244869D01*
X59383414Y-37036481D01*
X59157420Y-36868963D01*
X58903087Y-36748754D01*
X58769039Y-36708096D01*
X58547000Y-36830085D01*
X58293000Y-36830085D01*
X58070961Y-36708096D01*
X57936913Y-36748754D01*
X57682580Y-36868963D01*
X57456586Y-37036481D01*
X57267615Y-37244869D01*
X57122930Y-37486119D01*
X57028091Y-37750960D01*
X51460000Y-37750960D01*
X51460000Y-36220000D01*
X72530740Y-36220000D01*
X72518470Y-36234951D01*
G37*
X72518470Y-36234951D02*
X70981525Y-37771897D01*
X70796033Y-37735000D01*
X70473967Y-37735000D01*
X70158088Y-37797832D01*
X69860537Y-37921082D01*
X69592748Y-38100013D01*
X69365013Y-38327748D01*
X69259941Y-38485000D01*
X65510059Y-38485000D01*
X65404987Y-38327748D01*
X65177252Y-38100013D01*
X64909463Y-37921082D01*
X64611912Y-37797832D01*
X64296033Y-37735000D01*
X63973967Y-37735000D01*
X63658088Y-37797832D01*
X63360537Y-37921082D01*
X63092748Y-38100013D01*
X62865013Y-38327748D01*
X62686082Y-38595537D01*
X62562832Y-38893088D01*
X62500000Y-39208967D01*
X62500000Y-39531033D01*
X62562832Y-39846912D01*
X62686082Y-40144463D01*
X62865013Y-40412252D01*
X63092748Y-40639987D01*
X63360537Y-40818918D01*
X63658088Y-40942168D01*
X63973967Y-41005000D01*
X64296033Y-41005000D01*
X64611912Y-40942168D01*
X64909463Y-40818918D01*
X65177252Y-40639987D01*
X65404987Y-40412252D01*
X65510059Y-40255000D01*
X69259941Y-40255000D01*
X69365013Y-40412252D01*
X69592748Y-40639987D01*
X69860537Y-40818918D01*
X70158088Y-40942168D01*
X70473967Y-41005000D01*
X70796033Y-41005000D01*
X71111912Y-40942168D01*
X71409463Y-40818918D01*
X71677252Y-40639987D01*
X71904987Y-40412252D01*
X72083918Y-40144463D01*
X72207168Y-39846912D01*
X72270000Y-39531033D01*
X72270000Y-39208967D01*
X72233103Y-39023475D01*
X73541579Y-37715000D01*
X77605479Y-37715000D01*
X77625363Y-37744759D01*
X77825241Y-37944637D01*
X78060273Y-38101680D01*
X78321426Y-38209853D01*
X78598665Y-38265000D01*
X78881335Y-38265000D01*
X79158574Y-38209853D01*
X79419727Y-38101680D01*
X79654759Y-37944637D01*
X79854637Y-37744759D01*
X80011680Y-37509727D01*
X80119853Y-37248574D01*
X80175000Y-36971335D01*
X80175000Y-36688665D01*
X80119853Y-36411426D01*
X80040562Y-36220000D01*
X121260001Y-36220000D01*
X121260000Y-114910000D01*
X106972536Y-114910000D01*
X111610179Y-110272358D01*
X111595000Y-110348665D01*
X111595000Y-110631335D01*
X111650147Y-110908574D01*
X111758320Y-111169727D01*
X111915363Y-111404759D01*
X112115241Y-111604637D01*
X112347759Y-111760000D01*
X112115241Y-111915363D01*
X111915363Y-112115241D01*
X111758320Y-112350273D01*
X111650147Y-112611426D01*
X111595000Y-112888665D01*
X111595000Y-113171335D01*
X111650147Y-113448574D01*
X111758320Y-113709727D01*
X111915363Y-113944759D01*
X112115241Y-114144637D01*
X112350273Y-114301680D01*
X112611426Y-114409853D01*
X112888665Y-114465000D01*
X113171335Y-114465000D01*
X113448574Y-114409853D01*
X113709727Y-114301680D01*
X113944759Y-114144637D01*
X114144637Y-113944759D01*
X114301680Y-113709727D01*
X114409853Y-113448574D01*
X114465000Y-113171335D01*
X114465000Y-112888665D01*
X114458017Y-112853561D01*
X115530512Y-111781067D01*
X115538815Y-111791185D01*
X115635506Y-111870537D01*
X115745820Y-111929502D01*
X115865518Y-111965812D01*
X115990000Y-111978072D01*
X117690000Y-111978072D01*
X117814482Y-111965812D01*
X117934180Y-111929502D01*
X118044494Y-111870537D01*
X118141185Y-111791185D01*
X118220537Y-111694494D01*
X118279502Y-111584180D01*
X118302498Y-111508374D01*
X118498645Y-111685178D01*
X118748748Y-111834157D01*
X119023109Y-111931481D01*
X119253000Y-111810814D01*
X119253000Y-110617000D01*
X119507000Y-110617000D01*
X119507000Y-111810814D01*
X119736891Y-111931481D01*
X120011252Y-111834157D01*
X120261355Y-111685178D01*
X120477588Y-111490269D01*
X120651641Y-111256920D01*
X120776825Y-110994099D01*
X120821476Y-110846890D01*
X120700155Y-110617000D01*
X119507000Y-110617000D01*
X119253000Y-110617000D01*
X119233000Y-110617000D01*
X119233000Y-110363000D01*
X119253000Y-110363000D01*
X119253000Y-108077000D01*
X119507000Y-108077000D01*
X119507000Y-110363000D01*
X120700155Y-110363000D01*
X120821476Y-110133110D01*
X120776825Y-109985901D01*
X120651641Y-109723080D01*
X120477588Y-109489731D01*
X120261355Y-109294822D01*
X120135745Y-109220000D01*
X120261355Y-109145178D01*
X120477588Y-108950269D01*
X120651641Y-108716920D01*
X120776825Y-108454099D01*
X120821476Y-108306890D01*
X120700155Y-108077000D01*
X119507000Y-108077000D01*
X119253000Y-108077000D01*
X119233000Y-108077000D01*
X119233000Y-107823000D01*
X119253000Y-107823000D01*
X119253000Y-105537000D01*
X119507000Y-105537000D01*
X119507000Y-107823000D01*
X120700155Y-107823000D01*
X120821476Y-107593110D01*
X120776825Y-107445901D01*
X120651641Y-107183080D01*
X120477588Y-106949731D01*
X120261355Y-106754822D01*
X120135745Y-106680000D01*
X120261355Y-106605178D01*
X120477588Y-106410269D01*
X120651641Y-106176920D01*
X120776825Y-105914099D01*
X120821476Y-105766890D01*
X120700155Y-105537000D01*
X119507000Y-105537000D01*
X119253000Y-105537000D01*
X119233000Y-105537000D01*
X119233000Y-105283000D01*
X119253000Y-105283000D01*
X119253000Y-102997000D01*
X119507000Y-102997000D01*
X119507000Y-105283000D01*
X120700155Y-105283000D01*
X120821476Y-105053110D01*
X120776825Y-104905901D01*
X120651641Y-104643080D01*
X120477588Y-104409731D01*
X120261355Y-104214822D01*
X120135745Y-104140000D01*
X120261355Y-104065178D01*
X120477588Y-103870269D01*
X120651641Y-103636920D01*
X120776825Y-103374099D01*
X120821476Y-103226890D01*
X120700155Y-102997000D01*
X119507000Y-102997000D01*
X119253000Y-102997000D01*
X119233000Y-102997000D01*
X119233000Y-102743000D01*
X119253000Y-102743000D01*
X119253000Y-100457000D01*
X119507000Y-100457000D01*
X119507000Y-102743000D01*
X120700155Y-102743000D01*
X120821476Y-102513110D01*
X120776825Y-102365901D01*
X120651641Y-102103080D01*
X120477588Y-101869731D01*
X120261355Y-101674822D01*
X120135745Y-101600000D01*
X120261355Y-101525178D01*
X120477588Y-101330269D01*
X120651641Y-101096920D01*
X120776825Y-100834099D01*
X120821476Y-100686890D01*
X120700155Y-100457000D01*
X119507000Y-100457000D01*
X119253000Y-100457000D01*
X119233000Y-100457000D01*
X119233000Y-100203000D01*
X119253000Y-100203000D01*
X119253000Y-97917000D01*
X119507000Y-97917000D01*
X119507000Y-100203000D01*
X120700155Y-100203000D01*
X120821476Y-99973110D01*
X120776825Y-99825901D01*
X120651641Y-99563080D01*
X120477588Y-99329731D01*
X120261355Y-99134822D01*
X120135745Y-99060000D01*
X120261355Y-98985178D01*
X120477588Y-98790269D01*
X120651641Y-98556920D01*
X120776825Y-98294099D01*
X120821476Y-98146890D01*
X120700155Y-97917000D01*
X119507000Y-97917000D01*
X119253000Y-97917000D01*
X119233000Y-97917000D01*
X119233000Y-97663000D01*
X119253000Y-97663000D01*
X119253000Y-95377000D01*
X119507000Y-95377000D01*
X119507000Y-97663000D01*
X120700155Y-97663000D01*
X120821476Y-97433110D01*
X120776825Y-97285901D01*
X120651641Y-97023080D01*
X120477588Y-96789731D01*
X120261355Y-96594822D01*
X120135745Y-96520000D01*
X120261355Y-96445178D01*
X120477588Y-96250269D01*
X120651641Y-96016920D01*
X120776825Y-95754099D01*
X120821476Y-95606890D01*
X120700155Y-95377000D01*
X119507000Y-95377000D01*
X119253000Y-95377000D01*
X119233000Y-95377000D01*
X119233000Y-95123000D01*
X119253000Y-95123000D01*
X119253000Y-92837000D01*
X119507000Y-92837000D01*
X119507000Y-95123000D01*
X120700155Y-95123000D01*
X120821476Y-94893110D01*
X120776825Y-94745901D01*
X120651641Y-94483080D01*
X120477588Y-94249731D01*
X120261355Y-94054822D01*
X120135745Y-93980000D01*
X120261355Y-93905178D01*
X120477588Y-93710269D01*
X120651641Y-93476920D01*
X120776825Y-93214099D01*
X120821476Y-93066890D01*
X120700155Y-92837000D01*
X119507000Y-92837000D01*
X119253000Y-92837000D01*
X119233000Y-92837000D01*
X119233000Y-92583000D01*
X119253000Y-92583000D01*
X119253000Y-90297000D01*
X119507000Y-90297000D01*
X119507000Y-92583000D01*
X120700155Y-92583000D01*
X120821476Y-92353110D01*
X120776825Y-92205901D01*
X120651641Y-91943080D01*
X120477588Y-91709731D01*
X120261355Y-91514822D01*
X120135745Y-91440000D01*
X120261355Y-91365178D01*
X120477588Y-91170269D01*
X120651641Y-90936920D01*
X120776825Y-90674099D01*
X120821476Y-90526890D01*
X120700155Y-90297000D01*
X119507000Y-90297000D01*
X119253000Y-90297000D01*
X119233000Y-90297000D01*
X119233000Y-90043000D01*
X119253000Y-90043000D01*
X119253000Y-87757000D01*
X119507000Y-87757000D01*
X119507000Y-90043000D01*
X120700155Y-90043000D01*
X120821476Y-89813110D01*
X120776825Y-89665901D01*
X120651641Y-89403080D01*
X120477588Y-89169731D01*
X120261355Y-88974822D01*
X120135745Y-88900000D01*
X120261355Y-88825178D01*
X120477588Y-88630269D01*
X120651641Y-88396920D01*
X120776825Y-88134099D01*
X120821476Y-87986890D01*
X120700155Y-87757000D01*
X119507000Y-87757000D01*
X119253000Y-87757000D01*
X119233000Y-87757000D01*
X119233000Y-87503000D01*
X119253000Y-87503000D01*
X119253000Y-85217000D01*
X119507000Y-85217000D01*
X119507000Y-87503000D01*
X120700155Y-87503000D01*
X120821476Y-87273110D01*
X120776825Y-87125901D01*
X120651641Y-86863080D01*
X120477588Y-86629731D01*
X120261355Y-86434822D01*
X120135745Y-86360000D01*
X120261355Y-86285178D01*
X120477588Y-86090269D01*
X120651641Y-85856920D01*
X120776825Y-85594099D01*
X120821476Y-85446890D01*
X120700155Y-85217000D01*
X119507000Y-85217000D01*
X119253000Y-85217000D01*
X119233000Y-85217000D01*
X119233000Y-84963000D01*
X119253000Y-84963000D01*
X119253000Y-82677000D01*
X119507000Y-82677000D01*
X119507000Y-84963000D01*
X120700155Y-84963000D01*
X120821476Y-84733110D01*
X120776825Y-84585901D01*
X120651641Y-84323080D01*
X120477588Y-84089731D01*
X120261355Y-83894822D01*
X120135745Y-83820000D01*
X120261355Y-83745178D01*
X120477588Y-83550269D01*
X120651641Y-83316920D01*
X120776825Y-83054099D01*
X120821476Y-82906890D01*
X120700155Y-82677000D01*
X119507000Y-82677000D01*
X119253000Y-82677000D01*
X119233000Y-82677000D01*
X119233000Y-82423000D01*
X119253000Y-82423000D01*
X119253000Y-80137000D01*
X119507000Y-80137000D01*
X119507000Y-82423000D01*
X120700155Y-82423000D01*
X120821476Y-82193110D01*
X120776825Y-82045901D01*
X120651641Y-81783080D01*
X120477588Y-81549731D01*
X120261355Y-81354822D01*
X120135745Y-81280000D01*
X120261355Y-81205178D01*
X120477588Y-81010269D01*
X120651641Y-80776920D01*
X120776825Y-80514099D01*
X120821476Y-80366890D01*
X120700155Y-80137000D01*
X119507000Y-80137000D01*
X119253000Y-80137000D01*
X119233000Y-80137000D01*
X119233000Y-79883000D01*
X119253000Y-79883000D01*
X119253000Y-77597000D01*
X119507000Y-77597000D01*
X119507000Y-79883000D01*
X120700155Y-79883000D01*
X120821476Y-79653110D01*
X120776825Y-79505901D01*
X120651641Y-79243080D01*
X120477588Y-79009731D01*
X120261355Y-78814822D01*
X120135745Y-78740000D01*
X120261355Y-78665178D01*
X120477588Y-78470269D01*
X120651641Y-78236920D01*
X120776825Y-77974099D01*
X120821476Y-77826890D01*
X120700155Y-77597000D01*
X119507000Y-77597000D01*
X119253000Y-77597000D01*
X119233000Y-77597000D01*
X119233000Y-77343000D01*
X119253000Y-77343000D01*
X119253000Y-75057000D01*
X119507000Y-75057000D01*
X119507000Y-77343000D01*
X120700155Y-77343000D01*
X120821476Y-77113110D01*
X120776825Y-76965901D01*
X120651641Y-76703080D01*
X120477588Y-76469731D01*
X120261355Y-76274822D01*
X120135745Y-76200000D01*
X120261355Y-76125178D01*
X120477588Y-75930269D01*
X120651641Y-75696920D01*
X120776825Y-75434099D01*
X120821476Y-75286890D01*
X120700155Y-75057000D01*
X119507000Y-75057000D01*
X119253000Y-75057000D01*
X119233000Y-75057000D01*
X119233000Y-74803000D01*
X119253000Y-74803000D01*
X119253000Y-72517000D01*
X119507000Y-72517000D01*
X119507000Y-74803000D01*
X120700155Y-74803000D01*
X120821476Y-74573110D01*
X120776825Y-74425901D01*
X120651641Y-74163080D01*
X120477588Y-73929731D01*
X120261355Y-73734822D01*
X120135745Y-73660000D01*
X120261355Y-73585178D01*
X120477588Y-73390269D01*
X120651641Y-73156920D01*
X120776825Y-72894099D01*
X120821476Y-72746890D01*
X120700155Y-72517000D01*
X119507000Y-72517000D01*
X119253000Y-72517000D01*
X119233000Y-72517000D01*
X119233000Y-72263000D01*
X119253000Y-72263000D01*
X119253000Y-69977000D01*
X119507000Y-69977000D01*
X119507000Y-72263000D01*
X120700155Y-72263000D01*
X120821476Y-72033110D01*
X120776825Y-71885901D01*
X120651641Y-71623080D01*
X120477588Y-71389731D01*
X120261355Y-71194822D01*
X120135745Y-71120000D01*
X120261355Y-71045178D01*
X120477588Y-70850269D01*
X120651641Y-70616920D01*
X120776825Y-70354099D01*
X120821476Y-70206890D01*
X120700155Y-69977000D01*
X119507000Y-69977000D01*
X119253000Y-69977000D01*
X119233000Y-69977000D01*
X119233000Y-69723000D01*
X119253000Y-69723000D01*
X119253000Y-67437000D01*
X119507000Y-67437000D01*
X119507000Y-69723000D01*
X120700155Y-69723000D01*
X120821476Y-69493110D01*
X120776825Y-69345901D01*
X120651641Y-69083080D01*
X120477588Y-68849731D01*
X120261355Y-68654822D01*
X120135745Y-68580000D01*
X120261355Y-68505178D01*
X120477588Y-68310269D01*
X120651641Y-68076920D01*
X120776825Y-67814099D01*
X120821476Y-67666890D01*
X120700155Y-67437000D01*
X119507000Y-67437000D01*
X119253000Y-67437000D01*
X119233000Y-67437000D01*
X119233000Y-67183000D01*
X119253000Y-67183000D01*
X119253000Y-65989186D01*
X119507000Y-65989186D01*
X119507000Y-67183000D01*
X120700155Y-67183000D01*
X120821476Y-66953110D01*
X120776825Y-66805901D01*
X120651641Y-66543080D01*
X120477588Y-66309731D01*
X120261355Y-66114822D01*
X120011252Y-65965843D01*
X119736891Y-65868519D01*
X119507000Y-65989186D01*
X119253000Y-65989186D01*
X119023109Y-65868519D01*
X118748748Y-65965843D01*
X118498645Y-66114822D01*
X118282412Y-66309731D01*
X118111100Y-66539406D01*
X117993475Y-66363368D01*
X117786632Y-66156525D01*
X117543411Y-65994010D01*
X117273158Y-65882068D01*
X116986260Y-65825000D01*
X116693740Y-65825000D01*
X116406842Y-65882068D01*
X116136589Y-65994010D01*
X115893368Y-66156525D01*
X115686525Y-66363368D01*
X115524010Y-66606589D01*
X115412068Y-66876842D01*
X115355000Y-67163740D01*
X115355000Y-67419419D01*
X114444950Y-68329470D01*
X114411183Y-68357182D01*
X114383470Y-68390950D01*
X114383467Y-68390953D01*
X114357932Y-68422068D01*
X114300589Y-68491940D01*
X114218411Y-68645686D01*
X114167804Y-68812509D01*
X114154999Y-68942522D01*
X114154999Y-68942530D01*
X114150718Y-68985999D01*
X114154999Y-69029468D01*
X114154999Y-69320930D01*
X104350930Y-79125000D01*
X102734521Y-79125000D01*
X102714637Y-79095241D01*
X102514759Y-78895363D01*
X102282241Y-78740000D01*
X102514759Y-78584637D01*
X102644396Y-78455000D01*
X102821620Y-78455000D01*
X102870000Y-78459765D01*
X102918380Y-78455000D01*
X103063094Y-78440747D01*
X103248767Y-78384424D01*
X103419884Y-78292960D01*
X103569870Y-78169870D01*
X103600716Y-78132284D01*
X105368000Y-76365000D01*
X105551335Y-76365000D01*
X105828574Y-76309853D01*
X106089727Y-76201680D01*
X106324759Y-76044637D01*
X106524637Y-75844759D01*
X106681680Y-75609727D01*
X106789853Y-75348574D01*
X106845000Y-75071335D01*
X106845000Y-74788665D01*
X106789853Y-74511426D01*
X106681680Y-74250273D01*
X106524637Y-74015241D01*
X106324759Y-73815363D01*
X106089727Y-73658320D01*
X105828574Y-73550147D01*
X105551335Y-73495000D01*
X105268665Y-73495000D01*
X104991426Y-73550147D01*
X104730273Y-73658320D01*
X104495241Y-73815363D01*
X104295363Y-74015241D01*
X104138320Y-74250273D01*
X104030147Y-74511426D01*
X103975000Y-74788665D01*
X103975000Y-74972000D01*
X102553198Y-76393802D01*
X102514759Y-76355363D01*
X102282241Y-76200000D01*
X102514759Y-76044637D01*
X102714637Y-75844759D01*
X102871680Y-75609727D01*
X102979853Y-75348574D01*
X103035000Y-75071335D01*
X103035000Y-74788665D01*
X102979853Y-74511426D01*
X102871680Y-74250273D01*
X102714637Y-74015241D01*
X102514759Y-73815363D01*
X102279727Y-73658320D01*
X102269135Y-73653933D01*
X102455131Y-73542385D01*
X102663519Y-73353414D01*
X102831037Y-73127420D01*
X102951246Y-72873087D01*
X102991904Y-72739039D01*
X102869915Y-72517000D01*
X101727000Y-72517000D01*
X101727000Y-72537000D01*
X101473000Y-72537000D01*
X101473000Y-72517000D01*
X100330085Y-72517000D01*
X100208096Y-72739039D01*
X100248754Y-72873087D01*
X100368963Y-73127420D01*
X100536481Y-73353414D01*
X100744869Y-73542385D01*
X100930865Y-73653933D01*
X100920273Y-73658320D01*
X100685241Y-73815363D01*
X100485363Y-74015241D01*
X100328320Y-74250273D01*
X100220147Y-74511426D01*
X100165000Y-74788665D01*
X100165000Y-75071335D01*
X100220147Y-75348574D01*
X100328320Y-75609727D01*
X100485363Y-75844759D01*
X100685241Y-76044637D01*
X100917759Y-76200000D01*
X100685241Y-76355363D01*
X100485363Y-76555241D01*
X100328320Y-76790273D01*
X100220147Y-77051426D01*
X100165000Y-77328665D01*
X100165000Y-77611335D01*
X100220147Y-77888574D01*
X100328320Y-78149727D01*
X100485363Y-78384759D01*
X100685241Y-78584637D01*
X100917759Y-78740000D01*
X100685241Y-78895363D01*
X100485363Y-79095241D01*
X100328320Y-79330273D01*
X100220147Y-79591426D01*
X100165000Y-79868665D01*
X100165000Y-80151335D01*
X100220147Y-80428574D01*
X100328320Y-80689727D01*
X100485363Y-80924759D01*
X100685241Y-81124637D01*
X100917759Y-81280000D01*
X100685241Y-81435363D01*
X100485363Y-81635241D01*
X100328320Y-81870273D01*
X100220147Y-82131426D01*
X100165000Y-82408665D01*
X100165000Y-82691335D01*
X100220147Y-82968574D01*
X100328320Y-83229727D01*
X100485363Y-83464759D01*
X100685241Y-83664637D01*
X100917759Y-83820000D01*
X100685241Y-83975363D01*
X100485363Y-84175241D01*
X100328320Y-84410273D01*
X100220147Y-84671426D01*
X100165000Y-84948665D01*
X100165000Y-85231335D01*
X100220147Y-85508574D01*
X100328320Y-85769727D01*
X100485363Y-86004759D01*
X100685241Y-86204637D01*
X100917759Y-86360000D01*
X100685241Y-86515363D01*
X100485363Y-86715241D01*
X100328320Y-86950273D01*
X100220147Y-87211426D01*
X100165000Y-87488665D01*
X100165000Y-87771335D01*
X100220147Y-88048574D01*
X100328320Y-88309727D01*
X100485363Y-88544759D01*
X100685241Y-88744637D01*
X100917759Y-88900000D01*
X100685241Y-89055363D01*
X100485363Y-89255241D01*
X100328320Y-89490273D01*
X100220147Y-89751426D01*
X100165000Y-90028665D01*
X100165000Y-90311335D01*
X100220147Y-90588574D01*
X100328320Y-90849727D01*
X100485363Y-91084759D01*
X100685241Y-91284637D01*
X100917759Y-91440000D01*
X100685241Y-91595363D01*
X100485363Y-91795241D01*
X100328320Y-92030273D01*
X100220147Y-92291426D01*
X100165000Y-92568665D01*
X100165000Y-92851335D01*
X100220147Y-93128574D01*
X100328320Y-93389727D01*
X100485363Y-93624759D01*
X100685241Y-93824637D01*
X100917759Y-93980000D01*
X100685241Y-94135363D01*
X100485363Y-94335241D01*
X100328320Y-94570273D01*
X100220147Y-94831426D01*
X100165000Y-95108665D01*
X100165000Y-95391335D01*
X100220147Y-95668574D01*
X100328320Y-95929727D01*
X100485363Y-96164759D01*
X100685241Y-96364637D01*
X100917759Y-96520000D01*
X100685241Y-96675363D01*
X100485363Y-96875241D01*
X100465479Y-96905000D01*
X99559521Y-96905000D01*
X99539637Y-96875241D01*
X99339759Y-96675363D01*
X99104727Y-96518320D01*
X98843574Y-96410147D01*
X98566335Y-96355000D01*
X98283665Y-96355000D01*
X98006426Y-96410147D01*
X97745273Y-96518320D01*
X97510241Y-96675363D01*
X97485026Y-96700578D01*
X97485026Y-86184564D01*
X97915053Y-85754538D01*
X97948820Y-85726826D01*
X97983108Y-85685047D01*
X98059413Y-85592069D01*
X98059414Y-85592068D01*
X98141592Y-85438322D01*
X98192198Y-85271499D01*
X98205003Y-85141486D01*
X98205003Y-85141476D01*
X98209284Y-85098010D01*
X98205003Y-85054544D01*
X98205003Y-83393468D01*
X98209284Y-83350002D01*
X98205003Y-83306536D01*
X98205003Y-83306526D01*
X98192198Y-83176513D01*
X98141592Y-83009690D01*
X98059414Y-82855944D01*
X98025812Y-82815000D01*
X97976535Y-82754956D01*
X97976533Y-82754954D01*
X97948820Y-82721186D01*
X97915052Y-82693473D01*
X97176532Y-81954954D01*
X97148817Y-81921183D01*
X97014059Y-81810589D01*
X96860313Y-81728411D01*
X96693490Y-81677805D01*
X96563477Y-81665000D01*
X96563469Y-81665000D01*
X96520000Y-81660719D01*
X96476531Y-81665000D01*
X96384527Y-81665000D01*
X96364643Y-81635241D01*
X96164765Y-81435363D01*
X95929733Y-81278320D01*
X95668580Y-81170147D01*
X95391341Y-81115000D01*
X95108671Y-81115000D01*
X94831432Y-81170147D01*
X94570279Y-81278320D01*
X94335247Y-81435363D01*
X94135369Y-81635241D01*
X94115485Y-81665000D01*
X87494521Y-81665000D01*
X87474637Y-81635241D01*
X87274759Y-81435363D01*
X87042241Y-81280000D01*
X87274759Y-81124637D01*
X87474637Y-80924759D01*
X87631680Y-80689727D01*
X87739853Y-80428574D01*
X87795000Y-80151335D01*
X87795000Y-79868665D01*
X87739853Y-79591426D01*
X87631680Y-79330273D01*
X87474637Y-79095241D01*
X87274759Y-78895363D01*
X87042241Y-78740000D01*
X87274759Y-78584637D01*
X87474637Y-78384759D01*
X87631680Y-78149727D01*
X87739853Y-77888574D01*
X87795000Y-77611335D01*
X87795000Y-77328665D01*
X87739853Y-77051426D01*
X87631680Y-76790273D01*
X87474637Y-76555241D01*
X87274759Y-76355363D01*
X87042241Y-76200000D01*
X87274759Y-76044637D01*
X87474637Y-75844759D01*
X87631680Y-75609727D01*
X87739853Y-75348574D01*
X87795000Y-75071335D01*
X87795000Y-74788665D01*
X87739853Y-74511426D01*
X87631680Y-74250273D01*
X87474637Y-74015241D01*
X87274759Y-73815363D01*
X87042241Y-73660000D01*
X87274759Y-73504637D01*
X87474637Y-73304759D01*
X87494521Y-73275000D01*
X87765479Y-73275000D01*
X87785363Y-73304759D01*
X87985241Y-73504637D01*
X88220273Y-73661680D01*
X88481426Y-73769853D01*
X88758665Y-73825000D01*
X89041335Y-73825000D01*
X89318574Y-73769853D01*
X89579727Y-73661680D01*
X89814759Y-73504637D01*
X90014637Y-73304759D01*
X90171680Y-73069727D01*
X90279853Y-72808574D01*
X90335000Y-72531335D01*
X90335000Y-72248665D01*
X90279853Y-71971426D01*
X90171680Y-71710273D01*
X90014637Y-71475241D01*
X89814759Y-71275363D01*
X89582241Y-71120000D01*
X89814759Y-70964637D01*
X90014637Y-70764759D01*
X90171680Y-70529727D01*
X90279853Y-70268574D01*
X90335000Y-69991335D01*
X90335000Y-69708665D01*
X100165000Y-69708665D01*
X100165000Y-69991335D01*
X100220147Y-70268574D01*
X100328320Y-70529727D01*
X100485363Y-70764759D01*
X100685241Y-70964637D01*
X100920273Y-71121680D01*
X100930865Y-71126067D01*
X100744869Y-71237615D01*
X100536481Y-71426586D01*
X100368963Y-71652580D01*
X100248754Y-71906913D01*
X100208096Y-72040961D01*
X100330085Y-72263000D01*
X101473000Y-72263000D01*
X101473000Y-72243000D01*
X101727000Y-72243000D01*
X101727000Y-72263000D01*
X102869915Y-72263000D01*
X102991904Y-72040961D01*
X102951246Y-71906913D01*
X102831037Y-71652580D01*
X102663519Y-71426586D01*
X102455131Y-71237615D01*
X102269135Y-71126067D01*
X102279727Y-71121680D01*
X102514759Y-70964637D01*
X102714637Y-70764759D01*
X102871680Y-70529727D01*
X102979853Y-70268574D01*
X103035000Y-69991335D01*
X103035000Y-69708665D01*
X102979853Y-69431426D01*
X102871680Y-69170273D01*
X102714637Y-68935241D01*
X102514759Y-68735363D01*
X102279727Y-68578320D01*
X102018574Y-68470147D01*
X101741335Y-68415000D01*
X101458665Y-68415000D01*
X101181426Y-68470147D01*
X100920273Y-68578320D01*
X100685241Y-68735363D01*
X100485363Y-68935241D01*
X100328320Y-69170273D01*
X100220147Y-69431426D01*
X100165000Y-69708665D01*
X90335000Y-69708665D01*
X90279853Y-69431426D01*
X90171680Y-69170273D01*
X90014637Y-68935241D01*
X89814759Y-68735363D01*
X89579727Y-68578320D01*
X89318574Y-68470147D01*
X89041335Y-68415000D01*
X88758665Y-68415000D01*
X88481426Y-68470147D01*
X88220273Y-68578320D01*
X87985241Y-68735363D01*
X87786643Y-68933961D01*
X87785812Y-68925518D01*
X87749502Y-68805820D01*
X87690537Y-68695506D01*
X87611185Y-68598815D01*
X87514494Y-68519463D01*
X87404180Y-68460498D01*
X87284482Y-68424188D01*
X87160000Y-68411928D01*
X85560000Y-68411928D01*
X85435518Y-68424188D01*
X85315820Y-68460498D01*
X85205506Y-68519463D01*
X85108815Y-68598815D01*
X85029463Y-68695506D01*
X84970498Y-68805820D01*
X84934188Y-68925518D01*
X84921928Y-69050000D01*
X84921928Y-70650000D01*
X84934188Y-70774482D01*
X84970498Y-70894180D01*
X85029463Y-71004494D01*
X85108815Y-71101185D01*
X85205506Y-71180537D01*
X85315820Y-71239502D01*
X85435518Y-71275812D01*
X85443961Y-71276643D01*
X85245363Y-71475241D01*
X85088320Y-71710273D01*
X84980147Y-71971426D01*
X84925000Y-72248665D01*
X84925000Y-72531335D01*
X84980147Y-72808574D01*
X85088320Y-73069727D01*
X85245363Y-73304759D01*
X85445241Y-73504637D01*
X85677759Y-73660000D01*
X85445241Y-73815363D01*
X85245363Y-74015241D01*
X85088320Y-74250273D01*
X84980147Y-74511426D01*
X84925000Y-74788665D01*
X84925000Y-75071335D01*
X84980147Y-75348574D01*
X85088320Y-75609727D01*
X85245363Y-75844759D01*
X85445241Y-76044637D01*
X85677759Y-76200000D01*
X85445241Y-76355363D01*
X85245363Y-76555241D01*
X85088320Y-76790273D01*
X84980147Y-77051426D01*
X84925000Y-77328665D01*
X84925000Y-77611335D01*
X84980147Y-77888574D01*
X85088320Y-78149727D01*
X85245363Y-78384759D01*
X85445241Y-78584637D01*
X85677759Y-78740000D01*
X85445241Y-78895363D01*
X85245363Y-79095241D01*
X85088320Y-79330273D01*
X84980147Y-79591426D01*
X84925000Y-79868665D01*
X84925000Y-80151335D01*
X84931983Y-80186439D01*
X84014950Y-81103472D01*
X83981183Y-81131184D01*
X83953470Y-81164952D01*
X83953467Y-81164955D01*
X83870589Y-81265942D01*
X83788411Y-81419688D01*
X83737804Y-81586511D01*
X83720718Y-81760001D01*
X83725000Y-81803480D01*
X83724999Y-88311915D01*
X82589951Y-89446964D01*
X82556184Y-89474676D01*
X82528471Y-89508444D01*
X82528468Y-89508447D01*
X82445590Y-89609434D01*
X82363412Y-89763180D01*
X82312805Y-89930003D01*
X82295719Y-90103493D01*
X82300001Y-90146972D01*
X82300000Y-99195485D01*
X82270241Y-99215369D01*
X82070363Y-99415247D01*
X82050483Y-99445000D01*
X79106579Y-99445000D01*
X78898017Y-99236439D01*
X78905000Y-99201335D01*
X78905000Y-98918665D01*
X78849853Y-98641426D01*
X78741680Y-98380273D01*
X78584637Y-98145241D01*
X78384759Y-97945363D01*
X78152241Y-97790000D01*
X78384759Y-97634637D01*
X78584637Y-97434759D01*
X78604521Y-97405000D01*
X78875479Y-97405000D01*
X78895363Y-97434759D01*
X79095241Y-97634637D01*
X79330273Y-97791680D01*
X79591426Y-97899853D01*
X79868665Y-97955000D01*
X80151335Y-97955000D01*
X80428574Y-97899853D01*
X80689727Y-97791680D01*
X80924759Y-97634637D01*
X81124637Y-97434759D01*
X81281680Y-97199727D01*
X81389853Y-96938574D01*
X81445000Y-96661335D01*
X81445000Y-96378665D01*
X81389853Y-96101426D01*
X81281680Y-95840273D01*
X81124637Y-95605241D01*
X80924759Y-95405363D01*
X80689727Y-95248320D01*
X80428574Y-95140147D01*
X80151335Y-95085000D01*
X79868665Y-95085000D01*
X79591426Y-95140147D01*
X79330273Y-95248320D01*
X79095241Y-95405363D01*
X78895363Y-95605241D01*
X78875479Y-95635000D01*
X78604521Y-95635000D01*
X78584637Y-95605241D01*
X78384759Y-95405363D01*
X78149727Y-95248320D01*
X78139135Y-95243933D01*
X78325131Y-95132385D01*
X78533519Y-94943414D01*
X78701037Y-94717420D01*
X78821246Y-94463087D01*
X78861904Y-94329039D01*
X78739915Y-94107000D01*
X77597000Y-94107000D01*
X77597000Y-94127000D01*
X77343000Y-94127000D01*
X77343000Y-94107000D01*
X77323000Y-94107000D01*
X77323000Y-93853000D01*
X77343000Y-93853000D01*
X77343000Y-93833000D01*
X77597000Y-93833000D01*
X77597000Y-93853000D01*
X78739915Y-93853000D01*
X78861904Y-93630961D01*
X78821246Y-93496913D01*
X78701037Y-93242580D01*
X78533519Y-93016586D01*
X78325131Y-92827615D01*
X78139135Y-92716067D01*
X78149727Y-92711680D01*
X78384759Y-92554637D01*
X78584637Y-92354759D01*
X78741680Y-92119727D01*
X78849853Y-91858574D01*
X78905000Y-91581335D01*
X78905000Y-91398000D01*
X82672261Y-87630739D01*
X82709847Y-87599893D01*
X82832937Y-87449907D01*
X82924401Y-87278790D01*
X82980724Y-87093117D01*
X82994977Y-86948403D01*
X82994977Y-86948402D01*
X82999742Y-86900024D01*
X82994977Y-86851644D01*
X82994977Y-82058356D01*
X82999742Y-82009977D01*
X82994977Y-81961597D01*
X82994977Y-81868402D01*
X82999742Y-81820023D01*
X82994977Y-81771643D01*
X82994977Y-81041035D01*
X83212284Y-80823728D01*
X83249870Y-80792882D01*
X83372960Y-80642896D01*
X83464424Y-80471779D01*
X83520747Y-80286106D01*
X83535000Y-80141392D01*
X83535000Y-80141391D01*
X83539765Y-80093012D01*
X83535000Y-80044632D01*
X83535000Y-70533390D01*
X83539766Y-70485000D01*
X83535000Y-70436610D01*
X83535000Y-68987999D01*
X84863000Y-67660000D01*
X101837009Y-67660000D01*
X103947710Y-69770702D01*
X103947716Y-69770707D01*
X103975000Y-69797991D01*
X103975000Y-69981326D01*
X104030147Y-70258565D01*
X104138320Y-70519718D01*
X104295363Y-70754750D01*
X104495241Y-70954628D01*
X104730273Y-71111671D01*
X104991426Y-71219844D01*
X105268665Y-71274991D01*
X105551335Y-71274991D01*
X105828574Y-71219844D01*
X106089727Y-71111671D01*
X106324759Y-70954628D01*
X106524637Y-70754750D01*
X106681680Y-70519718D01*
X106789853Y-70258565D01*
X106845000Y-69981326D01*
X106845000Y-69698656D01*
X106839291Y-69669957D01*
X107302823Y-70133489D01*
X107898182Y-70531295D01*
X108559710Y-70805309D01*
X109261984Y-70945000D01*
X109978016Y-70945000D01*
X110680290Y-70805309D01*
X111341818Y-70531295D01*
X111937177Y-70133489D01*
X112443489Y-69627177D01*
X112841295Y-69031818D01*
X113115309Y-68370290D01*
X113255000Y-67668016D01*
X113255000Y-66951984D01*
X113115309Y-66249710D01*
X112841295Y-65588182D01*
X112443489Y-64992823D01*
X111937177Y-64486511D01*
X111341818Y-64088705D01*
X110680290Y-63814691D01*
X109978016Y-63675000D01*
X109261984Y-63675000D01*
X108559710Y-63814691D01*
X107898182Y-64088705D01*
X107302823Y-64486511D01*
X106796511Y-64992823D01*
X106398705Y-65588182D01*
X106124691Y-66249710D01*
X105985000Y-66951984D01*
X105985000Y-67668016D01*
X106124691Y-68370290D01*
X106251483Y-68676393D01*
X106089727Y-68568311D01*
X105828574Y-68460138D01*
X105551335Y-68404991D01*
X105368000Y-68404991D01*
X105340716Y-68377707D01*
X105340711Y-68377701D01*
X103666964Y-66703955D01*
X116674029Y-53696890D01*
X117938524Y-53696890D01*
X117983175Y-53844099D01*
X118108359Y-54106920D01*
X118282412Y-54340269D01*
X118498645Y-54535178D01*
X118748748Y-54684157D01*
X119023109Y-54781481D01*
X119253000Y-54660814D01*
X119253000Y-53467000D01*
X119507000Y-53467000D01*
X119507000Y-54660814D01*
X119736891Y-54781481D01*
X120011252Y-54684157D01*
X120261355Y-54535178D01*
X120477588Y-54340269D01*
X120651641Y-54106920D01*
X120776825Y-53844099D01*
X120821476Y-53696890D01*
X120700155Y-53467000D01*
X119507000Y-53467000D01*
X119253000Y-53467000D01*
X118059845Y-53467000D01*
X117938524Y-53696890D01*
X116674029Y-53696890D01*
X118425406Y-51945513D01*
X118433368Y-51953475D01*
X118615534Y-52075195D01*
X118498645Y-52144822D01*
X118282412Y-52339731D01*
X118108359Y-52573080D01*
X117983175Y-52835901D01*
X117938524Y-52983110D01*
X118059845Y-53213000D01*
X119253000Y-53213000D01*
X119253000Y-53193000D01*
X119507000Y-53193000D01*
X119507000Y-53213000D01*
X120700155Y-53213000D01*
X120821476Y-52983110D01*
X120776825Y-52835901D01*
X120651641Y-52573080D01*
X120477588Y-52339731D01*
X120261355Y-52144822D01*
X120144466Y-52075195D01*
X120326632Y-51953475D01*
X120533475Y-51746632D01*
X120695990Y-51503411D01*
X120807932Y-51233158D01*
X120865000Y-50946260D01*
X120865000Y-50653740D01*
X120807932Y-50366842D01*
X120695990Y-50096589D01*
X120533475Y-49853368D01*
X120326632Y-49646525D01*
X120152240Y-49530000D01*
X120326632Y-49413475D01*
X120533475Y-49206632D01*
X120695990Y-48963411D01*
X120807932Y-48693158D01*
X120865000Y-48406260D01*
X120865000Y-48113740D01*
X120807932Y-47826842D01*
X120695990Y-47556589D01*
X120533475Y-47313368D01*
X120401620Y-47181513D01*
X120474180Y-47159502D01*
X120584494Y-47100537D01*
X120681185Y-47021185D01*
X120760537Y-46924494D01*
X120819502Y-46814180D01*
X120855812Y-46694482D01*
X120868072Y-46570000D01*
X120868072Y-44870000D01*
X120855812Y-44745518D01*
X120819502Y-44625820D01*
X120760537Y-44515506D01*
X120681185Y-44418815D01*
X120584494Y-44339463D01*
X120474180Y-44280498D01*
X120354482Y-44244188D01*
X120230000Y-44231928D01*
X118530000Y-44231928D01*
X118405518Y-44244188D01*
X118285820Y-44280498D01*
X118175506Y-44339463D01*
X118078815Y-44418815D01*
X117999463Y-44515506D01*
X117940498Y-44625820D01*
X117904188Y-44745518D01*
X117895375Y-44835000D01*
X116704521Y-44835000D01*
X116684637Y-44805241D01*
X116484759Y-44605363D01*
X116249727Y-44448320D01*
X115988574Y-44340147D01*
X115711335Y-44285000D01*
X115428665Y-44285000D01*
X115151426Y-44340147D01*
X114890273Y-44448320D01*
X114655241Y-44605363D01*
X114455363Y-44805241D01*
X114298320Y-45040273D01*
X114190147Y-45301426D01*
X114135000Y-45578665D01*
X114135000Y-45861335D01*
X114190147Y-46138574D01*
X114298320Y-46399727D01*
X114455363Y-46634759D01*
X114655241Y-46834637D01*
X114887759Y-46990000D01*
X114655241Y-47145363D01*
X114455363Y-47345241D01*
X114298320Y-47580273D01*
X114190147Y-47841426D01*
X114135000Y-48118665D01*
X114135000Y-48401335D01*
X114190147Y-48678574D01*
X114298320Y-48939727D01*
X114455363Y-49174759D01*
X114655241Y-49374637D01*
X114890273Y-49531680D01*
X115151426Y-49639853D01*
X115428665Y-49695000D01*
X115711335Y-49695000D01*
X115988574Y-49639853D01*
X116249727Y-49531680D01*
X116484759Y-49374637D01*
X116684637Y-49174759D01*
X116704521Y-49145000D01*
X118185344Y-49145000D01*
X118226525Y-49206632D01*
X118433368Y-49413475D01*
X118607760Y-49530000D01*
X118433368Y-49646525D01*
X118264893Y-49815000D01*
X118226298Y-49815000D01*
X118177918Y-49810235D01*
X117984824Y-49829253D01*
X117941610Y-49842362D01*
X117799152Y-49885576D01*
X117628035Y-49977040D01*
X117478049Y-50100130D01*
X117447203Y-50137716D01*
X101894919Y-65690000D01*
X84503380Y-65690000D01*
X84455000Y-65685235D01*
X84406620Y-65690000D01*
X84261906Y-65704253D01*
X84076233Y-65760576D01*
X83905116Y-65852040D01*
X83755130Y-65975130D01*
X83724289Y-66012710D01*
X81887717Y-67849283D01*
X81850131Y-67880129D01*
X81727041Y-68030115D01*
X81682308Y-68113804D01*
X81635576Y-68201233D01*
X81579253Y-68386905D01*
X81560235Y-68579999D01*
X81565001Y-68628389D01*
X81565001Y-69500000D01*
X74069396Y-69500000D01*
X73939759Y-69370363D01*
X73704727Y-69213320D01*
X73443574Y-69105147D01*
X73166335Y-69050000D01*
X72883665Y-69050000D01*
X72606426Y-69105147D01*
X72345273Y-69213320D01*
X72110241Y-69370363D01*
X71910363Y-69570241D01*
X71753320Y-69805273D01*
X71645147Y-70066426D01*
X71590000Y-70343665D01*
X71590000Y-70617356D01*
X71495044Y-70355186D01*
X71205429Y-70214296D01*
X70893892Y-70132616D01*
X70572405Y-70113282D01*
X70253325Y-70157039D01*
X69948912Y-70262205D01*
X69774956Y-70355186D01*
X69679192Y-70619587D01*
X70635000Y-71575395D01*
X70649143Y-71561253D01*
X70828748Y-71740858D01*
X70814605Y-71755000D01*
X71770413Y-72710808D01*
X72034814Y-72615044D01*
X72175704Y-72325429D01*
X72257384Y-72013892D01*
X72275650Y-71710160D01*
X72345273Y-71756680D01*
X72606426Y-71864853D01*
X72883665Y-71920000D01*
X73166335Y-71920000D01*
X73443574Y-71864853D01*
X73704727Y-71756680D01*
X73939759Y-71599637D01*
X74069396Y-71470000D01*
X81565001Y-71470000D01*
X81565000Y-79685012D01*
X81347688Y-79902324D01*
X81310108Y-79933165D01*
X81187018Y-80083151D01*
X81138129Y-80174616D01*
X81095553Y-80254269D01*
X81039230Y-80439942D01*
X81020212Y-80633035D01*
X81024978Y-80681424D01*
X81024978Y-80930000D01*
X78999701Y-80930000D01*
X78995812Y-80890518D01*
X78959502Y-80770820D01*
X78900537Y-80660506D01*
X78821185Y-80563815D01*
X78724494Y-80484463D01*
X78614180Y-80425498D01*
X78494482Y-80389188D01*
X78370000Y-80376928D01*
X76570000Y-80376928D01*
X76445518Y-80389188D01*
X76325820Y-80425498D01*
X76215506Y-80484463D01*
X76118815Y-80563815D01*
X76039463Y-80660506D01*
X75980498Y-80770820D01*
X75944188Y-80890518D01*
X75931928Y-81015000D01*
X75931928Y-82815000D01*
X75944188Y-82939482D01*
X75980498Y-83059180D01*
X76039463Y-83169494D01*
X76118815Y-83266185D01*
X76215506Y-83345537D01*
X76325820Y-83404502D01*
X76445518Y-83440812D01*
X76570000Y-83453072D01*
X78370000Y-83453072D01*
X78494482Y-83440812D01*
X78614180Y-83404502D01*
X78724494Y-83345537D01*
X78821185Y-83266185D01*
X78900537Y-83169494D01*
X78959502Y-83059180D01*
X78995812Y-82939482D01*
X78999701Y-82900000D01*
X81024978Y-82900000D01*
X81024977Y-86492023D01*
X78880666Y-88636334D01*
X78849853Y-88481426D01*
X78741680Y-88220273D01*
X78584637Y-87985241D01*
X78384759Y-87785363D01*
X78152241Y-87630000D01*
X78384759Y-87474637D01*
X78584637Y-87274759D01*
X78741680Y-87039727D01*
X78849853Y-86778574D01*
X78905000Y-86501335D01*
X78905000Y-86218665D01*
X78849853Y-85941426D01*
X78741680Y-85680273D01*
X78584637Y-85445241D01*
X78384759Y-85245363D01*
X78149727Y-85088320D01*
X77888574Y-84980147D01*
X77611335Y-84925000D01*
X77328665Y-84925000D01*
X77051426Y-84980147D01*
X76790273Y-85088320D01*
X76555241Y-85245363D01*
X76355363Y-85445241D01*
X76198320Y-85680273D01*
X76090147Y-85941426D01*
X76035000Y-86218665D01*
X76035000Y-86501335D01*
X76090147Y-86778574D01*
X76198320Y-87039727D01*
X76355363Y-87274759D01*
X76555241Y-87474637D01*
X76787759Y-87630000D01*
X76555241Y-87785363D01*
X76355363Y-87985241D01*
X76198320Y-88220273D01*
X76090147Y-88481426D01*
X76035000Y-88758665D01*
X76035000Y-88885419D01*
X75024955Y-89895465D01*
X74991182Y-89923182D01*
X74880588Y-90057941D01*
X74798410Y-90211687D01*
X74747804Y-90378510D01*
X74734999Y-90508523D01*
X74734999Y-90508530D01*
X74730718Y-90551999D01*
X74734999Y-90595468D01*
X74735000Y-99904522D01*
X74730718Y-99948001D01*
X74747804Y-100121491D01*
X74798411Y-100288314D01*
X74880589Y-100442060D01*
X74963467Y-100543047D01*
X74963470Y-100543050D01*
X74991183Y-100576818D01*
X75024951Y-100604531D01*
X80425466Y-106005047D01*
X80453181Y-106038817D01*
X80486949Y-106066530D01*
X80486951Y-106066532D01*
X80499112Y-106076512D01*
X80587939Y-106149411D01*
X80741685Y-106231589D01*
X80908508Y-106282195D01*
X81038521Y-106295000D01*
X81038531Y-106295000D01*
X81081997Y-106299281D01*
X81125464Y-106295000D01*
X85225479Y-106295000D01*
X85245363Y-106324759D01*
X85445241Y-106524637D01*
X85680273Y-106681680D01*
X85941426Y-106789853D01*
X86218665Y-106845000D01*
X86501335Y-106845000D01*
X86778574Y-106789853D01*
X87039727Y-106681680D01*
X87274759Y-106524637D01*
X87474637Y-106324759D01*
X87631680Y-106089727D01*
X87739853Y-105828574D01*
X87795000Y-105551335D01*
X87795000Y-105268665D01*
X87739853Y-104991426D01*
X87631680Y-104730273D01*
X87474637Y-104495241D01*
X87274759Y-104295363D01*
X87042241Y-104140000D01*
X87274759Y-103984637D01*
X87474637Y-103784759D01*
X87631680Y-103549727D01*
X87739853Y-103288574D01*
X87795000Y-103011335D01*
X87795000Y-102728665D01*
X87739853Y-102451426D01*
X87631680Y-102190273D01*
X87474637Y-101955241D01*
X87274759Y-101755363D01*
X87042241Y-101600000D01*
X87274759Y-101444637D01*
X87474637Y-101244759D01*
X87631680Y-101009727D01*
X87739853Y-100748574D01*
X87794130Y-100475709D01*
X87834940Y-100516519D01*
X87834939Y-108996470D01*
X87830658Y-109039939D01*
X87834939Y-109083408D01*
X87834939Y-109083415D01*
X87841088Y-109145843D01*
X87847744Y-109213429D01*
X87852164Y-109228000D01*
X87898350Y-109380251D01*
X87980528Y-109533997D01*
X88091122Y-109668756D01*
X88124895Y-109696473D01*
X93338421Y-114910000D01*
X51460000Y-114910000D01*
X51460000Y-110766984D01*
X80820000Y-110766984D01*
X80820000Y-111483016D01*
X80959691Y-112185290D01*
X81233705Y-112846818D01*
X81631511Y-113442177D01*
X82137823Y-113948489D01*
X82733182Y-114346295D01*
X83394710Y-114620309D01*
X84096984Y-114760000D01*
X84813016Y-114760000D01*
X85515290Y-114620309D01*
X86176818Y-114346295D01*
X86772177Y-113948489D01*
X87278489Y-113442177D01*
X87676295Y-112846818D01*
X87950309Y-112185290D01*
X88090000Y-111483016D01*
X88090000Y-110766984D01*
X87950309Y-110064710D01*
X87676295Y-109403182D01*
X87278489Y-108807823D01*
X86772177Y-108301511D01*
X86176818Y-107903705D01*
X85515290Y-107629691D01*
X84813016Y-107490000D01*
X84096984Y-107490000D01*
X83394710Y-107629691D01*
X82733182Y-107903705D01*
X82137823Y-108301511D01*
X81631511Y-108807823D01*
X81233705Y-109403182D01*
X80959691Y-110064710D01*
X80820000Y-110766984D01*
X51460000Y-110766984D01*
X51460000Y-80939999D01*
X52428718Y-80939999D01*
X52432999Y-80983468D01*
X52433000Y-89342520D01*
X52428718Y-89385999D01*
X52445804Y-89559489D01*
X52496411Y-89726312D01*
X52578589Y-89880058D01*
X52661467Y-89981045D01*
X52661470Y-89981048D01*
X52689183Y-90014816D01*
X52722950Y-90042528D01*
X53445468Y-90765047D01*
X53473183Y-90798817D01*
X53506951Y-90826530D01*
X53506953Y-90826532D01*
X53526901Y-90842903D01*
X53607941Y-90909411D01*
X53761687Y-90991589D01*
X53911299Y-91036974D01*
X53964525Y-91116632D01*
X54171368Y-91323475D01*
X54353534Y-91445195D01*
X54236645Y-91514822D01*
X54020412Y-91709731D01*
X53846359Y-91943080D01*
X53721175Y-92205901D01*
X53676524Y-92353110D01*
X53797845Y-92583000D01*
X54991000Y-92583000D01*
X54991000Y-92563000D01*
X55245000Y-92563000D01*
X55245000Y-92583000D01*
X56438155Y-92583000D01*
X56559476Y-92353110D01*
X56514825Y-92205901D01*
X56389641Y-91943080D01*
X56215588Y-91709731D01*
X55999355Y-91514822D01*
X55882466Y-91445195D01*
X56064632Y-91323475D01*
X56271475Y-91116632D01*
X56312656Y-91055000D01*
X58495344Y-91055000D01*
X58536525Y-91116632D01*
X58743368Y-91323475D01*
X58925534Y-91445195D01*
X58808645Y-91514822D01*
X58592412Y-91709731D01*
X58418359Y-91943080D01*
X58293175Y-92205901D01*
X58248524Y-92353110D01*
X58369845Y-92583000D01*
X59563000Y-92583000D01*
X59563000Y-92563000D01*
X59817000Y-92563000D01*
X59817000Y-92583000D01*
X61010155Y-92583000D01*
X61131476Y-92353110D01*
X61086825Y-92205901D01*
X60961641Y-91943080D01*
X60787588Y-91709731D01*
X60571355Y-91514822D01*
X60454466Y-91445195D01*
X60636632Y-91323475D01*
X60843475Y-91116632D01*
X61005990Y-90873411D01*
X61117932Y-90603158D01*
X61175000Y-90316260D01*
X61175000Y-90023740D01*
X61117932Y-89736842D01*
X61005990Y-89466589D01*
X60843475Y-89223368D01*
X60636632Y-89016525D01*
X60454466Y-88894805D01*
X60571355Y-88825178D01*
X60787588Y-88630269D01*
X60961641Y-88396920D01*
X61086825Y-88134099D01*
X61131476Y-87986890D01*
X61010156Y-87757002D01*
X61105424Y-87757002D01*
X62071983Y-88723561D01*
X62065000Y-88758665D01*
X62065000Y-89041335D01*
X62120147Y-89318574D01*
X62228320Y-89579727D01*
X62385363Y-89814759D01*
X62585241Y-90014637D01*
X62820273Y-90171680D01*
X63081426Y-90279853D01*
X63358665Y-90335000D01*
X63641335Y-90335000D01*
X63918574Y-90279853D01*
X64179727Y-90171680D01*
X64414759Y-90014637D01*
X64614637Y-89814759D01*
X64771680Y-89579727D01*
X64879853Y-89318574D01*
X64935000Y-89041335D01*
X64935000Y-88922577D01*
X65507470Y-89495047D01*
X65535185Y-89528817D01*
X65568953Y-89556530D01*
X65568955Y-89556532D01*
X65597218Y-89579727D01*
X65669943Y-89639411D01*
X65823689Y-89721589D01*
X65990512Y-89772195D01*
X66120525Y-89785000D01*
X66120535Y-89785000D01*
X66164001Y-89789281D01*
X66177454Y-89787956D01*
X66195363Y-89814759D01*
X66395241Y-90014637D01*
X66627759Y-90170000D01*
X66395241Y-90325363D01*
X66195363Y-90525241D01*
X66175479Y-90555000D01*
X63543476Y-90555000D01*
X63500000Y-90550718D01*
X63456523Y-90555000D01*
X63326510Y-90567805D01*
X63159687Y-90618411D01*
X63005941Y-90700589D01*
X62871183Y-90811183D01*
X62760589Y-90945941D01*
X62678411Y-91099687D01*
X62627805Y-91266510D01*
X62610718Y-91440000D01*
X62615000Y-91483477D01*
X62615001Y-96153420D01*
X61863422Y-96905000D01*
X60884656Y-96905000D01*
X60843475Y-96843368D01*
X60636632Y-96636525D01*
X60462240Y-96520000D01*
X60636632Y-96403475D01*
X60843475Y-96196632D01*
X61005990Y-95953411D01*
X61117932Y-95683158D01*
X61175000Y-95396260D01*
X61175000Y-95103740D01*
X61117932Y-94816842D01*
X61005990Y-94546589D01*
X60843475Y-94303368D01*
X60636632Y-94096525D01*
X60454466Y-93974805D01*
X60571355Y-93905178D01*
X60787588Y-93710269D01*
X60961641Y-93476920D01*
X61086825Y-93214099D01*
X61131476Y-93066890D01*
X61010155Y-92837000D01*
X59817000Y-92837000D01*
X59817000Y-92857000D01*
X59563000Y-92857000D01*
X59563000Y-92837000D01*
X58369845Y-92837000D01*
X58248524Y-93066890D01*
X58293175Y-93214099D01*
X58418359Y-93476920D01*
X58592412Y-93710269D01*
X58808645Y-93905178D01*
X58925534Y-93974805D01*
X58743368Y-94096525D01*
X58536525Y-94303368D01*
X58495344Y-94365000D01*
X56312656Y-94365000D01*
X56271475Y-94303368D01*
X56064632Y-94096525D01*
X55882466Y-93974805D01*
X55999355Y-93905178D01*
X56215588Y-93710269D01*
X56389641Y-93476920D01*
X56514825Y-93214099D01*
X56559476Y-93066890D01*
X56438155Y-92837000D01*
X55245000Y-92837000D01*
X55245000Y-92857000D01*
X54991000Y-92857000D01*
X54991000Y-92837000D01*
X53797845Y-92837000D01*
X53676524Y-93066890D01*
X53721175Y-93214099D01*
X53846359Y-93476920D01*
X54020412Y-93710269D01*
X54236645Y-93905178D01*
X54353534Y-93974805D01*
X54171368Y-94096525D01*
X53964525Y-94303368D01*
X53925569Y-94361669D01*
X53915919Y-94360719D01*
X53872450Y-94365000D01*
X53872442Y-94365000D01*
X53742429Y-94377805D01*
X53575605Y-94428411D01*
X53421860Y-94510589D01*
X53320872Y-94593468D01*
X53320870Y-94593470D01*
X53287102Y-94621183D01*
X53259389Y-94654951D01*
X52722950Y-95191391D01*
X52689183Y-95219103D01*
X52661470Y-95252871D01*
X52661467Y-95252874D01*
X52578589Y-95353861D01*
X52496411Y-95507607D01*
X52445804Y-95674430D01*
X52428718Y-95847920D01*
X52433000Y-95891399D01*
X52432999Y-101150532D01*
X52428718Y-101194001D01*
X52432999Y-101237470D01*
X52432999Y-101237477D01*
X52444211Y-101351315D01*
X52445804Y-101367491D01*
X52452811Y-101390590D01*
X52496410Y-101534313D01*
X52578588Y-101688059D01*
X52689182Y-101822818D01*
X52722955Y-101850535D01*
X53597469Y-102725050D01*
X53625182Y-102758818D01*
X53658950Y-102786531D01*
X53658952Y-102786533D01*
X53759939Y-102869411D01*
X53759940Y-102869412D01*
X53913686Y-102951590D01*
X54080509Y-103002196D01*
X54210522Y-103015001D01*
X54210530Y-103015001D01*
X54253999Y-103019282D01*
X54297468Y-103015001D01*
X66786532Y-103015001D01*
X66830001Y-103019282D01*
X66873470Y-103015001D01*
X66873478Y-103015001D01*
X67003491Y-103002196D01*
X67170314Y-102951590D01*
X67324060Y-102869412D01*
X67458818Y-102758818D01*
X67486535Y-102725045D01*
X69655050Y-100556531D01*
X69688818Y-100528818D01*
X69735994Y-100471335D01*
X69799411Y-100394061D01*
X69799412Y-100394060D01*
X69881590Y-100240314D01*
X69932196Y-100073491D01*
X69945001Y-99943478D01*
X69945001Y-99943468D01*
X69949282Y-99900002D01*
X69945001Y-99856536D01*
X69945001Y-86653470D01*
X69949282Y-86610001D01*
X69945001Y-86566532D01*
X69945001Y-86566524D01*
X69932196Y-86436511D01*
X69881590Y-86269688D01*
X69799412Y-86115942D01*
X69688818Y-85981184D01*
X69655046Y-85953468D01*
X69466534Y-85764956D01*
X69438817Y-85731183D01*
X69304059Y-85620589D01*
X69150313Y-85538411D01*
X68983490Y-85487805D01*
X68853477Y-85475000D01*
X68853469Y-85475000D01*
X68810000Y-85470719D01*
X68766531Y-85475000D01*
X68739701Y-85475000D01*
X68735812Y-85435518D01*
X68699502Y-85315820D01*
X68640537Y-85205506D01*
X68561185Y-85108815D01*
X68464494Y-85029463D01*
X68354180Y-84970498D01*
X68234482Y-84934188D01*
X68110000Y-84921928D01*
X66510000Y-84921928D01*
X66385518Y-84934188D01*
X66265820Y-84970498D01*
X66155506Y-85029463D01*
X66058815Y-85108815D01*
X65979463Y-85205506D01*
X65920498Y-85315820D01*
X65884188Y-85435518D01*
X65871928Y-85560000D01*
X65871928Y-87160000D01*
X65884188Y-87284482D01*
X65920498Y-87404180D01*
X65921344Y-87405764D01*
X64364467Y-85848887D01*
X64583012Y-85805415D01*
X64844165Y-85697242D01*
X65079197Y-85540199D01*
X65279075Y-85340321D01*
X65436118Y-85105289D01*
X65544291Y-84844136D01*
X65599438Y-84566897D01*
X65599438Y-84284227D01*
X65544291Y-84006988D01*
X65436118Y-83745835D01*
X65279075Y-83510803D01*
X65079197Y-83310925D01*
X65049438Y-83291041D01*
X65049438Y-82800000D01*
X66055210Y-82800000D01*
X66117688Y-82893505D01*
X66331495Y-83107312D01*
X66582905Y-83275299D01*
X66862257Y-83391011D01*
X67158816Y-83450000D01*
X67461184Y-83450000D01*
X67757743Y-83391011D01*
X68037095Y-83275299D01*
X68288505Y-83107312D01*
X68502312Y-82893505D01*
X68670299Y-82642095D01*
X68786011Y-82362743D01*
X68845000Y-82066184D01*
X68845000Y-81763816D01*
X68786011Y-81467257D01*
X68670299Y-81187905D01*
X68502312Y-80936495D01*
X68288505Y-80722688D01*
X68037095Y-80554701D01*
X67757743Y-80438989D01*
X67461184Y-80380000D01*
X67158816Y-80380000D01*
X66862257Y-80438989D01*
X66582905Y-80554701D01*
X66331495Y-80722688D01*
X66117688Y-80936495D01*
X66055210Y-81030000D01*
X64178469Y-81030000D01*
X64135000Y-81025719D01*
X64091531Y-81030000D01*
X62596579Y-81030000D01*
X60981532Y-79414954D01*
X60953817Y-79381183D01*
X60819059Y-79270589D01*
X60665313Y-79188411D01*
X60498490Y-79137805D01*
X60368477Y-79125000D01*
X60368469Y-79125000D01*
X60325000Y-79120719D01*
X60281531Y-79125000D01*
X54291463Y-79125000D01*
X54247997Y-79120719D01*
X54204531Y-79125000D01*
X54204521Y-79125000D01*
X54074508Y-79137805D01*
X53907685Y-79188411D01*
X53753939Y-79270589D01*
X53753937Y-79270590D01*
X53753938Y-79270590D01*
X53652951Y-79353468D01*
X53652949Y-79353470D01*
X53619181Y-79381183D01*
X53591468Y-79414951D01*
X52722955Y-80283465D01*
X52689182Y-80311182D01*
X52578588Y-80445941D01*
X52496410Y-80599687D01*
X52469096Y-80689727D01*
X52445804Y-80766509D01*
X52444779Y-80776920D01*
X52432999Y-80896523D01*
X52432999Y-80896530D01*
X52428718Y-80939999D01*
X51460000Y-80939999D01*
X51460000Y-66951984D01*
X55655000Y-66951984D01*
X55655000Y-67668016D01*
X55794691Y-68370290D01*
X56068705Y-69031818D01*
X56466511Y-69627177D01*
X56972823Y-70133489D01*
X57568182Y-70531295D01*
X58229710Y-70805309D01*
X58931984Y-70945000D01*
X59648016Y-70945000D01*
X60159081Y-70843343D01*
X59729951Y-71272472D01*
X59696184Y-71300185D01*
X59668471Y-71333953D01*
X59668468Y-71333956D01*
X59585590Y-71434943D01*
X59503412Y-71588689D01*
X59452805Y-71755512D01*
X59435719Y-71929002D01*
X59440001Y-71972481D01*
X59440000Y-75065479D01*
X59410241Y-75085363D01*
X59210363Y-75285241D01*
X59053320Y-75520273D01*
X58945147Y-75781426D01*
X58890000Y-76058665D01*
X58890000Y-76341335D01*
X58945147Y-76618574D01*
X59053320Y-76879727D01*
X59210363Y-77114759D01*
X59410241Y-77314637D01*
X59645273Y-77471680D01*
X59906426Y-77579853D01*
X60183665Y-77635000D01*
X60466335Y-77635000D01*
X60743574Y-77579853D01*
X61004727Y-77471680D01*
X61239759Y-77314637D01*
X61439637Y-77114759D01*
X61459521Y-77085000D01*
X62723191Y-77085000D01*
X62865013Y-77297252D01*
X63092748Y-77524987D01*
X63360537Y-77703918D01*
X63658088Y-77827168D01*
X63973967Y-77890000D01*
X64296033Y-77890000D01*
X64611912Y-77827168D01*
X64909463Y-77703918D01*
X65177252Y-77524987D01*
X65404987Y-77297252D01*
X65510059Y-77140000D01*
X69259941Y-77140000D01*
X69365013Y-77297252D01*
X69592748Y-77524987D01*
X69860537Y-77703918D01*
X70158088Y-77827168D01*
X70473967Y-77890000D01*
X70796033Y-77890000D01*
X71111912Y-77827168D01*
X71409463Y-77703918D01*
X71677252Y-77524987D01*
X71904987Y-77297252D01*
X72083918Y-77029463D01*
X72207168Y-76731912D01*
X72270000Y-76416033D01*
X72270000Y-76093967D01*
X72207168Y-75778088D01*
X72083918Y-75480537D01*
X71904987Y-75212748D01*
X71677252Y-74985013D01*
X71409463Y-74806082D01*
X71111912Y-74682832D01*
X70796033Y-74620000D01*
X70473967Y-74620000D01*
X70158088Y-74682832D01*
X69860537Y-74806082D01*
X69592748Y-74985013D01*
X69365013Y-75212748D01*
X69259941Y-75370000D01*
X65510059Y-75370000D01*
X65404987Y-75212748D01*
X65177252Y-74985013D01*
X64909463Y-74806082D01*
X64611912Y-74682832D01*
X64296033Y-74620000D01*
X63973967Y-74620000D01*
X63658088Y-74682832D01*
X63360537Y-74806082D01*
X63092748Y-74985013D01*
X62865013Y-75212748D01*
X62796690Y-75315000D01*
X61459521Y-75315000D01*
X61439637Y-75285241D01*
X61239759Y-75085363D01*
X61210000Y-75065479D01*
X61210000Y-72890413D01*
X63179192Y-72890413D01*
X63274956Y-73154814D01*
X63564571Y-73295704D01*
X63876108Y-73377384D01*
X64197595Y-73396718D01*
X64516675Y-73352961D01*
X64821088Y-73247795D01*
X64995044Y-73154814D01*
X65090808Y-72890413D01*
X69679192Y-72890413D01*
X69774956Y-73154814D01*
X70064571Y-73295704D01*
X70376108Y-73377384D01*
X70697595Y-73396718D01*
X71016675Y-73352961D01*
X71321088Y-73247795D01*
X71495044Y-73154814D01*
X71590808Y-72890413D01*
X70635000Y-71934605D01*
X69679192Y-72890413D01*
X65090808Y-72890413D01*
X64135000Y-71934605D01*
X63179192Y-72890413D01*
X61210000Y-72890413D01*
X61210000Y-72295580D01*
X61687985Y-71817595D01*
X62493282Y-71817595D01*
X62537039Y-72136675D01*
X62642205Y-72441088D01*
X62735186Y-72615044D01*
X62999587Y-72710808D01*
X63955395Y-71755000D01*
X64314605Y-71755000D01*
X65270413Y-72710808D01*
X65534814Y-72615044D01*
X65675704Y-72325429D01*
X65757384Y-72013892D01*
X65769189Y-71817595D01*
X68993282Y-71817595D01*
X69037039Y-72136675D01*
X69142205Y-72441088D01*
X69235186Y-72615044D01*
X69499587Y-72710808D01*
X70455395Y-71755000D01*
X69499587Y-70799192D01*
X69235186Y-70894956D01*
X69094296Y-71184571D01*
X69012616Y-71496108D01*
X68993282Y-71817595D01*
X65769189Y-71817595D01*
X65776718Y-71692405D01*
X65732961Y-71373325D01*
X65627795Y-71068912D01*
X65534814Y-70894956D01*
X65270413Y-70799192D01*
X64314605Y-71755000D01*
X63955395Y-71755000D01*
X62999587Y-70799192D01*
X62735186Y-70894956D01*
X62594296Y-71184571D01*
X62512616Y-71496108D01*
X62493282Y-71817595D01*
X61687985Y-71817595D01*
X62885993Y-70619587D01*
X63179192Y-70619587D01*
X64135000Y-71575395D01*
X65090808Y-70619587D01*
X64995044Y-70355186D01*
X64705429Y-70214296D01*
X64393892Y-70132616D01*
X64072405Y-70113282D01*
X63753325Y-70157039D01*
X63448912Y-70262205D01*
X63274956Y-70355186D01*
X63179192Y-70619587D01*
X62885993Y-70619587D01*
X64730050Y-68775531D01*
X64763817Y-68747819D01*
X64805914Y-68696525D01*
X64874411Y-68613061D01*
X64956589Y-68459316D01*
X65007195Y-68292492D01*
X65016183Y-68201232D01*
X65020000Y-68162479D01*
X65020000Y-68162471D01*
X65024281Y-68119002D01*
X65020000Y-68075533D01*
X65020000Y-64295059D01*
X65177252Y-64189987D01*
X65404987Y-63962252D01*
X65510059Y-63805000D01*
X69259941Y-63805000D01*
X69365013Y-63962252D01*
X69592748Y-64189987D01*
X69860537Y-64368918D01*
X70158088Y-64492168D01*
X70473967Y-64555000D01*
X70796033Y-64555000D01*
X71111912Y-64492168D01*
X71409463Y-64368918D01*
X71677252Y-64189987D01*
X71904987Y-63962252D01*
X71980237Y-63849633D01*
X72110241Y-63979637D01*
X72345273Y-64136680D01*
X72606426Y-64244853D01*
X72883665Y-64300000D01*
X73166335Y-64300000D01*
X73443574Y-64244853D01*
X73704727Y-64136680D01*
X73939759Y-63979637D01*
X74139637Y-63779759D01*
X74296680Y-63544727D01*
X74404853Y-63283574D01*
X74460000Y-63006335D01*
X74460000Y-62723665D01*
X74404853Y-62446426D01*
X74296680Y-62185273D01*
X74139637Y-61950241D01*
X73939759Y-61750363D01*
X73704727Y-61593320D01*
X73443574Y-61485147D01*
X73166335Y-61430000D01*
X72883665Y-61430000D01*
X72606426Y-61485147D01*
X72345273Y-61593320D01*
X72110241Y-61750363D01*
X71936177Y-61924427D01*
X71904987Y-61877748D01*
X71677252Y-61650013D01*
X71409463Y-61471082D01*
X71111912Y-61347832D01*
X70796033Y-61285000D01*
X70473967Y-61285000D01*
X70158088Y-61347832D01*
X69860537Y-61471082D01*
X69592748Y-61650013D01*
X69365013Y-61877748D01*
X69259941Y-62035000D01*
X65510059Y-62035000D01*
X65404987Y-61877748D01*
X65177252Y-61650013D01*
X64909463Y-61471082D01*
X64611912Y-61347832D01*
X64296033Y-61285000D01*
X63973967Y-61285000D01*
X63788475Y-61321896D01*
X59305000Y-56838422D01*
X59305000Y-54715059D01*
X59462252Y-54609987D01*
X59689987Y-54382252D01*
X59795059Y-54225000D01*
X63544941Y-54225000D01*
X63650013Y-54382252D01*
X63759366Y-54491605D01*
X63716426Y-54500147D01*
X63455273Y-54608320D01*
X63220241Y-54765363D01*
X63020363Y-54965241D01*
X62863320Y-55200273D01*
X62755147Y-55461426D01*
X62700000Y-55738665D01*
X62700000Y-56021335D01*
X62755147Y-56298574D01*
X62863320Y-56559727D01*
X63020363Y-56794759D01*
X63220241Y-56994637D01*
X63250001Y-57014522D01*
X63250001Y-57044940D01*
X63092748Y-57150013D01*
X62865013Y-57377748D01*
X62686082Y-57645537D01*
X62562832Y-57943088D01*
X62500000Y-58258967D01*
X62500000Y-58581033D01*
X62562832Y-58896912D01*
X62686082Y-59194463D01*
X62865013Y-59462252D01*
X63092748Y-59689987D01*
X63360537Y-59868918D01*
X63658088Y-59992168D01*
X63973967Y-60055000D01*
X64296033Y-60055000D01*
X64611912Y-59992168D01*
X64909463Y-59868918D01*
X65177252Y-59689987D01*
X65404987Y-59462252D01*
X65510059Y-59305000D01*
X69259941Y-59305000D01*
X69365013Y-59462252D01*
X69592748Y-59689987D01*
X69860537Y-59868918D01*
X70158088Y-59992168D01*
X70473967Y-60055000D01*
X70796033Y-60055000D01*
X71111912Y-59992168D01*
X71409463Y-59868918D01*
X71677252Y-59689987D01*
X71904987Y-59462252D01*
X72083918Y-59194463D01*
X72207168Y-58896912D01*
X72270000Y-58581033D01*
X72270000Y-58258967D01*
X72207168Y-57943088D01*
X72083918Y-57645537D01*
X71904987Y-57377748D01*
X71677252Y-57150013D01*
X71409463Y-56971082D01*
X71151042Y-56864040D01*
X77348091Y-56864040D01*
X77442930Y-57128881D01*
X77587615Y-57370131D01*
X77776586Y-57578519D01*
X78002580Y-57746037D01*
X78256913Y-57866246D01*
X78390961Y-57906904D01*
X78613000Y-57784915D01*
X78613000Y-56642000D01*
X78867000Y-56642000D01*
X78867000Y-57784915D01*
X79089039Y-57906904D01*
X79223087Y-57866246D01*
X79477420Y-57746037D01*
X79703414Y-57578519D01*
X79892385Y-57370131D01*
X80037070Y-57128881D01*
X80131909Y-56864040D01*
X80010624Y-56642000D01*
X78867000Y-56642000D01*
X78613000Y-56642000D01*
X77469376Y-56642000D01*
X77348091Y-56864040D01*
X71151042Y-56864040D01*
X71111912Y-56847832D01*
X70796033Y-56785000D01*
X70473967Y-56785000D01*
X70158088Y-56847832D01*
X69860537Y-56971082D01*
X69592748Y-57150013D01*
X69365013Y-57377748D01*
X69259941Y-57535000D01*
X65510059Y-57535000D01*
X65404987Y-57377748D01*
X65177252Y-57150013D01*
X65020000Y-57044941D01*
X65020000Y-57014521D01*
X65049759Y-56994637D01*
X65249637Y-56794759D01*
X65406680Y-56559727D01*
X65514853Y-56298574D01*
X65541231Y-56165960D01*
X77348091Y-56165960D01*
X77469376Y-56388000D01*
X78613000Y-56388000D01*
X78613000Y-55245085D01*
X78867000Y-55245085D01*
X78867000Y-56388000D01*
X80010624Y-56388000D01*
X80131909Y-56165960D01*
X80037070Y-55901119D01*
X79892385Y-55659869D01*
X79703414Y-55451481D01*
X79477420Y-55283963D01*
X79223087Y-55163754D01*
X79089039Y-55123096D01*
X78867000Y-55245085D01*
X78613000Y-55245085D01*
X78390961Y-55123096D01*
X78256913Y-55163754D01*
X78002580Y-55283963D01*
X77776586Y-55451481D01*
X77587615Y-55659869D01*
X77442930Y-55901119D01*
X77348091Y-56165960D01*
X65541231Y-56165960D01*
X65570000Y-56021335D01*
X65570000Y-55738665D01*
X65514853Y-55461426D01*
X65406680Y-55200273D01*
X65249637Y-54965241D01*
X65229804Y-54945408D01*
X65396912Y-54912168D01*
X65694463Y-54788918D01*
X65962252Y-54609987D01*
X66189987Y-54382252D01*
X66295059Y-54225000D01*
X67266523Y-54225000D01*
X67310000Y-54229282D01*
X67353476Y-54225000D01*
X68474941Y-54225000D01*
X68580013Y-54382252D01*
X68807748Y-54609987D01*
X69075537Y-54788918D01*
X69373088Y-54912168D01*
X69688967Y-54975000D01*
X70011033Y-54975000D01*
X70326912Y-54912168D01*
X70624463Y-54788918D01*
X70892252Y-54609987D01*
X71119987Y-54382252D01*
X71225059Y-54225000D01*
X74974941Y-54225000D01*
X75080013Y-54382252D01*
X75307748Y-54609987D01*
X75575537Y-54788918D01*
X75873088Y-54912168D01*
X76188967Y-54975000D01*
X76511033Y-54975000D01*
X76826912Y-54912168D01*
X77124463Y-54788918D01*
X77392252Y-54609987D01*
X77619987Y-54382252D01*
X77798918Y-54114463D01*
X77922168Y-53816912D01*
X77985000Y-53501033D01*
X77985000Y-53178967D01*
X77922168Y-52863088D01*
X77798918Y-52565537D01*
X77619987Y-52297748D01*
X77392252Y-52070013D01*
X77124463Y-51891082D01*
X76826912Y-51767832D01*
X76511033Y-51705000D01*
X76188967Y-51705000D01*
X75873088Y-51767832D01*
X75575537Y-51891082D01*
X75307748Y-52070013D01*
X75080013Y-52297748D01*
X74974941Y-52455000D01*
X71225059Y-52455000D01*
X71119987Y-52297748D01*
X70892252Y-52070013D01*
X70624463Y-51891082D01*
X70326912Y-51767832D01*
X70011033Y-51705000D01*
X69688967Y-51705000D01*
X69373088Y-51767832D01*
X69075537Y-51891082D01*
X68807748Y-52070013D01*
X68580013Y-52297748D01*
X68474941Y-52455000D01*
X68195000Y-52455000D01*
X68195000Y-48678967D01*
X68215000Y-48678967D01*
X68215000Y-49001033D01*
X68277832Y-49316912D01*
X68401082Y-49614463D01*
X68580013Y-49882252D01*
X68807748Y-50109987D01*
X69075537Y-50288918D01*
X69373088Y-50412168D01*
X69688967Y-50475000D01*
X70011033Y-50475000D01*
X70326912Y-50412168D01*
X70624463Y-50288918D01*
X70892252Y-50109987D01*
X71119987Y-49882252D01*
X71225059Y-49725000D01*
X74974941Y-49725000D01*
X75080013Y-49882252D01*
X75307748Y-50109987D01*
X75575537Y-50288918D01*
X75873088Y-50412168D01*
X76188967Y-50475000D01*
X76511033Y-50475000D01*
X76826912Y-50412168D01*
X77124463Y-50288918D01*
X77392252Y-50109987D01*
X77619987Y-49882252D01*
X77651177Y-49835573D01*
X77825241Y-50009637D01*
X78060273Y-50166680D01*
X78321426Y-50274853D01*
X78598665Y-50330000D01*
X78881335Y-50330000D01*
X79158574Y-50274853D01*
X79419727Y-50166680D01*
X79654759Y-50009637D01*
X79854637Y-49809759D01*
X80011680Y-49574727D01*
X80119853Y-49313574D01*
X80175000Y-49036335D01*
X80175000Y-48753665D01*
X80119853Y-48476426D01*
X80011680Y-48215273D01*
X79854637Y-47980241D01*
X79654759Y-47780363D01*
X79419727Y-47623320D01*
X79158574Y-47515147D01*
X78881335Y-47460000D01*
X78598665Y-47460000D01*
X78321426Y-47515147D01*
X78060273Y-47623320D01*
X77825241Y-47780363D01*
X77695237Y-47910367D01*
X77619987Y-47797748D01*
X77392252Y-47570013D01*
X77124463Y-47391082D01*
X76826912Y-47267832D01*
X76511033Y-47205000D01*
X76188967Y-47205000D01*
X75873088Y-47267832D01*
X75575537Y-47391082D01*
X75307748Y-47570013D01*
X75080013Y-47797748D01*
X74974941Y-47955000D01*
X71225059Y-47955000D01*
X71119987Y-47797748D01*
X70892252Y-47570013D01*
X70624463Y-47391082D01*
X70326912Y-47267832D01*
X70011033Y-47205000D01*
X69688967Y-47205000D01*
X69373088Y-47267832D01*
X69075537Y-47391082D01*
X68807748Y-47570013D01*
X68580013Y-47797748D01*
X68401082Y-48065537D01*
X68277832Y-48363088D01*
X68215000Y-48678967D01*
X68195000Y-48678967D01*
X68195000Y-44755000D01*
X69259941Y-44755000D01*
X69365013Y-44912252D01*
X69592748Y-45139987D01*
X69860537Y-45318918D01*
X70158088Y-45442168D01*
X70473967Y-45505000D01*
X70796033Y-45505000D01*
X71111912Y-45442168D01*
X71409463Y-45318918D01*
X71677252Y-45139987D01*
X71904987Y-44912252D01*
X71980632Y-44799040D01*
X77348091Y-44799040D01*
X77442930Y-45063881D01*
X77587615Y-45305131D01*
X77776586Y-45513519D01*
X78002580Y-45681037D01*
X78256913Y-45801246D01*
X78390961Y-45841904D01*
X78613000Y-45719915D01*
X78613000Y-44577000D01*
X78867000Y-44577000D01*
X78867000Y-45719915D01*
X79089039Y-45841904D01*
X79223087Y-45801246D01*
X79477420Y-45681037D01*
X79703414Y-45513519D01*
X79892385Y-45305131D01*
X80037070Y-45063881D01*
X80131909Y-44799040D01*
X80010624Y-44577000D01*
X78867000Y-44577000D01*
X78613000Y-44577000D01*
X77469376Y-44577000D01*
X77348091Y-44799040D01*
X71980632Y-44799040D01*
X72083918Y-44644463D01*
X72207168Y-44346912D01*
X72256090Y-44100960D01*
X77348091Y-44100960D01*
X77469376Y-44323000D01*
X78613000Y-44323000D01*
X78613000Y-43180085D01*
X78867000Y-43180085D01*
X78867000Y-44323000D01*
X80010624Y-44323000D01*
X80131909Y-44100960D01*
X80037070Y-43836119D01*
X79892385Y-43594869D01*
X79703414Y-43386481D01*
X79477420Y-43218963D01*
X79223087Y-43098754D01*
X79089039Y-43058096D01*
X78867000Y-43180085D01*
X78613000Y-43180085D01*
X78390961Y-43058096D01*
X78256913Y-43098754D01*
X78002580Y-43218963D01*
X77776586Y-43386481D01*
X77587615Y-43594869D01*
X77442930Y-43836119D01*
X77348091Y-44100960D01*
X72256090Y-44100960D01*
X72270000Y-44031033D01*
X72270000Y-43708967D01*
X72207168Y-43393088D01*
X72083918Y-43095537D01*
X71904987Y-42827748D01*
X71677252Y-42600013D01*
X71409463Y-42421082D01*
X71111912Y-42297832D01*
X70796033Y-42235000D01*
X70473967Y-42235000D01*
X70158088Y-42297832D01*
X69860537Y-42421082D01*
X69592748Y-42600013D01*
X69365013Y-42827748D01*
X69259941Y-42985000D01*
X67622586Y-42985000D01*
X67483490Y-42942805D01*
X67310000Y-42925718D01*
X67136511Y-42942805D01*
X66997415Y-42985000D01*
X65510059Y-42985000D01*
X65404987Y-42827748D01*
X65177252Y-42600013D01*
X64909463Y-42421082D01*
X64611912Y-42297832D01*
X64296033Y-42235000D01*
X63973967Y-42235000D01*
X63658088Y-42297832D01*
X63360537Y-42421082D01*
X63092748Y-42600013D01*
X62865013Y-42827748D01*
X62686082Y-43095537D01*
X62562832Y-43393088D01*
X62500000Y-43708967D01*
X62500000Y-44031033D01*
X62562832Y-44346912D01*
X62686082Y-44644463D01*
X62865013Y-44912252D01*
X63092748Y-45139987D01*
X63360537Y-45318918D01*
X63658088Y-45442168D01*
X63973967Y-45505000D01*
X64296033Y-45505000D01*
X64611912Y-45442168D01*
X64909463Y-45318918D01*
X65177252Y-45139987D01*
X65404987Y-44912252D01*
X65510059Y-44755000D01*
X66425001Y-44755000D01*
X66425001Y-48200932D01*
X66368918Y-48065537D01*
X66189987Y-47797748D01*
X65962252Y-47570013D01*
X65694463Y-47391082D01*
X65396912Y-47267832D01*
X65081033Y-47205000D01*
X64758967Y-47205000D01*
X64443088Y-47267832D01*
X64145537Y-47391082D01*
X63877748Y-47570013D01*
X63650013Y-47797748D01*
X63544941Y-47955000D01*
X59795059Y-47955000D01*
X59689987Y-47797748D01*
X59462252Y-47570013D01*
X59305000Y-47464941D01*
X59305000Y-46854521D01*
X59334759Y-46834637D01*
X59534637Y-46634759D01*
X59691680Y-46399727D01*
X59799853Y-46138574D01*
X59855000Y-45861335D01*
X59855000Y-45578665D01*
X59799853Y-45301426D01*
X59691680Y-45040273D01*
X59534637Y-44805241D01*
X59334759Y-44605363D01*
X59099727Y-44448320D01*
X58838574Y-44340147D01*
X58561335Y-44285000D01*
X58278665Y-44285000D01*
X58001426Y-44340147D01*
X57740273Y-44448320D01*
X57505241Y-44605363D01*
X57305363Y-44805241D01*
X57148320Y-45040273D01*
X57040147Y-45301426D01*
X56985000Y-45578665D01*
X56985000Y-45861335D01*
X57040147Y-46138574D01*
X57148320Y-46399727D01*
X57305363Y-46634759D01*
X57505241Y-46834637D01*
X57535000Y-46854522D01*
X57535001Y-47464940D01*
X57377748Y-47570013D01*
X57150013Y-47797748D01*
X56971082Y-48065537D01*
X56847832Y-48363088D01*
X56785000Y-48678967D01*
X56785000Y-49001033D01*
X56847832Y-49316912D01*
X56971082Y-49614463D01*
X57150013Y-49882252D01*
X57377748Y-50109987D01*
X57645537Y-50288918D01*
X57943088Y-50412168D01*
X58258967Y-50475000D01*
X58581033Y-50475000D01*
X58896912Y-50412168D01*
X59194463Y-50288918D01*
X59462252Y-50109987D01*
X59689987Y-49882252D01*
X59795059Y-49725000D01*
X63544941Y-49725000D01*
X63650013Y-49882252D01*
X63877748Y-50109987D01*
X64145537Y-50288918D01*
X64443088Y-50412168D01*
X64758967Y-50475000D01*
X65081033Y-50475000D01*
X65396912Y-50412168D01*
X65694463Y-50288918D01*
X65962252Y-50109987D01*
X66189987Y-49882252D01*
X66368918Y-49614463D01*
X66425000Y-49479068D01*
X66425000Y-52455000D01*
X66295059Y-52455000D01*
X66189987Y-52297748D01*
X65962252Y-52070013D01*
X65694463Y-51891082D01*
X65396912Y-51767832D01*
X65081033Y-51705000D01*
X64758967Y-51705000D01*
X64443088Y-51767832D01*
X64145537Y-51891082D01*
X63877748Y-52070013D01*
X63650013Y-52297748D01*
X63544941Y-52455000D01*
X59795059Y-52455000D01*
X59689987Y-52297748D01*
X59462252Y-52070013D01*
X59194463Y-51891082D01*
X58896912Y-51767832D01*
X58581033Y-51705000D01*
X58258967Y-51705000D01*
X57943088Y-51767832D01*
X57645537Y-51891082D01*
X57377748Y-52070013D01*
X57150013Y-52297748D01*
X56971082Y-52565537D01*
X56847832Y-52863088D01*
X56785000Y-53178967D01*
X56785000Y-53501033D01*
X56847832Y-53816912D01*
X56971082Y-54114463D01*
X57150013Y-54382252D01*
X57377748Y-54609987D01*
X57535001Y-54715060D01*
X57535001Y-54877123D01*
X57370131Y-54727615D01*
X57128881Y-54582930D01*
X56864040Y-54488091D01*
X56642000Y-54609376D01*
X56642000Y-55753000D01*
X56662000Y-55753000D01*
X56662000Y-56007000D01*
X56642000Y-56007000D01*
X56642000Y-57150624D01*
X56864040Y-57271909D01*
X57128881Y-57177070D01*
X57370131Y-57032385D01*
X57535000Y-56882878D01*
X57535000Y-57161531D01*
X57530719Y-57205000D01*
X57535000Y-57248469D01*
X57535000Y-57248476D01*
X57547805Y-57378489D01*
X57598411Y-57545312D01*
X57680589Y-57699058D01*
X57791183Y-57833817D01*
X57824956Y-57861534D01*
X62536896Y-62573475D01*
X62500000Y-62758967D01*
X62500000Y-63081033D01*
X62562832Y-63396912D01*
X62686082Y-63694463D01*
X62865013Y-63962252D01*
X63092748Y-64189987D01*
X63250000Y-64295060D01*
X63250000Y-64377689D01*
X63250001Y-64377699D01*
X63250000Y-67752423D01*
X62823343Y-68179080D01*
X62925000Y-67668016D01*
X62925000Y-66951984D01*
X62785309Y-66249710D01*
X62511295Y-65588182D01*
X62113489Y-64992823D01*
X61607177Y-64486511D01*
X61011818Y-64088705D01*
X60350290Y-63814691D01*
X59648016Y-63675000D01*
X58931984Y-63675000D01*
X58229710Y-63814691D01*
X57568182Y-64088705D01*
X56972823Y-64486511D01*
X56466511Y-64992823D01*
X56068705Y-65588182D01*
X55794691Y-66249710D01*
X55655000Y-66951984D01*
X51460000Y-66951984D01*
X51460000Y-56229039D01*
X55123096Y-56229039D01*
X55163754Y-56363087D01*
X55283963Y-56617420D01*
X55451481Y-56843414D01*
X55659869Y-57032385D01*
X55901119Y-57177070D01*
X56165960Y-57271909D01*
X56388000Y-57150624D01*
X56388000Y-56007000D01*
X55245085Y-56007000D01*
X55123096Y-56229039D01*
X51460000Y-56229039D01*
X51460000Y-55530961D01*
X55123096Y-55530961D01*
X55245085Y-55753000D01*
X56388000Y-55753000D01*
X56388000Y-54609376D01*
X56165960Y-54488091D01*
X55901119Y-54582930D01*
X55659869Y-54727615D01*
X55451481Y-54916586D01*
X55283963Y-55142580D01*
X55163754Y-55396913D01*
X55123096Y-55530961D01*
X51460000Y-55530961D01*
X51460000Y-38449040D01*
X57028091Y-38449040D01*
X57122930Y-38713881D01*
X57267615Y-38955131D01*
X57456586Y-39163519D01*
X57682580Y-39331037D01*
X57936913Y-39451246D01*
X58070961Y-39491904D01*
X58293000Y-39369915D01*
X58293000Y-38227000D01*
X58547000Y-38227000D01*
X58547000Y-39369915D01*
X58769039Y-39491904D01*
X58903087Y-39451246D01*
X59157420Y-39331037D01*
X59383414Y-39163519D01*
X59572385Y-38955131D01*
X59717070Y-38713881D01*
X59811909Y-38449040D01*
X59690624Y-38227000D01*
X58547000Y-38227000D01*
X58293000Y-38227000D01*
X57149376Y-38227000D01*
X57028091Y-38449040D01*
X51460000Y-38449040D01*
X51460000Y-37750960D01*
X57028091Y-37750960D01*
X57149376Y-37973000D01*
X58293000Y-37973000D01*
X58293000Y-36830085D01*
X58547000Y-36830085D01*
X58547000Y-37973000D01*
X59690624Y-37973000D01*
X59811909Y-37750960D01*
X59717070Y-37486119D01*
X59572385Y-37244869D01*
X59383414Y-37036481D01*
X59157420Y-36868963D01*
X58903087Y-36748754D01*
X58769039Y-36708096D01*
X58547000Y-36830085D01*
X58293000Y-36830085D01*
X58070961Y-36708096D01*
X57936913Y-36748754D01*
X57682580Y-36868963D01*
X57456586Y-37036481D01*
X57267615Y-37244869D01*
X57122930Y-37486119D01*
X57028091Y-37750960D01*
X51460000Y-37750960D01*
X51460000Y-36220000D01*
X72530740Y-36220000D01*
X72518470Y-36234951D01*
G36*
X66195363Y-92354759D02*
G01*
X66395241Y-92554637D01*
X66630273Y-92711680D01*
X66640865Y-92716067D01*
X66454869Y-92827615D01*
X66246481Y-93016586D01*
X66078963Y-93242580D01*
X65958754Y-93496913D01*
X65918096Y-93630961D01*
X66040085Y-93853000D01*
X67183000Y-93853000D01*
X67183000Y-93833000D01*
X67437000Y-93833000D01*
X67437000Y-93853000D01*
X67457000Y-93853000D01*
X67457000Y-94107000D01*
X67437000Y-94107000D01*
X67437000Y-94127000D01*
X67183000Y-94127000D01*
X67183000Y-94107000D01*
X66040085Y-94107000D01*
X65918096Y-94329039D01*
X65958754Y-94463087D01*
X66078963Y-94717420D01*
X66246481Y-94943414D01*
X66454869Y-95132385D01*
X66640865Y-95243933D01*
X66630273Y-95248320D01*
X66395241Y-95405363D01*
X66195363Y-95605241D01*
X66173732Y-95637615D01*
X66070266Y-95647805D01*
X65903443Y-95698411D01*
X65818041Y-95744059D01*
X65749697Y-95780589D01*
X65648709Y-95863468D01*
X65648707Y-95863470D01*
X65614939Y-95891183D01*
X65587226Y-95924951D01*
X64653317Y-96858861D01*
X64618213Y-96851878D01*
X64335543Y-96851878D01*
X64323416Y-96854290D01*
X64372195Y-96693490D01*
X64385000Y-96563477D01*
X64385000Y-96563467D01*
X64389281Y-96520001D01*
X64385000Y-96476535D01*
X64385000Y-92325000D01*
X66175479Y-92325000D01*
X66195363Y-92354759D01*
G37*
X66195363Y-92354759D02*
X66395241Y-92554637D01*
X66630273Y-92711680D01*
X66640865Y-92716067D01*
X66454869Y-92827615D01*
X66246481Y-93016586D01*
X66078963Y-93242580D01*
X65958754Y-93496913D01*
X65918096Y-93630961D01*
X66040085Y-93853000D01*
X67183000Y-93853000D01*
X67183000Y-93833000D01*
X67437000Y-93833000D01*
X67437000Y-93853000D01*
X67457000Y-93853000D01*
X67457000Y-94107000D01*
X67437000Y-94107000D01*
X67437000Y-94127000D01*
X67183000Y-94127000D01*
X67183000Y-94107000D01*
X66040085Y-94107000D01*
X65918096Y-94329039D01*
X65958754Y-94463087D01*
X66078963Y-94717420D01*
X66246481Y-94943414D01*
X66454869Y-95132385D01*
X66640865Y-95243933D01*
X66630273Y-95248320D01*
X66395241Y-95405363D01*
X66195363Y-95605241D01*
X66173732Y-95637615D01*
X66070266Y-95647805D01*
X65903443Y-95698411D01*
X65818041Y-95744059D01*
X65749697Y-95780589D01*
X65648709Y-95863468D01*
X65648707Y-95863470D01*
X65614939Y-95891183D01*
X65587226Y-95924951D01*
X64653317Y-96858861D01*
X64618213Y-96851878D01*
X64335543Y-96851878D01*
X64323416Y-96854290D01*
X64372195Y-96693490D01*
X64385000Y-96563477D01*
X64385000Y-96563467D01*
X64389281Y-96520001D01*
X64385000Y-96476535D01*
X64385000Y-92325000D01*
X66175479Y-92325000D01*
X66195363Y-92354759D01*
G36*
X58536525Y-86036632D02*
G01*
X58743368Y-86243475D01*
X58925534Y-86365195D01*
X58808645Y-86434822D01*
X58592412Y-86629731D01*
X58418359Y-86863080D01*
X58293175Y-87125901D01*
X58248524Y-87273110D01*
X58369845Y-87503000D01*
X59563000Y-87503000D01*
X59563000Y-87483000D01*
X59817000Y-87483000D01*
X59817000Y-87503000D01*
X59837000Y-87503000D01*
X59837000Y-87757000D01*
X59817000Y-87757000D01*
X59817000Y-87777000D01*
X59563000Y-87777000D01*
X59563000Y-87757000D01*
X58369845Y-87757000D01*
X58248524Y-87986890D01*
X58293175Y-88134099D01*
X58418359Y-88396920D01*
X58592412Y-88630269D01*
X58808645Y-88825178D01*
X58925534Y-88894805D01*
X58743368Y-89016525D01*
X58536525Y-89223368D01*
X58495344Y-89285000D01*
X56312656Y-89285000D01*
X56271475Y-89223368D01*
X56064632Y-89016525D01*
X55882466Y-88894805D01*
X55999355Y-88825178D01*
X56215588Y-88630269D01*
X56389641Y-88396920D01*
X56514825Y-88134099D01*
X56559476Y-87986890D01*
X56438155Y-87757000D01*
X55245000Y-87757000D01*
X55245000Y-87777000D01*
X54991000Y-87777000D01*
X54991000Y-87757000D01*
X54971000Y-87757000D01*
X54971000Y-87503000D01*
X54991000Y-87503000D01*
X54991000Y-87483000D01*
X55245000Y-87483000D01*
X55245000Y-87503000D01*
X56438155Y-87503000D01*
X56559476Y-87273110D01*
X56514825Y-87125901D01*
X56389641Y-86863080D01*
X56215588Y-86629731D01*
X55999355Y-86434822D01*
X55882466Y-86365195D01*
X56064632Y-86243475D01*
X56271475Y-86036632D01*
X56312656Y-85975000D01*
X58495344Y-85975000D01*
X58536525Y-86036632D01*
G37*
X58536525Y-86036632D02*
X58743368Y-86243475D01*
X58925534Y-86365195D01*
X58808645Y-86434822D01*
X58592412Y-86629731D01*
X58418359Y-86863080D01*
X58293175Y-87125901D01*
X58248524Y-87273110D01*
X58369845Y-87503000D01*
X59563000Y-87503000D01*
X59563000Y-87483000D01*
X59817000Y-87483000D01*
X59817000Y-87503000D01*
X59837000Y-87503000D01*
X59837000Y-87757000D01*
X59817000Y-87757000D01*
X59817000Y-87777000D01*
X59563000Y-87777000D01*
X59563000Y-87757000D01*
X58369845Y-87757000D01*
X58248524Y-87986890D01*
X58293175Y-88134099D01*
X58418359Y-88396920D01*
X58592412Y-88630269D01*
X58808645Y-88825178D01*
X58925534Y-88894805D01*
X58743368Y-89016525D01*
X58536525Y-89223368D01*
X58495344Y-89285000D01*
X56312656Y-89285000D01*
X56271475Y-89223368D01*
X56064632Y-89016525D01*
X55882466Y-88894805D01*
X55999355Y-88825178D01*
X56215588Y-88630269D01*
X56389641Y-88396920D01*
X56514825Y-88134099D01*
X56559476Y-87986890D01*
X56438155Y-87757000D01*
X55245000Y-87757000D01*
X55245000Y-87777000D01*
X54991000Y-87777000D01*
X54991000Y-87757000D01*
X54971000Y-87757000D01*
X54971000Y-87503000D01*
X54991000Y-87503000D01*
X54991000Y-87483000D01*
X55245000Y-87483000D01*
X55245000Y-87503000D01*
X56438155Y-87503000D01*
X56559476Y-87273110D01*
X56514825Y-87125901D01*
X56389641Y-86863080D01*
X56215588Y-86629731D01*
X55999355Y-86434822D01*
X55882466Y-86365195D01*
X56064632Y-86243475D01*
X56271475Y-86036632D01*
X56312656Y-85975000D01*
X58495344Y-85975000D01*
X58536525Y-86036632D01*
M02*
