G04 #@! TF.GenerationSoftware,KiCad,Pcbnew,(5.1.5)-3*
G04 #@! TF.CreationDate,2022-12-19T02:05:46+02:00*
G04 #@! TF.ProjectId,arduino-fanatec-pcb,61726475-696e-46f2-9d66-616e61746563,rev?*
G04 #@! TF.SameCoordinates,Original*
G04 #@! TF.FileFunction,Soldermask,Bot*
G04 #@! TF.FilePolarity,Negative*
%FSLAX46Y46*%
G04 Gerber Fmt 4.6, Leading zero omitted, Abs format (unit mm)*
G04 Created by KiCad (PCBNEW (5.1.5)-3) date 2022-12-19 02:05:46*
%MOMM*%
%LPD*%
G04 APERTURE LIST*
%ADD10C,0.700000*%
G04 APERTURE END LIST*
D10*
G36*
X85344943Y-108191248D02*
G01*
X85900189Y-108421238D01*
X86148347Y-108587052D01*
X86399899Y-108755134D01*
X86824866Y-109180101D01*
X86824867Y-109180103D01*
X87158762Y-109679811D01*
X87388752Y-110235057D01*
X87506000Y-110824501D01*
X87506000Y-111425499D01*
X87388752Y-112014943D01*
X87158762Y-112570189D01*
X87158761Y-112570190D01*
X86824866Y-113069899D01*
X86399899Y-113494866D01*
X86148347Y-113662948D01*
X85900189Y-113828762D01*
X85344943Y-114058752D01*
X84755499Y-114176000D01*
X84154501Y-114176000D01*
X83565057Y-114058752D01*
X83009811Y-113828762D01*
X82761653Y-113662948D01*
X82510101Y-113494866D01*
X82085134Y-113069899D01*
X81751239Y-112570190D01*
X81751238Y-112570189D01*
X81521248Y-112014943D01*
X81404000Y-111425499D01*
X81404000Y-110824501D01*
X81521248Y-110235057D01*
X81751238Y-109679811D01*
X82085133Y-109180103D01*
X82085134Y-109180101D01*
X82510101Y-108755134D01*
X82761653Y-108587052D01*
X83009811Y-108421238D01*
X83565057Y-108191248D01*
X84154501Y-108074000D01*
X84755499Y-108074000D01*
X85344943Y-108191248D01*
G37*
G36*
X119493512Y-109593927D02*
G01*
X119642812Y-109623624D01*
X119806784Y-109691544D01*
X119954354Y-109790147D01*
X120079853Y-109915646D01*
X120178456Y-110063216D01*
X120246376Y-110227188D01*
X120281000Y-110401259D01*
X120281000Y-110578741D01*
X120246376Y-110752812D01*
X120178456Y-110916784D01*
X120079853Y-111064354D01*
X119954354Y-111189853D01*
X119806784Y-111288456D01*
X119642812Y-111356376D01*
X119493512Y-111386073D01*
X119468742Y-111391000D01*
X119291258Y-111391000D01*
X119266488Y-111386073D01*
X119117188Y-111356376D01*
X118953216Y-111288456D01*
X118805646Y-111189853D01*
X118680147Y-111064354D01*
X118581544Y-110916784D01*
X118513624Y-110752812D01*
X118479000Y-110578741D01*
X118479000Y-110401259D01*
X118513624Y-110227188D01*
X118581544Y-110063216D01*
X118680147Y-109915646D01*
X118805646Y-109790147D01*
X118953216Y-109691544D01*
X119117188Y-109623624D01*
X119266488Y-109593927D01*
X119291258Y-109589000D01*
X119468742Y-109589000D01*
X119493512Y-109593927D01*
G37*
G36*
X117741000Y-111391000D02*
G01*
X115939000Y-111391000D01*
X115939000Y-109589000D01*
X117741000Y-109589000D01*
X117741000Y-111391000D01*
G37*
G36*
X119493512Y-107053927D02*
G01*
X119642812Y-107083624D01*
X119806784Y-107151544D01*
X119954354Y-107250147D01*
X120079853Y-107375646D01*
X120178456Y-107523216D01*
X120246376Y-107687188D01*
X120281000Y-107861259D01*
X120281000Y-108038741D01*
X120246376Y-108212812D01*
X120178456Y-108376784D01*
X120079853Y-108524354D01*
X119954354Y-108649853D01*
X119806784Y-108748456D01*
X119642812Y-108816376D01*
X119493512Y-108846073D01*
X119468742Y-108851000D01*
X119291258Y-108851000D01*
X119266488Y-108846073D01*
X119117188Y-108816376D01*
X118953216Y-108748456D01*
X118805646Y-108649853D01*
X118680147Y-108524354D01*
X118581544Y-108376784D01*
X118513624Y-108212812D01*
X118479000Y-108038741D01*
X118479000Y-107861259D01*
X118513624Y-107687188D01*
X118581544Y-107523216D01*
X118680147Y-107375646D01*
X118805646Y-107250147D01*
X118953216Y-107151544D01*
X119117188Y-107083624D01*
X119266488Y-107053927D01*
X119291258Y-107049000D01*
X119468742Y-107049000D01*
X119493512Y-107053927D01*
G37*
G36*
X116953512Y-107053927D02*
G01*
X117102812Y-107083624D01*
X117266784Y-107151544D01*
X117414354Y-107250147D01*
X117539853Y-107375646D01*
X117638456Y-107523216D01*
X117706376Y-107687188D01*
X117741000Y-107861259D01*
X117741000Y-108038741D01*
X117706376Y-108212812D01*
X117638456Y-108376784D01*
X117539853Y-108524354D01*
X117414354Y-108649853D01*
X117266784Y-108748456D01*
X117102812Y-108816376D01*
X116953512Y-108846073D01*
X116928742Y-108851000D01*
X116751258Y-108851000D01*
X116726488Y-108846073D01*
X116577188Y-108816376D01*
X116413216Y-108748456D01*
X116265646Y-108649853D01*
X116140147Y-108524354D01*
X116041544Y-108376784D01*
X115973624Y-108212812D01*
X115939000Y-108038741D01*
X115939000Y-107861259D01*
X115973624Y-107687188D01*
X116041544Y-107523216D01*
X116140147Y-107375646D01*
X116265646Y-107250147D01*
X116413216Y-107151544D01*
X116577188Y-107083624D01*
X116726488Y-107053927D01*
X116751258Y-107049000D01*
X116928742Y-107049000D01*
X116953512Y-107053927D01*
G37*
G36*
X119493512Y-104513927D02*
G01*
X119642812Y-104543624D01*
X119806784Y-104611544D01*
X119954354Y-104710147D01*
X120079853Y-104835646D01*
X120178456Y-104983216D01*
X120246376Y-105147188D01*
X120281000Y-105321259D01*
X120281000Y-105498741D01*
X120246376Y-105672812D01*
X120178456Y-105836784D01*
X120079853Y-105984354D01*
X119954354Y-106109853D01*
X119806784Y-106208456D01*
X119642812Y-106276376D01*
X119493512Y-106306073D01*
X119468742Y-106311000D01*
X119291258Y-106311000D01*
X119266488Y-106306073D01*
X119117188Y-106276376D01*
X118953216Y-106208456D01*
X118805646Y-106109853D01*
X118680147Y-105984354D01*
X118581544Y-105836784D01*
X118513624Y-105672812D01*
X118479000Y-105498741D01*
X118479000Y-105321259D01*
X118513624Y-105147188D01*
X118581544Y-104983216D01*
X118680147Y-104835646D01*
X118805646Y-104710147D01*
X118953216Y-104611544D01*
X119117188Y-104543624D01*
X119266488Y-104513927D01*
X119291258Y-104509000D01*
X119468742Y-104509000D01*
X119493512Y-104513927D01*
G37*
G36*
X116953512Y-104513927D02*
G01*
X117102812Y-104543624D01*
X117266784Y-104611544D01*
X117414354Y-104710147D01*
X117539853Y-104835646D01*
X117638456Y-104983216D01*
X117706376Y-105147188D01*
X117741000Y-105321259D01*
X117741000Y-105498741D01*
X117706376Y-105672812D01*
X117638456Y-105836784D01*
X117539853Y-105984354D01*
X117414354Y-106109853D01*
X117266784Y-106208456D01*
X117102812Y-106276376D01*
X116953512Y-106306073D01*
X116928742Y-106311000D01*
X116751258Y-106311000D01*
X116726488Y-106306073D01*
X116577188Y-106276376D01*
X116413216Y-106208456D01*
X116265646Y-106109853D01*
X116140147Y-105984354D01*
X116041544Y-105836784D01*
X115973624Y-105672812D01*
X115939000Y-105498741D01*
X115939000Y-105321259D01*
X115973624Y-105147188D01*
X116041544Y-104983216D01*
X116140147Y-104835646D01*
X116265646Y-104710147D01*
X116413216Y-104611544D01*
X116577188Y-104543624D01*
X116726488Y-104513927D01*
X116751258Y-104509000D01*
X116928742Y-104509000D01*
X116953512Y-104513927D01*
G37*
G36*
X101848228Y-104591703D02*
G01*
X102003100Y-104655853D01*
X102142481Y-104748985D01*
X102261015Y-104867519D01*
X102354147Y-105006900D01*
X102418297Y-105161772D01*
X102451000Y-105326184D01*
X102451000Y-105493816D01*
X102418297Y-105658228D01*
X102354147Y-105813100D01*
X102261015Y-105952481D01*
X102142481Y-106071015D01*
X102003100Y-106164147D01*
X101848228Y-106228297D01*
X101683816Y-106261000D01*
X101516184Y-106261000D01*
X101351772Y-106228297D01*
X101196900Y-106164147D01*
X101057519Y-106071015D01*
X100938985Y-105952481D01*
X100845853Y-105813100D01*
X100781703Y-105658228D01*
X100749000Y-105493816D01*
X100749000Y-105326184D01*
X100781703Y-105161772D01*
X100845853Y-105006900D01*
X100938985Y-104867519D01*
X101057519Y-104748985D01*
X101196900Y-104655853D01*
X101351772Y-104591703D01*
X101516184Y-104559000D01*
X101683816Y-104559000D01*
X101848228Y-104591703D01*
G37*
G36*
X86608228Y-104591703D02*
G01*
X86763100Y-104655853D01*
X86902481Y-104748985D01*
X87021015Y-104867519D01*
X87114147Y-105006900D01*
X87178297Y-105161772D01*
X87211000Y-105326184D01*
X87211000Y-105493816D01*
X87178297Y-105658228D01*
X87114147Y-105813100D01*
X87021015Y-105952481D01*
X86902481Y-106071015D01*
X86763100Y-106164147D01*
X86608228Y-106228297D01*
X86443816Y-106261000D01*
X86276184Y-106261000D01*
X86111772Y-106228297D01*
X85956900Y-106164147D01*
X85817519Y-106071015D01*
X85698985Y-105952481D01*
X85605853Y-105813100D01*
X85541703Y-105658228D01*
X85509000Y-105493816D01*
X85509000Y-105326184D01*
X85541703Y-105161772D01*
X85605853Y-105006900D01*
X85698985Y-104867519D01*
X85817519Y-104748985D01*
X85956900Y-104655853D01*
X86111772Y-104591703D01*
X86276184Y-104559000D01*
X86443816Y-104559000D01*
X86608228Y-104591703D01*
G37*
G36*
X116953512Y-101973927D02*
G01*
X117102812Y-102003624D01*
X117266784Y-102071544D01*
X117414354Y-102170147D01*
X117539853Y-102295646D01*
X117638456Y-102443216D01*
X117706376Y-102607188D01*
X117741000Y-102781259D01*
X117741000Y-102958741D01*
X117706376Y-103132812D01*
X117638456Y-103296784D01*
X117539853Y-103444354D01*
X117414354Y-103569853D01*
X117266784Y-103668456D01*
X117102812Y-103736376D01*
X116953512Y-103766073D01*
X116928742Y-103771000D01*
X116751258Y-103771000D01*
X116726488Y-103766073D01*
X116577188Y-103736376D01*
X116413216Y-103668456D01*
X116265646Y-103569853D01*
X116140147Y-103444354D01*
X116041544Y-103296784D01*
X115973624Y-103132812D01*
X115939000Y-102958741D01*
X115939000Y-102781259D01*
X115973624Y-102607188D01*
X116041544Y-102443216D01*
X116140147Y-102295646D01*
X116265646Y-102170147D01*
X116413216Y-102071544D01*
X116577188Y-102003624D01*
X116726488Y-101973927D01*
X116751258Y-101969000D01*
X116928742Y-101969000D01*
X116953512Y-101973927D01*
G37*
G36*
X119493512Y-101973927D02*
G01*
X119642812Y-102003624D01*
X119806784Y-102071544D01*
X119954354Y-102170147D01*
X120079853Y-102295646D01*
X120178456Y-102443216D01*
X120246376Y-102607188D01*
X120281000Y-102781259D01*
X120281000Y-102958741D01*
X120246376Y-103132812D01*
X120178456Y-103296784D01*
X120079853Y-103444354D01*
X119954354Y-103569853D01*
X119806784Y-103668456D01*
X119642812Y-103736376D01*
X119493512Y-103766073D01*
X119468742Y-103771000D01*
X119291258Y-103771000D01*
X119266488Y-103766073D01*
X119117188Y-103736376D01*
X118953216Y-103668456D01*
X118805646Y-103569853D01*
X118680147Y-103444354D01*
X118581544Y-103296784D01*
X118513624Y-103132812D01*
X118479000Y-102958741D01*
X118479000Y-102781259D01*
X118513624Y-102607188D01*
X118581544Y-102443216D01*
X118680147Y-102295646D01*
X118805646Y-102170147D01*
X118953216Y-102071544D01*
X119117188Y-102003624D01*
X119266488Y-101973927D01*
X119291258Y-101969000D01*
X119468742Y-101969000D01*
X119493512Y-101973927D01*
G37*
G36*
X86608228Y-102051703D02*
G01*
X86763100Y-102115853D01*
X86902481Y-102208985D01*
X87021015Y-102327519D01*
X87114147Y-102466900D01*
X87178297Y-102621772D01*
X87211000Y-102786184D01*
X87211000Y-102953816D01*
X87178297Y-103118228D01*
X87114147Y-103273100D01*
X87021015Y-103412481D01*
X86902481Y-103531015D01*
X86763100Y-103624147D01*
X86608228Y-103688297D01*
X86443816Y-103721000D01*
X86276184Y-103721000D01*
X86111772Y-103688297D01*
X85956900Y-103624147D01*
X85817519Y-103531015D01*
X85698985Y-103412481D01*
X85605853Y-103273100D01*
X85541703Y-103118228D01*
X85509000Y-102953816D01*
X85509000Y-102786184D01*
X85541703Y-102621772D01*
X85605853Y-102466900D01*
X85698985Y-102327519D01*
X85817519Y-102208985D01*
X85956900Y-102115853D01*
X86111772Y-102051703D01*
X86276184Y-102019000D01*
X86443816Y-102019000D01*
X86608228Y-102051703D01*
G37*
G36*
X101848228Y-102051703D02*
G01*
X102003100Y-102115853D01*
X102142481Y-102208985D01*
X102261015Y-102327519D01*
X102354147Y-102466900D01*
X102418297Y-102621772D01*
X102451000Y-102786184D01*
X102451000Y-102953816D01*
X102418297Y-103118228D01*
X102354147Y-103273100D01*
X102261015Y-103412481D01*
X102142481Y-103531015D01*
X102003100Y-103624147D01*
X101848228Y-103688297D01*
X101683816Y-103721000D01*
X101516184Y-103721000D01*
X101351772Y-103688297D01*
X101196900Y-103624147D01*
X101057519Y-103531015D01*
X100938985Y-103412481D01*
X100845853Y-103273100D01*
X100781703Y-103118228D01*
X100749000Y-102953816D01*
X100749000Y-102786184D01*
X100781703Y-102621772D01*
X100845853Y-102466900D01*
X100938985Y-102327519D01*
X101057519Y-102208985D01*
X101196900Y-102115853D01*
X101351772Y-102051703D01*
X101516184Y-102019000D01*
X101683816Y-102019000D01*
X101848228Y-102051703D01*
G37*
G36*
X55231512Y-99433927D02*
G01*
X55380812Y-99463624D01*
X55544784Y-99531544D01*
X55692354Y-99630147D01*
X55817853Y-99755646D01*
X55916456Y-99903216D01*
X55984376Y-100067188D01*
X56019000Y-100241259D01*
X56019000Y-100418741D01*
X55984376Y-100592812D01*
X55916456Y-100756784D01*
X55817853Y-100904354D01*
X55692354Y-101029853D01*
X55544784Y-101128456D01*
X55380812Y-101196376D01*
X55231512Y-101226073D01*
X55206742Y-101231000D01*
X55029258Y-101231000D01*
X55004488Y-101226073D01*
X54855188Y-101196376D01*
X54691216Y-101128456D01*
X54543646Y-101029853D01*
X54418147Y-100904354D01*
X54319544Y-100756784D01*
X54251624Y-100592812D01*
X54217000Y-100418741D01*
X54217000Y-100241259D01*
X54251624Y-100067188D01*
X54319544Y-99903216D01*
X54418147Y-99755646D01*
X54543646Y-99630147D01*
X54691216Y-99531544D01*
X54855188Y-99463624D01*
X55004488Y-99433927D01*
X55029258Y-99429000D01*
X55206742Y-99429000D01*
X55231512Y-99433927D01*
G37*
G36*
X59803512Y-99433927D02*
G01*
X59952812Y-99463624D01*
X60116784Y-99531544D01*
X60264354Y-99630147D01*
X60389853Y-99755646D01*
X60488456Y-99903216D01*
X60556376Y-100067188D01*
X60591000Y-100241259D01*
X60591000Y-100418741D01*
X60556376Y-100592812D01*
X60488456Y-100756784D01*
X60389853Y-100904354D01*
X60264354Y-101029853D01*
X60116784Y-101128456D01*
X59952812Y-101196376D01*
X59803512Y-101226073D01*
X59778742Y-101231000D01*
X59601258Y-101231000D01*
X59576488Y-101226073D01*
X59427188Y-101196376D01*
X59263216Y-101128456D01*
X59115646Y-101029853D01*
X58990147Y-100904354D01*
X58891544Y-100756784D01*
X58823624Y-100592812D01*
X58789000Y-100418741D01*
X58789000Y-100241259D01*
X58823624Y-100067188D01*
X58891544Y-99903216D01*
X58990147Y-99755646D01*
X59115646Y-99630147D01*
X59263216Y-99531544D01*
X59427188Y-99463624D01*
X59576488Y-99433927D01*
X59601258Y-99429000D01*
X59778742Y-99429000D01*
X59803512Y-99433927D01*
G37*
G36*
X119493512Y-99433927D02*
G01*
X119642812Y-99463624D01*
X119806784Y-99531544D01*
X119954354Y-99630147D01*
X120079853Y-99755646D01*
X120178456Y-99903216D01*
X120246376Y-100067188D01*
X120281000Y-100241259D01*
X120281000Y-100418741D01*
X120246376Y-100592812D01*
X120178456Y-100756784D01*
X120079853Y-100904354D01*
X119954354Y-101029853D01*
X119806784Y-101128456D01*
X119642812Y-101196376D01*
X119493512Y-101226073D01*
X119468742Y-101231000D01*
X119291258Y-101231000D01*
X119266488Y-101226073D01*
X119117188Y-101196376D01*
X118953216Y-101128456D01*
X118805646Y-101029853D01*
X118680147Y-100904354D01*
X118581544Y-100756784D01*
X118513624Y-100592812D01*
X118479000Y-100418741D01*
X118479000Y-100241259D01*
X118513624Y-100067188D01*
X118581544Y-99903216D01*
X118680147Y-99755646D01*
X118805646Y-99630147D01*
X118953216Y-99531544D01*
X119117188Y-99463624D01*
X119266488Y-99433927D01*
X119291258Y-99429000D01*
X119468742Y-99429000D01*
X119493512Y-99433927D01*
G37*
G36*
X116953512Y-99433927D02*
G01*
X117102812Y-99463624D01*
X117266784Y-99531544D01*
X117414354Y-99630147D01*
X117539853Y-99755646D01*
X117638456Y-99903216D01*
X117706376Y-100067188D01*
X117741000Y-100241259D01*
X117741000Y-100418741D01*
X117706376Y-100592812D01*
X117638456Y-100756784D01*
X117539853Y-100904354D01*
X117414354Y-101029853D01*
X117266784Y-101128456D01*
X117102812Y-101196376D01*
X116953512Y-101226073D01*
X116928742Y-101231000D01*
X116751258Y-101231000D01*
X116726488Y-101226073D01*
X116577188Y-101196376D01*
X116413216Y-101128456D01*
X116265646Y-101029853D01*
X116140147Y-100904354D01*
X116041544Y-100756784D01*
X115973624Y-100592812D01*
X115939000Y-100418741D01*
X115939000Y-100241259D01*
X115973624Y-100067188D01*
X116041544Y-99903216D01*
X116140147Y-99755646D01*
X116265646Y-99630147D01*
X116413216Y-99531544D01*
X116577188Y-99463624D01*
X116726488Y-99433927D01*
X116751258Y-99429000D01*
X116928742Y-99429000D01*
X116953512Y-99433927D01*
G37*
G36*
X101848228Y-99511703D02*
G01*
X102003100Y-99575853D01*
X102142481Y-99668985D01*
X102261015Y-99787519D01*
X102354147Y-99926900D01*
X102418297Y-100081772D01*
X102451000Y-100246184D01*
X102451000Y-100413816D01*
X102418297Y-100578228D01*
X102354147Y-100733100D01*
X102261015Y-100872481D01*
X102142481Y-100991015D01*
X102003100Y-101084147D01*
X101848228Y-101148297D01*
X101683816Y-101181000D01*
X101516184Y-101181000D01*
X101351772Y-101148297D01*
X101196900Y-101084147D01*
X101057519Y-100991015D01*
X100938985Y-100872481D01*
X100845853Y-100733100D01*
X100781703Y-100578228D01*
X100749000Y-100413816D01*
X100749000Y-100246184D01*
X100781703Y-100081772D01*
X100845853Y-99926900D01*
X100938985Y-99787519D01*
X101057519Y-99668985D01*
X101196900Y-99575853D01*
X101351772Y-99511703D01*
X101516184Y-99479000D01*
X101683816Y-99479000D01*
X101848228Y-99511703D01*
G37*
G36*
X86608228Y-99511703D02*
G01*
X86763100Y-99575853D01*
X86902481Y-99668985D01*
X87021015Y-99787519D01*
X87114147Y-99926900D01*
X87178297Y-100081772D01*
X87211000Y-100246184D01*
X87211000Y-100413816D01*
X87178297Y-100578228D01*
X87114147Y-100733100D01*
X87021015Y-100872481D01*
X86902481Y-100991015D01*
X86763100Y-101084147D01*
X86608228Y-101148297D01*
X86443816Y-101181000D01*
X86276184Y-101181000D01*
X86111772Y-101148297D01*
X85956900Y-101084147D01*
X85817519Y-100991015D01*
X85698985Y-100872481D01*
X85605853Y-100733100D01*
X85541703Y-100578228D01*
X85509000Y-100413816D01*
X85509000Y-100246184D01*
X85541703Y-100081772D01*
X85605853Y-99926900D01*
X85698985Y-99787519D01*
X85817519Y-99668985D01*
X85956900Y-99575853D01*
X86111772Y-99511703D01*
X86276184Y-99479000D01*
X86443816Y-99479000D01*
X86608228Y-99511703D01*
G37*
G36*
X77718228Y-98241703D02*
G01*
X77873100Y-98305853D01*
X78012481Y-98398985D01*
X78131015Y-98517519D01*
X78224147Y-98656900D01*
X78288297Y-98811772D01*
X78321000Y-98976184D01*
X78321000Y-99143816D01*
X78288297Y-99308228D01*
X78224147Y-99463100D01*
X78131015Y-99602481D01*
X78012481Y-99721015D01*
X77873100Y-99814147D01*
X77718228Y-99878297D01*
X77553816Y-99911000D01*
X77386184Y-99911000D01*
X77221772Y-99878297D01*
X77066900Y-99814147D01*
X76927519Y-99721015D01*
X76808985Y-99602481D01*
X76715853Y-99463100D01*
X76651703Y-99308228D01*
X76619000Y-99143816D01*
X76619000Y-98976184D01*
X76651703Y-98811772D01*
X76715853Y-98656900D01*
X76808985Y-98517519D01*
X76927519Y-98398985D01*
X77066900Y-98305853D01*
X77221772Y-98241703D01*
X77386184Y-98209000D01*
X77553816Y-98209000D01*
X77718228Y-98241703D01*
G37*
G36*
X67558228Y-98241703D02*
G01*
X67713100Y-98305853D01*
X67852481Y-98398985D01*
X67971015Y-98517519D01*
X68064147Y-98656900D01*
X68128297Y-98811772D01*
X68161000Y-98976184D01*
X68161000Y-99143816D01*
X68128297Y-99308228D01*
X68064147Y-99463100D01*
X67971015Y-99602481D01*
X67852481Y-99721015D01*
X67713100Y-99814147D01*
X67558228Y-99878297D01*
X67393816Y-99911000D01*
X67226184Y-99911000D01*
X67061772Y-99878297D01*
X66906900Y-99814147D01*
X66767519Y-99721015D01*
X66648985Y-99602481D01*
X66555853Y-99463100D01*
X66491703Y-99308228D01*
X66459000Y-99143816D01*
X66459000Y-98976184D01*
X66491703Y-98811772D01*
X66555853Y-98656900D01*
X66648985Y-98517519D01*
X66767519Y-98398985D01*
X66906900Y-98305853D01*
X67061772Y-98241703D01*
X67226184Y-98209000D01*
X67393816Y-98209000D01*
X67558228Y-98241703D01*
G37*
G36*
X116953512Y-96893927D02*
G01*
X117102812Y-96923624D01*
X117266784Y-96991544D01*
X117414354Y-97090147D01*
X117539853Y-97215646D01*
X117638456Y-97363216D01*
X117706376Y-97527188D01*
X117741000Y-97701259D01*
X117741000Y-97878741D01*
X117706376Y-98052812D01*
X117638456Y-98216784D01*
X117539853Y-98364354D01*
X117414354Y-98489853D01*
X117266784Y-98588456D01*
X117102812Y-98656376D01*
X116953512Y-98686073D01*
X116928742Y-98691000D01*
X116751258Y-98691000D01*
X116726488Y-98686073D01*
X116577188Y-98656376D01*
X116413216Y-98588456D01*
X116265646Y-98489853D01*
X116140147Y-98364354D01*
X116041544Y-98216784D01*
X115973624Y-98052812D01*
X115939000Y-97878741D01*
X115939000Y-97701259D01*
X115973624Y-97527188D01*
X116041544Y-97363216D01*
X116140147Y-97215646D01*
X116265646Y-97090147D01*
X116413216Y-96991544D01*
X116577188Y-96923624D01*
X116726488Y-96893927D01*
X116751258Y-96889000D01*
X116928742Y-96889000D01*
X116953512Y-96893927D01*
G37*
G36*
X59803512Y-96893927D02*
G01*
X59952812Y-96923624D01*
X60116784Y-96991544D01*
X60264354Y-97090147D01*
X60389853Y-97215646D01*
X60488456Y-97363216D01*
X60556376Y-97527188D01*
X60591000Y-97701259D01*
X60591000Y-97878741D01*
X60556376Y-98052812D01*
X60488456Y-98216784D01*
X60389853Y-98364354D01*
X60264354Y-98489853D01*
X60116784Y-98588456D01*
X59952812Y-98656376D01*
X59803512Y-98686073D01*
X59778742Y-98691000D01*
X59601258Y-98691000D01*
X59576488Y-98686073D01*
X59427188Y-98656376D01*
X59263216Y-98588456D01*
X59115646Y-98489853D01*
X58990147Y-98364354D01*
X58891544Y-98216784D01*
X58823624Y-98052812D01*
X58789000Y-97878741D01*
X58789000Y-97701259D01*
X58823624Y-97527188D01*
X58891544Y-97363216D01*
X58990147Y-97215646D01*
X59115646Y-97090147D01*
X59263216Y-96991544D01*
X59427188Y-96923624D01*
X59576488Y-96893927D01*
X59601258Y-96889000D01*
X59778742Y-96889000D01*
X59803512Y-96893927D01*
G37*
G36*
X55231512Y-96893927D02*
G01*
X55380812Y-96923624D01*
X55544784Y-96991544D01*
X55692354Y-97090147D01*
X55817853Y-97215646D01*
X55916456Y-97363216D01*
X55984376Y-97527188D01*
X56019000Y-97701259D01*
X56019000Y-97878741D01*
X55984376Y-98052812D01*
X55916456Y-98216784D01*
X55817853Y-98364354D01*
X55692354Y-98489853D01*
X55544784Y-98588456D01*
X55380812Y-98656376D01*
X55231512Y-98686073D01*
X55206742Y-98691000D01*
X55029258Y-98691000D01*
X55004488Y-98686073D01*
X54855188Y-98656376D01*
X54691216Y-98588456D01*
X54543646Y-98489853D01*
X54418147Y-98364354D01*
X54319544Y-98216784D01*
X54251624Y-98052812D01*
X54217000Y-97878741D01*
X54217000Y-97701259D01*
X54251624Y-97527188D01*
X54319544Y-97363216D01*
X54418147Y-97215646D01*
X54543646Y-97090147D01*
X54691216Y-96991544D01*
X54855188Y-96923624D01*
X55004488Y-96893927D01*
X55029258Y-96889000D01*
X55206742Y-96889000D01*
X55231512Y-96893927D01*
G37*
G36*
X119493512Y-96893927D02*
G01*
X119642812Y-96923624D01*
X119806784Y-96991544D01*
X119954354Y-97090147D01*
X120079853Y-97215646D01*
X120178456Y-97363216D01*
X120246376Y-97527188D01*
X120281000Y-97701259D01*
X120281000Y-97878741D01*
X120246376Y-98052812D01*
X120178456Y-98216784D01*
X120079853Y-98364354D01*
X119954354Y-98489853D01*
X119806784Y-98588456D01*
X119642812Y-98656376D01*
X119493512Y-98686073D01*
X119468742Y-98691000D01*
X119291258Y-98691000D01*
X119266488Y-98686073D01*
X119117188Y-98656376D01*
X118953216Y-98588456D01*
X118805646Y-98489853D01*
X118680147Y-98364354D01*
X118581544Y-98216784D01*
X118513624Y-98052812D01*
X118479000Y-97878741D01*
X118479000Y-97701259D01*
X118513624Y-97527188D01*
X118581544Y-97363216D01*
X118680147Y-97215646D01*
X118805646Y-97090147D01*
X118953216Y-96991544D01*
X119117188Y-96923624D01*
X119266488Y-96893927D01*
X119291258Y-96889000D01*
X119468742Y-96889000D01*
X119493512Y-96893927D01*
G37*
G36*
X101848228Y-96971703D02*
G01*
X102003100Y-97035853D01*
X102142481Y-97128985D01*
X102261015Y-97247519D01*
X102354147Y-97386900D01*
X102418297Y-97541772D01*
X102451000Y-97706184D01*
X102451000Y-97873816D01*
X102418297Y-98038228D01*
X102354147Y-98193100D01*
X102261015Y-98332481D01*
X102142481Y-98451015D01*
X102003100Y-98544147D01*
X101848228Y-98608297D01*
X101683816Y-98641000D01*
X101516184Y-98641000D01*
X101351772Y-98608297D01*
X101196900Y-98544147D01*
X101057519Y-98451015D01*
X100938985Y-98332481D01*
X100845853Y-98193100D01*
X100781703Y-98038228D01*
X100749000Y-97873816D01*
X100749000Y-97706184D01*
X100781703Y-97541772D01*
X100845853Y-97386900D01*
X100938985Y-97247519D01*
X101057519Y-97128985D01*
X101196900Y-97035853D01*
X101351772Y-96971703D01*
X101516184Y-96939000D01*
X101683816Y-96939000D01*
X101848228Y-96971703D01*
G37*
G36*
X86608228Y-96971703D02*
G01*
X86763100Y-97035853D01*
X86902481Y-97128985D01*
X87021015Y-97247519D01*
X87114147Y-97386900D01*
X87178297Y-97541772D01*
X87211000Y-97706184D01*
X87211000Y-97873816D01*
X87178297Y-98038228D01*
X87114147Y-98193100D01*
X87021015Y-98332481D01*
X86902481Y-98451015D01*
X86763100Y-98544147D01*
X86608228Y-98608297D01*
X86443816Y-98641000D01*
X86276184Y-98641000D01*
X86111772Y-98608297D01*
X85956900Y-98544147D01*
X85817519Y-98451015D01*
X85698985Y-98332481D01*
X85605853Y-98193100D01*
X85541703Y-98038228D01*
X85509000Y-97873816D01*
X85509000Y-97706184D01*
X85541703Y-97541772D01*
X85605853Y-97386900D01*
X85698985Y-97247519D01*
X85817519Y-97128985D01*
X85956900Y-97035853D01*
X86111772Y-96971703D01*
X86276184Y-96939000D01*
X86443816Y-96939000D01*
X86608228Y-96971703D01*
G37*
G36*
X77718228Y-95701703D02*
G01*
X77873100Y-95765853D01*
X78012481Y-95858985D01*
X78131015Y-95977519D01*
X78224147Y-96116900D01*
X78288297Y-96271772D01*
X78321000Y-96436184D01*
X78321000Y-96603816D01*
X78288297Y-96768228D01*
X78224147Y-96923100D01*
X78131015Y-97062481D01*
X78012481Y-97181015D01*
X77873100Y-97274147D01*
X77718228Y-97338297D01*
X77553816Y-97371000D01*
X77386184Y-97371000D01*
X77221772Y-97338297D01*
X77066900Y-97274147D01*
X76927519Y-97181015D01*
X76808985Y-97062481D01*
X76715853Y-96923100D01*
X76651703Y-96768228D01*
X76619000Y-96603816D01*
X76619000Y-96436184D01*
X76651703Y-96271772D01*
X76715853Y-96116900D01*
X76808985Y-95977519D01*
X76927519Y-95858985D01*
X77066900Y-95765853D01*
X77221772Y-95701703D01*
X77386184Y-95669000D01*
X77553816Y-95669000D01*
X77718228Y-95701703D01*
G37*
G36*
X67558228Y-95701703D02*
G01*
X67713100Y-95765853D01*
X67852481Y-95858985D01*
X67971015Y-95977519D01*
X68064147Y-96116900D01*
X68128297Y-96271772D01*
X68161000Y-96436184D01*
X68161000Y-96603816D01*
X68128297Y-96768228D01*
X68064147Y-96923100D01*
X67971015Y-97062481D01*
X67852481Y-97181015D01*
X67713100Y-97274147D01*
X67558228Y-97338297D01*
X67393816Y-97371000D01*
X67226184Y-97371000D01*
X67061772Y-97338297D01*
X66906900Y-97274147D01*
X66767519Y-97181015D01*
X66648985Y-97062481D01*
X66555853Y-96923100D01*
X66491703Y-96768228D01*
X66459000Y-96603816D01*
X66459000Y-96436184D01*
X66491703Y-96271772D01*
X66555853Y-96116900D01*
X66648985Y-95977519D01*
X66767519Y-95858985D01*
X66906900Y-95765853D01*
X67061772Y-95701703D01*
X67226184Y-95669000D01*
X67393816Y-95669000D01*
X67558228Y-95701703D01*
G37*
G36*
X55231512Y-94353927D02*
G01*
X55380812Y-94383624D01*
X55544784Y-94451544D01*
X55692354Y-94550147D01*
X55817853Y-94675646D01*
X55916456Y-94823216D01*
X55984376Y-94987188D01*
X56019000Y-95161259D01*
X56019000Y-95338741D01*
X55984376Y-95512812D01*
X55916456Y-95676784D01*
X55817853Y-95824354D01*
X55692354Y-95949853D01*
X55544784Y-96048456D01*
X55380812Y-96116376D01*
X55231512Y-96146073D01*
X55206742Y-96151000D01*
X55029258Y-96151000D01*
X55004488Y-96146073D01*
X54855188Y-96116376D01*
X54691216Y-96048456D01*
X54543646Y-95949853D01*
X54418147Y-95824354D01*
X54319544Y-95676784D01*
X54251624Y-95512812D01*
X54217000Y-95338741D01*
X54217000Y-95161259D01*
X54251624Y-94987188D01*
X54319544Y-94823216D01*
X54418147Y-94675646D01*
X54543646Y-94550147D01*
X54691216Y-94451544D01*
X54855188Y-94383624D01*
X55004488Y-94353927D01*
X55029258Y-94349000D01*
X55206742Y-94349000D01*
X55231512Y-94353927D01*
G37*
G36*
X59803512Y-94353927D02*
G01*
X59952812Y-94383624D01*
X60116784Y-94451544D01*
X60264354Y-94550147D01*
X60389853Y-94675646D01*
X60488456Y-94823216D01*
X60556376Y-94987188D01*
X60591000Y-95161259D01*
X60591000Y-95338741D01*
X60556376Y-95512812D01*
X60488456Y-95676784D01*
X60389853Y-95824354D01*
X60264354Y-95949853D01*
X60116784Y-96048456D01*
X59952812Y-96116376D01*
X59803512Y-96146073D01*
X59778742Y-96151000D01*
X59601258Y-96151000D01*
X59576488Y-96146073D01*
X59427188Y-96116376D01*
X59263216Y-96048456D01*
X59115646Y-95949853D01*
X58990147Y-95824354D01*
X58891544Y-95676784D01*
X58823624Y-95512812D01*
X58789000Y-95338741D01*
X58789000Y-95161259D01*
X58823624Y-94987188D01*
X58891544Y-94823216D01*
X58990147Y-94675646D01*
X59115646Y-94550147D01*
X59263216Y-94451544D01*
X59427188Y-94383624D01*
X59576488Y-94353927D01*
X59601258Y-94349000D01*
X59778742Y-94349000D01*
X59803512Y-94353927D01*
G37*
G36*
X119493512Y-94353927D02*
G01*
X119642812Y-94383624D01*
X119806784Y-94451544D01*
X119954354Y-94550147D01*
X120079853Y-94675646D01*
X120178456Y-94823216D01*
X120246376Y-94987188D01*
X120281000Y-95161259D01*
X120281000Y-95338741D01*
X120246376Y-95512812D01*
X120178456Y-95676784D01*
X120079853Y-95824354D01*
X119954354Y-95949853D01*
X119806784Y-96048456D01*
X119642812Y-96116376D01*
X119493512Y-96146073D01*
X119468742Y-96151000D01*
X119291258Y-96151000D01*
X119266488Y-96146073D01*
X119117188Y-96116376D01*
X118953216Y-96048456D01*
X118805646Y-95949853D01*
X118680147Y-95824354D01*
X118581544Y-95676784D01*
X118513624Y-95512812D01*
X118479000Y-95338741D01*
X118479000Y-95161259D01*
X118513624Y-94987188D01*
X118581544Y-94823216D01*
X118680147Y-94675646D01*
X118805646Y-94550147D01*
X118953216Y-94451544D01*
X119117188Y-94383624D01*
X119266488Y-94353927D01*
X119291258Y-94349000D01*
X119468742Y-94349000D01*
X119493512Y-94353927D01*
G37*
G36*
X116953512Y-94353927D02*
G01*
X117102812Y-94383624D01*
X117266784Y-94451544D01*
X117414354Y-94550147D01*
X117539853Y-94675646D01*
X117638456Y-94823216D01*
X117706376Y-94987188D01*
X117741000Y-95161259D01*
X117741000Y-95338741D01*
X117706376Y-95512812D01*
X117638456Y-95676784D01*
X117539853Y-95824354D01*
X117414354Y-95949853D01*
X117266784Y-96048456D01*
X117102812Y-96116376D01*
X116953512Y-96146073D01*
X116928742Y-96151000D01*
X116751258Y-96151000D01*
X116726488Y-96146073D01*
X116577188Y-96116376D01*
X116413216Y-96048456D01*
X116265646Y-95949853D01*
X116140147Y-95824354D01*
X116041544Y-95676784D01*
X115973624Y-95512812D01*
X115939000Y-95338741D01*
X115939000Y-95161259D01*
X115973624Y-94987188D01*
X116041544Y-94823216D01*
X116140147Y-94675646D01*
X116265646Y-94550147D01*
X116413216Y-94451544D01*
X116577188Y-94383624D01*
X116726488Y-94353927D01*
X116751258Y-94349000D01*
X116928742Y-94349000D01*
X116953512Y-94353927D01*
G37*
G36*
X101848228Y-94431703D02*
G01*
X102003100Y-94495853D01*
X102142481Y-94588985D01*
X102261015Y-94707519D01*
X102354147Y-94846900D01*
X102418297Y-95001772D01*
X102451000Y-95166184D01*
X102451000Y-95333816D01*
X102418297Y-95498228D01*
X102354147Y-95653100D01*
X102261015Y-95792481D01*
X102142481Y-95911015D01*
X102003100Y-96004147D01*
X101848228Y-96068297D01*
X101683816Y-96101000D01*
X101516184Y-96101000D01*
X101351772Y-96068297D01*
X101196900Y-96004147D01*
X101057519Y-95911015D01*
X100938985Y-95792481D01*
X100845853Y-95653100D01*
X100781703Y-95498228D01*
X100749000Y-95333816D01*
X100749000Y-95166184D01*
X100781703Y-95001772D01*
X100845853Y-94846900D01*
X100938985Y-94707519D01*
X101057519Y-94588985D01*
X101196900Y-94495853D01*
X101351772Y-94431703D01*
X101516184Y-94399000D01*
X101683816Y-94399000D01*
X101848228Y-94431703D01*
G37*
G36*
X86608228Y-94431703D02*
G01*
X86763100Y-94495853D01*
X86902481Y-94588985D01*
X87021015Y-94707519D01*
X87114147Y-94846900D01*
X87178297Y-95001772D01*
X87211000Y-95166184D01*
X87211000Y-95333816D01*
X87178297Y-95498228D01*
X87114147Y-95653100D01*
X87021015Y-95792481D01*
X86902481Y-95911015D01*
X86763100Y-96004147D01*
X86608228Y-96068297D01*
X86443816Y-96101000D01*
X86276184Y-96101000D01*
X86111772Y-96068297D01*
X85956900Y-96004147D01*
X85817519Y-95911015D01*
X85698985Y-95792481D01*
X85605853Y-95653100D01*
X85541703Y-95498228D01*
X85509000Y-95333816D01*
X85509000Y-95166184D01*
X85541703Y-95001772D01*
X85605853Y-94846900D01*
X85698985Y-94707519D01*
X85817519Y-94588985D01*
X85956900Y-94495853D01*
X86111772Y-94431703D01*
X86276184Y-94399000D01*
X86443816Y-94399000D01*
X86608228Y-94431703D01*
G37*
G36*
X77718228Y-93161703D02*
G01*
X77873100Y-93225853D01*
X78012481Y-93318985D01*
X78131015Y-93437519D01*
X78224147Y-93576900D01*
X78288297Y-93731772D01*
X78321000Y-93896184D01*
X78321000Y-94063816D01*
X78288297Y-94228228D01*
X78224147Y-94383100D01*
X78131015Y-94522481D01*
X78012481Y-94641015D01*
X77873100Y-94734147D01*
X77718228Y-94798297D01*
X77553816Y-94831000D01*
X77386184Y-94831000D01*
X77221772Y-94798297D01*
X77066900Y-94734147D01*
X76927519Y-94641015D01*
X76808985Y-94522481D01*
X76715853Y-94383100D01*
X76651703Y-94228228D01*
X76619000Y-94063816D01*
X76619000Y-93896184D01*
X76651703Y-93731772D01*
X76715853Y-93576900D01*
X76808985Y-93437519D01*
X76927519Y-93318985D01*
X77066900Y-93225853D01*
X77221772Y-93161703D01*
X77386184Y-93129000D01*
X77553816Y-93129000D01*
X77718228Y-93161703D01*
G37*
G36*
X67558228Y-93161703D02*
G01*
X67713100Y-93225853D01*
X67852481Y-93318985D01*
X67971015Y-93437519D01*
X68064147Y-93576900D01*
X68128297Y-93731772D01*
X68161000Y-93896184D01*
X68161000Y-94063816D01*
X68128297Y-94228228D01*
X68064147Y-94383100D01*
X67971015Y-94522481D01*
X67852481Y-94641015D01*
X67713100Y-94734147D01*
X67558228Y-94798297D01*
X67393816Y-94831000D01*
X67226184Y-94831000D01*
X67061772Y-94798297D01*
X66906900Y-94734147D01*
X66767519Y-94641015D01*
X66648985Y-94522481D01*
X66555853Y-94383100D01*
X66491703Y-94228228D01*
X66459000Y-94063816D01*
X66459000Y-93896184D01*
X66491703Y-93731772D01*
X66555853Y-93576900D01*
X66648985Y-93437519D01*
X66767519Y-93318985D01*
X66906900Y-93225853D01*
X67061772Y-93161703D01*
X67226184Y-93129000D01*
X67393816Y-93129000D01*
X67558228Y-93161703D01*
G37*
G36*
X55231512Y-91813927D02*
G01*
X55380812Y-91843624D01*
X55544784Y-91911544D01*
X55692354Y-92010147D01*
X55817853Y-92135646D01*
X55916456Y-92283216D01*
X55984376Y-92447188D01*
X56019000Y-92621259D01*
X56019000Y-92798741D01*
X55984376Y-92972812D01*
X55916456Y-93136784D01*
X55817853Y-93284354D01*
X55692354Y-93409853D01*
X55544784Y-93508456D01*
X55380812Y-93576376D01*
X55231512Y-93606073D01*
X55206742Y-93611000D01*
X55029258Y-93611000D01*
X55004488Y-93606073D01*
X54855188Y-93576376D01*
X54691216Y-93508456D01*
X54543646Y-93409853D01*
X54418147Y-93284354D01*
X54319544Y-93136784D01*
X54251624Y-92972812D01*
X54217000Y-92798741D01*
X54217000Y-92621259D01*
X54251624Y-92447188D01*
X54319544Y-92283216D01*
X54418147Y-92135646D01*
X54543646Y-92010147D01*
X54691216Y-91911544D01*
X54855188Y-91843624D01*
X55004488Y-91813927D01*
X55029258Y-91809000D01*
X55206742Y-91809000D01*
X55231512Y-91813927D01*
G37*
G36*
X119493512Y-91813927D02*
G01*
X119642812Y-91843624D01*
X119806784Y-91911544D01*
X119954354Y-92010147D01*
X120079853Y-92135646D01*
X120178456Y-92283216D01*
X120246376Y-92447188D01*
X120281000Y-92621259D01*
X120281000Y-92798741D01*
X120246376Y-92972812D01*
X120178456Y-93136784D01*
X120079853Y-93284354D01*
X119954354Y-93409853D01*
X119806784Y-93508456D01*
X119642812Y-93576376D01*
X119493512Y-93606073D01*
X119468742Y-93611000D01*
X119291258Y-93611000D01*
X119266488Y-93606073D01*
X119117188Y-93576376D01*
X118953216Y-93508456D01*
X118805646Y-93409853D01*
X118680147Y-93284354D01*
X118581544Y-93136784D01*
X118513624Y-92972812D01*
X118479000Y-92798741D01*
X118479000Y-92621259D01*
X118513624Y-92447188D01*
X118581544Y-92283216D01*
X118680147Y-92135646D01*
X118805646Y-92010147D01*
X118953216Y-91911544D01*
X119117188Y-91843624D01*
X119266488Y-91813927D01*
X119291258Y-91809000D01*
X119468742Y-91809000D01*
X119493512Y-91813927D01*
G37*
G36*
X116953512Y-91813927D02*
G01*
X117102812Y-91843624D01*
X117266784Y-91911544D01*
X117414354Y-92010147D01*
X117539853Y-92135646D01*
X117638456Y-92283216D01*
X117706376Y-92447188D01*
X117741000Y-92621259D01*
X117741000Y-92798741D01*
X117706376Y-92972812D01*
X117638456Y-93136784D01*
X117539853Y-93284354D01*
X117414354Y-93409853D01*
X117266784Y-93508456D01*
X117102812Y-93576376D01*
X116953512Y-93606073D01*
X116928742Y-93611000D01*
X116751258Y-93611000D01*
X116726488Y-93606073D01*
X116577188Y-93576376D01*
X116413216Y-93508456D01*
X116265646Y-93409853D01*
X116140147Y-93284354D01*
X116041544Y-93136784D01*
X115973624Y-92972812D01*
X115939000Y-92798741D01*
X115939000Y-92621259D01*
X115973624Y-92447188D01*
X116041544Y-92283216D01*
X116140147Y-92135646D01*
X116265646Y-92010147D01*
X116413216Y-91911544D01*
X116577188Y-91843624D01*
X116726488Y-91813927D01*
X116751258Y-91809000D01*
X116928742Y-91809000D01*
X116953512Y-91813927D01*
G37*
G36*
X59803512Y-91813927D02*
G01*
X59952812Y-91843624D01*
X60116784Y-91911544D01*
X60264354Y-92010147D01*
X60389853Y-92135646D01*
X60488456Y-92283216D01*
X60556376Y-92447188D01*
X60591000Y-92621259D01*
X60591000Y-92798741D01*
X60556376Y-92972812D01*
X60488456Y-93136784D01*
X60389853Y-93284354D01*
X60264354Y-93409853D01*
X60116784Y-93508456D01*
X59952812Y-93576376D01*
X59803512Y-93606073D01*
X59778742Y-93611000D01*
X59601258Y-93611000D01*
X59576488Y-93606073D01*
X59427188Y-93576376D01*
X59263216Y-93508456D01*
X59115646Y-93409853D01*
X58990147Y-93284354D01*
X58891544Y-93136784D01*
X58823624Y-92972812D01*
X58789000Y-92798741D01*
X58789000Y-92621259D01*
X58823624Y-92447188D01*
X58891544Y-92283216D01*
X58990147Y-92135646D01*
X59115646Y-92010147D01*
X59263216Y-91911544D01*
X59427188Y-91843624D01*
X59576488Y-91813927D01*
X59601258Y-91809000D01*
X59778742Y-91809000D01*
X59803512Y-91813927D01*
G37*
G36*
X101848228Y-91891703D02*
G01*
X102003100Y-91955853D01*
X102142481Y-92048985D01*
X102261015Y-92167519D01*
X102354147Y-92306900D01*
X102418297Y-92461772D01*
X102451000Y-92626184D01*
X102451000Y-92793816D01*
X102418297Y-92958228D01*
X102354147Y-93113100D01*
X102261015Y-93252481D01*
X102142481Y-93371015D01*
X102003100Y-93464147D01*
X101848228Y-93528297D01*
X101683816Y-93561000D01*
X101516184Y-93561000D01*
X101351772Y-93528297D01*
X101196900Y-93464147D01*
X101057519Y-93371015D01*
X100938985Y-93252481D01*
X100845853Y-93113100D01*
X100781703Y-92958228D01*
X100749000Y-92793816D01*
X100749000Y-92626184D01*
X100781703Y-92461772D01*
X100845853Y-92306900D01*
X100938985Y-92167519D01*
X101057519Y-92048985D01*
X101196900Y-91955853D01*
X101351772Y-91891703D01*
X101516184Y-91859000D01*
X101683816Y-91859000D01*
X101848228Y-91891703D01*
G37*
G36*
X86608228Y-91891703D02*
G01*
X86763100Y-91955853D01*
X86902481Y-92048985D01*
X87021015Y-92167519D01*
X87114147Y-92306900D01*
X87178297Y-92461772D01*
X87211000Y-92626184D01*
X87211000Y-92793816D01*
X87178297Y-92958228D01*
X87114147Y-93113100D01*
X87021015Y-93252481D01*
X86902481Y-93371015D01*
X86763100Y-93464147D01*
X86608228Y-93528297D01*
X86443816Y-93561000D01*
X86276184Y-93561000D01*
X86111772Y-93528297D01*
X85956900Y-93464147D01*
X85817519Y-93371015D01*
X85698985Y-93252481D01*
X85605853Y-93113100D01*
X85541703Y-92958228D01*
X85509000Y-92793816D01*
X85509000Y-92626184D01*
X85541703Y-92461772D01*
X85605853Y-92306900D01*
X85698985Y-92167519D01*
X85817519Y-92048985D01*
X85956900Y-91955853D01*
X86111772Y-91891703D01*
X86276184Y-91859000D01*
X86443816Y-91859000D01*
X86608228Y-91891703D01*
G37*
G36*
X77718228Y-90621703D02*
G01*
X77873100Y-90685853D01*
X78012481Y-90778985D01*
X78131015Y-90897519D01*
X78224147Y-91036900D01*
X78288297Y-91191772D01*
X78321000Y-91356184D01*
X78321000Y-91523816D01*
X78288297Y-91688228D01*
X78224147Y-91843100D01*
X78131015Y-91982481D01*
X78012481Y-92101015D01*
X77873100Y-92194147D01*
X77718228Y-92258297D01*
X77553816Y-92291000D01*
X77386184Y-92291000D01*
X77221772Y-92258297D01*
X77066900Y-92194147D01*
X76927519Y-92101015D01*
X76808985Y-91982481D01*
X76715853Y-91843100D01*
X76651703Y-91688228D01*
X76619000Y-91523816D01*
X76619000Y-91356184D01*
X76651703Y-91191772D01*
X76715853Y-91036900D01*
X76808985Y-90897519D01*
X76927519Y-90778985D01*
X77066900Y-90685853D01*
X77221772Y-90621703D01*
X77386184Y-90589000D01*
X77553816Y-90589000D01*
X77718228Y-90621703D01*
G37*
G36*
X67558228Y-90621703D02*
G01*
X67713100Y-90685853D01*
X67852481Y-90778985D01*
X67971015Y-90897519D01*
X68064147Y-91036900D01*
X68128297Y-91191772D01*
X68161000Y-91356184D01*
X68161000Y-91523816D01*
X68128297Y-91688228D01*
X68064147Y-91843100D01*
X67971015Y-91982481D01*
X67852481Y-92101015D01*
X67713100Y-92194147D01*
X67558228Y-92258297D01*
X67393816Y-92291000D01*
X67226184Y-92291000D01*
X67061772Y-92258297D01*
X66906900Y-92194147D01*
X66767519Y-92101015D01*
X66648985Y-91982481D01*
X66555853Y-91843100D01*
X66491703Y-91688228D01*
X66459000Y-91523816D01*
X66459000Y-91356184D01*
X66491703Y-91191772D01*
X66555853Y-91036900D01*
X66648985Y-90897519D01*
X66767519Y-90778985D01*
X66906900Y-90685853D01*
X67061772Y-90621703D01*
X67226184Y-90589000D01*
X67393816Y-90589000D01*
X67558228Y-90621703D01*
G37*
G36*
X119493512Y-89273927D02*
G01*
X119642812Y-89303624D01*
X119806784Y-89371544D01*
X119954354Y-89470147D01*
X120079853Y-89595646D01*
X120178456Y-89743216D01*
X120246376Y-89907188D01*
X120281000Y-90081259D01*
X120281000Y-90258741D01*
X120246376Y-90432812D01*
X120178456Y-90596784D01*
X120079853Y-90744354D01*
X119954354Y-90869853D01*
X119806784Y-90968456D01*
X119642812Y-91036376D01*
X119493512Y-91066073D01*
X119468742Y-91071000D01*
X119291258Y-91071000D01*
X119266488Y-91066073D01*
X119117188Y-91036376D01*
X118953216Y-90968456D01*
X118805646Y-90869853D01*
X118680147Y-90744354D01*
X118581544Y-90596784D01*
X118513624Y-90432812D01*
X118479000Y-90258741D01*
X118479000Y-90081259D01*
X118513624Y-89907188D01*
X118581544Y-89743216D01*
X118680147Y-89595646D01*
X118805646Y-89470147D01*
X118953216Y-89371544D01*
X119117188Y-89303624D01*
X119266488Y-89273927D01*
X119291258Y-89269000D01*
X119468742Y-89269000D01*
X119493512Y-89273927D01*
G37*
G36*
X55231512Y-89273927D02*
G01*
X55380812Y-89303624D01*
X55544784Y-89371544D01*
X55692354Y-89470147D01*
X55817853Y-89595646D01*
X55916456Y-89743216D01*
X55984376Y-89907188D01*
X56019000Y-90081259D01*
X56019000Y-90258741D01*
X55984376Y-90432812D01*
X55916456Y-90596784D01*
X55817853Y-90744354D01*
X55692354Y-90869853D01*
X55544784Y-90968456D01*
X55380812Y-91036376D01*
X55231512Y-91066073D01*
X55206742Y-91071000D01*
X55029258Y-91071000D01*
X55004488Y-91066073D01*
X54855188Y-91036376D01*
X54691216Y-90968456D01*
X54543646Y-90869853D01*
X54418147Y-90744354D01*
X54319544Y-90596784D01*
X54251624Y-90432812D01*
X54217000Y-90258741D01*
X54217000Y-90081259D01*
X54251624Y-89907188D01*
X54319544Y-89743216D01*
X54418147Y-89595646D01*
X54543646Y-89470147D01*
X54691216Y-89371544D01*
X54855188Y-89303624D01*
X55004488Y-89273927D01*
X55029258Y-89269000D01*
X55206742Y-89269000D01*
X55231512Y-89273927D01*
G37*
G36*
X116953512Y-89273927D02*
G01*
X117102812Y-89303624D01*
X117266784Y-89371544D01*
X117414354Y-89470147D01*
X117539853Y-89595646D01*
X117638456Y-89743216D01*
X117706376Y-89907188D01*
X117741000Y-90081259D01*
X117741000Y-90258741D01*
X117706376Y-90432812D01*
X117638456Y-90596784D01*
X117539853Y-90744354D01*
X117414354Y-90869853D01*
X117266784Y-90968456D01*
X117102812Y-91036376D01*
X116953512Y-91066073D01*
X116928742Y-91071000D01*
X116751258Y-91071000D01*
X116726488Y-91066073D01*
X116577188Y-91036376D01*
X116413216Y-90968456D01*
X116265646Y-90869853D01*
X116140147Y-90744354D01*
X116041544Y-90596784D01*
X115973624Y-90432812D01*
X115939000Y-90258741D01*
X115939000Y-90081259D01*
X115973624Y-89907188D01*
X116041544Y-89743216D01*
X116140147Y-89595646D01*
X116265646Y-89470147D01*
X116413216Y-89371544D01*
X116577188Y-89303624D01*
X116726488Y-89273927D01*
X116751258Y-89269000D01*
X116928742Y-89269000D01*
X116953512Y-89273927D01*
G37*
G36*
X59803512Y-89273927D02*
G01*
X59952812Y-89303624D01*
X60116784Y-89371544D01*
X60264354Y-89470147D01*
X60389853Y-89595646D01*
X60488456Y-89743216D01*
X60556376Y-89907188D01*
X60591000Y-90081259D01*
X60591000Y-90258741D01*
X60556376Y-90432812D01*
X60488456Y-90596784D01*
X60389853Y-90744354D01*
X60264354Y-90869853D01*
X60116784Y-90968456D01*
X59952812Y-91036376D01*
X59803512Y-91066073D01*
X59778742Y-91071000D01*
X59601258Y-91071000D01*
X59576488Y-91066073D01*
X59427188Y-91036376D01*
X59263216Y-90968456D01*
X59115646Y-90869853D01*
X58990147Y-90744354D01*
X58891544Y-90596784D01*
X58823624Y-90432812D01*
X58789000Y-90258741D01*
X58789000Y-90081259D01*
X58823624Y-89907188D01*
X58891544Y-89743216D01*
X58990147Y-89595646D01*
X59115646Y-89470147D01*
X59263216Y-89371544D01*
X59427188Y-89303624D01*
X59576488Y-89273927D01*
X59601258Y-89269000D01*
X59778742Y-89269000D01*
X59803512Y-89273927D01*
G37*
G36*
X101848228Y-89351703D02*
G01*
X102003100Y-89415853D01*
X102142481Y-89508985D01*
X102261015Y-89627519D01*
X102354147Y-89766900D01*
X102418297Y-89921772D01*
X102451000Y-90086184D01*
X102451000Y-90253816D01*
X102418297Y-90418228D01*
X102354147Y-90573100D01*
X102261015Y-90712481D01*
X102142481Y-90831015D01*
X102003100Y-90924147D01*
X101848228Y-90988297D01*
X101683816Y-91021000D01*
X101516184Y-91021000D01*
X101351772Y-90988297D01*
X101196900Y-90924147D01*
X101057519Y-90831015D01*
X100938985Y-90712481D01*
X100845853Y-90573100D01*
X100781703Y-90418228D01*
X100749000Y-90253816D01*
X100749000Y-90086184D01*
X100781703Y-89921772D01*
X100845853Y-89766900D01*
X100938985Y-89627519D01*
X101057519Y-89508985D01*
X101196900Y-89415853D01*
X101351772Y-89351703D01*
X101516184Y-89319000D01*
X101683816Y-89319000D01*
X101848228Y-89351703D01*
G37*
G36*
X86608228Y-89351703D02*
G01*
X86763100Y-89415853D01*
X86902481Y-89508985D01*
X87021015Y-89627519D01*
X87114147Y-89766900D01*
X87178297Y-89921772D01*
X87211000Y-90086184D01*
X87211000Y-90253816D01*
X87178297Y-90418228D01*
X87114147Y-90573100D01*
X87021015Y-90712481D01*
X86902481Y-90831015D01*
X86763100Y-90924147D01*
X86608228Y-90988297D01*
X86443816Y-91021000D01*
X86276184Y-91021000D01*
X86111772Y-90988297D01*
X85956900Y-90924147D01*
X85817519Y-90831015D01*
X85698985Y-90712481D01*
X85605853Y-90573100D01*
X85541703Y-90418228D01*
X85509000Y-90253816D01*
X85509000Y-90086184D01*
X85541703Y-89921772D01*
X85605853Y-89766900D01*
X85698985Y-89627519D01*
X85817519Y-89508985D01*
X85956900Y-89415853D01*
X86111772Y-89351703D01*
X86276184Y-89319000D01*
X86443816Y-89319000D01*
X86608228Y-89351703D01*
G37*
G36*
X67558228Y-88081703D02*
G01*
X67713100Y-88145853D01*
X67852481Y-88238985D01*
X67971015Y-88357519D01*
X68064147Y-88496900D01*
X68128297Y-88651772D01*
X68161000Y-88816184D01*
X68161000Y-88983816D01*
X68128297Y-89148228D01*
X68064147Y-89303100D01*
X67971015Y-89442481D01*
X67852481Y-89561015D01*
X67713100Y-89654147D01*
X67558228Y-89718297D01*
X67393816Y-89751000D01*
X67226184Y-89751000D01*
X67061772Y-89718297D01*
X66906900Y-89654147D01*
X66767519Y-89561015D01*
X66648985Y-89442481D01*
X66555853Y-89303100D01*
X66491703Y-89148228D01*
X66459000Y-88983816D01*
X66459000Y-88816184D01*
X66491703Y-88651772D01*
X66555853Y-88496900D01*
X66648985Y-88357519D01*
X66767519Y-88238985D01*
X66906900Y-88145853D01*
X67061772Y-88081703D01*
X67226184Y-88049000D01*
X67393816Y-88049000D01*
X67558228Y-88081703D01*
G37*
G36*
X77718228Y-88081703D02*
G01*
X77873100Y-88145853D01*
X78012481Y-88238985D01*
X78131015Y-88357519D01*
X78224147Y-88496900D01*
X78288297Y-88651772D01*
X78321000Y-88816184D01*
X78321000Y-88983816D01*
X78288297Y-89148228D01*
X78224147Y-89303100D01*
X78131015Y-89442481D01*
X78012481Y-89561015D01*
X77873100Y-89654147D01*
X77718228Y-89718297D01*
X77553816Y-89751000D01*
X77386184Y-89751000D01*
X77221772Y-89718297D01*
X77066900Y-89654147D01*
X76927519Y-89561015D01*
X76808985Y-89442481D01*
X76715853Y-89303100D01*
X76651703Y-89148228D01*
X76619000Y-88983816D01*
X76619000Y-88816184D01*
X76651703Y-88651772D01*
X76715853Y-88496900D01*
X76808985Y-88357519D01*
X76927519Y-88238985D01*
X77066900Y-88145853D01*
X77221772Y-88081703D01*
X77386184Y-88049000D01*
X77553816Y-88049000D01*
X77718228Y-88081703D01*
G37*
G36*
X116953512Y-86733927D02*
G01*
X117102812Y-86763624D01*
X117266784Y-86831544D01*
X117414354Y-86930147D01*
X117539853Y-87055646D01*
X117638456Y-87203216D01*
X117706376Y-87367188D01*
X117741000Y-87541259D01*
X117741000Y-87718741D01*
X117706376Y-87892812D01*
X117638456Y-88056784D01*
X117539853Y-88204354D01*
X117414354Y-88329853D01*
X117266784Y-88428456D01*
X117102812Y-88496376D01*
X116953512Y-88526073D01*
X116928742Y-88531000D01*
X116751258Y-88531000D01*
X116726488Y-88526073D01*
X116577188Y-88496376D01*
X116413216Y-88428456D01*
X116265646Y-88329853D01*
X116140147Y-88204354D01*
X116041544Y-88056784D01*
X115973624Y-87892812D01*
X115939000Y-87718741D01*
X115939000Y-87541259D01*
X115973624Y-87367188D01*
X116041544Y-87203216D01*
X116140147Y-87055646D01*
X116265646Y-86930147D01*
X116413216Y-86831544D01*
X116577188Y-86763624D01*
X116726488Y-86733927D01*
X116751258Y-86729000D01*
X116928742Y-86729000D01*
X116953512Y-86733927D01*
G37*
G36*
X59803512Y-86733927D02*
G01*
X59952812Y-86763624D01*
X60116784Y-86831544D01*
X60264354Y-86930147D01*
X60389853Y-87055646D01*
X60488456Y-87203216D01*
X60556376Y-87367188D01*
X60591000Y-87541259D01*
X60591000Y-87718741D01*
X60556376Y-87892812D01*
X60488456Y-88056784D01*
X60389853Y-88204354D01*
X60264354Y-88329853D01*
X60116784Y-88428456D01*
X59952812Y-88496376D01*
X59803512Y-88526073D01*
X59778742Y-88531000D01*
X59601258Y-88531000D01*
X59576488Y-88526073D01*
X59427188Y-88496376D01*
X59263216Y-88428456D01*
X59115646Y-88329853D01*
X58990147Y-88204354D01*
X58891544Y-88056784D01*
X58823624Y-87892812D01*
X58789000Y-87718741D01*
X58789000Y-87541259D01*
X58823624Y-87367188D01*
X58891544Y-87203216D01*
X58990147Y-87055646D01*
X59115646Y-86930147D01*
X59263216Y-86831544D01*
X59427188Y-86763624D01*
X59576488Y-86733927D01*
X59601258Y-86729000D01*
X59778742Y-86729000D01*
X59803512Y-86733927D01*
G37*
G36*
X119493512Y-86733927D02*
G01*
X119642812Y-86763624D01*
X119806784Y-86831544D01*
X119954354Y-86930147D01*
X120079853Y-87055646D01*
X120178456Y-87203216D01*
X120246376Y-87367188D01*
X120281000Y-87541259D01*
X120281000Y-87718741D01*
X120246376Y-87892812D01*
X120178456Y-88056784D01*
X120079853Y-88204354D01*
X119954354Y-88329853D01*
X119806784Y-88428456D01*
X119642812Y-88496376D01*
X119493512Y-88526073D01*
X119468742Y-88531000D01*
X119291258Y-88531000D01*
X119266488Y-88526073D01*
X119117188Y-88496376D01*
X118953216Y-88428456D01*
X118805646Y-88329853D01*
X118680147Y-88204354D01*
X118581544Y-88056784D01*
X118513624Y-87892812D01*
X118479000Y-87718741D01*
X118479000Y-87541259D01*
X118513624Y-87367188D01*
X118581544Y-87203216D01*
X118680147Y-87055646D01*
X118805646Y-86930147D01*
X118953216Y-86831544D01*
X119117188Y-86763624D01*
X119266488Y-86733927D01*
X119291258Y-86729000D01*
X119468742Y-86729000D01*
X119493512Y-86733927D01*
G37*
G36*
X55231512Y-86733927D02*
G01*
X55380812Y-86763624D01*
X55544784Y-86831544D01*
X55692354Y-86930147D01*
X55817853Y-87055646D01*
X55916456Y-87203216D01*
X55984376Y-87367188D01*
X56019000Y-87541259D01*
X56019000Y-87718741D01*
X55984376Y-87892812D01*
X55916456Y-88056784D01*
X55817853Y-88204354D01*
X55692354Y-88329853D01*
X55544784Y-88428456D01*
X55380812Y-88496376D01*
X55231512Y-88526073D01*
X55206742Y-88531000D01*
X55029258Y-88531000D01*
X55004488Y-88526073D01*
X54855188Y-88496376D01*
X54691216Y-88428456D01*
X54543646Y-88329853D01*
X54418147Y-88204354D01*
X54319544Y-88056784D01*
X54251624Y-87892812D01*
X54217000Y-87718741D01*
X54217000Y-87541259D01*
X54251624Y-87367188D01*
X54319544Y-87203216D01*
X54418147Y-87055646D01*
X54543646Y-86930147D01*
X54691216Y-86831544D01*
X54855188Y-86763624D01*
X55004488Y-86733927D01*
X55029258Y-86729000D01*
X55206742Y-86729000D01*
X55231512Y-86733927D01*
G37*
G36*
X86608228Y-86811703D02*
G01*
X86763100Y-86875853D01*
X86902481Y-86968985D01*
X87021015Y-87087519D01*
X87114147Y-87226900D01*
X87178297Y-87381772D01*
X87211000Y-87546184D01*
X87211000Y-87713816D01*
X87178297Y-87878228D01*
X87114147Y-88033100D01*
X87021015Y-88172481D01*
X86902481Y-88291015D01*
X86763100Y-88384147D01*
X86608228Y-88448297D01*
X86443816Y-88481000D01*
X86276184Y-88481000D01*
X86111772Y-88448297D01*
X85956900Y-88384147D01*
X85817519Y-88291015D01*
X85698985Y-88172481D01*
X85605853Y-88033100D01*
X85541703Y-87878228D01*
X85509000Y-87713816D01*
X85509000Y-87546184D01*
X85541703Y-87381772D01*
X85605853Y-87226900D01*
X85698985Y-87087519D01*
X85817519Y-86968985D01*
X85956900Y-86875853D01*
X86111772Y-86811703D01*
X86276184Y-86779000D01*
X86443816Y-86779000D01*
X86608228Y-86811703D01*
G37*
G36*
X101848228Y-86811703D02*
G01*
X102003100Y-86875853D01*
X102142481Y-86968985D01*
X102261015Y-87087519D01*
X102354147Y-87226900D01*
X102418297Y-87381772D01*
X102451000Y-87546184D01*
X102451000Y-87713816D01*
X102418297Y-87878228D01*
X102354147Y-88033100D01*
X102261015Y-88172481D01*
X102142481Y-88291015D01*
X102003100Y-88384147D01*
X101848228Y-88448297D01*
X101683816Y-88481000D01*
X101516184Y-88481000D01*
X101351772Y-88448297D01*
X101196900Y-88384147D01*
X101057519Y-88291015D01*
X100938985Y-88172481D01*
X100845853Y-88033100D01*
X100781703Y-87878228D01*
X100749000Y-87713816D01*
X100749000Y-87546184D01*
X100781703Y-87381772D01*
X100845853Y-87226900D01*
X100938985Y-87087519D01*
X101057519Y-86968985D01*
X101196900Y-86875853D01*
X101351772Y-86811703D01*
X101516184Y-86779000D01*
X101683816Y-86779000D01*
X101848228Y-86811703D01*
G37*
G36*
X77718228Y-85541703D02*
G01*
X77873100Y-85605853D01*
X78012481Y-85698985D01*
X78131015Y-85817519D01*
X78224147Y-85956900D01*
X78288297Y-86111772D01*
X78321000Y-86276184D01*
X78321000Y-86443816D01*
X78288297Y-86608228D01*
X78224147Y-86763100D01*
X78131015Y-86902481D01*
X78012481Y-87021015D01*
X77873100Y-87114147D01*
X77718228Y-87178297D01*
X77553816Y-87211000D01*
X77386184Y-87211000D01*
X77221772Y-87178297D01*
X77066900Y-87114147D01*
X76927519Y-87021015D01*
X76808985Y-86902481D01*
X76715853Y-86763100D01*
X76651703Y-86608228D01*
X76619000Y-86443816D01*
X76619000Y-86276184D01*
X76651703Y-86111772D01*
X76715853Y-85956900D01*
X76808985Y-85817519D01*
X76927519Y-85698985D01*
X77066900Y-85605853D01*
X77221772Y-85541703D01*
X77386184Y-85509000D01*
X77553816Y-85509000D01*
X77718228Y-85541703D01*
G37*
G36*
X68161000Y-87211000D02*
G01*
X66459000Y-87211000D01*
X66459000Y-85509000D01*
X68161000Y-85509000D01*
X68161000Y-87211000D01*
G37*
G36*
X116953512Y-84193927D02*
G01*
X117102812Y-84223624D01*
X117266784Y-84291544D01*
X117414354Y-84390147D01*
X117539853Y-84515646D01*
X117638456Y-84663216D01*
X117706376Y-84827188D01*
X117741000Y-85001259D01*
X117741000Y-85178741D01*
X117706376Y-85352812D01*
X117638456Y-85516784D01*
X117539853Y-85664354D01*
X117414354Y-85789853D01*
X117266784Y-85888456D01*
X117102812Y-85956376D01*
X116953512Y-85986073D01*
X116928742Y-85991000D01*
X116751258Y-85991000D01*
X116726488Y-85986073D01*
X116577188Y-85956376D01*
X116413216Y-85888456D01*
X116265646Y-85789853D01*
X116140147Y-85664354D01*
X116041544Y-85516784D01*
X115973624Y-85352812D01*
X115939000Y-85178741D01*
X115939000Y-85001259D01*
X115973624Y-84827188D01*
X116041544Y-84663216D01*
X116140147Y-84515646D01*
X116265646Y-84390147D01*
X116413216Y-84291544D01*
X116577188Y-84223624D01*
X116726488Y-84193927D01*
X116751258Y-84189000D01*
X116928742Y-84189000D01*
X116953512Y-84193927D01*
G37*
G36*
X119493512Y-84193927D02*
G01*
X119642812Y-84223624D01*
X119806784Y-84291544D01*
X119954354Y-84390147D01*
X120079853Y-84515646D01*
X120178456Y-84663216D01*
X120246376Y-84827188D01*
X120281000Y-85001259D01*
X120281000Y-85178741D01*
X120246376Y-85352812D01*
X120178456Y-85516784D01*
X120079853Y-85664354D01*
X119954354Y-85789853D01*
X119806784Y-85888456D01*
X119642812Y-85956376D01*
X119493512Y-85986073D01*
X119468742Y-85991000D01*
X119291258Y-85991000D01*
X119266488Y-85986073D01*
X119117188Y-85956376D01*
X118953216Y-85888456D01*
X118805646Y-85789853D01*
X118680147Y-85664354D01*
X118581544Y-85516784D01*
X118513624Y-85352812D01*
X118479000Y-85178741D01*
X118479000Y-85001259D01*
X118513624Y-84827188D01*
X118581544Y-84663216D01*
X118680147Y-84515646D01*
X118805646Y-84390147D01*
X118953216Y-84291544D01*
X119117188Y-84223624D01*
X119266488Y-84193927D01*
X119291258Y-84189000D01*
X119468742Y-84189000D01*
X119493512Y-84193927D01*
G37*
G36*
X55231512Y-84193927D02*
G01*
X55380812Y-84223624D01*
X55544784Y-84291544D01*
X55692354Y-84390147D01*
X55817853Y-84515646D01*
X55916456Y-84663216D01*
X55984376Y-84827188D01*
X56019000Y-85001259D01*
X56019000Y-85178741D01*
X55984376Y-85352812D01*
X55916456Y-85516784D01*
X55817853Y-85664354D01*
X55692354Y-85789853D01*
X55544784Y-85888456D01*
X55380812Y-85956376D01*
X55231512Y-85986073D01*
X55206742Y-85991000D01*
X55029258Y-85991000D01*
X55004488Y-85986073D01*
X54855188Y-85956376D01*
X54691216Y-85888456D01*
X54543646Y-85789853D01*
X54418147Y-85664354D01*
X54319544Y-85516784D01*
X54251624Y-85352812D01*
X54217000Y-85178741D01*
X54217000Y-85001259D01*
X54251624Y-84827188D01*
X54319544Y-84663216D01*
X54418147Y-84515646D01*
X54543646Y-84390147D01*
X54691216Y-84291544D01*
X54855188Y-84223624D01*
X55004488Y-84193927D01*
X55029258Y-84189000D01*
X55206742Y-84189000D01*
X55231512Y-84193927D01*
G37*
G36*
X59803512Y-84193927D02*
G01*
X59952812Y-84223624D01*
X60116784Y-84291544D01*
X60264354Y-84390147D01*
X60389853Y-84515646D01*
X60488456Y-84663216D01*
X60556376Y-84827188D01*
X60591000Y-85001259D01*
X60591000Y-85178741D01*
X60556376Y-85352812D01*
X60488456Y-85516784D01*
X60389853Y-85664354D01*
X60264354Y-85789853D01*
X60116784Y-85888456D01*
X59952812Y-85956376D01*
X59803512Y-85986073D01*
X59778742Y-85991000D01*
X59601258Y-85991000D01*
X59576488Y-85986073D01*
X59427188Y-85956376D01*
X59263216Y-85888456D01*
X59115646Y-85789853D01*
X58990147Y-85664354D01*
X58891544Y-85516784D01*
X58823624Y-85352812D01*
X58789000Y-85178741D01*
X58789000Y-85001259D01*
X58823624Y-84827188D01*
X58891544Y-84663216D01*
X58990147Y-84515646D01*
X59115646Y-84390147D01*
X59263216Y-84291544D01*
X59427188Y-84223624D01*
X59576488Y-84193927D01*
X59601258Y-84189000D01*
X59778742Y-84189000D01*
X59803512Y-84193927D01*
G37*
G36*
X86608228Y-84271703D02*
G01*
X86763100Y-84335853D01*
X86902481Y-84428985D01*
X87021015Y-84547519D01*
X87114147Y-84686900D01*
X87178297Y-84841772D01*
X87211000Y-85006184D01*
X87211000Y-85173816D01*
X87178297Y-85338228D01*
X87114147Y-85493100D01*
X87021015Y-85632481D01*
X86902481Y-85751015D01*
X86763100Y-85844147D01*
X86608228Y-85908297D01*
X86443816Y-85941000D01*
X86276184Y-85941000D01*
X86111772Y-85908297D01*
X85956900Y-85844147D01*
X85817519Y-85751015D01*
X85698985Y-85632481D01*
X85605853Y-85493100D01*
X85541703Y-85338228D01*
X85509000Y-85173816D01*
X85509000Y-85006184D01*
X85541703Y-84841772D01*
X85605853Y-84686900D01*
X85698985Y-84547519D01*
X85817519Y-84428985D01*
X85956900Y-84335853D01*
X86111772Y-84271703D01*
X86276184Y-84239000D01*
X86443816Y-84239000D01*
X86608228Y-84271703D01*
G37*
G36*
X101848228Y-84271703D02*
G01*
X102003100Y-84335853D01*
X102142481Y-84428985D01*
X102261015Y-84547519D01*
X102354147Y-84686900D01*
X102418297Y-84841772D01*
X102451000Y-85006184D01*
X102451000Y-85173816D01*
X102418297Y-85338228D01*
X102354147Y-85493100D01*
X102261015Y-85632481D01*
X102142481Y-85751015D01*
X102003100Y-85844147D01*
X101848228Y-85908297D01*
X101683816Y-85941000D01*
X101516184Y-85941000D01*
X101351772Y-85908297D01*
X101196900Y-85844147D01*
X101057519Y-85751015D01*
X100938985Y-85632481D01*
X100845853Y-85493100D01*
X100781703Y-85338228D01*
X100749000Y-85173816D01*
X100749000Y-85006184D01*
X100781703Y-84841772D01*
X100845853Y-84686900D01*
X100938985Y-84547519D01*
X101057519Y-84428985D01*
X101196900Y-84335853D01*
X101351772Y-84271703D01*
X101516184Y-84239000D01*
X101683816Y-84239000D01*
X101848228Y-84271703D01*
G37*
G36*
X119493512Y-81653927D02*
G01*
X119642812Y-81683624D01*
X119806784Y-81751544D01*
X119954354Y-81850147D01*
X120079853Y-81975646D01*
X120178456Y-82123216D01*
X120246376Y-82287188D01*
X120281000Y-82461259D01*
X120281000Y-82638741D01*
X120246376Y-82812812D01*
X120178456Y-82976784D01*
X120079853Y-83124354D01*
X119954354Y-83249853D01*
X119806784Y-83348456D01*
X119642812Y-83416376D01*
X119493512Y-83446073D01*
X119468742Y-83451000D01*
X119291258Y-83451000D01*
X119266488Y-83446073D01*
X119117188Y-83416376D01*
X118953216Y-83348456D01*
X118805646Y-83249853D01*
X118680147Y-83124354D01*
X118581544Y-82976784D01*
X118513624Y-82812812D01*
X118479000Y-82638741D01*
X118479000Y-82461259D01*
X118513624Y-82287188D01*
X118581544Y-82123216D01*
X118680147Y-81975646D01*
X118805646Y-81850147D01*
X118953216Y-81751544D01*
X119117188Y-81683624D01*
X119266488Y-81653927D01*
X119291258Y-81649000D01*
X119468742Y-81649000D01*
X119493512Y-81653927D01*
G37*
G36*
X60591000Y-83451000D02*
G01*
X58789000Y-83451000D01*
X58789000Y-81649000D01*
X60591000Y-81649000D01*
X60591000Y-83451000D01*
G37*
G36*
X56019000Y-83451000D02*
G01*
X54217000Y-83451000D01*
X54217000Y-81649000D01*
X56019000Y-81649000D01*
X56019000Y-83451000D01*
G37*
G36*
X116953512Y-81653927D02*
G01*
X117102812Y-81683624D01*
X117266784Y-81751544D01*
X117414354Y-81850147D01*
X117539853Y-81975646D01*
X117638456Y-82123216D01*
X117706376Y-82287188D01*
X117741000Y-82461259D01*
X117741000Y-82638741D01*
X117706376Y-82812812D01*
X117638456Y-82976784D01*
X117539853Y-83124354D01*
X117414354Y-83249853D01*
X117266784Y-83348456D01*
X117102812Y-83416376D01*
X116953512Y-83446073D01*
X116928742Y-83451000D01*
X116751258Y-83451000D01*
X116726488Y-83446073D01*
X116577188Y-83416376D01*
X116413216Y-83348456D01*
X116265646Y-83249853D01*
X116140147Y-83124354D01*
X116041544Y-82976784D01*
X115973624Y-82812812D01*
X115939000Y-82638741D01*
X115939000Y-82461259D01*
X115973624Y-82287188D01*
X116041544Y-82123216D01*
X116140147Y-81975646D01*
X116265646Y-81850147D01*
X116413216Y-81751544D01*
X116577188Y-81683624D01*
X116726488Y-81653927D01*
X116751258Y-81649000D01*
X116928742Y-81649000D01*
X116953512Y-81653927D01*
G37*
G36*
X101848228Y-81731703D02*
G01*
X102003100Y-81795853D01*
X102142481Y-81888985D01*
X102261015Y-82007519D01*
X102354147Y-82146900D01*
X102418297Y-82301772D01*
X102451000Y-82466184D01*
X102451000Y-82633816D01*
X102418297Y-82798228D01*
X102354147Y-82953100D01*
X102261015Y-83092481D01*
X102142481Y-83211015D01*
X102003100Y-83304147D01*
X101848228Y-83368297D01*
X101683816Y-83401000D01*
X101516184Y-83401000D01*
X101351772Y-83368297D01*
X101196900Y-83304147D01*
X101057519Y-83211015D01*
X100938985Y-83092481D01*
X100845853Y-82953100D01*
X100781703Y-82798228D01*
X100749000Y-82633816D01*
X100749000Y-82466184D01*
X100781703Y-82301772D01*
X100845853Y-82146900D01*
X100938985Y-82007519D01*
X101057519Y-81888985D01*
X101196900Y-81795853D01*
X101351772Y-81731703D01*
X101516184Y-81699000D01*
X101683816Y-81699000D01*
X101848228Y-81731703D01*
G37*
G36*
X86608228Y-81731703D02*
G01*
X86763100Y-81795853D01*
X86902481Y-81888985D01*
X87021015Y-82007519D01*
X87114147Y-82146900D01*
X87178297Y-82301772D01*
X87211000Y-82466184D01*
X87211000Y-82633816D01*
X87178297Y-82798228D01*
X87114147Y-82953100D01*
X87021015Y-83092481D01*
X86902481Y-83211015D01*
X86763100Y-83304147D01*
X86608228Y-83368297D01*
X86443816Y-83401000D01*
X86276184Y-83401000D01*
X86111772Y-83368297D01*
X85956900Y-83304147D01*
X85817519Y-83211015D01*
X85698985Y-83092481D01*
X85605853Y-82953100D01*
X85541703Y-82798228D01*
X85509000Y-82633816D01*
X85509000Y-82466184D01*
X85541703Y-82301772D01*
X85605853Y-82146900D01*
X85698985Y-82007519D01*
X85817519Y-81888985D01*
X85956900Y-81795853D01*
X86111772Y-81731703D01*
X86276184Y-81699000D01*
X86443816Y-81699000D01*
X86608228Y-81731703D01*
G37*
G36*
X78421000Y-82866000D02*
G01*
X76519000Y-82866000D01*
X76519000Y-80964000D01*
X78421000Y-80964000D01*
X78421000Y-82866000D01*
G37*
G36*
X67587395Y-81000546D02*
G01*
X67760466Y-81072234D01*
X67760467Y-81072235D01*
X67916227Y-81176310D01*
X68048690Y-81308773D01*
X68048691Y-81308775D01*
X68152766Y-81464534D01*
X68224454Y-81637605D01*
X68261000Y-81821333D01*
X68261000Y-82008667D01*
X68224454Y-82192395D01*
X68152766Y-82365466D01*
X68152765Y-82365467D01*
X68048690Y-82521227D01*
X67916227Y-82653690D01*
X67837818Y-82706081D01*
X67760466Y-82757766D01*
X67587395Y-82829454D01*
X67403667Y-82866000D01*
X67216333Y-82866000D01*
X67032605Y-82829454D01*
X66859534Y-82757766D01*
X66782182Y-82706081D01*
X66703773Y-82653690D01*
X66571310Y-82521227D01*
X66467235Y-82365467D01*
X66467234Y-82365466D01*
X66395546Y-82192395D01*
X66359000Y-82008667D01*
X66359000Y-81821333D01*
X66395546Y-81637605D01*
X66467234Y-81464534D01*
X66571309Y-81308775D01*
X66571310Y-81308773D01*
X66703773Y-81176310D01*
X66859533Y-81072235D01*
X66859534Y-81072234D01*
X67032605Y-81000546D01*
X67216333Y-80964000D01*
X67403667Y-80964000D01*
X67587395Y-81000546D01*
G37*
G36*
X116953512Y-79113927D02*
G01*
X117102812Y-79143624D01*
X117266784Y-79211544D01*
X117414354Y-79310147D01*
X117539853Y-79435646D01*
X117638456Y-79583216D01*
X117706376Y-79747188D01*
X117741000Y-79921259D01*
X117741000Y-80098741D01*
X117706376Y-80272812D01*
X117638456Y-80436784D01*
X117539853Y-80584354D01*
X117414354Y-80709853D01*
X117266784Y-80808456D01*
X117102812Y-80876376D01*
X116953512Y-80906073D01*
X116928742Y-80911000D01*
X116751258Y-80911000D01*
X116726488Y-80906073D01*
X116577188Y-80876376D01*
X116413216Y-80808456D01*
X116265646Y-80709853D01*
X116140147Y-80584354D01*
X116041544Y-80436784D01*
X115973624Y-80272812D01*
X115939000Y-80098741D01*
X115939000Y-79921259D01*
X115973624Y-79747188D01*
X116041544Y-79583216D01*
X116140147Y-79435646D01*
X116265646Y-79310147D01*
X116413216Y-79211544D01*
X116577188Y-79143624D01*
X116726488Y-79113927D01*
X116751258Y-79109000D01*
X116928742Y-79109000D01*
X116953512Y-79113927D01*
G37*
G36*
X119493512Y-79113927D02*
G01*
X119642812Y-79143624D01*
X119806784Y-79211544D01*
X119954354Y-79310147D01*
X120079853Y-79435646D01*
X120178456Y-79583216D01*
X120246376Y-79747188D01*
X120281000Y-79921259D01*
X120281000Y-80098741D01*
X120246376Y-80272812D01*
X120178456Y-80436784D01*
X120079853Y-80584354D01*
X119954354Y-80709853D01*
X119806784Y-80808456D01*
X119642812Y-80876376D01*
X119493512Y-80906073D01*
X119468742Y-80911000D01*
X119291258Y-80911000D01*
X119266488Y-80906073D01*
X119117188Y-80876376D01*
X118953216Y-80808456D01*
X118805646Y-80709853D01*
X118680147Y-80584354D01*
X118581544Y-80436784D01*
X118513624Y-80272812D01*
X118479000Y-80098741D01*
X118479000Y-79921259D01*
X118513624Y-79747188D01*
X118581544Y-79583216D01*
X118680147Y-79435646D01*
X118805646Y-79310147D01*
X118953216Y-79211544D01*
X119117188Y-79143624D01*
X119266488Y-79113927D01*
X119291258Y-79109000D01*
X119468742Y-79109000D01*
X119493512Y-79113927D01*
G37*
G36*
X86608228Y-79191703D02*
G01*
X86763100Y-79255853D01*
X86902481Y-79348985D01*
X87021015Y-79467519D01*
X87114147Y-79606900D01*
X87178297Y-79761772D01*
X87211000Y-79926184D01*
X87211000Y-80093816D01*
X87178297Y-80258228D01*
X87114147Y-80413100D01*
X87021015Y-80552481D01*
X86902481Y-80671015D01*
X86763100Y-80764147D01*
X86608228Y-80828297D01*
X86443816Y-80861000D01*
X86276184Y-80861000D01*
X86111772Y-80828297D01*
X85956900Y-80764147D01*
X85817519Y-80671015D01*
X85698985Y-80552481D01*
X85605853Y-80413100D01*
X85541703Y-80258228D01*
X85509000Y-80093816D01*
X85509000Y-79926184D01*
X85541703Y-79761772D01*
X85605853Y-79606900D01*
X85698985Y-79467519D01*
X85817519Y-79348985D01*
X85956900Y-79255853D01*
X86111772Y-79191703D01*
X86276184Y-79159000D01*
X86443816Y-79159000D01*
X86608228Y-79191703D01*
G37*
G36*
X101848228Y-79191703D02*
G01*
X102003100Y-79255853D01*
X102142481Y-79348985D01*
X102261015Y-79467519D01*
X102354147Y-79606900D01*
X102418297Y-79761772D01*
X102451000Y-79926184D01*
X102451000Y-80093816D01*
X102418297Y-80258228D01*
X102354147Y-80413100D01*
X102261015Y-80552481D01*
X102142481Y-80671015D01*
X102003100Y-80764147D01*
X101848228Y-80828297D01*
X101683816Y-80861000D01*
X101516184Y-80861000D01*
X101351772Y-80828297D01*
X101196900Y-80764147D01*
X101057519Y-80671015D01*
X100938985Y-80552481D01*
X100845853Y-80413100D01*
X100781703Y-80258228D01*
X100749000Y-80093816D01*
X100749000Y-79926184D01*
X100781703Y-79761772D01*
X100845853Y-79606900D01*
X100938985Y-79467519D01*
X101057519Y-79348985D01*
X101196900Y-79255853D01*
X101351772Y-79191703D01*
X101516184Y-79159000D01*
X101683816Y-79159000D01*
X101848228Y-79191703D01*
G37*
G36*
X119493512Y-76573927D02*
G01*
X119642812Y-76603624D01*
X119806784Y-76671544D01*
X119954354Y-76770147D01*
X120079853Y-76895646D01*
X120178456Y-77043216D01*
X120246376Y-77207188D01*
X120281000Y-77381259D01*
X120281000Y-77558741D01*
X120246376Y-77732812D01*
X120178456Y-77896784D01*
X120079853Y-78044354D01*
X119954354Y-78169853D01*
X119806784Y-78268456D01*
X119642812Y-78336376D01*
X119493512Y-78366073D01*
X119468742Y-78371000D01*
X119291258Y-78371000D01*
X119266488Y-78366073D01*
X119117188Y-78336376D01*
X118953216Y-78268456D01*
X118805646Y-78169853D01*
X118680147Y-78044354D01*
X118581544Y-77896784D01*
X118513624Y-77732812D01*
X118479000Y-77558741D01*
X118479000Y-77381259D01*
X118513624Y-77207188D01*
X118581544Y-77043216D01*
X118680147Y-76895646D01*
X118805646Y-76770147D01*
X118953216Y-76671544D01*
X119117188Y-76603624D01*
X119266488Y-76573927D01*
X119291258Y-76569000D01*
X119468742Y-76569000D01*
X119493512Y-76573927D01*
G37*
G36*
X116953512Y-76573927D02*
G01*
X117102812Y-76603624D01*
X117266784Y-76671544D01*
X117414354Y-76770147D01*
X117539853Y-76895646D01*
X117638456Y-77043216D01*
X117706376Y-77207188D01*
X117741000Y-77381259D01*
X117741000Y-77558741D01*
X117706376Y-77732812D01*
X117638456Y-77896784D01*
X117539853Y-78044354D01*
X117414354Y-78169853D01*
X117266784Y-78268456D01*
X117102812Y-78336376D01*
X116953512Y-78366073D01*
X116928742Y-78371000D01*
X116751258Y-78371000D01*
X116726488Y-78366073D01*
X116577188Y-78336376D01*
X116413216Y-78268456D01*
X116265646Y-78169853D01*
X116140147Y-78044354D01*
X116041544Y-77896784D01*
X115973624Y-77732812D01*
X115939000Y-77558741D01*
X115939000Y-77381259D01*
X115973624Y-77207188D01*
X116041544Y-77043216D01*
X116140147Y-76895646D01*
X116265646Y-76770147D01*
X116413216Y-76671544D01*
X116577188Y-76603624D01*
X116726488Y-76573927D01*
X116751258Y-76569000D01*
X116928742Y-76569000D01*
X116953512Y-76573927D01*
G37*
G36*
X86608228Y-76651703D02*
G01*
X86763100Y-76715853D01*
X86902481Y-76808985D01*
X87021015Y-76927519D01*
X87114147Y-77066900D01*
X87178297Y-77221772D01*
X87211000Y-77386184D01*
X87211000Y-77553816D01*
X87178297Y-77718228D01*
X87114147Y-77873100D01*
X87021015Y-78012481D01*
X86902481Y-78131015D01*
X86763100Y-78224147D01*
X86608228Y-78288297D01*
X86443816Y-78321000D01*
X86276184Y-78321000D01*
X86111772Y-78288297D01*
X85956900Y-78224147D01*
X85817519Y-78131015D01*
X85698985Y-78012481D01*
X85605853Y-77873100D01*
X85541703Y-77718228D01*
X85509000Y-77553816D01*
X85509000Y-77386184D01*
X85541703Y-77221772D01*
X85605853Y-77066900D01*
X85698985Y-76927519D01*
X85817519Y-76808985D01*
X85956900Y-76715853D01*
X86111772Y-76651703D01*
X86276184Y-76619000D01*
X86443816Y-76619000D01*
X86608228Y-76651703D01*
G37*
G36*
X101848228Y-76651703D02*
G01*
X102003100Y-76715853D01*
X102142481Y-76808985D01*
X102261015Y-76927519D01*
X102354147Y-77066900D01*
X102418297Y-77221772D01*
X102451000Y-77386184D01*
X102451000Y-77553816D01*
X102418297Y-77718228D01*
X102354147Y-77873100D01*
X102261015Y-78012481D01*
X102142481Y-78131015D01*
X102003100Y-78224147D01*
X101848228Y-78288297D01*
X101683816Y-78321000D01*
X101516184Y-78321000D01*
X101351772Y-78288297D01*
X101196900Y-78224147D01*
X101057519Y-78131015D01*
X100938985Y-78012481D01*
X100845853Y-77873100D01*
X100781703Y-77718228D01*
X100749000Y-77553816D01*
X100749000Y-77386184D01*
X100781703Y-77221772D01*
X100845853Y-77066900D01*
X100938985Y-76927519D01*
X101057519Y-76808985D01*
X101196900Y-76715853D01*
X101351772Y-76651703D01*
X101516184Y-76619000D01*
X101683816Y-76619000D01*
X101848228Y-76651703D01*
G37*
G36*
X64441564Y-75244389D02*
G01*
X64632833Y-75323615D01*
X64632835Y-75323616D01*
X64804973Y-75438635D01*
X64951365Y-75585027D01*
X65060459Y-75748297D01*
X65066385Y-75757167D01*
X65145611Y-75948436D01*
X65186000Y-76151484D01*
X65186000Y-76358516D01*
X65145611Y-76561564D01*
X65066385Y-76752833D01*
X65066384Y-76752835D01*
X64951365Y-76924973D01*
X64804973Y-77071365D01*
X64632835Y-77186384D01*
X64632834Y-77186385D01*
X64632833Y-77186385D01*
X64441564Y-77265611D01*
X64238516Y-77306000D01*
X64031484Y-77306000D01*
X63828436Y-77265611D01*
X63637167Y-77186385D01*
X63637166Y-77186385D01*
X63637165Y-77186384D01*
X63465027Y-77071365D01*
X63318635Y-76924973D01*
X63203616Y-76752835D01*
X63203615Y-76752833D01*
X63124389Y-76561564D01*
X63084000Y-76358516D01*
X63084000Y-76151484D01*
X63124389Y-75948436D01*
X63203615Y-75757167D01*
X63209542Y-75748297D01*
X63318635Y-75585027D01*
X63465027Y-75438635D01*
X63637165Y-75323616D01*
X63637167Y-75323615D01*
X63828436Y-75244389D01*
X64031484Y-75204000D01*
X64238516Y-75204000D01*
X64441564Y-75244389D01*
G37*
G36*
X70941564Y-75244389D02*
G01*
X71132833Y-75323615D01*
X71132835Y-75323616D01*
X71304973Y-75438635D01*
X71451365Y-75585027D01*
X71560459Y-75748297D01*
X71566385Y-75757167D01*
X71645611Y-75948436D01*
X71686000Y-76151484D01*
X71686000Y-76358516D01*
X71645611Y-76561564D01*
X71566385Y-76752833D01*
X71566384Y-76752835D01*
X71451365Y-76924973D01*
X71304973Y-77071365D01*
X71132835Y-77186384D01*
X71132834Y-77186385D01*
X71132833Y-77186385D01*
X70941564Y-77265611D01*
X70738516Y-77306000D01*
X70531484Y-77306000D01*
X70328436Y-77265611D01*
X70137167Y-77186385D01*
X70137166Y-77186385D01*
X70137165Y-77186384D01*
X69965027Y-77071365D01*
X69818635Y-76924973D01*
X69703616Y-76752835D01*
X69703615Y-76752833D01*
X69624389Y-76561564D01*
X69584000Y-76358516D01*
X69584000Y-76151484D01*
X69624389Y-75948436D01*
X69703615Y-75757167D01*
X69709542Y-75748297D01*
X69818635Y-75585027D01*
X69965027Y-75438635D01*
X70137165Y-75323616D01*
X70137167Y-75323615D01*
X70328436Y-75244389D01*
X70531484Y-75204000D01*
X70738516Y-75204000D01*
X70941564Y-75244389D01*
G37*
G36*
X119493512Y-74033927D02*
G01*
X119642812Y-74063624D01*
X119806784Y-74131544D01*
X119954354Y-74230147D01*
X120079853Y-74355646D01*
X120178456Y-74503216D01*
X120246376Y-74667188D01*
X120281000Y-74841259D01*
X120281000Y-75018741D01*
X120246376Y-75192812D01*
X120178456Y-75356784D01*
X120079853Y-75504354D01*
X119954354Y-75629853D01*
X119806784Y-75728456D01*
X119642812Y-75796376D01*
X119493512Y-75826073D01*
X119468742Y-75831000D01*
X119291258Y-75831000D01*
X119266488Y-75826073D01*
X119117188Y-75796376D01*
X118953216Y-75728456D01*
X118805646Y-75629853D01*
X118680147Y-75504354D01*
X118581544Y-75356784D01*
X118513624Y-75192812D01*
X118479000Y-75018741D01*
X118479000Y-74841259D01*
X118513624Y-74667188D01*
X118581544Y-74503216D01*
X118680147Y-74355646D01*
X118805646Y-74230147D01*
X118953216Y-74131544D01*
X119117188Y-74063624D01*
X119266488Y-74033927D01*
X119291258Y-74029000D01*
X119468742Y-74029000D01*
X119493512Y-74033927D01*
G37*
G36*
X116953512Y-74033927D02*
G01*
X117102812Y-74063624D01*
X117266784Y-74131544D01*
X117414354Y-74230147D01*
X117539853Y-74355646D01*
X117638456Y-74503216D01*
X117706376Y-74667188D01*
X117741000Y-74841259D01*
X117741000Y-75018741D01*
X117706376Y-75192812D01*
X117638456Y-75356784D01*
X117539853Y-75504354D01*
X117414354Y-75629853D01*
X117266784Y-75728456D01*
X117102812Y-75796376D01*
X116953512Y-75826073D01*
X116928742Y-75831000D01*
X116751258Y-75831000D01*
X116726488Y-75826073D01*
X116577188Y-75796376D01*
X116413216Y-75728456D01*
X116265646Y-75629853D01*
X116140147Y-75504354D01*
X116041544Y-75356784D01*
X115973624Y-75192812D01*
X115939000Y-75018741D01*
X115939000Y-74841259D01*
X115973624Y-74667188D01*
X116041544Y-74503216D01*
X116140147Y-74355646D01*
X116265646Y-74230147D01*
X116413216Y-74131544D01*
X116577188Y-74063624D01*
X116726488Y-74033927D01*
X116751258Y-74029000D01*
X116928742Y-74029000D01*
X116953512Y-74033927D01*
G37*
G36*
X101848228Y-74111703D02*
G01*
X102003100Y-74175853D01*
X102142481Y-74268985D01*
X102261015Y-74387519D01*
X102354147Y-74526900D01*
X102418297Y-74681772D01*
X102451000Y-74846184D01*
X102451000Y-75013816D01*
X102418297Y-75178228D01*
X102354147Y-75333100D01*
X102261015Y-75472481D01*
X102142481Y-75591015D01*
X102003100Y-75684147D01*
X101848228Y-75748297D01*
X101683816Y-75781000D01*
X101516184Y-75781000D01*
X101351772Y-75748297D01*
X101196900Y-75684147D01*
X101057519Y-75591015D01*
X100938985Y-75472481D01*
X100845853Y-75333100D01*
X100781703Y-75178228D01*
X100749000Y-75013816D01*
X100749000Y-74846184D01*
X100781703Y-74681772D01*
X100845853Y-74526900D01*
X100938985Y-74387519D01*
X101057519Y-74268985D01*
X101196900Y-74175853D01*
X101351772Y-74111703D01*
X101516184Y-74079000D01*
X101683816Y-74079000D01*
X101848228Y-74111703D01*
G37*
G36*
X86608228Y-74111703D02*
G01*
X86763100Y-74175853D01*
X86902481Y-74268985D01*
X87021015Y-74387519D01*
X87114147Y-74526900D01*
X87178297Y-74681772D01*
X87211000Y-74846184D01*
X87211000Y-75013816D01*
X87178297Y-75178228D01*
X87114147Y-75333100D01*
X87021015Y-75472481D01*
X86902481Y-75591015D01*
X86763100Y-75684147D01*
X86608228Y-75748297D01*
X86443816Y-75781000D01*
X86276184Y-75781000D01*
X86111772Y-75748297D01*
X85956900Y-75684147D01*
X85817519Y-75591015D01*
X85698985Y-75472481D01*
X85605853Y-75333100D01*
X85541703Y-75178228D01*
X85509000Y-75013816D01*
X85509000Y-74846184D01*
X85541703Y-74681772D01*
X85605853Y-74526900D01*
X85698985Y-74387519D01*
X85817519Y-74268985D01*
X85956900Y-74175853D01*
X86111772Y-74111703D01*
X86276184Y-74079000D01*
X86443816Y-74079000D01*
X86608228Y-74111703D01*
G37*
G36*
X119493512Y-71493927D02*
G01*
X119642812Y-71523624D01*
X119806784Y-71591544D01*
X119954354Y-71690147D01*
X120079853Y-71815646D01*
X120178456Y-71963216D01*
X120246376Y-72127188D01*
X120281000Y-72301259D01*
X120281000Y-72478741D01*
X120246376Y-72652812D01*
X120178456Y-72816784D01*
X120079853Y-72964354D01*
X119954354Y-73089853D01*
X119806784Y-73188456D01*
X119642812Y-73256376D01*
X119493512Y-73286073D01*
X119468742Y-73291000D01*
X119291258Y-73291000D01*
X119266488Y-73286073D01*
X119117188Y-73256376D01*
X118953216Y-73188456D01*
X118805646Y-73089853D01*
X118680147Y-72964354D01*
X118581544Y-72816784D01*
X118513624Y-72652812D01*
X118479000Y-72478741D01*
X118479000Y-72301259D01*
X118513624Y-72127188D01*
X118581544Y-71963216D01*
X118680147Y-71815646D01*
X118805646Y-71690147D01*
X118953216Y-71591544D01*
X119117188Y-71523624D01*
X119266488Y-71493927D01*
X119291258Y-71489000D01*
X119468742Y-71489000D01*
X119493512Y-71493927D01*
G37*
G36*
X116953512Y-71493927D02*
G01*
X117102812Y-71523624D01*
X117266784Y-71591544D01*
X117414354Y-71690147D01*
X117539853Y-71815646D01*
X117638456Y-71963216D01*
X117706376Y-72127188D01*
X117741000Y-72301259D01*
X117741000Y-72478741D01*
X117706376Y-72652812D01*
X117638456Y-72816784D01*
X117539853Y-72964354D01*
X117414354Y-73089853D01*
X117266784Y-73188456D01*
X117102812Y-73256376D01*
X116953512Y-73286073D01*
X116928742Y-73291000D01*
X116751258Y-73291000D01*
X116726488Y-73286073D01*
X116577188Y-73256376D01*
X116413216Y-73188456D01*
X116265646Y-73089853D01*
X116140147Y-72964354D01*
X116041544Y-72816784D01*
X115973624Y-72652812D01*
X115939000Y-72478741D01*
X115939000Y-72301259D01*
X115973624Y-72127188D01*
X116041544Y-71963216D01*
X116140147Y-71815646D01*
X116265646Y-71690147D01*
X116413216Y-71591544D01*
X116577188Y-71523624D01*
X116726488Y-71493927D01*
X116751258Y-71489000D01*
X116928742Y-71489000D01*
X116953512Y-71493927D01*
G37*
G36*
X101848228Y-71571703D02*
G01*
X102003100Y-71635853D01*
X102142481Y-71728985D01*
X102261015Y-71847519D01*
X102354147Y-71986900D01*
X102418297Y-72141772D01*
X102451000Y-72306184D01*
X102451000Y-72473816D01*
X102418297Y-72638228D01*
X102354147Y-72793100D01*
X102261015Y-72932481D01*
X102142481Y-73051015D01*
X102003100Y-73144147D01*
X101848228Y-73208297D01*
X101683816Y-73241000D01*
X101516184Y-73241000D01*
X101351772Y-73208297D01*
X101196900Y-73144147D01*
X101057519Y-73051015D01*
X100938985Y-72932481D01*
X100845853Y-72793100D01*
X100781703Y-72638228D01*
X100749000Y-72473816D01*
X100749000Y-72306184D01*
X100781703Y-72141772D01*
X100845853Y-71986900D01*
X100938985Y-71847519D01*
X101057519Y-71728985D01*
X101196900Y-71635853D01*
X101351772Y-71571703D01*
X101516184Y-71539000D01*
X101683816Y-71539000D01*
X101848228Y-71571703D01*
G37*
G36*
X86608228Y-71571703D02*
G01*
X86763100Y-71635853D01*
X86902481Y-71728985D01*
X87021015Y-71847519D01*
X87114147Y-71986900D01*
X87178297Y-72141772D01*
X87211000Y-72306184D01*
X87211000Y-72473816D01*
X87178297Y-72638228D01*
X87114147Y-72793100D01*
X87021015Y-72932481D01*
X86902481Y-73051015D01*
X86763100Y-73144147D01*
X86608228Y-73208297D01*
X86443816Y-73241000D01*
X86276184Y-73241000D01*
X86111772Y-73208297D01*
X85956900Y-73144147D01*
X85817519Y-73051015D01*
X85698985Y-72932481D01*
X85605853Y-72793100D01*
X85541703Y-72638228D01*
X85509000Y-72473816D01*
X85509000Y-72306184D01*
X85541703Y-72141772D01*
X85605853Y-71986900D01*
X85698985Y-71847519D01*
X85817519Y-71728985D01*
X85956900Y-71635853D01*
X86111772Y-71571703D01*
X86276184Y-71539000D01*
X86443816Y-71539000D01*
X86608228Y-71571703D01*
G37*
G36*
X70941564Y-70744389D02*
G01*
X71132833Y-70823615D01*
X71132835Y-70823616D01*
X71304973Y-70938635D01*
X71451365Y-71085027D01*
X71554345Y-71239147D01*
X71566385Y-71257167D01*
X71645611Y-71448436D01*
X71686000Y-71651484D01*
X71686000Y-71858516D01*
X71645611Y-72061564D01*
X71566385Y-72252833D01*
X71566384Y-72252835D01*
X71451365Y-72424973D01*
X71304973Y-72571365D01*
X71132835Y-72686384D01*
X71132834Y-72686385D01*
X71132833Y-72686385D01*
X70941564Y-72765611D01*
X70738516Y-72806000D01*
X70531484Y-72806000D01*
X70328436Y-72765611D01*
X70137167Y-72686385D01*
X70137166Y-72686385D01*
X70137165Y-72686384D01*
X69965027Y-72571365D01*
X69818635Y-72424973D01*
X69703616Y-72252835D01*
X69703615Y-72252833D01*
X69624389Y-72061564D01*
X69584000Y-71858516D01*
X69584000Y-71651484D01*
X69624389Y-71448436D01*
X69703615Y-71257167D01*
X69715656Y-71239147D01*
X69818635Y-71085027D01*
X69965027Y-70938635D01*
X70137165Y-70823616D01*
X70137167Y-70823615D01*
X70328436Y-70744389D01*
X70531484Y-70704000D01*
X70738516Y-70704000D01*
X70941564Y-70744389D01*
G37*
G36*
X64441564Y-70744389D02*
G01*
X64632833Y-70823615D01*
X64632835Y-70823616D01*
X64804973Y-70938635D01*
X64951365Y-71085027D01*
X65054345Y-71239147D01*
X65066385Y-71257167D01*
X65145611Y-71448436D01*
X65186000Y-71651484D01*
X65186000Y-71858516D01*
X65145611Y-72061564D01*
X65066385Y-72252833D01*
X65066384Y-72252835D01*
X64951365Y-72424973D01*
X64804973Y-72571365D01*
X64632835Y-72686384D01*
X64632834Y-72686385D01*
X64632833Y-72686385D01*
X64441564Y-72765611D01*
X64238516Y-72806000D01*
X64031484Y-72806000D01*
X63828436Y-72765611D01*
X63637167Y-72686385D01*
X63637166Y-72686385D01*
X63637165Y-72686384D01*
X63465027Y-72571365D01*
X63318635Y-72424973D01*
X63203616Y-72252835D01*
X63203615Y-72252833D01*
X63124389Y-72061564D01*
X63084000Y-71858516D01*
X63084000Y-71651484D01*
X63124389Y-71448436D01*
X63203615Y-71257167D01*
X63215656Y-71239147D01*
X63318635Y-71085027D01*
X63465027Y-70938635D01*
X63637165Y-70823616D01*
X63637167Y-70823615D01*
X63828436Y-70744389D01*
X64031484Y-70704000D01*
X64238516Y-70704000D01*
X64441564Y-70744389D01*
G37*
G36*
X73273228Y-69666703D02*
G01*
X73428100Y-69730853D01*
X73567481Y-69823985D01*
X73686015Y-69942519D01*
X73779147Y-70081900D01*
X73843297Y-70236772D01*
X73876000Y-70401184D01*
X73876000Y-70568816D01*
X73843297Y-70733228D01*
X73779147Y-70888100D01*
X73686015Y-71027481D01*
X73567481Y-71146015D01*
X73428100Y-71239147D01*
X73273228Y-71303297D01*
X73108816Y-71336000D01*
X72941184Y-71336000D01*
X72776772Y-71303297D01*
X72621900Y-71239147D01*
X72482519Y-71146015D01*
X72363985Y-71027481D01*
X72270853Y-70888100D01*
X72206703Y-70733228D01*
X72174000Y-70568816D01*
X72174000Y-70401184D01*
X72206703Y-70236772D01*
X72270853Y-70081900D01*
X72363985Y-69942519D01*
X72482519Y-69823985D01*
X72621900Y-69730853D01*
X72776772Y-69666703D01*
X72941184Y-69634000D01*
X73108816Y-69634000D01*
X73273228Y-69666703D01*
G37*
G36*
X119493512Y-68953927D02*
G01*
X119642812Y-68983624D01*
X119806784Y-69051544D01*
X119954354Y-69150147D01*
X120079853Y-69275646D01*
X120178456Y-69423216D01*
X120246376Y-69587188D01*
X120281000Y-69761259D01*
X120281000Y-69938741D01*
X120246376Y-70112812D01*
X120178456Y-70276784D01*
X120079853Y-70424354D01*
X119954354Y-70549853D01*
X119806784Y-70648456D01*
X119642812Y-70716376D01*
X119493512Y-70746073D01*
X119468742Y-70751000D01*
X119291258Y-70751000D01*
X119266488Y-70746073D01*
X119117188Y-70716376D01*
X118953216Y-70648456D01*
X118805646Y-70549853D01*
X118680147Y-70424354D01*
X118581544Y-70276784D01*
X118513624Y-70112812D01*
X118479000Y-69938741D01*
X118479000Y-69761259D01*
X118513624Y-69587188D01*
X118581544Y-69423216D01*
X118680147Y-69275646D01*
X118805646Y-69150147D01*
X118953216Y-69051544D01*
X119117188Y-68983624D01*
X119266488Y-68953927D01*
X119291258Y-68949000D01*
X119468742Y-68949000D01*
X119493512Y-68953927D01*
G37*
G36*
X116953512Y-68953927D02*
G01*
X117102812Y-68983624D01*
X117266784Y-69051544D01*
X117414354Y-69150147D01*
X117539853Y-69275646D01*
X117638456Y-69423216D01*
X117706376Y-69587188D01*
X117741000Y-69761259D01*
X117741000Y-69938741D01*
X117706376Y-70112812D01*
X117638456Y-70276784D01*
X117539853Y-70424354D01*
X117414354Y-70549853D01*
X117266784Y-70648456D01*
X117102812Y-70716376D01*
X116953512Y-70746073D01*
X116928742Y-70751000D01*
X116751258Y-70751000D01*
X116726488Y-70746073D01*
X116577188Y-70716376D01*
X116413216Y-70648456D01*
X116265646Y-70549853D01*
X116140147Y-70424354D01*
X116041544Y-70276784D01*
X115973624Y-70112812D01*
X115939000Y-69938741D01*
X115939000Y-69761259D01*
X115973624Y-69587188D01*
X116041544Y-69423216D01*
X116140147Y-69275646D01*
X116265646Y-69150147D01*
X116413216Y-69051544D01*
X116577188Y-68983624D01*
X116726488Y-68953927D01*
X116751258Y-68949000D01*
X116928742Y-68949000D01*
X116953512Y-68953927D01*
G37*
G36*
X87211000Y-70701000D02*
G01*
X85509000Y-70701000D01*
X85509000Y-68999000D01*
X87211000Y-68999000D01*
X87211000Y-70701000D01*
G37*
G36*
X101848228Y-69031703D02*
G01*
X102003100Y-69095853D01*
X102142481Y-69188985D01*
X102261015Y-69307519D01*
X102354147Y-69446900D01*
X102418297Y-69601772D01*
X102451000Y-69766184D01*
X102451000Y-69933816D01*
X102418297Y-70098228D01*
X102354147Y-70253100D01*
X102261015Y-70392481D01*
X102142481Y-70511015D01*
X102003100Y-70604147D01*
X101848228Y-70668297D01*
X101683816Y-70701000D01*
X101516184Y-70701000D01*
X101351772Y-70668297D01*
X101196900Y-70604147D01*
X101057519Y-70511015D01*
X100938985Y-70392481D01*
X100845853Y-70253100D01*
X100781703Y-70098228D01*
X100749000Y-69933816D01*
X100749000Y-69766184D01*
X100781703Y-69601772D01*
X100845853Y-69446900D01*
X100938985Y-69307519D01*
X101057519Y-69188985D01*
X101196900Y-69095853D01*
X101351772Y-69031703D01*
X101516184Y-68999000D01*
X101683816Y-68999000D01*
X101848228Y-69031703D01*
G37*
G36*
X110509943Y-64376248D02*
G01*
X111065189Y-64606238D01*
X111065190Y-64606239D01*
X111564899Y-64940134D01*
X111989866Y-65365101D01*
X111989867Y-65365103D01*
X112323762Y-65864811D01*
X112553752Y-66420057D01*
X112671000Y-67009501D01*
X112671000Y-67610499D01*
X112553752Y-68199943D01*
X112323762Y-68755189D01*
X112323761Y-68755190D01*
X111989866Y-69254899D01*
X111564899Y-69679866D01*
X111349210Y-69823985D01*
X111065189Y-70013762D01*
X110509943Y-70243752D01*
X109920499Y-70361000D01*
X109319501Y-70361000D01*
X108730057Y-70243752D01*
X108174811Y-70013762D01*
X107890790Y-69823985D01*
X107675101Y-69679866D01*
X107250134Y-69254899D01*
X106916239Y-68755190D01*
X106916238Y-68755189D01*
X106686248Y-68199943D01*
X106569000Y-67610499D01*
X106569000Y-67009501D01*
X106686248Y-66420057D01*
X106916238Y-65864811D01*
X107250133Y-65365103D01*
X107250134Y-65365101D01*
X107675101Y-64940134D01*
X108174810Y-64606239D01*
X108174811Y-64606238D01*
X108730057Y-64376248D01*
X109319501Y-64259000D01*
X109920499Y-64259000D01*
X110509943Y-64376248D01*
G37*
G36*
X60179943Y-64376248D02*
G01*
X60735189Y-64606238D01*
X60735190Y-64606239D01*
X61234899Y-64940134D01*
X61659866Y-65365101D01*
X61659867Y-65365103D01*
X61993762Y-65864811D01*
X62223752Y-66420057D01*
X62341000Y-67009501D01*
X62341000Y-67610499D01*
X62223752Y-68199943D01*
X61993762Y-68755189D01*
X61993761Y-68755190D01*
X61659866Y-69254899D01*
X61234899Y-69679866D01*
X61019210Y-69823985D01*
X60735189Y-70013762D01*
X60179943Y-70243752D01*
X59590499Y-70361000D01*
X58989501Y-70361000D01*
X58400057Y-70243752D01*
X57844811Y-70013762D01*
X57560790Y-69823985D01*
X57345101Y-69679866D01*
X56920134Y-69254899D01*
X56586239Y-68755190D01*
X56586238Y-68755189D01*
X56356248Y-68199943D01*
X56239000Y-67610499D01*
X56239000Y-67009501D01*
X56356248Y-66420057D01*
X56586238Y-65864811D01*
X56920133Y-65365103D01*
X56920134Y-65365101D01*
X57345101Y-64940134D01*
X57844810Y-64606239D01*
X57844811Y-64606238D01*
X58400057Y-64376248D01*
X58989501Y-64259000D01*
X59590499Y-64259000D01*
X60179943Y-64376248D01*
G37*
G36*
X119493512Y-66413927D02*
G01*
X119642812Y-66443624D01*
X119806784Y-66511544D01*
X119954354Y-66610147D01*
X120079853Y-66735646D01*
X120178456Y-66883216D01*
X120246376Y-67047188D01*
X120281000Y-67221259D01*
X120281000Y-67398741D01*
X120246376Y-67572812D01*
X120178456Y-67736784D01*
X120079853Y-67884354D01*
X119954354Y-68009853D01*
X119806784Y-68108456D01*
X119642812Y-68176376D01*
X119493512Y-68206073D01*
X119468742Y-68211000D01*
X119291258Y-68211000D01*
X119266488Y-68206073D01*
X119117188Y-68176376D01*
X118953216Y-68108456D01*
X118805646Y-68009853D01*
X118680147Y-67884354D01*
X118581544Y-67736784D01*
X118513624Y-67572812D01*
X118479000Y-67398741D01*
X118479000Y-67221259D01*
X118513624Y-67047188D01*
X118581544Y-66883216D01*
X118680147Y-66735646D01*
X118805646Y-66610147D01*
X118953216Y-66511544D01*
X119117188Y-66443624D01*
X119266488Y-66413927D01*
X119291258Y-66409000D01*
X119468742Y-66409000D01*
X119493512Y-66413927D01*
G37*
G36*
X116953512Y-66413927D02*
G01*
X117102812Y-66443624D01*
X117266784Y-66511544D01*
X117414354Y-66610147D01*
X117539853Y-66735646D01*
X117638456Y-66883216D01*
X117706376Y-67047188D01*
X117741000Y-67221259D01*
X117741000Y-67398741D01*
X117706376Y-67572812D01*
X117638456Y-67736784D01*
X117539853Y-67884354D01*
X117414354Y-68009853D01*
X117266784Y-68108456D01*
X117102812Y-68176376D01*
X116953512Y-68206073D01*
X116928742Y-68211000D01*
X116751258Y-68211000D01*
X116726488Y-68206073D01*
X116577188Y-68176376D01*
X116413216Y-68108456D01*
X116265646Y-68009853D01*
X116140147Y-67884354D01*
X116041544Y-67736784D01*
X115973624Y-67572812D01*
X115939000Y-67398741D01*
X115939000Y-67221259D01*
X115973624Y-67047188D01*
X116041544Y-66883216D01*
X116140147Y-66735646D01*
X116265646Y-66610147D01*
X116413216Y-66511544D01*
X116577188Y-66443624D01*
X116726488Y-66413927D01*
X116751258Y-66409000D01*
X116928742Y-66409000D01*
X116953512Y-66413927D01*
G37*
G36*
X70941564Y-61909389D02*
G01*
X71132833Y-61988615D01*
X71132835Y-61988616D01*
X71304973Y-62103635D01*
X71451365Y-62250027D01*
X71499803Y-62322519D01*
X71566385Y-62422167D01*
X71645611Y-62613436D01*
X71686000Y-62816484D01*
X71686000Y-63023516D01*
X71645611Y-63226564D01*
X71628406Y-63268100D01*
X71566384Y-63417835D01*
X71451365Y-63589973D01*
X71304973Y-63736365D01*
X71132835Y-63851384D01*
X71132834Y-63851385D01*
X71132833Y-63851385D01*
X70941564Y-63930611D01*
X70738516Y-63971000D01*
X70531484Y-63971000D01*
X70328436Y-63930611D01*
X70137167Y-63851385D01*
X70137166Y-63851385D01*
X70137165Y-63851384D01*
X69965027Y-63736365D01*
X69818635Y-63589973D01*
X69703616Y-63417835D01*
X69641594Y-63268100D01*
X69624389Y-63226564D01*
X69584000Y-63023516D01*
X69584000Y-62816484D01*
X69624389Y-62613436D01*
X69703615Y-62422167D01*
X69770198Y-62322519D01*
X69818635Y-62250027D01*
X69965027Y-62103635D01*
X70137165Y-61988616D01*
X70137167Y-61988615D01*
X70328436Y-61909389D01*
X70531484Y-61869000D01*
X70738516Y-61869000D01*
X70941564Y-61909389D01*
G37*
G36*
X64441564Y-61909389D02*
G01*
X64632833Y-61988615D01*
X64632835Y-61988616D01*
X64804973Y-62103635D01*
X64951365Y-62250027D01*
X64999803Y-62322519D01*
X65066385Y-62422167D01*
X65145611Y-62613436D01*
X65186000Y-62816484D01*
X65186000Y-63023516D01*
X65145611Y-63226564D01*
X65128406Y-63268100D01*
X65066384Y-63417835D01*
X64951365Y-63589973D01*
X64804973Y-63736365D01*
X64632835Y-63851384D01*
X64632834Y-63851385D01*
X64632833Y-63851385D01*
X64441564Y-63930611D01*
X64238516Y-63971000D01*
X64031484Y-63971000D01*
X63828436Y-63930611D01*
X63637167Y-63851385D01*
X63637166Y-63851385D01*
X63637165Y-63851384D01*
X63465027Y-63736365D01*
X63318635Y-63589973D01*
X63203616Y-63417835D01*
X63141594Y-63268100D01*
X63124389Y-63226564D01*
X63084000Y-63023516D01*
X63084000Y-62816484D01*
X63124389Y-62613436D01*
X63203615Y-62422167D01*
X63270198Y-62322519D01*
X63318635Y-62250027D01*
X63465027Y-62103635D01*
X63637165Y-61988616D01*
X63637167Y-61988615D01*
X63828436Y-61909389D01*
X64031484Y-61869000D01*
X64238516Y-61869000D01*
X64441564Y-61909389D01*
G37*
G36*
X73273228Y-62046703D02*
G01*
X73428100Y-62110853D01*
X73567481Y-62203985D01*
X73686015Y-62322519D01*
X73779147Y-62461900D01*
X73843297Y-62616772D01*
X73876000Y-62781184D01*
X73876000Y-62948816D01*
X73843297Y-63113228D01*
X73779147Y-63268100D01*
X73686015Y-63407481D01*
X73567481Y-63526015D01*
X73428100Y-63619147D01*
X73273228Y-63683297D01*
X73108816Y-63716000D01*
X72941184Y-63716000D01*
X72776772Y-63683297D01*
X72621900Y-63619147D01*
X72482519Y-63526015D01*
X72363985Y-63407481D01*
X72270853Y-63268100D01*
X72206703Y-63113228D01*
X72174000Y-62948816D01*
X72174000Y-62781184D01*
X72206703Y-62616772D01*
X72270853Y-62461900D01*
X72363985Y-62322519D01*
X72482519Y-62203985D01*
X72621900Y-62110853D01*
X72776772Y-62046703D01*
X72941184Y-62014000D01*
X73108816Y-62014000D01*
X73273228Y-62046703D01*
G37*
G36*
X70941564Y-57409389D02*
G01*
X71132833Y-57488615D01*
X71132835Y-57488616D01*
X71304973Y-57603635D01*
X71451365Y-57750027D01*
X71566385Y-57922167D01*
X71645611Y-58113436D01*
X71686000Y-58316484D01*
X71686000Y-58523516D01*
X71645611Y-58726564D01*
X71566385Y-58917833D01*
X71566384Y-58917835D01*
X71451365Y-59089973D01*
X71304973Y-59236365D01*
X71132835Y-59351384D01*
X71132834Y-59351385D01*
X71132833Y-59351385D01*
X70941564Y-59430611D01*
X70738516Y-59471000D01*
X70531484Y-59471000D01*
X70328436Y-59430611D01*
X70137167Y-59351385D01*
X70137166Y-59351385D01*
X70137165Y-59351384D01*
X69965027Y-59236365D01*
X69818635Y-59089973D01*
X69703616Y-58917835D01*
X69703615Y-58917833D01*
X69624389Y-58726564D01*
X69584000Y-58523516D01*
X69584000Y-58316484D01*
X69624389Y-58113436D01*
X69703615Y-57922167D01*
X69818635Y-57750027D01*
X69965027Y-57603635D01*
X70137165Y-57488616D01*
X70137167Y-57488615D01*
X70328436Y-57409389D01*
X70531484Y-57369000D01*
X70738516Y-57369000D01*
X70941564Y-57409389D01*
G37*
G36*
X64441564Y-57409389D02*
G01*
X64632833Y-57488615D01*
X64632835Y-57488616D01*
X64804973Y-57603635D01*
X64951365Y-57750027D01*
X65066385Y-57922167D01*
X65145611Y-58113436D01*
X65186000Y-58316484D01*
X65186000Y-58523516D01*
X65145611Y-58726564D01*
X65066385Y-58917833D01*
X65066384Y-58917835D01*
X64951365Y-59089973D01*
X64804973Y-59236365D01*
X64632835Y-59351384D01*
X64632834Y-59351385D01*
X64632833Y-59351385D01*
X64441564Y-59430611D01*
X64238516Y-59471000D01*
X64031484Y-59471000D01*
X63828436Y-59430611D01*
X63637167Y-59351385D01*
X63637166Y-59351385D01*
X63637165Y-59351384D01*
X63465027Y-59236365D01*
X63318635Y-59089973D01*
X63203616Y-58917835D01*
X63203615Y-58917833D01*
X63124389Y-58726564D01*
X63084000Y-58523516D01*
X63084000Y-58316484D01*
X63124389Y-58113436D01*
X63203615Y-57922167D01*
X63318635Y-57750027D01*
X63465027Y-57603635D01*
X63637165Y-57488616D01*
X63637167Y-57488615D01*
X63828436Y-57409389D01*
X64031484Y-57369000D01*
X64238516Y-57369000D01*
X64441564Y-57409389D01*
G37*
G36*
X78988228Y-55696703D02*
G01*
X79143100Y-55760853D01*
X79282481Y-55853985D01*
X79401015Y-55972519D01*
X79494147Y-56111900D01*
X79558297Y-56266772D01*
X79591000Y-56431184D01*
X79591000Y-56598816D01*
X79558297Y-56763228D01*
X79494147Y-56918100D01*
X79401015Y-57057481D01*
X79282481Y-57176015D01*
X79143100Y-57269147D01*
X78988228Y-57333297D01*
X78823816Y-57366000D01*
X78656184Y-57366000D01*
X78491772Y-57333297D01*
X78336900Y-57269147D01*
X78197519Y-57176015D01*
X78078985Y-57057481D01*
X77985853Y-56918100D01*
X77921703Y-56763228D01*
X77889000Y-56598816D01*
X77889000Y-56431184D01*
X77921703Y-56266772D01*
X77985853Y-56111900D01*
X78078985Y-55972519D01*
X78197519Y-55853985D01*
X78336900Y-55760853D01*
X78491772Y-55696703D01*
X78656184Y-55664000D01*
X78823816Y-55664000D01*
X78988228Y-55696703D01*
G37*
G36*
X64383228Y-55061703D02*
G01*
X64538100Y-55125853D01*
X64677481Y-55218985D01*
X64796015Y-55337519D01*
X64889147Y-55476900D01*
X64953297Y-55631772D01*
X64986000Y-55796184D01*
X64986000Y-55963816D01*
X64953297Y-56128228D01*
X64889147Y-56283100D01*
X64796015Y-56422481D01*
X64677481Y-56541015D01*
X64538100Y-56634147D01*
X64383228Y-56698297D01*
X64218816Y-56731000D01*
X64051184Y-56731000D01*
X63886772Y-56698297D01*
X63731900Y-56634147D01*
X63592519Y-56541015D01*
X63473985Y-56422481D01*
X63380853Y-56283100D01*
X63316703Y-56128228D01*
X63284000Y-55963816D01*
X63284000Y-55796184D01*
X63316703Y-55631772D01*
X63380853Y-55476900D01*
X63473985Y-55337519D01*
X63592519Y-55218985D01*
X63731900Y-55125853D01*
X63886772Y-55061703D01*
X64051184Y-55029000D01*
X64218816Y-55029000D01*
X64383228Y-55061703D01*
G37*
G36*
X56763228Y-55061703D02*
G01*
X56918100Y-55125853D01*
X57057481Y-55218985D01*
X57176015Y-55337519D01*
X57269147Y-55476900D01*
X57333297Y-55631772D01*
X57366000Y-55796184D01*
X57366000Y-55963816D01*
X57333297Y-56128228D01*
X57269147Y-56283100D01*
X57176015Y-56422481D01*
X57057481Y-56541015D01*
X56918100Y-56634147D01*
X56763228Y-56698297D01*
X56598816Y-56731000D01*
X56431184Y-56731000D01*
X56266772Y-56698297D01*
X56111900Y-56634147D01*
X55972519Y-56541015D01*
X55853985Y-56422481D01*
X55760853Y-56283100D01*
X55696703Y-56128228D01*
X55664000Y-55963816D01*
X55664000Y-55796184D01*
X55696703Y-55631772D01*
X55760853Y-55476900D01*
X55853985Y-55337519D01*
X55972519Y-55218985D01*
X56111900Y-55125853D01*
X56266772Y-55061703D01*
X56431184Y-55029000D01*
X56598816Y-55029000D01*
X56763228Y-55061703D01*
G37*
G36*
X76656564Y-52329389D02*
G01*
X76847833Y-52408615D01*
X76847835Y-52408616D01*
X77019973Y-52523635D01*
X77166365Y-52670027D01*
X77230256Y-52765646D01*
X77281385Y-52842167D01*
X77360611Y-53033436D01*
X77401000Y-53236484D01*
X77401000Y-53443516D01*
X77360611Y-53646564D01*
X77310815Y-53766782D01*
X77281384Y-53837835D01*
X77166365Y-54009973D01*
X77019973Y-54156365D01*
X76847835Y-54271384D01*
X76847834Y-54271385D01*
X76847833Y-54271385D01*
X76656564Y-54350611D01*
X76453516Y-54391000D01*
X76246484Y-54391000D01*
X76043436Y-54350611D01*
X75852167Y-54271385D01*
X75852166Y-54271385D01*
X75852165Y-54271384D01*
X75680027Y-54156365D01*
X75533635Y-54009973D01*
X75418616Y-53837835D01*
X75389185Y-53766782D01*
X75339389Y-53646564D01*
X75299000Y-53443516D01*
X75299000Y-53236484D01*
X75339389Y-53033436D01*
X75418615Y-52842167D01*
X75469745Y-52765646D01*
X75533635Y-52670027D01*
X75680027Y-52523635D01*
X75852165Y-52408616D01*
X75852167Y-52408615D01*
X76043436Y-52329389D01*
X76246484Y-52289000D01*
X76453516Y-52289000D01*
X76656564Y-52329389D01*
G37*
G36*
X58726564Y-52329389D02*
G01*
X58917833Y-52408615D01*
X58917835Y-52408616D01*
X59089973Y-52523635D01*
X59236365Y-52670027D01*
X59300256Y-52765646D01*
X59351385Y-52842167D01*
X59430611Y-53033436D01*
X59471000Y-53236484D01*
X59471000Y-53443516D01*
X59430611Y-53646564D01*
X59380815Y-53766782D01*
X59351384Y-53837835D01*
X59236365Y-54009973D01*
X59089973Y-54156365D01*
X58917835Y-54271384D01*
X58917834Y-54271385D01*
X58917833Y-54271385D01*
X58726564Y-54350611D01*
X58523516Y-54391000D01*
X58316484Y-54391000D01*
X58113436Y-54350611D01*
X57922167Y-54271385D01*
X57922166Y-54271385D01*
X57922165Y-54271384D01*
X57750027Y-54156365D01*
X57603635Y-54009973D01*
X57488616Y-53837835D01*
X57459185Y-53766782D01*
X57409389Y-53646564D01*
X57369000Y-53443516D01*
X57369000Y-53236484D01*
X57409389Y-53033436D01*
X57488615Y-52842167D01*
X57539745Y-52765646D01*
X57603635Y-52670027D01*
X57750027Y-52523635D01*
X57922165Y-52408616D01*
X57922167Y-52408615D01*
X58113436Y-52329389D01*
X58316484Y-52289000D01*
X58523516Y-52289000D01*
X58726564Y-52329389D01*
G37*
G36*
X65226564Y-52329389D02*
G01*
X65417833Y-52408615D01*
X65417835Y-52408616D01*
X65589973Y-52523635D01*
X65736365Y-52670027D01*
X65800256Y-52765646D01*
X65851385Y-52842167D01*
X65930611Y-53033436D01*
X65971000Y-53236484D01*
X65971000Y-53443516D01*
X65930611Y-53646564D01*
X65880815Y-53766782D01*
X65851384Y-53837835D01*
X65736365Y-54009973D01*
X65589973Y-54156365D01*
X65417835Y-54271384D01*
X65417834Y-54271385D01*
X65417833Y-54271385D01*
X65226564Y-54350611D01*
X65023516Y-54391000D01*
X64816484Y-54391000D01*
X64613436Y-54350611D01*
X64422167Y-54271385D01*
X64422166Y-54271385D01*
X64422165Y-54271384D01*
X64250027Y-54156365D01*
X64103635Y-54009973D01*
X63988616Y-53837835D01*
X63959185Y-53766782D01*
X63909389Y-53646564D01*
X63869000Y-53443516D01*
X63869000Y-53236484D01*
X63909389Y-53033436D01*
X63988615Y-52842167D01*
X64039745Y-52765646D01*
X64103635Y-52670027D01*
X64250027Y-52523635D01*
X64422165Y-52408616D01*
X64422167Y-52408615D01*
X64613436Y-52329389D01*
X64816484Y-52289000D01*
X65023516Y-52289000D01*
X65226564Y-52329389D01*
G37*
G36*
X70156564Y-52329389D02*
G01*
X70347833Y-52408615D01*
X70347835Y-52408616D01*
X70519973Y-52523635D01*
X70666365Y-52670027D01*
X70730256Y-52765646D01*
X70781385Y-52842167D01*
X70860611Y-53033436D01*
X70901000Y-53236484D01*
X70901000Y-53443516D01*
X70860611Y-53646564D01*
X70810815Y-53766782D01*
X70781384Y-53837835D01*
X70666365Y-54009973D01*
X70519973Y-54156365D01*
X70347835Y-54271384D01*
X70347834Y-54271385D01*
X70347833Y-54271385D01*
X70156564Y-54350611D01*
X69953516Y-54391000D01*
X69746484Y-54391000D01*
X69543436Y-54350611D01*
X69352167Y-54271385D01*
X69352166Y-54271385D01*
X69352165Y-54271384D01*
X69180027Y-54156365D01*
X69033635Y-54009973D01*
X68918616Y-53837835D01*
X68889185Y-53766782D01*
X68839389Y-53646564D01*
X68799000Y-53443516D01*
X68799000Y-53236484D01*
X68839389Y-53033436D01*
X68918615Y-52842167D01*
X68969745Y-52765646D01*
X69033635Y-52670027D01*
X69180027Y-52523635D01*
X69352165Y-52408616D01*
X69352167Y-52408615D01*
X69543436Y-52329389D01*
X69746484Y-52289000D01*
X69953516Y-52289000D01*
X70156564Y-52329389D01*
G37*
G36*
X119493512Y-52443927D02*
G01*
X119642812Y-52473624D01*
X119806784Y-52541544D01*
X119954354Y-52640147D01*
X120079853Y-52765646D01*
X120178456Y-52913216D01*
X120246376Y-53077188D01*
X120281000Y-53251259D01*
X120281000Y-53428741D01*
X120246376Y-53602812D01*
X120178456Y-53766784D01*
X120079853Y-53914354D01*
X119954354Y-54039853D01*
X119806784Y-54138456D01*
X119642812Y-54206376D01*
X119493512Y-54236073D01*
X119468742Y-54241000D01*
X119291258Y-54241000D01*
X119266488Y-54236073D01*
X119117188Y-54206376D01*
X118953216Y-54138456D01*
X118805646Y-54039853D01*
X118680147Y-53914354D01*
X118581544Y-53766784D01*
X118513624Y-53602812D01*
X118479000Y-53428741D01*
X118479000Y-53251259D01*
X118513624Y-53077188D01*
X118581544Y-52913216D01*
X118680147Y-52765646D01*
X118805646Y-52640147D01*
X118953216Y-52541544D01*
X119117188Y-52473624D01*
X119266488Y-52443927D01*
X119291258Y-52439000D01*
X119468742Y-52439000D01*
X119493512Y-52443927D01*
G37*
G36*
X119493512Y-49903927D02*
G01*
X119642812Y-49933624D01*
X119806784Y-50001544D01*
X119954354Y-50100147D01*
X120079853Y-50225646D01*
X120178456Y-50373216D01*
X120246376Y-50537188D01*
X120281000Y-50711259D01*
X120281000Y-50888741D01*
X120246376Y-51062812D01*
X120178456Y-51226784D01*
X120079853Y-51374354D01*
X119954354Y-51499853D01*
X119806784Y-51598456D01*
X119642812Y-51666376D01*
X119493512Y-51696073D01*
X119468742Y-51701000D01*
X119291258Y-51701000D01*
X119266488Y-51696073D01*
X119117188Y-51666376D01*
X118953216Y-51598456D01*
X118805646Y-51499853D01*
X118680147Y-51374354D01*
X118581544Y-51226784D01*
X118513624Y-51062812D01*
X118479000Y-50888741D01*
X118479000Y-50711259D01*
X118513624Y-50537188D01*
X118581544Y-50373216D01*
X118680147Y-50225646D01*
X118805646Y-50100147D01*
X118953216Y-50001544D01*
X119117188Y-49933624D01*
X119266488Y-49903927D01*
X119291258Y-49899000D01*
X119468742Y-49899000D01*
X119493512Y-49903927D01*
G37*
G36*
X65226564Y-47829389D02*
G01*
X65417833Y-47908615D01*
X65417835Y-47908616D01*
X65550392Y-47997188D01*
X65589973Y-48023635D01*
X65736365Y-48170027D01*
X65851385Y-48342167D01*
X65930611Y-48533436D01*
X65971000Y-48736484D01*
X65971000Y-48943516D01*
X65930611Y-49146564D01*
X65924631Y-49161000D01*
X65851384Y-49337835D01*
X65736365Y-49509973D01*
X65589973Y-49656365D01*
X65417835Y-49771384D01*
X65417834Y-49771385D01*
X65417833Y-49771385D01*
X65226564Y-49850611D01*
X65023516Y-49891000D01*
X64816484Y-49891000D01*
X64613436Y-49850611D01*
X64422167Y-49771385D01*
X64422166Y-49771385D01*
X64422165Y-49771384D01*
X64250027Y-49656365D01*
X64103635Y-49509973D01*
X63988616Y-49337835D01*
X63915369Y-49161000D01*
X63909389Y-49146564D01*
X63869000Y-48943516D01*
X63869000Y-48736484D01*
X63909389Y-48533436D01*
X63988615Y-48342167D01*
X64103635Y-48170027D01*
X64250027Y-48023635D01*
X64289608Y-47997188D01*
X64422165Y-47908616D01*
X64422167Y-47908615D01*
X64613436Y-47829389D01*
X64816484Y-47789000D01*
X65023516Y-47789000D01*
X65226564Y-47829389D01*
G37*
G36*
X58726564Y-47829389D02*
G01*
X58917833Y-47908615D01*
X58917835Y-47908616D01*
X59050392Y-47997188D01*
X59089973Y-48023635D01*
X59236365Y-48170027D01*
X59351385Y-48342167D01*
X59430611Y-48533436D01*
X59471000Y-48736484D01*
X59471000Y-48943516D01*
X59430611Y-49146564D01*
X59424631Y-49161000D01*
X59351384Y-49337835D01*
X59236365Y-49509973D01*
X59089973Y-49656365D01*
X58917835Y-49771384D01*
X58917834Y-49771385D01*
X58917833Y-49771385D01*
X58726564Y-49850611D01*
X58523516Y-49891000D01*
X58316484Y-49891000D01*
X58113436Y-49850611D01*
X57922167Y-49771385D01*
X57922166Y-49771385D01*
X57922165Y-49771384D01*
X57750027Y-49656365D01*
X57603635Y-49509973D01*
X57488616Y-49337835D01*
X57415369Y-49161000D01*
X57409389Y-49146564D01*
X57369000Y-48943516D01*
X57369000Y-48736484D01*
X57409389Y-48533436D01*
X57488615Y-48342167D01*
X57603635Y-48170027D01*
X57750027Y-48023635D01*
X57789608Y-47997188D01*
X57922165Y-47908616D01*
X57922167Y-47908615D01*
X58113436Y-47829389D01*
X58316484Y-47789000D01*
X58523516Y-47789000D01*
X58726564Y-47829389D01*
G37*
G36*
X70156564Y-47829389D02*
G01*
X70347833Y-47908615D01*
X70347835Y-47908616D01*
X70480392Y-47997188D01*
X70519973Y-48023635D01*
X70666365Y-48170027D01*
X70781385Y-48342167D01*
X70860611Y-48533436D01*
X70901000Y-48736484D01*
X70901000Y-48943516D01*
X70860611Y-49146564D01*
X70854631Y-49161000D01*
X70781384Y-49337835D01*
X70666365Y-49509973D01*
X70519973Y-49656365D01*
X70347835Y-49771384D01*
X70347834Y-49771385D01*
X70347833Y-49771385D01*
X70156564Y-49850611D01*
X69953516Y-49891000D01*
X69746484Y-49891000D01*
X69543436Y-49850611D01*
X69352167Y-49771385D01*
X69352166Y-49771385D01*
X69352165Y-49771384D01*
X69180027Y-49656365D01*
X69033635Y-49509973D01*
X68918616Y-49337835D01*
X68845369Y-49161000D01*
X68839389Y-49146564D01*
X68799000Y-48943516D01*
X68799000Y-48736484D01*
X68839389Y-48533436D01*
X68918615Y-48342167D01*
X69033635Y-48170027D01*
X69180027Y-48023635D01*
X69219608Y-47997188D01*
X69352165Y-47908616D01*
X69352167Y-47908615D01*
X69543436Y-47829389D01*
X69746484Y-47789000D01*
X69953516Y-47789000D01*
X70156564Y-47829389D01*
G37*
G36*
X76656564Y-47829389D02*
G01*
X76847833Y-47908615D01*
X76847835Y-47908616D01*
X76980392Y-47997188D01*
X77019973Y-48023635D01*
X77166365Y-48170027D01*
X77281385Y-48342167D01*
X77360611Y-48533436D01*
X77401000Y-48736484D01*
X77401000Y-48943516D01*
X77360611Y-49146564D01*
X77354631Y-49161000D01*
X77281384Y-49337835D01*
X77166365Y-49509973D01*
X77019973Y-49656365D01*
X76847835Y-49771384D01*
X76847834Y-49771385D01*
X76847833Y-49771385D01*
X76656564Y-49850611D01*
X76453516Y-49891000D01*
X76246484Y-49891000D01*
X76043436Y-49850611D01*
X75852167Y-49771385D01*
X75852166Y-49771385D01*
X75852165Y-49771384D01*
X75680027Y-49656365D01*
X75533635Y-49509973D01*
X75418616Y-49337835D01*
X75345369Y-49161000D01*
X75339389Y-49146564D01*
X75299000Y-48943516D01*
X75299000Y-48736484D01*
X75339389Y-48533436D01*
X75418615Y-48342167D01*
X75533635Y-48170027D01*
X75680027Y-48023635D01*
X75719608Y-47997188D01*
X75852165Y-47908616D01*
X75852167Y-47908615D01*
X76043436Y-47829389D01*
X76246484Y-47789000D01*
X76453516Y-47789000D01*
X76656564Y-47829389D01*
G37*
G36*
X78988228Y-48076703D02*
G01*
X79143100Y-48140853D01*
X79282481Y-48233985D01*
X79401015Y-48352519D01*
X79494147Y-48491900D01*
X79558297Y-48646772D01*
X79591000Y-48811184D01*
X79591000Y-48978816D01*
X79558297Y-49143228D01*
X79494147Y-49298100D01*
X79401015Y-49437481D01*
X79282481Y-49556015D01*
X79143100Y-49649147D01*
X78988228Y-49713297D01*
X78823816Y-49746000D01*
X78656184Y-49746000D01*
X78491772Y-49713297D01*
X78336900Y-49649147D01*
X78197519Y-49556015D01*
X78078985Y-49437481D01*
X77985853Y-49298100D01*
X77921703Y-49143228D01*
X77889000Y-48978816D01*
X77889000Y-48811184D01*
X77921703Y-48646772D01*
X77985853Y-48491900D01*
X78078985Y-48352519D01*
X78197519Y-48233985D01*
X78336900Y-48140853D01*
X78491772Y-48076703D01*
X78656184Y-48044000D01*
X78823816Y-48044000D01*
X78988228Y-48076703D01*
G37*
G36*
X119493512Y-47363927D02*
G01*
X119642812Y-47393624D01*
X119806784Y-47461544D01*
X119954354Y-47560147D01*
X120079853Y-47685646D01*
X120178456Y-47833216D01*
X120246376Y-47997188D01*
X120281000Y-48171259D01*
X120281000Y-48348741D01*
X120246376Y-48522812D01*
X120178456Y-48686784D01*
X120079853Y-48834354D01*
X119954354Y-48959853D01*
X119806784Y-49058456D01*
X119642812Y-49126376D01*
X119493512Y-49156073D01*
X119468742Y-49161000D01*
X119291258Y-49161000D01*
X119266488Y-49156073D01*
X119117188Y-49126376D01*
X118953216Y-49058456D01*
X118805646Y-48959853D01*
X118680147Y-48834354D01*
X118581544Y-48686784D01*
X118513624Y-48522812D01*
X118479000Y-48348741D01*
X118479000Y-48171259D01*
X118513624Y-47997188D01*
X118581544Y-47833216D01*
X118680147Y-47685646D01*
X118805646Y-47560147D01*
X118953216Y-47461544D01*
X119117188Y-47393624D01*
X119266488Y-47363927D01*
X119291258Y-47359000D01*
X119468742Y-47359000D01*
X119493512Y-47363927D01*
G37*
G36*
X120281000Y-46621000D02*
G01*
X118479000Y-46621000D01*
X118479000Y-44819000D01*
X120281000Y-44819000D01*
X120281000Y-46621000D01*
G37*
G36*
X58668228Y-44901703D02*
G01*
X58823100Y-44965853D01*
X58962481Y-45058985D01*
X59081015Y-45177519D01*
X59174147Y-45316900D01*
X59238297Y-45471772D01*
X59271000Y-45636184D01*
X59271000Y-45803816D01*
X59238297Y-45968228D01*
X59174147Y-46123100D01*
X59081015Y-46262481D01*
X58962481Y-46381015D01*
X58823100Y-46474147D01*
X58668228Y-46538297D01*
X58503816Y-46571000D01*
X58336184Y-46571000D01*
X58171772Y-46538297D01*
X58016900Y-46474147D01*
X57877519Y-46381015D01*
X57758985Y-46262481D01*
X57665853Y-46123100D01*
X57601703Y-45968228D01*
X57569000Y-45803816D01*
X57569000Y-45636184D01*
X57601703Y-45471772D01*
X57665853Y-45316900D01*
X57758985Y-45177519D01*
X57877519Y-45058985D01*
X58016900Y-44965853D01*
X58171772Y-44901703D01*
X58336184Y-44869000D01*
X58503816Y-44869000D01*
X58668228Y-44901703D01*
G37*
G36*
X78988228Y-43631703D02*
G01*
X79143100Y-43695853D01*
X79282481Y-43788985D01*
X79401015Y-43907519D01*
X79494147Y-44046900D01*
X79558297Y-44201772D01*
X79591000Y-44366184D01*
X79591000Y-44533816D01*
X79558297Y-44698228D01*
X79494147Y-44853100D01*
X79401015Y-44992481D01*
X79282481Y-45111015D01*
X79143100Y-45204147D01*
X78988228Y-45268297D01*
X78823816Y-45301000D01*
X78656184Y-45301000D01*
X78491772Y-45268297D01*
X78336900Y-45204147D01*
X78197519Y-45111015D01*
X78078985Y-44992481D01*
X77985853Y-44853100D01*
X77921703Y-44698228D01*
X77889000Y-44533816D01*
X77889000Y-44366184D01*
X77921703Y-44201772D01*
X77985853Y-44046900D01*
X78078985Y-43907519D01*
X78197519Y-43788985D01*
X78336900Y-43695853D01*
X78491772Y-43631703D01*
X78656184Y-43599000D01*
X78823816Y-43599000D01*
X78988228Y-43631703D01*
G37*
G36*
X70941564Y-42859389D02*
G01*
X71132833Y-42938615D01*
X71132835Y-42938616D01*
X71304973Y-43053635D01*
X71451365Y-43200027D01*
X71566385Y-43372167D01*
X71645611Y-43563436D01*
X71686000Y-43766484D01*
X71686000Y-43973516D01*
X71645611Y-44176564D01*
X71566385Y-44367833D01*
X71566384Y-44367835D01*
X71451365Y-44539973D01*
X71304973Y-44686365D01*
X71132835Y-44801384D01*
X71132834Y-44801385D01*
X71132833Y-44801385D01*
X70941564Y-44880611D01*
X70738516Y-44921000D01*
X70531484Y-44921000D01*
X70328436Y-44880611D01*
X70137167Y-44801385D01*
X70137166Y-44801385D01*
X70137165Y-44801384D01*
X69965027Y-44686365D01*
X69818635Y-44539973D01*
X69703616Y-44367835D01*
X69703615Y-44367833D01*
X69624389Y-44176564D01*
X69584000Y-43973516D01*
X69584000Y-43766484D01*
X69624389Y-43563436D01*
X69703615Y-43372167D01*
X69818635Y-43200027D01*
X69965027Y-43053635D01*
X70137165Y-42938616D01*
X70137167Y-42938615D01*
X70328436Y-42859389D01*
X70531484Y-42819000D01*
X70738516Y-42819000D01*
X70941564Y-42859389D01*
G37*
G36*
X64441564Y-42859389D02*
G01*
X64632833Y-42938615D01*
X64632835Y-42938616D01*
X64804973Y-43053635D01*
X64951365Y-43200027D01*
X65066385Y-43372167D01*
X65145611Y-43563436D01*
X65186000Y-43766484D01*
X65186000Y-43973516D01*
X65145611Y-44176564D01*
X65066385Y-44367833D01*
X65066384Y-44367835D01*
X64951365Y-44539973D01*
X64804973Y-44686365D01*
X64632835Y-44801384D01*
X64632834Y-44801385D01*
X64632833Y-44801385D01*
X64441564Y-44880611D01*
X64238516Y-44921000D01*
X64031484Y-44921000D01*
X63828436Y-44880611D01*
X63637167Y-44801385D01*
X63637166Y-44801385D01*
X63637165Y-44801384D01*
X63465027Y-44686365D01*
X63318635Y-44539973D01*
X63203616Y-44367835D01*
X63203615Y-44367833D01*
X63124389Y-44176564D01*
X63084000Y-43973516D01*
X63084000Y-43766484D01*
X63124389Y-43563436D01*
X63203615Y-43372167D01*
X63318635Y-43200027D01*
X63465027Y-43053635D01*
X63637165Y-42938616D01*
X63637167Y-42938615D01*
X63828436Y-42859389D01*
X64031484Y-42819000D01*
X64238516Y-42819000D01*
X64441564Y-42859389D01*
G37*
G36*
X70941564Y-38359389D02*
G01*
X71132833Y-38438615D01*
X71132835Y-38438616D01*
X71304973Y-38553635D01*
X71451365Y-38700027D01*
X71554345Y-38854147D01*
X71566385Y-38872167D01*
X71645611Y-39063436D01*
X71686000Y-39266484D01*
X71686000Y-39473516D01*
X71645611Y-39676564D01*
X71566385Y-39867833D01*
X71566384Y-39867835D01*
X71451365Y-40039973D01*
X71304973Y-40186365D01*
X71132835Y-40301384D01*
X71132834Y-40301385D01*
X71132833Y-40301385D01*
X70941564Y-40380611D01*
X70738516Y-40421000D01*
X70531484Y-40421000D01*
X70328436Y-40380611D01*
X70137167Y-40301385D01*
X70137166Y-40301385D01*
X70137165Y-40301384D01*
X69965027Y-40186365D01*
X69818635Y-40039973D01*
X69703616Y-39867835D01*
X69703615Y-39867833D01*
X69624389Y-39676564D01*
X69584000Y-39473516D01*
X69584000Y-39266484D01*
X69624389Y-39063436D01*
X69703615Y-38872167D01*
X69715656Y-38854147D01*
X69818635Y-38700027D01*
X69965027Y-38553635D01*
X70137165Y-38438616D01*
X70137167Y-38438615D01*
X70328436Y-38359389D01*
X70531484Y-38319000D01*
X70738516Y-38319000D01*
X70941564Y-38359389D01*
G37*
G36*
X64441564Y-38359389D02*
G01*
X64632833Y-38438615D01*
X64632835Y-38438616D01*
X64804973Y-38553635D01*
X64951365Y-38700027D01*
X65054345Y-38854147D01*
X65066385Y-38872167D01*
X65145611Y-39063436D01*
X65186000Y-39266484D01*
X65186000Y-39473516D01*
X65145611Y-39676564D01*
X65066385Y-39867833D01*
X65066384Y-39867835D01*
X64951365Y-40039973D01*
X64804973Y-40186365D01*
X64632835Y-40301384D01*
X64632834Y-40301385D01*
X64632833Y-40301385D01*
X64441564Y-40380611D01*
X64238516Y-40421000D01*
X64031484Y-40421000D01*
X63828436Y-40380611D01*
X63637167Y-40301385D01*
X63637166Y-40301385D01*
X63637165Y-40301384D01*
X63465027Y-40186365D01*
X63318635Y-40039973D01*
X63203616Y-39867835D01*
X63203615Y-39867833D01*
X63124389Y-39676564D01*
X63084000Y-39473516D01*
X63084000Y-39266484D01*
X63124389Y-39063436D01*
X63203615Y-38872167D01*
X63215656Y-38854147D01*
X63318635Y-38700027D01*
X63465027Y-38553635D01*
X63637165Y-38438616D01*
X63637167Y-38438615D01*
X63828436Y-38359389D01*
X64031484Y-38319000D01*
X64238516Y-38319000D01*
X64441564Y-38359389D01*
G37*
G36*
X58668228Y-37281703D02*
G01*
X58823100Y-37345853D01*
X58962481Y-37438985D01*
X59081015Y-37557519D01*
X59174147Y-37696900D01*
X59238297Y-37851772D01*
X59271000Y-38016184D01*
X59271000Y-38183816D01*
X59238297Y-38348228D01*
X59174147Y-38503100D01*
X59081015Y-38642481D01*
X58962481Y-38761015D01*
X58823100Y-38854147D01*
X58668228Y-38918297D01*
X58503816Y-38951000D01*
X58336184Y-38951000D01*
X58171772Y-38918297D01*
X58016900Y-38854147D01*
X57877519Y-38761015D01*
X57758985Y-38642481D01*
X57665853Y-38503100D01*
X57601703Y-38348228D01*
X57569000Y-38183816D01*
X57569000Y-38016184D01*
X57601703Y-37851772D01*
X57665853Y-37696900D01*
X57758985Y-37557519D01*
X57877519Y-37438985D01*
X58016900Y-37345853D01*
X58171772Y-37281703D01*
X58336184Y-37249000D01*
X58503816Y-37249000D01*
X58668228Y-37281703D01*
G37*
G36*
X78988228Y-36011703D02*
G01*
X79143100Y-36075853D01*
X79282481Y-36168985D01*
X79401015Y-36287519D01*
X79494147Y-36426900D01*
X79558297Y-36581772D01*
X79591000Y-36746184D01*
X79591000Y-36913816D01*
X79558297Y-37078228D01*
X79494147Y-37233100D01*
X79401015Y-37372481D01*
X79282481Y-37491015D01*
X79143100Y-37584147D01*
X78988228Y-37648297D01*
X78823816Y-37681000D01*
X78656184Y-37681000D01*
X78491772Y-37648297D01*
X78336900Y-37584147D01*
X78197519Y-37491015D01*
X78078985Y-37372481D01*
X77985853Y-37233100D01*
X77921703Y-37078228D01*
X77889000Y-36913816D01*
X77889000Y-36746184D01*
X77921703Y-36581772D01*
X77985853Y-36426900D01*
X78078985Y-36287519D01*
X78197519Y-36168985D01*
X78336900Y-36075853D01*
X78491772Y-36011703D01*
X78656184Y-35979000D01*
X78823816Y-35979000D01*
X78988228Y-36011703D01*
G37*
M02*
