M48
; DRILL file {KiCad (5.1.5)-3} date 19/12/2022 02:04:33
; FORMAT={-:-/ absolute / metric / decimal}
; #@! TF.CreationDate,2022-12-19T02:04:33+02:00
; #@! TF.GenerationSoftware,Kicad,Pcbnew,(5.1.5)-3
; #@! TF.FileFunction,Plated,1,2,PTH
FMAT,2
METRIC
T1C0.800
T2C0.900
T3C1.000
T4C1.100
T5C3.000
%
G90
G05
T1
X60.325Y-76.2
X61.75Y-93.98
X63.5Y-88.9
X64.164Y-84.426
X64.477Y-98.287
X65.25Y-93.98
X80.01Y-91.44
X80.01Y-96.52
X83.058Y-102.768
X83.185Y-100.33
X88.9Y-69.85
X88.9Y-72.39
X95.25Y-82.55
X95.33Y-85.09
X98.425Y-97.79
X98.425Y-100.33
X105.41Y-69.84
X105.41Y-74.93
X113.03Y-110.49
X113.03Y-113.03
X113.031Y-107.951
X115.57Y-45.72
X115.57Y-48.26
X78.74Y-48.895
X78.74Y-56.515
X78.74Y-36.83
X78.74Y-44.45
X58.42Y-38.1
X58.42Y-45.72
X86.36Y-69.85
X86.36Y-72.39
X86.36Y-74.93
X86.36Y-77.47
X86.36Y-80.01
X86.36Y-82.55
X86.36Y-85.09
X86.36Y-87.63
X86.36Y-90.17
X86.36Y-92.71
X86.36Y-95.25
X86.36Y-97.79
X86.36Y-100.33
X86.36Y-102.87
X86.36Y-105.41
X101.6Y-69.85
X101.6Y-72.39
X101.6Y-74.93
X101.6Y-77.47
X101.6Y-80.01
X101.6Y-82.55
X101.6Y-85.09
X101.6Y-87.63
X101.6Y-90.17
X101.6Y-92.71
X101.6Y-95.25
X101.6Y-97.79
X101.6Y-100.33
X101.6Y-102.87
X101.6Y-105.41
X73.025Y-62.865
X73.025Y-70.485
X56.515Y-55.88
X64.135Y-55.88
X67.31Y-86.36
X67.31Y-88.9
X67.31Y-91.44
X67.31Y-93.98
X67.31Y-96.52
X67.31Y-99.06
X77.47Y-86.36
X77.47Y-88.9
X77.47Y-91.44
X77.47Y-93.98
X77.47Y-96.52
X77.47Y-99.06
T2
X67.31Y-81.915
X77.47Y-81.915
T3
X119.38Y-45.72
X119.38Y-48.26
X119.38Y-50.8
X119.38Y-53.34
X55.118Y-82.55
X55.118Y-85.09
X55.118Y-87.63
X55.118Y-90.17
X55.118Y-92.71
X55.118Y-95.25
X55.118Y-97.79
X55.118Y-100.33
X59.69Y-82.55
X59.69Y-85.09
X59.69Y-87.63
X59.69Y-90.17
X59.69Y-92.71
X59.69Y-95.25
X59.69Y-97.79
X59.69Y-100.33
X116.84Y-67.31
X116.84Y-69.85
X116.84Y-72.39
X116.84Y-74.93
X116.84Y-77.47
X116.84Y-80.01
X116.84Y-82.55
X116.84Y-85.09
X116.84Y-87.63
X116.84Y-90.17
X116.84Y-92.71
X116.84Y-95.25
X116.84Y-97.79
X116.84Y-100.33
X116.84Y-102.87
X116.84Y-105.41
X116.84Y-107.95
X116.84Y-110.49
X119.38Y-67.31
X119.38Y-69.85
X119.38Y-72.39
X119.38Y-74.93
X119.38Y-77.47
X119.38Y-80.01
X119.38Y-82.55
X119.38Y-85.09
X119.38Y-87.63
X119.38Y-90.17
X119.38Y-92.71
X119.38Y-95.25
X119.38Y-97.79
X119.38Y-100.33
X119.38Y-102.87
X119.38Y-105.41
X119.38Y-107.95
X119.38Y-110.49
T4
X64.135Y-58.42
X64.135Y-62.92
X70.635Y-58.42
X70.635Y-62.92
X64.135Y-39.37
X64.135Y-43.87
X70.635Y-39.37
X70.635Y-43.87
X58.42Y-48.84
X58.42Y-53.34
X64.92Y-48.84
X64.92Y-53.34
X64.135Y-71.755
X64.135Y-76.255
X70.635Y-71.755
X70.635Y-76.255
X69.85Y-48.84
X69.85Y-53.34
X76.35Y-48.84
X76.35Y-53.34
T5
X109.62Y-67.31
X59.29Y-67.31
X84.455Y-111.125
T0
M30
