G04 #@! TF.GenerationSoftware,KiCad,Pcbnew,(5.1.5)-3*
G04 #@! TF.CreationDate,2020-04-28T03:57:39+03:00*
G04 #@! TF.ProjectId,arduino-fanatec-pcb,61726475-696e-46f2-9d66-616e61746563,rev?*
G04 #@! TF.SameCoordinates,Original*
G04 #@! TF.FileFunction,Legend,Top*
G04 #@! TF.FilePolarity,Positive*
%FSLAX46Y46*%
G04 Gerber Fmt 4.6, Leading zero omitted, Abs format (unit mm)*
G04 Created by KiCad (PCBNEW (5.1.5)-3) date 2020-04-28 03:57:39*
%MOMM*%
%LPD*%
G04 APERTURE LIST*
%ADD10C,0.120000*%
%ADD11C,0.150000*%
G04 APERTURE END LIST*
D10*
X80010000Y-62230000D02*
X121920000Y-62230000D01*
X80010000Y-36830000D02*
X80010000Y-62230000D01*
X121920000Y-36830000D02*
X80010000Y-36830000D01*
X121920000Y-62230000D02*
X121920000Y-36830000D01*
X103000000Y-65910000D02*
X84960000Y-65910000D01*
X103000000Y-109350000D02*
X103000000Y-65910000D01*
X84960000Y-109350000D02*
X103000000Y-109350000D01*
X87630000Y-106680000D02*
X84960000Y-106680000D01*
X87630000Y-71120000D02*
X87630000Y-106680000D01*
X87630000Y-71120000D02*
X84960000Y-71120000D01*
X100330000Y-106680000D02*
X103000000Y-106680000D01*
X100330000Y-68580000D02*
X100330000Y-106680000D01*
X100330000Y-68580000D02*
X103000000Y-68580000D01*
X84960000Y-65910000D02*
X84960000Y-68580000D01*
X84960000Y-71120000D02*
X84960000Y-109350000D01*
X87630000Y-68580000D02*
X84960000Y-68580000D01*
X87630000Y-71120000D02*
X87630000Y-68580000D01*
X120710000Y-111820000D02*
X118110000Y-111820000D01*
X120710000Y-111820000D02*
X120710000Y-65980000D01*
X120710000Y-65980000D02*
X115510000Y-65980000D01*
X115510000Y-109220000D02*
X115510000Y-65980000D01*
X118110000Y-109220000D02*
X115510000Y-109220000D01*
X118110000Y-111820000D02*
X118110000Y-109220000D01*
X115510000Y-111820000D02*
X115510000Y-110490000D01*
X116840000Y-111820000D02*
X115510000Y-111820000D01*
X75625000Y-85030000D02*
X73390000Y-85030000D01*
X75625000Y-100390000D02*
X75625000Y-85030000D01*
X69155000Y-100390000D02*
X75625000Y-100390000D01*
X69155000Y-85030000D02*
X69155000Y-100390000D01*
X71390000Y-85030000D02*
X69155000Y-85030000D01*
X73390000Y-85030000D02*
G75*
G02X71390000Y-85030000I-1000000J0D01*
G01*
X53788000Y-81220000D02*
X55118000Y-81220000D01*
X53788000Y-82550000D02*
X53788000Y-81220000D01*
X53788000Y-83820000D02*
X56448000Y-83820000D01*
X56448000Y-83820000D02*
X56448000Y-101660000D01*
X53788000Y-83820000D02*
X53788000Y-101660000D01*
X53788000Y-101660000D02*
X56448000Y-101660000D01*
X58405000Y-54960000D02*
X58405000Y-56800000D01*
X58405000Y-56800000D02*
X62245000Y-56800000D01*
X62245000Y-56800000D02*
X62245000Y-54960000D01*
X62245000Y-54960000D02*
X58405000Y-54960000D01*
X57455000Y-55880000D02*
X58405000Y-55880000D01*
X63195000Y-55880000D02*
X62245000Y-55880000D01*
X73025000Y-69545000D02*
X73025000Y-68595000D01*
X73025000Y-63805000D02*
X73025000Y-64755000D01*
X73945000Y-68595000D02*
X73945000Y-64755000D01*
X72105000Y-68595000D02*
X73945000Y-68595000D01*
X72105000Y-64755000D02*
X72105000Y-68595000D01*
X73945000Y-64755000D02*
X72105000Y-64755000D01*
X78740000Y-49835000D02*
X78740000Y-50785000D01*
X78740000Y-55575000D02*
X78740000Y-54625000D01*
X77820000Y-50785000D02*
X77820000Y-54625000D01*
X79660000Y-50785000D02*
X77820000Y-50785000D01*
X79660000Y-54625000D02*
X79660000Y-50785000D01*
X77820000Y-54625000D02*
X79660000Y-54625000D01*
X58420000Y-44780000D02*
X58420000Y-43830000D01*
X58420000Y-39040000D02*
X58420000Y-39990000D01*
X59340000Y-43830000D02*
X59340000Y-39990000D01*
X57500000Y-43830000D02*
X59340000Y-43830000D01*
X57500000Y-39990000D02*
X57500000Y-43830000D01*
X59340000Y-39990000D02*
X57500000Y-39990000D01*
X78740000Y-37770000D02*
X78740000Y-38720000D01*
X78740000Y-43510000D02*
X78740000Y-42560000D01*
X77820000Y-38720000D02*
X77820000Y-42560000D01*
X79660000Y-38720000D02*
X77820000Y-38720000D01*
X79660000Y-42560000D02*
X79660000Y-38720000D01*
X77820000Y-42560000D02*
X79660000Y-42560000D01*
X70885000Y-74755000D02*
X70885000Y-73255000D01*
X69635000Y-70755000D02*
X65135000Y-70755000D01*
X63885000Y-73255000D02*
X63885000Y-74755000D01*
X65135000Y-77255000D02*
X69635000Y-77255000D01*
X70885000Y-61420000D02*
X70885000Y-59920000D01*
X69635000Y-57420000D02*
X65135000Y-57420000D01*
X63885000Y-59920000D02*
X63885000Y-61420000D01*
X65135000Y-63920000D02*
X69635000Y-63920000D01*
X76600000Y-51840000D02*
X76600000Y-50340000D01*
X75350000Y-47840000D02*
X70850000Y-47840000D01*
X69600000Y-50340000D02*
X69600000Y-51840000D01*
X70850000Y-54340000D02*
X75350000Y-54340000D01*
X65170000Y-51840000D02*
X65170000Y-50340000D01*
X63920000Y-47840000D02*
X59420000Y-47840000D01*
X58170000Y-50340000D02*
X58170000Y-51840000D01*
X59420000Y-54340000D02*
X63920000Y-54340000D01*
X70885000Y-42370000D02*
X70885000Y-40870000D01*
X69635000Y-38370000D02*
X65135000Y-38370000D01*
X63885000Y-40870000D02*
X63885000Y-42370000D01*
X65135000Y-44870000D02*
X69635000Y-44870000D01*
X118050000Y-44390000D02*
X119380000Y-44390000D01*
X118050000Y-45720000D02*
X118050000Y-44390000D01*
X118050000Y-46990000D02*
X120710000Y-46990000D01*
X120710000Y-46990000D02*
X120710000Y-54670000D01*
X118050000Y-46990000D02*
X118050000Y-54670000D01*
X118050000Y-54670000D02*
X120710000Y-54670000D01*
X74330000Y-83385000D02*
X74330000Y-80445000D01*
X74090000Y-83385000D02*
X74090000Y-80445000D01*
X74210000Y-83385000D02*
X74210000Y-80445000D01*
X68450000Y-81915000D02*
X69670000Y-81915000D01*
X76330000Y-81915000D02*
X75110000Y-81915000D01*
X69670000Y-83385000D02*
X75110000Y-83385000D01*
X69670000Y-80445000D02*
X69670000Y-83385000D01*
X75110000Y-80445000D02*
X69670000Y-80445000D01*
X75110000Y-83385000D02*
X75110000Y-80445000D01*
X58360000Y-81220000D02*
X59690000Y-81220000D01*
X58360000Y-82550000D02*
X58360000Y-81220000D01*
X58360000Y-83820000D02*
X61020000Y-83820000D01*
X61020000Y-83820000D02*
X61020000Y-101660000D01*
X58360000Y-83820000D02*
X58360000Y-101660000D01*
X58360000Y-101660000D02*
X61020000Y-101660000D01*
D11*
X93265714Y-64936666D02*
X93741904Y-64936666D01*
X93170476Y-65222380D02*
X93503809Y-64222380D01*
X93837142Y-65222380D01*
X94694285Y-65222380D02*
X94122857Y-65222380D01*
X94408571Y-65222380D02*
X94408571Y-64222380D01*
X94313333Y-64365238D01*
X94218095Y-64460476D01*
X94122857Y-64508095D01*
X117776666Y-112712380D02*
X117776666Y-113426666D01*
X117729047Y-113569523D01*
X117633809Y-113664761D01*
X117490952Y-113712380D01*
X117395714Y-113712380D01*
X118157619Y-112712380D02*
X118776666Y-112712380D01*
X118443333Y-113093333D01*
X118586190Y-113093333D01*
X118681428Y-113140952D01*
X118729047Y-113188571D01*
X118776666Y-113283809D01*
X118776666Y-113521904D01*
X118729047Y-113617142D01*
X118681428Y-113664761D01*
X118586190Y-113712380D01*
X118300476Y-113712380D01*
X118205238Y-113664761D01*
X118157619Y-113617142D01*
X71628095Y-83482380D02*
X71628095Y-84291904D01*
X71675714Y-84387142D01*
X71723333Y-84434761D01*
X71818571Y-84482380D01*
X72009047Y-84482380D01*
X72104285Y-84434761D01*
X72151904Y-84387142D01*
X72199523Y-84291904D01*
X72199523Y-83482380D01*
X73199523Y-84482380D02*
X72628095Y-84482380D01*
X72913809Y-84482380D02*
X72913809Y-83482380D01*
X72818571Y-83625238D01*
X72723333Y-83720476D01*
X72628095Y-83768095D01*
X54070380Y-79672380D02*
X54070380Y-80386666D01*
X54022761Y-80529523D01*
X53927523Y-80624761D01*
X53784666Y-80672380D01*
X53689428Y-80672380D01*
X55070380Y-80672380D02*
X54498952Y-80672380D01*
X54784666Y-80672380D02*
X54784666Y-79672380D01*
X54689428Y-79815238D01*
X54594190Y-79910476D01*
X54498952Y-79958095D01*
X55498952Y-80577142D02*
X55546571Y-80624761D01*
X55498952Y-80672380D01*
X55451333Y-80624761D01*
X55498952Y-80577142D01*
X55498952Y-80672380D01*
X55927523Y-79767619D02*
X55975142Y-79720000D01*
X56070380Y-79672380D01*
X56308476Y-79672380D01*
X56403714Y-79720000D01*
X56451333Y-79767619D01*
X56498952Y-79862857D01*
X56498952Y-79958095D01*
X56451333Y-80100952D01*
X55879904Y-80672380D01*
X56498952Y-80672380D01*
X83693095Y-107577380D02*
X83693095Y-106577380D01*
X83693095Y-107053571D02*
X84264523Y-107053571D01*
X84264523Y-107577380D02*
X84264523Y-106577380D01*
X85264523Y-107577380D02*
X84693095Y-107577380D01*
X84978809Y-107577380D02*
X84978809Y-106577380D01*
X84883571Y-106720238D01*
X84788333Y-106815476D01*
X84693095Y-106863095D01*
X60158333Y-54412380D02*
X59825000Y-53936190D01*
X59586904Y-54412380D02*
X59586904Y-53412380D01*
X59967857Y-53412380D01*
X60063095Y-53460000D01*
X60110714Y-53507619D01*
X60158333Y-53602857D01*
X60158333Y-53745714D01*
X60110714Y-53840952D01*
X60063095Y-53888571D01*
X59967857Y-53936190D01*
X59586904Y-53936190D01*
X61110714Y-54412380D02*
X60539285Y-54412380D01*
X60825000Y-54412380D02*
X60825000Y-53412380D01*
X60729761Y-53555238D01*
X60634523Y-53650476D01*
X60539285Y-53698095D01*
X75397380Y-66841666D02*
X74921190Y-67175000D01*
X75397380Y-67413095D02*
X74397380Y-67413095D01*
X74397380Y-67032142D01*
X74445000Y-66936904D01*
X74492619Y-66889285D01*
X74587857Y-66841666D01*
X74730714Y-66841666D01*
X74825952Y-66889285D01*
X74873571Y-66936904D01*
X74921190Y-67032142D01*
X74921190Y-67413095D01*
X74397380Y-65936904D02*
X74397380Y-66413095D01*
X74873571Y-66460714D01*
X74825952Y-66413095D01*
X74778333Y-66317857D01*
X74778333Y-66079761D01*
X74825952Y-65984523D01*
X74873571Y-65936904D01*
X74968809Y-65889285D01*
X75206904Y-65889285D01*
X75302142Y-65936904D01*
X75349761Y-65984523D01*
X75397380Y-66079761D01*
X75397380Y-66317857D01*
X75349761Y-66413095D01*
X75302142Y-66460714D01*
X77272380Y-52871666D02*
X76796190Y-53205000D01*
X77272380Y-53443095D02*
X76272380Y-53443095D01*
X76272380Y-53062142D01*
X76320000Y-52966904D01*
X76367619Y-52919285D01*
X76462857Y-52871666D01*
X76605714Y-52871666D01*
X76700952Y-52919285D01*
X76748571Y-52966904D01*
X76796190Y-53062142D01*
X76796190Y-53443095D01*
X76605714Y-52014523D02*
X77272380Y-52014523D01*
X76224761Y-52252619D02*
X76939047Y-52490714D01*
X76939047Y-51871666D01*
X60792380Y-42076666D02*
X60316190Y-42410000D01*
X60792380Y-42648095D02*
X59792380Y-42648095D01*
X59792380Y-42267142D01*
X59840000Y-42171904D01*
X59887619Y-42124285D01*
X59982857Y-42076666D01*
X60125714Y-42076666D01*
X60220952Y-42124285D01*
X60268571Y-42171904D01*
X60316190Y-42267142D01*
X60316190Y-42648095D01*
X59792380Y-41743333D02*
X59792380Y-41124285D01*
X60173333Y-41457619D01*
X60173333Y-41314761D01*
X60220952Y-41219523D01*
X60268571Y-41171904D01*
X60363809Y-41124285D01*
X60601904Y-41124285D01*
X60697142Y-41171904D01*
X60744761Y-41219523D01*
X60792380Y-41314761D01*
X60792380Y-41600476D01*
X60744761Y-41695714D01*
X60697142Y-41743333D01*
X77272380Y-40806666D02*
X76796190Y-41140000D01*
X77272380Y-41378095D02*
X76272380Y-41378095D01*
X76272380Y-40997142D01*
X76320000Y-40901904D01*
X76367619Y-40854285D01*
X76462857Y-40806666D01*
X76605714Y-40806666D01*
X76700952Y-40854285D01*
X76748571Y-40901904D01*
X76796190Y-40997142D01*
X76796190Y-41378095D01*
X76367619Y-40425714D02*
X76320000Y-40378095D01*
X76272380Y-40282857D01*
X76272380Y-40044761D01*
X76320000Y-39949523D01*
X76367619Y-39901904D01*
X76462857Y-39854285D01*
X76558095Y-39854285D01*
X76700952Y-39901904D01*
X77272380Y-40473333D01*
X77272380Y-39854285D01*
X65242142Y-70207380D02*
X65242142Y-69207380D01*
X65575476Y-69921666D01*
X65908809Y-69207380D01*
X65908809Y-70207380D01*
X66765952Y-70159761D02*
X66670714Y-70207380D01*
X66480238Y-70207380D01*
X66385000Y-70159761D01*
X66337380Y-70064523D01*
X66337380Y-69683571D01*
X66385000Y-69588333D01*
X66480238Y-69540714D01*
X66670714Y-69540714D01*
X66765952Y-69588333D01*
X66813571Y-69683571D01*
X66813571Y-69778809D01*
X66337380Y-69874047D01*
X67242142Y-69540714D02*
X67242142Y-70207380D01*
X67242142Y-69635952D02*
X67289761Y-69588333D01*
X67385000Y-69540714D01*
X67527857Y-69540714D01*
X67623095Y-69588333D01*
X67670714Y-69683571D01*
X67670714Y-70207380D01*
X68575476Y-69540714D02*
X68575476Y-70207380D01*
X68146904Y-69540714D02*
X68146904Y-70064523D01*
X68194523Y-70159761D01*
X68289761Y-70207380D01*
X68432619Y-70207380D01*
X68527857Y-70159761D01*
X68575476Y-70112142D01*
X69575476Y-70207380D02*
X69004047Y-70207380D01*
X69289761Y-70207380D02*
X69289761Y-69207380D01*
X69194523Y-69350238D01*
X69099285Y-69445476D01*
X69004047Y-69493095D01*
X63361190Y-56872380D02*
X63361190Y-55872380D01*
X63599285Y-55872380D01*
X63742142Y-55920000D01*
X63837380Y-56015238D01*
X63885000Y-56110476D01*
X63932619Y-56300952D01*
X63932619Y-56443809D01*
X63885000Y-56634285D01*
X63837380Y-56729523D01*
X63742142Y-56824761D01*
X63599285Y-56872380D01*
X63361190Y-56872380D01*
X64361190Y-56205714D02*
X64361190Y-57205714D01*
X64361190Y-56253333D02*
X64456428Y-56205714D01*
X64646904Y-56205714D01*
X64742142Y-56253333D01*
X64789761Y-56300952D01*
X64837380Y-56396190D01*
X64837380Y-56681904D01*
X64789761Y-56777142D01*
X64742142Y-56824761D01*
X64646904Y-56872380D01*
X64456428Y-56872380D01*
X64361190Y-56824761D01*
X65694523Y-56872380D02*
X65694523Y-56348571D01*
X65646904Y-56253333D01*
X65551666Y-56205714D01*
X65361190Y-56205714D01*
X65265952Y-56253333D01*
X65694523Y-56824761D02*
X65599285Y-56872380D01*
X65361190Y-56872380D01*
X65265952Y-56824761D01*
X65218333Y-56729523D01*
X65218333Y-56634285D01*
X65265952Y-56539047D01*
X65361190Y-56491428D01*
X65599285Y-56491428D01*
X65694523Y-56443809D01*
X66599285Y-56872380D02*
X66599285Y-55872380D01*
X66599285Y-56824761D02*
X66504047Y-56872380D01*
X66313571Y-56872380D01*
X66218333Y-56824761D01*
X66170714Y-56777142D01*
X66123095Y-56681904D01*
X66123095Y-56396190D01*
X66170714Y-56300952D01*
X66218333Y-56253333D01*
X66313571Y-56205714D01*
X66504047Y-56205714D01*
X66599285Y-56253333D01*
X67075476Y-56872380D02*
X67075476Y-55872380D01*
X67313571Y-55872380D01*
X67456428Y-55920000D01*
X67551666Y-56015238D01*
X67599285Y-56110476D01*
X67646904Y-56300952D01*
X67646904Y-56443809D01*
X67599285Y-56634285D01*
X67551666Y-56729523D01*
X67456428Y-56824761D01*
X67313571Y-56872380D01*
X67075476Y-56872380D01*
X68218333Y-56872380D02*
X68123095Y-56824761D01*
X68075476Y-56777142D01*
X68027857Y-56681904D01*
X68027857Y-56396190D01*
X68075476Y-56300952D01*
X68123095Y-56253333D01*
X68218333Y-56205714D01*
X68361190Y-56205714D01*
X68456428Y-56253333D01*
X68504047Y-56300952D01*
X68551666Y-56396190D01*
X68551666Y-56681904D01*
X68504047Y-56777142D01*
X68456428Y-56824761D01*
X68361190Y-56872380D01*
X68218333Y-56872380D01*
X68885000Y-56205714D02*
X69075476Y-56872380D01*
X69265952Y-56396190D01*
X69456428Y-56872380D01*
X69646904Y-56205714D01*
X70027857Y-56205714D02*
X70027857Y-56872380D01*
X70027857Y-56300952D02*
X70075476Y-56253333D01*
X70170714Y-56205714D01*
X70313571Y-56205714D01*
X70408809Y-56253333D01*
X70456428Y-56348571D01*
X70456428Y-56872380D01*
X71456428Y-56872380D02*
X70885000Y-56872380D01*
X71170714Y-56872380D02*
X71170714Y-55872380D01*
X71075476Y-56015238D01*
X70980238Y-56110476D01*
X70885000Y-56158095D01*
X69076190Y-47292380D02*
X69076190Y-46292380D01*
X69314285Y-46292380D01*
X69457142Y-46340000D01*
X69552380Y-46435238D01*
X69600000Y-46530476D01*
X69647619Y-46720952D01*
X69647619Y-46863809D01*
X69600000Y-47054285D01*
X69552380Y-47149523D01*
X69457142Y-47244761D01*
X69314285Y-47292380D01*
X69076190Y-47292380D01*
X70076190Y-46625714D02*
X70076190Y-47625714D01*
X70076190Y-46673333D02*
X70171428Y-46625714D01*
X70361904Y-46625714D01*
X70457142Y-46673333D01*
X70504761Y-46720952D01*
X70552380Y-46816190D01*
X70552380Y-47101904D01*
X70504761Y-47197142D01*
X70457142Y-47244761D01*
X70361904Y-47292380D01*
X70171428Y-47292380D01*
X70076190Y-47244761D01*
X71409523Y-47292380D02*
X71409523Y-46768571D01*
X71361904Y-46673333D01*
X71266666Y-46625714D01*
X71076190Y-46625714D01*
X70980952Y-46673333D01*
X71409523Y-47244761D02*
X71314285Y-47292380D01*
X71076190Y-47292380D01*
X70980952Y-47244761D01*
X70933333Y-47149523D01*
X70933333Y-47054285D01*
X70980952Y-46959047D01*
X71076190Y-46911428D01*
X71314285Y-46911428D01*
X71409523Y-46863809D01*
X72314285Y-47292380D02*
X72314285Y-46292380D01*
X72314285Y-47244761D02*
X72219047Y-47292380D01*
X72028571Y-47292380D01*
X71933333Y-47244761D01*
X71885714Y-47197142D01*
X71838095Y-47101904D01*
X71838095Y-46816190D01*
X71885714Y-46720952D01*
X71933333Y-46673333D01*
X72028571Y-46625714D01*
X72219047Y-46625714D01*
X72314285Y-46673333D01*
X73361904Y-47292380D02*
X73028571Y-46816190D01*
X72790476Y-47292380D02*
X72790476Y-46292380D01*
X73171428Y-46292380D01*
X73266666Y-46340000D01*
X73314285Y-46387619D01*
X73361904Y-46482857D01*
X73361904Y-46625714D01*
X73314285Y-46720952D01*
X73266666Y-46768571D01*
X73171428Y-46816190D01*
X72790476Y-46816190D01*
X73790476Y-47292380D02*
X73790476Y-46625714D01*
X73790476Y-46292380D02*
X73742857Y-46340000D01*
X73790476Y-46387619D01*
X73838095Y-46340000D01*
X73790476Y-46292380D01*
X73790476Y-46387619D01*
X74695238Y-46625714D02*
X74695238Y-47435238D01*
X74647619Y-47530476D01*
X74600000Y-47578095D01*
X74504761Y-47625714D01*
X74361904Y-47625714D01*
X74266666Y-47578095D01*
X74695238Y-47244761D02*
X74600000Y-47292380D01*
X74409523Y-47292380D01*
X74314285Y-47244761D01*
X74266666Y-47197142D01*
X74219047Y-47101904D01*
X74219047Y-46816190D01*
X74266666Y-46720952D01*
X74314285Y-46673333D01*
X74409523Y-46625714D01*
X74600000Y-46625714D01*
X74695238Y-46673333D01*
X75171428Y-47292380D02*
X75171428Y-46292380D01*
X75600000Y-47292380D02*
X75600000Y-46768571D01*
X75552380Y-46673333D01*
X75457142Y-46625714D01*
X75314285Y-46625714D01*
X75219047Y-46673333D01*
X75171428Y-46720952D01*
X75933333Y-46625714D02*
X76314285Y-46625714D01*
X76076190Y-46292380D02*
X76076190Y-47149523D01*
X76123809Y-47244761D01*
X76219047Y-47292380D01*
X76314285Y-47292380D01*
X77171428Y-47292380D02*
X76600000Y-47292380D01*
X76885714Y-47292380D02*
X76885714Y-46292380D01*
X76790476Y-46435238D01*
X76695238Y-46530476D01*
X76600000Y-46578095D01*
X58170000Y-47292380D02*
X58170000Y-46292380D01*
X58408095Y-46292380D01*
X58550952Y-46340000D01*
X58646190Y-46435238D01*
X58693809Y-46530476D01*
X58741428Y-46720952D01*
X58741428Y-46863809D01*
X58693809Y-47054285D01*
X58646190Y-47149523D01*
X58550952Y-47244761D01*
X58408095Y-47292380D01*
X58170000Y-47292380D01*
X59170000Y-46625714D02*
X59170000Y-47625714D01*
X59170000Y-46673333D02*
X59265238Y-46625714D01*
X59455714Y-46625714D01*
X59550952Y-46673333D01*
X59598571Y-46720952D01*
X59646190Y-46816190D01*
X59646190Y-47101904D01*
X59598571Y-47197142D01*
X59550952Y-47244761D01*
X59455714Y-47292380D01*
X59265238Y-47292380D01*
X59170000Y-47244761D01*
X60503333Y-47292380D02*
X60503333Y-46768571D01*
X60455714Y-46673333D01*
X60360476Y-46625714D01*
X60170000Y-46625714D01*
X60074761Y-46673333D01*
X60503333Y-47244761D02*
X60408095Y-47292380D01*
X60170000Y-47292380D01*
X60074761Y-47244761D01*
X60027142Y-47149523D01*
X60027142Y-47054285D01*
X60074761Y-46959047D01*
X60170000Y-46911428D01*
X60408095Y-46911428D01*
X60503333Y-46863809D01*
X61408095Y-47292380D02*
X61408095Y-46292380D01*
X61408095Y-47244761D02*
X61312857Y-47292380D01*
X61122380Y-47292380D01*
X61027142Y-47244761D01*
X60979523Y-47197142D01*
X60931904Y-47101904D01*
X60931904Y-46816190D01*
X60979523Y-46720952D01*
X61027142Y-46673333D01*
X61122380Y-46625714D01*
X61312857Y-46625714D01*
X61408095Y-46673333D01*
X62360476Y-47292380D02*
X61884285Y-47292380D01*
X61884285Y-46292380D01*
X63074761Y-47244761D02*
X62979523Y-47292380D01*
X62789047Y-47292380D01*
X62693809Y-47244761D01*
X62646190Y-47149523D01*
X62646190Y-46768571D01*
X62693809Y-46673333D01*
X62789047Y-46625714D01*
X62979523Y-46625714D01*
X63074761Y-46673333D01*
X63122380Y-46768571D01*
X63122380Y-46863809D01*
X62646190Y-46959047D01*
X63408095Y-46625714D02*
X63789047Y-46625714D01*
X63550952Y-47292380D02*
X63550952Y-46435238D01*
X63598571Y-46340000D01*
X63693809Y-46292380D01*
X63789047Y-46292380D01*
X63979523Y-46625714D02*
X64360476Y-46625714D01*
X64122380Y-46292380D02*
X64122380Y-47149523D01*
X64170000Y-47244761D01*
X64265238Y-47292380D01*
X64360476Y-47292380D01*
X65217619Y-47292380D02*
X64646190Y-47292380D01*
X64931904Y-47292380D02*
X64931904Y-46292380D01*
X64836666Y-46435238D01*
X64741428Y-46530476D01*
X64646190Y-46578095D01*
X64313571Y-37822380D02*
X64313571Y-36822380D01*
X64551666Y-36822380D01*
X64694523Y-36870000D01*
X64789761Y-36965238D01*
X64837380Y-37060476D01*
X64885000Y-37250952D01*
X64885000Y-37393809D01*
X64837380Y-37584285D01*
X64789761Y-37679523D01*
X64694523Y-37774761D01*
X64551666Y-37822380D01*
X64313571Y-37822380D01*
X65313571Y-37155714D02*
X65313571Y-38155714D01*
X65313571Y-37203333D02*
X65408809Y-37155714D01*
X65599285Y-37155714D01*
X65694523Y-37203333D01*
X65742142Y-37250952D01*
X65789761Y-37346190D01*
X65789761Y-37631904D01*
X65742142Y-37727142D01*
X65694523Y-37774761D01*
X65599285Y-37822380D01*
X65408809Y-37822380D01*
X65313571Y-37774761D01*
X66646904Y-37822380D02*
X66646904Y-37298571D01*
X66599285Y-37203333D01*
X66504047Y-37155714D01*
X66313571Y-37155714D01*
X66218333Y-37203333D01*
X66646904Y-37774761D02*
X66551666Y-37822380D01*
X66313571Y-37822380D01*
X66218333Y-37774761D01*
X66170714Y-37679523D01*
X66170714Y-37584285D01*
X66218333Y-37489047D01*
X66313571Y-37441428D01*
X66551666Y-37441428D01*
X66646904Y-37393809D01*
X67551666Y-37822380D02*
X67551666Y-36822380D01*
X67551666Y-37774761D02*
X67456428Y-37822380D01*
X67265952Y-37822380D01*
X67170714Y-37774761D01*
X67123095Y-37727142D01*
X67075476Y-37631904D01*
X67075476Y-37346190D01*
X67123095Y-37250952D01*
X67170714Y-37203333D01*
X67265952Y-37155714D01*
X67456428Y-37155714D01*
X67551666Y-37203333D01*
X68027857Y-36822380D02*
X68027857Y-37631904D01*
X68075476Y-37727142D01*
X68123095Y-37774761D01*
X68218333Y-37822380D01*
X68408809Y-37822380D01*
X68504047Y-37774761D01*
X68551666Y-37727142D01*
X68599285Y-37631904D01*
X68599285Y-36822380D01*
X69075476Y-37155714D02*
X69075476Y-38155714D01*
X69075476Y-37203333D02*
X69170714Y-37155714D01*
X69361190Y-37155714D01*
X69456428Y-37203333D01*
X69504047Y-37250952D01*
X69551666Y-37346190D01*
X69551666Y-37631904D01*
X69504047Y-37727142D01*
X69456428Y-37774761D01*
X69361190Y-37822380D01*
X69170714Y-37822380D01*
X69075476Y-37774761D01*
X70504047Y-37822380D02*
X69932619Y-37822380D01*
X70218333Y-37822380D02*
X70218333Y-36822380D01*
X70123095Y-36965238D01*
X70027857Y-37060476D01*
X69932619Y-37108095D01*
X123431666Y-42902380D02*
X123431666Y-43616666D01*
X123384047Y-43759523D01*
X123288809Y-43854761D01*
X123145952Y-43902380D01*
X123050714Y-43902380D01*
X123860238Y-42997619D02*
X123907857Y-42950000D01*
X124003095Y-42902380D01*
X124241190Y-42902380D01*
X124336428Y-42950000D01*
X124384047Y-42997619D01*
X124431666Y-43092857D01*
X124431666Y-43188095D01*
X124384047Y-43330952D01*
X123812619Y-43902380D01*
X124431666Y-43902380D01*
X108858095Y-63762380D02*
X108858095Y-62762380D01*
X108858095Y-63238571D02*
X109429523Y-63238571D01*
X109429523Y-63762380D02*
X109429523Y-62762380D01*
X110429523Y-63762380D02*
X109858095Y-63762380D01*
X110143809Y-63762380D02*
X110143809Y-62762380D01*
X110048571Y-62905238D01*
X109953333Y-63000476D01*
X109858095Y-63048095D01*
X58528095Y-63762380D02*
X58528095Y-62762380D01*
X58528095Y-63238571D02*
X59099523Y-63238571D01*
X59099523Y-63762380D02*
X59099523Y-62762380D01*
X60099523Y-63762380D02*
X59528095Y-63762380D01*
X59813809Y-63762380D02*
X59813809Y-62762380D01*
X59718571Y-62905238D01*
X59623333Y-63000476D01*
X59528095Y-63048095D01*
X70080476Y-85337380D02*
X70080476Y-84337380D01*
X70318571Y-84337380D01*
X70461428Y-84385000D01*
X70556666Y-84480238D01*
X70604285Y-84575476D01*
X70651904Y-84765952D01*
X70651904Y-84908809D01*
X70604285Y-85099285D01*
X70556666Y-85194523D01*
X70461428Y-85289761D01*
X70318571Y-85337380D01*
X70080476Y-85337380D01*
X71080476Y-85337380D02*
X71080476Y-84670714D01*
X71080476Y-84337380D02*
X71032857Y-84385000D01*
X71080476Y-84432619D01*
X71128095Y-84385000D01*
X71080476Y-84337380D01*
X71080476Y-84432619D01*
X71699523Y-85337380D02*
X71604285Y-85289761D01*
X71556666Y-85242142D01*
X71509047Y-85146904D01*
X71509047Y-84861190D01*
X71556666Y-84765952D01*
X71604285Y-84718333D01*
X71699523Y-84670714D01*
X71842380Y-84670714D01*
X71937619Y-84718333D01*
X71985238Y-84765952D01*
X72032857Y-84861190D01*
X72032857Y-85146904D01*
X71985238Y-85242142D01*
X71937619Y-85289761D01*
X71842380Y-85337380D01*
X71699523Y-85337380D01*
X72890000Y-85337380D02*
X72890000Y-84337380D01*
X72890000Y-85289761D02*
X72794761Y-85337380D01*
X72604285Y-85337380D01*
X72509047Y-85289761D01*
X72461428Y-85242142D01*
X72413809Y-85146904D01*
X72413809Y-84861190D01*
X72461428Y-84765952D01*
X72509047Y-84718333D01*
X72604285Y-84670714D01*
X72794761Y-84670714D01*
X72890000Y-84718333D01*
X73747142Y-85289761D02*
X73651904Y-85337380D01*
X73461428Y-85337380D01*
X73366190Y-85289761D01*
X73318571Y-85194523D01*
X73318571Y-84813571D01*
X73366190Y-84718333D01*
X73461428Y-84670714D01*
X73651904Y-84670714D01*
X73747142Y-84718333D01*
X73794761Y-84813571D01*
X73794761Y-84908809D01*
X73318571Y-85004047D01*
X74747142Y-85337380D02*
X74175714Y-85337380D01*
X74461428Y-85337380D02*
X74461428Y-84337380D01*
X74366190Y-84480238D01*
X74270952Y-84575476D01*
X74175714Y-84623095D01*
X59356666Y-79672380D02*
X59356666Y-80386666D01*
X59309047Y-80529523D01*
X59213809Y-80624761D01*
X59070952Y-80672380D01*
X58975714Y-80672380D01*
X60356666Y-80672380D02*
X59785238Y-80672380D01*
X60070952Y-80672380D02*
X60070952Y-79672380D01*
X59975714Y-79815238D01*
X59880476Y-79910476D01*
X59785238Y-79958095D01*
M02*
