G04 #@! TF.GenerationSoftware,KiCad,Pcbnew,(5.1.5)-3*
G04 #@! TF.CreationDate,2022-12-19T02:05:45+02:00*
G04 #@! TF.ProjectId,arduino-fanatec-pcb,61726475-696e-46f2-9d66-616e61746563,rev?*
G04 #@! TF.SameCoordinates,Original*
G04 #@! TF.FileFunction,Legend,Bot*
G04 #@! TF.FilePolarity,Positive*
%FSLAX46Y46*%
G04 Gerber Fmt 4.6, Leading zero omitted, Abs format (unit mm)*
G04 Created by KiCad (PCBNEW (5.1.5)-3) date 2022-12-19 02:05:45*
%MOMM*%
%LPD*%
G04 APERTURE LIST*
%ADD10O,1.702000X1.702000*%
%ADD11R,1.702000X1.702000*%
%ADD12R,1.802000X1.802000*%
%ADD13O,1.802000X1.802000*%
%ADD14C,6.102000*%
%ADD15C,2.102000*%
%ADD16O,1.902000X1.902000*%
%ADD17R,1.902000X1.902000*%
G04 APERTURE END LIST*
%LPC*%
D10*
X101600000Y-105410000D03*
X86360000Y-105410000D03*
X101600000Y-69850000D03*
X86360000Y-102870000D03*
X101600000Y-72390000D03*
X86360000Y-100330000D03*
X101600000Y-74930000D03*
X86360000Y-97790000D03*
X101600000Y-77470000D03*
X86360000Y-95250000D03*
X101600000Y-80010000D03*
X86360000Y-92710000D03*
X101600000Y-82550000D03*
X86360000Y-90170000D03*
X101600000Y-85090000D03*
X86360000Y-87630000D03*
X101600000Y-87630000D03*
X86360000Y-85090000D03*
X101600000Y-90170000D03*
X86360000Y-82550000D03*
X101600000Y-92710000D03*
X86360000Y-80010000D03*
X101600000Y-95250000D03*
X86360000Y-77470000D03*
X101600000Y-97790000D03*
X86360000Y-74930000D03*
X101600000Y-100330000D03*
X86360000Y-72390000D03*
X101600000Y-102870000D03*
D11*
X86360000Y-69850000D03*
D12*
X116840000Y-110490000D03*
D13*
X119380000Y-110490000D03*
X116840000Y-107950000D03*
X119380000Y-107950000D03*
X116840000Y-105410000D03*
X119380000Y-105410000D03*
X116840000Y-102870000D03*
X119380000Y-102870000D03*
X116840000Y-100330000D03*
X119380000Y-100330000D03*
X116840000Y-97790000D03*
X119380000Y-97790000D03*
X116840000Y-95250000D03*
X119380000Y-95250000D03*
X116840000Y-92710000D03*
X119380000Y-92710000D03*
X116840000Y-90170000D03*
X119380000Y-90170000D03*
X116840000Y-87630000D03*
X119380000Y-87630000D03*
X116840000Y-85090000D03*
X119380000Y-85090000D03*
X116840000Y-82550000D03*
X119380000Y-82550000D03*
X116840000Y-80010000D03*
X119380000Y-80010000D03*
X116840000Y-77470000D03*
X119380000Y-77470000D03*
X116840000Y-74930000D03*
X119380000Y-74930000D03*
X116840000Y-72390000D03*
X119380000Y-72390000D03*
X116840000Y-69850000D03*
X119380000Y-69850000D03*
X116840000Y-67310000D03*
X119380000Y-67310000D03*
D11*
X67310000Y-86360000D03*
D10*
X77470000Y-99060000D03*
X67310000Y-88900000D03*
X77470000Y-96520000D03*
X67310000Y-91440000D03*
X77470000Y-93980000D03*
X67310000Y-93980000D03*
X77470000Y-91440000D03*
X67310000Y-96520000D03*
X77470000Y-88900000D03*
X67310000Y-99060000D03*
X77470000Y-86360000D03*
D13*
X55118000Y-100330000D03*
X55118000Y-97790000D03*
X55118000Y-95250000D03*
X55118000Y-92710000D03*
X55118000Y-90170000D03*
X55118000Y-87630000D03*
X55118000Y-85090000D03*
D12*
X55118000Y-82550000D03*
D14*
X84455000Y-111125000D03*
D10*
X56515000Y-55880000D03*
X64135000Y-55880000D03*
X73025000Y-70485000D03*
X73025000Y-62865000D03*
X78740000Y-48895000D03*
X78740000Y-56515000D03*
X58420000Y-45720000D03*
X58420000Y-38100000D03*
X78740000Y-36830000D03*
X78740000Y-44450000D03*
D15*
X70635000Y-71755000D03*
X70635000Y-76255000D03*
X64135000Y-71755000D03*
X64135000Y-76255000D03*
X70635000Y-58420000D03*
X70635000Y-62920000D03*
X64135000Y-58420000D03*
X64135000Y-62920000D03*
X76350000Y-48840000D03*
X76350000Y-53340000D03*
X69850000Y-48840000D03*
X69850000Y-53340000D03*
X64920000Y-48840000D03*
X64920000Y-53340000D03*
X58420000Y-48840000D03*
X58420000Y-53340000D03*
X70635000Y-39370000D03*
X70635000Y-43870000D03*
X64135000Y-39370000D03*
X64135000Y-43870000D03*
D13*
X119380000Y-53340000D03*
X119380000Y-50800000D03*
X119380000Y-48260000D03*
D12*
X119380000Y-45720000D03*
D14*
X109620000Y-67310000D03*
X59290000Y-67310000D03*
D16*
X67310000Y-81915000D03*
D17*
X77470000Y-81915000D03*
D13*
X59690000Y-100330000D03*
X59690000Y-97790000D03*
X59690000Y-95250000D03*
X59690000Y-92710000D03*
X59690000Y-90170000D03*
X59690000Y-87630000D03*
X59690000Y-85090000D03*
D12*
X59690000Y-82550000D03*
M02*
