G04 #@! TF.GenerationSoftware,KiCad,Pcbnew,(5.1.4)-1*
G04 #@! TF.CreationDate,2020-03-18T16:22:38+02:00*
G04 #@! TF.ProjectId,arduino-fanatec-pcb,61726475-696e-46f2-9d66-616e61746563,rev?*
G04 #@! TF.SameCoordinates,Original*
G04 #@! TF.FileFunction,Copper,L2,Bot*
G04 #@! TF.FilePolarity,Positive*
%FSLAX46Y46*%
G04 Gerber Fmt 4.6, Leading zero omitted, Abs format (unit mm)*
G04 Created by KiCad (PCBNEW (5.1.4)-1) date 2020-03-18 16:22:38*
%MOMM*%
%LPD*%
G04 APERTURE LIST*
%ADD10R,1.700000X1.700000*%
%ADD11O,1.700000X1.700000*%
%ADD12C,6.000000*%
%ADD13R,1.600000X1.600000*%
%ADD14O,1.600000X1.600000*%
%ADD15C,2.000000*%
%ADD16O,1.800000X1.800000*%
%ADD17R,1.800000X1.800000*%
%ADD18C,1.600000*%
%ADD19C,0.700000*%
%ADD20C,0.250000*%
G04 APERTURE END LIST*
D10*
X116840000Y-110490000D03*
D11*
X119380000Y-110490000D03*
X116840000Y-107950000D03*
X119380000Y-107950000D03*
X116840000Y-105410000D03*
X119380000Y-105410000D03*
X116840000Y-102870000D03*
X119380000Y-102870000D03*
X116840000Y-100330000D03*
X119380000Y-100330000D03*
X116840000Y-97790000D03*
X119380000Y-97790000D03*
X116840000Y-95250000D03*
X119380000Y-95250000D03*
X116840000Y-92710000D03*
X119380000Y-92710000D03*
X116840000Y-90170000D03*
X119380000Y-90170000D03*
X116840000Y-87630000D03*
X119380000Y-87630000D03*
X116840000Y-85090000D03*
X119380000Y-85090000D03*
X116840000Y-82550000D03*
X119380000Y-82550000D03*
X116840000Y-80010000D03*
X119380000Y-80010000D03*
X116840000Y-77470000D03*
X119380000Y-77470000D03*
X116840000Y-74930000D03*
X119380000Y-74930000D03*
X116840000Y-72390000D03*
X119380000Y-72390000D03*
X116840000Y-69850000D03*
X119380000Y-69850000D03*
X116840000Y-67310000D03*
X119380000Y-67310000D03*
D12*
X84455000Y-111125000D03*
D13*
X86360000Y-69850000D03*
D14*
X101600000Y-102870000D03*
X86360000Y-72390000D03*
X101600000Y-100330000D03*
X86360000Y-74930000D03*
X101600000Y-97790000D03*
X86360000Y-77470000D03*
X101600000Y-95250000D03*
X86360000Y-80010000D03*
X101600000Y-92710000D03*
X86360000Y-82550000D03*
X101600000Y-90170000D03*
X86360000Y-85090000D03*
X101600000Y-87630000D03*
X86360000Y-87630000D03*
X101600000Y-85090000D03*
X86360000Y-90170000D03*
X101600000Y-82550000D03*
X86360000Y-92710000D03*
X101600000Y-80010000D03*
X86360000Y-95250000D03*
X101600000Y-77470000D03*
X86360000Y-97790000D03*
X101600000Y-74930000D03*
X86360000Y-100330000D03*
X101600000Y-72390000D03*
X86360000Y-102870000D03*
X101600000Y-69850000D03*
X86360000Y-105410000D03*
X101600000Y-105410000D03*
X56515000Y-55880000D03*
X64135000Y-55880000D03*
X73025000Y-70485000D03*
X73025000Y-62865000D03*
X78740000Y-48895000D03*
X78740000Y-56515000D03*
X58420000Y-45720000D03*
X58420000Y-38100000D03*
X78740000Y-36830000D03*
X78740000Y-44450000D03*
D15*
X70635000Y-71755000D03*
X70635000Y-76255000D03*
X64135000Y-71755000D03*
X64135000Y-76255000D03*
X70635000Y-58420000D03*
X70635000Y-62920000D03*
X64135000Y-58420000D03*
X64135000Y-62920000D03*
X76350000Y-48840000D03*
X76350000Y-53340000D03*
X69850000Y-48840000D03*
X69850000Y-53340000D03*
X64920000Y-48840000D03*
X64920000Y-53340000D03*
X58420000Y-48840000D03*
X58420000Y-53340000D03*
X70635000Y-39370000D03*
X70635000Y-43870000D03*
X64135000Y-39370000D03*
X64135000Y-43870000D03*
D11*
X119380000Y-53340000D03*
X119380000Y-50800000D03*
X119380000Y-48260000D03*
D10*
X119380000Y-45720000D03*
D14*
X77470000Y-86360000D03*
X67310000Y-99060000D03*
X77470000Y-88900000D03*
X67310000Y-96520000D03*
X77470000Y-91440000D03*
X67310000Y-93980000D03*
X77470000Y-93980000D03*
X67310000Y-91440000D03*
X77470000Y-96520000D03*
X67310000Y-88900000D03*
X77470000Y-99060000D03*
D13*
X67310000Y-86360000D03*
D12*
X109220000Y-67310000D03*
X59690000Y-67310000D03*
D16*
X67310000Y-81915000D03*
D17*
X77470000Y-81915000D03*
D11*
X59690000Y-100330000D03*
X59690000Y-97790000D03*
X59690000Y-95250000D03*
X59690000Y-92710000D03*
X59690000Y-90170000D03*
X59690000Y-87630000D03*
X59690000Y-85090000D03*
D10*
X59690000Y-82550000D03*
D18*
X98806000Y-105410000D03*
X78105000Y-107315004D03*
X80010000Y-96520000D03*
X83058000Y-102768400D03*
X61750000Y-93980000D03*
X65250000Y-93980000D03*
X64476878Y-98286878D03*
X63500000Y-88900000D03*
X98425000Y-100330000D03*
X64164438Y-84425562D03*
X105410000Y-74930000D03*
X105410000Y-69839991D03*
X113031397Y-107951397D03*
X89535000Y-85090000D03*
X115570000Y-48260000D03*
X89535000Y-82550000D03*
X115570000Y-45720000D03*
X113030000Y-113030000D03*
X88900000Y-72390000D03*
X113030000Y-110490000D03*
X88900000Y-69850000D03*
X60325000Y-76200000D03*
X98425000Y-97790000D03*
X83185000Y-100330006D03*
D19*
X101600000Y-105410000D02*
X98806000Y-105410000D01*
X74130001Y-89699999D02*
X74130001Y-103340005D01*
X77470000Y-86360000D02*
X74130001Y-89699999D01*
X77305001Y-106515005D02*
X78105000Y-107315004D01*
X74130001Y-103340005D02*
X77305001Y-106515005D01*
X75619999Y-99948001D02*
X81081998Y-105410000D01*
X75619999Y-90551999D02*
X75619999Y-99948001D01*
X77470000Y-88900000D02*
X77271998Y-88900000D01*
X77271998Y-88900000D02*
X75619999Y-90551999D01*
X81081998Y-105410000D02*
X86360000Y-105410000D01*
X83159600Y-102870000D02*
X83058000Y-102768400D01*
X86360000Y-102870000D02*
X83159600Y-102870000D01*
X80010000Y-96520000D02*
X80360755Y-96870755D01*
X80010000Y-96520000D02*
X77470000Y-96520000D01*
X116715998Y-67310000D02*
X116840000Y-67310000D01*
X101600000Y-80010000D02*
X104015998Y-80010000D01*
X104015998Y-80010000D02*
X116715998Y-67310000D01*
X116715998Y-69850000D02*
X116840000Y-69850000D01*
X101600000Y-82550000D02*
X104015998Y-82550000D01*
X104015998Y-82550000D02*
X116715998Y-69850000D01*
X116460499Y-72390000D02*
X116840000Y-72390000D01*
X101600000Y-85090000D02*
X103760499Y-85090000D01*
X103760499Y-85090000D02*
X116460499Y-72390000D01*
X116014489Y-74930000D02*
X116840000Y-74930000D01*
X101600000Y-87630000D02*
X103314489Y-87630000D01*
X103314489Y-87630000D02*
X116014489Y-74930000D01*
X115637919Y-77470000D02*
X116840000Y-77470000D01*
X101600000Y-90170000D02*
X102937919Y-90170000D01*
X102937919Y-90170000D02*
X115637919Y-77470000D01*
X115637919Y-80010000D02*
X116840000Y-80010000D01*
X101600000Y-92710000D02*
X102937919Y-92710000D01*
X102937919Y-92710000D02*
X115637919Y-80010000D01*
X85560001Y-80809999D02*
X86360000Y-80010000D01*
X80010000Y-99060000D02*
X81915000Y-97155000D01*
X77470000Y-99060000D02*
X80010000Y-99060000D01*
X81915000Y-97155000D02*
X81915000Y-91373493D01*
X81915000Y-91373493D02*
X84609999Y-88678494D01*
X84609999Y-88678494D02*
X84609999Y-81760001D01*
X84609999Y-81760001D02*
X85560001Y-80809999D01*
X115637919Y-82550000D02*
X116840000Y-82550000D01*
X101600000Y-95250000D02*
X102937919Y-95250000D01*
X102937919Y-95250000D02*
X115637919Y-82550000D01*
X119380000Y-67310000D02*
X119380000Y-110490000D01*
X119380000Y-53340000D02*
X119380000Y-67310000D01*
X101600000Y-72390000D02*
X97309999Y-68099999D01*
X97309999Y-68099999D02*
X84868493Y-68099999D01*
X83309988Y-88140012D02*
X78269999Y-93180001D01*
X84868493Y-68099999D02*
X83850011Y-69118481D01*
X83850011Y-80631494D02*
X83309988Y-81171517D01*
X83850011Y-69118481D02*
X83850011Y-80631494D01*
X78269999Y-93180001D02*
X77470000Y-93980000D01*
X83309988Y-81171517D02*
X83309988Y-88140012D01*
X60480000Y-92710000D02*
X59690000Y-92710000D01*
X67310000Y-93980000D02*
X65250000Y-93980000D01*
X59119999Y-38799999D02*
X58420000Y-38100000D01*
X61640001Y-41320001D02*
X59119999Y-38799999D01*
X75610001Y-41320001D02*
X61640001Y-41320001D01*
X78740000Y-44450000D02*
X75610001Y-41320001D01*
X79439999Y-55815001D02*
X78740000Y-56515000D01*
X80390001Y-54864999D02*
X79439999Y-55815001D01*
X80390001Y-48102999D02*
X80390001Y-54864999D01*
X78740000Y-46452998D02*
X80390001Y-48102999D01*
X78740000Y-44450000D02*
X78740000Y-46452998D01*
X64135000Y-71755000D02*
X70635000Y-71755000D01*
X78740000Y-57504949D02*
X78740000Y-56515000D01*
X78740000Y-62327998D02*
X78740000Y-57504949D01*
X71374999Y-69692999D02*
X78740000Y-62327998D01*
X70635000Y-71755000D02*
X71374999Y-71015001D01*
X71374999Y-71015001D02*
X71374999Y-69692999D01*
X58487919Y-92710000D02*
X59690000Y-92710000D01*
X55595990Y-89818071D02*
X58487919Y-92710000D01*
X55595990Y-78389010D02*
X55595990Y-89818071D01*
X55779999Y-78205001D02*
X55595990Y-78389010D01*
X71571001Y-78205001D02*
X55779999Y-78205001D01*
X72585001Y-77191001D02*
X71571001Y-78205001D01*
X72585001Y-73705001D02*
X72585001Y-77191001D01*
X70635000Y-71755000D02*
X72585001Y-73705001D01*
X57720001Y-38799999D02*
X58420000Y-38100000D01*
X56469999Y-40050001D02*
X57720001Y-38799999D01*
X56469999Y-54276001D02*
X56469999Y-40050001D01*
X56515000Y-54321002D02*
X56469999Y-54276001D01*
X56515000Y-55880000D02*
X56515000Y-54321002D01*
X119380000Y-65532000D02*
X119380000Y-67310000D01*
X109797508Y-72390000D02*
X113792000Y-68395508D01*
X101600000Y-72390000D02*
X109797508Y-72390000D01*
X113792000Y-68395508D02*
X113792000Y-67564000D01*
X113792000Y-67564000D02*
X115846001Y-65509999D01*
X115846001Y-65509999D02*
X119357999Y-65509999D01*
X119357999Y-65509999D02*
X119380000Y-65532000D01*
X66178630Y-88900000D02*
X67310000Y-88900000D01*
X66164002Y-88900000D02*
X66178630Y-88900000D01*
X59814002Y-82550000D02*
X66164002Y-88900000D01*
X59690000Y-82550000D02*
X59814002Y-82550000D01*
X60892081Y-100330000D02*
X59690000Y-100330000D01*
X64908630Y-100330000D02*
X60892081Y-100330000D01*
X66178630Y-99060000D02*
X64908630Y-100330000D01*
X67310000Y-99060000D02*
X66178630Y-99060000D01*
X67310000Y-91440000D02*
X63500000Y-91440000D01*
X63500000Y-91440000D02*
X63500000Y-96520000D01*
X62230000Y-97790000D02*
X59690000Y-97790000D01*
X63500000Y-96520000D02*
X62230000Y-97790000D01*
X58487919Y-95250000D02*
X59690000Y-95250000D01*
X57889999Y-95847920D02*
X58487919Y-95250000D01*
X57889999Y-101194001D02*
X57889999Y-95847920D01*
X58825999Y-102130001D02*
X57889999Y-101194001D01*
X69060001Y-99900001D02*
X66830001Y-102130001D01*
X66830001Y-102130001D02*
X58825999Y-102130001D01*
X69060001Y-86610001D02*
X69060001Y-99900001D01*
X68810000Y-86360000D02*
X69060001Y-86610001D01*
X67310000Y-86360000D02*
X68810000Y-86360000D01*
X67310000Y-96520000D02*
X66243756Y-96520000D01*
X66243756Y-96520000D02*
X64476878Y-98286878D01*
X58487919Y-90170000D02*
X56896000Y-88578081D01*
X59690000Y-90170000D02*
X58487919Y-90170000D01*
X56896000Y-80264000D02*
X57150000Y-80010000D01*
X57150000Y-80010000D02*
X60325000Y-80010000D01*
X56896000Y-88578081D02*
X56896000Y-80264000D01*
X60325000Y-80010000D02*
X62230000Y-81915000D01*
X101600000Y-100330000D02*
X98425000Y-100330000D01*
X64135000Y-81915000D02*
X67310000Y-81915000D01*
X62230000Y-81915000D02*
X64135000Y-81915000D01*
X64135000Y-81915000D02*
X64164438Y-81944438D01*
X64164438Y-81944438D02*
X64164438Y-84425562D01*
D20*
X64135000Y-84396124D02*
X64164438Y-84425562D01*
D19*
X61750000Y-92848630D02*
X61750000Y-93980000D01*
X59690000Y-87630000D02*
X61749999Y-89181999D01*
X61749999Y-89181999D02*
X61750000Y-92848630D01*
X59690000Y-92710000D02*
X61595000Y-92710000D01*
X60539999Y-85939999D02*
X59690000Y-85090000D01*
X60664001Y-85939999D02*
X60539999Y-85939999D01*
X61490001Y-86765999D02*
X60664001Y-85939999D01*
X61490001Y-86890001D02*
X61490001Y-86765999D01*
X63500000Y-88900000D02*
X61490001Y-86890001D01*
X101600000Y-77470000D02*
X102870000Y-77470000D01*
X102870000Y-77470000D02*
X105410000Y-74930000D01*
X82550000Y-68579999D02*
X84455000Y-66675000D01*
X84455000Y-66675000D02*
X102235000Y-66675000D01*
X82009977Y-80633035D02*
X82550000Y-80093012D01*
X77470000Y-91440000D02*
X82009977Y-86900023D01*
D20*
X81915000Y-81915000D02*
X82009977Y-81820023D01*
D19*
X82009977Y-81820023D02*
X82009977Y-80633035D01*
X82550000Y-80093012D02*
X82550000Y-70485000D01*
X82550000Y-70485000D02*
X82550000Y-68579999D01*
X81915000Y-81915000D02*
X82009977Y-82009977D01*
X77470000Y-81915000D02*
X81915000Y-81915000D01*
X82009977Y-86900023D02*
X82009977Y-82009977D01*
X82009977Y-82009977D02*
X82009977Y-81820023D01*
X73025000Y-70485000D02*
X82550001Y-70485000D01*
X102302919Y-66675000D02*
X102235000Y-66675000D01*
X118177919Y-50800000D02*
X102302919Y-66675000D01*
X119380000Y-50800000D02*
X118177919Y-50800000D01*
X102245009Y-66675000D02*
X104610001Y-69039992D01*
X104610001Y-69039992D02*
X105410000Y-69839991D01*
X102235000Y-66675000D02*
X102245009Y-66675000D01*
X116840000Y-105410000D02*
X115572794Y-105410000D01*
X115572794Y-105410000D02*
X113031397Y-107951397D01*
X115570000Y-48260000D02*
X119380000Y-48260000D01*
X86360000Y-85090000D02*
X89535000Y-85090000D01*
X95250000Y-93980000D02*
X87159999Y-85889999D01*
X95250000Y-106198401D02*
X95250000Y-93980000D01*
X87159999Y-85889999D02*
X86360000Y-85090000D01*
X116840000Y-90170000D02*
X115570000Y-90170000D01*
X104775000Y-100965000D02*
X104775000Y-106706404D01*
X104775000Y-106706404D02*
X102896404Y-108585000D01*
X115570000Y-90170000D02*
X104775000Y-100965000D01*
X102896404Y-108585000D02*
X97636599Y-108585000D01*
X97636599Y-108585000D02*
X95250000Y-106198401D01*
X96520000Y-82550000D02*
X96520004Y-82550004D01*
X96520004Y-82550004D02*
X96520004Y-105714001D01*
X96520004Y-105714001D02*
X97966004Y-107160001D01*
X115637919Y-87630000D02*
X116840000Y-87630000D01*
X97966004Y-107160001D02*
X102440001Y-107160001D01*
X102440001Y-107160001D02*
X103350001Y-106250001D01*
X103350001Y-106250001D02*
X103350001Y-99917918D01*
X103350001Y-99917918D02*
X115637919Y-87630000D01*
X89535000Y-82550000D02*
X96520000Y-82550000D01*
X86360000Y-82550000D02*
X89535000Y-82550000D01*
X115570000Y-45720000D02*
X119380000Y-45720000D01*
X116840000Y-110490000D02*
X115570000Y-110490000D01*
X115570000Y-110490000D02*
X113030000Y-113030000D01*
X86360000Y-72390000D02*
X88900000Y-72390000D01*
X116840000Y-107950000D02*
X115570000Y-107950000D01*
X115570000Y-107950000D02*
X113030000Y-110490000D01*
X86360000Y-69850000D02*
X88900000Y-69850000D01*
X115637919Y-85090000D02*
X116840000Y-85090000D01*
X101600000Y-97790000D02*
X102937919Y-97790000D01*
X64080000Y-76200000D02*
X64135000Y-76255000D01*
X60325000Y-76200000D02*
X64080000Y-76200000D01*
X64135000Y-76255000D02*
X70635000Y-76255000D01*
X64135000Y-64334213D02*
X64135000Y-62920000D01*
X64135000Y-68119002D02*
X64135000Y-64334213D01*
X60325000Y-71929002D02*
X64135000Y-68119002D01*
X60325000Y-76200000D02*
X60325000Y-71929002D01*
X64135000Y-62920000D02*
X70635000Y-62920000D01*
X72970000Y-62920000D02*
X73025000Y-62865000D01*
X70635000Y-62920000D02*
X72970000Y-62920000D01*
X58420000Y-57205000D02*
X58420000Y-53340000D01*
X64135000Y-62920000D02*
X58420000Y-57205000D01*
X58420000Y-53340000D02*
X64920000Y-53340000D01*
X70635000Y-43870000D02*
X64135000Y-43870000D01*
X76350000Y-53340000D02*
X69850000Y-53340000D01*
X101600000Y-97790000D02*
X98425000Y-97790000D01*
X102937919Y-97790000D02*
X115637919Y-85090000D01*
X69850000Y-53340000D02*
X64920000Y-53340000D01*
X67310000Y-53340000D02*
X67310000Y-43815000D01*
X64920000Y-53340000D02*
X67310000Y-53340000D01*
X73175000Y-36830000D02*
X78740000Y-36830000D01*
X70635000Y-39370000D02*
X73175000Y-36830000D01*
X64135000Y-39370000D02*
X70635000Y-39370000D01*
X58420000Y-45720000D02*
X58420000Y-48840000D01*
X64920000Y-48840000D02*
X58420000Y-48840000D01*
X69850000Y-48840000D02*
X76350000Y-48840000D01*
X78685000Y-48840000D02*
X78740000Y-48895000D01*
X76350000Y-48840000D02*
X78685000Y-48840000D01*
X70635000Y-58420000D02*
X64135000Y-58420000D01*
X64135000Y-58420000D02*
X64135000Y-55880000D01*
X88719939Y-100149939D02*
X87159999Y-98589999D01*
X87159999Y-98589999D02*
X86360000Y-97790000D01*
X88719939Y-109039939D02*
X88719939Y-100149939D01*
X111150066Y-107357853D02*
X111150066Y-109480892D01*
X111150066Y-109480892D02*
X105670892Y-114960066D01*
X115637919Y-102870000D02*
X111150066Y-107357853D01*
X105670892Y-114960066D02*
X94640066Y-114960066D01*
X116840000Y-102870000D02*
X115637919Y-102870000D01*
X94640066Y-114960066D02*
X88719939Y-109039939D01*
X115637919Y-100330000D02*
X116840000Y-100330000D01*
X109850056Y-106117863D02*
X115637919Y-100330000D01*
X105132411Y-113660056D02*
X109850056Y-108942411D01*
X95273589Y-113660056D02*
X105132411Y-113660056D01*
X90555944Y-108942411D02*
X95273589Y-113660056D01*
X90555944Y-108942406D02*
X90555944Y-108942411D01*
X90019949Y-108406411D02*
X90555944Y-108942406D01*
X90019949Y-98909949D02*
X90019949Y-108406411D01*
X109850056Y-108942411D02*
X109850056Y-106117863D01*
X86360000Y-95250000D02*
X90019949Y-98909949D01*
X108550045Y-104877874D02*
X115637919Y-97790000D01*
X115637919Y-97790000D02*
X116840000Y-97790000D01*
X91319960Y-97669960D02*
X91319960Y-107867934D01*
X91319960Y-107867934D02*
X95812071Y-112360045D01*
X95812071Y-112360045D02*
X104593929Y-112360045D01*
X104593929Y-112360045D02*
X108550045Y-108403929D01*
X108550045Y-108403929D02*
X108550045Y-104877874D01*
X86360000Y-92710000D02*
X91319960Y-97669960D01*
X104055447Y-111060034D02*
X107250034Y-107865447D01*
X107250034Y-103637885D02*
X115637919Y-95250000D01*
X96350553Y-111060034D02*
X104055447Y-111060034D01*
X92619967Y-107329448D02*
X96350553Y-111060034D01*
X115637919Y-95250000D02*
X116840000Y-95250000D01*
X92619967Y-96429967D02*
X92619967Y-107329448D01*
X107250034Y-107865447D02*
X107250034Y-103637885D01*
X86360000Y-90170000D02*
X92619967Y-96429967D01*
X93919978Y-95189978D02*
X93919978Y-106790966D01*
X103516965Y-109760023D02*
X105950023Y-107326965D01*
X96889035Y-109760023D02*
X103516965Y-109760023D01*
X93919978Y-106790966D02*
X96889035Y-109760023D01*
X115637919Y-92710000D02*
X116840000Y-92710000D01*
X105950023Y-102397896D02*
X115637919Y-92710000D01*
X105950023Y-107326965D02*
X105950023Y-102397896D01*
X86360000Y-87630000D02*
X93919978Y-95189978D01*
X83185006Y-100330000D02*
X83185000Y-100330006D01*
X86360000Y-100330000D02*
X83185006Y-100330000D01*
M02*
