G04 #@! TF.GenerationSoftware,KiCad,Pcbnew,(5.1.5)-3*
G04 #@! TF.CreationDate,2022-12-19T02:05:45+02:00*
G04 #@! TF.ProjectId,arduino-fanatec-pcb,61726475-696e-46f2-9d66-616e61746563,rev?*
G04 #@! TF.SameCoordinates,Original*
G04 #@! TF.FileFunction,Copper,L1,Top*
G04 #@! TF.FilePolarity,Positive*
%FSLAX46Y46*%
G04 Gerber Fmt 4.6, Leading zero omitted, Abs format (unit mm)*
G04 Created by KiCad (PCBNEW (5.1.5)-3) date 2022-12-19 02:05:45*
%MOMM*%
%LPD*%
G04 APERTURE LIST*
%ADD10O,1.600000X1.600000*%
%ADD11R,1.600000X1.600000*%
%ADD12R,1.700000X1.700000*%
%ADD13O,1.700000X1.700000*%
%ADD14C,6.000000*%
%ADD15C,2.000000*%
%ADD16O,1.800000X1.800000*%
%ADD17R,1.800000X1.800000*%
%ADD18C,1.600000*%
%ADD19C,0.500000*%
%ADD20C,0.700000*%
%ADD21C,0.254000*%
G04 APERTURE END LIST*
D10*
X101600000Y-105410000D03*
X86360000Y-105410000D03*
X101600000Y-69850000D03*
X86360000Y-102870000D03*
X101600000Y-72390000D03*
X86360000Y-100330000D03*
X101600000Y-74930000D03*
X86360000Y-97790000D03*
X101600000Y-77470000D03*
X86360000Y-95250000D03*
X101600000Y-80010000D03*
X86360000Y-92710000D03*
X101600000Y-82550000D03*
X86360000Y-90170000D03*
X101600000Y-85090000D03*
X86360000Y-87630000D03*
X101600000Y-87630000D03*
X86360000Y-85090000D03*
X101600000Y-90170000D03*
X86360000Y-82550000D03*
X101600000Y-92710000D03*
X86360000Y-80010000D03*
X101600000Y-95250000D03*
X86360000Y-77470000D03*
X101600000Y-97790000D03*
X86360000Y-74930000D03*
X101600000Y-100330000D03*
X86360000Y-72390000D03*
X101600000Y-102870000D03*
D11*
X86360000Y-69850000D03*
D12*
X116840000Y-110490000D03*
D13*
X119380000Y-110490000D03*
X116840000Y-107950000D03*
X119380000Y-107950000D03*
X116840000Y-105410000D03*
X119380000Y-105410000D03*
X116840000Y-102870000D03*
X119380000Y-102870000D03*
X116840000Y-100330000D03*
X119380000Y-100330000D03*
X116840000Y-97790000D03*
X119380000Y-97790000D03*
X116840000Y-95250000D03*
X119380000Y-95250000D03*
X116840000Y-92710000D03*
X119380000Y-92710000D03*
X116840000Y-90170000D03*
X119380000Y-90170000D03*
X116840000Y-87630000D03*
X119380000Y-87630000D03*
X116840000Y-85090000D03*
X119380000Y-85090000D03*
X116840000Y-82550000D03*
X119380000Y-82550000D03*
X116840000Y-80010000D03*
X119380000Y-80010000D03*
X116840000Y-77470000D03*
X119380000Y-77470000D03*
X116840000Y-74930000D03*
X119380000Y-74930000D03*
X116840000Y-72390000D03*
X119380000Y-72390000D03*
X116840000Y-69850000D03*
X119380000Y-69850000D03*
X116840000Y-67310000D03*
X119380000Y-67310000D03*
D11*
X67310000Y-86360000D03*
D10*
X77470000Y-99060000D03*
X67310000Y-88900000D03*
X77470000Y-96520000D03*
X67310000Y-91440000D03*
X77470000Y-93980000D03*
X67310000Y-93980000D03*
X77470000Y-91440000D03*
X67310000Y-96520000D03*
X77470000Y-88900000D03*
X67310000Y-99060000D03*
X77470000Y-86360000D03*
D13*
X55118000Y-100330000D03*
X55118000Y-97790000D03*
X55118000Y-95250000D03*
X55118000Y-92710000D03*
X55118000Y-90170000D03*
X55118000Y-87630000D03*
X55118000Y-85090000D03*
D12*
X55118000Y-82550000D03*
D14*
X84455000Y-111125000D03*
D10*
X56515000Y-55880000D03*
X64135000Y-55880000D03*
X73025000Y-70485000D03*
X73025000Y-62865000D03*
X78740000Y-48895000D03*
X78740000Y-56515000D03*
X58420000Y-45720000D03*
X58420000Y-38100000D03*
X78740000Y-36830000D03*
X78740000Y-44450000D03*
D15*
X70635000Y-71755000D03*
X70635000Y-76255000D03*
X64135000Y-71755000D03*
X64135000Y-76255000D03*
X70635000Y-58420000D03*
X70635000Y-62920000D03*
X64135000Y-58420000D03*
X64135000Y-62920000D03*
X76350000Y-48840000D03*
X76350000Y-53340000D03*
X69850000Y-48840000D03*
X69850000Y-53340000D03*
X64920000Y-48840000D03*
X64920000Y-53340000D03*
X58420000Y-48840000D03*
X58420000Y-53340000D03*
X70635000Y-39370000D03*
X70635000Y-43870000D03*
X64135000Y-39370000D03*
X64135000Y-43870000D03*
D13*
X119380000Y-53340000D03*
X119380000Y-50800000D03*
X119380000Y-48260000D03*
D12*
X119380000Y-45720000D03*
D14*
X109620000Y-67310000D03*
X59290000Y-67310000D03*
D16*
X67310000Y-81915000D03*
D17*
X77470000Y-81915000D03*
D13*
X59690000Y-100330000D03*
X59690000Y-97790000D03*
X59690000Y-95250000D03*
X59690000Y-92710000D03*
X59690000Y-90170000D03*
X59690000Y-87630000D03*
X59690000Y-85090000D03*
D12*
X59690000Y-82550000D03*
D18*
X80010000Y-96520000D03*
X83058000Y-102768400D03*
X98425000Y-100330000D03*
X61750000Y-93980000D03*
X65250000Y-93980000D03*
X80010000Y-91440000D03*
X64476878Y-98286878D03*
X63500000Y-88900000D03*
X105410000Y-74930000D03*
X105410000Y-69839991D03*
X113031397Y-107951397D03*
X83185000Y-100330006D03*
X115570000Y-48260000D03*
X95330010Y-85090000D03*
X115570000Y-45720000D03*
X95250006Y-82550000D03*
X88900000Y-72390000D03*
X113030000Y-113030000D03*
X88900000Y-69850000D03*
X113030000Y-110490000D03*
X60325000Y-76200000D03*
X98425000Y-97790000D03*
X64164438Y-84425562D03*
D19*
X92599987Y-70959985D02*
X92599987Y-83736484D01*
X89740001Y-68099999D02*
X92599987Y-70959985D01*
X84799999Y-68099999D02*
X89740001Y-68099999D01*
X100468630Y-105410000D02*
X101600000Y-105410000D01*
X92679989Y-83816486D02*
X92679990Y-97621360D01*
X84609999Y-68289999D02*
X84799999Y-68099999D01*
X77470000Y-86360000D02*
X84609999Y-79220001D01*
X92679990Y-97621360D02*
X100468630Y-105410000D01*
X84609999Y-79220001D02*
X84609999Y-68289999D01*
X92599987Y-83736484D02*
X92679989Y-83816486D01*
X80799999Y-97260979D02*
X80799999Y-100510399D01*
X82258001Y-101968401D02*
X83058000Y-102768400D01*
X80799999Y-100510399D02*
X82258001Y-101968401D01*
X80059020Y-96520000D02*
X80799999Y-97260979D01*
X80010000Y-96520000D02*
X80059020Y-96520000D01*
D20*
X61749999Y-93980001D02*
X61750000Y-93980000D01*
X65250000Y-93980000D02*
X65250000Y-88059998D01*
X64340001Y-87149999D02*
X62659999Y-87149999D01*
X65250000Y-88059998D02*
X64340001Y-87149999D01*
X62659999Y-87149999D02*
X61749999Y-88059999D01*
X61749999Y-88059999D02*
X61749999Y-93980001D01*
X65250000Y-93980000D02*
X77470000Y-93980000D01*
X77470000Y-93980000D02*
X80010000Y-91440000D01*
D19*
X59690000Y-82550000D02*
X59690000Y-81280000D01*
X63500000Y-97310000D02*
X63500000Y-88900000D01*
X64476878Y-98286878D02*
X63500000Y-97310000D01*
D20*
X105410000Y-74930000D02*
X105410000Y-69839991D01*
D19*
X113831396Y-108751396D02*
X113031397Y-107951397D01*
X114380001Y-109300001D02*
X113831396Y-108751396D01*
X114380001Y-114219999D02*
X114380001Y-109300001D01*
X114219999Y-114380001D02*
X114380001Y-114219999D01*
X100410001Y-114380001D02*
X114219999Y-114380001D01*
X86360000Y-100330000D02*
X100410001Y-114380001D01*
X97870007Y-65959993D02*
X97870007Y-83681373D01*
X115570000Y-48260000D02*
X97870007Y-65959993D01*
X96461380Y-85090000D02*
X95330010Y-85090000D01*
X97870007Y-83681373D02*
X96461380Y-85090000D01*
X115570000Y-45720000D02*
X95250006Y-66039994D01*
X95250006Y-81418630D02*
X95250006Y-82550000D01*
X95250006Y-66039994D02*
X95250006Y-81418630D01*
X111898630Y-113030000D02*
X113030000Y-113030000D01*
X104558667Y-113030000D02*
X111898630Y-113030000D01*
X88900000Y-72390000D02*
X88900000Y-97371333D01*
X88900000Y-97371333D02*
X104558667Y-113030000D01*
X91299977Y-98079837D02*
X103710140Y-110490000D01*
X111898630Y-110490000D02*
X113030000Y-110490000D01*
X91299977Y-72249977D02*
X91299977Y-98079837D01*
X103710140Y-110490000D02*
X111898630Y-110490000D01*
X88900000Y-69850000D02*
X91299977Y-72249977D01*
X93899993Y-69769993D02*
X93899993Y-83198001D01*
X70635000Y-76255000D02*
X82120000Y-64770000D01*
X88900000Y-64770000D02*
X93899993Y-69769993D01*
X82120000Y-64770000D02*
X88900000Y-64770000D01*
X93980000Y-83278008D02*
X93980000Y-93345000D01*
X97625001Y-96990001D02*
X98425000Y-97790000D01*
X93899993Y-83198001D02*
X93980000Y-83278008D01*
X93980000Y-93345000D02*
X97625001Y-96990001D01*
D21*
G36*
X77360147Y-36411426D02*
G01*
X77305000Y-36688665D01*
X77305000Y-36971335D01*
X77360147Y-37248574D01*
X77468320Y-37509727D01*
X77625363Y-37744759D01*
X77825241Y-37944637D01*
X78060273Y-38101680D01*
X78321426Y-38209853D01*
X78598665Y-38265000D01*
X78881335Y-38265000D01*
X79158574Y-38209853D01*
X79419727Y-38101680D01*
X79654759Y-37944637D01*
X79854637Y-37744759D01*
X80011680Y-37509727D01*
X80119853Y-37248574D01*
X80175000Y-36971335D01*
X80175000Y-36688665D01*
X80119853Y-36411426D01*
X80040562Y-36220000D01*
X121260001Y-36220000D01*
X121260000Y-114910000D01*
X114941578Y-114910000D01*
X114975046Y-114876532D01*
X115008818Y-114848816D01*
X115119412Y-114714058D01*
X115201590Y-114560312D01*
X115252196Y-114393489D01*
X115265001Y-114263476D01*
X115265001Y-114263468D01*
X115269282Y-114219999D01*
X115265001Y-114176530D01*
X115265001Y-109640000D01*
X115351928Y-109640000D01*
X115351928Y-111340000D01*
X115364188Y-111464482D01*
X115400498Y-111584180D01*
X115459463Y-111694494D01*
X115538815Y-111791185D01*
X115635506Y-111870537D01*
X115745820Y-111929502D01*
X115865518Y-111965812D01*
X115990000Y-111978072D01*
X117690000Y-111978072D01*
X117814482Y-111965812D01*
X117934180Y-111929502D01*
X118044494Y-111870537D01*
X118141185Y-111791185D01*
X118220537Y-111694494D01*
X118279502Y-111584180D01*
X118302498Y-111508374D01*
X118498645Y-111685178D01*
X118748748Y-111834157D01*
X119023109Y-111931481D01*
X119253000Y-111810814D01*
X119253000Y-110617000D01*
X119507000Y-110617000D01*
X119507000Y-111810814D01*
X119736891Y-111931481D01*
X120011252Y-111834157D01*
X120261355Y-111685178D01*
X120477588Y-111490269D01*
X120651641Y-111256920D01*
X120776825Y-110994099D01*
X120821476Y-110846890D01*
X120700155Y-110617000D01*
X119507000Y-110617000D01*
X119253000Y-110617000D01*
X119233000Y-110617000D01*
X119233000Y-110363000D01*
X119253000Y-110363000D01*
X119253000Y-108077000D01*
X119507000Y-108077000D01*
X119507000Y-110363000D01*
X120700155Y-110363000D01*
X120821476Y-110133110D01*
X120776825Y-109985901D01*
X120651641Y-109723080D01*
X120477588Y-109489731D01*
X120261355Y-109294822D01*
X120135745Y-109220000D01*
X120261355Y-109145178D01*
X120477588Y-108950269D01*
X120651641Y-108716920D01*
X120776825Y-108454099D01*
X120821476Y-108306890D01*
X120700155Y-108077000D01*
X119507000Y-108077000D01*
X119253000Y-108077000D01*
X119233000Y-108077000D01*
X119233000Y-107823000D01*
X119253000Y-107823000D01*
X119253000Y-105537000D01*
X119507000Y-105537000D01*
X119507000Y-107823000D01*
X120700155Y-107823000D01*
X120821476Y-107593110D01*
X120776825Y-107445901D01*
X120651641Y-107183080D01*
X120477588Y-106949731D01*
X120261355Y-106754822D01*
X120135745Y-106680000D01*
X120261355Y-106605178D01*
X120477588Y-106410269D01*
X120651641Y-106176920D01*
X120776825Y-105914099D01*
X120821476Y-105766890D01*
X120700155Y-105537000D01*
X119507000Y-105537000D01*
X119253000Y-105537000D01*
X119233000Y-105537000D01*
X119233000Y-105283000D01*
X119253000Y-105283000D01*
X119253000Y-102997000D01*
X119507000Y-102997000D01*
X119507000Y-105283000D01*
X120700155Y-105283000D01*
X120821476Y-105053110D01*
X120776825Y-104905901D01*
X120651641Y-104643080D01*
X120477588Y-104409731D01*
X120261355Y-104214822D01*
X120135745Y-104140000D01*
X120261355Y-104065178D01*
X120477588Y-103870269D01*
X120651641Y-103636920D01*
X120776825Y-103374099D01*
X120821476Y-103226890D01*
X120700155Y-102997000D01*
X119507000Y-102997000D01*
X119253000Y-102997000D01*
X119233000Y-102997000D01*
X119233000Y-102743000D01*
X119253000Y-102743000D01*
X119253000Y-100457000D01*
X119507000Y-100457000D01*
X119507000Y-102743000D01*
X120700155Y-102743000D01*
X120821476Y-102513110D01*
X120776825Y-102365901D01*
X120651641Y-102103080D01*
X120477588Y-101869731D01*
X120261355Y-101674822D01*
X120135745Y-101600000D01*
X120261355Y-101525178D01*
X120477588Y-101330269D01*
X120651641Y-101096920D01*
X120776825Y-100834099D01*
X120821476Y-100686890D01*
X120700155Y-100457000D01*
X119507000Y-100457000D01*
X119253000Y-100457000D01*
X119233000Y-100457000D01*
X119233000Y-100203000D01*
X119253000Y-100203000D01*
X119253000Y-97917000D01*
X119507000Y-97917000D01*
X119507000Y-100203000D01*
X120700155Y-100203000D01*
X120821476Y-99973110D01*
X120776825Y-99825901D01*
X120651641Y-99563080D01*
X120477588Y-99329731D01*
X120261355Y-99134822D01*
X120135745Y-99060000D01*
X120261355Y-98985178D01*
X120477588Y-98790269D01*
X120651641Y-98556920D01*
X120776825Y-98294099D01*
X120821476Y-98146890D01*
X120700155Y-97917000D01*
X119507000Y-97917000D01*
X119253000Y-97917000D01*
X119233000Y-97917000D01*
X119233000Y-97663000D01*
X119253000Y-97663000D01*
X119253000Y-95377000D01*
X119507000Y-95377000D01*
X119507000Y-97663000D01*
X120700155Y-97663000D01*
X120821476Y-97433110D01*
X120776825Y-97285901D01*
X120651641Y-97023080D01*
X120477588Y-96789731D01*
X120261355Y-96594822D01*
X120135745Y-96520000D01*
X120261355Y-96445178D01*
X120477588Y-96250269D01*
X120651641Y-96016920D01*
X120776825Y-95754099D01*
X120821476Y-95606890D01*
X120700155Y-95377000D01*
X119507000Y-95377000D01*
X119253000Y-95377000D01*
X119233000Y-95377000D01*
X119233000Y-95123000D01*
X119253000Y-95123000D01*
X119253000Y-92837000D01*
X119507000Y-92837000D01*
X119507000Y-95123000D01*
X120700155Y-95123000D01*
X120821476Y-94893110D01*
X120776825Y-94745901D01*
X120651641Y-94483080D01*
X120477588Y-94249731D01*
X120261355Y-94054822D01*
X120135745Y-93980000D01*
X120261355Y-93905178D01*
X120477588Y-93710269D01*
X120651641Y-93476920D01*
X120776825Y-93214099D01*
X120821476Y-93066890D01*
X120700155Y-92837000D01*
X119507000Y-92837000D01*
X119253000Y-92837000D01*
X119233000Y-92837000D01*
X119233000Y-92583000D01*
X119253000Y-92583000D01*
X119253000Y-90297000D01*
X119507000Y-90297000D01*
X119507000Y-92583000D01*
X120700155Y-92583000D01*
X120821476Y-92353110D01*
X120776825Y-92205901D01*
X120651641Y-91943080D01*
X120477588Y-91709731D01*
X120261355Y-91514822D01*
X120135745Y-91440000D01*
X120261355Y-91365178D01*
X120477588Y-91170269D01*
X120651641Y-90936920D01*
X120776825Y-90674099D01*
X120821476Y-90526890D01*
X120700155Y-90297000D01*
X119507000Y-90297000D01*
X119253000Y-90297000D01*
X119233000Y-90297000D01*
X119233000Y-90043000D01*
X119253000Y-90043000D01*
X119253000Y-87757000D01*
X119507000Y-87757000D01*
X119507000Y-90043000D01*
X120700155Y-90043000D01*
X120821476Y-89813110D01*
X120776825Y-89665901D01*
X120651641Y-89403080D01*
X120477588Y-89169731D01*
X120261355Y-88974822D01*
X120135745Y-88900000D01*
X120261355Y-88825178D01*
X120477588Y-88630269D01*
X120651641Y-88396920D01*
X120776825Y-88134099D01*
X120821476Y-87986890D01*
X120700155Y-87757000D01*
X119507000Y-87757000D01*
X119253000Y-87757000D01*
X119233000Y-87757000D01*
X119233000Y-87503000D01*
X119253000Y-87503000D01*
X119253000Y-85217000D01*
X119507000Y-85217000D01*
X119507000Y-87503000D01*
X120700155Y-87503000D01*
X120821476Y-87273110D01*
X120776825Y-87125901D01*
X120651641Y-86863080D01*
X120477588Y-86629731D01*
X120261355Y-86434822D01*
X120135745Y-86360000D01*
X120261355Y-86285178D01*
X120477588Y-86090269D01*
X120651641Y-85856920D01*
X120776825Y-85594099D01*
X120821476Y-85446890D01*
X120700155Y-85217000D01*
X119507000Y-85217000D01*
X119253000Y-85217000D01*
X119233000Y-85217000D01*
X119233000Y-84963000D01*
X119253000Y-84963000D01*
X119253000Y-82677000D01*
X119507000Y-82677000D01*
X119507000Y-84963000D01*
X120700155Y-84963000D01*
X120821476Y-84733110D01*
X120776825Y-84585901D01*
X120651641Y-84323080D01*
X120477588Y-84089731D01*
X120261355Y-83894822D01*
X120135745Y-83820000D01*
X120261355Y-83745178D01*
X120477588Y-83550269D01*
X120651641Y-83316920D01*
X120776825Y-83054099D01*
X120821476Y-82906890D01*
X120700155Y-82677000D01*
X119507000Y-82677000D01*
X119253000Y-82677000D01*
X119233000Y-82677000D01*
X119233000Y-82423000D01*
X119253000Y-82423000D01*
X119253000Y-80137000D01*
X119507000Y-80137000D01*
X119507000Y-82423000D01*
X120700155Y-82423000D01*
X120821476Y-82193110D01*
X120776825Y-82045901D01*
X120651641Y-81783080D01*
X120477588Y-81549731D01*
X120261355Y-81354822D01*
X120135745Y-81280000D01*
X120261355Y-81205178D01*
X120477588Y-81010269D01*
X120651641Y-80776920D01*
X120776825Y-80514099D01*
X120821476Y-80366890D01*
X120700155Y-80137000D01*
X119507000Y-80137000D01*
X119253000Y-80137000D01*
X119233000Y-80137000D01*
X119233000Y-79883000D01*
X119253000Y-79883000D01*
X119253000Y-77597000D01*
X119507000Y-77597000D01*
X119507000Y-79883000D01*
X120700155Y-79883000D01*
X120821476Y-79653110D01*
X120776825Y-79505901D01*
X120651641Y-79243080D01*
X120477588Y-79009731D01*
X120261355Y-78814822D01*
X120135745Y-78740000D01*
X120261355Y-78665178D01*
X120477588Y-78470269D01*
X120651641Y-78236920D01*
X120776825Y-77974099D01*
X120821476Y-77826890D01*
X120700155Y-77597000D01*
X119507000Y-77597000D01*
X119253000Y-77597000D01*
X119233000Y-77597000D01*
X119233000Y-77343000D01*
X119253000Y-77343000D01*
X119253000Y-75057000D01*
X119507000Y-75057000D01*
X119507000Y-77343000D01*
X120700155Y-77343000D01*
X120821476Y-77113110D01*
X120776825Y-76965901D01*
X120651641Y-76703080D01*
X120477588Y-76469731D01*
X120261355Y-76274822D01*
X120135745Y-76200000D01*
X120261355Y-76125178D01*
X120477588Y-75930269D01*
X120651641Y-75696920D01*
X120776825Y-75434099D01*
X120821476Y-75286890D01*
X120700155Y-75057000D01*
X119507000Y-75057000D01*
X119253000Y-75057000D01*
X119233000Y-75057000D01*
X119233000Y-74803000D01*
X119253000Y-74803000D01*
X119253000Y-72517000D01*
X119507000Y-72517000D01*
X119507000Y-74803000D01*
X120700155Y-74803000D01*
X120821476Y-74573110D01*
X120776825Y-74425901D01*
X120651641Y-74163080D01*
X120477588Y-73929731D01*
X120261355Y-73734822D01*
X120135745Y-73660000D01*
X120261355Y-73585178D01*
X120477588Y-73390269D01*
X120651641Y-73156920D01*
X120776825Y-72894099D01*
X120821476Y-72746890D01*
X120700155Y-72517000D01*
X119507000Y-72517000D01*
X119253000Y-72517000D01*
X119233000Y-72517000D01*
X119233000Y-72263000D01*
X119253000Y-72263000D01*
X119253000Y-69977000D01*
X119507000Y-69977000D01*
X119507000Y-72263000D01*
X120700155Y-72263000D01*
X120821476Y-72033110D01*
X120776825Y-71885901D01*
X120651641Y-71623080D01*
X120477588Y-71389731D01*
X120261355Y-71194822D01*
X120135745Y-71120000D01*
X120261355Y-71045178D01*
X120477588Y-70850269D01*
X120651641Y-70616920D01*
X120776825Y-70354099D01*
X120821476Y-70206890D01*
X120700155Y-69977000D01*
X119507000Y-69977000D01*
X119253000Y-69977000D01*
X119233000Y-69977000D01*
X119233000Y-69723000D01*
X119253000Y-69723000D01*
X119253000Y-67437000D01*
X119507000Y-67437000D01*
X119507000Y-69723000D01*
X120700155Y-69723000D01*
X120821476Y-69493110D01*
X120776825Y-69345901D01*
X120651641Y-69083080D01*
X120477588Y-68849731D01*
X120261355Y-68654822D01*
X120135745Y-68580000D01*
X120261355Y-68505178D01*
X120477588Y-68310269D01*
X120651641Y-68076920D01*
X120776825Y-67814099D01*
X120821476Y-67666890D01*
X120700155Y-67437000D01*
X119507000Y-67437000D01*
X119253000Y-67437000D01*
X119233000Y-67437000D01*
X119233000Y-67183000D01*
X119253000Y-67183000D01*
X119253000Y-65989186D01*
X119507000Y-65989186D01*
X119507000Y-67183000D01*
X120700155Y-67183000D01*
X120821476Y-66953110D01*
X120776825Y-66805901D01*
X120651641Y-66543080D01*
X120477588Y-66309731D01*
X120261355Y-66114822D01*
X120011252Y-65965843D01*
X119736891Y-65868519D01*
X119507000Y-65989186D01*
X119253000Y-65989186D01*
X119023109Y-65868519D01*
X118748748Y-65965843D01*
X118498645Y-66114822D01*
X118282412Y-66309731D01*
X118111100Y-66539406D01*
X117993475Y-66363368D01*
X117786632Y-66156525D01*
X117543411Y-65994010D01*
X117273158Y-65882068D01*
X116986260Y-65825000D01*
X116693740Y-65825000D01*
X116406842Y-65882068D01*
X116136589Y-65994010D01*
X115893368Y-66156525D01*
X115686525Y-66363368D01*
X115524010Y-66606589D01*
X115412068Y-66876842D01*
X115355000Y-67163740D01*
X115355000Y-67456260D01*
X115412068Y-67743158D01*
X115524010Y-68013411D01*
X115686525Y-68256632D01*
X115893368Y-68463475D01*
X116067760Y-68580000D01*
X115893368Y-68696525D01*
X115686525Y-68903368D01*
X115524010Y-69146589D01*
X115412068Y-69416842D01*
X115355000Y-69703740D01*
X115355000Y-69996260D01*
X115412068Y-70283158D01*
X115524010Y-70553411D01*
X115686525Y-70796632D01*
X115893368Y-71003475D01*
X116067760Y-71120000D01*
X115893368Y-71236525D01*
X115686525Y-71443368D01*
X115524010Y-71686589D01*
X115412068Y-71956842D01*
X115355000Y-72243740D01*
X115355000Y-72536260D01*
X115412068Y-72823158D01*
X115524010Y-73093411D01*
X115686525Y-73336632D01*
X115893368Y-73543475D01*
X116067760Y-73660000D01*
X115893368Y-73776525D01*
X115686525Y-73983368D01*
X115524010Y-74226589D01*
X115412068Y-74496842D01*
X115355000Y-74783740D01*
X115355000Y-75076260D01*
X115412068Y-75363158D01*
X115524010Y-75633411D01*
X115686525Y-75876632D01*
X115893368Y-76083475D01*
X116067760Y-76200000D01*
X115893368Y-76316525D01*
X115686525Y-76523368D01*
X115524010Y-76766589D01*
X115412068Y-77036842D01*
X115355000Y-77323740D01*
X115355000Y-77616260D01*
X115412068Y-77903158D01*
X115524010Y-78173411D01*
X115686525Y-78416632D01*
X115893368Y-78623475D01*
X116067760Y-78740000D01*
X115893368Y-78856525D01*
X115686525Y-79063368D01*
X115524010Y-79306589D01*
X115412068Y-79576842D01*
X115355000Y-79863740D01*
X115355000Y-80156260D01*
X115412068Y-80443158D01*
X115524010Y-80713411D01*
X115686525Y-80956632D01*
X115893368Y-81163475D01*
X116067760Y-81280000D01*
X115893368Y-81396525D01*
X115686525Y-81603368D01*
X115524010Y-81846589D01*
X115412068Y-82116842D01*
X115355000Y-82403740D01*
X115355000Y-82696260D01*
X115412068Y-82983158D01*
X115524010Y-83253411D01*
X115686525Y-83496632D01*
X115893368Y-83703475D01*
X116067760Y-83820000D01*
X115893368Y-83936525D01*
X115686525Y-84143368D01*
X115524010Y-84386589D01*
X115412068Y-84656842D01*
X115355000Y-84943740D01*
X115355000Y-85236260D01*
X115412068Y-85523158D01*
X115524010Y-85793411D01*
X115686525Y-86036632D01*
X115893368Y-86243475D01*
X116067760Y-86360000D01*
X115893368Y-86476525D01*
X115686525Y-86683368D01*
X115524010Y-86926589D01*
X115412068Y-87196842D01*
X115355000Y-87483740D01*
X115355000Y-87776260D01*
X115412068Y-88063158D01*
X115524010Y-88333411D01*
X115686525Y-88576632D01*
X115893368Y-88783475D01*
X116067760Y-88900000D01*
X115893368Y-89016525D01*
X115686525Y-89223368D01*
X115524010Y-89466589D01*
X115412068Y-89736842D01*
X115355000Y-90023740D01*
X115355000Y-90316260D01*
X115412068Y-90603158D01*
X115524010Y-90873411D01*
X115686525Y-91116632D01*
X115893368Y-91323475D01*
X116067760Y-91440000D01*
X115893368Y-91556525D01*
X115686525Y-91763368D01*
X115524010Y-92006589D01*
X115412068Y-92276842D01*
X115355000Y-92563740D01*
X115355000Y-92856260D01*
X115412068Y-93143158D01*
X115524010Y-93413411D01*
X115686525Y-93656632D01*
X115893368Y-93863475D01*
X116067760Y-93980000D01*
X115893368Y-94096525D01*
X115686525Y-94303368D01*
X115524010Y-94546589D01*
X115412068Y-94816842D01*
X115355000Y-95103740D01*
X115355000Y-95396260D01*
X115412068Y-95683158D01*
X115524010Y-95953411D01*
X115686525Y-96196632D01*
X115893368Y-96403475D01*
X116067760Y-96520000D01*
X115893368Y-96636525D01*
X115686525Y-96843368D01*
X115524010Y-97086589D01*
X115412068Y-97356842D01*
X115355000Y-97643740D01*
X115355000Y-97936260D01*
X115412068Y-98223158D01*
X115524010Y-98493411D01*
X115686525Y-98736632D01*
X115893368Y-98943475D01*
X116067760Y-99060000D01*
X115893368Y-99176525D01*
X115686525Y-99383368D01*
X115524010Y-99626589D01*
X115412068Y-99896842D01*
X115355000Y-100183740D01*
X115355000Y-100476260D01*
X115412068Y-100763158D01*
X115524010Y-101033411D01*
X115686525Y-101276632D01*
X115893368Y-101483475D01*
X116067760Y-101600000D01*
X115893368Y-101716525D01*
X115686525Y-101923368D01*
X115524010Y-102166589D01*
X115412068Y-102436842D01*
X115355000Y-102723740D01*
X115355000Y-103016260D01*
X115412068Y-103303158D01*
X115524010Y-103573411D01*
X115686525Y-103816632D01*
X115893368Y-104023475D01*
X116067760Y-104140000D01*
X115893368Y-104256525D01*
X115686525Y-104463368D01*
X115524010Y-104706589D01*
X115412068Y-104976842D01*
X115355000Y-105263740D01*
X115355000Y-105556260D01*
X115412068Y-105843158D01*
X115524010Y-106113411D01*
X115686525Y-106356632D01*
X115893368Y-106563475D01*
X116067760Y-106680000D01*
X115893368Y-106796525D01*
X115686525Y-107003368D01*
X115524010Y-107246589D01*
X115412068Y-107516842D01*
X115355000Y-107803740D01*
X115355000Y-108096260D01*
X115412068Y-108383158D01*
X115524010Y-108653411D01*
X115686525Y-108896632D01*
X115818380Y-109028487D01*
X115745820Y-109050498D01*
X115635506Y-109109463D01*
X115538815Y-109188815D01*
X115459463Y-109285506D01*
X115400498Y-109395820D01*
X115364188Y-109515518D01*
X115351928Y-109640000D01*
X115265001Y-109640000D01*
X115265001Y-109343470D01*
X115269282Y-109300001D01*
X115265001Y-109256532D01*
X115265001Y-109256524D01*
X115252196Y-109126511D01*
X115201590Y-108959688D01*
X115201590Y-108959687D01*
X115119412Y-108805942D01*
X115036533Y-108704955D01*
X115008818Y-108671184D01*
X114975045Y-108643467D01*
X114487933Y-108156355D01*
X114487928Y-108156349D01*
X114459414Y-108127835D01*
X114466397Y-108092732D01*
X114466397Y-107810062D01*
X114411250Y-107532823D01*
X114303077Y-107271670D01*
X114146034Y-107036638D01*
X113946156Y-106836760D01*
X113711124Y-106679717D01*
X113449971Y-106571544D01*
X113172732Y-106516397D01*
X112890062Y-106516397D01*
X112612823Y-106571544D01*
X112351670Y-106679717D01*
X112116638Y-106836760D01*
X111916760Y-107036638D01*
X111759717Y-107271670D01*
X111651544Y-107532823D01*
X111596397Y-107810062D01*
X111596397Y-108092732D01*
X111651544Y-108369971D01*
X111759717Y-108631124D01*
X111916760Y-108866156D01*
X112116638Y-109066034D01*
X112347412Y-109220232D01*
X112115241Y-109375363D01*
X111915363Y-109575241D01*
X111895479Y-109605000D01*
X104076719Y-109605000D01*
X101281473Y-106809754D01*
X101458665Y-106845000D01*
X101741335Y-106845000D01*
X102018574Y-106789853D01*
X102279727Y-106681680D01*
X102514759Y-106524637D01*
X102714637Y-106324759D01*
X102871680Y-106089727D01*
X102979853Y-105828574D01*
X103035000Y-105551335D01*
X103035000Y-105268665D01*
X102979853Y-104991426D01*
X102871680Y-104730273D01*
X102714637Y-104495241D01*
X102514759Y-104295363D01*
X102282241Y-104140000D01*
X102514759Y-103984637D01*
X102714637Y-103784759D01*
X102871680Y-103549727D01*
X102979853Y-103288574D01*
X103035000Y-103011335D01*
X103035000Y-102728665D01*
X102979853Y-102451426D01*
X102871680Y-102190273D01*
X102714637Y-101955241D01*
X102514759Y-101755363D01*
X102282241Y-101600000D01*
X102514759Y-101444637D01*
X102714637Y-101244759D01*
X102871680Y-101009727D01*
X102979853Y-100748574D01*
X103035000Y-100471335D01*
X103035000Y-100188665D01*
X102979853Y-99911426D01*
X102871680Y-99650273D01*
X102714637Y-99415241D01*
X102514759Y-99215363D01*
X102282241Y-99060000D01*
X102514759Y-98904637D01*
X102714637Y-98704759D01*
X102871680Y-98469727D01*
X102979853Y-98208574D01*
X103035000Y-97931335D01*
X103035000Y-97648665D01*
X102979853Y-97371426D01*
X102871680Y-97110273D01*
X102714637Y-96875241D01*
X102514759Y-96675363D01*
X102282241Y-96520000D01*
X102514759Y-96364637D01*
X102714637Y-96164759D01*
X102871680Y-95929727D01*
X102979853Y-95668574D01*
X103035000Y-95391335D01*
X103035000Y-95108665D01*
X102979853Y-94831426D01*
X102871680Y-94570273D01*
X102714637Y-94335241D01*
X102514759Y-94135363D01*
X102282241Y-93980000D01*
X102514759Y-93824637D01*
X102714637Y-93624759D01*
X102871680Y-93389727D01*
X102979853Y-93128574D01*
X103035000Y-92851335D01*
X103035000Y-92568665D01*
X102979853Y-92291426D01*
X102871680Y-92030273D01*
X102714637Y-91795241D01*
X102514759Y-91595363D01*
X102282241Y-91440000D01*
X102514759Y-91284637D01*
X102714637Y-91084759D01*
X102871680Y-90849727D01*
X102979853Y-90588574D01*
X103035000Y-90311335D01*
X103035000Y-90028665D01*
X102979853Y-89751426D01*
X102871680Y-89490273D01*
X102714637Y-89255241D01*
X102514759Y-89055363D01*
X102282241Y-88900000D01*
X102514759Y-88744637D01*
X102714637Y-88544759D01*
X102871680Y-88309727D01*
X102979853Y-88048574D01*
X103035000Y-87771335D01*
X103035000Y-87488665D01*
X102979853Y-87211426D01*
X102871680Y-86950273D01*
X102714637Y-86715241D01*
X102514759Y-86515363D01*
X102282241Y-86360000D01*
X102514759Y-86204637D01*
X102714637Y-86004759D01*
X102871680Y-85769727D01*
X102979853Y-85508574D01*
X103035000Y-85231335D01*
X103035000Y-84948665D01*
X102979853Y-84671426D01*
X102871680Y-84410273D01*
X102714637Y-84175241D01*
X102514759Y-83975363D01*
X102282241Y-83820000D01*
X102514759Y-83664637D01*
X102714637Y-83464759D01*
X102871680Y-83229727D01*
X102979853Y-82968574D01*
X103035000Y-82691335D01*
X103035000Y-82408665D01*
X102979853Y-82131426D01*
X102871680Y-81870273D01*
X102714637Y-81635241D01*
X102514759Y-81435363D01*
X102282241Y-81280000D01*
X102514759Y-81124637D01*
X102714637Y-80924759D01*
X102871680Y-80689727D01*
X102979853Y-80428574D01*
X103035000Y-80151335D01*
X103035000Y-79868665D01*
X102979853Y-79591426D01*
X102871680Y-79330273D01*
X102714637Y-79095241D01*
X102514759Y-78895363D01*
X102282241Y-78740000D01*
X102514759Y-78584637D01*
X102714637Y-78384759D01*
X102871680Y-78149727D01*
X102979853Y-77888574D01*
X103035000Y-77611335D01*
X103035000Y-77328665D01*
X102979853Y-77051426D01*
X102871680Y-76790273D01*
X102714637Y-76555241D01*
X102514759Y-76355363D01*
X102282241Y-76200000D01*
X102514759Y-76044637D01*
X102714637Y-75844759D01*
X102871680Y-75609727D01*
X102979853Y-75348574D01*
X103035000Y-75071335D01*
X103035000Y-74788665D01*
X102979853Y-74511426D01*
X102871680Y-74250273D01*
X102714637Y-74015241D01*
X102514759Y-73815363D01*
X102279727Y-73658320D01*
X102269135Y-73653933D01*
X102455131Y-73542385D01*
X102663519Y-73353414D01*
X102831037Y-73127420D01*
X102951246Y-72873087D01*
X102991904Y-72739039D01*
X102869915Y-72517000D01*
X101727000Y-72517000D01*
X101727000Y-72537000D01*
X101473000Y-72537000D01*
X101473000Y-72517000D01*
X100330085Y-72517000D01*
X100208096Y-72739039D01*
X100248754Y-72873087D01*
X100368963Y-73127420D01*
X100536481Y-73353414D01*
X100744869Y-73542385D01*
X100930865Y-73653933D01*
X100920273Y-73658320D01*
X100685241Y-73815363D01*
X100485363Y-74015241D01*
X100328320Y-74250273D01*
X100220147Y-74511426D01*
X100165000Y-74788665D01*
X100165000Y-75071335D01*
X100220147Y-75348574D01*
X100328320Y-75609727D01*
X100485363Y-75844759D01*
X100685241Y-76044637D01*
X100917759Y-76200000D01*
X100685241Y-76355363D01*
X100485363Y-76555241D01*
X100328320Y-76790273D01*
X100220147Y-77051426D01*
X100165000Y-77328665D01*
X100165000Y-77611335D01*
X100220147Y-77888574D01*
X100328320Y-78149727D01*
X100485363Y-78384759D01*
X100685241Y-78584637D01*
X100917759Y-78740000D01*
X100685241Y-78895363D01*
X100485363Y-79095241D01*
X100328320Y-79330273D01*
X100220147Y-79591426D01*
X100165000Y-79868665D01*
X100165000Y-80151335D01*
X100220147Y-80428574D01*
X100328320Y-80689727D01*
X100485363Y-80924759D01*
X100685241Y-81124637D01*
X100917759Y-81280000D01*
X100685241Y-81435363D01*
X100485363Y-81635241D01*
X100328320Y-81870273D01*
X100220147Y-82131426D01*
X100165000Y-82408665D01*
X100165000Y-82691335D01*
X100220147Y-82968574D01*
X100328320Y-83229727D01*
X100485363Y-83464759D01*
X100685241Y-83664637D01*
X100917759Y-83820000D01*
X100685241Y-83975363D01*
X100485363Y-84175241D01*
X100328320Y-84410273D01*
X100220147Y-84671426D01*
X100165000Y-84948665D01*
X100165000Y-85231335D01*
X100220147Y-85508574D01*
X100328320Y-85769727D01*
X100485363Y-86004759D01*
X100685241Y-86204637D01*
X100917759Y-86360000D01*
X100685241Y-86515363D01*
X100485363Y-86715241D01*
X100328320Y-86950273D01*
X100220147Y-87211426D01*
X100165000Y-87488665D01*
X100165000Y-87771335D01*
X100220147Y-88048574D01*
X100328320Y-88309727D01*
X100485363Y-88544759D01*
X100685241Y-88744637D01*
X100917759Y-88900000D01*
X100685241Y-89055363D01*
X100485363Y-89255241D01*
X100328320Y-89490273D01*
X100220147Y-89751426D01*
X100165000Y-90028665D01*
X100165000Y-90311335D01*
X100220147Y-90588574D01*
X100328320Y-90849727D01*
X100485363Y-91084759D01*
X100685241Y-91284637D01*
X100917759Y-91440000D01*
X100685241Y-91595363D01*
X100485363Y-91795241D01*
X100328320Y-92030273D01*
X100220147Y-92291426D01*
X100165000Y-92568665D01*
X100165000Y-92851335D01*
X100220147Y-93128574D01*
X100328320Y-93389727D01*
X100485363Y-93624759D01*
X100685241Y-93824637D01*
X100917759Y-93980000D01*
X100685241Y-94135363D01*
X100485363Y-94335241D01*
X100328320Y-94570273D01*
X100220147Y-94831426D01*
X100165000Y-95108665D01*
X100165000Y-95391335D01*
X100220147Y-95668574D01*
X100328320Y-95929727D01*
X100485363Y-96164759D01*
X100685241Y-96364637D01*
X100917759Y-96520000D01*
X100685241Y-96675363D01*
X100485363Y-96875241D01*
X100328320Y-97110273D01*
X100220147Y-97371426D01*
X100165000Y-97648665D01*
X100165000Y-97931335D01*
X100220147Y-98208574D01*
X100328320Y-98469727D01*
X100485363Y-98704759D01*
X100685241Y-98904637D01*
X100917759Y-99060000D01*
X100685241Y-99215363D01*
X100485363Y-99415241D01*
X100328320Y-99650273D01*
X100220147Y-99911426D01*
X100165000Y-100188665D01*
X100165000Y-100471335D01*
X100220147Y-100748574D01*
X100328320Y-101009727D01*
X100485363Y-101244759D01*
X100685241Y-101444637D01*
X100917759Y-101600000D01*
X100685241Y-101755363D01*
X100485363Y-101955241D01*
X100328320Y-102190273D01*
X100220147Y-102451426D01*
X100165000Y-102728665D01*
X100165000Y-103011335D01*
X100220147Y-103288574D01*
X100328320Y-103549727D01*
X100485363Y-103784759D01*
X100685241Y-103984637D01*
X100917759Y-104140000D01*
X100685241Y-104295363D01*
X100645406Y-104335198D01*
X98023447Y-101713239D01*
X98283665Y-101765000D01*
X98566335Y-101765000D01*
X98843574Y-101709853D01*
X99104727Y-101601680D01*
X99339759Y-101444637D01*
X99539637Y-101244759D01*
X99696680Y-101009727D01*
X99804853Y-100748574D01*
X99860000Y-100471335D01*
X99860000Y-100188665D01*
X99804853Y-99911426D01*
X99696680Y-99650273D01*
X99539637Y-99415241D01*
X99339759Y-99215363D01*
X99107241Y-99060000D01*
X99339759Y-98904637D01*
X99539637Y-98704759D01*
X99696680Y-98469727D01*
X99804853Y-98208574D01*
X99860000Y-97931335D01*
X99860000Y-97648665D01*
X99804853Y-97371426D01*
X99696680Y-97110273D01*
X99539637Y-96875241D01*
X99339759Y-96675363D01*
X99104727Y-96518320D01*
X98843574Y-96410147D01*
X98566335Y-96355000D01*
X98283665Y-96355000D01*
X98248562Y-96361983D01*
X94865000Y-92978422D01*
X94865000Y-86450619D01*
X94911436Y-86469853D01*
X95188675Y-86525000D01*
X95471345Y-86525000D01*
X95748584Y-86469853D01*
X96009737Y-86361680D01*
X96244769Y-86204637D01*
X96444647Y-86004759D01*
X96461691Y-85979250D01*
X96504849Y-85975000D01*
X96504857Y-85975000D01*
X96634870Y-85962195D01*
X96801693Y-85911589D01*
X96955439Y-85829411D01*
X97090197Y-85718817D01*
X97117914Y-85685044D01*
X98465056Y-84337903D01*
X98498824Y-84310190D01*
X98533112Y-84268411D01*
X98609417Y-84175433D01*
X98626556Y-84143368D01*
X98691596Y-84021686D01*
X98742202Y-83854863D01*
X98755007Y-83724850D01*
X98755007Y-83724840D01*
X98759288Y-83681374D01*
X98755007Y-83637908D01*
X98755007Y-69708665D01*
X100165000Y-69708665D01*
X100165000Y-69991335D01*
X100220147Y-70268574D01*
X100328320Y-70529727D01*
X100485363Y-70764759D01*
X100685241Y-70964637D01*
X100920273Y-71121680D01*
X100930865Y-71126067D01*
X100744869Y-71237615D01*
X100536481Y-71426586D01*
X100368963Y-71652580D01*
X100248754Y-71906913D01*
X100208096Y-72040961D01*
X100330085Y-72263000D01*
X101473000Y-72263000D01*
X101473000Y-72243000D01*
X101727000Y-72243000D01*
X101727000Y-72263000D01*
X102869915Y-72263000D01*
X102991904Y-72040961D01*
X102951246Y-71906913D01*
X102831037Y-71652580D01*
X102663519Y-71426586D01*
X102455131Y-71237615D01*
X102269135Y-71126067D01*
X102279727Y-71121680D01*
X102514759Y-70964637D01*
X102714637Y-70764759D01*
X102871680Y-70529727D01*
X102979853Y-70268574D01*
X103035000Y-69991335D01*
X103035000Y-69708665D01*
X103033010Y-69698656D01*
X103975000Y-69698656D01*
X103975000Y-69981326D01*
X104030147Y-70258565D01*
X104138320Y-70519718D01*
X104295363Y-70754750D01*
X104425001Y-70884388D01*
X104425000Y-73885604D01*
X104295363Y-74015241D01*
X104138320Y-74250273D01*
X104030147Y-74511426D01*
X103975000Y-74788665D01*
X103975000Y-75071335D01*
X104030147Y-75348574D01*
X104138320Y-75609727D01*
X104295363Y-75844759D01*
X104495241Y-76044637D01*
X104730273Y-76201680D01*
X104991426Y-76309853D01*
X105268665Y-76365000D01*
X105551335Y-76365000D01*
X105828574Y-76309853D01*
X106089727Y-76201680D01*
X106324759Y-76044637D01*
X106524637Y-75844759D01*
X106681680Y-75609727D01*
X106789853Y-75348574D01*
X106845000Y-75071335D01*
X106845000Y-74788665D01*
X106789853Y-74511426D01*
X106681680Y-74250273D01*
X106524637Y-74015241D01*
X106395000Y-73885604D01*
X106395000Y-70884387D01*
X106524637Y-70754750D01*
X106681680Y-70519718D01*
X106789853Y-70258565D01*
X106845000Y-69981326D01*
X106845000Y-69698656D01*
X106839291Y-69669957D01*
X107302823Y-70133489D01*
X107898182Y-70531295D01*
X108559710Y-70805309D01*
X109261984Y-70945000D01*
X109978016Y-70945000D01*
X110680290Y-70805309D01*
X111341818Y-70531295D01*
X111937177Y-70133489D01*
X112443489Y-69627177D01*
X112841295Y-69031818D01*
X113115309Y-68370290D01*
X113255000Y-67668016D01*
X113255000Y-66951984D01*
X113115309Y-66249710D01*
X112841295Y-65588182D01*
X112443489Y-64992823D01*
X111937177Y-64486511D01*
X111341818Y-64088705D01*
X110680290Y-63814691D01*
X109978016Y-63675000D01*
X109261984Y-63675000D01*
X108559710Y-63814691D01*
X107898182Y-64088705D01*
X107302823Y-64486511D01*
X106796511Y-64992823D01*
X106398705Y-65588182D01*
X106124691Y-66249710D01*
X105985000Y-66951984D01*
X105985000Y-67668016D01*
X106124691Y-68370290D01*
X106251483Y-68676393D01*
X106089727Y-68568311D01*
X105828574Y-68460138D01*
X105551335Y-68404991D01*
X105268665Y-68404991D01*
X104991426Y-68460138D01*
X104730273Y-68568311D01*
X104495241Y-68725354D01*
X104295363Y-68925232D01*
X104138320Y-69160264D01*
X104030147Y-69421417D01*
X103975000Y-69698656D01*
X103033010Y-69698656D01*
X102979853Y-69431426D01*
X102871680Y-69170273D01*
X102714637Y-68935241D01*
X102514759Y-68735363D01*
X102279727Y-68578320D01*
X102018574Y-68470147D01*
X101741335Y-68415000D01*
X101458665Y-68415000D01*
X101181426Y-68470147D01*
X100920273Y-68578320D01*
X100685241Y-68735363D01*
X100485363Y-68935241D01*
X100328320Y-69170273D01*
X100220147Y-69431426D01*
X100165000Y-69708665D01*
X98755007Y-69708665D01*
X98755007Y-66326571D01*
X111384688Y-53696890D01*
X117938524Y-53696890D01*
X117983175Y-53844099D01*
X118108359Y-54106920D01*
X118282412Y-54340269D01*
X118498645Y-54535178D01*
X118748748Y-54684157D01*
X119023109Y-54781481D01*
X119253000Y-54660814D01*
X119253000Y-53467000D01*
X119507000Y-53467000D01*
X119507000Y-54660814D01*
X119736891Y-54781481D01*
X120011252Y-54684157D01*
X120261355Y-54535178D01*
X120477588Y-54340269D01*
X120651641Y-54106920D01*
X120776825Y-53844099D01*
X120821476Y-53696890D01*
X120700155Y-53467000D01*
X119507000Y-53467000D01*
X119253000Y-53467000D01*
X118059845Y-53467000D01*
X117938524Y-53696890D01*
X111384688Y-53696890D01*
X115393562Y-49688017D01*
X115428665Y-49695000D01*
X115711335Y-49695000D01*
X115988574Y-49639853D01*
X116249727Y-49531680D01*
X116484759Y-49374637D01*
X116684637Y-49174759D01*
X116841680Y-48939727D01*
X116949853Y-48678574D01*
X117005000Y-48401335D01*
X117005000Y-48118665D01*
X116949853Y-47841426D01*
X116841680Y-47580273D01*
X116684637Y-47345241D01*
X116484759Y-47145363D01*
X116252241Y-46990000D01*
X116484759Y-46834637D01*
X116684637Y-46634759D01*
X116841680Y-46399727D01*
X116949853Y-46138574D01*
X117005000Y-45861335D01*
X117005000Y-45578665D01*
X116949853Y-45301426D01*
X116841680Y-45040273D01*
X116727908Y-44870000D01*
X117891928Y-44870000D01*
X117891928Y-46570000D01*
X117904188Y-46694482D01*
X117940498Y-46814180D01*
X117999463Y-46924494D01*
X118078815Y-47021185D01*
X118175506Y-47100537D01*
X118285820Y-47159502D01*
X118358380Y-47181513D01*
X118226525Y-47313368D01*
X118064010Y-47556589D01*
X117952068Y-47826842D01*
X117895000Y-48113740D01*
X117895000Y-48406260D01*
X117952068Y-48693158D01*
X118064010Y-48963411D01*
X118226525Y-49206632D01*
X118433368Y-49413475D01*
X118607760Y-49530000D01*
X118433368Y-49646525D01*
X118226525Y-49853368D01*
X118064010Y-50096589D01*
X117952068Y-50366842D01*
X117895000Y-50653740D01*
X117895000Y-50946260D01*
X117952068Y-51233158D01*
X118064010Y-51503411D01*
X118226525Y-51746632D01*
X118433368Y-51953475D01*
X118615534Y-52075195D01*
X118498645Y-52144822D01*
X118282412Y-52339731D01*
X118108359Y-52573080D01*
X117983175Y-52835901D01*
X117938524Y-52983110D01*
X118059845Y-53213000D01*
X119253000Y-53213000D01*
X119253000Y-53193000D01*
X119507000Y-53193000D01*
X119507000Y-53213000D01*
X120700155Y-53213000D01*
X120821476Y-52983110D01*
X120776825Y-52835901D01*
X120651641Y-52573080D01*
X120477588Y-52339731D01*
X120261355Y-52144822D01*
X120144466Y-52075195D01*
X120326632Y-51953475D01*
X120533475Y-51746632D01*
X120695990Y-51503411D01*
X120807932Y-51233158D01*
X120865000Y-50946260D01*
X120865000Y-50653740D01*
X120807932Y-50366842D01*
X120695990Y-50096589D01*
X120533475Y-49853368D01*
X120326632Y-49646525D01*
X120152240Y-49530000D01*
X120326632Y-49413475D01*
X120533475Y-49206632D01*
X120695990Y-48963411D01*
X120807932Y-48693158D01*
X120865000Y-48406260D01*
X120865000Y-48113740D01*
X120807932Y-47826842D01*
X120695990Y-47556589D01*
X120533475Y-47313368D01*
X120401620Y-47181513D01*
X120474180Y-47159502D01*
X120584494Y-47100537D01*
X120681185Y-47021185D01*
X120760537Y-46924494D01*
X120819502Y-46814180D01*
X120855812Y-46694482D01*
X120868072Y-46570000D01*
X120868072Y-44870000D01*
X120855812Y-44745518D01*
X120819502Y-44625820D01*
X120760537Y-44515506D01*
X120681185Y-44418815D01*
X120584494Y-44339463D01*
X120474180Y-44280498D01*
X120354482Y-44244188D01*
X120230000Y-44231928D01*
X118530000Y-44231928D01*
X118405518Y-44244188D01*
X118285820Y-44280498D01*
X118175506Y-44339463D01*
X118078815Y-44418815D01*
X117999463Y-44515506D01*
X117940498Y-44625820D01*
X117904188Y-44745518D01*
X117891928Y-44870000D01*
X116727908Y-44870000D01*
X116684637Y-44805241D01*
X116484759Y-44605363D01*
X116249727Y-44448320D01*
X115988574Y-44340147D01*
X115711335Y-44285000D01*
X115428665Y-44285000D01*
X115151426Y-44340147D01*
X114890273Y-44448320D01*
X114655241Y-44605363D01*
X114455363Y-44805241D01*
X114298320Y-45040273D01*
X114190147Y-45301426D01*
X114135000Y-45578665D01*
X114135000Y-45861335D01*
X114141983Y-45896438D01*
X94654962Y-65383460D01*
X94621189Y-65411177D01*
X94510595Y-65545936D01*
X94428417Y-65699682D01*
X94377811Y-65866505D01*
X94365006Y-65996518D01*
X94365006Y-65996525D01*
X94360725Y-66039994D01*
X94365006Y-66083463D01*
X94365006Y-68983427D01*
X89556534Y-64174956D01*
X89528817Y-64141183D01*
X89394059Y-64030589D01*
X89240313Y-63948411D01*
X89073490Y-63897805D01*
X88943477Y-63885000D01*
X88943469Y-63885000D01*
X88900000Y-63880719D01*
X88856531Y-63885000D01*
X82163469Y-63885000D01*
X82120000Y-63880719D01*
X82076531Y-63885000D01*
X82076523Y-63885000D01*
X81946510Y-63897805D01*
X81779687Y-63948411D01*
X81721267Y-63979637D01*
X81625941Y-64030589D01*
X81524953Y-64113468D01*
X81524951Y-64113470D01*
X81491183Y-64141183D01*
X81463470Y-64174951D01*
X70981525Y-74656897D01*
X70796033Y-74620000D01*
X70473967Y-74620000D01*
X70158088Y-74682832D01*
X69860537Y-74806082D01*
X69592748Y-74985013D01*
X69365013Y-75212748D01*
X69186082Y-75480537D01*
X69062832Y-75778088D01*
X69000000Y-76093967D01*
X69000000Y-76416033D01*
X69062832Y-76731912D01*
X69186082Y-77029463D01*
X69365013Y-77297252D01*
X69592748Y-77524987D01*
X69860537Y-77703918D01*
X70158088Y-77827168D01*
X70473967Y-77890000D01*
X70796033Y-77890000D01*
X71111912Y-77827168D01*
X71409463Y-77703918D01*
X71677252Y-77524987D01*
X71904987Y-77297252D01*
X72083918Y-77029463D01*
X72207168Y-76731912D01*
X72270000Y-76416033D01*
X72270000Y-76093967D01*
X72233103Y-75908475D01*
X82486579Y-65655000D01*
X88533422Y-65655000D01*
X90261663Y-67383241D01*
X90234060Y-67360588D01*
X90080314Y-67278410D01*
X89913491Y-67227804D01*
X89783478Y-67214999D01*
X89783470Y-67214999D01*
X89740001Y-67210718D01*
X89696532Y-67214999D01*
X84843468Y-67214999D01*
X84799999Y-67210718D01*
X84756530Y-67214999D01*
X84756522Y-67214999D01*
X84626509Y-67227804D01*
X84459686Y-67278410D01*
X84305940Y-67360588D01*
X84171182Y-67471182D01*
X84143465Y-67504955D01*
X84014951Y-67633469D01*
X83981183Y-67661182D01*
X83953470Y-67694950D01*
X83953467Y-67694953D01*
X83870589Y-67795940D01*
X83788411Y-67949686D01*
X83737804Y-68116509D01*
X83720718Y-68289999D01*
X83725000Y-68333478D01*
X83724999Y-78853422D01*
X77646439Y-84931983D01*
X77611335Y-84925000D01*
X77328665Y-84925000D01*
X77051426Y-84980147D01*
X76790273Y-85088320D01*
X76555241Y-85245363D01*
X76355363Y-85445241D01*
X76198320Y-85680273D01*
X76090147Y-85941426D01*
X76035000Y-86218665D01*
X76035000Y-86501335D01*
X76090147Y-86778574D01*
X76198320Y-87039727D01*
X76355363Y-87274759D01*
X76555241Y-87474637D01*
X76787759Y-87630000D01*
X76555241Y-87785363D01*
X76355363Y-87985241D01*
X76198320Y-88220273D01*
X76090147Y-88481426D01*
X76035000Y-88758665D01*
X76035000Y-89041335D01*
X76090147Y-89318574D01*
X76198320Y-89579727D01*
X76355363Y-89814759D01*
X76555241Y-90014637D01*
X76787759Y-90170000D01*
X76555241Y-90325363D01*
X76355363Y-90525241D01*
X76198320Y-90760273D01*
X76090147Y-91021426D01*
X76035000Y-91298665D01*
X76035000Y-91581335D01*
X76090147Y-91858574D01*
X76198320Y-92119727D01*
X76355363Y-92354759D01*
X76555241Y-92554637D01*
X76790273Y-92711680D01*
X76800865Y-92716067D01*
X76614869Y-92827615D01*
X76406481Y-93016586D01*
X76238963Y-93242580D01*
X76118754Y-93496913D01*
X76078096Y-93630961D01*
X76200085Y-93853000D01*
X77343000Y-93853000D01*
X77343000Y-93833000D01*
X77597000Y-93833000D01*
X77597000Y-93853000D01*
X78739915Y-93853000D01*
X78861904Y-93630961D01*
X78821246Y-93496913D01*
X78701037Y-93242580D01*
X78533519Y-93016586D01*
X78325131Y-92827615D01*
X78139135Y-92716067D01*
X78149727Y-92711680D01*
X78384759Y-92554637D01*
X78584637Y-92354759D01*
X78741680Y-92119727D01*
X78849853Y-91858574D01*
X78905000Y-91581335D01*
X78905000Y-91298665D01*
X78849853Y-91021426D01*
X78741680Y-90760273D01*
X78584637Y-90525241D01*
X78384759Y-90325363D01*
X78152241Y-90170000D01*
X78384759Y-90014637D01*
X78584637Y-89814759D01*
X78741680Y-89579727D01*
X78849853Y-89318574D01*
X78905000Y-89041335D01*
X78905000Y-88758665D01*
X78849853Y-88481426D01*
X78741680Y-88220273D01*
X78584637Y-87985241D01*
X78384759Y-87785363D01*
X78152241Y-87630000D01*
X78384759Y-87474637D01*
X78584637Y-87274759D01*
X78741680Y-87039727D01*
X78849853Y-86778574D01*
X78905000Y-86501335D01*
X78905000Y-86218665D01*
X78898017Y-86183561D01*
X84925870Y-80155709D01*
X84980147Y-80428574D01*
X85088320Y-80689727D01*
X85245363Y-80924759D01*
X85445241Y-81124637D01*
X85677759Y-81280000D01*
X85445241Y-81435363D01*
X85245363Y-81635241D01*
X85088320Y-81870273D01*
X84980147Y-82131426D01*
X84925000Y-82408665D01*
X84925000Y-82691335D01*
X84980147Y-82968574D01*
X85088320Y-83229727D01*
X85245363Y-83464759D01*
X85445241Y-83664637D01*
X85677759Y-83820000D01*
X85445241Y-83975363D01*
X85245363Y-84175241D01*
X85088320Y-84410273D01*
X84980147Y-84671426D01*
X84925000Y-84948665D01*
X84925000Y-85231335D01*
X84980147Y-85508574D01*
X85088320Y-85769727D01*
X85245363Y-86004759D01*
X85445241Y-86204637D01*
X85677759Y-86360000D01*
X85445241Y-86515363D01*
X85245363Y-86715241D01*
X85088320Y-86950273D01*
X84980147Y-87211426D01*
X84925000Y-87488665D01*
X84925000Y-87771335D01*
X84980147Y-88048574D01*
X85088320Y-88309727D01*
X85245363Y-88544759D01*
X85445241Y-88744637D01*
X85677759Y-88900000D01*
X85445241Y-89055363D01*
X85245363Y-89255241D01*
X85088320Y-89490273D01*
X84980147Y-89751426D01*
X84925000Y-90028665D01*
X84925000Y-90311335D01*
X84980147Y-90588574D01*
X85088320Y-90849727D01*
X85245363Y-91084759D01*
X85445241Y-91284637D01*
X85677759Y-91440000D01*
X85445241Y-91595363D01*
X85245363Y-91795241D01*
X85088320Y-92030273D01*
X84980147Y-92291426D01*
X84925000Y-92568665D01*
X84925000Y-92851335D01*
X84980147Y-93128574D01*
X85088320Y-93389727D01*
X85245363Y-93624759D01*
X85445241Y-93824637D01*
X85677759Y-93980000D01*
X85445241Y-94135363D01*
X85245363Y-94335241D01*
X85088320Y-94570273D01*
X84980147Y-94831426D01*
X84925000Y-95108665D01*
X84925000Y-95391335D01*
X84980147Y-95668574D01*
X85088320Y-95929727D01*
X85245363Y-96164759D01*
X85445241Y-96364637D01*
X85677759Y-96520000D01*
X85445241Y-96675363D01*
X85245363Y-96875241D01*
X85088320Y-97110273D01*
X84980147Y-97371426D01*
X84925000Y-97648665D01*
X84925000Y-97931335D01*
X84980147Y-98208574D01*
X85088320Y-98469727D01*
X85245363Y-98704759D01*
X85445241Y-98904637D01*
X85677759Y-99060000D01*
X85445241Y-99215363D01*
X85245363Y-99415241D01*
X85088320Y-99650273D01*
X84980147Y-99911426D01*
X84925000Y-100188665D01*
X84925000Y-100471335D01*
X84980147Y-100748574D01*
X85088320Y-101009727D01*
X85245363Y-101244759D01*
X85445241Y-101444637D01*
X85677759Y-101600000D01*
X85445241Y-101755363D01*
X85245363Y-101955241D01*
X85088320Y-102190273D01*
X84980147Y-102451426D01*
X84925000Y-102728665D01*
X84925000Y-103011335D01*
X84980147Y-103288574D01*
X85088320Y-103549727D01*
X85245363Y-103784759D01*
X85445241Y-103984637D01*
X85677759Y-104140000D01*
X85445241Y-104295363D01*
X85245363Y-104495241D01*
X85088320Y-104730273D01*
X84980147Y-104991426D01*
X84925000Y-105268665D01*
X84925000Y-105551335D01*
X84980147Y-105828574D01*
X85088320Y-106089727D01*
X85245363Y-106324759D01*
X85445241Y-106524637D01*
X85680273Y-106681680D01*
X85941426Y-106789853D01*
X86218665Y-106845000D01*
X86501335Y-106845000D01*
X86778574Y-106789853D01*
X87039727Y-106681680D01*
X87274759Y-106524637D01*
X87474637Y-106324759D01*
X87631680Y-106089727D01*
X87739853Y-105828574D01*
X87795000Y-105551335D01*
X87795000Y-105268665D01*
X87739853Y-104991426D01*
X87631680Y-104730273D01*
X87474637Y-104495241D01*
X87274759Y-104295363D01*
X87042241Y-104140000D01*
X87274759Y-103984637D01*
X87474637Y-103784759D01*
X87631680Y-103549727D01*
X87739853Y-103288574D01*
X87794130Y-103015708D01*
X99688421Y-114910000D01*
X51460000Y-114910000D01*
X51460000Y-110766984D01*
X80820000Y-110766984D01*
X80820000Y-111483016D01*
X80959691Y-112185290D01*
X81233705Y-112846818D01*
X81631511Y-113442177D01*
X82137823Y-113948489D01*
X82733182Y-114346295D01*
X83394710Y-114620309D01*
X84096984Y-114760000D01*
X84813016Y-114760000D01*
X85515290Y-114620309D01*
X86176818Y-114346295D01*
X86772177Y-113948489D01*
X87278489Y-113442177D01*
X87676295Y-112846818D01*
X87950309Y-112185290D01*
X88090000Y-111483016D01*
X88090000Y-110766984D01*
X87950309Y-110064710D01*
X87676295Y-109403182D01*
X87278489Y-108807823D01*
X86772177Y-108301511D01*
X86176818Y-107903705D01*
X85515290Y-107629691D01*
X84813016Y-107490000D01*
X84096984Y-107490000D01*
X83394710Y-107629691D01*
X82733182Y-107903705D01*
X82137823Y-108301511D01*
X81631511Y-108807823D01*
X81233705Y-109403182D01*
X80959691Y-110064710D01*
X80820000Y-110766984D01*
X51460000Y-110766984D01*
X51460000Y-95103740D01*
X53633000Y-95103740D01*
X53633000Y-95396260D01*
X53690068Y-95683158D01*
X53802010Y-95953411D01*
X53964525Y-96196632D01*
X54171368Y-96403475D01*
X54345760Y-96520000D01*
X54171368Y-96636525D01*
X53964525Y-96843368D01*
X53802010Y-97086589D01*
X53690068Y-97356842D01*
X53633000Y-97643740D01*
X53633000Y-97936260D01*
X53690068Y-98223158D01*
X53802010Y-98493411D01*
X53964525Y-98736632D01*
X54171368Y-98943475D01*
X54345760Y-99060000D01*
X54171368Y-99176525D01*
X53964525Y-99383368D01*
X53802010Y-99626589D01*
X53690068Y-99896842D01*
X53633000Y-100183740D01*
X53633000Y-100476260D01*
X53690068Y-100763158D01*
X53802010Y-101033411D01*
X53964525Y-101276632D01*
X54171368Y-101483475D01*
X54414589Y-101645990D01*
X54684842Y-101757932D01*
X54971740Y-101815000D01*
X55264260Y-101815000D01*
X55551158Y-101757932D01*
X55821411Y-101645990D01*
X56064632Y-101483475D01*
X56271475Y-101276632D01*
X56433990Y-101033411D01*
X56545932Y-100763158D01*
X56603000Y-100476260D01*
X56603000Y-100183740D01*
X56545932Y-99896842D01*
X56433990Y-99626589D01*
X56271475Y-99383368D01*
X56064632Y-99176525D01*
X55890240Y-99060000D01*
X56064632Y-98943475D01*
X56271475Y-98736632D01*
X56433990Y-98493411D01*
X56545932Y-98223158D01*
X56603000Y-97936260D01*
X56603000Y-97643740D01*
X56545932Y-97356842D01*
X56433990Y-97086589D01*
X56271475Y-96843368D01*
X56064632Y-96636525D01*
X55890240Y-96520000D01*
X56064632Y-96403475D01*
X56271475Y-96196632D01*
X56433990Y-95953411D01*
X56545932Y-95683158D01*
X56603000Y-95396260D01*
X56603000Y-95103740D01*
X58205000Y-95103740D01*
X58205000Y-95396260D01*
X58262068Y-95683158D01*
X58374010Y-95953411D01*
X58536525Y-96196632D01*
X58743368Y-96403475D01*
X58917760Y-96520000D01*
X58743368Y-96636525D01*
X58536525Y-96843368D01*
X58374010Y-97086589D01*
X58262068Y-97356842D01*
X58205000Y-97643740D01*
X58205000Y-97936260D01*
X58262068Y-98223158D01*
X58374010Y-98493411D01*
X58536525Y-98736632D01*
X58743368Y-98943475D01*
X58917760Y-99060000D01*
X58743368Y-99176525D01*
X58536525Y-99383368D01*
X58374010Y-99626589D01*
X58262068Y-99896842D01*
X58205000Y-100183740D01*
X58205000Y-100476260D01*
X58262068Y-100763158D01*
X58374010Y-101033411D01*
X58536525Y-101276632D01*
X58743368Y-101483475D01*
X58986589Y-101645990D01*
X59256842Y-101757932D01*
X59543740Y-101815000D01*
X59836260Y-101815000D01*
X60123158Y-101757932D01*
X60393411Y-101645990D01*
X60636632Y-101483475D01*
X60843475Y-101276632D01*
X61005990Y-101033411D01*
X61117932Y-100763158D01*
X61175000Y-100476260D01*
X61175000Y-100183740D01*
X61117932Y-99896842D01*
X61005990Y-99626589D01*
X60843475Y-99383368D01*
X60636632Y-99176525D01*
X60462240Y-99060000D01*
X60636632Y-98943475D01*
X60843475Y-98736632D01*
X61005990Y-98493411D01*
X61117932Y-98223158D01*
X61175000Y-97936260D01*
X61175000Y-97643740D01*
X61117932Y-97356842D01*
X61005990Y-97086589D01*
X60843475Y-96843368D01*
X60636632Y-96636525D01*
X60462240Y-96520000D01*
X60636632Y-96403475D01*
X60843475Y-96196632D01*
X61005990Y-95953411D01*
X61117932Y-95683158D01*
X61175000Y-95396260D01*
X61175000Y-95103740D01*
X61117932Y-94816842D01*
X61005990Y-94546589D01*
X60843475Y-94303368D01*
X60636632Y-94096525D01*
X60454466Y-93974805D01*
X60571355Y-93905178D01*
X60787588Y-93710269D01*
X60961641Y-93476920D01*
X61086825Y-93214099D01*
X61131476Y-93066890D01*
X61010155Y-92837000D01*
X59817000Y-92837000D01*
X59817000Y-92857000D01*
X59563000Y-92857000D01*
X59563000Y-92837000D01*
X58369845Y-92837000D01*
X58248524Y-93066890D01*
X58293175Y-93214099D01*
X58418359Y-93476920D01*
X58592412Y-93710269D01*
X58808645Y-93905178D01*
X58925534Y-93974805D01*
X58743368Y-94096525D01*
X58536525Y-94303368D01*
X58374010Y-94546589D01*
X58262068Y-94816842D01*
X58205000Y-95103740D01*
X56603000Y-95103740D01*
X56545932Y-94816842D01*
X56433990Y-94546589D01*
X56271475Y-94303368D01*
X56064632Y-94096525D01*
X55882466Y-93974805D01*
X55999355Y-93905178D01*
X56215588Y-93710269D01*
X56389641Y-93476920D01*
X56514825Y-93214099D01*
X56559476Y-93066890D01*
X56438155Y-92837000D01*
X55245000Y-92837000D01*
X55245000Y-92857000D01*
X54991000Y-92857000D01*
X54991000Y-92837000D01*
X53797845Y-92837000D01*
X53676524Y-93066890D01*
X53721175Y-93214099D01*
X53846359Y-93476920D01*
X54020412Y-93710269D01*
X54236645Y-93905178D01*
X54353534Y-93974805D01*
X54171368Y-94096525D01*
X53964525Y-94303368D01*
X53802010Y-94546589D01*
X53690068Y-94816842D01*
X53633000Y-95103740D01*
X51460000Y-95103740D01*
X51460000Y-90023740D01*
X53633000Y-90023740D01*
X53633000Y-90316260D01*
X53690068Y-90603158D01*
X53802010Y-90873411D01*
X53964525Y-91116632D01*
X54171368Y-91323475D01*
X54353534Y-91445195D01*
X54236645Y-91514822D01*
X54020412Y-91709731D01*
X53846359Y-91943080D01*
X53721175Y-92205901D01*
X53676524Y-92353110D01*
X53797845Y-92583000D01*
X54991000Y-92583000D01*
X54991000Y-92563000D01*
X55245000Y-92563000D01*
X55245000Y-92583000D01*
X56438155Y-92583000D01*
X56559476Y-92353110D01*
X56514825Y-92205901D01*
X56389641Y-91943080D01*
X56215588Y-91709731D01*
X55999355Y-91514822D01*
X55882466Y-91445195D01*
X56064632Y-91323475D01*
X56271475Y-91116632D01*
X56433990Y-90873411D01*
X56545932Y-90603158D01*
X56603000Y-90316260D01*
X56603000Y-90023740D01*
X58205000Y-90023740D01*
X58205000Y-90316260D01*
X58262068Y-90603158D01*
X58374010Y-90873411D01*
X58536525Y-91116632D01*
X58743368Y-91323475D01*
X58925534Y-91445195D01*
X58808645Y-91514822D01*
X58592412Y-91709731D01*
X58418359Y-91943080D01*
X58293175Y-92205901D01*
X58248524Y-92353110D01*
X58369845Y-92583000D01*
X59563000Y-92583000D01*
X59563000Y-92563000D01*
X59817000Y-92563000D01*
X59817000Y-92583000D01*
X61010155Y-92583000D01*
X61131476Y-92353110D01*
X61086825Y-92205901D01*
X60961641Y-91943080D01*
X60787588Y-91709731D01*
X60571355Y-91514822D01*
X60454466Y-91445195D01*
X60636632Y-91323475D01*
X60843475Y-91116632D01*
X61005990Y-90873411D01*
X61117932Y-90603158D01*
X61175000Y-90316260D01*
X61175000Y-90023740D01*
X61117932Y-89736842D01*
X61005990Y-89466589D01*
X60843475Y-89223368D01*
X60636632Y-89016525D01*
X60454466Y-88894805D01*
X60571355Y-88825178D01*
X60645144Y-88758665D01*
X62065000Y-88758665D01*
X62065000Y-89041335D01*
X62120147Y-89318574D01*
X62228320Y-89579727D01*
X62385363Y-89814759D01*
X62585241Y-90014637D01*
X62615001Y-90034522D01*
X62615000Y-97266531D01*
X62610719Y-97310000D01*
X62615000Y-97353469D01*
X62615000Y-97353476D01*
X62627805Y-97483489D01*
X62678411Y-97650312D01*
X62760589Y-97804058D01*
X62871183Y-97938817D01*
X62904956Y-97966534D01*
X63048861Y-98110439D01*
X63041878Y-98145543D01*
X63041878Y-98428213D01*
X63097025Y-98705452D01*
X63205198Y-98966605D01*
X63362241Y-99201637D01*
X63562119Y-99401515D01*
X63797151Y-99558558D01*
X64058304Y-99666731D01*
X64335543Y-99721878D01*
X64618213Y-99721878D01*
X64895452Y-99666731D01*
X65156605Y-99558558D01*
X65391637Y-99401515D01*
X65591515Y-99201637D01*
X65748558Y-98966605D01*
X65856731Y-98705452D01*
X65911878Y-98428213D01*
X65911878Y-98145543D01*
X65856731Y-97868304D01*
X65748558Y-97607151D01*
X65591515Y-97372119D01*
X65391637Y-97172241D01*
X65156605Y-97015198D01*
X64895452Y-96907025D01*
X64618213Y-96851878D01*
X64385000Y-96851878D01*
X64385000Y-96378665D01*
X65875000Y-96378665D01*
X65875000Y-96661335D01*
X65930147Y-96938574D01*
X66038320Y-97199727D01*
X66195363Y-97434759D01*
X66395241Y-97634637D01*
X66627759Y-97790000D01*
X66395241Y-97945363D01*
X66195363Y-98145241D01*
X66038320Y-98380273D01*
X65930147Y-98641426D01*
X65875000Y-98918665D01*
X65875000Y-99201335D01*
X65930147Y-99478574D01*
X66038320Y-99739727D01*
X66195363Y-99974759D01*
X66395241Y-100174637D01*
X66630273Y-100331680D01*
X66891426Y-100439853D01*
X67168665Y-100495000D01*
X67451335Y-100495000D01*
X67728574Y-100439853D01*
X67989727Y-100331680D01*
X68224759Y-100174637D01*
X68424637Y-99974759D01*
X68581680Y-99739727D01*
X68689853Y-99478574D01*
X68745000Y-99201335D01*
X68745000Y-98918665D01*
X68689853Y-98641426D01*
X68581680Y-98380273D01*
X68424637Y-98145241D01*
X68224759Y-97945363D01*
X67992241Y-97790000D01*
X68224759Y-97634637D01*
X68424637Y-97434759D01*
X68581680Y-97199727D01*
X68689853Y-96938574D01*
X68745000Y-96661335D01*
X68745000Y-96378665D01*
X76035000Y-96378665D01*
X76035000Y-96661335D01*
X76090147Y-96938574D01*
X76198320Y-97199727D01*
X76355363Y-97434759D01*
X76555241Y-97634637D01*
X76787759Y-97790000D01*
X76555241Y-97945363D01*
X76355363Y-98145241D01*
X76198320Y-98380273D01*
X76090147Y-98641426D01*
X76035000Y-98918665D01*
X76035000Y-99201335D01*
X76090147Y-99478574D01*
X76198320Y-99739727D01*
X76355363Y-99974759D01*
X76555241Y-100174637D01*
X76790273Y-100331680D01*
X77051426Y-100439853D01*
X77328665Y-100495000D01*
X77611335Y-100495000D01*
X77888574Y-100439853D01*
X78149727Y-100331680D01*
X78384759Y-100174637D01*
X78584637Y-99974759D01*
X78741680Y-99739727D01*
X78849853Y-99478574D01*
X78905000Y-99201335D01*
X78905000Y-98918665D01*
X78849853Y-98641426D01*
X78741680Y-98380273D01*
X78584637Y-98145241D01*
X78384759Y-97945363D01*
X78152241Y-97790000D01*
X78384759Y-97634637D01*
X78584637Y-97434759D01*
X78740000Y-97202241D01*
X78895363Y-97434759D01*
X79095241Y-97634637D01*
X79330273Y-97791680D01*
X79591426Y-97899853D01*
X79868665Y-97955000D01*
X79914999Y-97955000D01*
X79915000Y-100466920D01*
X79910718Y-100510399D01*
X79927804Y-100683889D01*
X79978411Y-100850712D01*
X80060589Y-101004458D01*
X80143467Y-101105445D01*
X80143470Y-101105448D01*
X80171183Y-101139216D01*
X80204950Y-101166928D01*
X81629983Y-102591962D01*
X81623000Y-102627065D01*
X81623000Y-102909735D01*
X81678147Y-103186974D01*
X81786320Y-103448127D01*
X81943363Y-103683159D01*
X82143241Y-103883037D01*
X82378273Y-104040080D01*
X82639426Y-104148253D01*
X82916665Y-104203400D01*
X83199335Y-104203400D01*
X83476574Y-104148253D01*
X83737727Y-104040080D01*
X83972759Y-103883037D01*
X84172637Y-103683159D01*
X84329680Y-103448127D01*
X84437853Y-103186974D01*
X84493000Y-102909735D01*
X84493000Y-102627065D01*
X84437853Y-102349826D01*
X84329680Y-102088673D01*
X84172637Y-101853641D01*
X83972759Y-101653763D01*
X83879774Y-101591632D01*
X84099759Y-101444643D01*
X84299637Y-101244765D01*
X84456680Y-101009733D01*
X84564853Y-100748580D01*
X84620000Y-100471341D01*
X84620000Y-100188671D01*
X84564853Y-99911432D01*
X84456680Y-99650279D01*
X84299637Y-99415247D01*
X84099759Y-99215369D01*
X83864727Y-99058326D01*
X83603574Y-98950153D01*
X83326335Y-98895006D01*
X83043665Y-98895006D01*
X82766426Y-98950153D01*
X82505273Y-99058326D01*
X82270241Y-99215369D01*
X82070363Y-99415247D01*
X81913320Y-99650279D01*
X81805147Y-99911432D01*
X81750000Y-100188671D01*
X81750000Y-100208822D01*
X81684999Y-100143821D01*
X81684999Y-97304448D01*
X81689280Y-97260979D01*
X81684999Y-97217510D01*
X81684999Y-97217502D01*
X81672194Y-97087489D01*
X81655064Y-97031020D01*
X81621588Y-96920665D01*
X81539410Y-96766920D01*
X81456531Y-96665932D01*
X81456529Y-96665930D01*
X81445000Y-96651882D01*
X81445000Y-96378665D01*
X81389853Y-96101426D01*
X81281680Y-95840273D01*
X81124637Y-95605241D01*
X80924759Y-95405363D01*
X80689727Y-95248320D01*
X80428574Y-95140147D01*
X80151335Y-95085000D01*
X79868665Y-95085000D01*
X79591426Y-95140147D01*
X79330273Y-95248320D01*
X79095241Y-95405363D01*
X78895363Y-95605241D01*
X78740000Y-95837759D01*
X78584637Y-95605241D01*
X78384759Y-95405363D01*
X78149727Y-95248320D01*
X78139135Y-95243933D01*
X78325131Y-95132385D01*
X78533519Y-94943414D01*
X78701037Y-94717420D01*
X78821246Y-94463087D01*
X78861904Y-94329039D01*
X78739915Y-94107000D01*
X77597000Y-94107000D01*
X77597000Y-94127000D01*
X77343000Y-94127000D01*
X77343000Y-94107000D01*
X76200085Y-94107000D01*
X76078096Y-94329039D01*
X76118754Y-94463087D01*
X76238963Y-94717420D01*
X76406481Y-94943414D01*
X76614869Y-95132385D01*
X76800865Y-95243933D01*
X76790273Y-95248320D01*
X76555241Y-95405363D01*
X76355363Y-95605241D01*
X76198320Y-95840273D01*
X76090147Y-96101426D01*
X76035000Y-96378665D01*
X68745000Y-96378665D01*
X68689853Y-96101426D01*
X68581680Y-95840273D01*
X68424637Y-95605241D01*
X68224759Y-95405363D01*
X67989727Y-95248320D01*
X67979135Y-95243933D01*
X68165131Y-95132385D01*
X68373519Y-94943414D01*
X68541037Y-94717420D01*
X68661246Y-94463087D01*
X68701904Y-94329039D01*
X68579915Y-94107000D01*
X67437000Y-94107000D01*
X67437000Y-94127000D01*
X67183000Y-94127000D01*
X67183000Y-94107000D01*
X66040085Y-94107000D01*
X65918096Y-94329039D01*
X65958754Y-94463087D01*
X66078963Y-94717420D01*
X66246481Y-94943414D01*
X66454869Y-95132385D01*
X66640865Y-95243933D01*
X66630273Y-95248320D01*
X66395241Y-95405363D01*
X66195363Y-95605241D01*
X66038320Y-95840273D01*
X65930147Y-96101426D01*
X65875000Y-96378665D01*
X64385000Y-96378665D01*
X64385000Y-90034521D01*
X64414759Y-90014637D01*
X64614637Y-89814759D01*
X64771680Y-89579727D01*
X64879853Y-89318574D01*
X64935000Y-89041335D01*
X64935000Y-88758665D01*
X64879853Y-88481426D01*
X64771680Y-88220273D01*
X64614637Y-87985241D01*
X64414759Y-87785363D01*
X64179727Y-87628320D01*
X63918574Y-87520147D01*
X63641335Y-87465000D01*
X63358665Y-87465000D01*
X63081426Y-87520147D01*
X62820273Y-87628320D01*
X62585241Y-87785363D01*
X62385363Y-87985241D01*
X62228320Y-88220273D01*
X62120147Y-88481426D01*
X62065000Y-88758665D01*
X60645144Y-88758665D01*
X60787588Y-88630269D01*
X60961641Y-88396920D01*
X61086825Y-88134099D01*
X61131476Y-87986890D01*
X61010155Y-87757000D01*
X59817000Y-87757000D01*
X59817000Y-87777000D01*
X59563000Y-87777000D01*
X59563000Y-87757000D01*
X58369845Y-87757000D01*
X58248524Y-87986890D01*
X58293175Y-88134099D01*
X58418359Y-88396920D01*
X58592412Y-88630269D01*
X58808645Y-88825178D01*
X58925534Y-88894805D01*
X58743368Y-89016525D01*
X58536525Y-89223368D01*
X58374010Y-89466589D01*
X58262068Y-89736842D01*
X58205000Y-90023740D01*
X56603000Y-90023740D01*
X56545932Y-89736842D01*
X56433990Y-89466589D01*
X56271475Y-89223368D01*
X56064632Y-89016525D01*
X55882466Y-88894805D01*
X55999355Y-88825178D01*
X56215588Y-88630269D01*
X56389641Y-88396920D01*
X56514825Y-88134099D01*
X56559476Y-87986890D01*
X56438155Y-87757000D01*
X55245000Y-87757000D01*
X55245000Y-87777000D01*
X54991000Y-87777000D01*
X54991000Y-87757000D01*
X53797845Y-87757000D01*
X53676524Y-87986890D01*
X53721175Y-88134099D01*
X53846359Y-88396920D01*
X54020412Y-88630269D01*
X54236645Y-88825178D01*
X54353534Y-88894805D01*
X54171368Y-89016525D01*
X53964525Y-89223368D01*
X53802010Y-89466589D01*
X53690068Y-89736842D01*
X53633000Y-90023740D01*
X51460000Y-90023740D01*
X51460000Y-81700000D01*
X53629928Y-81700000D01*
X53629928Y-83400000D01*
X53642188Y-83524482D01*
X53678498Y-83644180D01*
X53737463Y-83754494D01*
X53816815Y-83851185D01*
X53913506Y-83930537D01*
X54023820Y-83989502D01*
X54096380Y-84011513D01*
X53964525Y-84143368D01*
X53802010Y-84386589D01*
X53690068Y-84656842D01*
X53633000Y-84943740D01*
X53633000Y-85236260D01*
X53690068Y-85523158D01*
X53802010Y-85793411D01*
X53964525Y-86036632D01*
X54171368Y-86243475D01*
X54353534Y-86365195D01*
X54236645Y-86434822D01*
X54020412Y-86629731D01*
X53846359Y-86863080D01*
X53721175Y-87125901D01*
X53676524Y-87273110D01*
X53797845Y-87503000D01*
X54991000Y-87503000D01*
X54991000Y-87483000D01*
X55245000Y-87483000D01*
X55245000Y-87503000D01*
X56438155Y-87503000D01*
X56559476Y-87273110D01*
X56514825Y-87125901D01*
X56389641Y-86863080D01*
X56215588Y-86629731D01*
X55999355Y-86434822D01*
X55882466Y-86365195D01*
X56064632Y-86243475D01*
X56271475Y-86036632D01*
X56433990Y-85793411D01*
X56545932Y-85523158D01*
X56603000Y-85236260D01*
X56603000Y-84943740D01*
X56545932Y-84656842D01*
X56433990Y-84386589D01*
X56271475Y-84143368D01*
X56139620Y-84011513D01*
X56212180Y-83989502D01*
X56322494Y-83930537D01*
X56419185Y-83851185D01*
X56498537Y-83754494D01*
X56557502Y-83644180D01*
X56593812Y-83524482D01*
X56606072Y-83400000D01*
X56606072Y-81700000D01*
X58201928Y-81700000D01*
X58201928Y-83400000D01*
X58214188Y-83524482D01*
X58250498Y-83644180D01*
X58309463Y-83754494D01*
X58388815Y-83851185D01*
X58485506Y-83930537D01*
X58595820Y-83989502D01*
X58668380Y-84011513D01*
X58536525Y-84143368D01*
X58374010Y-84386589D01*
X58262068Y-84656842D01*
X58205000Y-84943740D01*
X58205000Y-85236260D01*
X58262068Y-85523158D01*
X58374010Y-85793411D01*
X58536525Y-86036632D01*
X58743368Y-86243475D01*
X58925534Y-86365195D01*
X58808645Y-86434822D01*
X58592412Y-86629731D01*
X58418359Y-86863080D01*
X58293175Y-87125901D01*
X58248524Y-87273110D01*
X58369845Y-87503000D01*
X59563000Y-87503000D01*
X59563000Y-87483000D01*
X59817000Y-87483000D01*
X59817000Y-87503000D01*
X61010155Y-87503000D01*
X61131476Y-87273110D01*
X61086825Y-87125901D01*
X60961641Y-86863080D01*
X60787588Y-86629731D01*
X60571355Y-86434822D01*
X60454466Y-86365195D01*
X60636632Y-86243475D01*
X60843475Y-86036632D01*
X61005990Y-85793411D01*
X61117932Y-85523158D01*
X61175000Y-85236260D01*
X61175000Y-84943740D01*
X61117932Y-84656842D01*
X61005990Y-84386589D01*
X60937594Y-84284227D01*
X62729438Y-84284227D01*
X62729438Y-84566897D01*
X62784585Y-84844136D01*
X62892758Y-85105289D01*
X63049801Y-85340321D01*
X63249679Y-85540199D01*
X63484711Y-85697242D01*
X63745864Y-85805415D01*
X64023103Y-85860562D01*
X64305773Y-85860562D01*
X64583012Y-85805415D01*
X64844165Y-85697242D01*
X65049562Y-85560000D01*
X65871928Y-85560000D01*
X65871928Y-87160000D01*
X65884188Y-87284482D01*
X65920498Y-87404180D01*
X65979463Y-87514494D01*
X66058815Y-87611185D01*
X66155506Y-87690537D01*
X66265820Y-87749502D01*
X66385518Y-87785812D01*
X66393961Y-87786643D01*
X66195363Y-87985241D01*
X66038320Y-88220273D01*
X65930147Y-88481426D01*
X65875000Y-88758665D01*
X65875000Y-89041335D01*
X65930147Y-89318574D01*
X66038320Y-89579727D01*
X66195363Y-89814759D01*
X66395241Y-90014637D01*
X66627759Y-90170000D01*
X66395241Y-90325363D01*
X66195363Y-90525241D01*
X66038320Y-90760273D01*
X65930147Y-91021426D01*
X65875000Y-91298665D01*
X65875000Y-91581335D01*
X65930147Y-91858574D01*
X66038320Y-92119727D01*
X66195363Y-92354759D01*
X66395241Y-92554637D01*
X66630273Y-92711680D01*
X66640865Y-92716067D01*
X66454869Y-92827615D01*
X66246481Y-93016586D01*
X66078963Y-93242580D01*
X65958754Y-93496913D01*
X65918096Y-93630961D01*
X66040085Y-93853000D01*
X67183000Y-93853000D01*
X67183000Y-93833000D01*
X67437000Y-93833000D01*
X67437000Y-93853000D01*
X68579915Y-93853000D01*
X68701904Y-93630961D01*
X68661246Y-93496913D01*
X68541037Y-93242580D01*
X68373519Y-93016586D01*
X68165131Y-92827615D01*
X67979135Y-92716067D01*
X67989727Y-92711680D01*
X68224759Y-92554637D01*
X68424637Y-92354759D01*
X68581680Y-92119727D01*
X68689853Y-91858574D01*
X68745000Y-91581335D01*
X68745000Y-91298665D01*
X68689853Y-91021426D01*
X68581680Y-90760273D01*
X68424637Y-90525241D01*
X68224759Y-90325363D01*
X67992241Y-90170000D01*
X68224759Y-90014637D01*
X68424637Y-89814759D01*
X68581680Y-89579727D01*
X68689853Y-89318574D01*
X68745000Y-89041335D01*
X68745000Y-88758665D01*
X68689853Y-88481426D01*
X68581680Y-88220273D01*
X68424637Y-87985241D01*
X68226039Y-87786643D01*
X68234482Y-87785812D01*
X68354180Y-87749502D01*
X68464494Y-87690537D01*
X68561185Y-87611185D01*
X68640537Y-87514494D01*
X68699502Y-87404180D01*
X68735812Y-87284482D01*
X68748072Y-87160000D01*
X68748072Y-85560000D01*
X68735812Y-85435518D01*
X68699502Y-85315820D01*
X68640537Y-85205506D01*
X68561185Y-85108815D01*
X68464494Y-85029463D01*
X68354180Y-84970498D01*
X68234482Y-84934188D01*
X68110000Y-84921928D01*
X66510000Y-84921928D01*
X66385518Y-84934188D01*
X66265820Y-84970498D01*
X66155506Y-85029463D01*
X66058815Y-85108815D01*
X65979463Y-85205506D01*
X65920498Y-85315820D01*
X65884188Y-85435518D01*
X65871928Y-85560000D01*
X65049562Y-85560000D01*
X65079197Y-85540199D01*
X65279075Y-85340321D01*
X65436118Y-85105289D01*
X65544291Y-84844136D01*
X65599438Y-84566897D01*
X65599438Y-84284227D01*
X65544291Y-84006988D01*
X65436118Y-83745835D01*
X65279075Y-83510803D01*
X65079197Y-83310925D01*
X64844165Y-83153882D01*
X64583012Y-83045709D01*
X64305773Y-82990562D01*
X64023103Y-82990562D01*
X63745864Y-83045709D01*
X63484711Y-83153882D01*
X63249679Y-83310925D01*
X63049801Y-83510803D01*
X62892758Y-83745835D01*
X62784585Y-84006988D01*
X62729438Y-84284227D01*
X60937594Y-84284227D01*
X60843475Y-84143368D01*
X60711620Y-84011513D01*
X60784180Y-83989502D01*
X60894494Y-83930537D01*
X60991185Y-83851185D01*
X61070537Y-83754494D01*
X61129502Y-83644180D01*
X61165812Y-83524482D01*
X61178072Y-83400000D01*
X61178072Y-81763816D01*
X65775000Y-81763816D01*
X65775000Y-82066184D01*
X65833989Y-82362743D01*
X65949701Y-82642095D01*
X66117688Y-82893505D01*
X66331495Y-83107312D01*
X66582905Y-83275299D01*
X66862257Y-83391011D01*
X67158816Y-83450000D01*
X67461184Y-83450000D01*
X67757743Y-83391011D01*
X68037095Y-83275299D01*
X68288505Y-83107312D01*
X68502312Y-82893505D01*
X68670299Y-82642095D01*
X68786011Y-82362743D01*
X68845000Y-82066184D01*
X68845000Y-81763816D01*
X68786011Y-81467257D01*
X68670299Y-81187905D01*
X68554768Y-81015000D01*
X75931928Y-81015000D01*
X75931928Y-82815000D01*
X75944188Y-82939482D01*
X75980498Y-83059180D01*
X76039463Y-83169494D01*
X76118815Y-83266185D01*
X76215506Y-83345537D01*
X76325820Y-83404502D01*
X76445518Y-83440812D01*
X76570000Y-83453072D01*
X78370000Y-83453072D01*
X78494482Y-83440812D01*
X78614180Y-83404502D01*
X78724494Y-83345537D01*
X78821185Y-83266185D01*
X78900537Y-83169494D01*
X78959502Y-83059180D01*
X78995812Y-82939482D01*
X79008072Y-82815000D01*
X79008072Y-81015000D01*
X78995812Y-80890518D01*
X78959502Y-80770820D01*
X78900537Y-80660506D01*
X78821185Y-80563815D01*
X78724494Y-80484463D01*
X78614180Y-80425498D01*
X78494482Y-80389188D01*
X78370000Y-80376928D01*
X76570000Y-80376928D01*
X76445518Y-80389188D01*
X76325820Y-80425498D01*
X76215506Y-80484463D01*
X76118815Y-80563815D01*
X76039463Y-80660506D01*
X75980498Y-80770820D01*
X75944188Y-80890518D01*
X75931928Y-81015000D01*
X68554768Y-81015000D01*
X68502312Y-80936495D01*
X68288505Y-80722688D01*
X68037095Y-80554701D01*
X67757743Y-80438989D01*
X67461184Y-80380000D01*
X67158816Y-80380000D01*
X66862257Y-80438989D01*
X66582905Y-80554701D01*
X66331495Y-80722688D01*
X66117688Y-80936495D01*
X65949701Y-81187905D01*
X65833989Y-81467257D01*
X65775000Y-81763816D01*
X61178072Y-81763816D01*
X61178072Y-81700000D01*
X61165812Y-81575518D01*
X61129502Y-81455820D01*
X61070537Y-81345506D01*
X60991185Y-81248815D01*
X60894494Y-81169463D01*
X60784180Y-81110498D01*
X60664482Y-81074188D01*
X60548938Y-81062808D01*
X60511589Y-80939687D01*
X60429411Y-80785941D01*
X60318817Y-80651183D01*
X60184059Y-80540589D01*
X60030313Y-80458411D01*
X59863490Y-80407805D01*
X59690000Y-80390718D01*
X59516511Y-80407805D01*
X59349688Y-80458411D01*
X59195942Y-80540589D01*
X59061184Y-80651183D01*
X58950590Y-80785941D01*
X58868412Y-80939687D01*
X58831063Y-81062808D01*
X58715518Y-81074188D01*
X58595820Y-81110498D01*
X58485506Y-81169463D01*
X58388815Y-81248815D01*
X58309463Y-81345506D01*
X58250498Y-81455820D01*
X58214188Y-81575518D01*
X58201928Y-81700000D01*
X56606072Y-81700000D01*
X56593812Y-81575518D01*
X56557502Y-81455820D01*
X56498537Y-81345506D01*
X56419185Y-81248815D01*
X56322494Y-81169463D01*
X56212180Y-81110498D01*
X56092482Y-81074188D01*
X55968000Y-81061928D01*
X54268000Y-81061928D01*
X54143518Y-81074188D01*
X54023820Y-81110498D01*
X53913506Y-81169463D01*
X53816815Y-81248815D01*
X53737463Y-81345506D01*
X53678498Y-81455820D01*
X53642188Y-81575518D01*
X53629928Y-81700000D01*
X51460000Y-81700000D01*
X51460000Y-76058665D01*
X58890000Y-76058665D01*
X58890000Y-76341335D01*
X58945147Y-76618574D01*
X59053320Y-76879727D01*
X59210363Y-77114759D01*
X59410241Y-77314637D01*
X59645273Y-77471680D01*
X59906426Y-77579853D01*
X60183665Y-77635000D01*
X60466335Y-77635000D01*
X60743574Y-77579853D01*
X61004727Y-77471680D01*
X61239759Y-77314637D01*
X61439637Y-77114759D01*
X61596680Y-76879727D01*
X61704853Y-76618574D01*
X61760000Y-76341335D01*
X61760000Y-76093967D01*
X62500000Y-76093967D01*
X62500000Y-76416033D01*
X62562832Y-76731912D01*
X62686082Y-77029463D01*
X62865013Y-77297252D01*
X63092748Y-77524987D01*
X63360537Y-77703918D01*
X63658088Y-77827168D01*
X63973967Y-77890000D01*
X64296033Y-77890000D01*
X64611912Y-77827168D01*
X64909463Y-77703918D01*
X65177252Y-77524987D01*
X65404987Y-77297252D01*
X65583918Y-77029463D01*
X65707168Y-76731912D01*
X65770000Y-76416033D01*
X65770000Y-76093967D01*
X65707168Y-75778088D01*
X65583918Y-75480537D01*
X65404987Y-75212748D01*
X65177252Y-74985013D01*
X64909463Y-74806082D01*
X64611912Y-74682832D01*
X64296033Y-74620000D01*
X63973967Y-74620000D01*
X63658088Y-74682832D01*
X63360537Y-74806082D01*
X63092748Y-74985013D01*
X62865013Y-75212748D01*
X62686082Y-75480537D01*
X62562832Y-75778088D01*
X62500000Y-76093967D01*
X61760000Y-76093967D01*
X61760000Y-76058665D01*
X61704853Y-75781426D01*
X61596680Y-75520273D01*
X61439637Y-75285241D01*
X61239759Y-75085363D01*
X61004727Y-74928320D01*
X60743574Y-74820147D01*
X60466335Y-74765000D01*
X60183665Y-74765000D01*
X59906426Y-74820147D01*
X59645273Y-74928320D01*
X59410241Y-75085363D01*
X59210363Y-75285241D01*
X59053320Y-75520273D01*
X58945147Y-75781426D01*
X58890000Y-76058665D01*
X51460000Y-76058665D01*
X51460000Y-72890413D01*
X63179192Y-72890413D01*
X63274956Y-73154814D01*
X63564571Y-73295704D01*
X63876108Y-73377384D01*
X64197595Y-73396718D01*
X64516675Y-73352961D01*
X64821088Y-73247795D01*
X64995044Y-73154814D01*
X65090808Y-72890413D01*
X69679192Y-72890413D01*
X69774956Y-73154814D01*
X70064571Y-73295704D01*
X70376108Y-73377384D01*
X70697595Y-73396718D01*
X71016675Y-73352961D01*
X71321088Y-73247795D01*
X71495044Y-73154814D01*
X71590808Y-72890413D01*
X70635000Y-71934605D01*
X69679192Y-72890413D01*
X65090808Y-72890413D01*
X64135000Y-71934605D01*
X63179192Y-72890413D01*
X51460000Y-72890413D01*
X51460000Y-71817595D01*
X62493282Y-71817595D01*
X62537039Y-72136675D01*
X62642205Y-72441088D01*
X62735186Y-72615044D01*
X62999587Y-72710808D01*
X63955395Y-71755000D01*
X64314605Y-71755000D01*
X65270413Y-72710808D01*
X65534814Y-72615044D01*
X65675704Y-72325429D01*
X65757384Y-72013892D01*
X65769189Y-71817595D01*
X68993282Y-71817595D01*
X69037039Y-72136675D01*
X69142205Y-72441088D01*
X69235186Y-72615044D01*
X69499587Y-72710808D01*
X70455395Y-71755000D01*
X69499587Y-70799192D01*
X69235186Y-70894956D01*
X69094296Y-71184571D01*
X69012616Y-71496108D01*
X68993282Y-71817595D01*
X65769189Y-71817595D01*
X65776718Y-71692405D01*
X65732961Y-71373325D01*
X65627795Y-71068912D01*
X65534814Y-70894956D01*
X65270413Y-70799192D01*
X64314605Y-71755000D01*
X63955395Y-71755000D01*
X62999587Y-70799192D01*
X62735186Y-70894956D01*
X62594296Y-71184571D01*
X62512616Y-71496108D01*
X62493282Y-71817595D01*
X51460000Y-71817595D01*
X51460000Y-66951984D01*
X55655000Y-66951984D01*
X55655000Y-67668016D01*
X55794691Y-68370290D01*
X56068705Y-69031818D01*
X56466511Y-69627177D01*
X56972823Y-70133489D01*
X57568182Y-70531295D01*
X58229710Y-70805309D01*
X58931984Y-70945000D01*
X59648016Y-70945000D01*
X60350290Y-70805309D01*
X60798662Y-70619587D01*
X63179192Y-70619587D01*
X64135000Y-71575395D01*
X65090808Y-70619587D01*
X69679192Y-70619587D01*
X70635000Y-71575395D01*
X70649143Y-71561253D01*
X70828748Y-71740858D01*
X70814605Y-71755000D01*
X71770413Y-72710808D01*
X72034814Y-72615044D01*
X72175704Y-72325429D01*
X72257384Y-72013892D01*
X72275650Y-71710160D01*
X72345273Y-71756680D01*
X72606426Y-71864853D01*
X72883665Y-71920000D01*
X73166335Y-71920000D01*
X73443574Y-71864853D01*
X73704727Y-71756680D01*
X73939759Y-71599637D01*
X74139637Y-71399759D01*
X74296680Y-71164727D01*
X74404853Y-70903574D01*
X74460000Y-70626335D01*
X74460000Y-70343665D01*
X74404853Y-70066426D01*
X74296680Y-69805273D01*
X74139637Y-69570241D01*
X73939759Y-69370363D01*
X73704727Y-69213320D01*
X73443574Y-69105147D01*
X73166335Y-69050000D01*
X72883665Y-69050000D01*
X72606426Y-69105147D01*
X72345273Y-69213320D01*
X72110241Y-69370363D01*
X71910363Y-69570241D01*
X71753320Y-69805273D01*
X71645147Y-70066426D01*
X71590000Y-70343665D01*
X71590000Y-70617356D01*
X71495044Y-70355186D01*
X71205429Y-70214296D01*
X70893892Y-70132616D01*
X70572405Y-70113282D01*
X70253325Y-70157039D01*
X69948912Y-70262205D01*
X69774956Y-70355186D01*
X69679192Y-70619587D01*
X65090808Y-70619587D01*
X64995044Y-70355186D01*
X64705429Y-70214296D01*
X64393892Y-70132616D01*
X64072405Y-70113282D01*
X63753325Y-70157039D01*
X63448912Y-70262205D01*
X63274956Y-70355186D01*
X63179192Y-70619587D01*
X60798662Y-70619587D01*
X61011818Y-70531295D01*
X61607177Y-70133489D01*
X62113489Y-69627177D01*
X62511295Y-69031818D01*
X62785309Y-68370290D01*
X62925000Y-67668016D01*
X62925000Y-66951984D01*
X62785309Y-66249710D01*
X62511295Y-65588182D01*
X62113489Y-64992823D01*
X61607177Y-64486511D01*
X61011818Y-64088705D01*
X60350290Y-63814691D01*
X59648016Y-63675000D01*
X58931984Y-63675000D01*
X58229710Y-63814691D01*
X57568182Y-64088705D01*
X56972823Y-64486511D01*
X56466511Y-64992823D01*
X56068705Y-65588182D01*
X55794691Y-66249710D01*
X55655000Y-66951984D01*
X51460000Y-66951984D01*
X51460000Y-62758967D01*
X62500000Y-62758967D01*
X62500000Y-63081033D01*
X62562832Y-63396912D01*
X62686082Y-63694463D01*
X62865013Y-63962252D01*
X63092748Y-64189987D01*
X63360537Y-64368918D01*
X63658088Y-64492168D01*
X63973967Y-64555000D01*
X64296033Y-64555000D01*
X64611912Y-64492168D01*
X64909463Y-64368918D01*
X65177252Y-64189987D01*
X65404987Y-63962252D01*
X65583918Y-63694463D01*
X65707168Y-63396912D01*
X65770000Y-63081033D01*
X65770000Y-62758967D01*
X69000000Y-62758967D01*
X69000000Y-63081033D01*
X69062832Y-63396912D01*
X69186082Y-63694463D01*
X69365013Y-63962252D01*
X69592748Y-64189987D01*
X69860537Y-64368918D01*
X70158088Y-64492168D01*
X70473967Y-64555000D01*
X70796033Y-64555000D01*
X71111912Y-64492168D01*
X71409463Y-64368918D01*
X71677252Y-64189987D01*
X71904987Y-63962252D01*
X71980237Y-63849633D01*
X72110241Y-63979637D01*
X72345273Y-64136680D01*
X72606426Y-64244853D01*
X72883665Y-64300000D01*
X73166335Y-64300000D01*
X73443574Y-64244853D01*
X73704727Y-64136680D01*
X73939759Y-63979637D01*
X74139637Y-63779759D01*
X74296680Y-63544727D01*
X74404853Y-63283574D01*
X74460000Y-63006335D01*
X74460000Y-62723665D01*
X74404853Y-62446426D01*
X74296680Y-62185273D01*
X74139637Y-61950241D01*
X73939759Y-61750363D01*
X73704727Y-61593320D01*
X73443574Y-61485147D01*
X73166335Y-61430000D01*
X72883665Y-61430000D01*
X72606426Y-61485147D01*
X72345273Y-61593320D01*
X72110241Y-61750363D01*
X71936177Y-61924427D01*
X71904987Y-61877748D01*
X71677252Y-61650013D01*
X71409463Y-61471082D01*
X71111912Y-61347832D01*
X70796033Y-61285000D01*
X70473967Y-61285000D01*
X70158088Y-61347832D01*
X69860537Y-61471082D01*
X69592748Y-61650013D01*
X69365013Y-61877748D01*
X69186082Y-62145537D01*
X69062832Y-62443088D01*
X69000000Y-62758967D01*
X65770000Y-62758967D01*
X65707168Y-62443088D01*
X65583918Y-62145537D01*
X65404987Y-61877748D01*
X65177252Y-61650013D01*
X64909463Y-61471082D01*
X64611912Y-61347832D01*
X64296033Y-61285000D01*
X63973967Y-61285000D01*
X63658088Y-61347832D01*
X63360537Y-61471082D01*
X63092748Y-61650013D01*
X62865013Y-61877748D01*
X62686082Y-62145537D01*
X62562832Y-62443088D01*
X62500000Y-62758967D01*
X51460000Y-62758967D01*
X51460000Y-58258967D01*
X62500000Y-58258967D01*
X62500000Y-58581033D01*
X62562832Y-58896912D01*
X62686082Y-59194463D01*
X62865013Y-59462252D01*
X63092748Y-59689987D01*
X63360537Y-59868918D01*
X63658088Y-59992168D01*
X63973967Y-60055000D01*
X64296033Y-60055000D01*
X64611912Y-59992168D01*
X64909463Y-59868918D01*
X65177252Y-59689987D01*
X65404987Y-59462252D01*
X65583918Y-59194463D01*
X65707168Y-58896912D01*
X65770000Y-58581033D01*
X65770000Y-58258967D01*
X69000000Y-58258967D01*
X69000000Y-58581033D01*
X69062832Y-58896912D01*
X69186082Y-59194463D01*
X69365013Y-59462252D01*
X69592748Y-59689987D01*
X69860537Y-59868918D01*
X70158088Y-59992168D01*
X70473967Y-60055000D01*
X70796033Y-60055000D01*
X71111912Y-59992168D01*
X71409463Y-59868918D01*
X71677252Y-59689987D01*
X71904987Y-59462252D01*
X72083918Y-59194463D01*
X72207168Y-58896912D01*
X72270000Y-58581033D01*
X72270000Y-58258967D01*
X72207168Y-57943088D01*
X72083918Y-57645537D01*
X71904987Y-57377748D01*
X71677252Y-57150013D01*
X71409463Y-56971082D01*
X71151042Y-56864040D01*
X77348091Y-56864040D01*
X77442930Y-57128881D01*
X77587615Y-57370131D01*
X77776586Y-57578519D01*
X78002580Y-57746037D01*
X78256913Y-57866246D01*
X78390961Y-57906904D01*
X78613000Y-57784915D01*
X78613000Y-56642000D01*
X78867000Y-56642000D01*
X78867000Y-57784915D01*
X79089039Y-57906904D01*
X79223087Y-57866246D01*
X79477420Y-57746037D01*
X79703414Y-57578519D01*
X79892385Y-57370131D01*
X80037070Y-57128881D01*
X80131909Y-56864040D01*
X80010624Y-56642000D01*
X78867000Y-56642000D01*
X78613000Y-56642000D01*
X77469376Y-56642000D01*
X77348091Y-56864040D01*
X71151042Y-56864040D01*
X71111912Y-56847832D01*
X70796033Y-56785000D01*
X70473967Y-56785000D01*
X70158088Y-56847832D01*
X69860537Y-56971082D01*
X69592748Y-57150013D01*
X69365013Y-57377748D01*
X69186082Y-57645537D01*
X69062832Y-57943088D01*
X69000000Y-58258967D01*
X65770000Y-58258967D01*
X65707168Y-57943088D01*
X65583918Y-57645537D01*
X65404987Y-57377748D01*
X65177252Y-57150013D01*
X64997237Y-57029731D01*
X65049759Y-56994637D01*
X65249637Y-56794759D01*
X65406680Y-56559727D01*
X65514853Y-56298574D01*
X65541231Y-56165960D01*
X77348091Y-56165960D01*
X77469376Y-56388000D01*
X78613000Y-56388000D01*
X78613000Y-55245085D01*
X78867000Y-55245085D01*
X78867000Y-56388000D01*
X80010624Y-56388000D01*
X80131909Y-56165960D01*
X80037070Y-55901119D01*
X79892385Y-55659869D01*
X79703414Y-55451481D01*
X79477420Y-55283963D01*
X79223087Y-55163754D01*
X79089039Y-55123096D01*
X78867000Y-55245085D01*
X78613000Y-55245085D01*
X78390961Y-55123096D01*
X78256913Y-55163754D01*
X78002580Y-55283963D01*
X77776586Y-55451481D01*
X77587615Y-55659869D01*
X77442930Y-55901119D01*
X77348091Y-56165960D01*
X65541231Y-56165960D01*
X65570000Y-56021335D01*
X65570000Y-55738665D01*
X65514853Y-55461426D01*
X65406680Y-55200273D01*
X65249637Y-54965241D01*
X65229804Y-54945408D01*
X65396912Y-54912168D01*
X65694463Y-54788918D01*
X65962252Y-54609987D01*
X66189987Y-54382252D01*
X66368918Y-54114463D01*
X66492168Y-53816912D01*
X66555000Y-53501033D01*
X66555000Y-53178967D01*
X68215000Y-53178967D01*
X68215000Y-53501033D01*
X68277832Y-53816912D01*
X68401082Y-54114463D01*
X68580013Y-54382252D01*
X68807748Y-54609987D01*
X69075537Y-54788918D01*
X69373088Y-54912168D01*
X69688967Y-54975000D01*
X70011033Y-54975000D01*
X70326912Y-54912168D01*
X70624463Y-54788918D01*
X70892252Y-54609987D01*
X71119987Y-54382252D01*
X71298918Y-54114463D01*
X71422168Y-53816912D01*
X71485000Y-53501033D01*
X71485000Y-53178967D01*
X74715000Y-53178967D01*
X74715000Y-53501033D01*
X74777832Y-53816912D01*
X74901082Y-54114463D01*
X75080013Y-54382252D01*
X75307748Y-54609987D01*
X75575537Y-54788918D01*
X75873088Y-54912168D01*
X76188967Y-54975000D01*
X76511033Y-54975000D01*
X76826912Y-54912168D01*
X77124463Y-54788918D01*
X77392252Y-54609987D01*
X77619987Y-54382252D01*
X77798918Y-54114463D01*
X77922168Y-53816912D01*
X77985000Y-53501033D01*
X77985000Y-53178967D01*
X77922168Y-52863088D01*
X77798918Y-52565537D01*
X77619987Y-52297748D01*
X77392252Y-52070013D01*
X77124463Y-51891082D01*
X76826912Y-51767832D01*
X76511033Y-51705000D01*
X76188967Y-51705000D01*
X75873088Y-51767832D01*
X75575537Y-51891082D01*
X75307748Y-52070013D01*
X75080013Y-52297748D01*
X74901082Y-52565537D01*
X74777832Y-52863088D01*
X74715000Y-53178967D01*
X71485000Y-53178967D01*
X71422168Y-52863088D01*
X71298918Y-52565537D01*
X71119987Y-52297748D01*
X70892252Y-52070013D01*
X70624463Y-51891082D01*
X70326912Y-51767832D01*
X70011033Y-51705000D01*
X69688967Y-51705000D01*
X69373088Y-51767832D01*
X69075537Y-51891082D01*
X68807748Y-52070013D01*
X68580013Y-52297748D01*
X68401082Y-52565537D01*
X68277832Y-52863088D01*
X68215000Y-53178967D01*
X66555000Y-53178967D01*
X66492168Y-52863088D01*
X66368918Y-52565537D01*
X66189987Y-52297748D01*
X65962252Y-52070013D01*
X65694463Y-51891082D01*
X65396912Y-51767832D01*
X65081033Y-51705000D01*
X64758967Y-51705000D01*
X64443088Y-51767832D01*
X64145537Y-51891082D01*
X63877748Y-52070013D01*
X63650013Y-52297748D01*
X63471082Y-52565537D01*
X63347832Y-52863088D01*
X63285000Y-53178967D01*
X63285000Y-53501033D01*
X63347832Y-53816912D01*
X63471082Y-54114463D01*
X63650013Y-54382252D01*
X63759366Y-54491605D01*
X63716426Y-54500147D01*
X63455273Y-54608320D01*
X63220241Y-54765363D01*
X63020363Y-54965241D01*
X62863320Y-55200273D01*
X62755147Y-55461426D01*
X62700000Y-55738665D01*
X62700000Y-56021335D01*
X62755147Y-56298574D01*
X62863320Y-56559727D01*
X63020363Y-56794759D01*
X63220241Y-56994637D01*
X63272763Y-57029731D01*
X63092748Y-57150013D01*
X62865013Y-57377748D01*
X62686082Y-57645537D01*
X62562832Y-57943088D01*
X62500000Y-58258967D01*
X51460000Y-58258967D01*
X51460000Y-56229039D01*
X55123096Y-56229039D01*
X55163754Y-56363087D01*
X55283963Y-56617420D01*
X55451481Y-56843414D01*
X55659869Y-57032385D01*
X55901119Y-57177070D01*
X56165960Y-57271909D01*
X56388000Y-57150624D01*
X56388000Y-56007000D01*
X56642000Y-56007000D01*
X56642000Y-57150624D01*
X56864040Y-57271909D01*
X57128881Y-57177070D01*
X57370131Y-57032385D01*
X57578519Y-56843414D01*
X57746037Y-56617420D01*
X57866246Y-56363087D01*
X57906904Y-56229039D01*
X57784915Y-56007000D01*
X56642000Y-56007000D01*
X56388000Y-56007000D01*
X55245085Y-56007000D01*
X55123096Y-56229039D01*
X51460000Y-56229039D01*
X51460000Y-55530961D01*
X55123096Y-55530961D01*
X55245085Y-55753000D01*
X56388000Y-55753000D01*
X56388000Y-54609376D01*
X56642000Y-54609376D01*
X56642000Y-55753000D01*
X57784915Y-55753000D01*
X57906904Y-55530961D01*
X57866246Y-55396913D01*
X57746037Y-55142580D01*
X57578519Y-54916586D01*
X57370131Y-54727615D01*
X57128881Y-54582930D01*
X56864040Y-54488091D01*
X56642000Y-54609376D01*
X56388000Y-54609376D01*
X56165960Y-54488091D01*
X55901119Y-54582930D01*
X55659869Y-54727615D01*
X55451481Y-54916586D01*
X55283963Y-55142580D01*
X55163754Y-55396913D01*
X55123096Y-55530961D01*
X51460000Y-55530961D01*
X51460000Y-53178967D01*
X56785000Y-53178967D01*
X56785000Y-53501033D01*
X56847832Y-53816912D01*
X56971082Y-54114463D01*
X57150013Y-54382252D01*
X57377748Y-54609987D01*
X57645537Y-54788918D01*
X57943088Y-54912168D01*
X58258967Y-54975000D01*
X58581033Y-54975000D01*
X58896912Y-54912168D01*
X59194463Y-54788918D01*
X59462252Y-54609987D01*
X59689987Y-54382252D01*
X59868918Y-54114463D01*
X59992168Y-53816912D01*
X60055000Y-53501033D01*
X60055000Y-53178967D01*
X59992168Y-52863088D01*
X59868918Y-52565537D01*
X59689987Y-52297748D01*
X59462252Y-52070013D01*
X59194463Y-51891082D01*
X58896912Y-51767832D01*
X58581033Y-51705000D01*
X58258967Y-51705000D01*
X57943088Y-51767832D01*
X57645537Y-51891082D01*
X57377748Y-52070013D01*
X57150013Y-52297748D01*
X56971082Y-52565537D01*
X56847832Y-52863088D01*
X56785000Y-53178967D01*
X51460000Y-53178967D01*
X51460000Y-48678967D01*
X56785000Y-48678967D01*
X56785000Y-49001033D01*
X56847832Y-49316912D01*
X56971082Y-49614463D01*
X57150013Y-49882252D01*
X57377748Y-50109987D01*
X57645537Y-50288918D01*
X57943088Y-50412168D01*
X58258967Y-50475000D01*
X58581033Y-50475000D01*
X58896912Y-50412168D01*
X59194463Y-50288918D01*
X59462252Y-50109987D01*
X59689987Y-49882252D01*
X59868918Y-49614463D01*
X59992168Y-49316912D01*
X60055000Y-49001033D01*
X60055000Y-48678967D01*
X63285000Y-48678967D01*
X63285000Y-49001033D01*
X63347832Y-49316912D01*
X63471082Y-49614463D01*
X63650013Y-49882252D01*
X63877748Y-50109987D01*
X64145537Y-50288918D01*
X64443088Y-50412168D01*
X64758967Y-50475000D01*
X65081033Y-50475000D01*
X65396912Y-50412168D01*
X65694463Y-50288918D01*
X65962252Y-50109987D01*
X66189987Y-49882252D01*
X66368918Y-49614463D01*
X66492168Y-49316912D01*
X66555000Y-49001033D01*
X66555000Y-48678967D01*
X68215000Y-48678967D01*
X68215000Y-49001033D01*
X68277832Y-49316912D01*
X68401082Y-49614463D01*
X68580013Y-49882252D01*
X68807748Y-50109987D01*
X69075537Y-50288918D01*
X69373088Y-50412168D01*
X69688967Y-50475000D01*
X70011033Y-50475000D01*
X70326912Y-50412168D01*
X70624463Y-50288918D01*
X70892252Y-50109987D01*
X71119987Y-49882252D01*
X71298918Y-49614463D01*
X71422168Y-49316912D01*
X71485000Y-49001033D01*
X71485000Y-48678967D01*
X74715000Y-48678967D01*
X74715000Y-49001033D01*
X74777832Y-49316912D01*
X74901082Y-49614463D01*
X75080013Y-49882252D01*
X75307748Y-50109987D01*
X75575537Y-50288918D01*
X75873088Y-50412168D01*
X76188967Y-50475000D01*
X76511033Y-50475000D01*
X76826912Y-50412168D01*
X77124463Y-50288918D01*
X77392252Y-50109987D01*
X77619987Y-49882252D01*
X77651177Y-49835573D01*
X77825241Y-50009637D01*
X78060273Y-50166680D01*
X78321426Y-50274853D01*
X78598665Y-50330000D01*
X78881335Y-50330000D01*
X79158574Y-50274853D01*
X79419727Y-50166680D01*
X79654759Y-50009637D01*
X79854637Y-49809759D01*
X80011680Y-49574727D01*
X80119853Y-49313574D01*
X80175000Y-49036335D01*
X80175000Y-48753665D01*
X80119853Y-48476426D01*
X80011680Y-48215273D01*
X79854637Y-47980241D01*
X79654759Y-47780363D01*
X79419727Y-47623320D01*
X79158574Y-47515147D01*
X78881335Y-47460000D01*
X78598665Y-47460000D01*
X78321426Y-47515147D01*
X78060273Y-47623320D01*
X77825241Y-47780363D01*
X77695237Y-47910367D01*
X77619987Y-47797748D01*
X77392252Y-47570013D01*
X77124463Y-47391082D01*
X76826912Y-47267832D01*
X76511033Y-47205000D01*
X76188967Y-47205000D01*
X75873088Y-47267832D01*
X75575537Y-47391082D01*
X75307748Y-47570013D01*
X75080013Y-47797748D01*
X74901082Y-48065537D01*
X74777832Y-48363088D01*
X74715000Y-48678967D01*
X71485000Y-48678967D01*
X71422168Y-48363088D01*
X71298918Y-48065537D01*
X71119987Y-47797748D01*
X70892252Y-47570013D01*
X70624463Y-47391082D01*
X70326912Y-47267832D01*
X70011033Y-47205000D01*
X69688967Y-47205000D01*
X69373088Y-47267832D01*
X69075537Y-47391082D01*
X68807748Y-47570013D01*
X68580013Y-47797748D01*
X68401082Y-48065537D01*
X68277832Y-48363088D01*
X68215000Y-48678967D01*
X66555000Y-48678967D01*
X66492168Y-48363088D01*
X66368918Y-48065537D01*
X66189987Y-47797748D01*
X65962252Y-47570013D01*
X65694463Y-47391082D01*
X65396912Y-47267832D01*
X65081033Y-47205000D01*
X64758967Y-47205000D01*
X64443088Y-47267832D01*
X64145537Y-47391082D01*
X63877748Y-47570013D01*
X63650013Y-47797748D01*
X63471082Y-48065537D01*
X63347832Y-48363088D01*
X63285000Y-48678967D01*
X60055000Y-48678967D01*
X59992168Y-48363088D01*
X59868918Y-48065537D01*
X59689987Y-47797748D01*
X59462252Y-47570013D01*
X59194463Y-47391082D01*
X58896912Y-47267832D01*
X58581033Y-47205000D01*
X58258967Y-47205000D01*
X57943088Y-47267832D01*
X57645537Y-47391082D01*
X57377748Y-47570013D01*
X57150013Y-47797748D01*
X56971082Y-48065537D01*
X56847832Y-48363088D01*
X56785000Y-48678967D01*
X51460000Y-48678967D01*
X51460000Y-45578665D01*
X56985000Y-45578665D01*
X56985000Y-45861335D01*
X57040147Y-46138574D01*
X57148320Y-46399727D01*
X57305363Y-46634759D01*
X57505241Y-46834637D01*
X57740273Y-46991680D01*
X58001426Y-47099853D01*
X58278665Y-47155000D01*
X58561335Y-47155000D01*
X58838574Y-47099853D01*
X59099727Y-46991680D01*
X59334759Y-46834637D01*
X59534637Y-46634759D01*
X59691680Y-46399727D01*
X59799853Y-46138574D01*
X59855000Y-45861335D01*
X59855000Y-45578665D01*
X59799853Y-45301426D01*
X59691680Y-45040273D01*
X59534637Y-44805241D01*
X59334759Y-44605363D01*
X59099727Y-44448320D01*
X58838574Y-44340147D01*
X58561335Y-44285000D01*
X58278665Y-44285000D01*
X58001426Y-44340147D01*
X57740273Y-44448320D01*
X57505241Y-44605363D01*
X57305363Y-44805241D01*
X57148320Y-45040273D01*
X57040147Y-45301426D01*
X56985000Y-45578665D01*
X51460000Y-45578665D01*
X51460000Y-43708967D01*
X62500000Y-43708967D01*
X62500000Y-44031033D01*
X62562832Y-44346912D01*
X62686082Y-44644463D01*
X62865013Y-44912252D01*
X63092748Y-45139987D01*
X63360537Y-45318918D01*
X63658088Y-45442168D01*
X63973967Y-45505000D01*
X64296033Y-45505000D01*
X64611912Y-45442168D01*
X64909463Y-45318918D01*
X65177252Y-45139987D01*
X65404987Y-44912252D01*
X65583918Y-44644463D01*
X65707168Y-44346912D01*
X65770000Y-44031033D01*
X65770000Y-43708967D01*
X69000000Y-43708967D01*
X69000000Y-44031033D01*
X69062832Y-44346912D01*
X69186082Y-44644463D01*
X69365013Y-44912252D01*
X69592748Y-45139987D01*
X69860537Y-45318918D01*
X70158088Y-45442168D01*
X70473967Y-45505000D01*
X70796033Y-45505000D01*
X71111912Y-45442168D01*
X71409463Y-45318918D01*
X71677252Y-45139987D01*
X71904987Y-44912252D01*
X71980632Y-44799040D01*
X77348091Y-44799040D01*
X77442930Y-45063881D01*
X77587615Y-45305131D01*
X77776586Y-45513519D01*
X78002580Y-45681037D01*
X78256913Y-45801246D01*
X78390961Y-45841904D01*
X78613000Y-45719915D01*
X78613000Y-44577000D01*
X78867000Y-44577000D01*
X78867000Y-45719915D01*
X79089039Y-45841904D01*
X79223087Y-45801246D01*
X79477420Y-45681037D01*
X79703414Y-45513519D01*
X79892385Y-45305131D01*
X80037070Y-45063881D01*
X80131909Y-44799040D01*
X80010624Y-44577000D01*
X78867000Y-44577000D01*
X78613000Y-44577000D01*
X77469376Y-44577000D01*
X77348091Y-44799040D01*
X71980632Y-44799040D01*
X72083918Y-44644463D01*
X72207168Y-44346912D01*
X72256090Y-44100960D01*
X77348091Y-44100960D01*
X77469376Y-44323000D01*
X78613000Y-44323000D01*
X78613000Y-43180085D01*
X78867000Y-43180085D01*
X78867000Y-44323000D01*
X80010624Y-44323000D01*
X80131909Y-44100960D01*
X80037070Y-43836119D01*
X79892385Y-43594869D01*
X79703414Y-43386481D01*
X79477420Y-43218963D01*
X79223087Y-43098754D01*
X79089039Y-43058096D01*
X78867000Y-43180085D01*
X78613000Y-43180085D01*
X78390961Y-43058096D01*
X78256913Y-43098754D01*
X78002580Y-43218963D01*
X77776586Y-43386481D01*
X77587615Y-43594869D01*
X77442930Y-43836119D01*
X77348091Y-44100960D01*
X72256090Y-44100960D01*
X72270000Y-44031033D01*
X72270000Y-43708967D01*
X72207168Y-43393088D01*
X72083918Y-43095537D01*
X71904987Y-42827748D01*
X71677252Y-42600013D01*
X71409463Y-42421082D01*
X71111912Y-42297832D01*
X70796033Y-42235000D01*
X70473967Y-42235000D01*
X70158088Y-42297832D01*
X69860537Y-42421082D01*
X69592748Y-42600013D01*
X69365013Y-42827748D01*
X69186082Y-43095537D01*
X69062832Y-43393088D01*
X69000000Y-43708967D01*
X65770000Y-43708967D01*
X65707168Y-43393088D01*
X65583918Y-43095537D01*
X65404987Y-42827748D01*
X65177252Y-42600013D01*
X64909463Y-42421082D01*
X64611912Y-42297832D01*
X64296033Y-42235000D01*
X63973967Y-42235000D01*
X63658088Y-42297832D01*
X63360537Y-42421082D01*
X63092748Y-42600013D01*
X62865013Y-42827748D01*
X62686082Y-43095537D01*
X62562832Y-43393088D01*
X62500000Y-43708967D01*
X51460000Y-43708967D01*
X51460000Y-38449040D01*
X57028091Y-38449040D01*
X57122930Y-38713881D01*
X57267615Y-38955131D01*
X57456586Y-39163519D01*
X57682580Y-39331037D01*
X57936913Y-39451246D01*
X58070961Y-39491904D01*
X58293000Y-39369915D01*
X58293000Y-38227000D01*
X58547000Y-38227000D01*
X58547000Y-39369915D01*
X58769039Y-39491904D01*
X58903087Y-39451246D01*
X59157420Y-39331037D01*
X59322101Y-39208967D01*
X62500000Y-39208967D01*
X62500000Y-39531033D01*
X62562832Y-39846912D01*
X62686082Y-40144463D01*
X62865013Y-40412252D01*
X63092748Y-40639987D01*
X63360537Y-40818918D01*
X63658088Y-40942168D01*
X63973967Y-41005000D01*
X64296033Y-41005000D01*
X64611912Y-40942168D01*
X64909463Y-40818918D01*
X65177252Y-40639987D01*
X65404987Y-40412252D01*
X65583918Y-40144463D01*
X65707168Y-39846912D01*
X65770000Y-39531033D01*
X65770000Y-39208967D01*
X69000000Y-39208967D01*
X69000000Y-39531033D01*
X69062832Y-39846912D01*
X69186082Y-40144463D01*
X69365013Y-40412252D01*
X69592748Y-40639987D01*
X69860537Y-40818918D01*
X70158088Y-40942168D01*
X70473967Y-41005000D01*
X70796033Y-41005000D01*
X71111912Y-40942168D01*
X71409463Y-40818918D01*
X71677252Y-40639987D01*
X71904987Y-40412252D01*
X72083918Y-40144463D01*
X72207168Y-39846912D01*
X72270000Y-39531033D01*
X72270000Y-39208967D01*
X72207168Y-38893088D01*
X72083918Y-38595537D01*
X71904987Y-38327748D01*
X71677252Y-38100013D01*
X71409463Y-37921082D01*
X71111912Y-37797832D01*
X70796033Y-37735000D01*
X70473967Y-37735000D01*
X70158088Y-37797832D01*
X69860537Y-37921082D01*
X69592748Y-38100013D01*
X69365013Y-38327748D01*
X69186082Y-38595537D01*
X69062832Y-38893088D01*
X69000000Y-39208967D01*
X65770000Y-39208967D01*
X65707168Y-38893088D01*
X65583918Y-38595537D01*
X65404987Y-38327748D01*
X65177252Y-38100013D01*
X64909463Y-37921082D01*
X64611912Y-37797832D01*
X64296033Y-37735000D01*
X63973967Y-37735000D01*
X63658088Y-37797832D01*
X63360537Y-37921082D01*
X63092748Y-38100013D01*
X62865013Y-38327748D01*
X62686082Y-38595537D01*
X62562832Y-38893088D01*
X62500000Y-39208967D01*
X59322101Y-39208967D01*
X59383414Y-39163519D01*
X59572385Y-38955131D01*
X59717070Y-38713881D01*
X59811909Y-38449040D01*
X59690624Y-38227000D01*
X58547000Y-38227000D01*
X58293000Y-38227000D01*
X57149376Y-38227000D01*
X57028091Y-38449040D01*
X51460000Y-38449040D01*
X51460000Y-37750960D01*
X57028091Y-37750960D01*
X57149376Y-37973000D01*
X58293000Y-37973000D01*
X58293000Y-36830085D01*
X58547000Y-36830085D01*
X58547000Y-37973000D01*
X59690624Y-37973000D01*
X59811909Y-37750960D01*
X59717070Y-37486119D01*
X59572385Y-37244869D01*
X59383414Y-37036481D01*
X59157420Y-36868963D01*
X58903087Y-36748754D01*
X58769039Y-36708096D01*
X58547000Y-36830085D01*
X58293000Y-36830085D01*
X58070961Y-36708096D01*
X57936913Y-36748754D01*
X57682580Y-36868963D01*
X57456586Y-37036481D01*
X57267615Y-37244869D01*
X57122930Y-37486119D01*
X57028091Y-37750960D01*
X51460000Y-37750960D01*
X51460000Y-36220000D01*
X77439438Y-36220000D01*
X77360147Y-36411426D01*
G37*
X77360147Y-36411426D02*
X77305000Y-36688665D01*
X77305000Y-36971335D01*
X77360147Y-37248574D01*
X77468320Y-37509727D01*
X77625363Y-37744759D01*
X77825241Y-37944637D01*
X78060273Y-38101680D01*
X78321426Y-38209853D01*
X78598665Y-38265000D01*
X78881335Y-38265000D01*
X79158574Y-38209853D01*
X79419727Y-38101680D01*
X79654759Y-37944637D01*
X79854637Y-37744759D01*
X80011680Y-37509727D01*
X80119853Y-37248574D01*
X80175000Y-36971335D01*
X80175000Y-36688665D01*
X80119853Y-36411426D01*
X80040562Y-36220000D01*
X121260001Y-36220000D01*
X121260000Y-114910000D01*
X114941578Y-114910000D01*
X114975046Y-114876532D01*
X115008818Y-114848816D01*
X115119412Y-114714058D01*
X115201590Y-114560312D01*
X115252196Y-114393489D01*
X115265001Y-114263476D01*
X115265001Y-114263468D01*
X115269282Y-114219999D01*
X115265001Y-114176530D01*
X115265001Y-109640000D01*
X115351928Y-109640000D01*
X115351928Y-111340000D01*
X115364188Y-111464482D01*
X115400498Y-111584180D01*
X115459463Y-111694494D01*
X115538815Y-111791185D01*
X115635506Y-111870537D01*
X115745820Y-111929502D01*
X115865518Y-111965812D01*
X115990000Y-111978072D01*
X117690000Y-111978072D01*
X117814482Y-111965812D01*
X117934180Y-111929502D01*
X118044494Y-111870537D01*
X118141185Y-111791185D01*
X118220537Y-111694494D01*
X118279502Y-111584180D01*
X118302498Y-111508374D01*
X118498645Y-111685178D01*
X118748748Y-111834157D01*
X119023109Y-111931481D01*
X119253000Y-111810814D01*
X119253000Y-110617000D01*
X119507000Y-110617000D01*
X119507000Y-111810814D01*
X119736891Y-111931481D01*
X120011252Y-111834157D01*
X120261355Y-111685178D01*
X120477588Y-111490269D01*
X120651641Y-111256920D01*
X120776825Y-110994099D01*
X120821476Y-110846890D01*
X120700155Y-110617000D01*
X119507000Y-110617000D01*
X119253000Y-110617000D01*
X119233000Y-110617000D01*
X119233000Y-110363000D01*
X119253000Y-110363000D01*
X119253000Y-108077000D01*
X119507000Y-108077000D01*
X119507000Y-110363000D01*
X120700155Y-110363000D01*
X120821476Y-110133110D01*
X120776825Y-109985901D01*
X120651641Y-109723080D01*
X120477588Y-109489731D01*
X120261355Y-109294822D01*
X120135745Y-109220000D01*
X120261355Y-109145178D01*
X120477588Y-108950269D01*
X120651641Y-108716920D01*
X120776825Y-108454099D01*
X120821476Y-108306890D01*
X120700155Y-108077000D01*
X119507000Y-108077000D01*
X119253000Y-108077000D01*
X119233000Y-108077000D01*
X119233000Y-107823000D01*
X119253000Y-107823000D01*
X119253000Y-105537000D01*
X119507000Y-105537000D01*
X119507000Y-107823000D01*
X120700155Y-107823000D01*
X120821476Y-107593110D01*
X120776825Y-107445901D01*
X120651641Y-107183080D01*
X120477588Y-106949731D01*
X120261355Y-106754822D01*
X120135745Y-106680000D01*
X120261355Y-106605178D01*
X120477588Y-106410269D01*
X120651641Y-106176920D01*
X120776825Y-105914099D01*
X120821476Y-105766890D01*
X120700155Y-105537000D01*
X119507000Y-105537000D01*
X119253000Y-105537000D01*
X119233000Y-105537000D01*
X119233000Y-105283000D01*
X119253000Y-105283000D01*
X119253000Y-102997000D01*
X119507000Y-102997000D01*
X119507000Y-105283000D01*
X120700155Y-105283000D01*
X120821476Y-105053110D01*
X120776825Y-104905901D01*
X120651641Y-104643080D01*
X120477588Y-104409731D01*
X120261355Y-104214822D01*
X120135745Y-104140000D01*
X120261355Y-104065178D01*
X120477588Y-103870269D01*
X120651641Y-103636920D01*
X120776825Y-103374099D01*
X120821476Y-103226890D01*
X120700155Y-102997000D01*
X119507000Y-102997000D01*
X119253000Y-102997000D01*
X119233000Y-102997000D01*
X119233000Y-102743000D01*
X119253000Y-102743000D01*
X119253000Y-100457000D01*
X119507000Y-100457000D01*
X119507000Y-102743000D01*
X120700155Y-102743000D01*
X120821476Y-102513110D01*
X120776825Y-102365901D01*
X120651641Y-102103080D01*
X120477588Y-101869731D01*
X120261355Y-101674822D01*
X120135745Y-101600000D01*
X120261355Y-101525178D01*
X120477588Y-101330269D01*
X120651641Y-101096920D01*
X120776825Y-100834099D01*
X120821476Y-100686890D01*
X120700155Y-100457000D01*
X119507000Y-100457000D01*
X119253000Y-100457000D01*
X119233000Y-100457000D01*
X119233000Y-100203000D01*
X119253000Y-100203000D01*
X119253000Y-97917000D01*
X119507000Y-97917000D01*
X119507000Y-100203000D01*
X120700155Y-100203000D01*
X120821476Y-99973110D01*
X120776825Y-99825901D01*
X120651641Y-99563080D01*
X120477588Y-99329731D01*
X120261355Y-99134822D01*
X120135745Y-99060000D01*
X120261355Y-98985178D01*
X120477588Y-98790269D01*
X120651641Y-98556920D01*
X120776825Y-98294099D01*
X120821476Y-98146890D01*
X120700155Y-97917000D01*
X119507000Y-97917000D01*
X119253000Y-97917000D01*
X119233000Y-97917000D01*
X119233000Y-97663000D01*
X119253000Y-97663000D01*
X119253000Y-95377000D01*
X119507000Y-95377000D01*
X119507000Y-97663000D01*
X120700155Y-97663000D01*
X120821476Y-97433110D01*
X120776825Y-97285901D01*
X120651641Y-97023080D01*
X120477588Y-96789731D01*
X120261355Y-96594822D01*
X120135745Y-96520000D01*
X120261355Y-96445178D01*
X120477588Y-96250269D01*
X120651641Y-96016920D01*
X120776825Y-95754099D01*
X120821476Y-95606890D01*
X120700155Y-95377000D01*
X119507000Y-95377000D01*
X119253000Y-95377000D01*
X119233000Y-95377000D01*
X119233000Y-95123000D01*
X119253000Y-95123000D01*
X119253000Y-92837000D01*
X119507000Y-92837000D01*
X119507000Y-95123000D01*
X120700155Y-95123000D01*
X120821476Y-94893110D01*
X120776825Y-94745901D01*
X120651641Y-94483080D01*
X120477588Y-94249731D01*
X120261355Y-94054822D01*
X120135745Y-93980000D01*
X120261355Y-93905178D01*
X120477588Y-93710269D01*
X120651641Y-93476920D01*
X120776825Y-93214099D01*
X120821476Y-93066890D01*
X120700155Y-92837000D01*
X119507000Y-92837000D01*
X119253000Y-92837000D01*
X119233000Y-92837000D01*
X119233000Y-92583000D01*
X119253000Y-92583000D01*
X119253000Y-90297000D01*
X119507000Y-90297000D01*
X119507000Y-92583000D01*
X120700155Y-92583000D01*
X120821476Y-92353110D01*
X120776825Y-92205901D01*
X120651641Y-91943080D01*
X120477588Y-91709731D01*
X120261355Y-91514822D01*
X120135745Y-91440000D01*
X120261355Y-91365178D01*
X120477588Y-91170269D01*
X120651641Y-90936920D01*
X120776825Y-90674099D01*
X120821476Y-90526890D01*
X120700155Y-90297000D01*
X119507000Y-90297000D01*
X119253000Y-90297000D01*
X119233000Y-90297000D01*
X119233000Y-90043000D01*
X119253000Y-90043000D01*
X119253000Y-87757000D01*
X119507000Y-87757000D01*
X119507000Y-90043000D01*
X120700155Y-90043000D01*
X120821476Y-89813110D01*
X120776825Y-89665901D01*
X120651641Y-89403080D01*
X120477588Y-89169731D01*
X120261355Y-88974822D01*
X120135745Y-88900000D01*
X120261355Y-88825178D01*
X120477588Y-88630269D01*
X120651641Y-88396920D01*
X120776825Y-88134099D01*
X120821476Y-87986890D01*
X120700155Y-87757000D01*
X119507000Y-87757000D01*
X119253000Y-87757000D01*
X119233000Y-87757000D01*
X119233000Y-87503000D01*
X119253000Y-87503000D01*
X119253000Y-85217000D01*
X119507000Y-85217000D01*
X119507000Y-87503000D01*
X120700155Y-87503000D01*
X120821476Y-87273110D01*
X120776825Y-87125901D01*
X120651641Y-86863080D01*
X120477588Y-86629731D01*
X120261355Y-86434822D01*
X120135745Y-86360000D01*
X120261355Y-86285178D01*
X120477588Y-86090269D01*
X120651641Y-85856920D01*
X120776825Y-85594099D01*
X120821476Y-85446890D01*
X120700155Y-85217000D01*
X119507000Y-85217000D01*
X119253000Y-85217000D01*
X119233000Y-85217000D01*
X119233000Y-84963000D01*
X119253000Y-84963000D01*
X119253000Y-82677000D01*
X119507000Y-82677000D01*
X119507000Y-84963000D01*
X120700155Y-84963000D01*
X120821476Y-84733110D01*
X120776825Y-84585901D01*
X120651641Y-84323080D01*
X120477588Y-84089731D01*
X120261355Y-83894822D01*
X120135745Y-83820000D01*
X120261355Y-83745178D01*
X120477588Y-83550269D01*
X120651641Y-83316920D01*
X120776825Y-83054099D01*
X120821476Y-82906890D01*
X120700155Y-82677000D01*
X119507000Y-82677000D01*
X119253000Y-82677000D01*
X119233000Y-82677000D01*
X119233000Y-82423000D01*
X119253000Y-82423000D01*
X119253000Y-80137000D01*
X119507000Y-80137000D01*
X119507000Y-82423000D01*
X120700155Y-82423000D01*
X120821476Y-82193110D01*
X120776825Y-82045901D01*
X120651641Y-81783080D01*
X120477588Y-81549731D01*
X120261355Y-81354822D01*
X120135745Y-81280000D01*
X120261355Y-81205178D01*
X120477588Y-81010269D01*
X120651641Y-80776920D01*
X120776825Y-80514099D01*
X120821476Y-80366890D01*
X120700155Y-80137000D01*
X119507000Y-80137000D01*
X119253000Y-80137000D01*
X119233000Y-80137000D01*
X119233000Y-79883000D01*
X119253000Y-79883000D01*
X119253000Y-77597000D01*
X119507000Y-77597000D01*
X119507000Y-79883000D01*
X120700155Y-79883000D01*
X120821476Y-79653110D01*
X120776825Y-79505901D01*
X120651641Y-79243080D01*
X120477588Y-79009731D01*
X120261355Y-78814822D01*
X120135745Y-78740000D01*
X120261355Y-78665178D01*
X120477588Y-78470269D01*
X120651641Y-78236920D01*
X120776825Y-77974099D01*
X120821476Y-77826890D01*
X120700155Y-77597000D01*
X119507000Y-77597000D01*
X119253000Y-77597000D01*
X119233000Y-77597000D01*
X119233000Y-77343000D01*
X119253000Y-77343000D01*
X119253000Y-75057000D01*
X119507000Y-75057000D01*
X119507000Y-77343000D01*
X120700155Y-77343000D01*
X120821476Y-77113110D01*
X120776825Y-76965901D01*
X120651641Y-76703080D01*
X120477588Y-76469731D01*
X120261355Y-76274822D01*
X120135745Y-76200000D01*
X120261355Y-76125178D01*
X120477588Y-75930269D01*
X120651641Y-75696920D01*
X120776825Y-75434099D01*
X120821476Y-75286890D01*
X120700155Y-75057000D01*
X119507000Y-75057000D01*
X119253000Y-75057000D01*
X119233000Y-75057000D01*
X119233000Y-74803000D01*
X119253000Y-74803000D01*
X119253000Y-72517000D01*
X119507000Y-72517000D01*
X119507000Y-74803000D01*
X120700155Y-74803000D01*
X120821476Y-74573110D01*
X120776825Y-74425901D01*
X120651641Y-74163080D01*
X120477588Y-73929731D01*
X120261355Y-73734822D01*
X120135745Y-73660000D01*
X120261355Y-73585178D01*
X120477588Y-73390269D01*
X120651641Y-73156920D01*
X120776825Y-72894099D01*
X120821476Y-72746890D01*
X120700155Y-72517000D01*
X119507000Y-72517000D01*
X119253000Y-72517000D01*
X119233000Y-72517000D01*
X119233000Y-72263000D01*
X119253000Y-72263000D01*
X119253000Y-69977000D01*
X119507000Y-69977000D01*
X119507000Y-72263000D01*
X120700155Y-72263000D01*
X120821476Y-72033110D01*
X120776825Y-71885901D01*
X120651641Y-71623080D01*
X120477588Y-71389731D01*
X120261355Y-71194822D01*
X120135745Y-71120000D01*
X120261355Y-71045178D01*
X120477588Y-70850269D01*
X120651641Y-70616920D01*
X120776825Y-70354099D01*
X120821476Y-70206890D01*
X120700155Y-69977000D01*
X119507000Y-69977000D01*
X119253000Y-69977000D01*
X119233000Y-69977000D01*
X119233000Y-69723000D01*
X119253000Y-69723000D01*
X119253000Y-67437000D01*
X119507000Y-67437000D01*
X119507000Y-69723000D01*
X120700155Y-69723000D01*
X120821476Y-69493110D01*
X120776825Y-69345901D01*
X120651641Y-69083080D01*
X120477588Y-68849731D01*
X120261355Y-68654822D01*
X120135745Y-68580000D01*
X120261355Y-68505178D01*
X120477588Y-68310269D01*
X120651641Y-68076920D01*
X120776825Y-67814099D01*
X120821476Y-67666890D01*
X120700155Y-67437000D01*
X119507000Y-67437000D01*
X119253000Y-67437000D01*
X119233000Y-67437000D01*
X119233000Y-67183000D01*
X119253000Y-67183000D01*
X119253000Y-65989186D01*
X119507000Y-65989186D01*
X119507000Y-67183000D01*
X120700155Y-67183000D01*
X120821476Y-66953110D01*
X120776825Y-66805901D01*
X120651641Y-66543080D01*
X120477588Y-66309731D01*
X120261355Y-66114822D01*
X120011252Y-65965843D01*
X119736891Y-65868519D01*
X119507000Y-65989186D01*
X119253000Y-65989186D01*
X119023109Y-65868519D01*
X118748748Y-65965843D01*
X118498645Y-66114822D01*
X118282412Y-66309731D01*
X118111100Y-66539406D01*
X117993475Y-66363368D01*
X117786632Y-66156525D01*
X117543411Y-65994010D01*
X117273158Y-65882068D01*
X116986260Y-65825000D01*
X116693740Y-65825000D01*
X116406842Y-65882068D01*
X116136589Y-65994010D01*
X115893368Y-66156525D01*
X115686525Y-66363368D01*
X115524010Y-66606589D01*
X115412068Y-66876842D01*
X115355000Y-67163740D01*
X115355000Y-67456260D01*
X115412068Y-67743158D01*
X115524010Y-68013411D01*
X115686525Y-68256632D01*
X115893368Y-68463475D01*
X116067760Y-68580000D01*
X115893368Y-68696525D01*
X115686525Y-68903368D01*
X115524010Y-69146589D01*
X115412068Y-69416842D01*
X115355000Y-69703740D01*
X115355000Y-69996260D01*
X115412068Y-70283158D01*
X115524010Y-70553411D01*
X115686525Y-70796632D01*
X115893368Y-71003475D01*
X116067760Y-71120000D01*
X115893368Y-71236525D01*
X115686525Y-71443368D01*
X115524010Y-71686589D01*
X115412068Y-71956842D01*
X115355000Y-72243740D01*
X115355000Y-72536260D01*
X115412068Y-72823158D01*
X115524010Y-73093411D01*
X115686525Y-73336632D01*
X115893368Y-73543475D01*
X116067760Y-73660000D01*
X115893368Y-73776525D01*
X115686525Y-73983368D01*
X115524010Y-74226589D01*
X115412068Y-74496842D01*
X115355000Y-74783740D01*
X115355000Y-75076260D01*
X115412068Y-75363158D01*
X115524010Y-75633411D01*
X115686525Y-75876632D01*
X115893368Y-76083475D01*
X116067760Y-76200000D01*
X115893368Y-76316525D01*
X115686525Y-76523368D01*
X115524010Y-76766589D01*
X115412068Y-77036842D01*
X115355000Y-77323740D01*
X115355000Y-77616260D01*
X115412068Y-77903158D01*
X115524010Y-78173411D01*
X115686525Y-78416632D01*
X115893368Y-78623475D01*
X116067760Y-78740000D01*
X115893368Y-78856525D01*
X115686525Y-79063368D01*
X115524010Y-79306589D01*
X115412068Y-79576842D01*
X115355000Y-79863740D01*
X115355000Y-80156260D01*
X115412068Y-80443158D01*
X115524010Y-80713411D01*
X115686525Y-80956632D01*
X115893368Y-81163475D01*
X116067760Y-81280000D01*
X115893368Y-81396525D01*
X115686525Y-81603368D01*
X115524010Y-81846589D01*
X115412068Y-82116842D01*
X115355000Y-82403740D01*
X115355000Y-82696260D01*
X115412068Y-82983158D01*
X115524010Y-83253411D01*
X115686525Y-83496632D01*
X115893368Y-83703475D01*
X116067760Y-83820000D01*
X115893368Y-83936525D01*
X115686525Y-84143368D01*
X115524010Y-84386589D01*
X115412068Y-84656842D01*
X115355000Y-84943740D01*
X115355000Y-85236260D01*
X115412068Y-85523158D01*
X115524010Y-85793411D01*
X115686525Y-86036632D01*
X115893368Y-86243475D01*
X116067760Y-86360000D01*
X115893368Y-86476525D01*
X115686525Y-86683368D01*
X115524010Y-86926589D01*
X115412068Y-87196842D01*
X115355000Y-87483740D01*
X115355000Y-87776260D01*
X115412068Y-88063158D01*
X115524010Y-88333411D01*
X115686525Y-88576632D01*
X115893368Y-88783475D01*
X116067760Y-88900000D01*
X115893368Y-89016525D01*
X115686525Y-89223368D01*
X115524010Y-89466589D01*
X115412068Y-89736842D01*
X115355000Y-90023740D01*
X115355000Y-90316260D01*
X115412068Y-90603158D01*
X115524010Y-90873411D01*
X115686525Y-91116632D01*
X115893368Y-91323475D01*
X116067760Y-91440000D01*
X115893368Y-91556525D01*
X115686525Y-91763368D01*
X115524010Y-92006589D01*
X115412068Y-92276842D01*
X115355000Y-92563740D01*
X115355000Y-92856260D01*
X115412068Y-93143158D01*
X115524010Y-93413411D01*
X115686525Y-93656632D01*
X115893368Y-93863475D01*
X116067760Y-93980000D01*
X115893368Y-94096525D01*
X115686525Y-94303368D01*
X115524010Y-94546589D01*
X115412068Y-94816842D01*
X115355000Y-95103740D01*
X115355000Y-95396260D01*
X115412068Y-95683158D01*
X115524010Y-95953411D01*
X115686525Y-96196632D01*
X115893368Y-96403475D01*
X116067760Y-96520000D01*
X115893368Y-96636525D01*
X115686525Y-96843368D01*
X115524010Y-97086589D01*
X115412068Y-97356842D01*
X115355000Y-97643740D01*
X115355000Y-97936260D01*
X115412068Y-98223158D01*
X115524010Y-98493411D01*
X115686525Y-98736632D01*
X115893368Y-98943475D01*
X116067760Y-99060000D01*
X115893368Y-99176525D01*
X115686525Y-99383368D01*
X115524010Y-99626589D01*
X115412068Y-99896842D01*
X115355000Y-100183740D01*
X115355000Y-100476260D01*
X115412068Y-100763158D01*
X115524010Y-101033411D01*
X115686525Y-101276632D01*
X115893368Y-101483475D01*
X116067760Y-101600000D01*
X115893368Y-101716525D01*
X115686525Y-101923368D01*
X115524010Y-102166589D01*
X115412068Y-102436842D01*
X115355000Y-102723740D01*
X115355000Y-103016260D01*
X115412068Y-103303158D01*
X115524010Y-103573411D01*
X115686525Y-103816632D01*
X115893368Y-104023475D01*
X116067760Y-104140000D01*
X115893368Y-104256525D01*
X115686525Y-104463368D01*
X115524010Y-104706589D01*
X115412068Y-104976842D01*
X115355000Y-105263740D01*
X115355000Y-105556260D01*
X115412068Y-105843158D01*
X115524010Y-106113411D01*
X115686525Y-106356632D01*
X115893368Y-106563475D01*
X116067760Y-106680000D01*
X115893368Y-106796525D01*
X115686525Y-107003368D01*
X115524010Y-107246589D01*
X115412068Y-107516842D01*
X115355000Y-107803740D01*
X115355000Y-108096260D01*
X115412068Y-108383158D01*
X115524010Y-108653411D01*
X115686525Y-108896632D01*
X115818380Y-109028487D01*
X115745820Y-109050498D01*
X115635506Y-109109463D01*
X115538815Y-109188815D01*
X115459463Y-109285506D01*
X115400498Y-109395820D01*
X115364188Y-109515518D01*
X115351928Y-109640000D01*
X115265001Y-109640000D01*
X115265001Y-109343470D01*
X115269282Y-109300001D01*
X115265001Y-109256532D01*
X115265001Y-109256524D01*
X115252196Y-109126511D01*
X115201590Y-108959688D01*
X115201590Y-108959687D01*
X115119412Y-108805942D01*
X115036533Y-108704955D01*
X115008818Y-108671184D01*
X114975045Y-108643467D01*
X114487933Y-108156355D01*
X114487928Y-108156349D01*
X114459414Y-108127835D01*
X114466397Y-108092732D01*
X114466397Y-107810062D01*
X114411250Y-107532823D01*
X114303077Y-107271670D01*
X114146034Y-107036638D01*
X113946156Y-106836760D01*
X113711124Y-106679717D01*
X113449971Y-106571544D01*
X113172732Y-106516397D01*
X112890062Y-106516397D01*
X112612823Y-106571544D01*
X112351670Y-106679717D01*
X112116638Y-106836760D01*
X111916760Y-107036638D01*
X111759717Y-107271670D01*
X111651544Y-107532823D01*
X111596397Y-107810062D01*
X111596397Y-108092732D01*
X111651544Y-108369971D01*
X111759717Y-108631124D01*
X111916760Y-108866156D01*
X112116638Y-109066034D01*
X112347412Y-109220232D01*
X112115241Y-109375363D01*
X111915363Y-109575241D01*
X111895479Y-109605000D01*
X104076719Y-109605000D01*
X101281473Y-106809754D01*
X101458665Y-106845000D01*
X101741335Y-106845000D01*
X102018574Y-106789853D01*
X102279727Y-106681680D01*
X102514759Y-106524637D01*
X102714637Y-106324759D01*
X102871680Y-106089727D01*
X102979853Y-105828574D01*
X103035000Y-105551335D01*
X103035000Y-105268665D01*
X102979853Y-104991426D01*
X102871680Y-104730273D01*
X102714637Y-104495241D01*
X102514759Y-104295363D01*
X102282241Y-104140000D01*
X102514759Y-103984637D01*
X102714637Y-103784759D01*
X102871680Y-103549727D01*
X102979853Y-103288574D01*
X103035000Y-103011335D01*
X103035000Y-102728665D01*
X102979853Y-102451426D01*
X102871680Y-102190273D01*
X102714637Y-101955241D01*
X102514759Y-101755363D01*
X102282241Y-101600000D01*
X102514759Y-101444637D01*
X102714637Y-101244759D01*
X102871680Y-101009727D01*
X102979853Y-100748574D01*
X103035000Y-100471335D01*
X103035000Y-100188665D01*
X102979853Y-99911426D01*
X102871680Y-99650273D01*
X102714637Y-99415241D01*
X102514759Y-99215363D01*
X102282241Y-99060000D01*
X102514759Y-98904637D01*
X102714637Y-98704759D01*
X102871680Y-98469727D01*
X102979853Y-98208574D01*
X103035000Y-97931335D01*
X103035000Y-97648665D01*
X102979853Y-97371426D01*
X102871680Y-97110273D01*
X102714637Y-96875241D01*
X102514759Y-96675363D01*
X102282241Y-96520000D01*
X102514759Y-96364637D01*
X102714637Y-96164759D01*
X102871680Y-95929727D01*
X102979853Y-95668574D01*
X103035000Y-95391335D01*
X103035000Y-95108665D01*
X102979853Y-94831426D01*
X102871680Y-94570273D01*
X102714637Y-94335241D01*
X102514759Y-94135363D01*
X102282241Y-93980000D01*
X102514759Y-93824637D01*
X102714637Y-93624759D01*
X102871680Y-93389727D01*
X102979853Y-93128574D01*
X103035000Y-92851335D01*
X103035000Y-92568665D01*
X102979853Y-92291426D01*
X102871680Y-92030273D01*
X102714637Y-91795241D01*
X102514759Y-91595363D01*
X102282241Y-91440000D01*
X102514759Y-91284637D01*
X102714637Y-91084759D01*
X102871680Y-90849727D01*
X102979853Y-90588574D01*
X103035000Y-90311335D01*
X103035000Y-90028665D01*
X102979853Y-89751426D01*
X102871680Y-89490273D01*
X102714637Y-89255241D01*
X102514759Y-89055363D01*
X102282241Y-88900000D01*
X102514759Y-88744637D01*
X102714637Y-88544759D01*
X102871680Y-88309727D01*
X102979853Y-88048574D01*
X103035000Y-87771335D01*
X103035000Y-87488665D01*
X102979853Y-87211426D01*
X102871680Y-86950273D01*
X102714637Y-86715241D01*
X102514759Y-86515363D01*
X102282241Y-86360000D01*
X102514759Y-86204637D01*
X102714637Y-86004759D01*
X102871680Y-85769727D01*
X102979853Y-85508574D01*
X103035000Y-85231335D01*
X103035000Y-84948665D01*
X102979853Y-84671426D01*
X102871680Y-84410273D01*
X102714637Y-84175241D01*
X102514759Y-83975363D01*
X102282241Y-83820000D01*
X102514759Y-83664637D01*
X102714637Y-83464759D01*
X102871680Y-83229727D01*
X102979853Y-82968574D01*
X103035000Y-82691335D01*
X103035000Y-82408665D01*
X102979853Y-82131426D01*
X102871680Y-81870273D01*
X102714637Y-81635241D01*
X102514759Y-81435363D01*
X102282241Y-81280000D01*
X102514759Y-81124637D01*
X102714637Y-80924759D01*
X102871680Y-80689727D01*
X102979853Y-80428574D01*
X103035000Y-80151335D01*
X103035000Y-79868665D01*
X102979853Y-79591426D01*
X102871680Y-79330273D01*
X102714637Y-79095241D01*
X102514759Y-78895363D01*
X102282241Y-78740000D01*
X102514759Y-78584637D01*
X102714637Y-78384759D01*
X102871680Y-78149727D01*
X102979853Y-77888574D01*
X103035000Y-77611335D01*
X103035000Y-77328665D01*
X102979853Y-77051426D01*
X102871680Y-76790273D01*
X102714637Y-76555241D01*
X102514759Y-76355363D01*
X102282241Y-76200000D01*
X102514759Y-76044637D01*
X102714637Y-75844759D01*
X102871680Y-75609727D01*
X102979853Y-75348574D01*
X103035000Y-75071335D01*
X103035000Y-74788665D01*
X102979853Y-74511426D01*
X102871680Y-74250273D01*
X102714637Y-74015241D01*
X102514759Y-73815363D01*
X102279727Y-73658320D01*
X102269135Y-73653933D01*
X102455131Y-73542385D01*
X102663519Y-73353414D01*
X102831037Y-73127420D01*
X102951246Y-72873087D01*
X102991904Y-72739039D01*
X102869915Y-72517000D01*
X101727000Y-72517000D01*
X101727000Y-72537000D01*
X101473000Y-72537000D01*
X101473000Y-72517000D01*
X100330085Y-72517000D01*
X100208096Y-72739039D01*
X100248754Y-72873087D01*
X100368963Y-73127420D01*
X100536481Y-73353414D01*
X100744869Y-73542385D01*
X100930865Y-73653933D01*
X100920273Y-73658320D01*
X100685241Y-73815363D01*
X100485363Y-74015241D01*
X100328320Y-74250273D01*
X100220147Y-74511426D01*
X100165000Y-74788665D01*
X100165000Y-75071335D01*
X100220147Y-75348574D01*
X100328320Y-75609727D01*
X100485363Y-75844759D01*
X100685241Y-76044637D01*
X100917759Y-76200000D01*
X100685241Y-76355363D01*
X100485363Y-76555241D01*
X100328320Y-76790273D01*
X100220147Y-77051426D01*
X100165000Y-77328665D01*
X100165000Y-77611335D01*
X100220147Y-77888574D01*
X100328320Y-78149727D01*
X100485363Y-78384759D01*
X100685241Y-78584637D01*
X100917759Y-78740000D01*
X100685241Y-78895363D01*
X100485363Y-79095241D01*
X100328320Y-79330273D01*
X100220147Y-79591426D01*
X100165000Y-79868665D01*
X100165000Y-80151335D01*
X100220147Y-80428574D01*
X100328320Y-80689727D01*
X100485363Y-80924759D01*
X100685241Y-81124637D01*
X100917759Y-81280000D01*
X100685241Y-81435363D01*
X100485363Y-81635241D01*
X100328320Y-81870273D01*
X100220147Y-82131426D01*
X100165000Y-82408665D01*
X100165000Y-82691335D01*
X100220147Y-82968574D01*
X100328320Y-83229727D01*
X100485363Y-83464759D01*
X100685241Y-83664637D01*
X100917759Y-83820000D01*
X100685241Y-83975363D01*
X100485363Y-84175241D01*
X100328320Y-84410273D01*
X100220147Y-84671426D01*
X100165000Y-84948665D01*
X100165000Y-85231335D01*
X100220147Y-85508574D01*
X100328320Y-85769727D01*
X100485363Y-86004759D01*
X100685241Y-86204637D01*
X100917759Y-86360000D01*
X100685241Y-86515363D01*
X100485363Y-86715241D01*
X100328320Y-86950273D01*
X100220147Y-87211426D01*
X100165000Y-87488665D01*
X100165000Y-87771335D01*
X100220147Y-88048574D01*
X100328320Y-88309727D01*
X100485363Y-88544759D01*
X100685241Y-88744637D01*
X100917759Y-88900000D01*
X100685241Y-89055363D01*
X100485363Y-89255241D01*
X100328320Y-89490273D01*
X100220147Y-89751426D01*
X100165000Y-90028665D01*
X100165000Y-90311335D01*
X100220147Y-90588574D01*
X100328320Y-90849727D01*
X100485363Y-91084759D01*
X100685241Y-91284637D01*
X100917759Y-91440000D01*
X100685241Y-91595363D01*
X100485363Y-91795241D01*
X100328320Y-92030273D01*
X100220147Y-92291426D01*
X100165000Y-92568665D01*
X100165000Y-92851335D01*
X100220147Y-93128574D01*
X100328320Y-93389727D01*
X100485363Y-93624759D01*
X100685241Y-93824637D01*
X100917759Y-93980000D01*
X100685241Y-94135363D01*
X100485363Y-94335241D01*
X100328320Y-94570273D01*
X100220147Y-94831426D01*
X100165000Y-95108665D01*
X100165000Y-95391335D01*
X100220147Y-95668574D01*
X100328320Y-95929727D01*
X100485363Y-96164759D01*
X100685241Y-96364637D01*
X100917759Y-96520000D01*
X100685241Y-96675363D01*
X100485363Y-96875241D01*
X100328320Y-97110273D01*
X100220147Y-97371426D01*
X100165000Y-97648665D01*
X100165000Y-97931335D01*
X100220147Y-98208574D01*
X100328320Y-98469727D01*
X100485363Y-98704759D01*
X100685241Y-98904637D01*
X100917759Y-99060000D01*
X100685241Y-99215363D01*
X100485363Y-99415241D01*
X100328320Y-99650273D01*
X100220147Y-99911426D01*
X100165000Y-100188665D01*
X100165000Y-100471335D01*
X100220147Y-100748574D01*
X100328320Y-101009727D01*
X100485363Y-101244759D01*
X100685241Y-101444637D01*
X100917759Y-101600000D01*
X100685241Y-101755363D01*
X100485363Y-101955241D01*
X100328320Y-102190273D01*
X100220147Y-102451426D01*
X100165000Y-102728665D01*
X100165000Y-103011335D01*
X100220147Y-103288574D01*
X100328320Y-103549727D01*
X100485363Y-103784759D01*
X100685241Y-103984637D01*
X100917759Y-104140000D01*
X100685241Y-104295363D01*
X100645406Y-104335198D01*
X98023447Y-101713239D01*
X98283665Y-101765000D01*
X98566335Y-101765000D01*
X98843574Y-101709853D01*
X99104727Y-101601680D01*
X99339759Y-101444637D01*
X99539637Y-101244759D01*
X99696680Y-101009727D01*
X99804853Y-100748574D01*
X99860000Y-100471335D01*
X99860000Y-100188665D01*
X99804853Y-99911426D01*
X99696680Y-99650273D01*
X99539637Y-99415241D01*
X99339759Y-99215363D01*
X99107241Y-99060000D01*
X99339759Y-98904637D01*
X99539637Y-98704759D01*
X99696680Y-98469727D01*
X99804853Y-98208574D01*
X99860000Y-97931335D01*
X99860000Y-97648665D01*
X99804853Y-97371426D01*
X99696680Y-97110273D01*
X99539637Y-96875241D01*
X99339759Y-96675363D01*
X99104727Y-96518320D01*
X98843574Y-96410147D01*
X98566335Y-96355000D01*
X98283665Y-96355000D01*
X98248562Y-96361983D01*
X94865000Y-92978422D01*
X94865000Y-86450619D01*
X94911436Y-86469853D01*
X95188675Y-86525000D01*
X95471345Y-86525000D01*
X95748584Y-86469853D01*
X96009737Y-86361680D01*
X96244769Y-86204637D01*
X96444647Y-86004759D01*
X96461691Y-85979250D01*
X96504849Y-85975000D01*
X96504857Y-85975000D01*
X96634870Y-85962195D01*
X96801693Y-85911589D01*
X96955439Y-85829411D01*
X97090197Y-85718817D01*
X97117914Y-85685044D01*
X98465056Y-84337903D01*
X98498824Y-84310190D01*
X98533112Y-84268411D01*
X98609417Y-84175433D01*
X98626556Y-84143368D01*
X98691596Y-84021686D01*
X98742202Y-83854863D01*
X98755007Y-83724850D01*
X98755007Y-83724840D01*
X98759288Y-83681374D01*
X98755007Y-83637908D01*
X98755007Y-69708665D01*
X100165000Y-69708665D01*
X100165000Y-69991335D01*
X100220147Y-70268574D01*
X100328320Y-70529727D01*
X100485363Y-70764759D01*
X100685241Y-70964637D01*
X100920273Y-71121680D01*
X100930865Y-71126067D01*
X100744869Y-71237615D01*
X100536481Y-71426586D01*
X100368963Y-71652580D01*
X100248754Y-71906913D01*
X100208096Y-72040961D01*
X100330085Y-72263000D01*
X101473000Y-72263000D01*
X101473000Y-72243000D01*
X101727000Y-72243000D01*
X101727000Y-72263000D01*
X102869915Y-72263000D01*
X102991904Y-72040961D01*
X102951246Y-71906913D01*
X102831037Y-71652580D01*
X102663519Y-71426586D01*
X102455131Y-71237615D01*
X102269135Y-71126067D01*
X102279727Y-71121680D01*
X102514759Y-70964637D01*
X102714637Y-70764759D01*
X102871680Y-70529727D01*
X102979853Y-70268574D01*
X103035000Y-69991335D01*
X103035000Y-69708665D01*
X103033010Y-69698656D01*
X103975000Y-69698656D01*
X103975000Y-69981326D01*
X104030147Y-70258565D01*
X104138320Y-70519718D01*
X104295363Y-70754750D01*
X104425001Y-70884388D01*
X104425000Y-73885604D01*
X104295363Y-74015241D01*
X104138320Y-74250273D01*
X104030147Y-74511426D01*
X103975000Y-74788665D01*
X103975000Y-75071335D01*
X104030147Y-75348574D01*
X104138320Y-75609727D01*
X104295363Y-75844759D01*
X104495241Y-76044637D01*
X104730273Y-76201680D01*
X104991426Y-76309853D01*
X105268665Y-76365000D01*
X105551335Y-76365000D01*
X105828574Y-76309853D01*
X106089727Y-76201680D01*
X106324759Y-76044637D01*
X106524637Y-75844759D01*
X106681680Y-75609727D01*
X106789853Y-75348574D01*
X106845000Y-75071335D01*
X106845000Y-74788665D01*
X106789853Y-74511426D01*
X106681680Y-74250273D01*
X106524637Y-74015241D01*
X106395000Y-73885604D01*
X106395000Y-70884387D01*
X106524637Y-70754750D01*
X106681680Y-70519718D01*
X106789853Y-70258565D01*
X106845000Y-69981326D01*
X106845000Y-69698656D01*
X106839291Y-69669957D01*
X107302823Y-70133489D01*
X107898182Y-70531295D01*
X108559710Y-70805309D01*
X109261984Y-70945000D01*
X109978016Y-70945000D01*
X110680290Y-70805309D01*
X111341818Y-70531295D01*
X111937177Y-70133489D01*
X112443489Y-69627177D01*
X112841295Y-69031818D01*
X113115309Y-68370290D01*
X113255000Y-67668016D01*
X113255000Y-66951984D01*
X113115309Y-66249710D01*
X112841295Y-65588182D01*
X112443489Y-64992823D01*
X111937177Y-64486511D01*
X111341818Y-64088705D01*
X110680290Y-63814691D01*
X109978016Y-63675000D01*
X109261984Y-63675000D01*
X108559710Y-63814691D01*
X107898182Y-64088705D01*
X107302823Y-64486511D01*
X106796511Y-64992823D01*
X106398705Y-65588182D01*
X106124691Y-66249710D01*
X105985000Y-66951984D01*
X105985000Y-67668016D01*
X106124691Y-68370290D01*
X106251483Y-68676393D01*
X106089727Y-68568311D01*
X105828574Y-68460138D01*
X105551335Y-68404991D01*
X105268665Y-68404991D01*
X104991426Y-68460138D01*
X104730273Y-68568311D01*
X104495241Y-68725354D01*
X104295363Y-68925232D01*
X104138320Y-69160264D01*
X104030147Y-69421417D01*
X103975000Y-69698656D01*
X103033010Y-69698656D01*
X102979853Y-69431426D01*
X102871680Y-69170273D01*
X102714637Y-68935241D01*
X102514759Y-68735363D01*
X102279727Y-68578320D01*
X102018574Y-68470147D01*
X101741335Y-68415000D01*
X101458665Y-68415000D01*
X101181426Y-68470147D01*
X100920273Y-68578320D01*
X100685241Y-68735363D01*
X100485363Y-68935241D01*
X100328320Y-69170273D01*
X100220147Y-69431426D01*
X100165000Y-69708665D01*
X98755007Y-69708665D01*
X98755007Y-66326571D01*
X111384688Y-53696890D01*
X117938524Y-53696890D01*
X117983175Y-53844099D01*
X118108359Y-54106920D01*
X118282412Y-54340269D01*
X118498645Y-54535178D01*
X118748748Y-54684157D01*
X119023109Y-54781481D01*
X119253000Y-54660814D01*
X119253000Y-53467000D01*
X119507000Y-53467000D01*
X119507000Y-54660814D01*
X119736891Y-54781481D01*
X120011252Y-54684157D01*
X120261355Y-54535178D01*
X120477588Y-54340269D01*
X120651641Y-54106920D01*
X120776825Y-53844099D01*
X120821476Y-53696890D01*
X120700155Y-53467000D01*
X119507000Y-53467000D01*
X119253000Y-53467000D01*
X118059845Y-53467000D01*
X117938524Y-53696890D01*
X111384688Y-53696890D01*
X115393562Y-49688017D01*
X115428665Y-49695000D01*
X115711335Y-49695000D01*
X115988574Y-49639853D01*
X116249727Y-49531680D01*
X116484759Y-49374637D01*
X116684637Y-49174759D01*
X116841680Y-48939727D01*
X116949853Y-48678574D01*
X117005000Y-48401335D01*
X117005000Y-48118665D01*
X116949853Y-47841426D01*
X116841680Y-47580273D01*
X116684637Y-47345241D01*
X116484759Y-47145363D01*
X116252241Y-46990000D01*
X116484759Y-46834637D01*
X116684637Y-46634759D01*
X116841680Y-46399727D01*
X116949853Y-46138574D01*
X117005000Y-45861335D01*
X117005000Y-45578665D01*
X116949853Y-45301426D01*
X116841680Y-45040273D01*
X116727908Y-44870000D01*
X117891928Y-44870000D01*
X117891928Y-46570000D01*
X117904188Y-46694482D01*
X117940498Y-46814180D01*
X117999463Y-46924494D01*
X118078815Y-47021185D01*
X118175506Y-47100537D01*
X118285820Y-47159502D01*
X118358380Y-47181513D01*
X118226525Y-47313368D01*
X118064010Y-47556589D01*
X117952068Y-47826842D01*
X117895000Y-48113740D01*
X117895000Y-48406260D01*
X117952068Y-48693158D01*
X118064010Y-48963411D01*
X118226525Y-49206632D01*
X118433368Y-49413475D01*
X118607760Y-49530000D01*
X118433368Y-49646525D01*
X118226525Y-49853368D01*
X118064010Y-50096589D01*
X117952068Y-50366842D01*
X117895000Y-50653740D01*
X117895000Y-50946260D01*
X117952068Y-51233158D01*
X118064010Y-51503411D01*
X118226525Y-51746632D01*
X118433368Y-51953475D01*
X118615534Y-52075195D01*
X118498645Y-52144822D01*
X118282412Y-52339731D01*
X118108359Y-52573080D01*
X117983175Y-52835901D01*
X117938524Y-52983110D01*
X118059845Y-53213000D01*
X119253000Y-53213000D01*
X119253000Y-53193000D01*
X119507000Y-53193000D01*
X119507000Y-53213000D01*
X120700155Y-53213000D01*
X120821476Y-52983110D01*
X120776825Y-52835901D01*
X120651641Y-52573080D01*
X120477588Y-52339731D01*
X120261355Y-52144822D01*
X120144466Y-52075195D01*
X120326632Y-51953475D01*
X120533475Y-51746632D01*
X120695990Y-51503411D01*
X120807932Y-51233158D01*
X120865000Y-50946260D01*
X120865000Y-50653740D01*
X120807932Y-50366842D01*
X120695990Y-50096589D01*
X120533475Y-49853368D01*
X120326632Y-49646525D01*
X120152240Y-49530000D01*
X120326632Y-49413475D01*
X120533475Y-49206632D01*
X120695990Y-48963411D01*
X120807932Y-48693158D01*
X120865000Y-48406260D01*
X120865000Y-48113740D01*
X120807932Y-47826842D01*
X120695990Y-47556589D01*
X120533475Y-47313368D01*
X120401620Y-47181513D01*
X120474180Y-47159502D01*
X120584494Y-47100537D01*
X120681185Y-47021185D01*
X120760537Y-46924494D01*
X120819502Y-46814180D01*
X120855812Y-46694482D01*
X120868072Y-46570000D01*
X120868072Y-44870000D01*
X120855812Y-44745518D01*
X120819502Y-44625820D01*
X120760537Y-44515506D01*
X120681185Y-44418815D01*
X120584494Y-44339463D01*
X120474180Y-44280498D01*
X120354482Y-44244188D01*
X120230000Y-44231928D01*
X118530000Y-44231928D01*
X118405518Y-44244188D01*
X118285820Y-44280498D01*
X118175506Y-44339463D01*
X118078815Y-44418815D01*
X117999463Y-44515506D01*
X117940498Y-44625820D01*
X117904188Y-44745518D01*
X117891928Y-44870000D01*
X116727908Y-44870000D01*
X116684637Y-44805241D01*
X116484759Y-44605363D01*
X116249727Y-44448320D01*
X115988574Y-44340147D01*
X115711335Y-44285000D01*
X115428665Y-44285000D01*
X115151426Y-44340147D01*
X114890273Y-44448320D01*
X114655241Y-44605363D01*
X114455363Y-44805241D01*
X114298320Y-45040273D01*
X114190147Y-45301426D01*
X114135000Y-45578665D01*
X114135000Y-45861335D01*
X114141983Y-45896438D01*
X94654962Y-65383460D01*
X94621189Y-65411177D01*
X94510595Y-65545936D01*
X94428417Y-65699682D01*
X94377811Y-65866505D01*
X94365006Y-65996518D01*
X94365006Y-65996525D01*
X94360725Y-66039994D01*
X94365006Y-66083463D01*
X94365006Y-68983427D01*
X89556534Y-64174956D01*
X89528817Y-64141183D01*
X89394059Y-64030589D01*
X89240313Y-63948411D01*
X89073490Y-63897805D01*
X88943477Y-63885000D01*
X88943469Y-63885000D01*
X88900000Y-63880719D01*
X88856531Y-63885000D01*
X82163469Y-63885000D01*
X82120000Y-63880719D01*
X82076531Y-63885000D01*
X82076523Y-63885000D01*
X81946510Y-63897805D01*
X81779687Y-63948411D01*
X81721267Y-63979637D01*
X81625941Y-64030589D01*
X81524953Y-64113468D01*
X81524951Y-64113470D01*
X81491183Y-64141183D01*
X81463470Y-64174951D01*
X70981525Y-74656897D01*
X70796033Y-74620000D01*
X70473967Y-74620000D01*
X70158088Y-74682832D01*
X69860537Y-74806082D01*
X69592748Y-74985013D01*
X69365013Y-75212748D01*
X69186082Y-75480537D01*
X69062832Y-75778088D01*
X69000000Y-76093967D01*
X69000000Y-76416033D01*
X69062832Y-76731912D01*
X69186082Y-77029463D01*
X69365013Y-77297252D01*
X69592748Y-77524987D01*
X69860537Y-77703918D01*
X70158088Y-77827168D01*
X70473967Y-77890000D01*
X70796033Y-77890000D01*
X71111912Y-77827168D01*
X71409463Y-77703918D01*
X71677252Y-77524987D01*
X71904987Y-77297252D01*
X72083918Y-77029463D01*
X72207168Y-76731912D01*
X72270000Y-76416033D01*
X72270000Y-76093967D01*
X72233103Y-75908475D01*
X82486579Y-65655000D01*
X88533422Y-65655000D01*
X90261663Y-67383241D01*
X90234060Y-67360588D01*
X90080314Y-67278410D01*
X89913491Y-67227804D01*
X89783478Y-67214999D01*
X89783470Y-67214999D01*
X89740001Y-67210718D01*
X89696532Y-67214999D01*
X84843468Y-67214999D01*
X84799999Y-67210718D01*
X84756530Y-67214999D01*
X84756522Y-67214999D01*
X84626509Y-67227804D01*
X84459686Y-67278410D01*
X84305940Y-67360588D01*
X84171182Y-67471182D01*
X84143465Y-67504955D01*
X84014951Y-67633469D01*
X83981183Y-67661182D01*
X83953470Y-67694950D01*
X83953467Y-67694953D01*
X83870589Y-67795940D01*
X83788411Y-67949686D01*
X83737804Y-68116509D01*
X83720718Y-68289999D01*
X83725000Y-68333478D01*
X83724999Y-78853422D01*
X77646439Y-84931983D01*
X77611335Y-84925000D01*
X77328665Y-84925000D01*
X77051426Y-84980147D01*
X76790273Y-85088320D01*
X76555241Y-85245363D01*
X76355363Y-85445241D01*
X76198320Y-85680273D01*
X76090147Y-85941426D01*
X76035000Y-86218665D01*
X76035000Y-86501335D01*
X76090147Y-86778574D01*
X76198320Y-87039727D01*
X76355363Y-87274759D01*
X76555241Y-87474637D01*
X76787759Y-87630000D01*
X76555241Y-87785363D01*
X76355363Y-87985241D01*
X76198320Y-88220273D01*
X76090147Y-88481426D01*
X76035000Y-88758665D01*
X76035000Y-89041335D01*
X76090147Y-89318574D01*
X76198320Y-89579727D01*
X76355363Y-89814759D01*
X76555241Y-90014637D01*
X76787759Y-90170000D01*
X76555241Y-90325363D01*
X76355363Y-90525241D01*
X76198320Y-90760273D01*
X76090147Y-91021426D01*
X76035000Y-91298665D01*
X76035000Y-91581335D01*
X76090147Y-91858574D01*
X76198320Y-92119727D01*
X76355363Y-92354759D01*
X76555241Y-92554637D01*
X76790273Y-92711680D01*
X76800865Y-92716067D01*
X76614869Y-92827615D01*
X76406481Y-93016586D01*
X76238963Y-93242580D01*
X76118754Y-93496913D01*
X76078096Y-93630961D01*
X76200085Y-93853000D01*
X77343000Y-93853000D01*
X77343000Y-93833000D01*
X77597000Y-93833000D01*
X77597000Y-93853000D01*
X78739915Y-93853000D01*
X78861904Y-93630961D01*
X78821246Y-93496913D01*
X78701037Y-93242580D01*
X78533519Y-93016586D01*
X78325131Y-92827615D01*
X78139135Y-92716067D01*
X78149727Y-92711680D01*
X78384759Y-92554637D01*
X78584637Y-92354759D01*
X78741680Y-92119727D01*
X78849853Y-91858574D01*
X78905000Y-91581335D01*
X78905000Y-91298665D01*
X78849853Y-91021426D01*
X78741680Y-90760273D01*
X78584637Y-90525241D01*
X78384759Y-90325363D01*
X78152241Y-90170000D01*
X78384759Y-90014637D01*
X78584637Y-89814759D01*
X78741680Y-89579727D01*
X78849853Y-89318574D01*
X78905000Y-89041335D01*
X78905000Y-88758665D01*
X78849853Y-88481426D01*
X78741680Y-88220273D01*
X78584637Y-87985241D01*
X78384759Y-87785363D01*
X78152241Y-87630000D01*
X78384759Y-87474637D01*
X78584637Y-87274759D01*
X78741680Y-87039727D01*
X78849853Y-86778574D01*
X78905000Y-86501335D01*
X78905000Y-86218665D01*
X78898017Y-86183561D01*
X84925870Y-80155709D01*
X84980147Y-80428574D01*
X85088320Y-80689727D01*
X85245363Y-80924759D01*
X85445241Y-81124637D01*
X85677759Y-81280000D01*
X85445241Y-81435363D01*
X85245363Y-81635241D01*
X85088320Y-81870273D01*
X84980147Y-82131426D01*
X84925000Y-82408665D01*
X84925000Y-82691335D01*
X84980147Y-82968574D01*
X85088320Y-83229727D01*
X85245363Y-83464759D01*
X85445241Y-83664637D01*
X85677759Y-83820000D01*
X85445241Y-83975363D01*
X85245363Y-84175241D01*
X85088320Y-84410273D01*
X84980147Y-84671426D01*
X84925000Y-84948665D01*
X84925000Y-85231335D01*
X84980147Y-85508574D01*
X85088320Y-85769727D01*
X85245363Y-86004759D01*
X85445241Y-86204637D01*
X85677759Y-86360000D01*
X85445241Y-86515363D01*
X85245363Y-86715241D01*
X85088320Y-86950273D01*
X84980147Y-87211426D01*
X84925000Y-87488665D01*
X84925000Y-87771335D01*
X84980147Y-88048574D01*
X85088320Y-88309727D01*
X85245363Y-88544759D01*
X85445241Y-88744637D01*
X85677759Y-88900000D01*
X85445241Y-89055363D01*
X85245363Y-89255241D01*
X85088320Y-89490273D01*
X84980147Y-89751426D01*
X84925000Y-90028665D01*
X84925000Y-90311335D01*
X84980147Y-90588574D01*
X85088320Y-90849727D01*
X85245363Y-91084759D01*
X85445241Y-91284637D01*
X85677759Y-91440000D01*
X85445241Y-91595363D01*
X85245363Y-91795241D01*
X85088320Y-92030273D01*
X84980147Y-92291426D01*
X84925000Y-92568665D01*
X84925000Y-92851335D01*
X84980147Y-93128574D01*
X85088320Y-93389727D01*
X85245363Y-93624759D01*
X85445241Y-93824637D01*
X85677759Y-93980000D01*
X85445241Y-94135363D01*
X85245363Y-94335241D01*
X85088320Y-94570273D01*
X84980147Y-94831426D01*
X84925000Y-95108665D01*
X84925000Y-95391335D01*
X84980147Y-95668574D01*
X85088320Y-95929727D01*
X85245363Y-96164759D01*
X85445241Y-96364637D01*
X85677759Y-96520000D01*
X85445241Y-96675363D01*
X85245363Y-96875241D01*
X85088320Y-97110273D01*
X84980147Y-97371426D01*
X84925000Y-97648665D01*
X84925000Y-97931335D01*
X84980147Y-98208574D01*
X85088320Y-98469727D01*
X85245363Y-98704759D01*
X85445241Y-98904637D01*
X85677759Y-99060000D01*
X85445241Y-99215363D01*
X85245363Y-99415241D01*
X85088320Y-99650273D01*
X84980147Y-99911426D01*
X84925000Y-100188665D01*
X84925000Y-100471335D01*
X84980147Y-100748574D01*
X85088320Y-101009727D01*
X85245363Y-101244759D01*
X85445241Y-101444637D01*
X85677759Y-101600000D01*
X85445241Y-101755363D01*
X85245363Y-101955241D01*
X85088320Y-102190273D01*
X84980147Y-102451426D01*
X84925000Y-102728665D01*
X84925000Y-103011335D01*
X84980147Y-103288574D01*
X85088320Y-103549727D01*
X85245363Y-103784759D01*
X85445241Y-103984637D01*
X85677759Y-104140000D01*
X85445241Y-104295363D01*
X85245363Y-104495241D01*
X85088320Y-104730273D01*
X84980147Y-104991426D01*
X84925000Y-105268665D01*
X84925000Y-105551335D01*
X84980147Y-105828574D01*
X85088320Y-106089727D01*
X85245363Y-106324759D01*
X85445241Y-106524637D01*
X85680273Y-106681680D01*
X85941426Y-106789853D01*
X86218665Y-106845000D01*
X86501335Y-106845000D01*
X86778574Y-106789853D01*
X87039727Y-106681680D01*
X87274759Y-106524637D01*
X87474637Y-106324759D01*
X87631680Y-106089727D01*
X87739853Y-105828574D01*
X87795000Y-105551335D01*
X87795000Y-105268665D01*
X87739853Y-104991426D01*
X87631680Y-104730273D01*
X87474637Y-104495241D01*
X87274759Y-104295363D01*
X87042241Y-104140000D01*
X87274759Y-103984637D01*
X87474637Y-103784759D01*
X87631680Y-103549727D01*
X87739853Y-103288574D01*
X87794130Y-103015708D01*
X99688421Y-114910000D01*
X51460000Y-114910000D01*
X51460000Y-110766984D01*
X80820000Y-110766984D01*
X80820000Y-111483016D01*
X80959691Y-112185290D01*
X81233705Y-112846818D01*
X81631511Y-113442177D01*
X82137823Y-113948489D01*
X82733182Y-114346295D01*
X83394710Y-114620309D01*
X84096984Y-114760000D01*
X84813016Y-114760000D01*
X85515290Y-114620309D01*
X86176818Y-114346295D01*
X86772177Y-113948489D01*
X87278489Y-113442177D01*
X87676295Y-112846818D01*
X87950309Y-112185290D01*
X88090000Y-111483016D01*
X88090000Y-110766984D01*
X87950309Y-110064710D01*
X87676295Y-109403182D01*
X87278489Y-108807823D01*
X86772177Y-108301511D01*
X86176818Y-107903705D01*
X85515290Y-107629691D01*
X84813016Y-107490000D01*
X84096984Y-107490000D01*
X83394710Y-107629691D01*
X82733182Y-107903705D01*
X82137823Y-108301511D01*
X81631511Y-108807823D01*
X81233705Y-109403182D01*
X80959691Y-110064710D01*
X80820000Y-110766984D01*
X51460000Y-110766984D01*
X51460000Y-95103740D01*
X53633000Y-95103740D01*
X53633000Y-95396260D01*
X53690068Y-95683158D01*
X53802010Y-95953411D01*
X53964525Y-96196632D01*
X54171368Y-96403475D01*
X54345760Y-96520000D01*
X54171368Y-96636525D01*
X53964525Y-96843368D01*
X53802010Y-97086589D01*
X53690068Y-97356842D01*
X53633000Y-97643740D01*
X53633000Y-97936260D01*
X53690068Y-98223158D01*
X53802010Y-98493411D01*
X53964525Y-98736632D01*
X54171368Y-98943475D01*
X54345760Y-99060000D01*
X54171368Y-99176525D01*
X53964525Y-99383368D01*
X53802010Y-99626589D01*
X53690068Y-99896842D01*
X53633000Y-100183740D01*
X53633000Y-100476260D01*
X53690068Y-100763158D01*
X53802010Y-101033411D01*
X53964525Y-101276632D01*
X54171368Y-101483475D01*
X54414589Y-101645990D01*
X54684842Y-101757932D01*
X54971740Y-101815000D01*
X55264260Y-101815000D01*
X55551158Y-101757932D01*
X55821411Y-101645990D01*
X56064632Y-101483475D01*
X56271475Y-101276632D01*
X56433990Y-101033411D01*
X56545932Y-100763158D01*
X56603000Y-100476260D01*
X56603000Y-100183740D01*
X56545932Y-99896842D01*
X56433990Y-99626589D01*
X56271475Y-99383368D01*
X56064632Y-99176525D01*
X55890240Y-99060000D01*
X56064632Y-98943475D01*
X56271475Y-98736632D01*
X56433990Y-98493411D01*
X56545932Y-98223158D01*
X56603000Y-97936260D01*
X56603000Y-97643740D01*
X56545932Y-97356842D01*
X56433990Y-97086589D01*
X56271475Y-96843368D01*
X56064632Y-96636525D01*
X55890240Y-96520000D01*
X56064632Y-96403475D01*
X56271475Y-96196632D01*
X56433990Y-95953411D01*
X56545932Y-95683158D01*
X56603000Y-95396260D01*
X56603000Y-95103740D01*
X58205000Y-95103740D01*
X58205000Y-95396260D01*
X58262068Y-95683158D01*
X58374010Y-95953411D01*
X58536525Y-96196632D01*
X58743368Y-96403475D01*
X58917760Y-96520000D01*
X58743368Y-96636525D01*
X58536525Y-96843368D01*
X58374010Y-97086589D01*
X58262068Y-97356842D01*
X58205000Y-97643740D01*
X58205000Y-97936260D01*
X58262068Y-98223158D01*
X58374010Y-98493411D01*
X58536525Y-98736632D01*
X58743368Y-98943475D01*
X58917760Y-99060000D01*
X58743368Y-99176525D01*
X58536525Y-99383368D01*
X58374010Y-99626589D01*
X58262068Y-99896842D01*
X58205000Y-100183740D01*
X58205000Y-100476260D01*
X58262068Y-100763158D01*
X58374010Y-101033411D01*
X58536525Y-101276632D01*
X58743368Y-101483475D01*
X58986589Y-101645990D01*
X59256842Y-101757932D01*
X59543740Y-101815000D01*
X59836260Y-101815000D01*
X60123158Y-101757932D01*
X60393411Y-101645990D01*
X60636632Y-101483475D01*
X60843475Y-101276632D01*
X61005990Y-101033411D01*
X61117932Y-100763158D01*
X61175000Y-100476260D01*
X61175000Y-100183740D01*
X61117932Y-99896842D01*
X61005990Y-99626589D01*
X60843475Y-99383368D01*
X60636632Y-99176525D01*
X60462240Y-99060000D01*
X60636632Y-98943475D01*
X60843475Y-98736632D01*
X61005990Y-98493411D01*
X61117932Y-98223158D01*
X61175000Y-97936260D01*
X61175000Y-97643740D01*
X61117932Y-97356842D01*
X61005990Y-97086589D01*
X60843475Y-96843368D01*
X60636632Y-96636525D01*
X60462240Y-96520000D01*
X60636632Y-96403475D01*
X60843475Y-96196632D01*
X61005990Y-95953411D01*
X61117932Y-95683158D01*
X61175000Y-95396260D01*
X61175000Y-95103740D01*
X61117932Y-94816842D01*
X61005990Y-94546589D01*
X60843475Y-94303368D01*
X60636632Y-94096525D01*
X60454466Y-93974805D01*
X60571355Y-93905178D01*
X60787588Y-93710269D01*
X60961641Y-93476920D01*
X61086825Y-93214099D01*
X61131476Y-93066890D01*
X61010155Y-92837000D01*
X59817000Y-92837000D01*
X59817000Y-92857000D01*
X59563000Y-92857000D01*
X59563000Y-92837000D01*
X58369845Y-92837000D01*
X58248524Y-93066890D01*
X58293175Y-93214099D01*
X58418359Y-93476920D01*
X58592412Y-93710269D01*
X58808645Y-93905178D01*
X58925534Y-93974805D01*
X58743368Y-94096525D01*
X58536525Y-94303368D01*
X58374010Y-94546589D01*
X58262068Y-94816842D01*
X58205000Y-95103740D01*
X56603000Y-95103740D01*
X56545932Y-94816842D01*
X56433990Y-94546589D01*
X56271475Y-94303368D01*
X56064632Y-94096525D01*
X55882466Y-93974805D01*
X55999355Y-93905178D01*
X56215588Y-93710269D01*
X56389641Y-93476920D01*
X56514825Y-93214099D01*
X56559476Y-93066890D01*
X56438155Y-92837000D01*
X55245000Y-92837000D01*
X55245000Y-92857000D01*
X54991000Y-92857000D01*
X54991000Y-92837000D01*
X53797845Y-92837000D01*
X53676524Y-93066890D01*
X53721175Y-93214099D01*
X53846359Y-93476920D01*
X54020412Y-93710269D01*
X54236645Y-93905178D01*
X54353534Y-93974805D01*
X54171368Y-94096525D01*
X53964525Y-94303368D01*
X53802010Y-94546589D01*
X53690068Y-94816842D01*
X53633000Y-95103740D01*
X51460000Y-95103740D01*
X51460000Y-90023740D01*
X53633000Y-90023740D01*
X53633000Y-90316260D01*
X53690068Y-90603158D01*
X53802010Y-90873411D01*
X53964525Y-91116632D01*
X54171368Y-91323475D01*
X54353534Y-91445195D01*
X54236645Y-91514822D01*
X54020412Y-91709731D01*
X53846359Y-91943080D01*
X53721175Y-92205901D01*
X53676524Y-92353110D01*
X53797845Y-92583000D01*
X54991000Y-92583000D01*
X54991000Y-92563000D01*
X55245000Y-92563000D01*
X55245000Y-92583000D01*
X56438155Y-92583000D01*
X56559476Y-92353110D01*
X56514825Y-92205901D01*
X56389641Y-91943080D01*
X56215588Y-91709731D01*
X55999355Y-91514822D01*
X55882466Y-91445195D01*
X56064632Y-91323475D01*
X56271475Y-91116632D01*
X56433990Y-90873411D01*
X56545932Y-90603158D01*
X56603000Y-90316260D01*
X56603000Y-90023740D01*
X58205000Y-90023740D01*
X58205000Y-90316260D01*
X58262068Y-90603158D01*
X58374010Y-90873411D01*
X58536525Y-91116632D01*
X58743368Y-91323475D01*
X58925534Y-91445195D01*
X58808645Y-91514822D01*
X58592412Y-91709731D01*
X58418359Y-91943080D01*
X58293175Y-92205901D01*
X58248524Y-92353110D01*
X58369845Y-92583000D01*
X59563000Y-92583000D01*
X59563000Y-92563000D01*
X59817000Y-92563000D01*
X59817000Y-92583000D01*
X61010155Y-92583000D01*
X61131476Y-92353110D01*
X61086825Y-92205901D01*
X60961641Y-91943080D01*
X60787588Y-91709731D01*
X60571355Y-91514822D01*
X60454466Y-91445195D01*
X60636632Y-91323475D01*
X60843475Y-91116632D01*
X61005990Y-90873411D01*
X61117932Y-90603158D01*
X61175000Y-90316260D01*
X61175000Y-90023740D01*
X61117932Y-89736842D01*
X61005990Y-89466589D01*
X60843475Y-89223368D01*
X60636632Y-89016525D01*
X60454466Y-88894805D01*
X60571355Y-88825178D01*
X60645144Y-88758665D01*
X62065000Y-88758665D01*
X62065000Y-89041335D01*
X62120147Y-89318574D01*
X62228320Y-89579727D01*
X62385363Y-89814759D01*
X62585241Y-90014637D01*
X62615001Y-90034522D01*
X62615000Y-97266531D01*
X62610719Y-97310000D01*
X62615000Y-97353469D01*
X62615000Y-97353476D01*
X62627805Y-97483489D01*
X62678411Y-97650312D01*
X62760589Y-97804058D01*
X62871183Y-97938817D01*
X62904956Y-97966534D01*
X63048861Y-98110439D01*
X63041878Y-98145543D01*
X63041878Y-98428213D01*
X63097025Y-98705452D01*
X63205198Y-98966605D01*
X63362241Y-99201637D01*
X63562119Y-99401515D01*
X63797151Y-99558558D01*
X64058304Y-99666731D01*
X64335543Y-99721878D01*
X64618213Y-99721878D01*
X64895452Y-99666731D01*
X65156605Y-99558558D01*
X65391637Y-99401515D01*
X65591515Y-99201637D01*
X65748558Y-98966605D01*
X65856731Y-98705452D01*
X65911878Y-98428213D01*
X65911878Y-98145543D01*
X65856731Y-97868304D01*
X65748558Y-97607151D01*
X65591515Y-97372119D01*
X65391637Y-97172241D01*
X65156605Y-97015198D01*
X64895452Y-96907025D01*
X64618213Y-96851878D01*
X64385000Y-96851878D01*
X64385000Y-96378665D01*
X65875000Y-96378665D01*
X65875000Y-96661335D01*
X65930147Y-96938574D01*
X66038320Y-97199727D01*
X66195363Y-97434759D01*
X66395241Y-97634637D01*
X66627759Y-97790000D01*
X66395241Y-97945363D01*
X66195363Y-98145241D01*
X66038320Y-98380273D01*
X65930147Y-98641426D01*
X65875000Y-98918665D01*
X65875000Y-99201335D01*
X65930147Y-99478574D01*
X66038320Y-99739727D01*
X66195363Y-99974759D01*
X66395241Y-100174637D01*
X66630273Y-100331680D01*
X66891426Y-100439853D01*
X67168665Y-100495000D01*
X67451335Y-100495000D01*
X67728574Y-100439853D01*
X67989727Y-100331680D01*
X68224759Y-100174637D01*
X68424637Y-99974759D01*
X68581680Y-99739727D01*
X68689853Y-99478574D01*
X68745000Y-99201335D01*
X68745000Y-98918665D01*
X68689853Y-98641426D01*
X68581680Y-98380273D01*
X68424637Y-98145241D01*
X68224759Y-97945363D01*
X67992241Y-97790000D01*
X68224759Y-97634637D01*
X68424637Y-97434759D01*
X68581680Y-97199727D01*
X68689853Y-96938574D01*
X68745000Y-96661335D01*
X68745000Y-96378665D01*
X76035000Y-96378665D01*
X76035000Y-96661335D01*
X76090147Y-96938574D01*
X76198320Y-97199727D01*
X76355363Y-97434759D01*
X76555241Y-97634637D01*
X76787759Y-97790000D01*
X76555241Y-97945363D01*
X76355363Y-98145241D01*
X76198320Y-98380273D01*
X76090147Y-98641426D01*
X76035000Y-98918665D01*
X76035000Y-99201335D01*
X76090147Y-99478574D01*
X76198320Y-99739727D01*
X76355363Y-99974759D01*
X76555241Y-100174637D01*
X76790273Y-100331680D01*
X77051426Y-100439853D01*
X77328665Y-100495000D01*
X77611335Y-100495000D01*
X77888574Y-100439853D01*
X78149727Y-100331680D01*
X78384759Y-100174637D01*
X78584637Y-99974759D01*
X78741680Y-99739727D01*
X78849853Y-99478574D01*
X78905000Y-99201335D01*
X78905000Y-98918665D01*
X78849853Y-98641426D01*
X78741680Y-98380273D01*
X78584637Y-98145241D01*
X78384759Y-97945363D01*
X78152241Y-97790000D01*
X78384759Y-97634637D01*
X78584637Y-97434759D01*
X78740000Y-97202241D01*
X78895363Y-97434759D01*
X79095241Y-97634637D01*
X79330273Y-97791680D01*
X79591426Y-97899853D01*
X79868665Y-97955000D01*
X79914999Y-97955000D01*
X79915000Y-100466920D01*
X79910718Y-100510399D01*
X79927804Y-100683889D01*
X79978411Y-100850712D01*
X80060589Y-101004458D01*
X80143467Y-101105445D01*
X80143470Y-101105448D01*
X80171183Y-101139216D01*
X80204950Y-101166928D01*
X81629983Y-102591962D01*
X81623000Y-102627065D01*
X81623000Y-102909735D01*
X81678147Y-103186974D01*
X81786320Y-103448127D01*
X81943363Y-103683159D01*
X82143241Y-103883037D01*
X82378273Y-104040080D01*
X82639426Y-104148253D01*
X82916665Y-104203400D01*
X83199335Y-104203400D01*
X83476574Y-104148253D01*
X83737727Y-104040080D01*
X83972759Y-103883037D01*
X84172637Y-103683159D01*
X84329680Y-103448127D01*
X84437853Y-103186974D01*
X84493000Y-102909735D01*
X84493000Y-102627065D01*
X84437853Y-102349826D01*
X84329680Y-102088673D01*
X84172637Y-101853641D01*
X83972759Y-101653763D01*
X83879774Y-101591632D01*
X84099759Y-101444643D01*
X84299637Y-101244765D01*
X84456680Y-101009733D01*
X84564853Y-100748580D01*
X84620000Y-100471341D01*
X84620000Y-100188671D01*
X84564853Y-99911432D01*
X84456680Y-99650279D01*
X84299637Y-99415247D01*
X84099759Y-99215369D01*
X83864727Y-99058326D01*
X83603574Y-98950153D01*
X83326335Y-98895006D01*
X83043665Y-98895006D01*
X82766426Y-98950153D01*
X82505273Y-99058326D01*
X82270241Y-99215369D01*
X82070363Y-99415247D01*
X81913320Y-99650279D01*
X81805147Y-99911432D01*
X81750000Y-100188671D01*
X81750000Y-100208822D01*
X81684999Y-100143821D01*
X81684999Y-97304448D01*
X81689280Y-97260979D01*
X81684999Y-97217510D01*
X81684999Y-97217502D01*
X81672194Y-97087489D01*
X81655064Y-97031020D01*
X81621588Y-96920665D01*
X81539410Y-96766920D01*
X81456531Y-96665932D01*
X81456529Y-96665930D01*
X81445000Y-96651882D01*
X81445000Y-96378665D01*
X81389853Y-96101426D01*
X81281680Y-95840273D01*
X81124637Y-95605241D01*
X80924759Y-95405363D01*
X80689727Y-95248320D01*
X80428574Y-95140147D01*
X80151335Y-95085000D01*
X79868665Y-95085000D01*
X79591426Y-95140147D01*
X79330273Y-95248320D01*
X79095241Y-95405363D01*
X78895363Y-95605241D01*
X78740000Y-95837759D01*
X78584637Y-95605241D01*
X78384759Y-95405363D01*
X78149727Y-95248320D01*
X78139135Y-95243933D01*
X78325131Y-95132385D01*
X78533519Y-94943414D01*
X78701037Y-94717420D01*
X78821246Y-94463087D01*
X78861904Y-94329039D01*
X78739915Y-94107000D01*
X77597000Y-94107000D01*
X77597000Y-94127000D01*
X77343000Y-94127000D01*
X77343000Y-94107000D01*
X76200085Y-94107000D01*
X76078096Y-94329039D01*
X76118754Y-94463087D01*
X76238963Y-94717420D01*
X76406481Y-94943414D01*
X76614869Y-95132385D01*
X76800865Y-95243933D01*
X76790273Y-95248320D01*
X76555241Y-95405363D01*
X76355363Y-95605241D01*
X76198320Y-95840273D01*
X76090147Y-96101426D01*
X76035000Y-96378665D01*
X68745000Y-96378665D01*
X68689853Y-96101426D01*
X68581680Y-95840273D01*
X68424637Y-95605241D01*
X68224759Y-95405363D01*
X67989727Y-95248320D01*
X67979135Y-95243933D01*
X68165131Y-95132385D01*
X68373519Y-94943414D01*
X68541037Y-94717420D01*
X68661246Y-94463087D01*
X68701904Y-94329039D01*
X68579915Y-94107000D01*
X67437000Y-94107000D01*
X67437000Y-94127000D01*
X67183000Y-94127000D01*
X67183000Y-94107000D01*
X66040085Y-94107000D01*
X65918096Y-94329039D01*
X65958754Y-94463087D01*
X66078963Y-94717420D01*
X66246481Y-94943414D01*
X66454869Y-95132385D01*
X66640865Y-95243933D01*
X66630273Y-95248320D01*
X66395241Y-95405363D01*
X66195363Y-95605241D01*
X66038320Y-95840273D01*
X65930147Y-96101426D01*
X65875000Y-96378665D01*
X64385000Y-96378665D01*
X64385000Y-90034521D01*
X64414759Y-90014637D01*
X64614637Y-89814759D01*
X64771680Y-89579727D01*
X64879853Y-89318574D01*
X64935000Y-89041335D01*
X64935000Y-88758665D01*
X64879853Y-88481426D01*
X64771680Y-88220273D01*
X64614637Y-87985241D01*
X64414759Y-87785363D01*
X64179727Y-87628320D01*
X63918574Y-87520147D01*
X63641335Y-87465000D01*
X63358665Y-87465000D01*
X63081426Y-87520147D01*
X62820273Y-87628320D01*
X62585241Y-87785363D01*
X62385363Y-87985241D01*
X62228320Y-88220273D01*
X62120147Y-88481426D01*
X62065000Y-88758665D01*
X60645144Y-88758665D01*
X60787588Y-88630269D01*
X60961641Y-88396920D01*
X61086825Y-88134099D01*
X61131476Y-87986890D01*
X61010155Y-87757000D01*
X59817000Y-87757000D01*
X59817000Y-87777000D01*
X59563000Y-87777000D01*
X59563000Y-87757000D01*
X58369845Y-87757000D01*
X58248524Y-87986890D01*
X58293175Y-88134099D01*
X58418359Y-88396920D01*
X58592412Y-88630269D01*
X58808645Y-88825178D01*
X58925534Y-88894805D01*
X58743368Y-89016525D01*
X58536525Y-89223368D01*
X58374010Y-89466589D01*
X58262068Y-89736842D01*
X58205000Y-90023740D01*
X56603000Y-90023740D01*
X56545932Y-89736842D01*
X56433990Y-89466589D01*
X56271475Y-89223368D01*
X56064632Y-89016525D01*
X55882466Y-88894805D01*
X55999355Y-88825178D01*
X56215588Y-88630269D01*
X56389641Y-88396920D01*
X56514825Y-88134099D01*
X56559476Y-87986890D01*
X56438155Y-87757000D01*
X55245000Y-87757000D01*
X55245000Y-87777000D01*
X54991000Y-87777000D01*
X54991000Y-87757000D01*
X53797845Y-87757000D01*
X53676524Y-87986890D01*
X53721175Y-88134099D01*
X53846359Y-88396920D01*
X54020412Y-88630269D01*
X54236645Y-88825178D01*
X54353534Y-88894805D01*
X54171368Y-89016525D01*
X53964525Y-89223368D01*
X53802010Y-89466589D01*
X53690068Y-89736842D01*
X53633000Y-90023740D01*
X51460000Y-90023740D01*
X51460000Y-81700000D01*
X53629928Y-81700000D01*
X53629928Y-83400000D01*
X53642188Y-83524482D01*
X53678498Y-83644180D01*
X53737463Y-83754494D01*
X53816815Y-83851185D01*
X53913506Y-83930537D01*
X54023820Y-83989502D01*
X54096380Y-84011513D01*
X53964525Y-84143368D01*
X53802010Y-84386589D01*
X53690068Y-84656842D01*
X53633000Y-84943740D01*
X53633000Y-85236260D01*
X53690068Y-85523158D01*
X53802010Y-85793411D01*
X53964525Y-86036632D01*
X54171368Y-86243475D01*
X54353534Y-86365195D01*
X54236645Y-86434822D01*
X54020412Y-86629731D01*
X53846359Y-86863080D01*
X53721175Y-87125901D01*
X53676524Y-87273110D01*
X53797845Y-87503000D01*
X54991000Y-87503000D01*
X54991000Y-87483000D01*
X55245000Y-87483000D01*
X55245000Y-87503000D01*
X56438155Y-87503000D01*
X56559476Y-87273110D01*
X56514825Y-87125901D01*
X56389641Y-86863080D01*
X56215588Y-86629731D01*
X55999355Y-86434822D01*
X55882466Y-86365195D01*
X56064632Y-86243475D01*
X56271475Y-86036632D01*
X56433990Y-85793411D01*
X56545932Y-85523158D01*
X56603000Y-85236260D01*
X56603000Y-84943740D01*
X56545932Y-84656842D01*
X56433990Y-84386589D01*
X56271475Y-84143368D01*
X56139620Y-84011513D01*
X56212180Y-83989502D01*
X56322494Y-83930537D01*
X56419185Y-83851185D01*
X56498537Y-83754494D01*
X56557502Y-83644180D01*
X56593812Y-83524482D01*
X56606072Y-83400000D01*
X56606072Y-81700000D01*
X58201928Y-81700000D01*
X58201928Y-83400000D01*
X58214188Y-83524482D01*
X58250498Y-83644180D01*
X58309463Y-83754494D01*
X58388815Y-83851185D01*
X58485506Y-83930537D01*
X58595820Y-83989502D01*
X58668380Y-84011513D01*
X58536525Y-84143368D01*
X58374010Y-84386589D01*
X58262068Y-84656842D01*
X58205000Y-84943740D01*
X58205000Y-85236260D01*
X58262068Y-85523158D01*
X58374010Y-85793411D01*
X58536525Y-86036632D01*
X58743368Y-86243475D01*
X58925534Y-86365195D01*
X58808645Y-86434822D01*
X58592412Y-86629731D01*
X58418359Y-86863080D01*
X58293175Y-87125901D01*
X58248524Y-87273110D01*
X58369845Y-87503000D01*
X59563000Y-87503000D01*
X59563000Y-87483000D01*
X59817000Y-87483000D01*
X59817000Y-87503000D01*
X61010155Y-87503000D01*
X61131476Y-87273110D01*
X61086825Y-87125901D01*
X60961641Y-86863080D01*
X60787588Y-86629731D01*
X60571355Y-86434822D01*
X60454466Y-86365195D01*
X60636632Y-86243475D01*
X60843475Y-86036632D01*
X61005990Y-85793411D01*
X61117932Y-85523158D01*
X61175000Y-85236260D01*
X61175000Y-84943740D01*
X61117932Y-84656842D01*
X61005990Y-84386589D01*
X60937594Y-84284227D01*
X62729438Y-84284227D01*
X62729438Y-84566897D01*
X62784585Y-84844136D01*
X62892758Y-85105289D01*
X63049801Y-85340321D01*
X63249679Y-85540199D01*
X63484711Y-85697242D01*
X63745864Y-85805415D01*
X64023103Y-85860562D01*
X64305773Y-85860562D01*
X64583012Y-85805415D01*
X64844165Y-85697242D01*
X65049562Y-85560000D01*
X65871928Y-85560000D01*
X65871928Y-87160000D01*
X65884188Y-87284482D01*
X65920498Y-87404180D01*
X65979463Y-87514494D01*
X66058815Y-87611185D01*
X66155506Y-87690537D01*
X66265820Y-87749502D01*
X66385518Y-87785812D01*
X66393961Y-87786643D01*
X66195363Y-87985241D01*
X66038320Y-88220273D01*
X65930147Y-88481426D01*
X65875000Y-88758665D01*
X65875000Y-89041335D01*
X65930147Y-89318574D01*
X66038320Y-89579727D01*
X66195363Y-89814759D01*
X66395241Y-90014637D01*
X66627759Y-90170000D01*
X66395241Y-90325363D01*
X66195363Y-90525241D01*
X66038320Y-90760273D01*
X65930147Y-91021426D01*
X65875000Y-91298665D01*
X65875000Y-91581335D01*
X65930147Y-91858574D01*
X66038320Y-92119727D01*
X66195363Y-92354759D01*
X66395241Y-92554637D01*
X66630273Y-92711680D01*
X66640865Y-92716067D01*
X66454869Y-92827615D01*
X66246481Y-93016586D01*
X66078963Y-93242580D01*
X65958754Y-93496913D01*
X65918096Y-93630961D01*
X66040085Y-93853000D01*
X67183000Y-93853000D01*
X67183000Y-93833000D01*
X67437000Y-93833000D01*
X67437000Y-93853000D01*
X68579915Y-93853000D01*
X68701904Y-93630961D01*
X68661246Y-93496913D01*
X68541037Y-93242580D01*
X68373519Y-93016586D01*
X68165131Y-92827615D01*
X67979135Y-92716067D01*
X67989727Y-92711680D01*
X68224759Y-92554637D01*
X68424637Y-92354759D01*
X68581680Y-92119727D01*
X68689853Y-91858574D01*
X68745000Y-91581335D01*
X68745000Y-91298665D01*
X68689853Y-91021426D01*
X68581680Y-90760273D01*
X68424637Y-90525241D01*
X68224759Y-90325363D01*
X67992241Y-90170000D01*
X68224759Y-90014637D01*
X68424637Y-89814759D01*
X68581680Y-89579727D01*
X68689853Y-89318574D01*
X68745000Y-89041335D01*
X68745000Y-88758665D01*
X68689853Y-88481426D01*
X68581680Y-88220273D01*
X68424637Y-87985241D01*
X68226039Y-87786643D01*
X68234482Y-87785812D01*
X68354180Y-87749502D01*
X68464494Y-87690537D01*
X68561185Y-87611185D01*
X68640537Y-87514494D01*
X68699502Y-87404180D01*
X68735812Y-87284482D01*
X68748072Y-87160000D01*
X68748072Y-85560000D01*
X68735812Y-85435518D01*
X68699502Y-85315820D01*
X68640537Y-85205506D01*
X68561185Y-85108815D01*
X68464494Y-85029463D01*
X68354180Y-84970498D01*
X68234482Y-84934188D01*
X68110000Y-84921928D01*
X66510000Y-84921928D01*
X66385518Y-84934188D01*
X66265820Y-84970498D01*
X66155506Y-85029463D01*
X66058815Y-85108815D01*
X65979463Y-85205506D01*
X65920498Y-85315820D01*
X65884188Y-85435518D01*
X65871928Y-85560000D01*
X65049562Y-85560000D01*
X65079197Y-85540199D01*
X65279075Y-85340321D01*
X65436118Y-85105289D01*
X65544291Y-84844136D01*
X65599438Y-84566897D01*
X65599438Y-84284227D01*
X65544291Y-84006988D01*
X65436118Y-83745835D01*
X65279075Y-83510803D01*
X65079197Y-83310925D01*
X64844165Y-83153882D01*
X64583012Y-83045709D01*
X64305773Y-82990562D01*
X64023103Y-82990562D01*
X63745864Y-83045709D01*
X63484711Y-83153882D01*
X63249679Y-83310925D01*
X63049801Y-83510803D01*
X62892758Y-83745835D01*
X62784585Y-84006988D01*
X62729438Y-84284227D01*
X60937594Y-84284227D01*
X60843475Y-84143368D01*
X60711620Y-84011513D01*
X60784180Y-83989502D01*
X60894494Y-83930537D01*
X60991185Y-83851185D01*
X61070537Y-83754494D01*
X61129502Y-83644180D01*
X61165812Y-83524482D01*
X61178072Y-83400000D01*
X61178072Y-81763816D01*
X65775000Y-81763816D01*
X65775000Y-82066184D01*
X65833989Y-82362743D01*
X65949701Y-82642095D01*
X66117688Y-82893505D01*
X66331495Y-83107312D01*
X66582905Y-83275299D01*
X66862257Y-83391011D01*
X67158816Y-83450000D01*
X67461184Y-83450000D01*
X67757743Y-83391011D01*
X68037095Y-83275299D01*
X68288505Y-83107312D01*
X68502312Y-82893505D01*
X68670299Y-82642095D01*
X68786011Y-82362743D01*
X68845000Y-82066184D01*
X68845000Y-81763816D01*
X68786011Y-81467257D01*
X68670299Y-81187905D01*
X68554768Y-81015000D01*
X75931928Y-81015000D01*
X75931928Y-82815000D01*
X75944188Y-82939482D01*
X75980498Y-83059180D01*
X76039463Y-83169494D01*
X76118815Y-83266185D01*
X76215506Y-83345537D01*
X76325820Y-83404502D01*
X76445518Y-83440812D01*
X76570000Y-83453072D01*
X78370000Y-83453072D01*
X78494482Y-83440812D01*
X78614180Y-83404502D01*
X78724494Y-83345537D01*
X78821185Y-83266185D01*
X78900537Y-83169494D01*
X78959502Y-83059180D01*
X78995812Y-82939482D01*
X79008072Y-82815000D01*
X79008072Y-81015000D01*
X78995812Y-80890518D01*
X78959502Y-80770820D01*
X78900537Y-80660506D01*
X78821185Y-80563815D01*
X78724494Y-80484463D01*
X78614180Y-80425498D01*
X78494482Y-80389188D01*
X78370000Y-80376928D01*
X76570000Y-80376928D01*
X76445518Y-80389188D01*
X76325820Y-80425498D01*
X76215506Y-80484463D01*
X76118815Y-80563815D01*
X76039463Y-80660506D01*
X75980498Y-80770820D01*
X75944188Y-80890518D01*
X75931928Y-81015000D01*
X68554768Y-81015000D01*
X68502312Y-80936495D01*
X68288505Y-80722688D01*
X68037095Y-80554701D01*
X67757743Y-80438989D01*
X67461184Y-80380000D01*
X67158816Y-80380000D01*
X66862257Y-80438989D01*
X66582905Y-80554701D01*
X66331495Y-80722688D01*
X66117688Y-80936495D01*
X65949701Y-81187905D01*
X65833989Y-81467257D01*
X65775000Y-81763816D01*
X61178072Y-81763816D01*
X61178072Y-81700000D01*
X61165812Y-81575518D01*
X61129502Y-81455820D01*
X61070537Y-81345506D01*
X60991185Y-81248815D01*
X60894494Y-81169463D01*
X60784180Y-81110498D01*
X60664482Y-81074188D01*
X60548938Y-81062808D01*
X60511589Y-80939687D01*
X60429411Y-80785941D01*
X60318817Y-80651183D01*
X60184059Y-80540589D01*
X60030313Y-80458411D01*
X59863490Y-80407805D01*
X59690000Y-80390718D01*
X59516511Y-80407805D01*
X59349688Y-80458411D01*
X59195942Y-80540589D01*
X59061184Y-80651183D01*
X58950590Y-80785941D01*
X58868412Y-80939687D01*
X58831063Y-81062808D01*
X58715518Y-81074188D01*
X58595820Y-81110498D01*
X58485506Y-81169463D01*
X58388815Y-81248815D01*
X58309463Y-81345506D01*
X58250498Y-81455820D01*
X58214188Y-81575518D01*
X58201928Y-81700000D01*
X56606072Y-81700000D01*
X56593812Y-81575518D01*
X56557502Y-81455820D01*
X56498537Y-81345506D01*
X56419185Y-81248815D01*
X56322494Y-81169463D01*
X56212180Y-81110498D01*
X56092482Y-81074188D01*
X55968000Y-81061928D01*
X54268000Y-81061928D01*
X54143518Y-81074188D01*
X54023820Y-81110498D01*
X53913506Y-81169463D01*
X53816815Y-81248815D01*
X53737463Y-81345506D01*
X53678498Y-81455820D01*
X53642188Y-81575518D01*
X53629928Y-81700000D01*
X51460000Y-81700000D01*
X51460000Y-76058665D01*
X58890000Y-76058665D01*
X58890000Y-76341335D01*
X58945147Y-76618574D01*
X59053320Y-76879727D01*
X59210363Y-77114759D01*
X59410241Y-77314637D01*
X59645273Y-77471680D01*
X59906426Y-77579853D01*
X60183665Y-77635000D01*
X60466335Y-77635000D01*
X60743574Y-77579853D01*
X61004727Y-77471680D01*
X61239759Y-77314637D01*
X61439637Y-77114759D01*
X61596680Y-76879727D01*
X61704853Y-76618574D01*
X61760000Y-76341335D01*
X61760000Y-76093967D01*
X62500000Y-76093967D01*
X62500000Y-76416033D01*
X62562832Y-76731912D01*
X62686082Y-77029463D01*
X62865013Y-77297252D01*
X63092748Y-77524987D01*
X63360537Y-77703918D01*
X63658088Y-77827168D01*
X63973967Y-77890000D01*
X64296033Y-77890000D01*
X64611912Y-77827168D01*
X64909463Y-77703918D01*
X65177252Y-77524987D01*
X65404987Y-77297252D01*
X65583918Y-77029463D01*
X65707168Y-76731912D01*
X65770000Y-76416033D01*
X65770000Y-76093967D01*
X65707168Y-75778088D01*
X65583918Y-75480537D01*
X65404987Y-75212748D01*
X65177252Y-74985013D01*
X64909463Y-74806082D01*
X64611912Y-74682832D01*
X64296033Y-74620000D01*
X63973967Y-74620000D01*
X63658088Y-74682832D01*
X63360537Y-74806082D01*
X63092748Y-74985013D01*
X62865013Y-75212748D01*
X62686082Y-75480537D01*
X62562832Y-75778088D01*
X62500000Y-76093967D01*
X61760000Y-76093967D01*
X61760000Y-76058665D01*
X61704853Y-75781426D01*
X61596680Y-75520273D01*
X61439637Y-75285241D01*
X61239759Y-75085363D01*
X61004727Y-74928320D01*
X60743574Y-74820147D01*
X60466335Y-74765000D01*
X60183665Y-74765000D01*
X59906426Y-74820147D01*
X59645273Y-74928320D01*
X59410241Y-75085363D01*
X59210363Y-75285241D01*
X59053320Y-75520273D01*
X58945147Y-75781426D01*
X58890000Y-76058665D01*
X51460000Y-76058665D01*
X51460000Y-72890413D01*
X63179192Y-72890413D01*
X63274956Y-73154814D01*
X63564571Y-73295704D01*
X63876108Y-73377384D01*
X64197595Y-73396718D01*
X64516675Y-73352961D01*
X64821088Y-73247795D01*
X64995044Y-73154814D01*
X65090808Y-72890413D01*
X69679192Y-72890413D01*
X69774956Y-73154814D01*
X70064571Y-73295704D01*
X70376108Y-73377384D01*
X70697595Y-73396718D01*
X71016675Y-73352961D01*
X71321088Y-73247795D01*
X71495044Y-73154814D01*
X71590808Y-72890413D01*
X70635000Y-71934605D01*
X69679192Y-72890413D01*
X65090808Y-72890413D01*
X64135000Y-71934605D01*
X63179192Y-72890413D01*
X51460000Y-72890413D01*
X51460000Y-71817595D01*
X62493282Y-71817595D01*
X62537039Y-72136675D01*
X62642205Y-72441088D01*
X62735186Y-72615044D01*
X62999587Y-72710808D01*
X63955395Y-71755000D01*
X64314605Y-71755000D01*
X65270413Y-72710808D01*
X65534814Y-72615044D01*
X65675704Y-72325429D01*
X65757384Y-72013892D01*
X65769189Y-71817595D01*
X68993282Y-71817595D01*
X69037039Y-72136675D01*
X69142205Y-72441088D01*
X69235186Y-72615044D01*
X69499587Y-72710808D01*
X70455395Y-71755000D01*
X69499587Y-70799192D01*
X69235186Y-70894956D01*
X69094296Y-71184571D01*
X69012616Y-71496108D01*
X68993282Y-71817595D01*
X65769189Y-71817595D01*
X65776718Y-71692405D01*
X65732961Y-71373325D01*
X65627795Y-71068912D01*
X65534814Y-70894956D01*
X65270413Y-70799192D01*
X64314605Y-71755000D01*
X63955395Y-71755000D01*
X62999587Y-70799192D01*
X62735186Y-70894956D01*
X62594296Y-71184571D01*
X62512616Y-71496108D01*
X62493282Y-71817595D01*
X51460000Y-71817595D01*
X51460000Y-66951984D01*
X55655000Y-66951984D01*
X55655000Y-67668016D01*
X55794691Y-68370290D01*
X56068705Y-69031818D01*
X56466511Y-69627177D01*
X56972823Y-70133489D01*
X57568182Y-70531295D01*
X58229710Y-70805309D01*
X58931984Y-70945000D01*
X59648016Y-70945000D01*
X60350290Y-70805309D01*
X60798662Y-70619587D01*
X63179192Y-70619587D01*
X64135000Y-71575395D01*
X65090808Y-70619587D01*
X69679192Y-70619587D01*
X70635000Y-71575395D01*
X70649143Y-71561253D01*
X70828748Y-71740858D01*
X70814605Y-71755000D01*
X71770413Y-72710808D01*
X72034814Y-72615044D01*
X72175704Y-72325429D01*
X72257384Y-72013892D01*
X72275650Y-71710160D01*
X72345273Y-71756680D01*
X72606426Y-71864853D01*
X72883665Y-71920000D01*
X73166335Y-71920000D01*
X73443574Y-71864853D01*
X73704727Y-71756680D01*
X73939759Y-71599637D01*
X74139637Y-71399759D01*
X74296680Y-71164727D01*
X74404853Y-70903574D01*
X74460000Y-70626335D01*
X74460000Y-70343665D01*
X74404853Y-70066426D01*
X74296680Y-69805273D01*
X74139637Y-69570241D01*
X73939759Y-69370363D01*
X73704727Y-69213320D01*
X73443574Y-69105147D01*
X73166335Y-69050000D01*
X72883665Y-69050000D01*
X72606426Y-69105147D01*
X72345273Y-69213320D01*
X72110241Y-69370363D01*
X71910363Y-69570241D01*
X71753320Y-69805273D01*
X71645147Y-70066426D01*
X71590000Y-70343665D01*
X71590000Y-70617356D01*
X71495044Y-70355186D01*
X71205429Y-70214296D01*
X70893892Y-70132616D01*
X70572405Y-70113282D01*
X70253325Y-70157039D01*
X69948912Y-70262205D01*
X69774956Y-70355186D01*
X69679192Y-70619587D01*
X65090808Y-70619587D01*
X64995044Y-70355186D01*
X64705429Y-70214296D01*
X64393892Y-70132616D01*
X64072405Y-70113282D01*
X63753325Y-70157039D01*
X63448912Y-70262205D01*
X63274956Y-70355186D01*
X63179192Y-70619587D01*
X60798662Y-70619587D01*
X61011818Y-70531295D01*
X61607177Y-70133489D01*
X62113489Y-69627177D01*
X62511295Y-69031818D01*
X62785309Y-68370290D01*
X62925000Y-67668016D01*
X62925000Y-66951984D01*
X62785309Y-66249710D01*
X62511295Y-65588182D01*
X62113489Y-64992823D01*
X61607177Y-64486511D01*
X61011818Y-64088705D01*
X60350290Y-63814691D01*
X59648016Y-63675000D01*
X58931984Y-63675000D01*
X58229710Y-63814691D01*
X57568182Y-64088705D01*
X56972823Y-64486511D01*
X56466511Y-64992823D01*
X56068705Y-65588182D01*
X55794691Y-66249710D01*
X55655000Y-66951984D01*
X51460000Y-66951984D01*
X51460000Y-62758967D01*
X62500000Y-62758967D01*
X62500000Y-63081033D01*
X62562832Y-63396912D01*
X62686082Y-63694463D01*
X62865013Y-63962252D01*
X63092748Y-64189987D01*
X63360537Y-64368918D01*
X63658088Y-64492168D01*
X63973967Y-64555000D01*
X64296033Y-64555000D01*
X64611912Y-64492168D01*
X64909463Y-64368918D01*
X65177252Y-64189987D01*
X65404987Y-63962252D01*
X65583918Y-63694463D01*
X65707168Y-63396912D01*
X65770000Y-63081033D01*
X65770000Y-62758967D01*
X69000000Y-62758967D01*
X69000000Y-63081033D01*
X69062832Y-63396912D01*
X69186082Y-63694463D01*
X69365013Y-63962252D01*
X69592748Y-64189987D01*
X69860537Y-64368918D01*
X70158088Y-64492168D01*
X70473967Y-64555000D01*
X70796033Y-64555000D01*
X71111912Y-64492168D01*
X71409463Y-64368918D01*
X71677252Y-64189987D01*
X71904987Y-63962252D01*
X71980237Y-63849633D01*
X72110241Y-63979637D01*
X72345273Y-64136680D01*
X72606426Y-64244853D01*
X72883665Y-64300000D01*
X73166335Y-64300000D01*
X73443574Y-64244853D01*
X73704727Y-64136680D01*
X73939759Y-63979637D01*
X74139637Y-63779759D01*
X74296680Y-63544727D01*
X74404853Y-63283574D01*
X74460000Y-63006335D01*
X74460000Y-62723665D01*
X74404853Y-62446426D01*
X74296680Y-62185273D01*
X74139637Y-61950241D01*
X73939759Y-61750363D01*
X73704727Y-61593320D01*
X73443574Y-61485147D01*
X73166335Y-61430000D01*
X72883665Y-61430000D01*
X72606426Y-61485147D01*
X72345273Y-61593320D01*
X72110241Y-61750363D01*
X71936177Y-61924427D01*
X71904987Y-61877748D01*
X71677252Y-61650013D01*
X71409463Y-61471082D01*
X71111912Y-61347832D01*
X70796033Y-61285000D01*
X70473967Y-61285000D01*
X70158088Y-61347832D01*
X69860537Y-61471082D01*
X69592748Y-61650013D01*
X69365013Y-61877748D01*
X69186082Y-62145537D01*
X69062832Y-62443088D01*
X69000000Y-62758967D01*
X65770000Y-62758967D01*
X65707168Y-62443088D01*
X65583918Y-62145537D01*
X65404987Y-61877748D01*
X65177252Y-61650013D01*
X64909463Y-61471082D01*
X64611912Y-61347832D01*
X64296033Y-61285000D01*
X63973967Y-61285000D01*
X63658088Y-61347832D01*
X63360537Y-61471082D01*
X63092748Y-61650013D01*
X62865013Y-61877748D01*
X62686082Y-62145537D01*
X62562832Y-62443088D01*
X62500000Y-62758967D01*
X51460000Y-62758967D01*
X51460000Y-58258967D01*
X62500000Y-58258967D01*
X62500000Y-58581033D01*
X62562832Y-58896912D01*
X62686082Y-59194463D01*
X62865013Y-59462252D01*
X63092748Y-59689987D01*
X63360537Y-59868918D01*
X63658088Y-59992168D01*
X63973967Y-60055000D01*
X64296033Y-60055000D01*
X64611912Y-59992168D01*
X64909463Y-59868918D01*
X65177252Y-59689987D01*
X65404987Y-59462252D01*
X65583918Y-59194463D01*
X65707168Y-58896912D01*
X65770000Y-58581033D01*
X65770000Y-58258967D01*
X69000000Y-58258967D01*
X69000000Y-58581033D01*
X69062832Y-58896912D01*
X69186082Y-59194463D01*
X69365013Y-59462252D01*
X69592748Y-59689987D01*
X69860537Y-59868918D01*
X70158088Y-59992168D01*
X70473967Y-60055000D01*
X70796033Y-60055000D01*
X71111912Y-59992168D01*
X71409463Y-59868918D01*
X71677252Y-59689987D01*
X71904987Y-59462252D01*
X72083918Y-59194463D01*
X72207168Y-58896912D01*
X72270000Y-58581033D01*
X72270000Y-58258967D01*
X72207168Y-57943088D01*
X72083918Y-57645537D01*
X71904987Y-57377748D01*
X71677252Y-57150013D01*
X71409463Y-56971082D01*
X71151042Y-56864040D01*
X77348091Y-56864040D01*
X77442930Y-57128881D01*
X77587615Y-57370131D01*
X77776586Y-57578519D01*
X78002580Y-57746037D01*
X78256913Y-57866246D01*
X78390961Y-57906904D01*
X78613000Y-57784915D01*
X78613000Y-56642000D01*
X78867000Y-56642000D01*
X78867000Y-57784915D01*
X79089039Y-57906904D01*
X79223087Y-57866246D01*
X79477420Y-57746037D01*
X79703414Y-57578519D01*
X79892385Y-57370131D01*
X80037070Y-57128881D01*
X80131909Y-56864040D01*
X80010624Y-56642000D01*
X78867000Y-56642000D01*
X78613000Y-56642000D01*
X77469376Y-56642000D01*
X77348091Y-56864040D01*
X71151042Y-56864040D01*
X71111912Y-56847832D01*
X70796033Y-56785000D01*
X70473967Y-56785000D01*
X70158088Y-56847832D01*
X69860537Y-56971082D01*
X69592748Y-57150013D01*
X69365013Y-57377748D01*
X69186082Y-57645537D01*
X69062832Y-57943088D01*
X69000000Y-58258967D01*
X65770000Y-58258967D01*
X65707168Y-57943088D01*
X65583918Y-57645537D01*
X65404987Y-57377748D01*
X65177252Y-57150013D01*
X64997237Y-57029731D01*
X65049759Y-56994637D01*
X65249637Y-56794759D01*
X65406680Y-56559727D01*
X65514853Y-56298574D01*
X65541231Y-56165960D01*
X77348091Y-56165960D01*
X77469376Y-56388000D01*
X78613000Y-56388000D01*
X78613000Y-55245085D01*
X78867000Y-55245085D01*
X78867000Y-56388000D01*
X80010624Y-56388000D01*
X80131909Y-56165960D01*
X80037070Y-55901119D01*
X79892385Y-55659869D01*
X79703414Y-55451481D01*
X79477420Y-55283963D01*
X79223087Y-55163754D01*
X79089039Y-55123096D01*
X78867000Y-55245085D01*
X78613000Y-55245085D01*
X78390961Y-55123096D01*
X78256913Y-55163754D01*
X78002580Y-55283963D01*
X77776586Y-55451481D01*
X77587615Y-55659869D01*
X77442930Y-55901119D01*
X77348091Y-56165960D01*
X65541231Y-56165960D01*
X65570000Y-56021335D01*
X65570000Y-55738665D01*
X65514853Y-55461426D01*
X65406680Y-55200273D01*
X65249637Y-54965241D01*
X65229804Y-54945408D01*
X65396912Y-54912168D01*
X65694463Y-54788918D01*
X65962252Y-54609987D01*
X66189987Y-54382252D01*
X66368918Y-54114463D01*
X66492168Y-53816912D01*
X66555000Y-53501033D01*
X66555000Y-53178967D01*
X68215000Y-53178967D01*
X68215000Y-53501033D01*
X68277832Y-53816912D01*
X68401082Y-54114463D01*
X68580013Y-54382252D01*
X68807748Y-54609987D01*
X69075537Y-54788918D01*
X69373088Y-54912168D01*
X69688967Y-54975000D01*
X70011033Y-54975000D01*
X70326912Y-54912168D01*
X70624463Y-54788918D01*
X70892252Y-54609987D01*
X71119987Y-54382252D01*
X71298918Y-54114463D01*
X71422168Y-53816912D01*
X71485000Y-53501033D01*
X71485000Y-53178967D01*
X74715000Y-53178967D01*
X74715000Y-53501033D01*
X74777832Y-53816912D01*
X74901082Y-54114463D01*
X75080013Y-54382252D01*
X75307748Y-54609987D01*
X75575537Y-54788918D01*
X75873088Y-54912168D01*
X76188967Y-54975000D01*
X76511033Y-54975000D01*
X76826912Y-54912168D01*
X77124463Y-54788918D01*
X77392252Y-54609987D01*
X77619987Y-54382252D01*
X77798918Y-54114463D01*
X77922168Y-53816912D01*
X77985000Y-53501033D01*
X77985000Y-53178967D01*
X77922168Y-52863088D01*
X77798918Y-52565537D01*
X77619987Y-52297748D01*
X77392252Y-52070013D01*
X77124463Y-51891082D01*
X76826912Y-51767832D01*
X76511033Y-51705000D01*
X76188967Y-51705000D01*
X75873088Y-51767832D01*
X75575537Y-51891082D01*
X75307748Y-52070013D01*
X75080013Y-52297748D01*
X74901082Y-52565537D01*
X74777832Y-52863088D01*
X74715000Y-53178967D01*
X71485000Y-53178967D01*
X71422168Y-52863088D01*
X71298918Y-52565537D01*
X71119987Y-52297748D01*
X70892252Y-52070013D01*
X70624463Y-51891082D01*
X70326912Y-51767832D01*
X70011033Y-51705000D01*
X69688967Y-51705000D01*
X69373088Y-51767832D01*
X69075537Y-51891082D01*
X68807748Y-52070013D01*
X68580013Y-52297748D01*
X68401082Y-52565537D01*
X68277832Y-52863088D01*
X68215000Y-53178967D01*
X66555000Y-53178967D01*
X66492168Y-52863088D01*
X66368918Y-52565537D01*
X66189987Y-52297748D01*
X65962252Y-52070013D01*
X65694463Y-51891082D01*
X65396912Y-51767832D01*
X65081033Y-51705000D01*
X64758967Y-51705000D01*
X64443088Y-51767832D01*
X64145537Y-51891082D01*
X63877748Y-52070013D01*
X63650013Y-52297748D01*
X63471082Y-52565537D01*
X63347832Y-52863088D01*
X63285000Y-53178967D01*
X63285000Y-53501033D01*
X63347832Y-53816912D01*
X63471082Y-54114463D01*
X63650013Y-54382252D01*
X63759366Y-54491605D01*
X63716426Y-54500147D01*
X63455273Y-54608320D01*
X63220241Y-54765363D01*
X63020363Y-54965241D01*
X62863320Y-55200273D01*
X62755147Y-55461426D01*
X62700000Y-55738665D01*
X62700000Y-56021335D01*
X62755147Y-56298574D01*
X62863320Y-56559727D01*
X63020363Y-56794759D01*
X63220241Y-56994637D01*
X63272763Y-57029731D01*
X63092748Y-57150013D01*
X62865013Y-57377748D01*
X62686082Y-57645537D01*
X62562832Y-57943088D01*
X62500000Y-58258967D01*
X51460000Y-58258967D01*
X51460000Y-56229039D01*
X55123096Y-56229039D01*
X55163754Y-56363087D01*
X55283963Y-56617420D01*
X55451481Y-56843414D01*
X55659869Y-57032385D01*
X55901119Y-57177070D01*
X56165960Y-57271909D01*
X56388000Y-57150624D01*
X56388000Y-56007000D01*
X56642000Y-56007000D01*
X56642000Y-57150624D01*
X56864040Y-57271909D01*
X57128881Y-57177070D01*
X57370131Y-57032385D01*
X57578519Y-56843414D01*
X57746037Y-56617420D01*
X57866246Y-56363087D01*
X57906904Y-56229039D01*
X57784915Y-56007000D01*
X56642000Y-56007000D01*
X56388000Y-56007000D01*
X55245085Y-56007000D01*
X55123096Y-56229039D01*
X51460000Y-56229039D01*
X51460000Y-55530961D01*
X55123096Y-55530961D01*
X55245085Y-55753000D01*
X56388000Y-55753000D01*
X56388000Y-54609376D01*
X56642000Y-54609376D01*
X56642000Y-55753000D01*
X57784915Y-55753000D01*
X57906904Y-55530961D01*
X57866246Y-55396913D01*
X57746037Y-55142580D01*
X57578519Y-54916586D01*
X57370131Y-54727615D01*
X57128881Y-54582930D01*
X56864040Y-54488091D01*
X56642000Y-54609376D01*
X56388000Y-54609376D01*
X56165960Y-54488091D01*
X55901119Y-54582930D01*
X55659869Y-54727615D01*
X55451481Y-54916586D01*
X55283963Y-55142580D01*
X55163754Y-55396913D01*
X55123096Y-55530961D01*
X51460000Y-55530961D01*
X51460000Y-53178967D01*
X56785000Y-53178967D01*
X56785000Y-53501033D01*
X56847832Y-53816912D01*
X56971082Y-54114463D01*
X57150013Y-54382252D01*
X57377748Y-54609987D01*
X57645537Y-54788918D01*
X57943088Y-54912168D01*
X58258967Y-54975000D01*
X58581033Y-54975000D01*
X58896912Y-54912168D01*
X59194463Y-54788918D01*
X59462252Y-54609987D01*
X59689987Y-54382252D01*
X59868918Y-54114463D01*
X59992168Y-53816912D01*
X60055000Y-53501033D01*
X60055000Y-53178967D01*
X59992168Y-52863088D01*
X59868918Y-52565537D01*
X59689987Y-52297748D01*
X59462252Y-52070013D01*
X59194463Y-51891082D01*
X58896912Y-51767832D01*
X58581033Y-51705000D01*
X58258967Y-51705000D01*
X57943088Y-51767832D01*
X57645537Y-51891082D01*
X57377748Y-52070013D01*
X57150013Y-52297748D01*
X56971082Y-52565537D01*
X56847832Y-52863088D01*
X56785000Y-53178967D01*
X51460000Y-53178967D01*
X51460000Y-48678967D01*
X56785000Y-48678967D01*
X56785000Y-49001033D01*
X56847832Y-49316912D01*
X56971082Y-49614463D01*
X57150013Y-49882252D01*
X57377748Y-50109987D01*
X57645537Y-50288918D01*
X57943088Y-50412168D01*
X58258967Y-50475000D01*
X58581033Y-50475000D01*
X58896912Y-50412168D01*
X59194463Y-50288918D01*
X59462252Y-50109987D01*
X59689987Y-49882252D01*
X59868918Y-49614463D01*
X59992168Y-49316912D01*
X60055000Y-49001033D01*
X60055000Y-48678967D01*
X63285000Y-48678967D01*
X63285000Y-49001033D01*
X63347832Y-49316912D01*
X63471082Y-49614463D01*
X63650013Y-49882252D01*
X63877748Y-50109987D01*
X64145537Y-50288918D01*
X64443088Y-50412168D01*
X64758967Y-50475000D01*
X65081033Y-50475000D01*
X65396912Y-50412168D01*
X65694463Y-50288918D01*
X65962252Y-50109987D01*
X66189987Y-49882252D01*
X66368918Y-49614463D01*
X66492168Y-49316912D01*
X66555000Y-49001033D01*
X66555000Y-48678967D01*
X68215000Y-48678967D01*
X68215000Y-49001033D01*
X68277832Y-49316912D01*
X68401082Y-49614463D01*
X68580013Y-49882252D01*
X68807748Y-50109987D01*
X69075537Y-50288918D01*
X69373088Y-50412168D01*
X69688967Y-50475000D01*
X70011033Y-50475000D01*
X70326912Y-50412168D01*
X70624463Y-50288918D01*
X70892252Y-50109987D01*
X71119987Y-49882252D01*
X71298918Y-49614463D01*
X71422168Y-49316912D01*
X71485000Y-49001033D01*
X71485000Y-48678967D01*
X74715000Y-48678967D01*
X74715000Y-49001033D01*
X74777832Y-49316912D01*
X74901082Y-49614463D01*
X75080013Y-49882252D01*
X75307748Y-50109987D01*
X75575537Y-50288918D01*
X75873088Y-50412168D01*
X76188967Y-50475000D01*
X76511033Y-50475000D01*
X76826912Y-50412168D01*
X77124463Y-50288918D01*
X77392252Y-50109987D01*
X77619987Y-49882252D01*
X77651177Y-49835573D01*
X77825241Y-50009637D01*
X78060273Y-50166680D01*
X78321426Y-50274853D01*
X78598665Y-50330000D01*
X78881335Y-50330000D01*
X79158574Y-50274853D01*
X79419727Y-50166680D01*
X79654759Y-50009637D01*
X79854637Y-49809759D01*
X80011680Y-49574727D01*
X80119853Y-49313574D01*
X80175000Y-49036335D01*
X80175000Y-48753665D01*
X80119853Y-48476426D01*
X80011680Y-48215273D01*
X79854637Y-47980241D01*
X79654759Y-47780363D01*
X79419727Y-47623320D01*
X79158574Y-47515147D01*
X78881335Y-47460000D01*
X78598665Y-47460000D01*
X78321426Y-47515147D01*
X78060273Y-47623320D01*
X77825241Y-47780363D01*
X77695237Y-47910367D01*
X77619987Y-47797748D01*
X77392252Y-47570013D01*
X77124463Y-47391082D01*
X76826912Y-47267832D01*
X76511033Y-47205000D01*
X76188967Y-47205000D01*
X75873088Y-47267832D01*
X75575537Y-47391082D01*
X75307748Y-47570013D01*
X75080013Y-47797748D01*
X74901082Y-48065537D01*
X74777832Y-48363088D01*
X74715000Y-48678967D01*
X71485000Y-48678967D01*
X71422168Y-48363088D01*
X71298918Y-48065537D01*
X71119987Y-47797748D01*
X70892252Y-47570013D01*
X70624463Y-47391082D01*
X70326912Y-47267832D01*
X70011033Y-47205000D01*
X69688967Y-47205000D01*
X69373088Y-47267832D01*
X69075537Y-47391082D01*
X68807748Y-47570013D01*
X68580013Y-47797748D01*
X68401082Y-48065537D01*
X68277832Y-48363088D01*
X68215000Y-48678967D01*
X66555000Y-48678967D01*
X66492168Y-48363088D01*
X66368918Y-48065537D01*
X66189987Y-47797748D01*
X65962252Y-47570013D01*
X65694463Y-47391082D01*
X65396912Y-47267832D01*
X65081033Y-47205000D01*
X64758967Y-47205000D01*
X64443088Y-47267832D01*
X64145537Y-47391082D01*
X63877748Y-47570013D01*
X63650013Y-47797748D01*
X63471082Y-48065537D01*
X63347832Y-48363088D01*
X63285000Y-48678967D01*
X60055000Y-48678967D01*
X59992168Y-48363088D01*
X59868918Y-48065537D01*
X59689987Y-47797748D01*
X59462252Y-47570013D01*
X59194463Y-47391082D01*
X58896912Y-47267832D01*
X58581033Y-47205000D01*
X58258967Y-47205000D01*
X57943088Y-47267832D01*
X57645537Y-47391082D01*
X57377748Y-47570013D01*
X57150013Y-47797748D01*
X56971082Y-48065537D01*
X56847832Y-48363088D01*
X56785000Y-48678967D01*
X51460000Y-48678967D01*
X51460000Y-45578665D01*
X56985000Y-45578665D01*
X56985000Y-45861335D01*
X57040147Y-46138574D01*
X57148320Y-46399727D01*
X57305363Y-46634759D01*
X57505241Y-46834637D01*
X57740273Y-46991680D01*
X58001426Y-47099853D01*
X58278665Y-47155000D01*
X58561335Y-47155000D01*
X58838574Y-47099853D01*
X59099727Y-46991680D01*
X59334759Y-46834637D01*
X59534637Y-46634759D01*
X59691680Y-46399727D01*
X59799853Y-46138574D01*
X59855000Y-45861335D01*
X59855000Y-45578665D01*
X59799853Y-45301426D01*
X59691680Y-45040273D01*
X59534637Y-44805241D01*
X59334759Y-44605363D01*
X59099727Y-44448320D01*
X58838574Y-44340147D01*
X58561335Y-44285000D01*
X58278665Y-44285000D01*
X58001426Y-44340147D01*
X57740273Y-44448320D01*
X57505241Y-44605363D01*
X57305363Y-44805241D01*
X57148320Y-45040273D01*
X57040147Y-45301426D01*
X56985000Y-45578665D01*
X51460000Y-45578665D01*
X51460000Y-43708967D01*
X62500000Y-43708967D01*
X62500000Y-44031033D01*
X62562832Y-44346912D01*
X62686082Y-44644463D01*
X62865013Y-44912252D01*
X63092748Y-45139987D01*
X63360537Y-45318918D01*
X63658088Y-45442168D01*
X63973967Y-45505000D01*
X64296033Y-45505000D01*
X64611912Y-45442168D01*
X64909463Y-45318918D01*
X65177252Y-45139987D01*
X65404987Y-44912252D01*
X65583918Y-44644463D01*
X65707168Y-44346912D01*
X65770000Y-44031033D01*
X65770000Y-43708967D01*
X69000000Y-43708967D01*
X69000000Y-44031033D01*
X69062832Y-44346912D01*
X69186082Y-44644463D01*
X69365013Y-44912252D01*
X69592748Y-45139987D01*
X69860537Y-45318918D01*
X70158088Y-45442168D01*
X70473967Y-45505000D01*
X70796033Y-45505000D01*
X71111912Y-45442168D01*
X71409463Y-45318918D01*
X71677252Y-45139987D01*
X71904987Y-44912252D01*
X71980632Y-44799040D01*
X77348091Y-44799040D01*
X77442930Y-45063881D01*
X77587615Y-45305131D01*
X77776586Y-45513519D01*
X78002580Y-45681037D01*
X78256913Y-45801246D01*
X78390961Y-45841904D01*
X78613000Y-45719915D01*
X78613000Y-44577000D01*
X78867000Y-44577000D01*
X78867000Y-45719915D01*
X79089039Y-45841904D01*
X79223087Y-45801246D01*
X79477420Y-45681037D01*
X79703414Y-45513519D01*
X79892385Y-45305131D01*
X80037070Y-45063881D01*
X80131909Y-44799040D01*
X80010624Y-44577000D01*
X78867000Y-44577000D01*
X78613000Y-44577000D01*
X77469376Y-44577000D01*
X77348091Y-44799040D01*
X71980632Y-44799040D01*
X72083918Y-44644463D01*
X72207168Y-44346912D01*
X72256090Y-44100960D01*
X77348091Y-44100960D01*
X77469376Y-44323000D01*
X78613000Y-44323000D01*
X78613000Y-43180085D01*
X78867000Y-43180085D01*
X78867000Y-44323000D01*
X80010624Y-44323000D01*
X80131909Y-44100960D01*
X80037070Y-43836119D01*
X79892385Y-43594869D01*
X79703414Y-43386481D01*
X79477420Y-43218963D01*
X79223087Y-43098754D01*
X79089039Y-43058096D01*
X78867000Y-43180085D01*
X78613000Y-43180085D01*
X78390961Y-43058096D01*
X78256913Y-43098754D01*
X78002580Y-43218963D01*
X77776586Y-43386481D01*
X77587615Y-43594869D01*
X77442930Y-43836119D01*
X77348091Y-44100960D01*
X72256090Y-44100960D01*
X72270000Y-44031033D01*
X72270000Y-43708967D01*
X72207168Y-43393088D01*
X72083918Y-43095537D01*
X71904987Y-42827748D01*
X71677252Y-42600013D01*
X71409463Y-42421082D01*
X71111912Y-42297832D01*
X70796033Y-42235000D01*
X70473967Y-42235000D01*
X70158088Y-42297832D01*
X69860537Y-42421082D01*
X69592748Y-42600013D01*
X69365013Y-42827748D01*
X69186082Y-43095537D01*
X69062832Y-43393088D01*
X69000000Y-43708967D01*
X65770000Y-43708967D01*
X65707168Y-43393088D01*
X65583918Y-43095537D01*
X65404987Y-42827748D01*
X65177252Y-42600013D01*
X64909463Y-42421082D01*
X64611912Y-42297832D01*
X64296033Y-42235000D01*
X63973967Y-42235000D01*
X63658088Y-42297832D01*
X63360537Y-42421082D01*
X63092748Y-42600013D01*
X62865013Y-42827748D01*
X62686082Y-43095537D01*
X62562832Y-43393088D01*
X62500000Y-43708967D01*
X51460000Y-43708967D01*
X51460000Y-38449040D01*
X57028091Y-38449040D01*
X57122930Y-38713881D01*
X57267615Y-38955131D01*
X57456586Y-39163519D01*
X57682580Y-39331037D01*
X57936913Y-39451246D01*
X58070961Y-39491904D01*
X58293000Y-39369915D01*
X58293000Y-38227000D01*
X58547000Y-38227000D01*
X58547000Y-39369915D01*
X58769039Y-39491904D01*
X58903087Y-39451246D01*
X59157420Y-39331037D01*
X59322101Y-39208967D01*
X62500000Y-39208967D01*
X62500000Y-39531033D01*
X62562832Y-39846912D01*
X62686082Y-40144463D01*
X62865013Y-40412252D01*
X63092748Y-40639987D01*
X63360537Y-40818918D01*
X63658088Y-40942168D01*
X63973967Y-41005000D01*
X64296033Y-41005000D01*
X64611912Y-40942168D01*
X64909463Y-40818918D01*
X65177252Y-40639987D01*
X65404987Y-40412252D01*
X65583918Y-40144463D01*
X65707168Y-39846912D01*
X65770000Y-39531033D01*
X65770000Y-39208967D01*
X69000000Y-39208967D01*
X69000000Y-39531033D01*
X69062832Y-39846912D01*
X69186082Y-40144463D01*
X69365013Y-40412252D01*
X69592748Y-40639987D01*
X69860537Y-40818918D01*
X70158088Y-40942168D01*
X70473967Y-41005000D01*
X70796033Y-41005000D01*
X71111912Y-40942168D01*
X71409463Y-40818918D01*
X71677252Y-40639987D01*
X71904987Y-40412252D01*
X72083918Y-40144463D01*
X72207168Y-39846912D01*
X72270000Y-39531033D01*
X72270000Y-39208967D01*
X72207168Y-38893088D01*
X72083918Y-38595537D01*
X71904987Y-38327748D01*
X71677252Y-38100013D01*
X71409463Y-37921082D01*
X71111912Y-37797832D01*
X70796033Y-37735000D01*
X70473967Y-37735000D01*
X70158088Y-37797832D01*
X69860537Y-37921082D01*
X69592748Y-38100013D01*
X69365013Y-38327748D01*
X69186082Y-38595537D01*
X69062832Y-38893088D01*
X69000000Y-39208967D01*
X65770000Y-39208967D01*
X65707168Y-38893088D01*
X65583918Y-38595537D01*
X65404987Y-38327748D01*
X65177252Y-38100013D01*
X64909463Y-37921082D01*
X64611912Y-37797832D01*
X64296033Y-37735000D01*
X63973967Y-37735000D01*
X63658088Y-37797832D01*
X63360537Y-37921082D01*
X63092748Y-38100013D01*
X62865013Y-38327748D01*
X62686082Y-38595537D01*
X62562832Y-38893088D01*
X62500000Y-39208967D01*
X59322101Y-39208967D01*
X59383414Y-39163519D01*
X59572385Y-38955131D01*
X59717070Y-38713881D01*
X59811909Y-38449040D01*
X59690624Y-38227000D01*
X58547000Y-38227000D01*
X58293000Y-38227000D01*
X57149376Y-38227000D01*
X57028091Y-38449040D01*
X51460000Y-38449040D01*
X51460000Y-37750960D01*
X57028091Y-37750960D01*
X57149376Y-37973000D01*
X58293000Y-37973000D01*
X58293000Y-36830085D01*
X58547000Y-36830085D01*
X58547000Y-37973000D01*
X59690624Y-37973000D01*
X59811909Y-37750960D01*
X59717070Y-37486119D01*
X59572385Y-37244869D01*
X59383414Y-37036481D01*
X59157420Y-36868963D01*
X58903087Y-36748754D01*
X58769039Y-36708096D01*
X58547000Y-36830085D01*
X58293000Y-36830085D01*
X58070961Y-36708096D01*
X57936913Y-36748754D01*
X57682580Y-36868963D01*
X57456586Y-37036481D01*
X57267615Y-37244869D01*
X57122930Y-37486119D01*
X57028091Y-37750960D01*
X51460000Y-37750960D01*
X51460000Y-36220000D01*
X77439438Y-36220000D01*
X77360147Y-36411426D01*
M02*
