M48
; DRILL file {KiCad (5.1.5)-3} date 28/04/2020 03:57:49
; FORMAT={-:-/ absolute / inch / decimal}
; #@! TF.CreationDate,2020-04-28T03:57:49+03:00
; #@! TF.GenerationSoftware,Kicad,Pcbnew,(5.1.5)-3
; #@! TF.FileFunction,Plated,1,2,PTH
FMAT,2
INCH
T1C0.0315
T2C0.0354
T3C0.0394
T4C0.0433
T5C0.1181
%
G90
G05
T1
X2.375Y-3.0
X2.4311Y-3.7
X2.5Y-3.5
X2.5262Y-3.3238
X2.5385Y-3.8696
X2.5689Y-3.7
X3.15Y-3.6
X3.15Y-3.8
X3.27Y-4.046
X3.275Y-3.95
X3.5Y-2.75
X3.5Y-2.85
X3.75Y-3.25
X3.7531Y-3.35
X3.875Y-3.85
X3.875Y-3.95
X4.15Y-2.7496
X4.15Y-2.95
X4.45Y-4.35
X4.45Y-4.45
X4.4501Y-4.2501
X4.55Y-1.8
X4.55Y-1.9
X2.225Y-2.2
X2.525Y-2.2
X2.65Y-3.4
X2.65Y-3.5
X2.65Y-3.6
X2.65Y-3.7
X2.65Y-3.8
X2.65Y-3.9
X3.05Y-3.4
X3.05Y-3.5
X3.05Y-3.6
X3.05Y-3.7
X3.05Y-3.8
X3.05Y-3.9
X3.4Y-2.75
X3.4Y-2.85
X3.4Y-2.95
X3.4Y-3.05
X3.4Y-3.15
X3.4Y-3.25
X3.4Y-3.35
X3.4Y-3.45
X3.4Y-3.55
X3.4Y-3.65
X3.4Y-3.75
X3.4Y-3.85
X3.4Y-3.95
X3.4Y-4.05
X3.4Y-4.15
X4.0Y-2.75
X4.0Y-2.85
X4.0Y-2.95
X4.0Y-3.05
X4.0Y-3.15
X4.0Y-3.25
X4.0Y-3.35
X4.0Y-3.45
X4.0Y-3.55
X4.0Y-3.65
X4.0Y-3.75
X4.0Y-3.85
X4.0Y-3.95
X4.0Y-4.05
X4.0Y-4.15
X3.1Y-1.45
X3.1Y-1.75
X2.3Y-1.5
X2.3Y-1.8
X3.1Y-1.925
X3.1Y-2.225
X2.875Y-2.475
X2.875Y-2.775
T2
X2.65Y-3.225
X3.05Y-3.225
T3
X4.6Y-2.65
X4.6Y-2.75
X4.6Y-2.85
X4.6Y-2.95
X4.6Y-3.05
X4.6Y-3.15
X4.6Y-3.25
X4.6Y-3.35
X4.6Y-3.45
X4.6Y-3.55
X4.6Y-3.65
X4.6Y-3.75
X4.6Y-3.85
X4.6Y-3.95
X4.6Y-4.05
X4.6Y-4.15
X4.6Y-4.25
X4.6Y-4.35
X4.7Y-2.65
X4.7Y-2.75
X4.7Y-2.85
X4.7Y-2.95
X4.7Y-3.05
X4.7Y-3.15
X4.7Y-3.25
X4.7Y-3.35
X4.7Y-3.45
X4.7Y-3.55
X4.7Y-3.65
X4.7Y-3.75
X4.7Y-3.85
X4.7Y-3.95
X4.7Y-4.05
X4.7Y-4.15
X4.7Y-4.25
X4.7Y-4.35
X2.17Y-3.25
X2.17Y-3.35
X2.17Y-3.45
X2.17Y-3.55
X2.17Y-3.65
X2.17Y-3.75
X2.17Y-3.85
X2.17Y-3.95
X4.7Y-1.8
X4.7Y-1.9
X4.7Y-2.0
X4.7Y-2.1
X2.35Y-3.25
X2.35Y-3.35
X2.35Y-3.45
X2.35Y-3.55
X2.35Y-3.65
X2.35Y-3.75
X2.35Y-3.85
X2.35Y-3.95
T4
X2.525Y-2.3
X2.525Y-2.4772
X2.7809Y-2.3
X2.7809Y-2.4772
X2.3Y-1.9228
X2.3Y-2.1
X2.5559Y-1.9228
X2.5559Y-2.1
X2.75Y-1.9228
X2.75Y-2.1
X3.0059Y-1.9228
X3.0059Y-2.1
X2.525Y-2.825
X2.525Y-3.0022
X2.7809Y-2.825
X2.7809Y-3.0022
X2.525Y-1.55
X2.525Y-1.7272
X2.7809Y-1.55
X2.7809Y-1.7272
T5
X4.3157Y-2.65
X2.3343Y-2.65
X3.325Y-4.375
T0
M30
