G04*
G04 GERBER (RE)GENERATED BY FLATCAM v8.99 - www.flatcam.org - Version Date: 2019/12/15*
G04 Filename: arduino-fanatec-pcb-B_Cu-temp.gbr_edit*
G04 Created on : Saturday, 28 December 2019 at 18:00*
G04*
G04 RS-274X GERBER GENERATED BY FLATCAM v8.99 - www.flatcam.org - Version Date: 2019/12/15*
G04 Filename: arduino-fanatec-pcb-B_Cu-temp.gbr_edit*
G04 Created on : Saturday, 28 December 2019 at 17:59*
%FSLAX24Y24*%
%MOIN*%
%ADD10O,0.062992X0.062992*%
%ADD15O,0.066929X0.066929*%
%ADD16R,0.066929X0.066929*%
%ADD17C,0.062992*%
%ADD18C,0.027559*%

G70*
G90*
G01*
%LPD*%
D10*
X40000Y-41500D03*
X34000Y-39500D03*
X34000Y-38500D03*
X34000Y-37500D03*
X34000Y-36500D03*
X40000Y-32500D03*
X34000Y-35500D03*
X40000Y-33500D03*
X34000Y-34500D03*
X40000Y-34500D03*
X34000Y-33500D03*
X40000Y-35500D03*
X34000Y-32500D03*
X40000Y-36500D03*
X40000Y-37500D03*
X40000Y-38500D03*
X40000Y-39500D03*
X40000Y-40500D03*
D15*
X47000Y-32500D03*
X46000Y-32500D03*
X47000Y-33500D03*
X46000Y-33500D03*
X47000Y-34500D03*
X46000Y-34500D03*
X47000Y-35500D03*
X46000Y-35500D03*
X47000Y-36500D03*
X46000Y-36500D03*
X47000Y-37500D03*
X46000Y-37500D03*
X47000Y-38500D03*
X46000Y-38500D03*
X47000Y-39500D03*
X46000Y-39500D03*
X47000Y-40500D03*
X46000Y-40500D03*
X47000Y-41500D03*
X46000Y-41500D03*
X47000Y-42500D03*
X46000Y-42500D03*
X47000Y-43500D03*
D16*
X46000Y-43500D03*
D17*
X38900Y-41500D03*
X44500Y-43500D03*
X44500Y-44500D03*
X44500Y-42500D03*
D18*
X40000Y-41500D02*
X38900Y-41500D01*
X40000Y-32500D02*
X40951Y-32500D01*
X40951Y-32500D02*
X45616Y-27835D01*
X40000Y-33500D02*
X40951Y-33500D01*
X40951Y-33500D02*
X45951Y-28500D01*
X40000Y-34500D02*
X40675Y-34500D01*
X40675Y-34500D02*
X45675Y-29500D01*
X40000Y-35500D02*
X40527Y-35500D01*
X40527Y-35500D02*
X45527Y-30500D01*
X40000Y-36500D02*
X40527Y-36500D01*
X40527Y-36500D02*
X45527Y-31500D01*
X45527Y-32500D02*
X46000Y-32500D01*
X40000Y-37500D02*
X40527Y-37500D01*
X40527Y-37500D02*
X45527Y-32500D01*
X45527Y-33500D02*
X46000Y-33500D01*
X40000Y-38500D02*
X40527Y-38500D01*
X40527Y-38500D02*
X45527Y-33500D01*
X47000Y-26500D02*
X47000Y-43500D01*
X46000Y-42500D02*
X45500Y-42500D01*
X45500Y-42500D02*
X44500Y-43500D01*
X40689Y-39338D02*
X45527Y-34500D01*
X34000Y-32500D02*
X38000Y-36500D01*
X38000Y-41620D02*
X38569Y-42189D01*
X45527Y-34500D02*
X46000Y-34500D01*
X40689Y-41831D02*
X40689Y-39338D01*
X40331Y-42189D02*
X40689Y-41831D01*
X38569Y-42189D02*
X40331Y-42189D01*
X38000Y-36500D02*
X38000Y-41620D01*
X37488Y-36988D02*
X37488Y-41832D01*
X37488Y-41832D02*
X38357Y-42701D01*
X38357Y-42701D02*
X40543Y-42701D01*
X34000Y-33500D02*
X37488Y-36988D01*
X41201Y-42043D02*
X41201Y-39826D01*
X45527Y-35500D02*
X46000Y-35500D01*
X40543Y-42701D02*
X41201Y-42043D01*
X41201Y-39826D02*
X45527Y-35500D01*
X36976Y-37476D02*
X36976Y-42044D01*
X45527Y-36500D02*
X46000Y-36500D01*
X41713Y-40314D02*
X45527Y-36500D01*
X36976Y-42044D02*
X38145Y-43213D01*
X38145Y-43213D02*
X40755Y-43213D01*
X40755Y-43213D02*
X41713Y-42255D01*
X34000Y-34500D02*
X36976Y-37476D01*
X41713Y-42255D02*
X41713Y-40314D01*
X40967Y-43724D02*
X42224Y-42467D01*
X34000Y-35500D02*
X36464Y-37964D01*
X36464Y-37964D02*
X36464Y-42256D01*
X45527Y-37500D02*
X46000Y-37500D01*
X42224Y-42467D02*
X42224Y-40802D01*
X36464Y-42256D02*
X37933Y-43724D01*
X37933Y-43724D02*
X40967Y-43724D01*
X42224Y-40802D02*
X45527Y-37500D01*
X42736Y-41290D02*
X45527Y-38500D01*
X41179Y-44236D02*
X42736Y-42679D01*
X37721Y-44236D02*
X41179Y-44236D01*
X35953Y-42468D02*
X37721Y-44236D01*
X35953Y-38453D02*
X35953Y-42468D01*
X34000Y-36500D02*
X35953Y-38453D01*
X42736Y-42679D02*
X42736Y-41290D01*
X45527Y-38500D02*
X46000Y-38500D01*
X45527Y-39500D02*
X46000Y-39500D01*
X43248Y-41779D02*
X45527Y-39500D01*
X43248Y-42891D02*
X43248Y-41779D01*
X41391Y-44748D02*
X43248Y-42891D01*
X37509Y-44748D02*
X41391Y-44748D01*
X35652Y-42891D02*
X37509Y-44748D01*
X35652Y-42891D02*
X35652Y-42891D01*
X35441Y-42680D02*
X35652Y-42891D01*
X34000Y-37500D02*
X35441Y-38941D01*
X35441Y-38941D02*
X35441Y-42680D01*
X34315Y-38815D02*
X34000Y-38500D01*
X34929Y-42892D02*
X34929Y-39429D01*
X37297Y-45260D02*
X34929Y-42892D01*
X43760Y-43103D02*
X41603Y-45260D01*
X41603Y-45260D02*
X37297Y-45260D01*
X43760Y-42267D02*
X43760Y-43103D01*
X45527Y-40500D02*
X43760Y-42267D01*
X34929Y-39429D02*
X34315Y-38815D01*
X46000Y-40500D02*
X45527Y-40500D01*
X45500Y-43500D02*
X44500Y-44500D01*
X46000Y-43500D02*
X45500Y-43500D01*
X46000Y-41500D02*
X45501Y-41500D01*
X45501Y-41500D02*
X44500Y-42500D01*
M02*
