G04 #@! TF.GenerationSoftware,KiCad,Pcbnew,(5.1.4)-1*
G04 #@! TF.CreationDate,2019-12-28T16:53:48+02:00*
G04 #@! TF.ProjectId,arduino-fanatec-pcb,61726475-696e-46f2-9d66-616e61746563,rev?*
G04 #@! TF.SameCoordinates,Original*
G04 #@! TF.FileFunction,Copper,L1,Top*
G04 #@! TF.FilePolarity,Positive*
%FSLAX46Y46*%
G04 Gerber Fmt 4.6, Leading zero omitted, Abs format (unit mm)*
G04 Created by KiCad (PCBNEW (5.1.4)-1) date 2019-12-28 16:53:48*
%MOMM*%
%LPD*%
G04 APERTURE LIST*
%ADD10O,1.600000X1.600000*%
%ADD11R,1.600000X1.600000*%
%ADD12C,6.000000*%
%ADD13O,1.800000X1.800000*%
%ADD14R,1.800000X1.800000*%
%ADD15O,1.700000X1.700000*%
%ADD16R,1.700000X1.700000*%
%ADD17C,1.600000*%
%ADD18C,0.700000*%
G04 APERTURE END LIST*
D10*
X77470000Y-86360000D03*
X67310000Y-99060000D03*
X77470000Y-88900000D03*
X67310000Y-96520000D03*
X77470000Y-91440000D03*
X67310000Y-93980000D03*
X77470000Y-93980000D03*
X67310000Y-91440000D03*
X77470000Y-96520000D03*
X67310000Y-88900000D03*
X77470000Y-99060000D03*
D11*
X67310000Y-86360000D03*
D12*
X109220000Y-67310000D03*
X59690000Y-111760000D03*
X59690000Y-67310000D03*
D10*
X101600000Y-105410000D03*
X86360000Y-105410000D03*
X101600000Y-69850000D03*
X86360000Y-102870000D03*
X101600000Y-72390000D03*
X86360000Y-100330000D03*
X101600000Y-74930000D03*
X86360000Y-97790000D03*
X101600000Y-77470000D03*
X86360000Y-95250000D03*
X101600000Y-80010000D03*
X86360000Y-92710000D03*
X101600000Y-82550000D03*
X86360000Y-90170000D03*
X101600000Y-85090000D03*
X86360000Y-87630000D03*
X101600000Y-87630000D03*
X86360000Y-85090000D03*
X101600000Y-90170000D03*
X86360000Y-82550000D03*
X101600000Y-92710000D03*
X86360000Y-80010000D03*
X101600000Y-95250000D03*
X86360000Y-77470000D03*
X101600000Y-97790000D03*
X86360000Y-74930000D03*
X101600000Y-100330000D03*
X86360000Y-72390000D03*
X101600000Y-102870000D03*
D11*
X86360000Y-69850000D03*
D13*
X67310000Y-73660000D03*
D14*
X77470000Y-73660000D03*
D15*
X119380000Y-67310000D03*
X116840000Y-67310000D03*
X119380000Y-69850000D03*
X116840000Y-69850000D03*
X119380000Y-72390000D03*
X116840000Y-72390000D03*
X119380000Y-74930000D03*
X116840000Y-74930000D03*
X119380000Y-77470000D03*
X116840000Y-77470000D03*
X119380000Y-80010000D03*
X116840000Y-80010000D03*
X119380000Y-82550000D03*
X116840000Y-82550000D03*
X119380000Y-85090000D03*
X116840000Y-85090000D03*
X119380000Y-87630000D03*
X116840000Y-87630000D03*
X119380000Y-90170000D03*
X116840000Y-90170000D03*
X119380000Y-92710000D03*
X116840000Y-92710000D03*
X119380000Y-95250000D03*
X116840000Y-95250000D03*
X119380000Y-97790000D03*
X116840000Y-97790000D03*
X119380000Y-100330000D03*
X116840000Y-100330000D03*
X119380000Y-102870000D03*
X116840000Y-102870000D03*
X119380000Y-105410000D03*
X116840000Y-105410000D03*
X119380000Y-107950000D03*
X116840000Y-107950000D03*
X119380000Y-110490000D03*
D16*
X116840000Y-110490000D03*
D15*
X59690000Y-100330000D03*
X59690000Y-97790000D03*
X59690000Y-95250000D03*
X59690000Y-92710000D03*
X59690000Y-90170000D03*
X59690000Y-87630000D03*
X59690000Y-85090000D03*
D16*
X59690000Y-82550000D03*
D17*
X98806000Y-105410000D03*
X77470000Y-110490000D03*
X83820000Y-96520000D03*
X80010000Y-96520000D03*
X105410000Y-74930000D03*
X105410000Y-69850000D03*
X113030000Y-110490000D03*
X88900000Y-69850000D03*
X61750000Y-93980000D03*
X65250000Y-93980000D03*
X64476878Y-98286878D03*
X63500000Y-88900000D03*
X113030000Y-113030000D03*
X88900000Y-72390000D03*
X113031397Y-107951397D03*
D18*
X98806000Y-105410000D02*
X93726000Y-110490000D01*
X93726000Y-110490000D02*
X77470000Y-110490000D01*
X83820000Y-96520000D02*
X80010000Y-96520000D01*
X105410000Y-74930000D02*
X105410000Y-69850000D01*
X59690000Y-82550000D02*
X59690000Y-81280000D01*
X64340001Y-87149999D02*
X62659999Y-87149999D01*
X61749999Y-88059999D02*
X61749999Y-92229999D01*
X61749999Y-92229999D02*
X62199990Y-92679990D01*
X62199990Y-93530010D02*
X61750000Y-93980000D01*
X65250000Y-88059998D02*
X64340001Y-87149999D01*
X65250000Y-93980000D02*
X65250000Y-88059998D01*
X62199990Y-92679990D02*
X62199990Y-93530010D01*
X62659999Y-87149999D02*
X61749999Y-88059999D01*
X64476878Y-98286878D02*
X63500000Y-97310000D01*
X63500000Y-97310000D02*
X63500000Y-88900000D01*
M02*
