G04 #@! TF.GenerationSoftware,KiCad,Pcbnew,(5.1.4)-1*
G04 #@! TF.CreationDate,2019-12-28T16:53:48+02:00*
G04 #@! TF.ProjectId,arduino-fanatec-pcb,61726475-696e-46f2-9d66-616e61746563,rev?*
G04 #@! TF.SameCoordinates,Original*
G04 #@! TF.FileFunction,Copper,L2,Bot*
G04 #@! TF.FilePolarity,Positive*
%FSLAX46Y46*%
G04 Gerber Fmt 4.6, Leading zero omitted, Abs format (unit mm)*
G04 Created by KiCad (PCBNEW (5.1.4)-1) date 2019-12-28 16:53:48*
%MOMM*%
%LPD*%
G04 APERTURE LIST*
%ADD10O,1.600000X1.600000*%
%ADD11R,1.600000X1.600000*%
%ADD12C,6.000000*%
%ADD13O,1.800000X1.800000*%
%ADD14R,1.800000X1.800000*%
%ADD15O,1.700000X1.700000*%
%ADD16R,1.700000X1.700000*%
%ADD17C,1.600000*%
%ADD18C,0.700000*%
G04 APERTURE END LIST*
D10*
X77470000Y-86360000D03*
X67310000Y-99060000D03*
X77470000Y-88900000D03*
X67310000Y-96520000D03*
X77470000Y-91440000D03*
X67310000Y-93980000D03*
X77470000Y-93980000D03*
X67310000Y-91440000D03*
X77470000Y-96520000D03*
X67310000Y-88900000D03*
X77470000Y-99060000D03*
D11*
X67310000Y-86360000D03*
D12*
X109220000Y-67310000D03*
X59690000Y-111760000D03*
X59690000Y-67310000D03*
D10*
X101600000Y-105410000D03*
X86360000Y-105410000D03*
X101600000Y-69850000D03*
X86360000Y-102870000D03*
X101600000Y-72390000D03*
X86360000Y-100330000D03*
X101600000Y-74930000D03*
X86360000Y-97790000D03*
X101600000Y-77470000D03*
X86360000Y-95250000D03*
X101600000Y-80010000D03*
X86360000Y-92710000D03*
X101600000Y-82550000D03*
X86360000Y-90170000D03*
X101600000Y-85090000D03*
X86360000Y-87630000D03*
X101600000Y-87630000D03*
X86360000Y-85090000D03*
X101600000Y-90170000D03*
X86360000Y-82550000D03*
X101600000Y-92710000D03*
X86360000Y-80010000D03*
X101600000Y-95250000D03*
X86360000Y-77470000D03*
X101600000Y-97790000D03*
X86360000Y-74930000D03*
X101600000Y-100330000D03*
X86360000Y-72390000D03*
X101600000Y-102870000D03*
D11*
X86360000Y-69850000D03*
D13*
X67310000Y-73660000D03*
D14*
X77470000Y-73660000D03*
D15*
X119380000Y-67310000D03*
X116840000Y-67310000D03*
X119380000Y-69850000D03*
X116840000Y-69850000D03*
X119380000Y-72390000D03*
X116840000Y-72390000D03*
X119380000Y-74930000D03*
X116840000Y-74930000D03*
X119380000Y-77470000D03*
X116840000Y-77470000D03*
X119380000Y-80010000D03*
X116840000Y-80010000D03*
X119380000Y-82550000D03*
X116840000Y-82550000D03*
X119380000Y-85090000D03*
X116840000Y-85090000D03*
X119380000Y-87630000D03*
X116840000Y-87630000D03*
X119380000Y-90170000D03*
X116840000Y-90170000D03*
X119380000Y-92710000D03*
X116840000Y-92710000D03*
X119380000Y-95250000D03*
X116840000Y-95250000D03*
X119380000Y-97790000D03*
X116840000Y-97790000D03*
X119380000Y-100330000D03*
X116840000Y-100330000D03*
X119380000Y-102870000D03*
X116840000Y-102870000D03*
X119380000Y-105410000D03*
X116840000Y-105410000D03*
X119380000Y-107950000D03*
X116840000Y-107950000D03*
X119380000Y-110490000D03*
D16*
X116840000Y-110490000D03*
D15*
X59690000Y-100330000D03*
X59690000Y-97790000D03*
X59690000Y-95250000D03*
X59690000Y-92710000D03*
X59690000Y-90170000D03*
X59690000Y-87630000D03*
X59690000Y-85090000D03*
D16*
X59690000Y-82550000D03*
D17*
X98806000Y-105410000D03*
X77470000Y-110490000D03*
X83820000Y-96520000D03*
X80010000Y-96520000D03*
X105410000Y-74930000D03*
X105410000Y-69850000D03*
X113030000Y-110490000D03*
X88900000Y-69850000D03*
X61750000Y-93980000D03*
X65250000Y-93980000D03*
X64476878Y-98286878D03*
X63500000Y-88900000D03*
X113030000Y-113030000D03*
X88900000Y-72390000D03*
X113031397Y-107951397D03*
D18*
X101600000Y-105410000D02*
X98806000Y-105410000D01*
X76670001Y-87159999D02*
X77470000Y-86360000D01*
X74319989Y-89510011D02*
X76670001Y-87159999D01*
X74319989Y-107339989D02*
X74319989Y-89510011D01*
X77470000Y-110490000D02*
X74319989Y-107339989D01*
X81081998Y-105410000D02*
X86360000Y-105410000D01*
X75619999Y-99948001D02*
X81081998Y-105410000D01*
X75619999Y-90551999D02*
X75619999Y-99948001D01*
X77470000Y-88900000D02*
X77271998Y-88900000D01*
X77271998Y-88900000D02*
X75619999Y-90551999D01*
X86360000Y-102870000D02*
X83820000Y-100330000D01*
X83820000Y-100330000D02*
X83820000Y-96520000D01*
X80010000Y-96520000D02*
X77470000Y-96520000D01*
X101600000Y-77470000D02*
X102870000Y-77470000D01*
X102870000Y-77470000D02*
X105410000Y-74930000D01*
X104284999Y-65024000D02*
X83555001Y-65024000D01*
X77470000Y-75060000D02*
X77470000Y-73660000D01*
X77470000Y-91440000D02*
X79020001Y-89889999D01*
X79020001Y-89889999D02*
X79020001Y-76610001D01*
X79020001Y-76610001D02*
X77470000Y-75060000D01*
X104284999Y-68724999D02*
X105410000Y-69850000D01*
X104284999Y-65024000D02*
X104284999Y-68724999D01*
X77470000Y-71109001D02*
X77470000Y-73660000D01*
X83555001Y-65024000D02*
X77470000Y-71109001D01*
X115990001Y-68159999D02*
X116840000Y-67310000D01*
X115865999Y-68159999D02*
X115990001Y-68159999D01*
X104015998Y-80010000D02*
X115865999Y-68159999D01*
X101600000Y-80010000D02*
X104015998Y-80010000D01*
X115990001Y-70699999D02*
X116840000Y-69850000D01*
X115865999Y-70699999D02*
X115990001Y-70699999D01*
X101600000Y-82550000D02*
X104015998Y-82550000D01*
X104015998Y-82550000D02*
X115865999Y-70699999D01*
X116715998Y-72390000D02*
X116840000Y-72390000D01*
X101600000Y-85090000D02*
X104015998Y-85090000D01*
X104015998Y-85090000D02*
X116715998Y-72390000D01*
X116014489Y-74930000D02*
X116840000Y-74930000D01*
X101600000Y-87630000D02*
X103314489Y-87630000D01*
X103314489Y-87630000D02*
X116014489Y-74930000D01*
X115637919Y-77470000D02*
X116840000Y-77470000D01*
X101600000Y-90170000D02*
X102937919Y-90170000D01*
X102937919Y-90170000D02*
X115637919Y-77470000D01*
X115637919Y-80010000D02*
X116840000Y-80010000D01*
X101600000Y-92710000D02*
X102937919Y-92710000D01*
X102937919Y-92710000D02*
X115637919Y-80010000D01*
X85560001Y-80809999D02*
X86360000Y-80010000D01*
X82069999Y-84300001D02*
X85560001Y-80809999D01*
X82069999Y-97050003D02*
X82069999Y-84300001D01*
X80060002Y-99060000D02*
X82069999Y-97050003D01*
X77470000Y-99060000D02*
X80060002Y-99060000D01*
X115637919Y-82550000D02*
X116840000Y-82550000D01*
X101600000Y-95250000D02*
X102937919Y-95250000D01*
X102937919Y-95250000D02*
X115637919Y-82550000D01*
X115637919Y-85090000D02*
X116840000Y-85090000D01*
X101600000Y-97790000D02*
X102937919Y-97790000D01*
X102937919Y-97790000D02*
X115637919Y-85090000D01*
X118530001Y-66460001D02*
X119380000Y-67310000D01*
X117779999Y-65709999D02*
X118530001Y-66460001D01*
X116154001Y-65709999D02*
X117779999Y-65709999D01*
X110273999Y-71590001D02*
X116154001Y-65709999D01*
X102399999Y-71590001D02*
X110273999Y-71590001D01*
X101600000Y-72390000D02*
X102399999Y-71590001D01*
X119380000Y-67310000D02*
X119380000Y-110490000D01*
X78269999Y-93180001D02*
X77470000Y-93980000D01*
X80320011Y-72579987D02*
X80320011Y-91129989D01*
X84799999Y-68099999D02*
X80320011Y-72579987D01*
X92280001Y-68099999D02*
X84799999Y-68099999D01*
X96570002Y-72390000D02*
X92280001Y-68099999D01*
X80320011Y-91129989D02*
X78269999Y-93180001D01*
X101600000Y-72390000D02*
X96570002Y-72390000D01*
X66178630Y-88900000D02*
X67310000Y-88900000D01*
X66164002Y-88900000D02*
X66178630Y-88900000D01*
X59814002Y-82550000D02*
X66164002Y-88900000D01*
X59690000Y-82550000D02*
X59814002Y-82550000D01*
X60892081Y-100330000D02*
X59690000Y-100330000D01*
X64908630Y-100330000D02*
X60892081Y-100330000D01*
X66178630Y-99060000D02*
X64908630Y-100330000D01*
X67310000Y-99060000D02*
X66178630Y-99060000D01*
X67310000Y-91440000D02*
X63500000Y-91440000D01*
X63500000Y-91440000D02*
X63500000Y-96520000D01*
X62230000Y-97790000D02*
X59690000Y-97790000D01*
X63500000Y-96520000D02*
X62230000Y-97790000D01*
X58487919Y-95250000D02*
X59690000Y-95250000D01*
X57889999Y-95847920D02*
X58487919Y-95250000D01*
X57889999Y-101194001D02*
X57889999Y-95847920D01*
X58825999Y-102130001D02*
X57889999Y-101194001D01*
X69060001Y-99900001D02*
X66830001Y-102130001D01*
X66830001Y-102130001D02*
X58825999Y-102130001D01*
X69060001Y-86610001D02*
X69060001Y-99900001D01*
X68810000Y-86360000D02*
X69060001Y-86610001D01*
X67310000Y-86360000D02*
X68810000Y-86360000D01*
X116840000Y-107950000D02*
X115570000Y-107950000D01*
X115570000Y-107950000D02*
X113030000Y-110490000D01*
X86360000Y-69850000D02*
X88900000Y-69850000D01*
X60480000Y-92710000D02*
X59690000Y-92710000D01*
X61750000Y-93980000D02*
X60480000Y-92710000D01*
X67310000Y-93980000D02*
X65250000Y-93980000D01*
X63500000Y-88900000D02*
X61490001Y-86890001D01*
X61490001Y-86890001D02*
X61490001Y-86765999D01*
X61490001Y-86765999D02*
X60664001Y-85939999D01*
X60664001Y-85939999D02*
X60539999Y-85939999D01*
X60539999Y-85939999D02*
X59690000Y-85090000D01*
X66243756Y-96520000D02*
X64476878Y-98286878D01*
X67310000Y-96520000D02*
X66243756Y-96520000D01*
X103350001Y-99917918D02*
X115637919Y-87630000D01*
X86360000Y-82550000D02*
X96520004Y-92710004D01*
X96520004Y-105714001D02*
X97966004Y-107160001D01*
X115637919Y-87630000D02*
X116840000Y-87630000D01*
X103350001Y-106250001D02*
X103350001Y-99917918D01*
X102440001Y-107160001D02*
X103350001Y-106250001D01*
X97966004Y-107160001D02*
X102440001Y-107160001D01*
X96520004Y-92710004D02*
X96520004Y-105714001D01*
X95219993Y-93949993D02*
X95219993Y-106252483D01*
X95219993Y-106252483D02*
X97427522Y-108460012D01*
X97427522Y-108460012D02*
X102978483Y-108460012D01*
X86360000Y-85090000D02*
X95219993Y-93949993D01*
X104650012Y-106788483D02*
X104650012Y-101157907D01*
X115637919Y-90170000D02*
X116840000Y-90170000D01*
X102978483Y-108460012D02*
X104650012Y-106788483D01*
X104650012Y-101157907D02*
X115637919Y-90170000D01*
X93919978Y-95189978D02*
X93919978Y-106790966D01*
X115637919Y-92710000D02*
X116840000Y-92710000D01*
X105950023Y-102397896D02*
X115637919Y-92710000D01*
X93919978Y-106790966D02*
X96889035Y-109760023D01*
X96889035Y-109760023D02*
X103516965Y-109760023D01*
X103516965Y-109760023D02*
X105950023Y-107326965D01*
X86360000Y-87630000D02*
X93919978Y-95189978D01*
X105950023Y-107326965D02*
X105950023Y-102397896D01*
X104055447Y-111060034D02*
X107250034Y-107865447D01*
X86360000Y-90170000D02*
X92619967Y-96429967D01*
X92619967Y-96429967D02*
X92619967Y-107329448D01*
X115637919Y-95250000D02*
X116840000Y-95250000D01*
X107250034Y-107865447D02*
X107250034Y-103637885D01*
X92619967Y-107329448D02*
X96350553Y-111060034D01*
X96350553Y-111060034D02*
X104055447Y-111060034D01*
X107250034Y-103637885D02*
X115637919Y-95250000D01*
X108550045Y-104877874D02*
X115637919Y-97790000D01*
X104593929Y-112360045D02*
X108550045Y-108403929D01*
X95812071Y-112360045D02*
X104593929Y-112360045D01*
X91319960Y-107867934D02*
X95812071Y-112360045D01*
X91319960Y-97669960D02*
X91319960Y-107867934D01*
X86360000Y-92710000D02*
X91319960Y-97669960D01*
X108550045Y-108403929D02*
X108550045Y-104877874D01*
X115637919Y-97790000D02*
X116840000Y-97790000D01*
X115637919Y-100330000D02*
X116840000Y-100330000D01*
X109850056Y-106117863D02*
X115637919Y-100330000D01*
X109850056Y-108942411D02*
X109850056Y-106117863D01*
X105132411Y-113660056D02*
X109850056Y-108942411D01*
X95273589Y-113660056D02*
X105132411Y-113660056D01*
X90555944Y-108942411D02*
X95273589Y-113660056D01*
X90555944Y-108942406D02*
X90555944Y-108942411D01*
X90019949Y-108406411D02*
X90555944Y-108942406D01*
X86360000Y-95250000D02*
X90019949Y-98909949D01*
X90019949Y-98909949D02*
X90019949Y-108406411D01*
X87159999Y-98589999D02*
X86360000Y-97790000D01*
X88719939Y-108944892D02*
X88719939Y-100149939D01*
X94735113Y-114960066D02*
X88719939Y-108944892D01*
X111150066Y-109480892D02*
X105670892Y-114960066D01*
X105670892Y-114960066D02*
X94735113Y-114960066D01*
X111150066Y-107357853D02*
X111150066Y-109480892D01*
X115637919Y-102870000D02*
X111150066Y-107357853D01*
X88719939Y-100149939D02*
X87159999Y-98589999D01*
X116840000Y-102870000D02*
X115637919Y-102870000D01*
X115570000Y-110490000D02*
X113030000Y-113030000D01*
X116840000Y-110490000D02*
X115570000Y-110490000D01*
X86360000Y-72390000D02*
X88900000Y-72390000D01*
X67310000Y-73660000D02*
X61468000Y-73660000D01*
X61468000Y-73660000D02*
X56896000Y-78232000D01*
X58487919Y-90170000D02*
X59690000Y-90170000D01*
X56896000Y-78232000D02*
X56896000Y-88578081D01*
X56896000Y-88578081D02*
X58487919Y-90170000D01*
X116840000Y-105410000D02*
X115572794Y-105410000D01*
X115572794Y-105410000D02*
X113031397Y-107951397D01*
M02*
