M48
; DRILL file {KiCad (5.1.4)-1} date 12/28/19 16:55:26
; FORMAT={-:-/ absolute / metric / decimal}
; #@! TF.CreationDate,2019-12-28T16:55:26+02:00
; #@! TF.GenerationSoftware,Kicad,Pcbnew,(5.1.4)-1
; #@! TF.FileFunction,Plated,1,2,PTH
FMAT,2
METRIC
T1C0.800
T2C0.900
T3C1.000
T4C3.000
%
G90
G05
T1
X61.75Y-93.98
X63.5Y-88.9
X64.477Y-98.287
X65.25Y-93.98
X77.47Y-110.49
X80.01Y-96.52
X83.82Y-96.52
X88.9Y-69.85
X88.9Y-72.39
X98.806Y-105.41
X105.41Y-69.85
X105.41Y-74.93
X113.03Y-110.49
X113.03Y-113.03
X113.031Y-107.951
X67.31Y-86.36
X67.31Y-88.9
X67.31Y-91.44
X67.31Y-93.98
X67.31Y-96.52
X67.31Y-99.06
X77.47Y-86.36
X77.47Y-88.9
X77.47Y-91.44
X77.47Y-93.98
X77.47Y-96.52
X77.47Y-99.06
X86.36Y-69.85
X86.36Y-72.39
X86.36Y-74.93
X86.36Y-77.47
X86.36Y-80.01
X86.36Y-82.55
X86.36Y-85.09
X86.36Y-87.63
X86.36Y-90.17
X86.36Y-92.71
X86.36Y-95.25
X86.36Y-97.79
X86.36Y-100.33
X86.36Y-102.87
X86.36Y-105.41
X101.6Y-69.85
X101.6Y-72.39
X101.6Y-74.93
X101.6Y-77.47
X101.6Y-80.01
X101.6Y-82.55
X101.6Y-85.09
X101.6Y-87.63
X101.6Y-90.17
X101.6Y-92.71
X101.6Y-95.25
X101.6Y-97.79
X101.6Y-100.33
X101.6Y-102.87
X101.6Y-105.41
T2
X67.31Y-73.66
X77.47Y-73.66
T3
X116.84Y-67.31
X116.84Y-69.85
X116.84Y-72.39
X116.84Y-74.93
X116.84Y-77.47
X116.84Y-80.01
X116.84Y-82.55
X116.84Y-85.09
X116.84Y-87.63
X116.84Y-90.17
X116.84Y-92.71
X116.84Y-95.25
X116.84Y-97.79
X116.84Y-100.33
X116.84Y-102.87
X116.84Y-105.41
X116.84Y-107.95
X116.84Y-110.49
X119.38Y-67.31
X119.38Y-69.85
X119.38Y-72.39
X119.38Y-74.93
X119.38Y-77.47
X119.38Y-80.01
X119.38Y-82.55
X119.38Y-85.09
X119.38Y-87.63
X119.38Y-90.17
X119.38Y-92.71
X119.38Y-95.25
X119.38Y-97.79
X119.38Y-100.33
X119.38Y-102.87
X119.38Y-105.41
X119.38Y-107.95
X119.38Y-110.49
X59.69Y-82.55
X59.69Y-85.09
X59.69Y-87.63
X59.69Y-90.17
X59.69Y-92.71
X59.69Y-95.25
X59.69Y-97.79
X59.69Y-100.33
T4
X59.69Y-67.31
X59.69Y-111.76
X109.22Y-67.31
T0
M30
