**ABCDEFGHIJKLMNOPQRSTUVWXYZabcdefghijklmnopqrstuvwxyz**************************
**PARASOLID !"#$%&'()*+,-./:;<=>?@[\]^_`{|}~0123456789**************************
**PART1;
MC=AMD64;
MC_MODEL=Intel64 Family 6 Model 158 Stepping 12, GenuineIntel;
MC_ID=unknown;
OS=Windows_NT;
OS_RELEASE=unknown;
FRU=Parasolid Version 31.0, build 282,  2-25-2019;
APPL=SOLIDWORKS 2019-2019227;
SITE=;
USER=unknown;
FORMAT=text;
GUISE=transmit;
KEY=fanatec adapter;
FILE=fanatec adapter.x_t;
DATE=Fri Apr 10 22:16:04 2020;
**PART2;
SCH=SCH_3100282_31001;
USFLD_SIZE=0;
**PART3;
**END_OF_HEADER*****************************************************************
T51 : TRANSMIT FILE created by modeller version 310028223 SCH_3100282_31001_1300
6215 0 12 34 CCCCCCI4 mesh1006 0 I8 polyline1008 0 CCCCCCCDI5 owner1040 0 CCCCCC
I13 boundary_mesh1006 0 I17 boundary_polyline1008 0 CCCA16 index_map_offset0 0 1
 dA9 index_map82 0 A17 node_id_index_map82 0 A20 schema_embedding_map82 0 A5 chi
ld12 0 A14 lowest_node_id0 0 1 dA16 mesh_offset_data206 0 Z1 3127 2 3 4 0 0 0 0
 0 1e3 1e-8 0 5 0 1 0 1 1 6 7 8 9 0 0 10 11 12 0 0 0 0 0 0 0 81 255 2 2 3073 13
 1 14 0 0 0 0 15 70 11 CI9 list_type0 0 1 uI10 notransmit0 0 1 lCCCDCCDI12 finge
r_index0 0 1 dI12 finger_block1012 0 CZ3 0 4 T1 0 0 8 20 1 16 16 50 255 4 2585 0
 1 17 0 0 +0 0 .003 0 0 1 1 0 0 13 255 6 126 0 1 0 18 0 0 19 0 52 255 7 2843 0 2
0 21 0 0 +.0102624010348456 .005925 .003923009594295025 0 0 1 .0024 .76604444311
8975 .642787609686543 1 0 0 31 255 8 2798 0 11 22 0 0 +.0102624010348456 .005925
 .003041954981558875 0 0 1 1 0 0 .00135 29 255 9 1906 0 12 23 0 -.03269459036841
375 .0098633797778262 0 19 8 CCCCCCCA5 owner12 0 Z10 39 0 1 19 0 24 V0 16 255 11
 2791 0 ?25 0 26 8 0 0 1 18 255 12 1904 0 27 0 28 9 ?1 17 255 27 0 29 30 31 12 3
2 33 0 34 +18 28 827 0 35 12 36 23 ?1 17 35 0 37 38 39 28 40 41 0 42 +18 36 821
 0 43 28 44 45 ?1 29 23 829 0 28 45 9 -.02516095360544795 -.00712382717817443 -.
035 29 45 823 0 36 46 23 -.01455032451752626 .0217281052196153 -.035 29 46 817 0
 44 47 45 .01616835850627585 .02055253471503055 -.035 18 44 815 0 48 36 49 46 ?1
 29 47 811 0 49 50 46 .02454291961669815 -.00902594021076439 -.035 18 49 809 0 5
1 44 52 47 ?1 29 50 581 0 52 53 47 -.001 -.0261308725457073 -.035 18 52 580 0 54
 49 55 50 ?1 29 53 211 0 55 56 50 -.0029 .0180953723365948 -.035 18 55 209 0 57
 52 58 53 ?1 29 56 208 0 58 59 53 -.0029 .0180953723365948 0 18 58 206 0 60 55 6
1 56 ?1 29 59 195 0 61 62 56 .00373658536585366 .0187819176284981 -.035 18 61 19
3 0 63 58 64 59 ?1 29 62 192 0 64 65 59 -.00373658536585366 .0187819176284981 -.
035 18 64 190 0 66 61 67 62 ?1 29 65 186 0 67 68 62 -.00373658536585366 .0187819
176284981 0 18 67 184 0 69 64 70 65 ?1 29 68 178 0 70 71 65 .0029 .0180953723365
948 -.035 18 70 176 0 72 67 73 68 ?1 29 71 175 0 73 74 68 .0029 .018095372336594
8 0 18 73 173 0 75 70 76 71 ?1 29 74 98 0 77 78 71 .0029 .01675082087540785 0 18
 77 88 0 79 80 81 74 ?1 29 78 99 0 81 82 74 -.0029 .01675082087540785 0 18 81 89
 0 83 77 84 78 ?1 29 82 33 0 76 85 78 .0029 .01675082087540785 -.035 18 76 31 0
 86 73 80 82 ?1 29 85 30 0 80 87 82 -.0029 .01675082087540785 -.035 18 80 28 0 8
8 76 77 85 ?1 29 87 520 0 84 89 85 .00373658536585366 .0187819176284981 0 18 84
 385 0 90 81 91 87 ?1 29 89 770 0 91 92 87 .001 -.0261308725457073 -.018 18 91 6
78 0 93 84 94 89 ?1 29 92 771 0 94 95 89 .001 -.0191238725157851 -.018 18 94 690
 0 96 91 97 92 ?1 29 95 772 0 97 98 92 .001 -.0261308725457073 -.035 18 97 682 0
 99 94 100 95 ?1 29 98 773 0 100 101 95 .001 -.0191238725157851 -.035 18 100 680
 0 102 97 103 98 ?1 29 101 774 0 103 104 98 -.001 -.0191238725157851 -.018 18 10
3 677 0 105 100 106 101 ?1 29 104 775 0 106 107 101 -.001 -.0261308725457073 -.0
18 18 106 679 0 108 103 109 104 ?1 29 107 776 0 109 110 104 -.001 -.019123872515
7851 -.035 18 109 691 0 111 106 112 107 ?1 29 110 1548 0 112 113 107 .0251609536
0544805 -.00712382717817408 -.035 18 112 1221 0 114 109 115 110 ?1 29 113 1549 0
 115 116 110 .01849690056731015 -.00495854508934237 -.035 18 115 1217 0 117 112
 118 113 ?1 29 116 1550 0 118 119 113 .02516095360544805 -.00712382717817408 -.0
18 18 118 1206 0 120 115 121 116 ?1 29 119 1551 0 121 122 116 .01849690056731015
 -.00495854508934237 -.018 18 121 1240 0 123 118 124 119 ?1 29 122 1552 0 124 12
5 119 .01787886657856025 -.00686065812193268 -.018 18 124 1205 0 126 121 127 122
 ?1 29 125 1553 0 127 128 122 .02454291961669815 -.00902594021076439 -.018 18 12
7 1209 0 129 124 130 125 ?1 29 128 1554 0 130 131 125 .01787886657856025 -.00686
065812193267 -.035 18 130 1249 0 132 127 133 128 ?1 29 131 1556 0 133 134 128 .0
1455032451752596 .0217281052196155 -.035 18 133 1227 0 135 130 136 131 ?1 29 134
 1557 0 136 137 131 .0104317132371248 .01605932311582265 -.035 18 136 1219 0 138
 133 139 134 ?1 29 137 1558 0 139 140 134 .01455032451752596 .0217281052196155 -
.018 18 139 1208 0 141 136 142 137 ?1 29 140 1559 0 142 143 137 .010431713237124
8 .01605932311582265 -.018 18 142 1241 0 144 139 145 140 ?1 29 143 1560 0 145 14
6 140 .0120497472258747 .0148837526112377 -.035 18 145 1247 0 147 142 148 143 ?1
 29 146 1562 0 148 149 143 .0120497472258747 .0148837526112377 -.018 18 148 1207
 0 150 145 151 146 ?1 29 149 1563 0 151 152 146 .01616835850627585 .020552534715
03055 -.018 18 151 1212 0 153 148 154 149 ?1 29 152 1564 0 154 155 149 -.0161683
5850627615 .02055253471503035 -.035 18 154 1225 0 156 151 157 152 ?1 29 155 1565
 0 157 158 152 -.0120497472258749 .01488375261123752 -.035 18 157 1215 0 159 154
 160 155 ?1 29 158 1566 0 160 161 155 -.01616835850627615 .02055253471503035 -.0
18 18 160 1204 0 162 157 163 158 ?1 29 161 1567 0 163 164 158 -.0120497472258749
 .01488375261123752 -.018 18 163 1242 0 165 160 166 161 ?1 29 164 1568 0 166 167
 161 -.01043171323712502 .0160593231158225 -.035 18 166 1245 0 168 163 169 164 ?
1 29 167 1570 0 169 170 164 -.01043171323712502 .0160593231158225 -.018 18 169 1
203 0 171 166 172 167 ?1 29 170 1571 0 172 173 167 -.01455032451752626 .02172810
52196153 -.018 18 172 1211 0 174 169 175 170 ?1 29 173 1572 0 175 176 170 -.0245
42919616698 -.00902594021076473 -.018 18 175 1202 0 177 172 178 173 ?1 29 176 15
73 0 178 179 173 -.01787886657856015 -.00686065812193292 -.018 18 178 1239 0 180
 175 181 176 ?1 29 179 1574 0 181 182 176 -.024542919616698 -.00902594021076473
 -.035 18 181 1223 0 183 178 184 179 ?1 29 182 1575 0 184 185 179 -.017878866578
56015 -.00686065812193292 -.035 18 184 1213 0 186 181 187 182 ?1 29 185 1576 0 1
87 188 182 -.0184969005673101 -.00495854508934263 -.035 18 187 1243 0 38 184 189
 185 ?1 29 188 1578 0 189 190 185 -.0184969005673101 -.00495854508934262 -.018 1
8 189 1201 0 191 187 192 188 ?1 29 190 1579 0 192 193 188 -.02516095360544795 -.
00712382717817443 -.018 18 192 1210 0 194 189 195 190 ?1 29 193 2459 0 195 196 1
90 -.00780535772943425 .0332460357142858 0 18 195 2111 0 197 192 198 193 ?1 29 1
96 2460 0 198 199 193 .00780535772943425 .0332460357142858 0 18 198 2107 0 200 1
95 201 196 ?1 29 199 2465 0 201 202 196 .03269459036841345 .00986337977782725 0
 18 201 2159 0 203 198 204 199 ?1 29 202 2468 0 204 205 199 .0248892326389789 .0
233826559364584 0 18 204 2163 0 206 201 207 202 ?1 29 205 2471 0 207 208 202 .02
488923263897745 -.02338265593645995 0 18 207 2211 0 209 204 210 205 ?1 29 208 24
74 0 210 211 205 .03269459036841405 -.00986337977782533 0 18 210 2215 0 212 207
 213 208 ?1 29 211 2479 0 213 214 208 .00780535772943802 -.0332460357142849 0 18
 213 2267 0 215 210 216 211 ?1 29 214 2480 0 216 217 211 -.00780535772943795 -.0
332460357142849 0 18 216 2263 0 218 213 219 214 ?1 29 217 2485 0 219 220 214 -.0
2488923263897675 -.02338265593646065 0 18 219 2319 0 221 216 222 217 ?1 29 220 2
486 0 222 223 217 -.0326945903684143 -.00986337977782443 0 18 222 2315 0 224 219
 225 220 ?1 29 223 2490 0 225 0 220 -.0248892326389781 .0233826559364592 0 18 22
5 2367 0 32 222 0 223 ?1 17 32 0 226 34 34 225 27 33 0 227 -15 255 226 2376 0 34
 228 0 17 34 0 226 32 32 12 227 229 0 230 +16 33 2346 0 ?27 231 232 233 0 0 1 17
 227 0 234 235 230 225 34 229 0 31 -15 234 1960 0 236 237 0 17 235 0 234 236 227
 195 31 238 0 0 -17 230 0 234 227 239 12 30 240 0 0 -16 229 1934 0 ?34 241 242 2
43 0 0 1 17 31 0 29 27 244 225 235 238 0 0 +15 29 2007 0 30 245 246 17 244 0 29
 31 247 195 200 231 0 235 +16 238 1911 0 ?31 248 240 249 0 0 1 16 248 1917 0 ?24
7 250 238 251 0 0 1 16 240 1905 0 ?30 238 252 253 0 0 1 31 249 1768 0 238 253 25
1 0 +0 0 0 0 0 1 1 0 0 .03415 31 253 1766 0 240 254 249 0 +0 0 0 0 0 1 1 0 0 .03
415 31 251 1770 0 248 249 255 0 +0 0 0 0 0 1 1 0 0 .03415 31 255 1772 0 250 251
 256 0 +0 0 0 0 0 1 1 0 0 .03415 16 250 1923 0 ?257 258 248 255 0 0 1 31 256 177
4 0 258 255 259 0 +0 0 0 0 0 1 1 0 0 .03415 16 258 1929 0 ?260 261 250 256 0 0 1
 31 259 1777 0 261 256 262 0 +0 0 0 0 0 1 1 0 0 .03415 16 261 1899 0 ?263 242 25
8 259 0 0 1 31 262 1784 0 242 259 243 0 -0 0 -.008 0 0 1 1 0 0 .02615 16 242 178
1 0 ?264 229 261 262 0 0 1 38 12 CCCCCCCCCCCA17 intersection_data204 0 Z243 1936
 0 229 262 265 0 +266 267 268 269 270 271 38 265 1941 0 241 243 272 0 +266 273 2
74 275 276 277 52 266 1859 0 237 278 279 280 -0 0 0 0 0 1 .03415 .70710678118655
2 .707106781186544 1 0 0 51 255 267 2418 0 228 281 273 282 --.03031088913245535
 .0175 -.035 0 0 1 .00800000000000144 1 0 0 40 255 10 268 0 1 10 .00092328444522
9537 .365520065811873 ??-.0248893797138066 .02338279148224085 1999999999993965e-
22 -.0228125361913543 .02028831547187615 -.003620873707748885 -.0223172074948345
5 .01781788972362615 -.00559242754415565 -.02249786811370935 .0157804935124704 -
.00666949699952745 -.02305352094556525 .0141339032990809 -.00710869732325408 -.0
2398945619471735 .01259699218706476 -.00705427670869012 -.0250830104838505 .0114
4448310748914 -.00657947935691897 -.02692838624575175 .01025026385159672 -.00533
67062829023 -.0297739608938763 .00951803858273921 -.002891692211948115 -.0326947
812919183 .00986343937547311 200000000003755e-21 41 3 CI8 term_use0 0 1 cCZ1 269
 L?-.0248893797138066 .02338279148224085 1999999999993965e-22 41 1 270 L?-.03269
47812919183 .00986343937547311 200000000003755e-21 204 2 17 INTERSECTION_DATA17
 Intersection data7 uv_type0 0 1 u6 values0 1 1 fT40 271 4 2.38739464754678 1999
9999999881e-20 .826181427486055 .0350002 2.414693118301485 -.003620873707748885
 .3560123719805845 .0313791262922511 2.46783270043767 -.00559242754415564 .03974
66799179556 .02940757245584435 2.529913147001405 -.00666949699952745 6.066556643
1605 .02833050300047255 2.59160307561907 -.00710869732325408 5.84890008011005 .0
2789130267674595 2.658063055709025 -.00705427670869011 5.62349017962899 .0279457
232913099 2.713541531342645 -.00657947935691897 5.42456816309405 .02842052064308
105 2.777878638469405 -.0053367062829023 5.14893602048199 .0296632937170977 2.83
2183096655165 -.002891692211948115 4.77955550066787 .0321083077880519 2.84859310
843621 19999999999881e-20 4.409806328496935 .0350002 14 255 228 2373 283 ?284 28
5 226 6 267 +0 0 284 285 24 51 281 2421 0 286 287 267 288 -.0303108891324554 .01
75 -.035 0 0 1 .00800000000000034 1 0 0 51 273 2415 0 284 267 289 290 --.0303108
8913245535 -.0175 -.035 0 0 1 .00800000000000336 1 0 0 141 255 282 243 282 282 2
67 14 284 2321 291 ?292 228 293 6 273 +0 0 292 228 24 51 289 2412 0 292 273 294
 295 -3457154206486455e-32 -.035 -.035 0 0 1 .00800000000000385 1 0 0 141 290 26
5 290 290 273 14 292 2269 296 ?297 284 298 6 289 +0 0 297 284 24 51 294 2409 0 2
97 289 299 300 -.0303108891324554 -.0175 -.035 0 0 1 .0080000000000024 1 0 0 141
 295 272 295 295 289 38 272 1946 0 301 265 302 0 +266 289 303 304 305 306 16 301
 1944 0 ?215 307 241 272 0 0 1 38 302 1951 0 307 272 308 0 +266 294 309 310 311
 312 40 10 303 0 1 10 .000923284445229826 .3655200658118785 ??-.007805401578114
 -.0332462308577135 200000000035829e-21 -.00616392850296227 -.0299003936024013 -
.00362087370775003 -.00427214139507386 -.02823621349386625 -.00559242754415748 -
.00241737420920088 -.02737397207369715 -.00666949699952962 -.000713558838854359
 -.0270318864350743 -.00710869732325641 .001085412852086708 -.0270739745811292 -
.00705427670869244 .002630292137658385 -.0274447658361482 -.00657947935692118 .0
0458720423190095 -.0284457984975368 -.00533670628290415 .00664411724008742 -.030
54402579674945 -.00289169221194917 .00780540157811407 -.0332462308577135 2000000
000397195e-22 41 1 304 L?-.007805401578114 -.0332462308577135 200000000035829e-2
1 41 1 305 L?.00780540157811407 -.0332462308577135 2000000000397195e-22 204 40 3
06 4 4.481789749939905 2000000000404435e-22 2.920576529879245 .0350002 4.5090882
2069461 -.00362087370775003 2.45040747437377 .03137912629225 4.56222780283081 -.
00559242754415746 2.13414178231114 .02940757245584255 4.62430824939457 -.0066694
9699952962 1.877766438374105 .0283305030004704 4.68599817801226 -.00710869732325
641 1.66010987532366 .0278913026767436 4.75245815810223 -.00705427670869245 1.43
469997484261 .02794572329130755 4.80793663373587 -.00657947935692118 1.235777958
307682 .02842052064307885 4.87227374086265 -.00533670628290415 .960145815695632
 .02966329371709585 4.92657819904843 -.00289169221194917 .590765295881504 .03210
830778805085 4.94298821082948 2000000000404435e-22 .221016123710549 .0350002 16
 307 1949 0 ?212 313 301 302 0 0 1 38 308 1956 0 313 302 314 0 +266 281 315 316
 317 318 40 10 309 0 1 10 .000923284445229652 .3655200658118745 ??.0248893797138
0595 -.0233827914822416 199999999999405e-21 .0228125361913534 -.0202883154718765
 -.003620873707749345 .0223172074948336 -.0178178897236262 -.00559242754415636 .
0224978681137085 -.0157804935124702 -.00666949699952829 .02305352094556445 -.014
13390329908054 -.00710869732325497 .0239894561947166 -.01259699218706426 -.00705
4276708691 .02508301048384985 -.0114444831074885 -.0065794793569198 .02692838624
57513 -.01025026385159594 -.00533670628290298 .0297739608938762 -.00951803858273
833 -.00289169221194847 .03269478129191855 -.00986343937547224 1999999999986405e
-22 41 1 310 L?.02488937971380595 -.0233827914822416 199999999999405e-21 41 1 31
1 L?.03269478129191855 -.00986343937547224 1999999999986405e-22 204 40 312 4 5.5
2898730113654 19999999999881e-20 3.96777408107584 .0350002 5.55628577189125 -.00
3620873707749345 3.497605025570365 .03137912629225065 5.60942535402744 -.0055924
2754415634 3.18133933350774 .02940757245584365 5.67150580059119 -.00666949699952
828 2.9249639895707 .0283305030004717 5.73319572920886 -.00710869732325497 2.707
30742652025 .02789130267674505 5.79965570929883 -.007054276708691 2.481897526039
195 .027945723291309 5.85513418493245 -.0065794793569198 2.282975509504265 .0284
205206430802 5.91947129205922 -.00533670628290298 2.007343366892205 .02966329371
709705 5.97377575024498 -.00289169221194847 1.63796284707808 .03210830778805155
 5.99018576202603 19999999999881e-20 1.26821367490715 .0350002 16 313 1954 0 ?20
6 319 307 308 0 0 1 38 314 1961 0 319 308 320 0 +266 287 321 322 323 324 40 10 3
15 0 1 10 .000923284445229406 .36552006581187 ??.032694781291918 .00986343937547
416 2e-7 .02897646469431505 .0096120781305277 -.003620873707748325 .026589348889
9078 .01041832377024304 -.00559242754415477 .0249152423229104 .0115934785612298
 -.00666949699952639 .0237670797844203 .01289798313599634 -.00710869732325295 .0
229040433426319 .01447698239406724 -.00705427670868898 .02245271834619385 .01600
028272866165 -.00657947935691788 .02234118201385315 .01819553464594215 -.0053367
0628290138 .02312984365379185 .0210259872140113 -.00289169221194755 .02488937971
38074 .02338279148224005 2000000000043465e-22 41 1 316 L?.032694781291918 .00986
343937547416 2e-7 41 1 317 L?.0248893797138074 .02338279148224005 20000000000434
65e-22 204 40 318 4 .2929995451536135 19999999999881e-20 5.01497163227244 .03500
02 .320298015908319 -.00362087370774833 4.54480257676697 .0313791262922517 .3734
37598044497 -.00559242754415475 4.228536884704345 .02940757245584525 .4355180446
08225 -.00666949699952639 3.972161540767305 .0283305030004736 .497207973225879 -
.00710869732325295 3.754504977716845 .02789130267674705 .563667953315825 -.00705
427670868898 3.52909507723578 .027945723291311 .619146428949434 -.00657947935691
789 3.33017306070084 .0284205206430821 .683483536076181 -.00533670628290138 3.05
4540918088775 .02966329371709865 .737787994261936 -.002891692211947555 2.6851603
9827465 .03210830778805245 .754198006042982 19999999999881e-20 2.31541122610374
 .0350002 16 319 1959 0 ?197 325 313 314 0 0 1 31 320 2766 0 325 314 326 0 --.01
02624010348456 .005925 .003923009594295025 0 0 1 1 0 0 .0024 51 287 2424 0 327 3
28 281 329 -0 .035 -.035 0 0 1 .008 1 0 0 40 10 321 0 1 10 .000923284445229367 .
3655200658118705 ??.0078054015781103 .0332462308577144 200000000035829e-21 .0061
6392850295944 .0299003936024038 -.00362087370774814 .00427214139507199 .02823621
34938695 -.00559242754415451 .00241737420919983 .0273739720737008 -.006669496999
5261 .000713558838854001 .02703188643507805 -.00710869732325264 -.00108541285208
6316 .027073974581133 -.00705427670868868 -.002630292137657375 .0274447658361519
 -.00657947935691761 -.00458720423189905 .0284457984975401 -.00533670628290116 -
.0066441172400844 .03054402579675185 -.002891692211947465 -.0078054015781103 .03
32462308577144 2000000000388525e-22 41 1 322 L?.0078054015781103 .03324623085771
44 200000000035829e-21 41 1 323 L?-.0078054015781103 .0332462308577144 200000000
0388525e-22 204 40 324 4 1.340197096350222 2000000000404435e-22 6.06216918346905
 .0350002 1.367495567104926 -.00362087370774814 5.59200012796358 .03137912629225
185 1.420635149241102 -.00559242754415449 5.27573443590095 .0294075724558455 1.4
82715595804828 -.0066694969995261 5.01935909196391 .0283305030004739 1.544405524
42248 -.00710869732325265 4.80170252891345 .02789130267674735 1.61086550451242 -
.00705427670868868 4.57629262843238 .0279457232913113 1.66634398014603 -.0065794
7935691761 4.37737061189744 .0284205206430824 1.730681087272775 -.00533670628290
116 4.101738469285375 .02966329371709885 1.784985545458525 -.00289169221194747 3
.73235794947125 .03210830778805255 1.80139555723957 2000000000404435e-22 3.36260
877730033 .0350002 14 327 2113 330 ?331 286 332 6 287 +0 0 331 286 24 51 328 270
9 0 331 333 287 0 +446996081688784e-33 -.01185 -.00678822509939085 0 0 1 .0024 1
 0 0 141 329 314 329 329 287 14 331 2690 334 ?335 327 336 6 328 -0 0 335 327 24
 51 333 2712 0 335 337 328 0 +.0102624010348456 .005925 -.00678822509939085 0 0
 1 .0024 1 0 0 14 335 2664 338 ?339 331 340 6 333 -0 0 339 331 24 51 337 2715 0
 339 0 333 0 +-.0102624010348456 .005925 -.00678822509939085 0 0 1 .0024 1 0 0 1
4 339 2638 341 ?342 335 343 6 337 -0 0 342 335 24 81 1 341 3080 344 339 345 0 33
8 346 347 14 342 2810 346 ?348 339 349 6 279 -0 0 348 339 24 15 343 2764 0 350 3
39 351 13 24 40 0 0 0 0 0 0 10 18 14 18 2623 352 ?353 0 354 6 355 +0 0 353 0 24
 81 1 352 3082 344 18 356 0 346 357 358 14 353 2617 357 ?359 18 360 6 361 +0 0 3
59 18 24 15 354 2782 0 362 18 363 51 355 490 0 18 364 361 0 --.0102624010348456
 .005925 .006 0 0 -1 .00135 -1 0 0 51 364 491 0 365 366 355 0 -0 0 .006 0 0 -1 .
0082 -1 0 0 51 361 489 0 353 355 367 0 -.0102624010348456 .005925 .006 0 0 -1 .0
0135 -1 0 0 51 367 488 0 359 361 368 0 -446996081688784e-33 -.01185 .006 0 0 -1
 .00135 -1 0 0 14 359 2611 369 ?370 353 371 6 367 +0 0 370 353 24 51 368 487 0 3
72 367 373 0 -0 0 .006 0 0 -1 .0425 -1 0 0 14 372 414 374 ?365 375 376 6 368 -0
 0 365 375 24 51 373 486 0 370 368 377 0 --.03031088913245535 .0175 .006 0 0 -1
 .003000000000000445 -1 0 0 14 370 2083 378 ?379 359 380 6 373 +0 0 379 359 24 5
1 377 485 0 379 373 381 0 --.03031088913245535 -.0175 .006 0 0 -1 .0030000000000
02345 -1 0 0 14 379 2079 382 ?383 370 384 6 377 +0 0 383 370 24 51 381 484 0 383
 377 385 0 -428626379701611e-32 -.035 .006 0 0 -1 .003000000000003795 -1 0 0 14
 383 2075 386 ?387 379 388 6 381 +0 0 387 379 24 51 385 483 0 387 381 389 0 -.03
031088913245535 -.0175 .006 0 0 -1 .003000000000003345 -1 0 0 14 387 2071 390 ?3
91 383 392 6 385 +0 0 391 383 24 51 389 482 0 391 385 393 0 -.03031088913245535
 .0175 .006 0 0 -1 .003000000000001455 -1 0 0 14 391 2067 394 ?395 387 396 6 389
 +0 0 395 387 24 51 393 481 0 395 389 397 0 -0 .035 .006 0 0 -1 .003 -1 0 0 14 3
95 2063 398 ?237 391 399 6 393 +0 0 237 391 24 50 397 2 0 400 393 401 0 +0 0 -.0
35 0 0 1 1 0 0 14 400 1 402 ?403 404 405 6 397 -406 407 403 404 24 51 401 117 0
 404 397 408 0 +0 0 -.035 0 0 1 .02615 1 0 0 14 404 106 409 ?400 410 411 6 401 +
0 0 400 410 24 50 408 118 0 412 401 413 0 +.0029 577358975174521e-33 -.035 -1 -1
990893017843175e-31 0 1990893017843175e-31 -1 0 14 412 110 414 ?415 416 417 6 40
8 -0 0 415 416 24 51 413 119 0 415 408 418 0 +0 0 -.035 0 0 1 .017 1 0 0 14 415
 112 419 ?410 412 420 6 413 -0 0 410 412 24 50 418 120 0 410 413 421 0 +-.0029 5
77358975174521e-33 -.035 -1 1990893017843175e-31 0 -1990893017843175e-31 -1 0 14
 410 114 422 ?404 415 423 6 418 +0 0 404 415 24 51 421 121 0 416 418 424 0 +0 0
 -.035 0 0 1 .01915 1 0 0 14 416 116 425 ?412 407 426 6 421 -0 0 412 407 24 51 4
24 266 0 403 421 278 0 +.0036 .0180953723365948 -.035 0 0 1 7e-4 1 0 0 14 403 25
4 427 ?428 400 429 6 424 -0 0 428 400 24 51 278 287 0 428 424 266 0 +-.0036 .018
0953723365948 -.035 0 0 1 7e-4 1 0 0 14 428 275 430 ?375 403 431 6 278 -0 0 375
 403 24 81 1 430 3099 344 428 432 0 427 433 434 14 375 386 433 ?372 428 435 6 36
6 -245 245 372 428 24 15 431 276 0 436 428 0 17 436 0 431 437 438 55 66 439 0 0
 -17 437 0 431 69 436 58 57 440 0 441 -17 438 0 431 436 69 64 442 443 0 0 -17 66
 0 444 445 446 64 436 439 0 447 +16 439 232 0 ?66 448 449 450 0 0 1 16 448 585 0
 ?451 452 439 453 0 0 1 16 449 227 0 ?441 439 454 455 0 0 1 31 450 240 0 439 455
 453 0 +-.0036 .0180953723365948 -.035 0 0 1 1 0 0 7e-4 31 455 239 0 449 456 450
 0 --.0036 .0180953723365948 0 0 0 1 1 0 0 7e-4 30 255 453 586 0 448 450 457 0 +
-.001 252113602381561e-33 -.035 -252113602381562e-30 -1 0 30 457 589 0 452 453 4
58 0 +.001 0 -.035 0 1 0 16 452 587 0 ?459 460 448 457 0 0 1 31 458 599 0 460 45
7 461 0 -0 0 -.018 0 0 1 1 0 0 .02615 16 460 597 0 ?108 462 452 458 0 0 1 30 461
 859 0 462 458 463 0 +-.000309016994374957 .000951056516295147 -.035 -.951056516
29515 -.309016994374958 0 16 462 857 0 ?42 464 460 461 0 0 1 30 463 865 0 464 46
1 465 0 +.000309016994374957 -.000951056516295146 -.035 .95105651629515 .3090169
94374958 0 16 464 863 0 ?466 467 462 463 0 0 1 30 465 871 0 467 463 468 0 +.0008
0901699437494 .000587785252292479 -.035 -.58778525229248 .809016994374943 0 16 4
67 869 0 ?469 470 464 465 0 0 1 30 468 877 0 470 465 471 0 +-.000809016994374939
 -.000587785252292478 -.035 .58778525229248 -.809016994374942 0 16 470 875 0 ?47
2 473 467 468 0 0 1 30 471 883 0 473 468 474 0 +.000809016994374949 -.0005877852
52292467 -.035 .587785252292469 .809016994374951 0 16 473 881 0 ?475 476 470 471
 0 0 1 30 474 889 0 476 471 477 0 +-.000809016994374947 .000587785252292466 -.03
5 -.587785252292469 -.809016994374951 0 16 476 887 0 ?478 479 473 474 0 0 1 30 4
77 895 0 479 474 480 0 +-.0003090169943749445 -.000951056516295154 -.035 .951056
516295154 -.309016994374945 0 16 479 893 0 ?481 482 476 477 0 0 1 30 480 901 0 4
82 477 254 0 +.000309016994374943 .000951056516295149 -.035 -.951056516295155 .3
09016994374945 0 16 482 899 0 ?483 484 479 480 0 0 1 31 254 911 0 484 480 253 0
 -0 0 -.018 0 0 1 1 0 0 .02615 16 484 909 0 ?194 485 482 254 252 485 1 17 194 0
 486 487 488 192 489 484 0 39 +16 485 920 0 ?174 490 484 254 484 490 1 16 252 94
0 0 ?129 240 490 254 490 484 1 17 129 0 491 492 493 127 494 252 0 495 +16 490 93
0 0 ?153 252 485 254 485 252 1 17 153 0 496 497 498 151 499 490 0 500 +15 496 12
80 0 498 501 0 17 497 0 496 144 153 148 500 502 0 503 +17 498 0 496 153 144 139
 504 505 0 499 +17 499 0 506 507 508 139 153 490 0 0 -17 500 0 509 48 150 151 49
7 502 0 508 -15 509 1380 0 500 510 0 17 48 0 509 147 500 44 508 511 0 475 +17 15
0 0 509 500 147 148 512 513 0 497 -16 502 1087 0 ?497 514 505 515 0 0 1 17 508 0
 506 499 516 151 48 511 0 0 -15 506 944 0 517 404 0 17 516 0 506 508 517 44 518
 519 0 0 +16 511 1094 0 ?48 513 520 521 0 0 1 16 513 1090 0 ?512 522 511 523 0 0
 1 16 520 1095 0 ?524 511 525 526 0 0 1 30 521 1503 0 511 526 523 0 -.0161683585
0627585 .02055253471503055 -.035 0 0 1 30 526 1504 0 520 527 521 0 +-.0120497472
258749 .01488375261123752 -.035 0 0 1 30 523 1502 0 513 521 528 0 -.012049747225
8747 .0148837526112377 -.035 0 0 1 30 528 1501 0 522 523 529 0 +.014550324517525
96 .0217281052196155 -.035 0 0 1 16 522 1082 0 ?141 530 513 528 0 0 1 30 529 150
0 0 530 528 531 0 +.0104317132371248 .01605932311582265 -.035 0 0 1 16 530 1078
 0 ?532 533 522 529 0 0 1 30 531 1499 0 533 529 534 0 -.02454291961669815 -.0090
2594021076439 -.035 0 0 1 16 533 1077 0 ?51 535 530 531 0 0 1 30 534 1498 0 535
 531 536 0 -.01787886657856025 -.00686065812193268 -.035 0 0 1 16 535 1073 0 ?53
7 538 533 534 0 0 1 30 536 1497 0 538 534 539 0 +.02516095360544805 -.0071238271
7817408 -.035 0 0 1 16 538 1065 0 ?120 540 535 536 0 0 1 30 539 1496 0 540 536 5
41 0 +.01849690056731015 -.00495854508934237 -.035 0 0 1 16 540 1061 0 ?542 543
 538 539 0 0 1 31 541 1493 0 543 539 544 0 -0 0 -.018 0 0 1 1 0 0 .01915 16 543
 992 0 ?503 545 540 541 546 545 1 30 544 769 0 547 541 548 0 +.001 -.02752288586
716375 -.018 0 -1 0 16 547 636 0 ?549 550 546 544 0 0 1 30 548 767 0 550 544 551
 0 +-.001 -.02752288586716375 -.018 252113602381562e-30 1 0 16 550 644 0 ?552 55
3 547 548 0 0 1 30 551 757 0 553 548 554 0 --.001 -.0261308725457073 -.035 0 0 1
 16 553 651 0 ?555 556 550 551 0 0 1 30 554 756 0 556 551 557 0 --.001 -.0191238
725157851 -.035 0 0 1 16 556 647 0 ?558 559 553 554 0 0 1 30 557 755 0 559 554 5
60 0 +.001 -.0261308725457073 -.035 0 0 1 16 559 639 0 ?93 561 556 557 0 0 1 30
 560 754 0 561 557 562 0 +.001 -.0191238725157851 -.035 0 0 1 16 561 635 0 ?563
 564 559 560 0 0 1 31 562 751 0 564 560 565 0 -0 0 -.018 0 0 1 1 0 0 .01915 16 5
64 617 0 ?566 567 561 562 0 0 1 31 565 515 0 568 562 569 0 +0 .035 .006 0 0 1 1
 0 0 .003 16 568 352 0 ?570 571 572 565 0 0 1 31 569 514 0 571 565 573 0 +.03031
088913245535 .0175 .006 0 0 1 1 0 0 .003000000000001455 16 571 349 0 ?574 575 56
8 569 0 0 1 31 573 513 0 575 569 576 0 +.03031088913245535 -.0175 .006 0 0 1 1 0
 0 .003000000000003345 16 575 346 0 ?577 578 571 573 0 0 1 31 576 512 0 578 573
 579 0 +428626379701611e-32 -.035 .006 0 0 1 1 0 0 .003000000000003795 16 578 34
3 0 ?580 581 575 576 0 0 1 31 579 511 0 581 576 582 0 +-.03031088913245535 -.017
5 .006 0 0 1 1 0 0 .003000000000002345 16 581 340 0 ?583 584 578 579 0 0 1 31 58
2 510 0 584 579 585 0 +-.03031088913245535 .0175 .006 0 0 1 1 0 0 .0030000000000
00445 16 584 337 0 ?586 587 581 582 0 0 1 31 585 509 0 587 582 588 0 +0 0 .006 0
 0 1 1 0 0 .0425 16 587 358 0 ?589 590 584 585 0 0 1 31 588 505 0 590 585 591 0
 +0 0 .006 0 0 1 1 0 0 .0082 16 590 355 0 ?592 593 587 588 0 0 1 31 591 504 0 56
7 588 594 0 +0 .035 0 0 0 1 1 0 0 .003 16 567 1738 0 ?595 596 564 591 0 0 1 31 5
94 503 0 596 591 597 0 +.03031088913245535 .0175 0 0 0 1 1 0 0 .0030000000000014
55 16 596 1743 0 ?598 599 567 594 0 0 1 31 597 502 0 599 594 600 0 +.03031088913
245535 -.0175 0 0 0 1 1 0 0 .003000000000003345 16 599 1748 0 ?601 602 596 597 0
 0 1 31 600 501 0 602 597 603 0 +428626379701611e-32 -.035 0 0 0 1 1 0 0 .003000
000000003795 16 602 1753 0 ?604 605 599 600 0 0 1 31 603 500 0 605 600 606 0 +-.
03031088913245535 -.0175 0 0 0 1 1 0 0 .003000000000002345 16 605 374 0 ?607 608
 602 603 0 0 1 31 606 499 0 608 603 609 0 +-.03031088913245535 .0175 0 0 0 1 1 0
 0 .003000000000000445 16 608 377 0 ?610 611 605 606 0 0 1 31 609 498 0 611 606
 612 0 +0 0 0 0 0 1 1 0 0 .0425 16 611 334 0 ?613 614 608 609 0 0 1 31 612 497 0
 614 609 615 0 +446996081688784e-33 -.01185 0 0 0 1 1 0 0 .00135 16 614 307 0 ?6
16 617 611 612 0 0 1 31 615 496 0 617 612 618 0 +.0102624010348456 .005925 0 0 0
 1 1 0 0 .00135 16 617 310 0 ?619 620 614 615 0 0 1 31 618 495 0 620 615 621 0 +
-.0102624010348456 .005925 0 0 0 1 1 0 0 .00135 16 620 313 0 ?622 572 617 618 0
 0 1 31 621 494 0 572 618 623 0 +0 0 0 0 0 1 1 0 0 .0082 16 572 316 0 ?624 568 6
20 621 0 0 1 31 623 6 0 625 621 626 0 +0 0 -.035 0 0 1 1 0 0 .01915 16 625 191 0
 ?445 627 628 623 629 630 1 30 626 10 0 627 623 631 0 +-.0029 577358975174521e-3
3 -.035 -1990893017843175e-31 -1 0 16 627 210 0 ?88 632 625 626 0 0 1 31 631 14
 0 632 626 633 0 +0 0 -.035 0 0 1 1 0 0 .017 16 632 13 0 ?634 635 627 631 0 0 1
 30 633 18 0 635 631 636 0 +.0029 577358975174521e-33 -.035 1990893017843175e-31
 -1 0 16 635 177 0 ?86 637 632 633 0 0 1 31 636 22 0 638 633 639 0 +0 0 -.035 0
 0 1 1 0 0 .02615 16 638 583 0 ?640 641 519 636 637 519 1 31 639 96 0 593 636 64
2 0 +0 0 0 0 0 1 1 0 0 .01915 16 593 185 0 ?643 644 590 639 0 0 1 30 642 95 0 64
4 639 645 0 +-.0029 577358975174521e-33 0 -1990893017843175e-31 -1 0 16 644 207
 0 ?646 647 593 642 0 0 1 31 645 94 0 647 642 648 0 +0 0 0 0 0 1 1 0 0 .017 16 6
47 72 0 ?649 650 644 645 0 0 1 30 648 93 0 650 645 651 0 +.0029 577358975174521e
-33 0 1990893017843175e-31 -1 0 16 650 174 0 ?79 652 647 648 0 0 1 30 651 123 0
 653 648 654 0 +.0029 .01675082087540785 -.035 0 0 1 16 653 102 0 ?655 656 641 6
51 0 0 1 30 654 124 0 641 651 657 0 +-.0029 .01675082087540785 -.035 0 0 1 16 64
1 103 0 ?83 653 638 654 0 0 1 30 657 181 0 656 654 658 0 -.0029 .018095372336594
8 0 0 0 -1 16 656 179 0 ?659 443 653 657 0 0 1 30 658 198 0 443 657 660 0 +-.003
73658536585366 .0187819176284981 -.035 0 0 1 16 443 196 0 ?442 661 656 658 0 0 1
 30 660 203 0 661 658 662 0 -.00373658536585366 .0187819176284981 -.035 0 0 1 16
 661 201 0 ?663 440 443 660 0 0 1 30 662 214 0 440 660 664 0 --.0029 .0180953723
365948 -.035 0 0 1 16 440 212 0 ?57 665 661 662 0 0 1 31 664 237 0 665 662 456 0
 -.0036 .0180953723365948 0 0 0 1 1 0 0 7e-4 16 665 217 0 ?666 454 440 664 0 0 1
 31 456 238 0 454 664 455 0 +.0036 .0180953723365948 -.035 0 0 1 1 0 0 7e-4 16 4
54 222 0 ?72 449 665 456 0 0 1 17 72 0 444 86 63 70 667 454 0 668 +15 444 882 0
 669 670 0 17 86 0 444 634 72 76 668 635 0 671 +17 63 0 444 72 478 61 672 652 0
 663 +17 667 0 429 90 673 61 72 454 0 0 -17 668 0 417 659 671 70 86 635 0 673 -1
5 417 109 0 668 412 0 17 659 0 417 79 668 73 673 656 0 674 +17 671 0 417 668 79
 76 655 653 0 675 -17 673 0 429 667 75 70 659 656 0 0 -15 429 255 0 667 403 0 17
 75 0 429 673 90 73 666 665 0 659 -17 90 0 429 75 667 84 663 661 0 643 -17 666 0
 676 677 674 84 75 665 0 0 +15 676 393 0 677 375 0 17 677 0 676 441 666 67 643 5
93 0 0 -17 674 0 676 666 678 73 79 650 0 0 -17 678 0 676 674 646 77 649 647 0 0
 -17 79 0 417 671 659 77 674 650 0 655 +17 655 0 420 649 675 77 671 653 0 678 +1
5 420 111 0 649 415 0 17 649 0 420 679 655 81 678 647 0 646 +17 675 0 420 655 67
9 76 634 632 0 0 -17 679 0 420 675 649 80 83 641 0 0 -17 634 0 444 446 86 80 675
 632 0 679 +17 446 0 444 66 634 55 88 627 0 436 -17 88 0 423 83 57 80 446 627 0
 634 +15 423 113 0 60 410 0 17 83 0 423 60 88 81 679 641 0 649 +17 57 0 423 88 6
0 55 437 440 0 446 +17 60 0 423 57 83 58 646 644 0 437 -17 646 0 676 678 441 81
 60 644 0 0 +17 441 0 676 646 677 58 69 449 0 0 +17 69 0 431 438 437 67 441 449
 0 442 -17 442 0 426 643 447 67 438 443 0 677 +15 426 978 0 680 416 0 17 643 0 4
26 663 442 84 677 593 0 666 +17 447 0 426 442 681 64 445 625 0 438 -17 681 0 426
 447 682 166 171 683 0 445 +17 445 0 444 469 66 166 447 625 0 0 +17 469 0 444 66
9 445 36 168 467 0 684 +17 669 0 444 478 469 133 684 685 0 0 -17 168 0 686 171 4
3 166 469 467 0 681 -17 684 0 506 687 507 36 669 685 0 0 +17 687 0 506 688 684 1
72 43 689 0 0 -17 507 0 506 684 499 133 141 522 0 669 -16 685 819 0 ?684 519 690
 636 519 690 1 16 519 813 0 ?516 638 685 636 638 685 1 16 690 825 0 ?691 685 637
 636 685 637 1 17 691 0 506 40 692 28 693 690 0 0 +16 637 831 0 ?54 690 635 636
 690 638 1 17 54 0 506 694 695 52 696 637 0 555 +17 694 0 506 697 54 106 555 553
 0 0 -17 695 0 506 54 489 181 177 698 0 696 -17 696 0 699 466 451 181 54 637 0 0
 -17 555 0 700 701 702 52 694 553 0 451 +15 700 716 0 702 703 0 17 701 0 700 105
 555 109 451 448 0 558 -17 702 0 700 555 105 106 552 550 0 694 -17 451 0 699 696
 111 52 701 448 0 0 +15 699 858 0 696 407 0 17 111 0 699 451 466 109 704 629 0 7
01 +17 466 0 699 111 696 184 183 464 0 704 +17 704 0 426 705 558 184 111 629 0 0
 -16 629 855 0 ?111 628 630 623 628 625 1 16 628 849 0 ?706 625 629 623 652 629
 1 16 630 578 0 ?707 629 708 623 625 708 1 17 707 0 405 481 459 130 709 630 0 0
 +16 708 837 0 ?710 630 652 623 630 652 1 17 710 0 711 475 483 145 680 708 0 0 +
16 652 843 0 ?63 708 650 623 708 628 1 15 711 894 0 518 406 0 17 475 0 711 518 7
10 44 147 473 0 516 +17 483 0 711 710 518 115 114 482 0 680 +17 680 0 426 542 51
2 115 710 708 0 0 -17 542 0 426 712 680 121 117 540 0 0 +17 512 0 426 680 503 14
5 150 513 0 710 +17 503 0 426 512 532 148 144 543 0 0 +17 532 0 426 503 672 142
 138 530 0 0 +17 144 0 496 498 497 142 503 543 0 504 -17 504 0 713 138 141 142 4
98 505 0 532 -15 713 1372 0 135 714 0 17 138 0 713 135 504 136 532 530 0 478 -17
 141 0 713 504 135 139 507 522 0 498 +16 505 1079 0 ?498 502 715 716 0 0 1 16 71
5 1104 0 ?717 505 718 719 0 0 1 30 716 1530 0 505 719 515 0 +.0153685294188727 .
0228542676530701 -.018 .587785252292469 .809016994374951 0 30 719 1537 0 715 720
 716 0 +-.01536852941887305 .02285426765306985 -.018 .58778525229248 -.809016994
374942 0 30 515 1528 0 502 716 721 0 +.0169865634076226 .02167869714848515 -.018
 -.587785252292469 -.809016994374951 0 30 721 1519 0 514 515 722 0 +.02648483694
558885 -.00755398295090044 -.018 .951056516295155 -.309016994374945 0 16 514 106
2 0 ?493 723 502 721 0 0 1 30 722 1517 0 723 721 724 0 +.02586680295683895 -.009
45609598349074 -.018 -.951056516295155 .309016994374945 0 16 723 1070 0 ?492 41
 514 722 0 0 1 30 724 1511 0 41 722 725 0 --.02516095360544795 -.007123827178174
43 -.035 0 0 1 16 41 1128 0 ?35 726 723 724 0 0 1 30 725 1510 0 726 724 727 0 --
.0184969005673101 -.00495854508934262 -.035 0 0 1 16 726 1124 0 ?728 698 41 725
 0 0 1 30 727 1509 0 698 725 729 0 +-.024542919616698 -.00902594021076473 -.035
 0 0 1 16 698 1116 0 ?177 730 726 727 0 0 1 30 729 1508 0 730 727 731 0 +-.01787
886657856015 -.00686065812193292 -.035 0 0 1 16 730 1112 0 ?705 689 698 729 0 0
 1 30 731 1507 0 689 729 732 0 --.01455032451752626 .0217281052196153 -.035 0 0
 1 16 689 1111 0 ?43 683 730 731 0 0 1 30 732 1506 0 683 731 527 0 --.0104317132
3712502 .0160593231158225 -.035 0 0 1 16 683 1107 0 ?681 525 689 732 0 0 1 30 52
7 1505 0 525 732 526 0 +-.01616835850627615 .02055253471503035 -.035 0 0 1 16 52
5 1099 0 ?162 520 683 527 0 0 1 17 162 0 733 734 156 160 692 525 0 735 +15 733 1
388 0 156 736 0 17 734 0 733 159 162 163 735 718 0 524 -17 156 0 733 162 159 154
 472 470 0 692 -17 692 0 506 691 688 154 162 525 0 693 -17 735 0 737 174 165 160
 734 718 0 688 +15 737 1268 0 735 738 0 17 174 0 737 717 735 172 688 485 0 739 +
17 165 0 737 735 717 163 682 740 0 734 -16 718 1096 0 ?735 715 741 720 0 0 1 17
 688 0 506 692 687 160 174 485 0 0 -16 741 1121 0 ?487 718 742 743 0 0 1 30 720
 1539 0 718 743 719 0 +-.0169865634076229 .0216786971484849 -.018 -.587785252292
48 .809016994374942 0 30 743 1545 0 741 744 720 0 +-.02648483694558875 -.0075539
829509008 -.018 .95105651629515 .309016994374958 0 30 744 1547 0 742 745 743 0 +
-.0258668029568388 -.0094560959834911 -.018 -.95105651629515 -.309016994374958 0
 16 742 1113 0 ?488 741 231 744 0 0 1 31 745 2445 0 746 747 744 0 +.030310889132
4554 -.0175 0 0 0 -1 -1 0 0 .0080000000000024 16 746 2190 0 ?748 749 750 745 0 0
 1 31 747 2447 0 749 751 745 0 +3457154206486455e-32 -.035 0 0 0 -1 -1 0 0 .0080
0000000000385 16 749 2242 0 ?752 232 746 747 0 0 1 31 751 2449 0 232 233 747 0 +
-.03031088913245535 -.0175 0 0 0 -1 -1 0 0 .00800000000000336 16 232 2294 0 ?753
 33 749 751 0 0 1 31 233 2451 0 33 754 751 0 +-.03031088913245535 .0175 0 0 0 -1
 -1 0 0 .00800000000000144 31 754 2453 0 750 755 233 0 +.0303108891324554 .0175
 0 0 0 -1 -1 0 0 .00800000000000034 16 750 2138 0 ?756 746 757 754 0 0 1 31 755
 2455 0 231 758 754 0 +0 .035 0 0 0 -1 -1 0 0 .008 16 231 2086 0 ?244 742 33 755
 0 0 1 31 758 2722 0 759 760 755 0 +446996081688784e-33 -.01185 .006 0 0 1 1 0 0
 .0024 16 759 2679 0 ?761 762 0 758 0 0 1 31 760 2724 0 762 763 758 0 +.01026240
10348456 .005925 .006 0 0 1 1 0 0 .0024 16 762 2653 0 ?764 757 759 760 0 0 1 31
 763 2726 0 757 0 760 0 +-.0102624010348456 .005925 .006 0 0 1 1 0 0 .0024 16 75
7 2627 0 ?765 750 762 763 0 0 1 17 765 0 351 765 765 0 766 757 0 0 +15 351 2642
 0 765 339 0 17 766 0 767 766 766 0 765 757 0 0 -15 767 2602 0 766 768 769 14 76
8 454 770 ?245 365 767 6 771 +0 0 245 365 24 15 769 2595 0 772 768 773 17 772 0
 769 772 772 0 764 762 0 0 -15 773 2588 0 774 768 775 17 774 0 773 774 774 0 761
 759 0 0 -15 775 457 0 776 768 777 17 776 0 775 776 776 0 570 568 0 0 -15 777 45
8 0 778 768 779 17 778 0 777 778 778 0 574 571 0 0 -15 779 459 0 780 768 781 17
 780 0 779 780 780 0 577 575 0 0 -15 781 460 0 782 768 783 17 782 0 781 782 782
 0 580 578 0 0 -15 783 461 0 784 768 785 17 784 0 783 784 784 0 583 581 0 0 -15
 785 462 0 786 768 787 17 786 0 785 786 786 0 586 584 0 0 -15 787 463 0 589 768
 788 17 589 0 787 589 589 0 789 587 0 0 +15 788 467 0 790 768 0 17 790 0 788 790
 790 0 592 590 0 0 -17 592 0 791 592 592 0 790 590 0 0 +15 791 452 0 592 365 792
 14 365 449 793 ?768 372 791 6 364 +0 0 768 372 24 15 792 453 0 794 365 0 17 794
 0 792 794 794 0 624 572 0 0 -17 624 0 795 624 624 0 794 572 0 0 +15 795 392 0 6
24 375 676 81 1 793 3102 344 365 796 0 770 797 798 80 255 1 344 799 800 9000 1 1
 1 1 1 1 1 1 0 FFFFTFTFFFFFFF1 81 1 796 2913 801 365 0 793 802 803 804 81 1 770
 3101 344 768 803 0 433 793 805 81 1 797 3103 344 245 806 0 793 807 808 82 255 1
 798 -1855258166 14 245 468 797 ?809 768 810 6 366 -375 375 809 768 24 81 1 806
 2915 801 245 0 797 803 811 812 81 1 807 3104 344 809 811 0 797 813 814 82 1 808
 156566018 14 809 693 807 ?815 245 816 6 817 -0 0 815 245 24 81 1 811 2916 801 8
09 0 807 806 818 819 81 1 813 3105 344 815 818 0 807 820 821 82 1 814 -180191186
0 14 815 705 813 ?703 809 822 6 823 -0 0 703 809 24 81 1 818 2917 801 815 0 813
 811 824 825 81 1 820 3106 344 703 824 0 813 826 827 82 1 821 -1804926516 14 703
 713 820 ?828 815 700 6 829 -0 0 828 815 24 81 1 824 2918 801 703 0 820 818 830
 831 81 1 826 3107 344 828 830 0 820 832 833 82 1 827 -1807810100 14 828 1409 82
6 ?834 703 37 6 299 -0 0 834 703 24 81 1 830 2919 801 828 0 826 824 835 836 81 1
 832 3108 344 834 835 0 826 837 838 82 1 833 -1658584627 14 834 1401 832 ?839 82
8 840 6 841 -0 0 839 828 24 81 1 835 2920 801 834 0 832 830 842 843 81 1 837 310
9 344 839 842 0 832 844 845 82 1 838 -1655701043 14 839 1257 837 ?846 834 486 6
 847 -738 501 846 834 24 81 1 842 2921 801 839 0 837 835 848 849 81 1 844 3110 3
44 846 848 0 837 850 851 82 1 845 -1624571443 14 846 1393 844 ?736 839 686 6 852
 -0 0 736 839 24 81 1 848 2922 801 846 0 844 842 853 854 81 1 850 3111 344 736 8
53 0 844 855 856 82 1 851 -1652817459 14 736 1385 850 ?738 846 733 6 857 -0 0 73
8 846 24 81 1 853 2923 801 736 0 850 848 858 859 81 1 855 3112 344 738 858 0 850
 860 861 82 1 856 -1649933875 14 738 1263 855 ?510 736 737 6 847 -862 839 510 73
6 24 81 1 858 2924 801 738 0 855 853 863 864 81 1 860 3113 344 510 863 0 855 865
 866 82 1 861 -1625161267 14 510 1377 860 ?714 738 509 6 867 -0 0 714 738 24 81
 1 863 2925 801 510 0 860 858 868 869 81 1 865 3114 344 714 868 0 860 870 871 82
 1 866 -1647050291 14 714 1369 865 ?501 510 713 6 872 -0 0 501 510 24 81 1 868 2
926 801 714 0 865 863 873 874 81 1 870 3115 344 501 873 0 865 875 876 82 1 871 -
1644166707 14 501 1275 870 ?862 714 496 6 847 -839 862 862 714 24 81 1 873 2927
 801 501 0 870 868 877 878 81 1 875 3116 344 862 877 0 870 879 880 82 1 876 -162
6340915 14 862 1269 875 ?881 501 491 6 847 -501 738 881 501 24 81 1 877 2928 801
 862 0 875 873 882 883 81 1 879 3117 344 881 882 0 875 884 885 82 1 880 -1625751
091 14 881 1353 879 ?285 862 886 6 887 -0 0 285 862 24 81 1 882 2929 801 881 0 8
79 877 888 889 81 1 884 3118 344 285 888 0 879 890 891 82 1 885 -1638399539 14 2
85 1361 884 ?228 881 892 6 893 -0 0 228 881 24 81 1 888 2930 801 285 0 884 882 8
94 895 81 1 890 3119 344 297 896 0 884 897 898 82 1 891 -1641283123 14 297 2217
 890 ?286 292 899 6 294 +0 0 286 292 24 81 1 896 2934 801 297 0 890 900 901 902
 81 1 897 3120 344 286 901 0 890 903 904 82 1 898 300089858 14 286 2165 897 ?327
 297 905 6 281 +0 0 327 297 24 81 1 901 2935 801 286 0 897 896 906 907 81 1 903
 3121 344 348 908 0 897 909 910 82 1 904 304087554 14 348 2823 903 ?20 342 911 6
 21 -0 0 20 342 24 81 1 908 2941 801 348 0 903 912 913 914 81 1 909 3122 344 20
 913 0 903 915 916 82 1 910 411369990 14 20 2836 909 ?0 348 917 6 7 -0 0 0 348 2
4 81 1 913 2942 801 20 0 909 908 0 918 81 1 915 3123 344 237 919 0 909 920 921 8
2 1 916 412615174 14 237 1962 915 ?406 395 922 6 266 -0 0 406 395 24 81 1 919 28
98 801 237 0 915 923 924 925 81 1 920 3124 344 406 924 0 915 926 927 82 1 921 28
4164610 14 406 896 920 ?670 237 711 6 397 -670 400 670 237 24 81 1 924 2899 801
 406 0 920 919 928 929 81 1 926 3125 344 670 928 0 920 930 931 82 1 927 -1661992
499 14 670 884 926 ?932 406 444 6 397 -932 406 932 406 24 81 1 928 2900 801 670
 0 926 924 933 934 81 1 930 3126 344 932 933 0 926 935 936 82 1 931 -1663041075
 14 932 872 930 ?407 670 937 6 397 -407 670 407 670 24 81 1 933 2901 801 932 0 9
30 928 938 939 81 1 935 3127 344 407 938 0 930 0 940 82 1 936 -1664089651 14 407
 860 935 ?416 932 699 6 397 -400 932 416 932 24 81 1 938 2902 801 407 0 935 933
 941 942 82 1 940 -1665138227 80 1 801 0 943 8001 0 0 0 0 3 5 0 0 0 FFFFTFTFFFFF
FF2 81 1 941 2903 801 416 0 425 938 944 945 83 255 3 942 .792156862745098 .81960
7843137255 .933333333333333 81 1 425 3097 344 416 941 0 422 427 946 81 1 944 290
4 801 412 0 414 941 947 948 83 3 945 .792156862745098 .819607843137255 .93333333
3333333 81 1 414 3094 344 412 944 0 409 419 949 81 1 947 2905 801 415 0 419 944
 950 951 83 3 948 .792156862745098 .819607843137255 .933333333333333 81 1 419 30
95 344 415 947 0 414 422 952 81 1 950 2906 801 410 0 422 947 953 954 83 3 951 .7
92156862745098 .819607843137255 .933333333333333 81 1 422 3096 344 410 950 0 419
 425 955 81 1 953 2907 801 404 0 409 950 956 957 83 3 954 .792156862745098 .8196
07843137255 .933333333333333 81 1 409 3093 344 404 953 0 402 414 958 81 1 956 29
08 801 400 0 402 953 959 960 83 3 957 .792156862745098 .819607843137255 .9333333
33333333 81 1 402 3092 344 400 956 0 398 409 961 81 1 959 2909 801 403 0 427 956
 432 962 83 3 960 .792156862745098 .819607843137255 .933333333333333 81 1 427 30
98 344 403 959 0 425 430 963 81 1 432 2910 801 428 0 430 959 964 965 83 3 962 .7
92156862745098 .819607843137255 .933333333333333 81 1 964 2911 801 375 0 433 432
 802 966 83 3 965 .792156862745098 .819607843137255 .933333333333333 81 1 433 31
00 344 375 964 0 430 770 967 81 1 802 2912 801 372 0 374 964 796 968 83 3 966 .7
92156862745098 .819607843137255 .933333333333333 81 1 374 3085 344 372 802 0 369
 378 969 83 3 968 .792156862745098 .819607843137255 .933333333333333 81 1 369 30
84 344 359 970 0 357 374 971 81 1 378 3086 344 370 972 0 374 382 973 82 1 969 16
7576066 81 1 972 2892 801 370 0 378 970 974 975 81 1 382 3087 344 379 974 0 378
 386 976 82 1 973 319881730 81 1 974 2893 801 379 0 382 972 977 978 81 1 386 308
8 344 383 977 0 382 390 979 82 1 976 319488514 81 1 977 2894 801 383 0 386 974 9
80 981 81 1 390 3089 344 387 980 0 386 394 982 82 1 979 319095298 81 1 980 2895
 801 387 0 390 977 983 984 81 1 394 3090 344 391 983 0 390 398 985 82 1 982 3187
02082 81 1 983 2896 801 391 0 394 980 923 986 81 1 398 3091 344 395 923 0 394 40
2 987 82 1 985 318308866 81 1 923 2897 801 395 0 398 983 919 988 82 1 987 317915
650 83 3 988 .792156862745098 .819607843137255 .933333333333333 83 3 986 .792156
862745098 .819607843137255 .933333333333333 83 3 984 .792156862745098 .819607843
137255 .933333333333333 83 3 981 .792156862745098 .819607843137255 .933333333333
333 83 3 978 .792156862745098 .819607843137255 .933333333333333 81 1 970 2891 80
1 359 0 369 989 972 990 83 3 975 .792156862745098 .819607843137255 .933333333333
333 81 1 989 2890 801 353 0 357 356 970 991 83 3 990 .792156862745098 .819607843
137255 .933333333333333 81 1 357 3083 344 353 989 0 352 369 992 81 1 356 2889 80
1 18 0 352 0 989 993 83 3 991 .792156862745098 .819607843137255 .933333333333333
 83 3 993 .792156862745098 .819607843137255 .933333333333333 82 1 992 402850310
 82 1 971 401342982 82 1 967 -1842675254 82 1 963 65733066 82 1 961 64946637 82
 1 958 185729536 82 1 955 65012170 82 1 952 65405386 82 1 949 65274314 82 1 946
 65601997 79 255 15 943 SDL/TYSA_COLOUR83 3 939 .792156862745098 .81960784313725
5 .933333333333333 15 937 870 0 693 932 0 17 693 0 937 472 42 154 691 690 0 0 -1
7 472 0 937 706 693 157 156 470 0 994 +17 42 0 937 693 706 28 38 462 0 691 +17 7
06 0 937 42 472 187 994 628 0 0 +17 38 0 37 191 35 187 42 462 0 728 -15 37 1412
 0 39 828 0 17 191 0 37 39 38 189 728 726 0 487 -17 728 0 426 994 995 187 191 72
6 0 706 +17 994 0 426 524 728 157 706 628 0 0 -17 995 0 426 728 705 189 180 546
 0 0 +17 705 0 426 995 704 178 186 730 0 0 +17 180 0 486 488 487 178 995 546 0 9
96 -16 546 989 0 ?995 547 740 541 740 543 1 16 740 990 0 ?682 546 545 541 545 54
6 1 17 682 0 426 681 524 169 165 740 0 0 +16 545 991 0 ?712 740 543 541 543 740
 1 17 712 0 426 537 542 124 123 545 0 0 +17 537 0 426 709 712 130 126 535 0 707
 +17 123 0 491 493 492 121 712 545 0 997 -15 491 1274 0 493 862 0 17 493 0 491 1
29 123 118 997 514 0 494 +17 492 0 491 123 129 124 495 723 0 712 +17 997 0 886 1
17 120 121 493 514 0 542 -15 886 1356 0 114 881 0 17 117 0 886 114 997 115 542 5
40 0 483 -17 120 0 886 997 114 118 517 538 0 493 +17 114 0 886 120 117 112 483 4
82 0 517 -17 517 0 506 516 494 112 120 538 0 518 -17 494 0 506 517 998 118 129 2
52 0 0 -17 518 0 711 483 475 112 516 519 0 0 -17 998 0 506 494 640 127 51 533 0
 0 -17 640 0 506 998 999 49 1000 638 0 0 +17 51 0 892 132 495 49 998 533 0 481 +
15 892 1364 0 495 285 0 17 132 0 892 126 51 130 481 479 0 537 -17 495 0 892 51 1
26 127 492 723 0 998 -17 481 0 405 1000 707 49 132 479 0 640 +15 405 3 0 707 400
 0 17 1000 0 405 459 481 97 640 638 0 0 -17 459 0 405 707 1000 100 99 452 0 709
 +17 99 0 822 93 102 97 459 452 0 999 -17 709 0 426 563 537 100 707 630 0 0 -17
 563 0 426 566 709 94 102 561 0 0 +17 566 0 426 558 563 103 96 564 0 0 +17 102 0
 822 99 1001 100 563 561 0 459 -15 822 708 0 99 815 0 17 1001 0 822 102 93 94 54
9 547 0 563 -17 93 0 822 1001 99 91 999 559 0 549 +17 549 0 816 108 96 91 1001 5
47 0 697 +15 816 695 0 549 809 0 17 108 0 816 552 549 106 697 460 0 702 +17 96 0
 816 549 552 94 566 564 0 1001 -17 697 0 506 999 694 91 108 460 0 0 -17 999 0 50
6 640 697 97 93 559 0 1000 -17 552 0 816 96 108 103 702 550 0 566 +17 558 0 426
 704 566 109 105 556 0 0 +17 105 0 700 702 701 103 558 556 0 552 -17 126 0 892 4
95 132 124 537 535 0 492 -17 524 0 426 682 994 163 159 520 0 0 +17 159 0 733 156
 734 157 524 520 0 472 -15 486 1262 0 488 839 0 17 488 0 486 194 180 175 996 742
 0 489 +17 487 0 486 180 194 189 39 741 0 995 +17 996 0 840 186 177 178 488 742
 0 705 -15 840 1404 0 183 834 0 17 186 0 840 183 996 184 705 730 0 466 -17 177 0
 840 996 183 175 695 698 0 488 +17 183 0 840 177 186 181 466 464 0 695 -17 39 0
 37 35 191 192 487 741 0 40 -17 40 0 506 489 691 192 35 41 0 0 -17 489 0 506 695
 40 175 194 484 0 0 -83 3 934 .792156862745098 .819607843137255 .933333333333333
 83 3 929 .792156862745098 .819607843137255 .933333333333333 83 3 925 .792156862
745098 .819607843137255 .933333333333333 15 922 1830 0 1002 237 234 17 1002 0 92
2 1002 1002 0 264 242 0 0 -17 264 0 411 264 264 0 1002 242 0 0 +15 411 1782 0 26
4 404 506 83 3 918 .792156862745098 .819607843137255 .933333333333333 15 917 283
7 0 1003 20 1004 17 1003 0 917 1003 1003 0 25 11 0 0 -15 1004 2838 0 1005 20 0 1
7 1005 0 1004 1005 1005 0 1006 1007 0 0 -17 1006 0 340 1006 1006 0 1005 1007 0 0
 +16 1007 2775 0 ?1006 1008 1009 1010 0 0 1 16 1008 2781 0 ?362 26 1007 1011 0 0
 1 16 1009 2769 0 ?1012 1007 325 326 0 0 1 31 1010 2778 0 1007 326 1011 0 -.0102
624010348456 .005925 .003923009594295025 0 0 1 1 0 0 .0024 31 326 2772 0 1009 32
0 1010 0 -446996081688784e-33 -.01185 .003923009594295025 0 0 1 1 0 0 .0024 31 1
011 2796 0 1008 1010 22 0 +-.0102624010348456 .005925 .003041954981558875 0 0 1
 1 0 0 .00135 31 22 2797 0 26 1011 8 0 +446996081688784e-33 -.01185 .00304195498
155887 0 0 1 1 0 0 .00135 16 26 2786 0 ?1013 11 1008 22 0 0 1 17 1013 0 371 1013
 1013 0 1014 26 0 0 +15 371 2787 0 1013 359 1015 17 1014 0 911 1014 1014 0 1013
 26 0 0 -15 911 2824 0 1014 348 1016 15 1016 2825 0 1017 348 0 17 1017 0 1016 10
17 1017 0 1012 1009 0 0 -17 1012 0 336 1012 1012 0 1017 1009 0 0 +15 336 2770 0
 1012 331 1018 15 1018 2694 0 761 331 0 17 761 0 1018 761 761 0 774 759 0 0 +15
 1015 413 0 1019 359 0 17 1019 0 1015 1019 1019 0 616 614 0 0 -17 616 0 435 616
 616 0 1019 614 0 0 +15 435 389 0 616 375 1020 15 1020 390 0 619 375 1021 17 619
 0 1020 619 619 0 1022 617 0 0 +15 1021 391 0 622 375 795 17 622 0 1021 622 622
 0 1023 620 0 0 +17 1023 0 363 1023 1023 0 622 620 0 0 -15 363 403 0 1023 18 0 1
7 1022 0 1024 1022 1022 0 619 617 0 0 -15 1024 408 0 1022 353 0 16 325 2763 0 ?3
50 1009 319 320 0 0 1 17 350 0 343 350 350 0 1025 325 0 0 +17 1025 0 1026 1025 1
025 0 350 325 0 0 -15 1026 2812 0 1025 342 0 17 362 0 354 362 362 0 1027 1008 0
 0 +17 1027 0 349 1027 1027 0 362 1008 0 0 -15 349 2811 0 1027 342 1026 15 340 2
776 0 1006 335 1028 15 1028 2668 0 764 335 0 17 764 0 1028 764 764 0 772 762 0 0
 +17 25 0 360 25 25 0 1003 11 0 0 +15 360 2792 0 25 353 1024 81 1 912 2940 801 3
42 0 346 345 908 1029 83 3 914 .792156862745098 .819607843137255 .93333333333333
3 81 1 346 3081 344 342 912 0 341 352 1030 81 1 345 2939 801 339 0 341 1031 912
 1032 83 3 1029 .792156862745098 .819607843137255 .933333333333333 81 1 1031 293
8 801 335 0 338 1033 345 1034 83 3 1032 .792156862745098 .819607843137255 .93333
3333333333 81 1 338 3079 344 335 1031 0 334 341 1035 81 1 1033 2937 801 331 0 33
4 906 1031 1036 83 3 1034 .792156862745098 .819607843137255 .933333333333333 81
 1 334 3078 344 331 1033 0 330 338 1037 81 1 906 2936 801 327 0 330 901 1033 103
8 83 3 1036 .792156862745098 .819607843137255 .933333333333333 81 1 330 3077 344
 327 906 0 296 334 1039 83 3 1038 .792156862745098 .819607843137255 .93333333333
3333 81 1 296 3076 344 292 900 0 291 330 1040 82 1 1039 308085250 81 1 900 2933
 801 292 0 296 1041 896 1042 81 1 291 3075 344 284 1041 0 283 296 1043 82 1 1040
 296092162 81 1 1041 2932 801 284 0 291 894 900 1044 81 1 283 3074 344 228 894 0
 0 291 1045 82 1 1043 292094466 81 1 894 2931 801 228 0 283 888 1041 1046 82 1 1
045 288096770 83 3 1046 .792156862745098 .819607843137255 .933333333333333 83 3
 1044 .792156862745098 .819607843137255 .933333333333333 83 3 1042 .792156862745
098 .819607843137255 .933333333333333 82 1 1037 387187206 82 1 1035 378405382 82
 1 1030 410124806 52 21 2830 0 348 279 7 0 +446996081688784e-33 -.01185 .0039230
09594295025 0 0 1 .0024 .766044443118975 .642787609686544 1 0 0 52 279 2817 0 34
2 266 21 0 +-.0102624010348456 .005925 .003923009594295025 0 0 1 .0024 .76604444
3118975 .642787609686543 1 0 0 83 3 907 .792156862745098 .819607843137255 .93333
3333333333 15 905 2168 0 206 286 0 17 206 0 905 203 203 204 1047 313 0 756 +17 2
03 0 905 206 206 201 756 750 0 1047 -17 1047 0 234 1048 1049 201 206 313 0 257 -
17 756 0 29 247 257 204 203 750 0 1049 +17 247 0 29 244 756 198 1049 248 0 0 +17
 257 0 29 756 748 201 1048 250 0 0 +17 1049 0 234 1047 236 204 247 248 0 0 -17 2
36 0 234 1049 235 198 197 319 0 247 -17 197 0 332 200 200 195 236 319 0 244 +15
 332 2116 0 197 327 0 17 200 0 332 197 197 198 244 231 0 236 -17 748 0 29 257 26
0 210 209 746 0 1048 +17 1048 0 234 1050 1047 210 257 250 0 0 -17 1050 0 234 105
1 1048 207 212 307 0 260 -17 1051 0 234 1052 1050 213 260 258 0 0 -17 212 0 899
 209 209 210 1050 307 0 748 +17 260 0 29 748 752 207 1051 258 0 0 +17 752 0 29 2
60 263 213 218 749 0 1051 +17 263 0 29 752 753 216 1053 261 0 0 +17 218 0 298 21
5 215 216 752 749 0 1052 -15 298 2272 0 215 292 0 17 215 0 298 218 218 213 1052
 301 0 752 +17 1052 0 234 1053 1051 216 215 301 0 263 -17 1053 0 234 239 1052 21
9 263 261 0 0 -17 239 0 234 230 1053 222 221 241 0 30 -17 221 0 293 224 224 219
 239 241 0 753 +16 241 1939 0 ?221 301 229 265 0 0 1 17 30 0 29 753 27 222 230 2
40 0 0 +17 753 0 29 263 30 219 224 232 0 1053 +17 224 0 293 221 221 222 753 232
 0 239 -15 293 2324 0 221 284 0 15 899 2220 0 212 297 0 17 209 0 899 212 212 207
 748 746 0 1050 -83 3 902 .792156862745098 .819607843137255 .933333333333333 83
 3 895 .792156862745098 .819607843137255 .933333333333333 50 893 1481 0 285 847
 887 0 +.02586680295683895 -.00945609598349074 -.018 -.309016994374945 -.9510565
16295154 0 .951056516295154 -.309016994374945 0 50 847 1483 0 839 872 893 0 +0 0
 -.018 0 0 1 .309016994374945 .951056516295155 0 50 887 1479 0 881 893 817 0 +.0
2648483694558885 -.00755398295090044 -.018 .309016994374945 .951056516295154 0 -
.951056516295155 .309016994374945 0 50 817 750 0 809 887 829 0 +0 0 -.018 0 0 1
 1 0 0 50 829 747 0 703 817 823 0 +-.001 -.02752288586716375 -.018 -1 2521136023
81562e-30 0 -252113602381562e-30 -1 0 50 823 745 0 815 829 771 0 +.001 -.0275228
8586716375 -.018 1 0 0 0 0 -1 50 771 493 0 768 823 366 0 +0 0 .006 0 0 1 1 0 0 5
0 366 492 0 245 771 364 0 +0 0 0 0 0 1 1 0 0 50 872 1484 0 714 867 847 0 +.01536
85294188727 .0228542676530701 -.018 -.809016994374951 .587785252292469 0 -.58778
5252292469 -.809016994374951 0 50 867 1486 0 510 857 872 0 +.0169865634076226 .0
2167869714848515 -.018 .809016994374951 -.587785252292469 0 .587785252292469 .80
9016994374951 0 50 857 1487 0 736 852 867 0 +-.0169865634076229 .021678697148484
9 -.018 -.809016994374942 -.58778525229248 0 .58778525229248 -.809016994374942 0
 50 852 1489 0 846 841 857 0 +-.01536852941887305 .02285426765306985 -.018 .8090
16994374942 .58778525229248 0 -.58778525229248 .809016994374943 0 50 841 1490 0
 834 299 852 0 +-.0258668029568388 -.0094560959834911 -.018 .309016994374958 -.9
5105651629515 0 .95105651629515 .309016994374958 0 50 299 1492 0 828 294 841 0 +
-.02648483694558875 -.0075539829509008 -.018 -.309016994374958 .95105651629515 0
 -.95105651629515 -.309016994374958 0 83 3 889 .792156862745098 .819607843137255
 .933333333333333 83 3 883 .792156862745098 .819607843137255 .933333333333333 83
 3 878 .792156862745098 .819607843137255 .933333333333333 83 3 874 .792156862745
098 .819607843137255 .933333333333333 83 3 869 .792156862745098 .819607843137255
 .933333333333333 83 3 864 .792156862745098 .819607843137255 .933333333333333 83
 3 859 .792156862745098 .819607843137255 .933333333333333 83 3 854 .792156862745
098 .819607843137255 .933333333333333 15 686 1396 0 739 846 0 17 739 0 686 43 17
1 172 717 715 0 687 -17 43 0 686 168 739 36 687 689 0 469 +17 171 0 686 739 168
 169 681 683 0 717 -17 717 0 737 165 174 169 739 715 0 682 +83 3 849 .7921568627
45098 .819607843137255 .933333333333333 83 3 843 .792156862745098 .8196078431372
55 .933333333333333 83 3 836 .792156862745098 .819607843137255 .933333333333333
 83 3 831 .792156862745098 .819607843137255 .933333333333333 83 3 825 .792156862
745098 .819607843137255 .933333333333333 83 3 819 .792156862745098 .819607843137
255 .933333333333333 81 1 803 2914 801 768 0 770 796 806 1054 83 3 812 .79215686
2745098 .819607843137255 .933333333333333 83 3 1054 .792156862745098 .8196078431
37255 .933333333333333 15 810 2524 0 1055 245 29 17 1055 0 810 1055 1055 0 613 6
11 0 0 -17 613 0 1056 613 613 0 1055 611 0 0 +15 1056 418 0 613 372 0 82 1 805 1
69673221 83 3 804 .792156862745098 .819607843137255 .933333333333333 79 14 800 S
WEntUnchanged17 789 0 376 789 789 0 589 587 0 0 -15 376 417 0 789 372 1056 17 58
6 0 380 586 586 0 786 584 0 0 +15 380 422 0 586 370 1057 15 1057 423 0 1058 370
 0 17 1058 0 1057 1058 1058 0 610 608 0 0 -17 610 0 246 610 610 0 1058 608 0 0 +
15 246 2511 0 610 245 1059 15 1059 2002 0 607 245 1060 17 607 0 1059 607 607 0 1
061 605 0 0 +15 1060 2013 0 604 245 1062 17 604 0 1060 604 604 0 1063 602 0 0 +1
5 1062 2018 0 601 245 1064 17 601 0 1062 601 601 0 1065 599 0 0 +15 1064 2029 0
 598 245 1066 17 598 0 1064 598 598 0 1067 596 0 0 +15 1066 2046 0 595 245 0 17
 595 0 1066 595 595 0 1068 567 0 0 +17 1068 0 1069 1068 1068 0 595 567 0 0 -15 1
069 448 0 1068 395 0 17 1067 0 1070 1067 1067 0 598 596 0 0 -15 1070 443 0 1067
 391 0 17 1065 0 1071 1065 1065 0 601 599 0 0 -15 1071 438 0 1065 387 0 17 1063
 0 1072 1063 1063 0 604 602 0 0 -15 1072 433 0 1063 383 0 17 1061 0 1073 1061 10
61 0 607 605 0 0 -15 1073 428 0 1061 379 0 17 583 0 384 583 583 0 784 581 0 0 +1
5 384 427 0 583 379 1073 17 580 0 388 580 580 0 782 578 0 0 +15 388 432 0 580 38
3 1072 17 577 0 392 577 577 0 780 575 0 0 +15 392 437 0 577 387 1071 17 574 0 39
6 574 574 0 778 571 0 0 +15 396 442 0 574 391 1070 17 570 0 399 570 570 0 776 56
8 0 0 +15 399 447 0 570 395 1069 17 135 0 713 141 138 133 478 476 0 507 -17 478
 0 444 63 669 136 135 476 0 672 +17 672 0 426 532 663 136 63 652 0 0 -17 663 0 4
26 672 643 61 90 661 0 667 +17 147 0 509 150 48 145 475 473 0 512 -82 1 434 6586
4138 82 1 358 404357638 82 1 347 369558022 141 300 302 300 300 294 141 288 308 2
88 288 281 141 280 314 1074 1075 266 141 1074 308 1076 280 266 141 1075 243 280
 1077 266 141 1077 265 1075 1078 266 141 1078 272 1077 1076 266 141 1076 302 107
8 1074 266 40 10 274 0 1 10 .000923284445229769 .365520065811877 ??-.03269478129
191885 -.00986343937547134 199999999999401e-21 -.0289764646943144 -.009612078130
5248 -.003620873707749825 -.02658934888990625 -.01041832377024046 -.005592427544
15713 -.02491524232290825 -.01159347856122764 -.0066694969995292 -.0237670797844
1785 -.0128979831359946 -.00710869732325595 -.0229040433426291 -.014476982394066
02 -.00705427670869199 -.02245271834619085 -.01600028272866085 -.006579479356920
75 -.02234118201385005 -.0181955346459421 -.00533670628290379 -.0231298436537889
5 -.0210259872140124 -.00289169221194898 -.02488937971380525 -.0233827914822423
 1999999999999815e-22 41 1 275 L?-.03269478129191885 -.00986343937547134 1999999
99999401e-21 41 1 276 L?-.02488937971380525 -.0233827914822423 1999999999999815e
-22 204 40 277 4 3.43459219874332 19999999999881e-20 1.87337897868265 .0350002 3
.46189066949803 -.003620873707749825 1.403209923177172 .0313791262922502 3.51503
0251634225 -.00559242754415711 1.086944231114542 .0294075724558429 3.57711069819
798 -.0066694969995292 .830568887177508 .0283305030004708 3.63880062681566 -.007
10869732325596 .612912324127059 .02789130267674405 3.705260606905635 -.007054276
70869199 .3875024236460085 .027945723291308 3.760739082539265 -.0065794793569207
5 .1885804071110805 .02842052064307925 3.82507618966604 -.00533670628290379 6.19
613357167861 .0296632937170962 3.87938064785182 -.002891692211948975 5.826753051
86449 .03210830778805105 3.895790659632865 19999999999881e-20 5.45700387969354 .
0350002 19 19 127 0 1 0 10 6 S0 50 17 2583 0 1 1079 4 0 +0 0 .003 0 0 1 1 0 0 50
 1079 2582 0 1 1080 17 0 +0 0 .003 0 0 1 1 0 0 50 1080 2581 0 1 1081 1079 0 +0 0
 .003 0 0 1 1 0 0 50 1081 2580 0 1 1082 1080 0 +0 0 .003 0 0 1 1 0 0 50 1082 257
9 0 1 0 1081 0 +0 0 .003 0 0 1 1 0 0 74 4 CI16 index_map_offset0 0 1 dCCZ20 16 8
 0 0 1083 935 1084 1085 1086 14 913 2 0 0 0 0 0 0 0 0 0 0 0 0 81 5 1083 38 1087
 1 0 1084 0 0 1088 0 0 0 0 81 2 1084 526 1089 1 1083 1085 0 0 0 1090 81 2 1085 5
45 1091 1 1084 1086 0 0 0 1092 81 1 1086 2859 1093 1 1085 14 0 0 1094 81 2 14 28
60 1095 1 1086 2 0 0 0 0 80 2 1095 1096 1097 9000 0 0 0 0 3 5 0 0 0 FFTFFFFFFFFF
FF9 1 79 16 1097 BODY_RECIPE_200180 1 1093 1098 1099 9000 1 1 1 1 1 1 1 1 0 FFTF
FFFFFFFFFF1 82 1 1094 2006 79 10 1099 BODY_MATCH80 2 1091 1100 1101 9000 0 0 0 0
 3 5 0 0 0 FFTFFFFFFFFFFF9 1 82 1 1092 150 79 30 1101 LAST_BODY_MODIFYING_FEATUR
E_ID80 2 1089 1102 1103 9000 0 0 0 0 3 5 0 0 0 FFTFFFFFFFFFFF9 1 82 1 1090 669 7
9 19 1103 ENT_TIME_STAMP_200180 5 1087 1104 1105 9000 0 0 0 0 3 6 0 0 0 FFTTTTTT
FTTFTT2 2 2 2 2 83 1 1088 1 79 19 1105 BODY_SCALING_FACTOR80 2 13 1106 1107 9000
 0 0 0 0 3 5 0 0 0 FFTFFFFFFFFFFF9 1 82 1 15 107 79 12 1107 ATOM_ID_20011 0 
