**ABCDEFGHIJKLMNOPQRSTUVWXYZabcdefghijklmnopqrstuvwxyz**************************
**PARASOLID !"#$%&'()*+,-./:;<=>?@[\]^_`{|}~0123456789**************************
**PART1;
MC=AMD64;
MC_MODEL=Intel64 Family 6 Model 158 Stepping 12, GenuineIntel;
MC_ID=unknown;
OS=Windows_NT;
OS_RELEASE=unknown;
FRU=Parasolid Version 31.0, build 282,  2-25-2019;
APPL=SOLIDWORKS 2019-2019227;
SITE=;
USER=unknown;
FORMAT=text;
GUISE=transmit;
KEY=pcb fixture;
FILE=pcb fixture.x_t;
DATE=Fri Apr 10 22:16:36 2020;
**PART2;
SCH=SCH_3100282_31001;
USFLD_SIZE=0;
**PART3;
**END_OF_HEADER*****************************************************************
T51 : TRANSMIT FILE created by modeller version 310028223 SCH_3100282_31001_1300
6215 0 12 34 CCCCCCI4 mesh1006 0 I8 polyline1008 0 CCCCCCCDI5 owner1040 0 CCCCCC
I13 boundary_mesh1006 0 I17 boundary_polyline1008 0 CCCA16 index_map_offset0 0 1
 dA9 index_map82 0 A17 node_id_index_map82 0 A20 schema_embedding_map82 0 A5 chi
ld12 0 A14 lowest_node_id0 0 1 dA16 mesh_offset_data206 0 Z1 2202 2 3 0 0 0 0 0
 0 1e3 1e-8 0 4 0 1 0 1 1 5 6 7 8 0 0 9 10 11 0 0 0 0 0 0 0 81 255 2 2 2165 12 1
 13 0 0 0 0 14 70 11 CI9 list_type0 0 1 uI10 notransmit0 0 1 lCCCDCCDI12 finger_
index0 0 1 dI12 finger_block1012 0 CZ3 0 4 T1 0 0 9 20 1 15 15 13 255 5 127 0 1
 0 16 0 0 17 0 51 255 6 1437 0 18 19 0 0 +-.0364543432511793 .00465224226854099
 .015 0 0 -1 .01 -1 0 0 31 255 7 1549 0 20 21 0 0 +446996081688784e-33 -.01185 .
011 0 0 1 1 0 0 .00175 29 255 8 808 0 11 22 0 .0047327372121578 -.03067086218823
24 .011 19 8 CCCCCCCA5 owner12 0 Z9 36 0 1 17 0 23 V0 16 255 10 922 0 ?24 0 25 2
6 0 0 1 18 255 11 806 0 27 0 28 8 ?1 17 255 27 0 29 30 31 11 32 33 0 34 +18 28 8
03 0 35 11 36 22 ?1 17 35 0 37 34 38 28 39 40 0 30 +18 36 800 0 41 28 42 43 ?1 2
9 22 805 0 28 43 8 -.00473273721215779 -.0306708621882324 .011 29 43 802 0 36 44
 22 .0047327372121578 -.0306708621882324 .015 29 44 799 0 42 45 43 -.00473273721
215779 -.0306708621882324 .015 18 42 797 0 46 36 47 44 ?1 29 45 786 0 47 48 44 .
02419537720490195 .0194341017492808 .011 18 47 784 0 49 42 50 45 ?1 29 48 783 0
 50 51 45 .02892811441705975 .01123676043895164 .011 18 50 781 0 52 47 53 48 ?1
 29 51 780 0 53 54 48 .02419537720490195 .0194341017492808 .015 18 53 778 0 55 5
0 56 51 ?1 29 54 777 0 56 57 51 .02892811441705975 .01123676043895164 .015 18 56
 775 0 58 53 59 54 ?1 29 57 764 0 59 60 54 -.02892811441705975 .0112367604389516
2 .011 18 59 762 0 24 56 61 57 ?1 29 60 761 0 61 62 57 -.02419537720490195 .0194
3410174928085 .011 18 61 759 0 63 59 64 60 ?1 29 62 758 0 64 65 60 -.02892811441
705975 .01123676043895162 .015 18 64 756 0 66 61 67 62 ?1 29 65 755 0 67 68 62 -
.02419537720490195 .01943410174928085 .015 18 67 753 0 69 64 70 65 ?1 29 68 746
 0 70 71 65 -.01620004137941175 .02128664274387455 .011 18 70 744 0 72 67 73 68
 ?1 29 71 737 0 73 74 68 .01620004137941175 .02128664274387455 .011 18 73 735 0
 75 70 76 71 ?1 29 74 728 0 76 77 71 .0265347940671849 .003386326004992445 .011
 18 76 726 0 78 73 79 74 ?1 29 77 719 0 79 80 74 .01033475268777316 -.0246729687
4886695 .011 18 79 717 0 31 76 81 77 ?1 29 80 710 0 81 82 77 -.01033475268777314
 -.02467296874886695 .011 18 81 708 0 83 79 84 80 ?1 29 82 701 0 84 85 80 -.0265
347940671849 .00338632600499242 .011 18 84 699 0 86 81 87 82 ?1 29 85 698 0 87 8
8 82 .0265347940671849 .003386326004992445 .015 18 87 696 0 89 84 90 85 ?1 29 88
 695 0 90 91 85 .01033475268777316 -.02467296874886695 .015 18 90 693 0 92 87 93
 88 ?1 29 91 692 0 93 94 88 -.01620004137941175 .02128664274387455 .015 18 93 69
0 0 95 90 96 91 ?1 29 94 689 0 96 97 91 .01620004137941175 .02128664274387455 .0
15 18 96 687 0 98 93 99 94 ?1 29 97 686 0 99 100 94 -.01033475268777314 -.024672
96874886695 .015 18 99 684 0 101 96 102 97 ?1 29 100 683 0 102 103 97 -.02653479
40671849 .00338632600499242 .015 18 102 681 0 104 99 105 100 ?1 29 103 200 0 105
 106 100 .01218943876708654 .000507525904213337 .006 18 105 198 0 107 102 108 10
3 ?1 29 106 333 0 108 109 103 -.00653424970967068 .01030260067806516 .006 18 108
 255 0 110 105 111 106 ?1 29 109 334 0 111 112 106 -.01218943876708654 .00050752
5904213323 .006 18 111 262 0 113 108 114 109 ?1 29 112 335 0 114 115 109 -.00565
518905741587 -.01081012658227848 .006 18 114 260 0 116 111 117 112 ?1 29 115 336
 0 117 118 112 .00565518905741587 -.01081012658227848 .006 18 117 256 0 119 114
 120 115 ?1 29 118 337 0 120 121 115 .00653424970967068 .01030260067806516 .006
 18 120 259 0 122 117 123 118 ?1 29 121 339 0 123 124 118 -.00653424970967068 .0
1030260067806516 .011 18 123 263 0 125 120 126 121 ?1 29 124 340 0 126 127 121 -
.01218943876708654 .000507525904213323 .011 18 126 261 0 128 123 129 124 ?1 29 1
27 341 0 129 130 124 -.00565518905741587 -.01081012658227848 .011 18 129 257 0 1
31 126 132 127 ?1 29 130 342 0 132 133 127 .00565518905741587 -.0108101265822784
8 .011 18 132 253 0 134 129 135 130 ?1 29 133 343 0 135 136 130 .006534249709670
68 .01030260067806516 .011 18 135 254 0 137 132 138 133 ?1 29 136 344 0 138 0 13
3 .01218943876708654 .000507525904213337 .011 18 138 258 0 139 135 0 136 ?1 17 1
39 0 140 141 107 138 142 143 0 144 -15 255 140 267 0 141 145 0 17 141 0 140 119
 139 132 146 147 0 0 +17 107 0 140 139 119 105 148 149 0 142 -17 142 0 150 151 1
44 105 139 143 0 152 +16 143 232 0 ?142 153 154 155 0 0 1 17 144 0 150 142 137 1
38 156 157 0 146 -15 150 279 0 142 158 0 17 137 0 150 144 151 135 122 154 0 159
 -17 156 0 160 161 146 135 144 157 0 0 +16 157 238 0 ?156 162 163 164 0 0 1 17 1
46 0 160 156 165 138 141 147 0 0 -15 160 300 0 146 166 0 17 165 0 160 146 167 13
2 168 162 0 141 +16 147 246 0 ?141 163 169 170 171 169 1 16 163 245 0 ?172 157 1
47 173 0 0 1 16 169 247 0 ?174 147 171 170 147 171 1 31 170 331 0 147 175 173 0
 -0 0 .011 0 0 1 1 0 0 .0122 16 171 248 0 ?159 169 176 170 169 147 1 17 159 0 17
7 122 125 135 161 171 0 156 +16 176 249 0 ?178 171 179 180 0 0 1 17 178 0 181 12
8 110 111 182 176 0 183 +16 179 250 0 ?184 176 185 186 0 0 1 31 180 323 0 176 18
7 188 0 +-.0102624010348456 .005925 .006 0 0 1 1 0 0 .00575 31 187 324 0 189 190
 180 0 -0 0 .006 0 0 1 1 0 0 .0122 30 255 188 322 0 191 180 192 0 --.00653424970
967068 .01030260067806516 .015 0 0 1 16 191 234 0 ?110 193 194 188 0 0 1 30 192
 321 0 193 188 195 0 --.01218943876708654 .000507525904213324 .015 0 0 1 16 193
 244 0 ?113 196 191 192 0 0 1 30 195 320 0 196 192 197 0 --.00565518905741587 -.
01081012658227848 .015 0 0 1 16 196 241 0 ?116 198 193 195 0 0 1 30 197 319 0 19
8 195 199 0 -.00565518905741587 -.01081012658227848 .015 0 0 1 16 198 237 0 ?119
 154 196 197 0 0 1 30 199 318 0 154 197 155 0 -.00653424970967068 .0103026006780
6516 .015 0 0 1 16 154 239 0 ?122 143 198 199 0 0 1 30 155 317 0 143 199 200 0 -
.01218943876708654 .000507525904213332 .015 0 0 1 31 200 11 0 201 155 202 0 -0 0
 .015 0 0 1 1 0 0 .0082 16 201 9 0 ?203 204 205 200 0 0 1 31 202 16 0 206 200 20
7 0 +0 0 .015 0 0 1 1 0 0 .02675 16 206 694 0 ?208 209 204 202 204 209 1 31 207
 101 0 153 202 210 0 -0 0 .006 0 0 1 1 0 0 .0082 16 153 91 0 ?211 212 143 207 0
 0 1 31 210 100 0 212 207 213 0 +0 0 .006 0 0 1 1 0 0 .02675 16 212 86 0 ?214 21
5 153 210 0 0 1 31 213 99 0 215 210 216 0 +.0102624010348456 .005925 .006 0 0 1
 1 0 0 .00175 16 215 81 0 ?217 218 212 213 0 0 1 31 216 98 0 218 213 219 0 +4469
96081688784e-33 -.01185 .006 0 0 1 1 0 0 .00175 16 218 76 0 ?220 205 215 216 0 0
 1 31 219 97 0 205 216 221 0 +-.0102624010348456 .005925 .006 0 0 1 1 0 0 .00175
 16 205 71 0 ?222 201 218 219 0 0 1 30 221 705 0 223 219 224 0 +-.02653479406718
49 .00338632600499242 .015 0 0 -1 16 223 703 0 ?225 226 209 221 0 0 1 30 224 714
 0 226 221 227 0 --.01033475268777314 -.02467296874886695 .015 0 0 -1 16 226 712
 0 ?228 229 223 224 0 0 1 30 227 723 0 229 224 230 0 +.01033475268777316 -.02467
296874886695 .015 0 0 -1 16 229 721 0 ?231 232 226 227 0 0 1 30 230 732 0 232 22
7 233 0 -.0265347940671849 .003386326004992445 .015 0 0 -1 16 232 730 0 ?234 235
 229 230 0 0 1 30 233 741 0 235 230 236 0 +.01620004137941175 .02128664274387455
 .015 0 0 -1 16 235 739 0 ?237 238 232 233 0 0 1 30 236 750 0 238 233 239 0 --.0
1620004137941175 .02128664274387455 .015 0 0 -1 16 238 748 0 ?240 241 235 236 0
 0 1 30 239 767 0 241 236 242 0 +-.02892811441705975 .01123676043895162 .011 0 0
 1 16 241 765 0 ?243 244 238 239 0 0 1 30 242 772 0 244 239 245 0 --.02419537720
490195 .01943410174928085 .011 0 0 1 16 244 770 0 ?63 246 241 242 0 0 1 30 245 7
89 0 246 242 247 0 -.02892811441705975 .01123676043895164 .011 0 0 1 16 246 787
 0 ?52 248 244 245 0 0 1 30 247 794 0 248 245 249 0 +.02419537720490195 .0194341
017492808 .011 0 0 1 16 248 792 0 ?250 40 246 247 0 0 1 30 249 811 0 40 247 251
 0 --.00473273721215779 -.0306708621882324 .011 0 0 1 16 40 809 0 ?35 252 248 24
9 0 0 1 30 251 816 0 252 249 253 0 +.0047327372121578 -.0306708621882324 .011 0
 0 1 16 252 814 0 ?254 255 40 251 0 0 1 31 253 1227 0 255 251 256 0 --.022256131
61470585 .0292442661995286 .015 0 0 1 1 0 0 .01 16 255 819 0 ?69 257 252 253 0 0
 1 31 256 1228 0 257 253 258 0 +-.02225613161470585 .0292442661995286 .011 0 0 1
 1 0 0 .01 16 257 832 0 ?259 260 255 256 0 0 1 31 258 1229 0 260 256 261 0 -.022
25613161470585 .0292442661995286 .015 0 0 1 1 0 0 .01 16 260 837 0 ?98 262 257 2
58 0 0 1 31 261 1230 0 262 258 263 0 +.02225613161470585 .0292442661995286 .011
 0 0 1 1 0 0 .01 16 262 850 0 ?49 264 260 261 0 0 1 31 263 1231 0 264 261 265 0
 -.03645434325117925 .00465224226854102 .015 0 0 1 1 0 0 .01 16 264 855 0 ?58 26
6 262 263 0 0 1 31 265 1232 0 266 263 267 0 +.03645434325117925 .004652242268541
02 .011 0 0 1 1 0 0 .01 16 266 868 0 ?268 269 264 265 0 0 1 31 267 1233 0 269 26
5 270 0 -.0141982116364734 -.03389650846806955 .015 0 0 1 1 0 0 .01 16 269 873 0
 ?92 33 266 267 0 0 1 31 270 1234 0 33 267 271 0 +.0141982116364734 -.0338965084
6806955 .011 0 0 1 1 0 0 .01 16 33 886 0 ?27 272 269 270 0 0 1 31 271 1235 0 272
 270 273 0 --.0141982116364734 -.03389650846806955 .015 0 0 1 1 0 0 .01 16 272 8
91 0 ?46 274 33 271 0 0 1 31 273 1236 0 274 271 275 0 +-.0141982116364734 -.0338
9650846806955 .011 0 0 1 1 0 0 .01 16 274 904 0 ?276 25 272 273 0 0 1 31 275 123
7 0 25 273 26 0 --.0364543432511793 .00465224226854099 .015 0 0 1 1 0 0 .01 16 2
5 909 0 ?104 10 274 275 0 0 1 31 26 1238 0 10 275 277 0 +-.0364543432511793 .004
65224226854099 .011 0 0 1 1 0 0 .01 31 277 1537 0 278 26 21 0 +-.010262401034845
6 .005925 .011 0 0 1 1 0 0 .00175 16 278 1557 0 ?279 280 281 277 0 0 1 31 21 154
3 0 280 277 7 0 +.0102624010348456 .005925 .011 0 0 1 1 0 0 .00175 16 280 1585 0
 ?282 20 278 21 0 0 1 17 282 0 283 282 282 0 284 280 0 0 +16 20 1613 0 ?285 286
 280 7 0 0 1 17 285 0 287 285 285 0 288 20 0 0 +16 286 590 0 ?289 290 20 291 0 0
 1 17 289 0 292 289 289 0 293 286 0 0 +16 290 581 0 ?294 295 286 296 0 0 1 31 29
1 633 0 286 296 297 0 +534320597660846e-32 -.02905803904831385 .015 0 0 1 1 0 0
 .00175 31 296 634 0 290 298 291 0 +534320597660846e-32 -.02905803904831385 .011
 0 0 1 1 0 0 .00175 31 297 632 0 299 291 300 0 +534320597660846e-32 -.0290580390
4831385 .011 0 0 1 1 0 0 .005 16 299 804 0 ?34 301 295 297 0 0 1 31 300 631 0 30
1 297 302 0 +0 0 .011 0 0 1 1 0 0 .02675 16 301 584 0 ?31 303 299 300 0 0 1 31 3
02 630 0 295 300 304 0 +534320597660846e-32 -.02905803904831385 .015 0 0 1 1 0 0
 .005 16 295 798 0 ?305 299 290 302 0 0 1 31 304 544 0 306 302 307 0 +.025165 .0
1452901952415694 .011 0 0 1 1 0 0 .00175 16 306 491 0 ?308 309 303 304 0 0 1 31
 307 543 0 303 304 310 0 +.025165 .01452901952415694 .015 0 0 1 1 0 0 .00175 16
 303 500 0 ?311 306 301 307 0 0 1 31 310 542 0 312 307 313 0 +.025165 .014529019
52415694 .011 0 0 1 1 0 0 .005 16 312 782 0 ?314 315 309 310 0 0 1 31 313 541 0
 315 310 316 0 +0 0 .011 0 0 1 1 0 0 .02675 16 315 494 0 ?75 317 312 313 0 0 1 3
1 316 540 0 309 313 318 0 +.025165 .01452901952415694 .015 0 0 1 1 0 0 .005 16 3
09 776 0 ?319 312 306 316 0 0 1 31 318 452 0 320 316 321 0 +-.025165 .0145290195
2415694 .011 0 0 1 1 0 0 .00175 16 320 399 0 ?322 323 317 318 0 0 1 31 321 451 0
 317 318 324 0 +-.025165 .01452901952415694 .015 0 0 1 1 0 0 .00175 16 317 408 0
 ?325 320 315 321 0 0 1 31 324 450 0 326 321 327 0 +-.025165 .01452901952415694
 .011 0 0 1 1 0 0 .005 16 326 760 0 ?328 329 323 324 0 0 1 31 327 449 0 329 324
 330 0 +0 0 .011 0 0 1 1 0 0 .02675 16 329 402 0 ?86 149 326 327 0 0 1 31 330 44
8 0 323 327 175 0 +-.025165 .01452901952415694 .015 0 0 1 1 0 0 .005 16 323 754
 0 ?331 326 320 330 0 0 1 31 175 332 0 162 330 170 0 +446996081688784e-33 -.0118
5 .011 0 0 1 1 0 0 .00575 16 162 236 0 ?165 194 157 175 0 0 1 16 194 243 0 ?332
 191 162 333 0 0 1 17 332 0 160 167 161 126 334 194 0 174 +31 333 328 0 194 164
 186 0 +-.0102624010348456 .005925 .011 0 0 1 1 0 0 .00575 31 164 329 0 157 173
 333 0 +.0102624010348456 .005925 .011 0 0 1 1 0 0 .00575 31 186 327 0 179 333 3
35 0 +446996081688784e-33 -.01185 .006 0 0 1 1 0 0 .00575 31 335 326 0 185 186 1
90 0 +.0102624010348456 .005925 .006 0 0 1 1 0 0 .00575 16 185 251 0 ?151 179 33
6 335 0 0 1 31 190 325 0 336 335 187 0 +0 0 .006 0 0 1 1 0 0 .02275 16 336 240 0
 ?337 185 338 190 0 0 1 17 337 0 339 337 337 0 340 336 0 0 +16 338 235 0 ?341 33
6 189 187 189 149 1 17 341 0 342 152 182 120 343 338 0 0 +16 189 242 0 ?183 338
 149 187 149 338 1 16 149 233 0 ?148 189 329 187 338 189 1 17 148 0 342 344 152
 117 107 149 0 0 +15 342 199 0 182 345 346 17 344 0 342 183 148 114 184 179 0 0
 -17 152 0 342 148 341 105 151 185 0 0 -17 151 0 150 137 142 120 152 185 0 341 +
17 183 0 342 182 344 111 347 189 0 0 +17 184 0 348 134 116 117 344 179 0 148 +15
 348 275 0 168 349 0 17 134 0 348 168 184 132 119 198 0 165 -17 116 0 348 184 16
8 114 131 196 0 347 +17 168 0 348 116 134 129 165 162 0 0 -17 131 0 350 174 347
 129 116 196 0 167 -17 347 0 350 131 113 114 183 189 0 344 -15 350 288 0 174 351
 0 17 113 0 350 347 174 111 128 193 0 178 +17 174 0 350 113 131 126 167 169 0 0
 +17 128 0 181 334 178 126 113 193 0 332 -15 181 292 0 334 352 0 17 334 0 181 11
0 128 123 332 194 0 0 -17 110 0 181 178 334 108 125 191 0 343 +17 125 0 177 159
 343 123 110 191 0 161 -17 343 0 177 125 122 108 341 338 0 182 -15 177 271 0 122
 353 0 17 122 0 177 343 159 120 137 154 0 151 +17 182 0 342 341 183 108 178 176
 0 0 -14 255 353 268 354 ?349 145 177 5 355 +351 145 349 145 23 81 1 354 2166 35
6 353 357 0 0 358 359 14 349 272 358 ?158 353 348 5 360 -0 0 158 353 23 14 145 2
64 361 ?353 345 140 5 355 +353 351 353 345 23 51 355 312 0 351 362 363 0 +0 0 .0
15 0 0 -1 .0122 -1 0 0 14 351 285 364 ?352 365 350 5 355 +145 353 352 365 23 13
 23 37 0 0 0 0 0 0 9 16 14 16 1550 366 ?367 0 368 5 369 +0 0 367 0 23 81 1 366 2
170 356 16 370 0 364 371 372 14 367 1544 371 ?373 16 374 5 375 +0 0 373 16 23 15
 368 108 0 376 16 287 51 369 123 0 16 377 375 0 -446996081688784e-33 -.01185 .01
5 0 0 -1 .00175 -1 0 0 51 377 122 0 373 378 369 0 --.0102624010348456 .005925 .0
15 0 0 -1 .00175 -1 0 0 51 375 124 0 367 369 379 0 -.0102624010348456 .005925 .0
15 0 0 -1 .00175 -1 0 0 51 379 125 0 380 375 381 0 -0 0 .015 0 0 -1 .02675 -1 0
 0 14 380 115 382 ?383 384 385 5 379 -0 0 383 384 23 51 381 126 0 383 379 386 0
 +0 0 .015 0 0 -1 .0082 -1 0 0 14 383 119 387 ?388 380 389 5 381 -0 0 388 380 23
 51 386 1332 0 390 381 391 0 +-.02225613161470585 .0292442661995286 .011 0 0 -1
 .01 -1 0 0 14 390 1320 392 ?393 394 395 5 386 -0 0 393 394 23 51 391 1353 0 393
 386 396 0 +.02225613161470585 .0292442661995286 .015 0 0 -1 .01 -1 0 0 14 393 1
341 397 ?398 390 399 5 391 -0 0 398 390 23 51 396 1374 0 398 391 400 0 +.0364543
4325117925 .00465224226854102 .011 0 0 -1 .01 -1 0 0 14 398 1362 401 ?402 393 40
3 5 396 -0 0 402 393 23 51 400 1395 0 402 396 19 0 +.0141982116364734 -.03389650
846806955 .015 0 0 -1 .01 -1 0 0 14 402 1383 404 ?405 398 406 5 400 -0 0 405 398
 23 51 19 1416 0 405 400 6 0 +-.0141982116364734 -.03389650846806955 .011 0 0 -1
 .01 -1 0 0 14 405 1404 407 ?18 402 408 5 19 -0 0 18 402 23 81 1 407 2178 356 40
5 409 0 404 410 411 14 18 1425 410 ?412 405 413 5 6 -0 0 412 405 23 15 408 1405
 0 414 405 0 17 414 0 408 39 415 28 276 274 0 0 -17 39 0 408 101 414 42 35 40 0
 0 -17 415 0 408 414 101 81 228 226 0 0 -17 276 0 29 31 30 81 414 274 0 415 +15
 29 609 0 30 416 0 17 31 0 29 27 276 79 83 301 0 231 +17 30 0 29 276 27 28 34 29
9 0 414 -17 34 0 37 254 35 11 30 299 0 417 +15 37 600 0 34 418 0 17 254 0 37 38
 34 36 417 252 0 305 +17 417 0 406 32 41 11 254 252 0 0 -15 406 1384 0 32 402 0
 17 32 0 406 419 417 79 27 33 0 0 -17 41 0 406 417 419 36 92 269 0 254 -17 419 0
 406 41 32 90 231 229 0 0 -17 92 0 420 208 305 90 41 269 0 421 +15 420 5 0 331 3
88 422 17 208 0 420 58 92 87 421 206 0 0 +17 305 0 420 92 46 36 38 295 0 0 +17 4
21 0 385 231 234 90 208 206 0 419 -15 385 114 0 72 380 423 17 231 0 385 83 421 7
9 419 229 0 32 +17 234 0 385 421 78 87 424 232 0 208 +17 78 0 385 234 237 76 75
 315 0 268 -17 424 0 403 425 89 76 234 232 0 0 -15 403 1363 0 425 398 0 17 425 0
 403 426 424 50 268 266 0 0 -17 89 0 403 424 426 87 58 264 0 234 -17 426 0 403 8
9 425 56 52 246 0 0 -17 58 0 420 319 208 56 89 264 0 427 +17 319 0 420 98 58 53
 427 309 0 0 +17 427 0 428 52 250 56 319 309 0 426 -15 428 510 0 314 429 0 17 52
 0 428 314 427 50 426 246 0 430 +17 250 0 428 427 314 53 431 248 0 319 +17 314 0
 428 250 52 47 430 312 0 431 +17 431 0 399 432 55 47 250 248 0 0 -15 399 1342 0
 432 393 0 17 432 0 399 433 431 73 49 262 0 0 -17 55 0 399 431 433 53 98 260 0 2
50 -17 433 0 399 55 432 96 237 235 0 0 -17 98 0 420 434 319 96 55 260 0 435 +17
 434 0 420 69 98 93 435 204 0 0 +17 435 0 385 237 240 96 434 204 0 433 -17 237 0
 385 78 435 73 433 235 0 432 +17 240 0 385 435 72 93 436 238 0 434 +16 204 688 0
 ?434 206 201 202 209 206 1 16 209 682 0 ?437 223 206 202 206 204 1 17 437 0 420
 46 104 99 438 209 0 0 +17 46 0 420 305 437 42 101 272 0 38 +17 104 0 420 437 33
1 102 66 25 0 438 +17 438 0 385 225 228 102 437 209 0 439 -17 225 0 385 72 438 8
4 439 223 0 440 +17 228 0 385 438 83 99 415 226 0 437 +17 439 0 413 66 440 102 2
25 223 0 0 -15 413 1426 0 440 18 0 17 66 0 413 441 439 64 104 25 0 243 -17 440 0
 413 439 441 84 24 10 0 0 -17 441 0 413 440 66 59 243 241 0 0 -17 24 0 442 443 8
6 59 440 10 0 328 +15 442 427 0 443 444 0 17 443 0 442 259 24 61 328 326 0 445 -
17 86 0 442 24 259 84 72 329 0 225 +17 328 0 446 243 63 59 443 326 0 441 +15 446
 418 0 447 448 0 17 243 0 446 447 328 64 441 241 0 331 +17 63 0 446 328 447 61 4
49 244 0 443 +17 447 0 446 63 243 67 331 323 0 449 -17 449 0 395 95 445 67 63 24
4 0 0 -15 395 1321 0 445 390 0 17 95 0 395 436 449 93 69 255 0 240 -17 445 0 395
 449 436 61 259 257 0 0 -17 436 0 395 445 95 70 240 238 0 0 -17 259 0 442 86 443
 70 445 257 0 436 +17 69 0 420 331 434 67 95 255 0 447 +17 331 0 420 104 69 64 4
47 323 0 0 +14 448 415 450 ?444 166 446 5 451 +0 0 444 166 23 81 1 450 2180 356
 448 452 0 410 453 454 14 444 423 453 ?455 448 456 5 457 -0 0 455 448 23 14 166
 293 458 ?448 352 459 5 460 -0 0 448 352 23 51 451 440 0 448 457 360 0 +-.025165
 .01452901952415694 .011 0 0 1 .005 1 0 0 50 255 457 443 0 444 461 451 0 +-.0125
825 .00726450976207848 .011 0 0 1 1 0 0 51 360 315 0 349 451 462 0 -446996081688
784e-33 -.01185 .015 0 0 -1 .00575 -1 0 0 51 462 314 0 158 360 362 0 -.010262401
0348456 .005925 .015 0 0 -1 .00575 -1 0 0 14 158 276 463 ?365 349 150 5 462 -0 0
 365 349 23 51 362 313 0 365 462 355 0 -0 0 .015 0 0 -1 .02275 -1 0 0 14 365 280
 464 ?351 158 465 5 362 +0 0 351 158 23 81 1 464 2184 356 365 466 0 463 467 468
 15 465 283 0 172 365 469 17 172 0 465 172 172 0 470 163 0 0 +15 469 284 0 340 3
65 0 17 340 0 469 340 340 0 337 336 0 0 -17 470 0 459 470 470 0 172 163 0 0 -15
 459 299 0 470 166 160 80 255 1 356 471 472 9000 1 1 1 1 1 1 1 1 0 FFFFTFTFFFFFF
F1 81 1 466 2009 473 365 0 464 474 475 476 81 1 463 2183 356 158 474 0 458 464 4
77 81 1 467 2185 356 352 478 0 464 479 480 82 255 1 468 801767984 14 352 289 467
 ?166 351 181 5 363 -0 0 166 351 23 81 1 478 2011 473 352 0 467 475 481 482 81 1
 479 2186 356 455 483 0 467 484 485 82 1 480 803602992 14 455 433 479 ?429 444 4
86 5 461 -0 0 429 444 23 81 1 483 2015 473 455 0 479 487 488 489 81 1 484 2187 3
56 490 491 0 479 492 493 82 1 485 1060045361 14 490 525 484 ?418 494 495 5 496 -
0 0 418 494 23 81 1 491 2018 473 490 0 484 497 498 499 81 1 492 2188 356 394 500
 0 484 501 502 82 1 493 1071710769 14 394 615 492 ?390 416 503 5 504 -0 0 390 41
6 23 81 1 500 2021 473 394 0 492 505 506 507 81 1 501 2189 356 429 488 0 492 508
 509 82 1 502 1083376177 14 429 507 501 ?494 455 428 5 510 +0 0 494 455 23 81 1
 488 2016 473 429 0 501 483 497 511 81 1 508 2190 356 494 497 0 501 512 513 82 1
 509 1067254322 14 494 515 508 ?490 429 514 5 515 -0 0 490 429 23 81 1 497 2017
 473 494 0 508 488 491 516 81 1 512 2191 356 418 498 0 508 517 518 82 1 513 1062
797874 14 418 597 512 ?416 490 37 5 519 +0 0 416 490 23 81 1 498 2019 473 418 0
 512 491 505 520 81 1 517 2192 356 416 505 0 512 521 522 82 1 518 1078919730 14
 416 605 517 ?394 418 523 5 524 -0 0 394 418 23 81 1 505 2020 473 416 0 517 498
 500 525 81 1 521 2193 356 373 526 0 517 527 528 82 1 522 1074463282 14 373 1538
 521 ?384 367 529 5 377 +0 0 384 367 23 81 1 526 1999 473 373 0 521 530 531 532
 81 1 527 2194 356 388 533 0 521 534 535 82 1 528 1237647924 14 388 1 527 ?345 3
83 536 5 537 +0 0 345 383 23 81 1 533 2003 473 388 0 527 538 539 540 81 1 534 21
95 356 412 541 0 527 542 543 82 1 535 777978420 14 412 1623 534 ?544 18 545 5 54
6 -0 0 544 18 23 81 1 541 2028 473 412 0 534 547 548 549 81 1 542 2196 356 544 5
48 0 534 550 551 82 1 543 1231880756 14 544 1628 542 ?552 412 553 5 554 +0 0 552
 412 23 81 1 548 2029 473 544 0 542 541 555 556 81 1 550 2197 356 552 555 0 542
 557 558 82 1 551 1229914676 14 552 1595 550 ?559 544 560 5 561 -0 0 559 544 23
 81 1 555 2030 473 552 0 550 548 562 563 81 1 557 2198 356 559 562 0 550 564 565
 82 1 558 1227948596 14 559 1600 557 ?566 552 567 5 568 +0 0 566 552 23 81 1 562
 2031 473 559 0 557 555 569 570 81 1 564 2199 356 566 569 0 557 571 572 82 1 565
 1225982516 14 566 1567 564 ?573 559 574 5 575 -0 0 573 559 23 81 1 569 2032 473
 566 0 564 562 576 577 81 1 571 2200 356 573 576 0 564 578 579 82 1 572 12239509
00 14 573 1572 571 ?0 566 580 5 581 +0 0 0 566 23 81 1 576 2033 473 573 0 571 56
9 0 582 81 1 578 2201 356 345 539 0 571 583 584 82 1 579 1221984820 14 345 65 57
8 ?145 388 342 5 378 -384 384 145 388 23 81 1 539 2004 473 345 0 578 533 585 586
 81 1 583 2202 356 384 531 0 578 0 587 82 1 584 783876656 14 384 218 583 ?380 37
3 339 5 378 -345 345 380 373 23 81 1 531 2000 473 384 0 583 526 588 589 82 1 587
 827720240 80 1 473 0 590 8001 0 0 0 0 3 5 0 0 0 FFFFTFTFFFFFFF2 81 1 588 2001 4
73 380 0 382 531 538 591 83 255 3 589 .792156862745098 .819607843137255 .9333333
33333333 81 1 382 2172 356 380 588 0 371 387 592 81 1 538 2002 473 383 0 387 588
 533 593 83 3 591 .792156862745098 .819607843137255 .933333333333333 81 1 387 21
73 356 383 538 0 382 392 594 83 3 593 .792156862745098 .819607843137255 .9333333
33333333 81 1 392 2174 356 390 506 0 387 397 595 82 1 594 787022383 81 1 506 202
2 473 390 0 392 500 596 597 81 1 397 2175 356 393 596 0 392 401 598 82 1 595 112
7678514 81 1 596 2023 473 393 0 397 506 599 600 81 1 401 2176 356 398 599 0 397
 404 601 82 1 598 1129644594 81 1 599 2024 473 398 0 401 596 602 603 81 1 404 21
77 356 402 602 0 401 407 604 82 1 601 1131610674 81 1 602 2025 473 402 0 404 599
 409 605 82 1 604 1133576754 81 1 409 2026 473 405 0 407 602 547 606 83 3 605 .7
92156862745098 .819607843137255 .933333333333333 81 1 547 2027 473 18 0 410 409
 541 607 83 3 606 .792156862745098 .819607843137255 .933333333333333 81 1 410 21
79 356 18 547 0 407 450 608 83 3 607 .792156862745098 .819607843137255 .93333333
3333333 82 1 608 1137508914 83 3 603 .792156862745098 .819607843137255 .93333333
3333333 83 3 600 .792156862745098 .819607843137255 .933333333333333 83 3 597 .79
2156862745098 .819607843137255 .933333333333333 81 1 371 2171 356 367 530 0 366
 382 609 82 1 592 786629170 81 1 530 1998 473 367 0 371 370 526 610 82 1 609 123
9155252 81 1 370 1997 473 16 0 366 0 530 611 83 3 610 .792156862745098 .81960784
3137255 .933333333333333 83 3 611 .792156862745098 .819607843137255 .93333333333
3333 79 255 15 590 SDL/TYSA_COLOUR15 339 224 0 337 384 612 50 378 96 0 345 537 3
77 0 +0 0 .006 0 0 1 1 0 0 50 537 3 0 388 460 378 0 +0 0 .015 0 0 1 1 0 0 50 460
 310 0 166 363 537 0 +0 0 .011 0 0 1 1 0 0 51 363 311 0 352 355 460 0 --.0102624
010348456 .005925 .015 0 0 -1 .00575 -1 0 0 15 612 67 0 613 384 0 17 613 0 612 6
13 613 0 214 212 0 0 -17 214 0 423 214 214 0 613 212 0 0 +15 423 116 0 214 380 0
 81 1 585 2005 473 145 0 361 539 357 614 83 3 586 .792156862745098 .819607843137
255 .933333333333333 81 1 361 2168 356 145 585 0 358 364 615 81 1 357 2006 473 3
53 0 354 585 616 617 83 3 614 .792156862745098 .819607843137255 .933333333333333
 81 1 616 2007 473 349 0 358 357 474 618 83 3 617 .792156862745098 .819607843137
255 .933333333333333 81 1 358 2167 356 349 616 0 354 361 619 81 1 474 2008 473 1
58 0 463 616 466 620 83 3 618 .792156862745098 .819607843137255 .933333333333333
 83 3 620 .792156862745098 .819607843137255 .933333333333333 82 1 619 801112624
 81 1 364 2169 356 351 475 0 361 366 621 82 1 615 823853616 81 1 475 2010 473 35
1 0 364 466 478 622 82 1 621 801899056 83 3 622 .792156862745098 .81960784313725
5 .933333333333333 83 3 582 .792156862745098 .819607843137255 .933333333333333 1
5 580 1574 0 623 573 624 50 581 1650 0 573 0 575 0 +-.0102624010348456 .005925 .
011 0 0 1 1 0 0 51 575 1648 0 566 581 568 0 +-.0102624010348456 .005925 .011 0 0
 1 .003 1 0 0 50 568 1647 0 559 575 561 0 +.0102624010348456 .005925 .011 0 0 1
 1 0 0 51 561 1645 0 552 568 554 0 +.0102624010348456 .005925 .011 0 0 1 .003 1
 0 0 50 554 1644 0 544 561 546 0 +446996081688784e-33 -.01185 .011 0 0 1 1 0 0 5
1 546 1642 0 412 554 504 0 +446996081688784e-33 -.01185 .011 0 0 1 .003 1 0 0 51
 504 626 0 394 546 524 0 +534320597660846e-32 -.02905803904831385 .011 0 0 1 .00
175 1 0 0 50 524 625 0 416 504 519 0 +267160298830423e-32 -.01452901952415692 .0
11 0 0 1 1 0 0 51 519 622 0 418 524 496 0 +534320597660846e-32 -.029058039048313
85 .011 0 0 1 .005 1 0 0 51 496 536 0 490 519 515 0 +.025165 .01452901952415694
 .011 0 0 1 .00175 1 0 0 50 515 535 0 494 496 510 0 +.0125825 .00726450976207848
 .011 0 0 1 1 0 0 51 510 532 0 429 515 461 0 +.025165 .01452901952415694 .011 0
 0 1 .005 1 0 0 51 461 444 0 455 510 457 0 +-.025165 .01452901952415694 .011 0 0
 1 .00175 1 0 0 17 623 0 580 623 623 0 279 278 0 0 -15 624 1575 0 625 573 0 17 6
25 0 624 625 625 0 626 281 0 0 +17 626 0 574 626 626 0 625 281 0 0 -16 281 1554
 0 ?625 278 627 628 0 0 1 16 627 1558 0 ?629 281 630 631 0 0 1 31 628 1659 0 281
 0 631 0 +-.0102624010348456 .005925 .011 0 0 1 1 0 0 .003 31 631 1658 0 627 628
 632 0 +-.0102624010348456 .005925 .015 0 0 1 1 0 0 .003 31 632 1657 0 630 631 6
33 0 +.0102624010348456 .005925 .011 0 0 1 1 0 0 .003 16 630 1582 0 ?634 627 635
 632 0 0 1 31 633 1656 0 635 632 636 0 +.0102624010348456 .005925 .015 0 0 1 1 0
 0 .003 16 635 1586 0 ?637 630 638 633 0 0 1 31 636 1655 0 638 633 298 0 +446996
081688784e-33 -.01185 .011 0 0 1 1 0 0 .003 16 638 1610 0 ?639 635 640 636 0 0 1
 31 298 1654 0 640 636 296 0 +446996081688784e-33 -.01185 .015 0 0 1 1 0 0 .003
 16 640 1614 0 ?641 638 0 298 0 0 1 17 641 0 642 641 641 0 643 640 0 0 +15 642 1
627 0 641 412 0 17 643 0 644 643 643 0 641 640 0 0 -15 644 1491 0 643 388 645 15
 645 4 0 203 388 420 17 203 0 645 203 203 0 646 201 0 0 +17 646 0 389 646 646 0
 203 201 0 0 -15 389 118 0 646 383 647 15 647 120 0 211 383 0 17 211 0 647 211 2
11 0 648 153 0 0 +17 648 0 346 648 648 0 211 153 0 0 -15 346 66 0 648 345 649 15
 649 68 0 217 345 650 17 217 0 649 217 217 0 651 215 0 0 +15 650 69 0 220 345 65
2 17 220 0 650 220 220 0 376 218 0 0 +15 652 70 0 222 345 0 17 222 0 652 222 222
 0 653 205 0 0 +17 653 0 529 653 653 0 222 205 0 0 -15 529 104 0 653 373 654 15
 654 1535 0 279 373 0 17 279 0 654 279 279 0 623 278 0 0 +17 376 0 368 376 376 0
 220 218 0 0 -17 651 0 374 651 651 0 217 215 0 0 -15 374 112 0 651 367 283 15 28
3 1541 0 282 367 0 17 639 0 655 639 639 0 656 638 0 0 +15 655 1631 0 639 544 0 1
7 656 0 545 656 656 0 639 638 0 0 -15 545 1626 0 656 412 642 17 637 0 657 637 63
7 0 658 635 0 0 +15 657 1599 0 637 552 0 17 658 0 659 658 658 0 637 635 0 0 -15
 659 1506 0 658 388 644 17 634 0 660 634 634 0 661 630 0 0 +15 660 1603 0 634 55
9 0 17 661 0 560 661 661 0 634 630 0 0 -15 560 1598 0 661 552 657 17 629 0 662 6
29 629 0 663 627 0 0 +15 662 1571 0 629 566 0 17 663 0 536 663 663 0 629 627 0 0
 -15 536 1521 0 663 388 659 15 574 1570 0 626 566 662 83 3 577 .792156862745098
 .819607843137255 .933333333333333 83 3 570 .792156862745098 .819607843137255 .9
33333333333333 15 567 1602 0 284 559 660 17 284 0 567 284 284 0 282 280 0 0 -83
 3 563 .792156862745098 .819607843137255 .933333333333333 83 3 556 .792156862745
098 .819607843137255 .933333333333333 15 553 1630 0 288 544 655 17 288 0 553 288
 288 0 285 20 0 0 -83 3 549 .792156862745098 .819607843137255 .933333333333333 8
3 3 540 .792156862745098 .819607843137255 .933333333333333 83 3 532 .79215686274
5098 .819607843137255 .933333333333333 83 3 525 .792156862745098 .81960784313725
5 .933333333333333 15 523 608 0 294 416 29 17 294 0 523 294 294 0 664 290 0 0 +1
7 664 0 503 664 664 0 294 290 0 0 -15 503 618 0 664 394 292 15 292 619 0 289 394
 0 83 3 520 .792156862745098 .819607843137255 .933333333333333 83 3 516 .7921568
62745098 .819607843137255 .933333333333333 15 514 518 0 308 494 665 17 308 0 514
 308 308 0 666 306 0 0 +15 665 519 0 430 494 0 17 430 0 665 268 49 50 314 312 0
 425 -17 268 0 665 75 430 76 425 266 0 424 +17 49 0 665 430 75 47 432 262 0 314
 +17 75 0 665 49 268 73 78 315 0 237 +17 666 0 495 666 666 0 308 306 0 0 -15 495
 528 0 666 490 667 15 667 529 0 311 490 0 17 311 0 667 311 311 0 668 303 0 0 +17
 668 0 669 668 668 0 311 303 0 0 -15 669 523 0 668 388 670 15 670 613 0 293 388
 0 17 293 0 670 293 293 0 289 286 0 0 -83 3 511 .792156862745098 .81960784313725
5 .933333333333333 83 3 507 .792156862745098 .819607843137255 .933333333333333 8
3 3 499 .792156862745098 .819607843137255 .933333333333333 81 1 487 2014 473 444
 0 453 452 483 671 83 3 489 .792156862745098 .819607843137255 .933333333333333 8
1 1 453 2181 356 444 487 0 450 458 672 81 1 452 2013 473 448 0 450 481 487 673 8
3 3 671 .792156862745098 .819607843137255 .933333333333333 81 1 481 2012 473 166
 0 458 478 452 674 83 3 673 .792156862745098 .819607843137255 .933333333333333 8
1 1 458 2182 356 166 481 0 453 463 675 83 3 674 .792156862745098 .81960784313725
5 .933333333333333 82 1 675 800653872 82 1 672 1051066930 15 486 436 0 676 455 6
77 17 676 0 486 676 676 0 322 320 0 0 -15 677 437 0 325 455 0 17 325 0 677 325 3
25 0 678 317 0 0 +17 678 0 422 678 678 0 325 317 0 0 -15 422 431 0 678 388 669 1
7 322 0 456 322 322 0 676 320 0 0 +15 456 426 0 322 444 442 83 3 482 .7921568627
45098 .819607843137255 .933333333333333 82 1 477 801374768 83 3 476 .79215686274
5098 .819607843137255 .933333333333333 79 14 472 SWEntUnchanged82 1 454 10555233
78 17 72 0 385 240 225 70 86 329 0 259 -17 83 0 385 228 231 81 31 301 0 276 -17
 101 0 408 415 39 99 46 272 0 228 -17 38 0 37 35 254 42 305 295 0 39 -82 1 411 1
135542834 15 287 1547 0 285 16 0 82 1 372 1240662580 82 1 359 822215216 17 161 0
 160 332 156 123 159 171 0 334 -17 167 0 160 165 332 129 174 169 0 168 -17 119 0
 140 107 141 117 134 198 0 184 +31 173 330 0 163 170 164 0 +0 0 .011 0 0 1 1 0 0
 .02275 19 17 128 0 1 0 9 5 S0 74 4 CI16 index_map_offset0 0 1 dCCZ20 15 9 0 0 6
79 583 680 681 682 683 576 13 2 0 0 0 0 0 0 0 0 0 0 0 81 5 679 35 684 1 0 680 0
 0 685 0 0 0 0 81 2 680 642 686 1 679 681 0 0 0 687 81 2 681 662 688 1 680 682 0
 0 0 689 81 1 682 1692 690 1 681 683 0 0 691 81 2 683 1762 692 1 682 13 0 0 0 69
3 81 2 13 2035 694 1 683 2 0 0 0 0 80 2 694 695 696 9000 0 0 0 0 3 5 0 0 0 FFTFF
FFFFFFFFF9 1 79 16 696 BODY_RECIPE_200180 2 692 697 698 9000 0 0 0 0 3 5 0 0 0 F
FTFFFFFFFFFFF9 1 82 1 693 1 79 24 698 BODY_IN_LIGHTWEIGHT_PERM80 1 690 699 700 9
000 1 1 1 1 1 1 1 1 0 FFTFFFFFFFFFFF1 82 1 691 1322589 79 10 700 BODY_MATCH80 2
 688 701 702 9000 0 0 0 0 3 5 0 0 0 FFTFFFFFFFFFFF9 1 82 1 689 243 79 30 702 LAS
T_BODY_MODIFYING_FEATURE_ID80 2 686 703 704 9000 0 0 0 0 3 5 0 0 0 FFTFFFFFFFFFF
F9 1 82 1 687 710 79 19 704 ENT_TIME_STAMP_200180 5 684 705 706 9000 0 0 0 0 3 6
 0 0 0 FFTTTTTTFTTFTT2 2 2 2 2 83 1 685 1 79 19 706 BODY_SCALING_FACTOR80 2 12 7
07 708 9000 0 0 0 0 3 5 0 0 0 FFTFFFFFFFFFFF9 1 82 1 14 112 79 12 708 ATOM_ID_20
011 0 
